<svg xmlns="http://www.w3.org/2000/svg" viewBox="0 0 500 500"><g id="freepik--Streetlight--inject-128"><g id="freepik--street-lights--inject-128"><path d="M39.15,293.05a12.46,12.46,0,0,0-11.25,0c-1.56.9-2.33,2.07-2.33,3.25a4,4,0,0,0,2.33,3.25,12.46,12.46,0,0,0,11.25,0,4,4,0,0,0,2.33-3.25C41.48,295.12,40.7,294,39.15,293.05Z" style="fill:#455a64"></path><path d="M41.48,296.3c0-1.18-.78-2.35-2.33-3.25a12.46,12.46,0,0,0-11.25,0c-1.56.9-2.33,2.07-2.33,3.25v1.92a4,4,0,0,0,2.33,3.25,12.46,12.46,0,0,0,11.25,0,4,4,0,0,0,2.33-3.25Z" style="fill:#263238"></path><path d="M39.15,293.05a12.46,12.46,0,0,0-11.25,0c-1.56.9-2.33,2.07-2.33,3.25a4,4,0,0,0,2.33,3.25,12.46,12.46,0,0,0,11.25,0,4,4,0,0,0,2.33-3.25C41.48,295.12,40.7,294,39.15,293.05Z" style="fill:#455a64"></path><path d="M27.63,224.62a2.91,2.91,0,0,1,1.72-2.4,9.21,9.21,0,0,1,8.34,0,2.91,2.91,0,0,1,1.72,2.4v71.13a2.91,2.91,0,0,1-1.72,2.4,9.21,9.21,0,0,1-8.34,0,2.91,2.91,0,0,1-1.72-2.4Z" style="fill:#37474f"></path><path d="M37.69,222.22a9.19,9.19,0,0,0-8.33,0,2.54,2.54,0,0,0,0,4.81,9.19,9.19,0,0,0,8.33,0,2.54,2.54,0,0,0,0-4.81Z" style="fill:#455a64"></path><path d="M34.49,73.91V224.62a.49.49,0,0,1-.28.4,1.5,1.5,0,0,1-1.37,0,.5.5,0,0,1-.29-.4V73.91a1,1,0,0,1,1.94,0Z" style="fill:#263238"></path><path d="M34.4,104.34H32.65A21.66,21.66,0,0,1,43.7,85.89C51.17,81.54,60,81.63,68,86.15l-.86,1.52c-7.41-4.2-15.63-4.3-22.54-.27A19.92,19.92,0,0,0,34.4,104.34Z" style="fill:#263238"></path><path d="M66.91,92.91l4.33,3c3.46,2.4,9,2.75,12.46.77,1.59-.91,2.36-2,2.36-3.18,0-.42,0-2,0-2.43,0-1.31-1-2.61-3.06-3.55L76.13,84.4c-3.83-1.76-8.84-2.08-11.21-.72a2.37,2.37,0,0,0-1.29,2.12c0,.42,0,2,0,2.42C63.61,89.65,64.74,91.4,66.91,92.91Z" style="fill:#263238"></path><path d="M64.92,83.68c-2.36,1.37-1.47,4.42,2,6.83l4.33,3c3.46,2.4,9,2.75,12.46.78s3.1-5-.73-6.77L76.13,84.4C72.3,82.64,67.29,82.32,64.92,83.68Z" style="fill:#37474f"></path><path d="M64.64,85.77a1.42,1.42,0,0,1,.8-1.19A7.4,7.4,0,0,1,69,83.87a16.8,16.8,0,0,1,6.7,1.47l6.84,3.15C84.08,89.2,85,90.13,85,91s-.62,1.66-1.84,2.36a9.84,9.84,0,0,1-4.84,1.15,11.7,11.7,0,0,1-6.51-1.87l-4.34-3C65.72,88.42,64.6,86.89,64.64,85.77Z" style="fill:#455a64"></path></g></g><g id="freepik--Sign--inject-128"><g id="freepik--Signal--inject-128"><polygon points="188.4 59.52 188.4 204.06 189.93 203.17 189.93 58.61 188.4 59.52" style="fill:#263238"></polygon><polygon points="186.31 58.29 186.31 202.85 188.4 204.06 188.4 59.52 186.31 58.29" style="fill:#37474f"></polygon><polygon points="186.31 58.29 188.4 59.52 189.93 58.61 187.84 57.4 186.31 58.29" style="fill:#455a64"></polygon><polygon points="195.59 67.75 180.78 59.2 178.91 60.28 168.44 68.2 168.44 87.94 178.91 107.95 193.72 116.5 195.59 115.42 206.07 107.5 206.07 87.76 195.59 67.75" style="fill:#860065"></polygon><polygon points="195.59 67.75 180.78 59.2 178.91 60.28 168.44 68.2 168.44 87.94 178.91 107.95 193.72 116.5 195.59 115.42 206.07 107.5 206.07 87.76 195.59 67.75" style="opacity:0.2"></polygon><polygon points="193.72 68.83 178.91 60.28 168.44 68.2 168.44 87.94 178.91 107.95 193.72 116.5 204.19 108.59 204.19 88.84 193.72 68.83" style="fill:#860065"></polygon><path d="M193.15,114.34l-13.67-7.89L169.81,88V69.75l9.67-7.31,13.67,7.9,9.66,18.46V107Zm-13.43-8.55,13.18,7.61,9.32-7V88.79L192.9,71l-13.18-7.61-9.31,7V88Z" style="fill:#fafafa"></path><path d="M179.71,79.19l2,1.15V94.46l1.88,1.09V81.43l2,1.15V80.06l-5.88-3.4Zm-1.86,6.52a16,16,0,0,0-1.08-2.45c-.13-.28-.42-.79-.86-1.53s-.65-1.14-.84-1.54a6.91,6.91,0,0,1-.74-2.75,2.24,2.24,0,0,1,.22-1.1.52.52,0,0,1,.79-.16,1.84,1.84,0,0,1,.75.85,5.47,5.47,0,0,1,.44,1.84l1.8.61a9.06,9.06,0,0,0-.41-2.17,6.74,6.74,0,0,0-.91-1.82,5.31,5.31,0,0,0-1.72-1.59,2,2,0,0,0-1.75-.31c-.77.34-1.15,1.27-1.15,2.78a8.48,8.48,0,0,0,.42,2.58,18.55,18.55,0,0,0,1.33,2.93L175.81,85a5.84,5.84,0,0,1,.71,2.47,2,2,0,0,1-.19,1,.67.67,0,0,1-1,.24,2,2,0,0,1-.78-.92,6.79,6.79,0,0,1-.57-2.44l-1.8-.86a10.87,10.87,0,0,0,.42,2.59,7.94,7.94,0,0,0,1,2.19A5.19,5.19,0,0,0,175.4,91a3.27,3.27,0,0,0,1,.42,1.27,1.27,0,0,0,1.29-.43,3.91,3.91,0,0,0,.68-2.59,7.89,7.89,0,0,0-.28-1.75C178.07,86.38,178,86.06,177.85,85.71Zm12-3.4a1.79,1.79,0,0,0-2.1,0,2.74,2.74,0,0,0-.87,2.32v9.08a7.14,7.14,0,0,0,.86,3.32,5.6,5.6,0,0,0,2.11,2.38,1.8,1.8,0,0,0,2.12.06,2.73,2.73,0,0,0,.87-2.31V88A7.16,7.16,0,0,0,192,84.7,5.71,5.71,0,0,0,189.86,82.31Zm1,13.64a1,1,0,0,1-.31.83.66.66,0,0,1-.77,0,2.1,2.1,0,0,1-.76-.86,2.46,2.46,0,0,1-.32-1.2V85.59a.94.94,0,0,1,.32-.83.65.65,0,0,1,.76,0,2,2,0,0,1,.77.86,2.68,2.68,0,0,1,.31,1.2Zm8.79-6.61a5.65,5.65,0,0,0-2.2-2.42l-3-1.71v16.64l1.88,1.09V96.67l1.08.63a1.75,1.75,0,0,0,2.09,0,2.76,2.76,0,0,0,.86-2.32V92.6A7.35,7.35,0,0,0,199.68,89.34ZM198.61,94a1.05,1.05,0,0,1-.31.84.66.66,0,0,1-.77,0l-1.13-.65V88.86l1.13.66a2,2,0,0,1,.79.85,2.63,2.63,0,0,1,.29,1.21Z" style="fill:#fafafa"></path></g></g><g id="freepik--car-2--inject-128"><g id="freepik--Vehicle--inject-128"><path d="M247.68,213c-4.59,4.84-11.41,13.53,1.26,6.49s75.77-36.81,75.77-36.81V215L261.47,250.3s-11.81-8.65-17.69-14.88a16.28,16.28,0,0,1-4-14Z"></path><path d="M242.84,217.19h0l-.57,2.38c-1.31,2.47-4.22,5.58-5.26,5.32s-1.51-1.59-1.8-3.26v0a17.25,17.25,0,0,1-.24-2.43c-.09-2.64,1.08-8.79,4.74-10.42a1.89,1.89,0,0,1,2.17.48,4.3,4.3,0,0,1,1.06,1.75C243.55,212.84,242.93,217.1,242.84,217.19Z" style="fill:#263238"></path><path d="M242.27,219.57c-1.31,2.47-4.22,5.58-5.26,5.32s-1.51-1.59-1.8-3.26v0a17.25,17.25,0,0,1-.24-2.43c-.09-2.64,1.08-8.79,4.74-10.42a1.89,1.89,0,0,1,2.17.48l-.5,1.14c-2.56,1.09-3.25,5-3,8.05S240.81,221.13,242.27,219.57Z" style="fill:#455a64"></path><path d="M242.94,211c-.93-1-3.23-1-5.16,1.63s-2.57,7.22-2.57,9a17.09,17.09,0,0,1-.25-2.42c-.09-2.64,1.09-8.79,4.75-10.43C241.24,208.07,242.5,209.63,242.94,211Z" style="fill:#37474f"></path><path d="M239.19,229.93A188.78,188.78,0,0,0,265.5,248.3c9.74,5.62,21.62,11.24,30.31,15.15a25.4,25.4,0,0,0,23.1-1.18l6.55-3.78,10.06-36.81a18.68,18.68,0,0,1-3,.15c-7.45-.22-21.75-8.48-33.5-15.27s-28.59-16.51-22.94-21.39l-1.62,1.45c-16.6,14.9-35.51,35.82-36.3,36.43l-.46.57A5.45,5.45,0,0,0,239.19,229.93Z" style="fill:#455a64"></path><path d="M303.24,265.5c.49.06,1,.1,1.45.13l-.88-.46a3.31,3.31,0,0,1,1.6,0,14.47,14.47,0,0,1,2,.47,25.93,25.93,0,0,0,7.52-1.52l-.15,0c-3-.24-5.93-.42-8.89-.52a14.94,14.94,0,0,1-1.48-.26c-1.78-.46-1.71-1.07-.26-1.49h0c1.44-.41,6.54-1,8.46-1.59a11,11,0,0,0,3.24-1.77l3.86-1.08a3.12,3.12,0,0,0,.13.65c.06.3.11.61.15.91.1.68.19,1.36.26,2,0,.16,0,.32,0,.48l.68-.39a.41.41,0,0,1,0-.11q-.12-1-.3-2c-.05-.32-.11-.63-.18-.94a2,2,0,0,0-.32-.76l3.74-1,.44-.12c-.08.38-.17.74-.22,1.13s-.09.73-.14,1.09l-.15,1.1.58-.33.09-.77c.05-.38.09-.77.13-1.15a11.08,11.08,0,0,0,0-1.15l1.61-.44.15-.55-1.55.43a3.4,3.4,0,0,0-.06-.67c0-.34-.09-.67-.15-1-.12-.71-.26-1.42-.39-2.12l-.42-2.25c-.07-.37-.15-.73-.22-1.1a2.46,2.46,0,0,0-.32-1.08l0,0,1.15-.68c.53,1.15,1.07,2.29,1.61,3.43.29.62.59,1.23.89,1.84l.24.5.19-.71-.81-1.85q-.77-1.77-1.56-3.54l1-.59c1.24-.75,2.45-1.52,3.65-2.3l.2-.74q-2.47,1.63-5,3.18a14.83,14.83,0,0,0-1.47-1.5l-1.59-1.48c-1.06-1-2.13-1.91-3.23-2.84a.42.42,0,0,0-.14-.09c2.09-1.83,4.26-3.61,6.44-5.37l.21-.17a.32.32,0,0,0,.1.27c.61.56,1.28,1.08,1.89,1.64s1.16,1.08,1.71,1.64,1.13,1.18,1.67,1.78l.19.23.2-.72c-.47-.53-1-1.06-1.47-1.58s-1.17-1.16-1.78-1.72a22.9,22.9,0,0,0-1.81-1.57.66.66,0,0,0-.5-.13l3.25-2.63,1.06-.86-.45-.31-1.66,1.32L323.24,235c-1.18.95-2.36,1.91-3.52,2.88-.79-1-1.6-2-2.39-3l-1.24-1.55a5.47,5.47,0,0,0-1.32-1.4c.82-1.76,1.61-3.52,2.34-5.31.48-1.16.92-2.34,1.36-3.51l-.62-.42c0,.1-.07.2-.1.3-1,2.71-2,5.4-3.08,8.09-.19.49-.39,1-.59,1.49a.3.3,0,0,0-.22-.15c-1.59-.34-3.22-.53-4.82-.71-.84-.1-1.67-.18-2.5-.25l-1.2-.1c-.22,0-.45,0-.68,0A40.55,40.55,0,0,0,306.5,225a16.19,16.19,0,0,0,.3-3.87,12.86,12.86,0,0,0-.9-3.94c0-.09-.18,0-.16.07a15.4,15.4,0,0,1-.05,8.67c-.16.6-.34,1.2-.53,1.8-1.73.32-3.41.82-5.09,1.26l-4.58,1.21c-.17-.77-.36-1.55-.58-2.32a42.48,42.48,0,0,0-4.33-9.71,54.59,54.59,0,0,0-6.76-9.16c-.07-.08-.23,0-.17.11.25.34.52.69.77,1,1.08,1.5,2.2,3,3.22,4.52s2,3.1,2.85,4.68a44.69,44.69,0,0,1,3.15,7c-.66-.12-1.34-.17-2-.24l-2.47-.3c-.84-.11-1.68-.21-2.51-.33l-1.23-.2c-.22,0-.48-.12-.72-.14-.42-.64-.86-1.26-1.32-1.87a32,32,0,0,0-2.28-2.82c-.07-.08-.2,0-.16.1.67,1.1,1.51,2.15,2.24,3.23.34.5.66,1,1,1.5,0,.08,0,.18.15.25h0q.5.81.93,1.65c.46.91.87,1.83,1.26,2.76,0,.08,0,.16.09.21.49,1.18.95,2.36,1.43,3.53q1.36,3.3,2.71,6.61c.9,2.23,1.79,4.46,2.69,6.68.46,1.14.91,2.27,1.39,3.4a32.51,32.51,0,0,0,1.45,3.12c0,.07.13,0,.12-.08a33.41,33.41,0,0,0-1.32-4c-.46-1.24-.94-2.47-1.43-3.71-1-2.65-2.11-5.31-3.18-8a.39.39,0,0,0,.21,0,25.13,25.13,0,0,1,3.06-1.08c.51-.15,1.05-.26,1.55-.43,0,1.11-.09,2.22-.18,3.33a30.16,30.16,0,0,0,0,5.62,33.86,33.86,0,0,0,1,5.31c.4,1.49.88,3,1.4,4.43-.52.34-1.34-.07-2.32-1.66h0l-.38-.64c-3.67-6-7.4-11.88-11.27-17.76q-3-4.48-6-8.94c-1-1.42-1.95-2.82-2.89-4.25a34.59,34.59,0,0,1-2.44-4.17c0-.05-.09,0-.08,0a14.6,14.6,0,0,0,1.12,2.58c.43.77.9,1.53,1.39,2.27,1.06,1.64,2.15,3.26,3.22,4.89q3.35,5.12,6.64,10.26l-.07,0a1.51,1.51,0,0,0-.4.57l-.35.64-.63,1.21-.66,1.26-.34.65h0q-2.59-3.12-5.16-6.26l-3.7-4.53c-1.15-1.41-2.33-2.81-3.34-4.28a21.63,21.63,0,0,1-2.39-4.49,17.8,17.8,0,0,1-.73-2.32.13.13,0,0,0,0-.06l-.32.32c0,.17.07.35.12.52.21.76.46,1.51.73,2.26a19,19,0,0,0,2.49,4.59c1,1.47,2.22,2.88,3.35,4.3s2.38,3,3.58,4.46c1.69,2.09,3.37,4.17,5.08,6.24v0a5.43,5.43,0,0,0-.69.89c-.59.9-1.08,1.85-1.62,2.77l-1.64,2.92c-.15.27.52.43.66.19.54-.92,1.09-1.84,1.62-2.76s1-1.87,1.61-2.78a6.89,6.89,0,0,1,.49-.71l1.87,2.24q3,3.6,6.14,7.14a3.93,3.93,0,0,1,.46,2.57c-.6,1.48-2.24.38-2.24.38a85.84,85.84,0,0,0-9.13-5.34c-1.53-.77-3.1-1.46-4.68-2.16a28.39,28.39,0,0,1-.83-3.6c-.39-2.34-.57-4.69-.9-7a34.55,34.55,0,0,0-.68-3.6,15.74,15.74,0,0,0-1.24-3.48c0-.06-.12,0-.11.07.32,1.3.68,2.59.89,3.9.74,4.44.69,8.92,1.95,13.33-1.4-.63-2.79-1.28-4.13-2a65,65,0,0,1-8.86-5.85q-2.09-1.59-4-3.3c-.62-.54-1.23-1.09-1.82-1.64s-1.09-1-1.66-1.56l-.37.36c.49.54,1,1,1.55,1.56.69.66,1.39,1.31,2.11,1.95q2.16,1.91,4.49,3.68a62,62,0,0,0,9,5.73c1.3.66,2.63,1.27,4,1.87a.64.64,0,0,0,.39.17c1.82.81,3.64,1.6,5.4,2.51a90.29,90.29,0,0,1,9.07,5.44c1.17.79,2.32,1.59,3.46,2.4a1.74,1.74,0,0,1,.43.77c.06.5-.33.78-.77.94l-3.64-.57,1.81.84,3.64.57h0c.12.25-.18.56-.6.83l2.58,1.17a25.39,25.39,0,0,0,6.95,2A.81.81,0,0,1,303.24,265.5Zm-17.85-39.3c-.09-.14-.18-.27-.26-.41l.56.09,1.22.19c.8.12,1.59.22,2.39.31l.91.1a6.68,6.68,0,0,0-.66.64l-.94.94c-.5.49-1,1-1.54,1.43A28.34,28.34,0,0,0,285.39,226.2Zm3,6.41c-.36-.85-.7-1.71-1.06-2.56.62-.54,1.23-1.1,1.81-1.67.32-.31.63-.63.94-.95a3.35,3.35,0,0,0,.72-.88l1,.11,1.32.13.66.05c.17.52.33,1,.47,1.56a27.67,27.67,0,0,0-2.9,2.82c-.83.89-1.64,1.78-2.45,2.68C288.72,233.47,288.54,233,288.37,232.61Zm6.53,3.14c-.27,0-.53.11-.79.16-.46.1-.91.22-1.36.36q-1.29.39-2.52.9l-1-2.51a.28.28,0,0,0,.11-.08q1.35-1.52,2.73-3a34.25,34.25,0,0,0,2.34-2.66,1,1,0,0,1,0,.14c.12.46.22.92.31,1.38a.17.17,0,0,0,.05.25,28.1,28.1,0,0,1,.46,3.37c0,.56.05,1.12.05,1.67Zm-11.85,5.66.65-1.27c.22-.42.44-.84.65-1.26l.31-.62c.06-.12.13-.24.18-.37l1.39,2.17-.06,0c-.45.24-.8.57-1.27.79s-1,.41-1.46.63c-.22.11-.43.23-.62.35Zm10.57,12c-1.08.37-4.18-3-4.79-3.68q-3.07-3.54-6.05-7.13h0a5.34,5.34,0,0,1,1.39-.83c.46-.21.93-.41,1.37-.65a2.82,2.82,0,0,0,.93-.7q1.39,2.2,2.78,4.41c1.54,2.44,3.05,4.88,4.56,7.32C294.06,252.75,294.11,253.28,293.62,253.45ZM305,258.37s-1.24-.09-.09-2.12,4.15-6.68,4.15-6.68h0c.42-.55.85-1.1,1.3-1.64.94.52,1.92,1,2.88,1.5l1.58.82c.51.27,1,.56,1.44.86l-.19.15-.44.34c-.17,0-.31.09-.29.22a30.84,30.84,0,0,1-3.21,2.21c-1.42.82-2.9,1.57-4.29,2.43-1,.6-1.9,1.23-2.81,1.88Zm11.89-.68h0l-.56.16-.41.11c-4.08,1.15-6.31,1.64-7.82.55-.62-.45-.41-1.08.09-1.69.42-.26.85-.51,1.29-.76,1.41-.82,2.9-1.55,4.25-2.43.67-.43,1.3-.9,1.92-1.38l1.86,2.25c.35.42.7.85,1.06,1.27s.63.81,1,1.17Zm6.69-6.09c.13.71.27,1.42.4,2.13.06.33.11.67.15,1a4.09,4.09,0,0,0,.08.92l-2.25.62-1.8.51a3.68,3.68,0,0,0-.34-.44c-.21-.26-.41-.52-.62-.77-.34-.43-.69-.85-1-1.27l-2-2.45c.48-.37.94-.74,1.42-1.1a40.49,40.49,0,0,1,4.15-2.62l1.14-.66a3.06,3.06,0,0,0,.13.9c.06.36.12.73.19,1.09C323.27,250.17,323.41,250.88,323.54,251.6Zm-2.33-8.48,1.56,1.45c.51.47,1,1,1.57,1.4h0a.17.17,0,0,0-.11.09c-1.39.83-2.81,1.62-4.21,2.44a35.26,35.26,0,0,0-3.39,2.29,6,6,0,0,0-1.38-.89l-1.58-.83c-1-.52-2-1.07-3-1.57l.42-.51a62.37,62.37,0,0,1,4.87-5c1,.61,1.93,1.24,2.87,1.89s2.07,1.4,3.07,2.13c.1.08.3-.07.2-.14-.92-.78-1.85-1.54-2.84-2.26s-1.91-1.35-2.9-2l1.19-1.09.35-.29h0Q319.58,241.66,321.21,243.12Zm-25.12-8a3.65,3.65,0,0,0,.65-.1l1.05-.22c.66-.14,1.32-.28,2-.44a26.21,26.21,0,0,0,3.45-1c-.1.28-.19.56-.28.84a26.87,26.87,0,0,0-1,4.25l0,.15c-.57.1-1.15.2-1.72.32l-1.64.34-1.65.35-.85.17-.08,0,.12-1.73A29.79,29.79,0,0,0,296.09,235.08Zm16.23,1.58h0c-.36.81-.73,1.61-1.12,2.4,0,0,0,.06.05,0l1.17-2.34c1.55,1.12,3.07,2.28,4.65,3.39-.85.76-1.69,1.53-2.51,2.32l0,0a23.25,23.25,0,0,0-3-1.74c-1.1-.54-2.22-1-3.37-1.5a25.1,25.1,0,0,0-3.19-1.12,4.37,4.37,0,0,0-2.2-.14c0-.14.05-.27.07-.4a29,29,0,0,1,.73-2.92c.73.1,1.47.18,2.2.29l2.25.33,2.32.37c.76.12,1.55.31,2.32.36-.07.14-.13.29-.2.44S312.16,236.55,312.32,236.66Zm-9.66,1.82a3.86,3.86,0,0,1,2.35.08c1,.3,2,.69,3,1.08a63.09,63.09,0,0,1,6.18,3,.25.25,0,0,0,.13,0c-.78.75-1.53,1.52-2.26,2.3a44.61,44.61,0,0,0-4.65-2.15c-.81-.33-1.62-.65-2.45-.94-.41-.15-.82-.3-1.23-.43l-.64-.22-.29-.09-.18-.06a.78.78,0,0,0-.3,0C302.42,240.2,302.53,239.34,302.66,238.48Zm11.93-6.2a3.17,3.17,0,0,0,.39.59c.21.28.43.55.64.82l1.13,1.44c.82,1,1.64,2,2.49,3,0,0,0,0,.05.05-.64.54-1.28,1.09-1.9,1.64-1.48-1.19-3.07-2.3-4.62-3.42a.34.34,0,0,0-.17-.05c.08-.16.16-.32.23-.48s.1-.1.07-.14c.19-.39.39-.78.58-1.16Zm-9.12-.49,1.24.11c.78.07,1.55.14,2.32.23,1.57.18,3.14.43,4.71.62a.37.37,0,0,0,.27-.05q-.61,1.5-1.26,3a22.74,22.74,0,0,0-2.44-.45l-2.25-.35-2.32-.34c-.69-.1-1.4-.22-2.09-.3l.33-1c.17-.5.35-1,.53-1.51C304.83,231.76,305.15,231.77,305.47,231.79Zm-5-2.39,2.63-.7c.65-.18,1.32-.35,2-.56-.52,1.6-1.13,3.17-1.68,4.77-1.4.27-2.75.66-4.12,1l-2,.44-1,.21-.2,0a28.55,28.55,0,0,0-.48-3.88Zm-4.56,10.88a3.53,3.53,0,0,0,.55-.1l.85-.17,1.65-.35,1.65-.37c.43-.1.83-.23,1.24-.36-.14,1-.26,1.94-.37,2.92a11.64,11.64,0,0,0-1.23.31c-.52.13-1,.25-1.57.35s-1.11.22-1.66.33l-.86.17-.33.06C295.79,242.14,295.83,241.21,295.89,240.28ZM300,254.82c-.49.49-1.14.55-1.91-.78-.55-1.6-1-3.22-1.43-4.85a31.21,31.21,0,0,1-.81-5.39v-.17c.27,0,.53-.1.8-.15l.85-.17,1.67-.35c.56-.13,1.12-.26,1.67-.42l.59-.2c0,.19-.05.39-.07.59l-1.08,9.28C300.16,253.08,300.07,254,300,254.82Zm1-1.88c.06-.56.12-1.11.19-1.67.35-3.1.72-6.21,1.08-9.31,0-.17,0-.34,0-.51.29.12.63.2.92.29l1.31.45c.83.3,1.65.61,2.46.94,1.64.66,3.22,1.41,4.81,2.17-.62.67-1.22,1.35-1.79,2a.22.22,0,0,0-.15.16,1.47,1.47,0,0,1-.1.13c-1.82,2.22-3.44,4.54-5.05,6.87a10.45,10.45,0,0,1-2.39,2.11C301.11,257,301,253.11,301,252.94Z" style="fill:#fff;opacity:0.2"></path><path d="M324.45,219.79c-4.38,22.71-11.45,32.64-18.06,35s-22.16.32-41.27-9.95c-3.73-2-4.65-1.35-3.74,1,1.33.82,2.71,1.64,4.12,2.46,9.74,5.62,21.62,11.24,30.31,15.15a25.4,25.4,0,0,0,23.1-1.18l6.55-3.78,10.06-36.81a18.68,18.68,0,0,1-3,.15A26.2,26.2,0,0,1,324.45,219.79Z" style="fill:#fff;opacity:0.2"></path><path d="M273.6,190.2c2.63,5.28,12.28,11.18,24.38,18.16,12.41,7.17,26.48,15.3,34.47,15.54h.32l-9.08,33.22-5.81,3.36a23.54,23.54,0,0,1-11.68,3.12,23.07,23.07,0,0,1-9.54-2c-8.32-3.74-20.3-9.39-30.12-15.06a185.83,185.83,0,0,1-26-18.15,3.41,3.41,0,0,1-1-3.7,1.15,1.15,0,0,0,.14-.17c.33-.31,1-1,3-3.19,5.73-6.1,18.7-19.89,30.9-31.09m2.48-5-.11.1.11-.1Zm-.11.1-1.51,1.35c-16.6,14.9-35.51,35.82-36.3,36.43l-.46.57a5.45,5.45,0,0,0,1.49,6.31A188.78,188.78,0,0,0,265.5,248.3c9.74,5.62,21.62,11.24,30.31,15.15a25.36,25.36,0,0,0,23.1-1.18l6.55-3.78,10.06-36.81a18.9,18.9,0,0,1-2.38.16h-.62c-7.45-.22-21.75-8.48-33.5-15.27s-28.35-16.37-23-21.29Z" style="fill:#263238"></path><path d="M238,224.35c-.2.12-.4.26-.59.4a5.41,5.41,0,0,0,.53,3.56,4.34,4.34,0,0,1,0-3.91h0l0,0Z" style="fill:#263238"></path><path d="M386.4,219.55l-60.93,38.94,10-36.8c6.18-.76,5.22-.51,15-6.14l17.42-10.06a7.31,7.31,0,0,1,7.31,0l11.06,6.38A4.47,4.47,0,0,1,386.4,219.55Z" style="fill:#263238"></path><g id="freepik--vehicle--inject-128"><polygon points="410.47 250.14 387.94 237.44 400.44 230.23 410.44 236.02 410.47 250.14" style="fill:#263238"></polygon><path d="M318.85,303V288.89l-10-5.79-12.5,7.21,8.56,8,14,8.06V303Z" style="fill:#263238"></path><path d="M309.59,300.08l3.23-6.42-7.68-4.45h0c-2.45-1.41-5.71-1.25-9.28.82-7.59,4.38-13.75,15.69-13.75,25.25,0,5,1.69,8.54,4.39,10.15h0l.1.06h0l7.88,4.55,3.41-6.77C304.36,318.34,309.34,308.61,309.59,300.08Z" style="fill:#37474f"></path><path d="M309.59,300.08l3.23-6.42-7.68-4.45h0c-2.45-1.41-5.71-1.25-9.28.82-7.59,4.38-13.75,15.69-13.75,25.25,0,5,1.69,8.54,4.39,10.15h0l.1.06h0l7.88,4.55,3.41-6.77C304.36,318.34,309.34,308.61,309.59,300.08Z" style="fill:#263238"></path><path d="M317.61,304c0,8.25-4.58,17.79-10.71,23.07l0,0a20.66,20.66,0,0,1-3,2.16c-7.6,4.39-13.76.18-13.75-9.38,0-7.22,3.51-15.45,8.51-20.93l0,0a21.69,21.69,0,0,1,5.2-4.28C311.45,290.26,317.61,294.46,317.61,304Z" style="fill:#37474f"></path><path d="M303.86,300.42c4.83-2.79,8.75.11,8.75,6.49s-3.92,13.81-8.75,16.6-8.75-.12-8.75-6.5S299,303.21,303.86,300.42Z" style="fill:#455a64"></path><path d="M307.81,310.2c-.33,3.17-2.37,6.53-4.55,7.5a2.11,2.11,0,0,1-2.38-.2c-.77-.65-1.16-2-1-3.77.33-3.17,2.36-6.54,4.55-7.51a2.46,2.46,0,0,1,1.6-.21h0C307.32,306.32,308.05,307.89,307.81,310.2Z" style="fill:#fafafa"></path><path d="M307,309.79c-.33,3.17-2.37,6.53-4.55,7.5a2.46,2.46,0,0,1-1.6.21c-.77-.65-1.16-2-1-3.77.33-3.17,2.36-6.54,4.55-7.51a2.46,2.46,0,0,1,1.6-.21h0C306.83,306.67,307.22,308,307,309.79Z" style="fill:#e0e0e0"></path><path d="M317.61,304c0,8.25-4.58,17.79-10.71,23.07a39,39,0,0,0,8.72-16.87c1.16-5.51.72-13.43-4-15.43s-11,2.22-12.95,4.14a21.69,21.69,0,0,1,5.2-4.28C311.45,290.26,317.61,294.46,317.61,304Z" style="fill:#455a64"></path><path d="M401.18,247.21l3.23-6.42-7.69-4.45h0c-2.45-1.41-5.7-1.25-9.28.82-7.59,4.38-13.74,15.69-13.75,25.25,0,5,1.69,8.54,4.39,10.15l8,4.62,3.4-6.77C395.94,265.47,400.93,255.74,401.18,247.21Z" style="fill:#37474f"></path><path d="M401.18,247.21l3.23-6.42-7.69-4.45h0c-2.45-1.41-5.7-1.25-9.28.82-7.59,4.38-13.74,15.69-13.75,25.25,0,5,1.69,8.54,4.39,10.15l8,4.62,3.4-6.77C395.94,265.47,400.93,255.74,401.18,247.21Z" style="fill:#263238"></path><path d="M409.19,251.15c0,8.25-4.58,17.79-10.71,23.07l0,0a20.21,20.21,0,0,1-3,2.16c-7.59,4.39-13.75.18-13.75-9.38,0-7.22,3.52-15.45,8.51-20.93,0,0,0,0,0,0a22.18,22.18,0,0,1,5.2-4.29C403,237.39,409.19,241.59,409.19,251.15Z" style="fill:#37474f"></path><path d="M395.44,247.55c4.83-2.79,8.75.11,8.75,6.49s-3.92,13.81-8.75,16.6-8.75-.12-8.75-6.5S390.61,250.34,395.44,247.55Z" style="fill:#455a64"></path><path d="M399.4,257.33c-.34,3.17-2.38,6.53-4.56,7.5a2.12,2.12,0,0,1-2.38-.2c-.77-.65-1.16-2-1-3.77.33-3.18,2.37-6.54,4.55-7.51a2.4,2.4,0,0,1,1.6-.21h0C398.9,253.45,399.64,255,399.4,257.33Z" style="fill:#fafafa"></path><path d="M398.62,256.92c-.34,3.17-2.38,6.53-4.56,7.5a2.46,2.46,0,0,1-1.6.21c-.77-.65-1.16-2-1-3.77.33-3.18,2.37-6.54,4.55-7.51a2.4,2.4,0,0,1,1.6-.21h0C398.41,253.8,398.8,255.14,398.62,256.92Z" style="fill:#e0e0e0"></path><path d="M409.19,251.15c0,8.25-4.58,17.79-10.71,23.07a39,39,0,0,0,8.72-16.87c1.17-5.51.73-13.43-4-15.43s-11,2.22-13,4.14a22.18,22.18,0,0,1,5.2-4.29C403,237.39,409.19,241.59,409.19,251.15Z" style="fill:#455a64"></path><path d="M318.91,262.28v3.81c-3.58,2.22-7.17,4.39-10.71,6.44-30,17.35-46.08,26.6-81.36,6.25a63.43,63.43,0,0,1-16.36-12.95c-4.58-5.22-2.17-14.26,1-19.76,3.71-6.52,9.95-11.37,16-15.58.85-.59,7.8-5.18,10.74-7.45-.16.19-.31.4-.46.59a5.47,5.47,0,0,0,1.49,6.31A189.56,189.56,0,0,0,265.5,248.3c9.73,5.62,21.62,11.25,30.31,15.15A25.43,25.43,0,0,0,318.91,262.28Z"></path><path d="M325.46,258.49l3.36-12.28a5,5,0,0,0,7.44,5.55l36.14-22.82c-2.32,1.67-27.63,21.06-53.49,37.15v-3.81Z" style="fill:#455a64"></path><path d="M400.94,177.3c0,.15,0,.29,0,.45v.17c-1.66,3.78-8.71,7.72-23.49,16.25-17.12,9.89-28.23,15.8-34.71,19.51-3.37,1.94-5.75,3-7.2,8l-6.71,24.52,6.7-24.53a17.54,17.54,0,0,1-3,.14c-7.45-.22-21.75-8.47-33.5-15.25s-28.59-16.51-22.94-21.4,41-23.32,51.42-29c8.28-4.53,15.55-7.54,24.05-7.54s17.76,3.14,28.43,9.57c18.86,11.4,20.66,15,20.92,18C400.92,176.62,400.94,177,400.94,177.3Z" style="fill:#455a64"></path><path d="M200.35,286.81c2.64,10,14.75,19.87,23.73,24.95,13.56,7.67,28.24,13.8,43.92,12.43,5.78-.5,11.54-1.84,16.41-5.12,2.34-1.57,2.45-2.64,3.2-5.33a40.19,40.19,0,0,1,3.56-8.7,34.12,34.12,0,0,1,9.94-11.57,17.25,17.25,0,0,1,1.54-1c8.37-4.84,15.27-.94,16.15,8.66a18.73,18.73,0,0,1,.1,1.88l59-34.08s0-.72.27-2.94a39.26,39.26,0,0,1,.72-4,41.08,41.08,0,0,1,3.85-9.81,34.5,34.5,0,0,1,9.95-11.58c.51-.35,1-.67,1.55-1,8.37-4.84,15.27-1,16.14,8.64.06.6.09,1.22.09,1.87l3.33-1.93c8-4.6,8.1-12.45,8-18.16v0c-.05-1-.09-2.18-.12-3.42,0-.17,0-.33,0-.5-.08-2.88-.16-6.22-.32-9.51-.07-1.14-.13-2.27-.21-3.4,0-.52-.08-1-.12-1.52-.12-1.28-.25-2.49-.4-3.63-.6-4.38-1.54-6.29-2.58-7.39a9.26,9.26,0,0,0-1.83-1.41,13.67,13.67,0,0,0-1.37-.81c-.38-.2-.75-.39-1.09-.54.4.67.72,1.21.92,1.57l-5.37,5.06c-3.43,3.24-8.7,3.6-13,1.66a10.71,10.71,0,0,1-1.17-.6l-10.48-6.05a2.31,2.31,0,0,1-.11-3.93l1.61-1.08.73-.5c.25-.17.5-.33.74-.51,2.54-1.74,4.61-3.26,7.33-5.14,5.2-3.61,5.9-5.39,6-8.11,0-.63,0-1.31,0-2.06s0-1.33,0-2c-.1,4.41-6.44,8.13-23.48,18s-28.22,15.8-34.7,19.51c-3.38,1.94-5.76,3-7.21,8,6.17-.75,5.22-.5,15-6.13l17.41-10.06a7.31,7.31,0,0,1,7.31,0l11.06,6.38a4.47,4.47,0,0,1,.13,7.67L326,258.12,372.4,229c-2.64,1.9-35.08,26.77-64.2,43.58-30,17.35-46.08,26.61-81.36,6.25-3.52-2-6.87-4.07-9.56-7.09s-4.69-5.29-5.83-10.94a23.73,23.73,0,0,1,.72-12.41,25.43,25.43,0,0,1,6.43-11,79.41,79.41,0,0,0-9.77,9c-.41.46-.81.93-1.19,1.4A36.4,36.4,0,0,0,200,264.37C198.52,272.45,198,278,200.35,286.81Z" style="fill:#37474f"></path><path d="M238,223.27l0,0v0Z" style="fill:#455a64"></path><path d="M320.47,263.52,320,267c-1,.49-1.92,1-2.88,1.43-1.71.83-3.42,1.65-5.1,2.43-2,.93-4,1.81-6,2.78-1.26.61-2.69,2-4.09,2.16-1.89.27-3.15-1.65-4.95-1.61s-2.81,1.69-3.58,3a11.66,11.66,0,0,1-2.56,3.34,4.1,4.1,0,0,1-3.95.83c-1.6-.65-2.71-2.67-4.43-2.47-1.32.15-2.08,1.54-2.79,2.67a8.93,8.93,0,0,1-6.59,4.4c-.57.11-1.15.21-1.73.3a3.17,3.17,0,0,1-.35.06c-.84.13-1.67.25-2.51.35l-.32,0c-5.59.6-12.53.7-17.85-1.38-4.27-1.69-7.26-5.66-11.52-7.16-2.29-.82-4.88-.61-7.06-1.67-2.9-1.4-4.43-4.69-7.13-6.44a36.41,36.41,0,0,0-4.94-2.17c-4-1.81-5.56-6.45-5.9-10.54a34.46,34.46,0,0,1,2.59-17.05,6.4,6.4,0,0,1,1.5-2.34,2.63,2.63,0,0,1,2.59-.65c.41.17.82.46,1.25.38a1.5,1.5,0,0,0,.83-.71,27.15,27.15,0,0,0,2.57-4.71,9.19,9.19,0,0,1,1.37-2.59c1.72-2,3.39.2,5.26-.8s3.71-2.85,5.6-4.15c.19-.14.39-.28.59-.4h0l0,0h0a4.34,4.34,0,0,0,0,3.91,6.59,6.59,0,0,0,1.58,2.24,28.84,28.84,0,0,0,4.2,3A190,190,0,0,0,265.5,248.3c9.73,5.62,21.62,11.25,30.31,15.15a25.23,25.23,0,0,0,6.59,1.93A27.76,27.76,0,0,0,320.47,263.52Z" style="fill:#37474f"></path><path d="M320.47,262.46,320,266l-2.88,1.41c-1.71.83-3.42,1.66-5.1,2.45-2,.92-4,1.8-6,2.76-1.26.61-2.69,2-4.09,2.16-1.89.28-3.15-1.65-4.95-1.61s-2.81,1.69-3.58,3a11.66,11.66,0,0,1-2.56,3.34,4.08,4.08,0,0,1-3.95.83c-1.6-.65-2.71-2.66-4.43-2.47-1.32.15-2.08,1.54-2.79,2.67a8.93,8.93,0,0,1-6.59,4.4l-1.73.31a3.17,3.17,0,0,1-.35.06c-.84.13-1.67.25-2.51.34l-.32,0c-5.59.6-12.53.7-17.85-1.38-4.27-1.69-7.26-5.66-11.52-7.16-2.29-.81-4.88-.61-7.06-1.67-2.9-1.4-4.43-4.69-7.13-6.44a36.41,36.41,0,0,0-4.94-2.17c-4-1.81-5.56-6.45-5.9-10.54a34.48,34.48,0,0,1,2.59-17.05,6.48,6.48,0,0,1,1.5-2.34,2.64,2.64,0,0,1,2.59-.64c.41.16.82.46,1.25.37a1.47,1.47,0,0,0,.83-.71,27.72,27.72,0,0,0,2.57-4.69,8.85,8.85,0,0,1,1.37-2.6c1.72-2,3.39.19,5.26-.81,2.12-1.15,4.08-3.23,6.19-4.54h0l0,0c-.08.09-.15.19-.22.28a5.47,5.47,0,0,0,1.49,6.31A189.56,189.56,0,0,0,265.5,248.3c9.73,5.62,21.62,11.25,30.31,15.15a25.45,25.45,0,0,0,17.32,1.26h0A29,29,0,0,0,320.47,262.46Z" style="fill:#455a64"></path><path d="M283.75,276.71c-7.08-6-15-10.74-23-15.41-7.75-4.54-15.58-8.94-23.16-13.76-4.39-2.79-8.74-5.66-13-8.71-.38-.27-.56.23-.25.48a182.93,182.93,0,0,0,22.09,15c8,4.77,16.07,9.33,23.95,14.25,4.43,2.77,8.86,5.55,13.22,8.42C283.8,277.07,283.83,276.78,283.75,276.71Z" style="fill:#37474f"></path><path d="M296.57,271.21c-2.13-1.31-4.2-2.71-6.34-4s-4.16-2.4-6.25-3.58q-6-3.36-12-6.74c-8.07-4.58-16.13-9.19-24.08-14-4.52-2.72-9.05-5.44-13.5-8.28-.34-.22-.4.3-.15.47Q245.89,243,258,250.15c7.89,4.66,15.88,9.16,23.87,13.64,2.3,1.28,4.58,2.58,6.91,3.81,2.56,1.36,5.18,2.58,7.77,3.88C296.66,271.56,296.67,271.28,296.57,271.21Z" style="fill:#37474f"></path><path d="M265.76,265.33c-1.7-.16-3.35.92-4.77,1.77-1.58.94-3.15,1.91-4.72,2.88-3.2,2-6.46,3.91-9.47,6.17-.09.06-.05.31.07.25,3.4-1.64,6.61-3.63,9.85-5.56l4.82-2.9a19.36,19.36,0,0,1,2.24-1.21c.71-.32,1.48-.5,2.17-.89C266.16,265.72,266,265.34,265.76,265.33Z" style="fill:#37474f"></path><path d="M279.15,261.59a59.42,59.42,0,0,0-5.77,2c-.95.38-1.89.79-2.82,1.21a8.05,8.05,0,0,0-2.51,1.41c-.15.16.1.53.3.48A14.52,14.52,0,0,0,271,265.6c.93-.41,1.86-.8,2.8-1.17,1.93-.75,3.88-1.43,5.87-2C280.28,262.23,279.68,261.43,279.15,261.59Z" style="fill:#37474f"></path><path d="M281.77,258.36a.65.65,0,0,0-.31-.22c.06,0,.05,0,0,0a.29.29,0,0,0-.16,0,1.14,1.14,0,0,0-.3.09l-.56.22-1.16.44-1.09.42a5.94,5.94,0,0,0-1.24.53c-.22.15,0,.57.25.55a5.53,5.53,0,0,0,1.2-.29l1.17-.38,1.06-.4a6.67,6.67,0,0,0,1.14-.47C281.89,258.73,281.85,258.49,281.77,258.36Z" style="fill:#37474f"></path><path d="M239.77,249.78a43.8,43.8,0,0,0-5.6,6.77,59.35,59.35,0,0,0-5.42,7.73c-.05.1,0,.45.18.31a58.68,58.68,0,0,0,6-7.34,45.56,45.56,0,0,1,5.73-6.89C241.07,250,240.17,249.43,239.77,249.78Z" style="fill:#37474f"></path><path d="M242.85,241.25c-.8,1.19-1.58,2.4-2.32,3.62a19.69,19.69,0,0,0-1.9,3.71c-.07.2.23.61.41.37a39.4,39.4,0,0,0,2.31-3.65c.74-1.21,1.52-2.4,2.32-3.57C243.94,241.32,243.12,240.84,242.85,241.25Z" style="fill:#37474f"></path><path d="M247.19,238.48l-1,1.56c-.35.54-.64,1.12-1,1.67-.09.15.15.53.28.35.39-.53.83-1,1.2-1.57l1.1-1.6C248,238.62,247.4,238.15,247.19,238.48Z" style="fill:#37474f"></path><path d="M334,164.36l6.11-3.67c2-1.25,4.06-2.48,6.06-3.75-2.1,1.1-4.18,2.25-6.27,3.38l-6.24,3.46c-4.15,2.31-6.4,3.61-10.48,6.05S315,174.72,311,177.25c4.2-2.22,8.36-4.53,12.51-6.84S329.9,166.79,334,164.36Zm41.17,16.32-6.23,3.46c-4.15,2.32-6.41,3.62-10.49,6.06s-8.15,4.88-12.18,7.41c4.2-2.22,8.36-4.52,12.51-6.84s6.41-3.61,10.49-6.05l6.11-3.67c2-1.25,4.06-2.47,6.07-3.75C379.32,178.41,377.24,179.56,375.15,180.68Zm-30.59-10.21,6.11-3.67c2-1.25,4.06-2.48,6.07-3.75-2.11,1.1-4.19,2.25-6.28,3.38l-6.24,3.46c-4.15,2.31-6.4,3.61-10.48,6.05s-8.16,4.89-12.18,7.42c4.2-2.22,8.36-4.53,12.51-6.84S340.48,172.9,344.56,170.47Zm14.11,8.14,6.11-3.67c2-1.25,4.06-2.47,6.07-3.75-2.11,1.11-4.19,2.26-6.28,3.38L358.33,178c-4.15,2.32-6.4,3.62-10.48,6.06s-8.16,4.88-12.18,7.41c4.2-2.22,8.36-4.52,12.51-6.84S354.59,181.05,358.67,178.61Z" style="fill:#263238"></path><path d="M384.67,199.54l10.48,6.05c4.48,2.59,10.42,2.48,14.17-1.06l5.37-5.06c-1.49-2.57-8.68-14.63-13.75-19.21,0,2.06-.92,4.07-3.26,5.9-3.58,2.8-9,6.7-13.12,9.44A2.32,2.32,0,0,0,384.67,199.54Z" style="fill:#263238"></path><path d="M313.88,272.62l-5,3.16a.78.78,0,0,0-.37.63l-.11,2.48a.48.48,0,0,0,.74.43l5-3.1a.8.8,0,0,0,.37-.64l.12-2.53A.48.48,0,0,0,313.88,272.62Z" style="fill:#860065"></path><path d="M318.89,303v3.37l59-34.08V269Z" style="fill:#37474f"></path><g style="opacity:0.2"><path d="M359.88,277.73h0a.32.32,0,0,1-.31-.34c0-.22,1.18-22,.54-37.39a.34.34,0,0,1,.32-.34h0a.32.32,0,0,1,.32.31c.64,15.46-.53,37.24-.54,37.45A.32.32,0,0,1,359.88,277.73Z"></path></g><g style="opacity:0.2"><path d="M320.8,302h0a.31.31,0,0,1-.3-.34c0-.22,1.17-22,.54-37.39a.32.32,0,0,1,.31-.34h0a.33.33,0,0,1,.32.31c.63,15.46-.53,37.24-.55,37.46A.31.31,0,0,1,320.8,302Z"></path></g><path d="M392.94,233.09a29.25,29.25,0,0,0-11.53,8.49,40,40,0,0,0-7.29,12.71,27,27,0,0,0-1.9,8.22c0,.25.42.48.52.18.4-1.22.67-2.47,1-3.71s.68-2.4,1.08-3.58a43,43,0,0,1,3-6.87,37.26,37.26,0,0,1,8.89-10.77,47.3,47.3,0,0,1,6.36-4.3C393.26,233.37,393.12,233,392.94,233.09Z" style="opacity:0.2"></path><path d="M332.52,221.82a14.7,14.7,0,0,1-2.42-.29c.47,1.7-.09,3.91-1.11,7.95-1.71,6.75-6.73,23.17-8.11,27.58s-5.53,6.77-8.55,7.86a25.57,25.57,0,0,0,6.58-2.65l6.56-3.78,10-36.8A18.68,18.68,0,0,1,332.52,221.82Z"></path><path d="M356,239.18l5.9-3.68-3.23-24.66-4.14,2.39Z"></path><path d="M419,211.69a8.45,8.45,0,0,0,2,0c-.12-1.28-.25-2.5-.4-3.62-.6-4.39-1.54-6.3-2.58-7.4a1,1,0,0,1-.15.14,20.74,20.74,0,0,0-4.67,5.8,4.41,4.41,0,0,0-.37,1.2C412.47,210.78,417,211.44,419,211.69Z" style="fill:#860065"></path><path d="M215.48,272.9a174.12,174.12,0,0,0,31.25,18,2.81,2.81,0,0,1,1.39,4.13,19.14,19.14,0,0,1-5.91,5.22c-1.57.86-4.41.59-6.08,0a78.41,78.41,0,0,1-23.46-13.41c-1.36-1.16-2.94-3.53-3-5.32a23.47,23.47,0,0,1,1.17-8.21C211.49,271.59,214,271.84,215.48,272.9Z" style="fill:#263238"></path><path d="M239.55,298.83a8.09,8.09,0,0,1-2.73-.46,76.8,76.8,0,0,1-22.89-13.06,7.18,7.18,0,0,1-2.32-3.91,21.54,21.54,0,0,1,1-7.37c.31-.63,1.33.15,1.71.43a176.27,176.27,0,0,0,31.6,18.18,1.27,1.27,0,0,1,.7.78.46.46,0,0,1-.08.44,17.28,17.28,0,0,1-5.28,4.67A4,4,0,0,1,239.55,298.83Z"></path><path d="M224.47,293.56l-1.88-.45a48.28,48.28,0,0,1,4.48-11.27l1.68,1A47.7,47.7,0,0,0,224.47,293.56Z" style="fill:#263238"></path><path d="M211.69,278.12l-.2.25c.06.05,5.93,4.47,13.42,9.06A139.91,139.91,0,0,0,244.29,297l.1-.3a139.56,139.56,0,0,1-19.31-9.54C217.6,282.57,211.74,278.16,211.69,278.12Zm-.14,1.4-.2.25c.06,0,5.41,4.16,12.9,8.75a134.88,134.88,0,0,0,19.07,9.38l.1-.3a135.13,135.13,0,0,1-19-9.36C216.94,283.66,211.6,279.56,211.55,279.52Zm-.27,2.8-.2.25a122.36,122.36,0,0,0,11.85,8.13,125.69,125.69,0,0,0,18.46,9l.1-.31a119.59,119.59,0,0,1-30.21-17.1Zm.14-1.4-.2.25a140.08,140.08,0,0,0,12.37,8.44,131,131,0,0,0,18.76,9.21l.11-.31a129.64,129.64,0,0,1-18.7-9.18A141.78,141.78,0,0,1,211.42,280.92Zm.4-4.2-.19.26c.06,0,6.45,4.77,13.94,9.36a147.76,147.76,0,0,0,19.68,9.74l.11-.3a148.64,148.64,0,0,1-19.62-9.72C218.26,281.48,211.88,276.76,211.82,276.72Zm15.23,7.16c-7.48-4.58-14.89-9.91-15-10l-.19.26c.08.05,7.49,5.39,15,10a162,162,0,0,0,20.31,10.1l.1-.3A160.88,160.88,0,0,1,227.05,283.88ZM212,275.32l-.2.26c.07.05,7,5.08,14.46,9.67a155.57,155.57,0,0,0,20,9.92l.1-.3a155.93,155.93,0,0,1-19.93-9.9C218.91,280.39,212,275.37,212,275.32Z" style="fill:#263238"></path><path d="M224.4,297c10,5.22,23,11.67,37.36,11.41s27.43-9.73,27.43-9.73a46.46,46.46,0,0,1-27.34,11.7c-16.79,1.22-27.51-5.7-37.8-11.26-10.7-5.77-19.75-14.4-21.39-23.76C205.14,283,214.38,291.74,224.4,297Z" style="fill:#263238"></path><path d="M243.48,316.21c-9.19-2.76-15.78-6.74-22.19-10.94s-10.55-8-12.86-11.25c-2.18-3-3.41-6.88-2-6.28a105.62,105.62,0,0,0,10.65,9.11c9.76,6.57,20.07,14.63,36.47,15.69a13.55,13.55,0,0,1,3.15.39C260.68,314.32,249.73,318.09,243.48,316.21Z" style="fill:#263238"></path><path d="M277.45,310.52c-.91-.16-3.21.4-7.12,1.41S265.48,313,264,314c-1.24.81-4.56,3.37-6.15,4.14-2.52,1.22,0,2.21,6.91,2.4s9.36-1.84,11-3.93S279.53,310.86,277.45,310.52Z" style="fill:#263238"></path><path d="M203.07,286.29c1.19-.05.22-2.12-.54-5.19-.7-2.77-2.78-5.73-3.71-8a40,40,0,0,0,.81,10.61A7,7,0,0,0,203.07,286.29Z" style="fill:#263238"></path><path d="M259,292.57a10.2,10.2,0,0,0-5.79,1.67c-1.88,1.33-5.13,4.47-3,6.9a6.18,6.18,0,0,0,3.52,1.69,23.67,23.67,0,0,0,13-1.2A19.63,19.63,0,0,0,274,297a5,5,0,0,0,1.36-2.07,2.14,2.14,0,0,0-.61-2.27,4.43,4.43,0,0,0-2.75-.53l-6.85.29C263.09,292.53,261.07,292.48,259,292.57Z" style="fill:#fafafa"></path><path d="M269.76,296.58a.75.75,0,0,0-.64-.61,2.36,2.36,0,0,0-.95.1l-2.2.53c-.16,0-.33.1-.49.13a.77.77,0,0,1-.39-.07,4.77,4.77,0,0,1-.81-.46,5.7,5.7,0,0,1,1.2-1.15c.72-.58,1.43-1.19,2.11-1.8.35-.31-.17-.43-.42-.37a1.56,1.56,0,0,0-.64.41l-1.26,1.11h-2.62a.93.93,0,0,1-.95-.51c-.27-.46-.56-.91-.83-1.37h-.1l.63,2.41a10,10,0,0,0-1.26-2.09c0-.06-.1-.18-.16-.3a3.36,3.36,0,0,0-.78,0c0,.07.34.4.38.45a11.76,11.76,0,0,1,1,1.59,3,3,0,0,1,.46,1.58.31.31,0,0,1-.13.29.37.37,0,0,1-.32-.05,4.18,4.18,0,0,1-.81-.66c-.33-.33-.64-.68-.94-1a2.63,2.63,0,0,0-.71-.7c.48.66,1,1.29,1.49,1.92a2.4,2.4,0,0,1,.6,1s0,0,0,.05a.05.05,0,0,1,0,0,.87.87,0,0,1-.57-.19,2.85,2.85,0,0,0-.6-.31,1.47,1.47,0,0,1,.58.78.21.21,0,0,1,0,.19.2.2,0,0,1-.15.08,1.32,1.32,0,0,1-1.13-.35c-.85-.67-1.71-1.32-2.57-2a7.92,7.92,0,0,0-2.08-1.26l-.2.12a11.7,11.7,0,0,1,1.13.93l1.17,1,1.17,1a5.22,5.22,0,0,1,.93.83,29.21,29.21,0,0,1-4.29.15.71.71,0,0,0-.36.09.24.24,0,0,0-.09.32c1.59.06,3.18.17,4.76.35.43.05,1.29.06,1.54.49s-.18,1.37-.46,1.79-.62.81-.91,1.23a.89.89,0,0,0-.21.63,42.06,42.06,0,0,1,2.9-3.34.31.31,0,0,1,.31-.09c.1,0,.12.18.13.3l.06,1.17c.17-.57.34-1.13.5-1.7.24.08.33.36.39.6l.39,1.75a2.55,2.55,0,0,0,.36.94c-.12-1.11-.24-2.22-.37-3.33a.27.27,0,0,1,0-.2.19.19,0,0,1,.19-.07.74.74,0,0,1,.41.27c.48.5.94,1,1.38,1.55a8.94,8.94,0,0,0,1.13,1.32l.77-.27-3-3.84A45.56,45.56,0,0,0,269.76,296.58Zm-5.22.32a.18.18,0,0,1,0,.07.11.11,0,0,1,0,.09.13.13,0,0,1-.1,0,3.71,3.71,0,0,1-1,.17,1.8,1.8,0,0,1,.53-.6C264.15,296.53,264.38,296.74,264.54,296.9Zm-1.8-.5,0,0-.08,0c-.15,0-.23-.16-.26-.31a4.77,4.77,0,0,1-.08-1.36,5.7,5.7,0,0,0,1.43-.06,2.13,2.13,0,0,1,1.17,0c-.19.17-.36.36-.56.54l-.53.46A5.86,5.86,0,0,1,262.74,296.4Z" style="fill:#e0e0e0"></path><path d="M269.76,296.58a.75.75,0,0,0-.64-.61,2.36,2.36,0,0,0-.95.1l-2.2.53c-.16,0-.33.1-.49.13a.77.77,0,0,1-.39-.07,4.77,4.77,0,0,1-.81-.46,5.7,5.7,0,0,1,1.2-1.15c.72-.58,1.43-1.19,2.11-1.8.35-.31-.17-.43-.42-.37a1.56,1.56,0,0,0-.64.41l-1.26,1.11h-2.62a.93.93,0,0,1-.95-.51c-.27-.46-.56-.91-.83-1.37h-.1l.63,2.41a10,10,0,0,0-1.26-2.09c0-.06-.1-.18-.16-.3a3.36,3.36,0,0,0-.78,0c0,.07.34.4.38.45a11.76,11.76,0,0,1,1,1.59,3,3,0,0,1,.46,1.58.31.31,0,0,1-.13.29.37.37,0,0,1-.32-.05,4.18,4.18,0,0,1-.81-.66c-.33-.33-.64-.68-.94-1a2.63,2.63,0,0,0-.71-.7c.48.66,1,1.29,1.49,1.92a2.4,2.4,0,0,1,.6,1s0,0,0,.05a.05.05,0,0,1,0,0,.87.87,0,0,1-.57-.19,2.85,2.85,0,0,0-.6-.31,1.47,1.47,0,0,1,.58.78.21.21,0,0,1,0,.19.2.2,0,0,1-.15.08,1.32,1.32,0,0,1-1.13-.35c-.85-.67-1.71-1.32-2.57-2a7.92,7.92,0,0,0-2.08-1.26l-.2.12a11.7,11.7,0,0,1,1.13.93l1.17,1,1.17,1a5.22,5.22,0,0,1,.93.83,29.21,29.21,0,0,1-4.29.15.71.71,0,0,0-.36.09.24.24,0,0,0-.09.32c1.59.06,3.18.17,4.76.35.43.05,1.29.06,1.54.49s-.18,1.37-.46,1.79-.62.81-.91,1.23a.89.89,0,0,0-.21.63,42.06,42.06,0,0,1,2.9-3.34.31.31,0,0,1,.31-.09c.1,0,.12.18.13.3l.06,1.17c.17-.57.34-1.13.5-1.7.24.08.33.36.39.6l.39,1.75a2.55,2.55,0,0,0,.36.94c-.12-1.11-.24-2.22-.37-3.33a.27.27,0,0,1,0-.2.19.19,0,0,1,.19-.07.74.74,0,0,1,.41.27c.48.5.94,1,1.38,1.55a8.94,8.94,0,0,0,1.13,1.32l.77-.27-3-3.84A45.56,45.56,0,0,0,269.76,296.58Zm-5.22.32a.18.18,0,0,1,0,.07.11.11,0,0,1,0,.09.13.13,0,0,1-.1,0,3.71,3.71,0,0,1-1,.17,1.8,1.8,0,0,1,.53-.6C264.15,296.53,264.38,296.74,264.54,296.9Zm-1.8-.5,0,0-.08,0c-.15,0-.23-.16-.26-.31a4.77,4.77,0,0,1-.08-1.36,5.7,5.7,0,0,0,1.43-.06,2.13,2.13,0,0,1,1.17,0c-.19.17-.36.36-.56.54l-.53.46A5.86,5.86,0,0,1,262.74,296.4Z" style="opacity:0.1"></path><path d="M266.3,301.78a12.11,12.11,0,0,0,0-9.07c0-.1-.09-.21-.14-.31l5.78-.24a4.43,4.43,0,0,1,2.75.53,2.14,2.14,0,0,1,.61,2.27A5,5,0,0,1,274,297a19.63,19.63,0,0,1-7.24,4.6Z" style="fill:#860065"></path><path d="M210.18,262a24,24,0,0,1-1.53,11.19,1.44,1.44,0,0,1-.38.61c-1.86,1.47-4.18-6.89-4.3-7.83-.45-3.39.61-8.43,2.31-12,.72-1.5,1.59-2.1,2.24-.28a35.12,35.12,0,0,1,1.32,5.65C210,260.19,210.1,261.08,210.18,262Z" style="fill:#fafafa"></path><path d="M206.28,254c.72-1.5,1.59-2.1,2.24-.28a24.06,24.06,0,0,1,.8,2.89,11.59,11.59,0,0,0-4.69,4.77c-.26.5-.48,1-.7,1.54A26.45,26.45,0,0,1,206.28,254Z" style="fill:#860065"></path><path d="M422.87,233.35a6.1,6.1,0,0,1-1.24,3c-1.83,2.52-.89,1.59-7.82,5.59v9.37l4.79-2.76C422.41,246.3,422.87,241.74,422.87,233.35Z" style="fill:#263238"></path><path d="M421.83,230a7.15,7.15,0,0,1-.16,1.59c-.27,1.54-1.23,3.32-5.33,5.68s-5.17,3-5.17,3l2.64,1.56c6.93-4,6-3.07,7.82-5.59a6.1,6.1,0,0,0,1.24-3C422.87,231.72,422.71,230.75,421.83,230Z" style="fill:#455a64"></path><polygon points="411.17 240.33 411.17 249.73 413.81 251.26 413.81 241.89 411.17 240.33" style="fill:#37474f"></polygon></g><path d="M321.65,264.47l2.47-1.57-2.47,1.47Zm40.46-24.05a.26.26,0,0,0-.07-.16c0-1.17-.08-2.32-.13-3.43,0-.39,0-.76-.06-1.13h0v-.07l0-.26h0L358.62,211h0l-.76.44-.31.18-.17.1-.51.29a2.71,2.71,0,0,0-.37.21.65.65,0,0,1-.15.1l-.55.31-.07,0h0l-1.06.6-.19.11-4,2.32L346,218.25l-1.11.64-.85.46-.09.05-.06,0-.58.31.15-.07c-.28.15-.55.3-.8.42l-.71.34-.34.14-.23.09-.09,0c-.21.08-.42.16-.63.22l.31-.11a20.31,20.31,0,0,1-2.39.59l-.37.06h-.09l-.64.09-2,.25-6.71,24.52-3.35,12.27,0,0-1.14,4.19c.23-.14.45-.29.67-.44l.06,0-.73.48-.2.12c-.82.53-1.64,1.06-2.47,1.58l-.42,37.31,0,3.4,40.36-23.33c0-.81.09-2,.14-3.45.12-3.3.27-8,.38-13.4C362.3,257.58,362.43,248.2,362.11,240.42Z"></path><g id="freepik--vehicle--inject-128"><path d="M340,228.14a5.16,5.16,0,0,0-3.86,3.37l-6,17.2-3.94,11.23,0,0,.65-.17,10.77-3h0L362,250h0l6.91-1.9v0l-3.76-25.39h0l-.12,0-.22,0c-.15,0-.32.06-.54.12l-.36.08-.2,0-.6.13-.27.07a.9.9,0,0,0-.16,0l-.18,0-.21.05c-.15,0-.29.06-.43.09l-.08,0-.09,0-.49.11h0l-.17.05a3.86,3.86,0,0,0-.49.1l-.22.05-4.71,1.06-5.21,1.19-1.3.28C347.11,226.7,342.88,227.55,340,228.14Z" style="fill:#263238"></path><g id="freepik--vehicle--inject-128"><path d="M321.73,264.51l2.9-.69-2.9.79Z" style="fill:#455a64"></path><path d="M369,249.6c-2.57.92-5.47,1.94-8.61,3-.82.29-1.66.57-2.51.85s-1.72.59-2.59.88l-2.69.9c-1.82.61-3.7,1.23-5.63,1.83s-3.88,1.25-5.88,1.87l-3,.93-.13.05c-1.77.54-3.54,1.08-5.35,1.6-.93.27-1.85.55-2.78.81s-2,.59-3,.87l-.83.23a.76.76,0,0,1-.2.06l-.06,0-.8.22,1.34-3.83,0,0,3.94-11.23c0,.11-.07.21-.1.31h0c-.92,3.58,3.49,7.86,7.6,7.74h0l.46,0h0a6.63,6.63,0,0,0,.75-.15l30.08-8.13C369,248.84,369,249.22,369,249.6Z" style="fill:#455a64"></path><path d="M361.17,223.61l-.68.14c.44-.11.88-.2,1.34-.3a.55.55,0,0,0-.17.05Z" style="fill:#37474f"></path><path d="M362.26,223.36c-.15,0-.29.06-.43.09a5.51,5.51,0,0,1,.64-.14Z" style="fill:#37474f"></path><path d="M362.81,223.24a.9.9,0,0,0-.16,0,2.07,2.07,0,0,1,.43-.1Z" style="fill:#37474f"></path><path d="M365.13,222.71l-.89.2.89-.21Z" style="fill:#37474f"></path><polygon points="361.98 250.02 368.89 248.1 368.89 248.12 368.93 248.38 368.93 248.45 338.11 256.74 338.09 256.73 326.85 259.75 337.62 256.77 337.63 256.77 361.98 250.03 361.98 250.02" style="fill:#37474f"></polygon><path d="M368.75,291.12l-8.08,1.81-2.89.65-4.4,1-2.95.66-2.81.64-26.39,5.93.5-37.18,2.9-.8.23-.06.86-.25a.76.76,0,0,0,.2-.06l.83-.23c1-.28,2-.56,3-.87s1.85-.53,2.78-.81c1.81-.52,3.58-1.06,5.35-1.6l.13-.05,3-.93q3-.93,5.88-1.87c1.93-.6,3.81-1.22,5.63-1.83l2.69-.9c.87-.29,1.74-.58,2.59-.88s1.69-.56,2.51-.85c3.14-1.09,6-2.11,8.61-3C369.76,263.56,369.13,282.42,368.75,291.12Z" style="fill:#37474f"></path><path d="M360.67,292.93l-2.89.65-4.4,1-2.95.66-2.81.64-26.39,5.93,0,3.39,47.39-10.66c0-.8.1-2,.16-3.41Z" style="fill:#37474f"></path><g style="opacity:0.2"><path d="M368.22,290.75h0a.49.49,0,0,1-.36-.44c0-.21,1.39-21.6.64-37.22,0-.18.16-.29.37-.24h0a.52.52,0,0,1,.38.42c.74,15.65-.63,37.07-.64,37.28S368.42,290.8,368.22,290.75Z"></path></g><path d="M368.93,248.38,362,250.2l0-.17h0l-1.71-26.2v0l.22-.05q.33-.09.66-.15h0l.58-.14.08,0c.14,0,.28-.07.43-.09l.21-.05.18,0a2.07,2.07,0,0,1,.43-.1l.6-.13.2,0,.36-.08c.22-.06.39-.09.54-.12l.22,0,.12,0s0,0,0,0l3.76,25.39v0Z"></path></g></g><path d="M335,261.54c-1.18,5.6-7.39,6.78-12,6.64a14.09,14.09,0,0,1-5.11-.88c-1.8-1-1-3.18,0-4.43,1.63-2.11,8.94-6.34,13.52-6.48C334.07,256.3,335.83,257.61,335,261.54Z" style="fill:#263238"></path><path d="M335,261.54c-1.18,5.6-7.39,6.78-12,6.64a14.09,14.09,0,0,1-5.11-.88c-1.8-1-1-3.18,0-4.43-.9,1.71,3.88,2.77,8.15,1.24s7.44-4.83,5.37-7.72C334.07,256.3,335.83,257.61,335,261.54Z" style="fill:#455a64"></path><path d="M335,261.54c-1.18,5.6-7.39,6.78-12,6.64,4.62-.13,8.31-2.8,9.7-5.7s.34-5.72-1.3-6.09C334.07,256.3,335.83,257.61,335,261.54Z" style="fill:#37474f"></path></g></g><g id="freepik--car-1--inject-128"><g id="freepik--vehicle--inject-128"><path d="M143.34,298.85a6,6,0,0,0,3.85-5.32c.29-2.66.12-5.55-3.95-8.31s-7.19-1.79-8.77-1.07Z" style="fill:#455a64"></path><path d="M141.66,299.15a4,4,0,0,1-1.85-.71l-4.22-2.8a6.9,6.9,0,0,1-2.93-5.9l.36-3.25a2.78,2.78,0,0,1,3.14-2.66,4.15,4.15,0,0,1,1.85.72l4.2,2.8a6.87,6.87,0,0,1,2.94,5.9l-.35,3.25A2.78,2.78,0,0,1,141.66,299.15Z" style="fill:#263238"></path><path d="M137.31,285.41l4.21,2.8a5.79,5.79,0,0,1,2.44,4.91l-.35,3.25c-.19,1.69-1.58,2.23-3.11,1.21l-4.21-2.81a5.78,5.78,0,0,1-2.44-4.9l.36-3.25C134.39,284.93,135.78,284.39,137.31,285.41Z" style="fill:#455a64"></path><g style="opacity:0.2"><path d="M138.57,286.25l-4.7,3.39.41-3.76,1.34-1a2.51,2.51,0,0,1,1.7.5Z" style="fill:#fff"></path><path d="M142.21,288.79l-7,5a5.9,5.9,0,0,1-.5-.7h0l6.78-4.89A4.47,4.47,0,0,1,142.21,288.79Z" style="fill:#fff"></path><path d="M144,293.12l-.06.56-4.44,3.2-1.94-1.29,6.17-4.45A4.52,4.52,0,0,1,144,293.12Z" style="fill:#fff"></path></g><polygon points="156.34 420.54 125.06 402.48 145.91 390.44 177.19 408.5 156.34 420.54" style="fill:#860065"></polygon><polygon points="156.34 420.54 125.06 402.48 145.91 390.44 177.19 408.5 156.34 420.54" style="opacity:0.30000000000000004"></polygon><path d="M145.62,422.14,149.2,415l-8.51-4.92h0c-2.71-1.56-6.31-1.38-10.27.9-8.41,4.86-15.22,17.38-15.22,28,0,5.54,1.87,9.45,4.85,11.23h0l.12.07h0l8.72,5,3.78-7.49C139.83,442.37,145.35,431.59,145.62,422.14Z" style="fill:#37474f"></path><path d="M145.62,422.14,149.2,415l-8.51-4.92h0c-2.71-1.56-6.31-1.38-10.27.9-8.41,4.86-15.22,17.38-15.22,28,0,5.54,1.87,9.45,4.85,11.23h0l.12.07h0l8.72,5,3.78-7.49C139.83,442.37,145.35,431.59,145.62,422.14Z"></path><path d="M154.49,426.51c0,9.13-5.06,19.7-11.85,25.54l0,0a21.84,21.84,0,0,1-3.34,2.39c-8.4,4.86-15.22.21-15.22-10.38,0-8,3.89-17.11,9.42-23.17,0,0,0,0,.05-.05a24.7,24.7,0,0,1,5.75-4.74C147.68,411.28,154.49,415.92,154.49,426.51Z" style="fill:#263238"></path><path d="M139.27,422.52c5.35-3.09,9.69.13,9.69,7.19s-4.34,15.28-9.69,18.37-9.68-.13-9.68-7.19S133.92,425.61,139.27,422.52Z" style="fill:#37474f"></path><path d="M143.65,433.35c-.37,3.51-2.63,7.23-5,8.31a2.35,2.35,0,0,1-2.64-.23c-.85-.72-1.28-2.21-1.07-4.18.37-3.51,2.62-7.23,5-8.31a2.72,2.72,0,0,1,1.77-.23h0C143.11,429.06,143.92,430.79,143.65,433.35Z" style="fill:#455a64"></path><path d="M154.49,426.51c0,9.13-5.06,19.7-11.85,25.54a43.13,43.13,0,0,0,9.65-18.68c1.29-6.1.81-14.86-4.43-17.08s-12.16,2.45-14.34,4.58a24.7,24.7,0,0,1,5.75-4.74C147.68,411.28,154.49,415.92,154.49,426.51Z" style="fill:#455a64"></path><polygon points="260.33 360.6 229.05 342.55 234.12 336.21 265.4 354.27 260.33 360.6" style="fill:#860065"></polygon><polygon points="260.33 360.6 229.05 342.55 234.12 336.21 265.4 354.27 260.33 360.6" style="opacity:0.30000000000000004"></polygon><path d="M249.61,362.2l3.58-7.1-8.51-4.93h0c-2.71-1.56-6.31-1.38-10.27.91-8.41,4.85-15.22,17.37-15.22,28,0,5.54,1.87,9.46,4.85,11.23h0l.12.06h0l8.72,5,3.78-7.49C243.82,382.43,249.34,371.65,249.61,362.2Z" style="fill:#37474f"></path><path d="M249.61,362.2l3.58-7.1-8.51-4.93h0c-2.71-1.56-6.31-1.38-10.27.91-8.41,4.85-15.22,17.37-15.22,28,0,5.54,1.87,9.46,4.85,11.23h0l.12.06h0l8.72,5,3.78-7.49C243.82,382.43,249.34,371.65,249.61,362.2Z"></path><path d="M258.49,366.57c0,9.13-5.07,19.7-11.86,25.55l0,0a21.84,21.84,0,0,1-3.34,2.39c-8.4,4.86-15.22.21-15.22-10.38,0-8,3.89-17.11,9.42-23.17l0-.05a24.7,24.7,0,0,1,5.75-4.74C251.67,351.34,258.49,356,258.49,366.57Z" style="fill:#263238"></path><path d="M243.26,362.58c5.35-3.09,9.69.13,9.69,7.19s-4.34,15.29-9.69,18.37-9.68-.13-9.68-7.18S237.91,365.67,243.26,362.58Z" style="fill:#37474f"></path><path d="M247.64,373.41c-.37,3.51-2.63,7.23-5,8.31a2.37,2.37,0,0,1-2.64-.22c-.85-.73-1.28-2.21-1.07-4.19.37-3.51,2.62-7.23,5-8.3a2.67,2.67,0,0,1,1.77-.24h0C247.1,369.12,247.91,370.85,247.64,373.41Z" style="fill:#455a64"></path><path d="M258.49,366.57c0,9.13-5.07,19.7-11.86,25.55a43.16,43.16,0,0,0,9.65-18.69c1.29-6.1.81-14.86-4.43-17.08s-12.16,2.46-14.34,4.58a24.7,24.7,0,0,1,5.75-4.74C251.67,351.34,258.49,356,258.49,366.57Z" style="fill:#455a64"></path><path d="M274.54,332.1v10.14c0,5.62-5,13-11.12,16.58l-3.1,1.8c-1.77-8.78-8.73-12.1-17.07-7.29a27.72,27.72,0,0,0-6.62,5.44s0,.05-.06.07a43.58,43.58,0,0,0-10.39,21.49l-69.85,40.2c-1.77-8.78-8.73-12.09-17.07-7.29a28.83,28.83,0,0,0-6.62,5.47s0,0,0,.05a43.56,43.56,0,0,0-10.4,21.48l-6.88,4c-6.13,3.54-11.85,3.8-22.23,0s-38.6-19.37-50.75-29.31c-7.95-6.41-11.11-11.81-11.11-18.46v-12c0-.59,0-1.21,0-1.77s.05-1.13.1-1.69a49.92,49.92,0,0,1,.9-7.19,31,31,0,0,1,.66-3.13,65.44,65.44,0,0,1,7.88-19.33c7.5-11.84,10.37-14.53,18-18.9l24.61,9.89s84-48.39,97.34-56.12,49.13-5.31,69.87,7.83S274.54,318.36,274.54,332.1Z" style="fill:#860065"></path><path d="M274.54,332.1v10.14c0,5.62-5,13-11.12,16.58l-3.1,1.8c-1.77-8.78-8.73-12.1-17.07-7.29a27.72,27.72,0,0,0-6.62,5.44s0,.05-.06.07a43.58,43.58,0,0,0-10.39,21.49l-69.85,40.2c-1.77-8.78-8.73-12.09-17.07-7.29a28.83,28.83,0,0,0-6.62,5.47s0,0,0,.05a43.56,43.56,0,0,0-10.4,21.48l-6.88,4c-6.13,3.54-11.85,3.8-22.23,0s-38.6-19.37-50.75-29.31c-7.95-6.41-11.11-11.81-11.11-18.46v-12c0-.59,0-1.21,0-1.77s.05-1.13.1-1.69a49.92,49.92,0,0,1,.9-7.19,31,31,0,0,1,.66-3.13,65.44,65.44,0,0,1,7.88-19.33c7.5-11.84,10.37-14.53,18-18.9l24.61,9.89,79.86-46c8.16-4.7,64.37,37.62,67.64,36.66,18.83-5.56,32.93-14.72,35.26-26.12C273.12,315,274.54,323,274.54,332.1Z" style="opacity:0.15"></path><path d="M126,365.73,58.3,332.66c-7.24,4.22-10.16,7-17.51,18.64a65.44,65.44,0,0,0-7.88,19.33,31,31,0,0,0-.66,3.13,49.92,49.92,0,0,0-.9,7.19c-.05.56-.08,1.13-.1,1.69s0,1.18,0,1.77v12c0,6.65,3.16,12.05,11.11,18.46,12.15,9.94,40.38,25.51,50.75,29.31,6.83,2.5,11.63,3.21,15.87,2.42-1.69-4.4-.16-13.62,2.14-31.56C114,392.25,117.91,374.78,126,365.73Z" style="opacity:0.15"></path><path d="M229.34,334c4-2.35,5.79-5.78,4.22-9.49l-42.43-8.2.08,12.06Z" style="fill:#263238"></path><path d="M139,289.93H180.7c6.71,0,18.31,3.89,32.83,13.41s30,22.06,17.32,29.58Z" style="fill:#263238"></path><path d="M140.39,291.27H182.1c6.51,0,19.46,6.94,29.88,13s26.38,20.9,20.86,24.08c-2.05,1.18-6.88.58-20.86-1.16l-17.79-2.23Z" style="fill:#455a64"></path><path d="M230.62,319.89A77.09,77.09,0,0,0,212,304.23c-10.42-6-23.37-13-29.88-13H140.39l19.33,12.09,5.05-2.31c-6.32-3.67,11.44-5.54,21.53-4.17S223.21,310.54,230.62,319.89Z" style="fill:#fff;opacity:0.2"></path><path d="M129.54,371.47a69.93,69.93,0,0,0-.28,12.35c.14,4.12,3.27,6,7,3.84L229.34,334c3.68-2.12,3.24-4.27-1-4.8l-24.22-3a26.78,26.78,0,0,0-14.31,2.89l-53.62,30.86C132.53,362.05,130.15,365.63,129.54,371.47Z" style="fill:#263238"></path><path d="M131.51,370.9a51.6,51.6,0,0,0-.41,12.43c.29,2.38,2.4,3.27,4.86,1.85l86.45-49.81c2.46-1.42,2.17-2.85-.65-3.21l-21.09-2.67a17.84,17.84,0,0,0-9.54,1.93L136,363.2C133.5,364.62,132.28,366.19,131.51,370.9Z" style="fill:#37474f"></path><polygon points="169.93 340.97 169.93 367.66 171.69 366.64 171.69 339.95 169.93 340.97" style="fill:#263238"></polygon><polygon points="201.56 327.68 201.56 349.37 203.32 348.35 203.32 326.67 201.56 327.68" style="fill:#263238"></polygon><path d="M274.55,332.09v10.14c0-.1,0-.2,0-.32-.17-4.2-3.43-19.38-16.06-14.76-18.87,6.9-94.61,46.85-100.49,50,5.39-3,69.08-38,77-42.14,6.08-3.15,25.75-12.64,29.13-22.94a18.65,18.65,0,0,0,2-5.23c.19.22.39.44.56.66l.69.86.06.08c.25.33.49.65.71,1,.41.57.79,1.13,1.15,1.7.26.39.5.79.73,1.19s.35.62.51.92.34.64.49,1,.31.63.45,1c.26.55.49,1.12.7,1.67.09.22.17.45.25.67.18.51.34,1,.5,1.51q.15.46.27.93c.06.27.13.53.2.79s.11.48.17.73.11.56.17.85c.15.79.28,1.59.4,2.4.07.53.12,1.07.18,1.61C274.48,328.16,274.55,330.09,274.55,332.09Z" style="fill:#860065"></path><path d="M274.55,332.09v10.14c0-.1,0-.2,0-.32-.17-4.2-3.43-19.38-16.06-14.76-18.87,6.9-94.61,46.85-100.49,50,5.39-3,69.08-38,77-42.14,6.08-3.15,25.75-12.64,29.13-22.94a18.65,18.65,0,0,0,2-5.23c.19.22.39.44.56.66l.69.86.06.08c.25.33.49.65.71,1,.41.57.79,1.13,1.15,1.7.26.39.5.79.73,1.19s.35.62.51.92.34.64.49,1,.31.63.45,1c.26.55.49,1.12.7,1.67.09.22.17.45.25.67.18.51.34,1,.5,1.51q.15.46.27.93c.06.27.13.53.2.79s.11.48.17.73.11.56.17.85c.15.79.28,1.59.4,2.4.07.53.12,1.07.18,1.61C274.48,328.16,274.55,330.09,274.55,332.09Z" style="fill:#fff;opacity:0.15"></path><path d="M130.93,414.39a34.16,34.16,0,0,1,6.78-6.2,22.75,22.75,0,0,1,8.5-3.6,14.93,14.93,0,0,1,4.67.08,11.55,11.55,0,0,1,4.27,1.89,14.17,14.17,0,0,1,5,7.62,15,15,0,0,0-5.27-7.22,11.79,11.79,0,0,0-4.09-1.71,13.9,13.9,0,0,0-4.46,0A23,23,0,0,0,138,408.6,41.46,41.46,0,0,0,130.93,414.39Z" style="fill:#860065"></path><path d="M234.58,354.53a34.16,34.16,0,0,1,6.78-6.2,22.75,22.75,0,0,1,8.5-3.6,14.93,14.93,0,0,1,4.67.08,11.55,11.55,0,0,1,4.27,1.89,14.13,14.13,0,0,1,5,7.62,15,15,0,0,0-5.27-7.22,11.81,11.81,0,0,0-4.09-1.72,14.2,14.2,0,0,0-4.46,0,22.94,22.94,0,0,0-8.33,3.37A41.46,41.46,0,0,0,234.58,354.53Z" style="fill:#860065"></path><path d="M162.67,412.55q14.43-9.26,29.26-17.84c4.92-2.9,9.85-5.78,14.84-8.56s9.92-5.65,15-8.34l-.33.54a36.1,36.1,0,0,1,2.59-9.59,25,25,0,0,1,5.46-8.16,26.84,26.84,0,0,0-4.68,8.46,38.83,38.83,0,0,0-2,9.39l0,.34-.31.19c-4.86,3-9.82,5.85-14.74,8.74s-9.88,5.73-14.86,8.52Q177.93,404.73,162.67,412.55Z" style="opacity:0.2"></path><path d="M268.64,310.1c1.61,4.36-2.62,10.81-1.95,17s5.57,6.63,7.67,0C275.31,320.09,270.21,311.06,268.64,310.1Z" style="fill:#fafafa"></path><path d="M228.55,348.08a6,6,0,0,0,3.85-5.31c.29-2.66.11-5.56-4-8.32s-7.18-1.79-8.77-1.07Z" style="fill:#455a64"></path><path d="M226.87,348.39a4.29,4.29,0,0,1-1.86-.71l-4.21-2.81a6.87,6.87,0,0,1-2.93-5.9l.36-3.25a2.78,2.78,0,0,1,3.13-2.65,4,4,0,0,1,1.86.71l4.2,2.8a6.91,6.91,0,0,1,2.94,5.9l-.36,3.25A2.78,2.78,0,0,1,226.87,348.39Z" style="fill:#263238"></path><path d="M222.52,334.64l4.21,2.8a5.83,5.83,0,0,1,2.44,4.91l-.35,3.25c-.19,1.69-1.58,2.23-3.11,1.21L221.5,344a5.77,5.77,0,0,1-2.44-4.91l.35-3.25C219.6,334.16,221,333.62,222.52,334.64Z" style="fill:#455a64"></path><g style="opacity:0.2"><path d="M223.78,335.48l-4.7,3.39.41-3.76,1.33-1a2.53,2.53,0,0,1,1.71.51Z" style="fill:#fff"></path><path d="M227.42,338l-7,5a7.24,7.24,0,0,1-.51-.69h0l6.77-4.89A3.94,3.94,0,0,1,227.42,338Z" style="fill:#fff"></path><path d="M229.17,342.36l-.07.56-4.43,3.2-1.94-1.29,6.17-4.46A4.72,4.72,0,0,1,229.17,342.36Z" style="fill:#fff"></path></g><g style="opacity:0.2"><path d="M127,378.94c.26,5.4.29,10.81.66,16.19.27,2.65.46,5.42,1.59,7.8a3.38,3.38,0,0,0,2.77,2.24,9.83,9.83,0,0,0,3.76-1,59.24,59.24,0,0,1,7.77-2.41,19.21,19.21,0,0,1,8.13-.29,11.12,11.12,0,0,1,6.72,4.41,23.26,23.26,0,0,1,3.25,7.41,23,23,0,0,0-3.5-7.22,10.76,10.76,0,0,0-6.56-4.18,18.82,18.82,0,0,0-7.93.39,60.54,60.54,0,0,0-7.66,2.49,18.07,18.07,0,0,1-1.92.68,9,9,0,0,1-1,.27l-1.08.05a4,4,0,0,1-3.21-2.6c-1.16-2.55-1.29-5.32-1.53-8C126.9,389.75,127,384.35,127,378.94Z"></path></g><g style="opacity:0.2"><path d="M172,367.81c.26,6.59.28,13.17.32,19.75l-.08,9.88c0,3.29-.13,6.58-.24,9.88-.12-3.3-.21-6.59-.25-9.88l-.07-9.88C171.72,381,171.74,374.4,172,367.81Z"></path></g><g style="opacity:0.2"><path d="M216.56,342.22c.26,6.56.28,13.12.32,19.68l-.08,9.84q-.06,4.92-.24,9.84c-.12-3.28-.21-6.56-.25-9.84l-.07-9.84C216.27,355.34,216.29,348.78,216.56,342.22Z"></path></g><path d="M140.88,389.17l6.09-3.48c1.23-.7,2.23-.6,2.23.23s-1,2.08-2.23,2.78l-6.09,3.48c-1.23.7-2.23.59-2.23-.24S139.65,389.87,140.88,389.17Z" style="fill:#37474f"></path><path d="M177.33,368.07l6.09-3.48c1.23-.7,2.23-.6,2.23.24s-1,2.07-2.23,2.77l-6.09,3.48c-1.23.7-2.23.6-2.23-.23S176.1,368.77,177.33,368.07Z" style="fill:#37474f"></path><path d="M108,368.53a14.79,14.79,0,0,0,13.34,0l69.14-39.82c6.14-3.54,6.14-9.29,0-12.83l-40.33-23.29c-6.14-3.54-16.09-3.54-22.23,0L58.74,332.41c-3.69,2.12-3.69,5.57,0,7.7Z" style="fill:#860065"></path><path d="M112,362.28c-11.22-5.16-19.07-9.4-28.34-18s-3.84-19.89,18.55-37L58.74,332.41c-3.68,2.12-3.68,5.57,0,7.7L108,368.53a14.79,14.79,0,0,0,13.34,0l23-13.26C144.13,355.34,123.15,367.42,112,362.28Z" style="opacity:0.15"></path><path d="M190.44,315.88l-40.33-23.29c-4.1-2.37-9.89-3.12-15.12-2.32a19.25,19.25,0,0,1,9.22,1.92c5.21,2.26,20.29,11.19,37.32,20.57s10.34,12.84,5.65,15.55-58.48,35.94-65.88,40.22l69.14-39.82C196.58,325.17,196.58,319.42,190.44,315.88Z" style="fill:#fff;opacity:0.30000000000000004"></path><path d="M53.2,410.76v-9.13c0-1.13.81-1.6,1.79-1l15.53,9a3.13,3.13,0,0,1,1.4,2.44v9c0,1.13-.81,1.6-1.79,1l-15.52-8.87A3.1,3.1,0,0,1,53.2,410.76Z" style="fill:#37474f"></path><path d="M56.12,390.64v-1.2c0-1.41,1-2,2.23-1.28l14.27,8.24a4.9,4.9,0,0,1,2.22,3.85v1.09c0,1.41-1,2-2.23,1.29l-14.26-8.15A4.88,4.88,0,0,1,56.12,390.64Z" style="fill:#860065"></path><path d="M56.12,390.64v-1.2c0-1.41,1-2,2.23-1.28l14.27,8.24a4.9,4.9,0,0,1,2.22,3.85v1.09c0,1.41-1,2-2.23,1.29l-14.26-8.15A4.88,4.88,0,0,1,56.12,390.64Z" style="fill:#fff;opacity:0.2"></path><path d="M97.76,407.39c-3.12.84-6.9,2.79-7.93,7.13-1.25,5.23.67,9.63,5,10.76,1.85.49,6.4-.26,10-5.44,2.46-3.55,2.78-9.17,1.43-10.95S101.11,406.49,97.76,407.39Z" style="fill:#37474f"></path><path d="M99.45,413.28A3.43,3.43,0,1,1,96,409.85,3.43,3.43,0,0,1,99.45,413.28Z" style="fill:#860065"></path><path d="M96.67,420.25a2,2,0,1,1-2-2A2,2,0,0,1,96.67,420.25Z" style="fill:#860065"></path><path d="M35.33,389.26c-.7,1-2.29,1-4.11-1.2v-3.65c0-.59,0-1.21,0-1.77s.05-1.13.1-1.69a49.92,49.92,0,0,1,.9-7.19,31,31,0,0,1,.66-3.13,10.75,10.75,0,0,1,3.37,6.49C36.61,381.3,36.28,388,35.33,389.26Z" style="fill:#37474f"></path><path d="M32.43,382.58a1.81,1.81,0,0,0-1.19.47c0,.46,0,.89,0,1.36v1.36a1.8,1.8,0,0,0,1.21.48,1.84,1.84,0,1,0,0-3.67Z" style="fill:#860065"></path><path d="M34.89,377.27A3.67,3.67,0,0,1,31.35,381a49.92,49.92,0,0,1,.9-7.19A3.7,3.7,0,0,1,34.89,377.27Z" style="fill:#860065"></path><path d="M38.65,360.78a86.36,86.36,0,0,1,12.25-17.4,6.2,6.2,0,0,1,7.82-.61,330,330,0,0,0,51.33,29.6,4.91,4.91,0,0,1,2.31,6.69,106.17,106.17,0,0,0-7,20.54,4.29,4.29,0,0,1-5.91,3.15c-22.41-8.94-42.38-20.13-59.33-34.1A6.59,6.59,0,0,1,38.65,360.78Z" style="fill:#263238"></path><path d="M101.24,401.29a3,3,0,0,1-1.07-.21c-22.93-9.14-42.73-20.52-58.86-33.82a4.79,4.79,0,0,1-1.09-5.61,84.8,84.8,0,0,1,12-17,4,4,0,0,1,2.9-1.14,4.49,4.49,0,0,1,2.57.78A334.35,334.35,0,0,0,109.29,374a3,3,0,0,1,1.61,1.72,3.42,3.42,0,0,1-.16,2.58,106.9,106.9,0,0,0-7.08,20.88A2.54,2.54,0,0,1,101.24,401.29Z" style="fill:#455a64"></path><path d="M110.9,375.72a3,3,0,0,0-1.61-1.72,338.07,338.07,0,0,1-44.74-25.06l-24.77,14.3a4.77,4.77,0,0,0,1.53,4c16.13,13.3,35.93,24.68,58.86,33.82a3,3,0,0,0,1.07.21,2.54,2.54,0,0,0,2.42-2.11,106.9,106.9,0,0,1,7.08-20.88A3.42,3.42,0,0,0,110.9,375.72Z" style="fill:#37474f"></path><path d="M29.93,396.45c.74,3.46,12,14.49,30.73,24.89s34.39,18.83,43.86,18.37S126,431.28,126,431.28s-2.31,7-2.42,10.22c0,0-9.86,6.22-18,6.83-5.39.41-12.38,1.47-45.12-17.44C38.7,418.35,32.08,411.49,29.61,406c-1.25-2.8-1.2-6.91-1.16-8.74.13-6.2,2.77-6.8,2.77-6.8C30,391.58,29.19,393,29.93,396.45Z" style="fill:#860065"></path><path d="M29.93,396.45c.74,3.46,12,14.49,30.73,24.89s34.39,18.83,43.86,18.37S126,431.28,126,431.28s-2.31,7-2.42,10.22c0,0-9.86,6.22-18,6.83-5.39.41-12.38,1.47-45.12-17.44C38.7,418.35,32.08,411.49,29.61,406c-1.25-2.8-1.2-6.91-1.16-8.74.13-6.2,2.77-6.8,2.77-6.8C30,391.58,29.19,393,29.93,396.45Z" style="opacity:0.30000000000000004"></path><path d="M31.22,390.44c-1.19,1.14-2,2.55-1.29,6s12,14.49,30.73,24.89,34.39,18.83,43.86,18.37S126,431.28,126,431.28l-1.07-.59s-12.17,7.72-20.42,7.61-19.4-4.25-42.68-17.76S32.31,398.81,31.23,396Z" style="fill:#860065"></path><path d="M255.44,297.29c-1.49-1.07-3.09-2.15-4.82-3.25l-.16-.1c-.57-.36-1.14-.7-1.73-1.05l-.24-.14c-.31-.17-.64-.34-1-.52L245,290.9c-21.07-10.37-52-11.8-64.29-4.73l-3.87,2.24h0a37.16,37.16,0,0,1,15.87,2.33c9,3.22,32.17,17.24,39.15,24.71s7.53,12.64,7.53,14.58c8.92-4,19-8,25.51-16.33C268.87,308.64,261.66,301.83,255.44,297.29Z"></path><path d="M256.09,315.93c-.07.26-.14.52-.23.77a2,2,0,0,1-.44.8,3,3,0,0,1-1.54.56c-3.11.71-3.53,4.3-5.9,6-1.65,1.21-3.28,2.42-5,3.57-.38.26-3.65,2.36-3.65,2.36,0-1.94-.55-7.12-7.53-14.58s-30.2-21.49-39.15-24.71a39.92,39.92,0,0,0-13.42-2.45,20.55,20.55,0,0,0-2.45.12c1.7-1.3,3.46-2.46,5.24-3.62,1.56-1,2.59-2.33,4.5-2.79a9.39,9.39,0,0,0,2-.53c1.05-.52,1.66-1.62,2.51-2.44a7.37,7.37,0,0,1,4.12-1.78c2.2-.28,4.35.08,6.56-.24s4.42-.49,6.64-.59a37.39,37.39,0,0,1,8.45.61,9.48,9.48,0,0,1,3.41,1.1,14.48,14.48,0,0,0,3.5,1.74,18.46,18.46,0,0,0,3.25.33,15.59,15.59,0,0,1,8.43,3.36,33.61,33.61,0,0,0,4.12,3.34c2,1.12,4.28,1.48,6.31,2.45a71.73,71.73,0,0,1,7.23,4.47c4.26,2.72,6.77,5.5,8,8.19a10.68,10.68,0,0,1,.82,7c-.48,2.23-2.87,1.91-4.31,3.39A7.85,7.85,0,0,0,256.09,315.93Z" style="fill:#860065"></path><path d="M256.09,315.93c-.07.26-.14.52-.23.77a2,2,0,0,1-.44.8,3,3,0,0,1-1.54.56c-3.11.71-3.53,4.3-5.9,6-1.65,1.21-3.28,2.42-5,3.57-.38.26-3.65,2.36-3.65,2.36,0-1.94-.55-7.12-7.53-14.58s-30.2-21.49-39.15-24.71a39.92,39.92,0,0,0-13.42-2.45,20.55,20.55,0,0,0-2.45.12c1.7-1.3,3.46-2.46,5.24-3.62,1.56-1,2.59-2.33,4.5-2.79a9.39,9.39,0,0,0,2-.53c1.05-.52,1.66-1.62,2.51-2.44a7.37,7.37,0,0,1,4.12-1.78c2.2-.28,4.35.08,6.56-.24s4.42-.49,6.64-.59a37.39,37.39,0,0,1,8.45.61,9.48,9.48,0,0,1,3.41,1.1,14.48,14.48,0,0,0,3.5,1.74,18.46,18.46,0,0,0,3.25.33,15.59,15.59,0,0,1,8.43,3.36,33.61,33.61,0,0,0,4.12,3.34c2,1.12,4.28,1.48,6.31,2.45a71.73,71.73,0,0,1,7.23,4.47c4.26,2.72,6.77,5.5,8,8.19a10.68,10.68,0,0,1,.82,7c-.48,2.23-2.87,1.91-4.31,3.39A7.85,7.85,0,0,0,256.09,315.93Z" style="opacity:0.25"></path><path d="M256.09,314.61c-.07.26-.14.52-.23.77a2.07,2.07,0,0,1-.44.81,3,3,0,0,1-1.54.55c-3.11.71-3.53,4.31-5.9,6.05a48.62,48.62,0,0,0-4.76,4c-.33.31-3.85,3.28-3.85,3.28,0-1.95-.55-7.13-7.53-14.58s-30.16-21.58-39.15-24.71a40.61,40.61,0,0,0-12.14-2.43,34.53,34.53,0,0,0-3.73.1c1.7-1.3,3.46-3.78,5.24-4.94,1.56-1,2.59-2.32,4.5-2.78a9.39,9.39,0,0,0,2-.53c1.05-.53,1.66-1.63,2.51-2.44a7.23,7.23,0,0,1,4.12-1.78c2.2-.28,4.35.07,6.56-.24s4.42-.49,6.64-.6a36.83,36.83,0,0,1,8.45.62,9.11,9.11,0,0,1,3.41,1.1,14.45,14.45,0,0,0,3.5,1.73,19.46,19.46,0,0,0,3.25.34,15.52,15.52,0,0,1,8.43,3.36,34.48,34.48,0,0,0,4.12,3.33c2,1.13,4.28,1.48,6.31,2.46a68.28,68.28,0,0,1,7.23,4.47c4.26,2.72,6.77,5.5,8,8.18a10.71,10.71,0,0,1,.82,7c-.48,2.23-2.87,1.9-4.31,3.38A7.85,7.85,0,0,0,256.09,314.61Z" style="fill:#860065"></path><path d="M256.09,314.61c-.07.26-.14.52-.23.77a2.07,2.07,0,0,1-.44.81,3,3,0,0,1-1.54.55c-3.11.71-3.53,4.31-5.9,6.05a48.62,48.62,0,0,0-4.76,4c-.33.31-3.85,3.28-3.85,3.28,0-1.95-.55-7.13-7.53-14.58s-30.16-21.58-39.15-24.71a40.61,40.61,0,0,0-12.14-2.43,34.53,34.53,0,0,0-3.73.1c1.7-1.3,3.46-3.78,5.24-4.94,1.56-1,2.59-2.32,4.5-2.78a9.39,9.39,0,0,0,2-.53c1.05-.53,1.66-1.63,2.51-2.44a7.23,7.23,0,0,1,4.12-1.78c2.2-.28,4.35.07,6.56-.24s4.42-.49,6.64-.6a36.83,36.83,0,0,1,8.45.62,9.11,9.11,0,0,1,3.41,1.1,14.45,14.45,0,0,0,3.5,1.73,19.46,19.46,0,0,0,3.25.34,15.52,15.52,0,0,1,8.43,3.36,34.48,34.48,0,0,0,4.12,3.33c2,1.13,4.28,1.48,6.31,2.46a68.28,68.28,0,0,1,7.23,4.47c4.26,2.72,6.77,5.5,8,8.18a10.71,10.71,0,0,1,.82,7c-.48,2.23-2.87,1.9-4.31,3.38A7.85,7.85,0,0,0,256.09,314.61Z" style="fill:#fff;opacity:0.1"></path><path d="M251.91,313.62c-.85-.75-1.63-1.53-2.55-2.2s-1.79-1.29-2.69-1.92c-1.78-1.22-3.56-2.42-5.38-3.56-3.64-2.3-7.34-4.49-11.09-6.6-7.51-4.22-15.2-8.1-23-11.81-2.15-1-4.3-2-6.47-3-2.41-1.1-4.81-2.26-7.28-3.23-.39-.16-.47.37-.17.54,1.87,1.06,3.83,1.94,5.75,2.89s3.89,1.92,5.83,2.86q5.88,2.88,11.71,5.84c7.7,3.92,15.3,8.07,22.64,12.63,2,1.26,4,2.53,6,3.84l3,1.95c1.16.77,2.36,1.43,3.55,2.14C252,314.1,252.05,313.74,251.91,313.62Z" style="fill:#860065"></path><path d="M252.1,304.35a35.58,35.58,0,0,0-4.77-3.17c-1.59-1-3.19-1.91-4.8-2.85q-4.84-2.82-9.78-5.5c-6.55-3.56-13.18-7-19.95-10.18q-5.6-2.61-11.31-5c-.23-.09-.17.34,0,.42,13.32,6.72,26.63,13.42,39.63,20.74l5.38,3.06a54.89,54.89,0,0,0,5.51,2.94C252.34,305,252.25,304.48,252.1,304.35Z" style="fill:#860065"></path><polygon points="127.88 292.59 84.07 301 85.14 302.55 123.39 295.17 127.88 292.59" style="fill:#860065"></polygon><polygon points="85.14 302.55 85.14 317.2 84.07 317.82 84.07 301 85.14 302.55" style="fill:#860065"></polygon><polygon points="85.14 302.55 85.14 317.2 84.07 317.82 84.07 301 85.14 302.55" style="opacity:0.15"></polygon><path d="M123.39,295.17l-38.25,7.38V317.2L87.41,316V309.6a6.28,6.28,0,0,1,5-6.15l26.28-5.56Z"></path><path d="M118.67,297.89,87.41,315.94v-6.35a6.26,6.26,0,0,1,5-6.13Z" style="fill:#37474f"></path></g></g><g id="freepik--Smoke--inject-128"><path id="freepik--smoke--inject-128" d="M226.91,265.14a2.33,2.33,0,0,0-.15-.78c-.56-1.62-2.29-2.63-3.76-3.3-1.9-.86-4.09-1.78-4.78-3.75-.42-1.23-.13-2.59-.32-3.88-.4-2.74-2.8-4.69-4.12-7.13a9.75,9.75,0,0,1,.71-10.21c2-2.77,5.41-4.21,8-6.52a6,6,0,0,0,1.73-2.3,7.22,7.22,0,0,0,.11-3.58c-.54-3.58-1.29-7.38.14-10.71,1.35-3.14,4.4-5.21,7.49-6.67s6.42-2.54,9.17-4.56c3.26-2.39,5.62-6,9.29-7.71a10.2,10.2,0,0,1,10.49,1.29,9.61,9.61,0,0,1,3.3,8.34c-.29,3.3-2.18,6-2.59,9.23a14.54,14.54,0,0,0,1.13,6.38,14.93,14.93,0,0,1,1.17,6.38c-.41,3.61-4.21,4.2-4.87,7.63-.49,2.51.85,5.07.53,7.6-.48,3.66-4.24,6-7.83,6.88s-7.44.86-10.8,2.4-6.09,5.55-4.5,8.89c.92,1.93,3.15,3.41,3,5.55-.45,5.29-12.41,2.64-10.18,9.81a10.87,10.87,0,0,0,2,3.11c.3.39.6.94.32,1.35a.88.88,0,0,1-.49.33,2.22,2.22,0,0,1-2.1-.76c-.55-.55-.94-1.25-1.5-1.79-.9-.89-2.15-1.33-3.06-2.2a4.47,4.47,0,0,1-.37-5.82C225,267.36,227,266.73,226.91,265.14Z" style="fill:#fff;opacity:0.2"></path></g><g id="freepik--traffic-cones--inject-128"><g id="freepik--Cone--inject-128"><path d="M431.34,299.45l17.23-9.95a2.52,2.52,0,0,1,2.31,0l17.23,9.95a.81.81,0,0,1,.47.67v1.25a.81.81,0,0,1-.47.67L450.88,312a2.52,2.52,0,0,1-2.31,0L431.34,302a.81.81,0,0,1-.47-.67v-1.25A.81.81,0,0,1,431.34,299.45Z" style="fill:#860065"></path><path d="M430.87,300.12v1.25a.81.81,0,0,0,.47.67L448.57,312a2.3,2.3,0,0,0,1.15.28v-23a2.3,2.3,0,0,0-1.15.28l-17.23,9.95A.81.81,0,0,0,430.87,300.12Z" style="opacity:0.1"></path><path d="M449.72,289.22v23a2.32,2.32,0,0,0,1.16-.28L468.11,302a.81.81,0,0,0,.47-.67v-1.25a.81.81,0,0,0-.47-.67l-17.23-9.95A2.32,2.32,0,0,0,449.72,289.22Z" style="opacity:0.30000000000000004"></path><path d="M450.88,310.73l17.23-9.94a.71.71,0,0,0,0-1.34l-17.23-9.95a2.61,2.61,0,0,0-2.31,0l-17.23,9.95a.71.71,0,0,0,0,1.34l17.23,9.94A2.54,2.54,0,0,0,450.88,310.73Z" style="fill:#860065"></path><path d="M450.88,310.73l17.23-9.94a.71.71,0,0,0,0-1.34l-17.23-9.95a2.61,2.61,0,0,0-2.31,0l-17.23,9.95a.71.71,0,0,0,0,1.34l17.23,9.94A2.54,2.54,0,0,0,450.88,310.73Z" style="fill:#fff;opacity:0.5"></path><path d="M449.72,289.23a2.42,2.42,0,0,1,1.16.27l17.23,9.95a.71.71,0,0,1,0,1.34l-17.23,9.94a2.32,2.32,0,0,1-1.16.28Z" style="opacity:0.05"></path><path d="M439.09,297.88h0L446.71,272v0h0a2,2,0,0,1,.83-1,4.34,4.34,0,0,1,4.35,0,1.93,1.93,0,0,1,.82,1h0v0h0l7.62,25.9h0c.7,2.25-.28,4.68-3,6.43a15.22,15.22,0,0,1-15.35,0C439.37,302.56,438.39,300.13,439.09,297.88Z" style="fill:#860065"></path><path d="M459.13,293.69l-3.52-11.95c-2.42,3.15-9.28,3-11.77,0l-3.52,11.95a13.35,13.35,0,0,0,5,3.5,12.07,12.07,0,0,0,8.77,0A13.43,13.43,0,0,0,459.13,293.69Z" style="fill:#fafafa"></path><path d="M449.72,270.36a4.06,4.06,0,0,1,2.18.58,1.93,1.93,0,0,1,.82,1h0v0h0l7.62,25.9h0c.7,2.25-.28,4.68-3,6.43a14.3,14.3,0,0,1-7.68,2.08l.07,0c3.44-.62,5.76-4.33,5.28-8.23l-3.17-25.78Z" style="opacity:0.1"></path><path d="M451.9,273.78a1.57,1.57,0,0,0,0-2.84,4.34,4.34,0,0,0-4.35,0,1.57,1.57,0,0,0,0,2.84A4.34,4.34,0,0,0,451.9,273.78Z" style="fill:#860065"></path><path d="M451.9,273.78a1.57,1.57,0,0,0,0-2.84,4.34,4.34,0,0,0-4.35,0,1.57,1.57,0,0,0,0,2.84A4.34,4.34,0,0,0,451.9,273.78Z" style="fill:#fff;opacity:0.5"></path></g><g id="freepik--cone--inject-128"><path d="M358.46,335.67l17.23-9.95a2.52,2.52,0,0,1,2.31,0l17.23,9.95a.79.79,0,0,1,.47.66v1.26a.81.81,0,0,1-.47.67L378,348.2a2.52,2.52,0,0,1-2.31,0l-17.23-9.94a.81.81,0,0,1-.47-.67v-1.26A.79.79,0,0,1,358.46,335.67Z" style="fill:#860065"></path><path d="M358,336.33v1.26a.81.81,0,0,0,.47.67l17.23,9.94a2.3,2.3,0,0,0,1.15.28v-23a2.3,2.3,0,0,0-1.15.28l-17.23,9.95A.79.79,0,0,0,358,336.33Z" style="opacity:0.1"></path><path d="M376.84,325.44v23a2.32,2.32,0,0,0,1.16-.28l17.23-9.94a.81.81,0,0,0,.47-.67v-1.26a.79.79,0,0,0-.47-.66L378,325.72A2.32,2.32,0,0,0,376.84,325.44Z" style="opacity:0.30000000000000004"></path><path d="M378,347,395.23,337c.64-.37.64-1,0-1.33L378,325.72a2.54,2.54,0,0,0-2.31,0l-17.23,9.95c-.64.36-.64,1,0,1.33L375.69,347A2.54,2.54,0,0,0,378,347Z" style="fill:#860065"></path><path d="M378,347,395.23,337c.64-.37.64-1,0-1.33L378,325.72a2.54,2.54,0,0,0-2.31,0l-17.23,9.95c-.64.36-.64,1,0,1.33L375.69,347A2.54,2.54,0,0,0,378,347Z" style="fill:#fff;opacity:0.5"></path><path d="M376.84,325.44a2.43,2.43,0,0,1,1.16.28l17.23,9.95c.64.36.64,1,0,1.33L378,347a2.43,2.43,0,0,1-1.16.28Z" style="opacity:0.05"></path><path d="M366.21,334.1h0l7.62-25.9h0v0h0a2,2,0,0,1,.83-1,4.34,4.34,0,0,1,4.35,0,2,2,0,0,1,.82,1h0v0h0l7.62,25.9h0c.7,2.25-.28,4.68-3,6.43a15.26,15.26,0,0,1-15.35,0C366.49,338.78,365.51,336.35,366.21,334.1Z" style="fill:#860065"></path><path d="M386.25,329.91l-3.52-12c-2.42,3.14-9.28,3-11.77,0l-3.52,12a13.33,13.33,0,0,0,5,3.49,12,12,0,0,0,8.77,0A13.4,13.4,0,0,0,386.25,329.91Z" style="fill:#fafafa"></path><path d="M376.84,306.57a4.07,4.07,0,0,1,2.18.59,2,2,0,0,1,.82,1h0v0h0l7.62,25.9h0c.7,2.25-.28,4.68-3,6.43a14.29,14.29,0,0,1-7.68,2.07h.07c3.44-.62,5.76-4.33,5.28-8.24L379,308.58Z" style="opacity:0.1"></path><path d="M379,310a1.57,1.57,0,0,0,0-2.84,4.34,4.34,0,0,0-4.35,0,1.57,1.57,0,0,0,0,2.84A4.34,4.34,0,0,0,379,310Z" style="fill:#860065"></path><path d="M379,310a1.57,1.57,0,0,0,0-2.84,4.34,4.34,0,0,0-4.35,0,1.57,1.57,0,0,0,0,2.84A4.34,4.34,0,0,0,379,310Z" style="fill:#fff;opacity:0.5"></path></g><g id="freepik--cone--inject-128"><path d="M310.81,406.8,328,396.85a2.52,2.52,0,0,1,2.31,0l17.23,9.95a.79.79,0,0,1,.47.66v1.26a.81.81,0,0,1-.47.67l-17.23,9.94a2.52,2.52,0,0,1-2.31,0l-17.23-9.94a.81.81,0,0,1-.47-.67v-1.26A.79.79,0,0,1,310.81,406.8Z" style="fill:#860065"></path><path d="M310.34,407.46v1.26a.81.81,0,0,0,.47.67L328,419.33a2.3,2.3,0,0,0,1.15.28v-23a2.3,2.3,0,0,0-1.15.28l-17.23,9.95A.79.79,0,0,0,310.34,407.46Z" style="opacity:0.1"></path><path d="M329.19,396.57v23a2.32,2.32,0,0,0,1.16-.28l17.23-9.94a.81.81,0,0,0,.47-.67v-1.26a.79.79,0,0,0-.47-.66l-17.23-9.95A2.32,2.32,0,0,0,329.19,396.57Z" style="opacity:0.30000000000000004"></path><path d="M330.35,418.08l17.23-9.95c.64-.37.64-1,0-1.33l-17.23-9.95a2.54,2.54,0,0,0-2.31,0l-17.23,9.95c-.64.36-.64,1,0,1.33L328,418.08A2.54,2.54,0,0,0,330.35,418.08Z" style="fill:#860065"></path><path d="M330.35,418.08l17.23-9.95c.64-.37.64-1,0-1.33l-17.23-9.95a2.54,2.54,0,0,0-2.31,0l-17.23,9.95c-.64.36-.64,1,0,1.33L328,418.08A2.54,2.54,0,0,0,330.35,418.08Z" style="fill:#fff;opacity:0.5"></path><path d="M329.19,396.57a2.43,2.43,0,0,1,1.16.28l17.23,9.95c.64.36.64,1,0,1.33l-17.23,9.95a2.43,2.43,0,0,1-1.16.28Z" style="opacity:0.05"></path><path d="M318.56,405.23h0l7.62-25.9h0v0h0a2,2,0,0,1,.83-1,4.34,4.34,0,0,1,4.35,0,2,2,0,0,1,.82,1h0v0h0l7.62,25.9h0c.7,2.25-.28,4.68-3,6.43a15.26,15.26,0,0,1-15.35,0C318.84,409.91,317.86,407.48,318.56,405.23Z" style="fill:#860065"></path><path d="M338.6,401l-3.52-12c-2.42,3.14-9.28,3-11.77,0l-3.52,12a13.33,13.33,0,0,0,5,3.49,12,12,0,0,0,8.77,0A13.33,13.33,0,0,0,338.6,401Z" style="fill:#fafafa"></path><path d="M329.19,377.7a4.07,4.07,0,0,1,2.18.59,2,2,0,0,1,.82,1h0v0h0l7.62,25.9h0c.7,2.25-.28,4.68-3,6.43a14.29,14.29,0,0,1-7.68,2.07h.07c3.44-.62,5.76-4.33,5.28-8.24l-3.17-25.77Z" style="opacity:0.1"></path><path d="M331.37,381.13a1.57,1.57,0,0,0,0-2.84,4.34,4.34,0,0,0-4.35,0,1.57,1.57,0,0,0,0,2.84A4.34,4.34,0,0,0,331.37,381.13Z" style="fill:#860065"></path><path d="M331.37,381.13a1.57,1.57,0,0,0,0-2.84,4.34,4.34,0,0,0-4.35,0,1.57,1.57,0,0,0,0,2.84A4.34,4.34,0,0,0,331.37,381.13Z" style="fill:#fff;opacity:0.5"></path></g><g id="freepik--cone--inject-128"><path d="M201.3,437.26l17.22-9.95a2.54,2.54,0,0,1,2.32,0l17.22,9.95a.8.8,0,0,1,.48.66v1.26a.83.83,0,0,1-.48.67l-17.22,9.94a2.54,2.54,0,0,1-2.32,0l-17.22-9.94a.8.8,0,0,1-.48-.67v-1.26A.78.78,0,0,1,201.3,437.26Z" style="fill:#860065"></path><path d="M200.82,437.92v1.26a.8.8,0,0,0,.48.67l17.22,9.94a2.32,2.32,0,0,0,1.16.28V427a2.32,2.32,0,0,0-1.16.28l-17.22,9.95A.78.78,0,0,0,200.82,437.92Z" style="opacity:0.1"></path><path d="M219.68,427v23a2.32,2.32,0,0,0,1.16-.28l17.22-9.94a.83.83,0,0,0,.48-.67v-1.26a.8.8,0,0,0-.48-.66l-17.22-9.95A2.32,2.32,0,0,0,219.68,427Z" style="opacity:0.30000000000000004"></path><path d="M220.84,448.54l17.22-10a.7.7,0,0,0,0-1.33l-17.22-9.95a2.56,2.56,0,0,0-2.32,0l-17.23,9.95a.7.7,0,0,0,0,1.33l17.23,10A2.56,2.56,0,0,0,220.84,448.54Z" style="fill:#860065"></path><path d="M220.84,448.54l17.22-10a.7.7,0,0,0,0-1.33l-17.22-9.95a2.56,2.56,0,0,0-2.32,0l-17.23,9.95a.7.7,0,0,0,0,1.33l17.23,10A2.56,2.56,0,0,0,220.84,448.54Z" style="fill:#fff;opacity:0.5"></path><path d="M219.68,427a2.43,2.43,0,0,1,1.16.28l17.22,9.95a.7.7,0,0,1,0,1.33l-17.22,10a2.43,2.43,0,0,1-1.16.28Z" style="opacity:0.05"></path><path d="M209,435.69h0l7.62-25.9h0v0h0a2,2,0,0,1,.83-1,4.32,4.32,0,0,1,4.34,0,2,2,0,0,1,.83,1h0v0h0l7.63,25.9h0c.7,2.25-.28,4.68-2.95,6.43a15.28,15.28,0,0,1-15.36,0C209.33,440.37,208.34,437.94,209,435.69Z" style="fill:#860065"></path><path d="M229.08,431.5l-3.51-11.95c-2.42,3.14-9.29,3-11.78,0l-3.52,11.95a13.4,13.4,0,0,0,5,3.49,12,12,0,0,0,8.77,0A13.25,13.25,0,0,0,229.08,431.5Z" style="fill:#fafafa"></path><path d="M219.68,408.16a4.06,4.06,0,0,1,2.17.59,2,2,0,0,1,.83,1h0v0h0l7.63,25.9h0c.7,2.25-.28,4.68-2.95,6.43a14.29,14.29,0,0,1-7.68,2.07h.06c3.44-.62,5.76-4.33,5.28-8.24l-3.17-25.77Z" style="opacity:0.1"></path><path d="M221.85,411.59a1.57,1.57,0,0,0,0-2.84,4.32,4.32,0,0,0-4.34,0,1.57,1.57,0,0,0,0,2.84A4.32,4.32,0,0,0,221.85,411.59Z" style="fill:#860065"></path><path d="M221.85,411.59a1.57,1.57,0,0,0,0-2.84,4.32,4.32,0,0,0-4.34,0,1.57,1.57,0,0,0,0,2.84A4.32,4.32,0,0,0,221.85,411.59Z" style="fill:#fff;opacity:0.5"></path></g></g></svg>