<svg xmlns="http://www.w3.org/2000/svg" viewBox="0 0 500 500"><g id="freepik--character-2--inject-2"><g id="freepik--Character--inject-2"><path d="M302.86,144.69c0,8.52,3.07,29.34,26.66,38.79,18.26,7.32,35.14-2,39.15-5.82,5-4.81,10.48-15.19,2.81-23.45-8.52-9.16-19.33,4.09-31.21-4.05C326.55,140.75,302.86,144.69,302.86,144.69Z" style="fill:#263238"></path><path d="M329.85,170.17c.82-.18.78-.78,2.14-1.08,14.09-3.07,23.37,10.28,33.21,21.48,9.53,10.84,46.47,38.23,64,34.46-.85,12.32-16.35,25.2-35.2,23.16,0,0-3.57,8.46-21.17,12.72-14.39,3.49-29.92-6.67-46-17.25-21-13.83-29.37-33.54-27.15-50.92,1.47-11.56,9.43-17.07,17.72-21C325,168.14,329.85,170.17,329.85,170.17Z" style="fill:#860065"></path><path d="M390.79,252.26a14,14,0,0,0,3.21-4.07c-18.12-4.25-40.64-24.65-40.64-24.65S363,242.1,390.79,252.26Z" style="opacity:0.1"></path><path d="M365.2,190.57c-8.35-9.51-16.31-20.56-27.14-21.8,5.69,1.72,17.8,14.86,27.91,27.61C378.35,212,414.18,233.67,429.2,225,411.67,228.8,374.73,201.41,365.2,190.57Z" style="fill:#fff;opacity:0.5"></path><path d="M331.25,170.11c5.73,0,9.44,1.82,11.43,4.69,4.3,6.2,18.63,27,19.56,29.95s-18.8,24.95-18.8,24.95l-6-6,11.47-17.68L332,187.66Z" style="fill:#b16668"></path><path d="M343.44,222.59c8.94,10.55,24.81,27.52,29.39,38.32,1.76,4.16-40.17,48.84-40.17,48.84-1.74-.33-3.76-4.67-3.61-8.77,12.74-6.44,17.71-21.65,29-25.81-7-5.91-17.25-15.43-31.26-27.93Z" style="fill:#37474f"></path><path d="M355.35,272.81h0l-18.68-24.43c9-9.8,6.77-25.79,6.77-25.79l-16.61,24.65C339.11,258.2,348.53,266.86,355.35,272.81Z" style="fill:#263238"></path><path d="M372.83,260.91c-2.19,1.42-8.25,5.08-17.48,11.9-8.72,6.45-21.38,24.51-35.14,34a10.23,10.23,0,0,0,5.55,7.78s40.1-25.33,50.4-34.1C380.71,276.64,372.83,260.91,372.83,260.91Z" style="fill:#37474f"></path><path d="M339.76,288.57c-.74-1.64-3,1.84-5.95,4.79-4.81,4.76-9.29,9.91-13.94,12.74C316.8,308,316,307.55,314,310c-2.77,3.51,1.16,7,4.31,11.87,2.22,3.45,2.75,10.19,4.47,13.15s5.81,6.45,9.17,4.65c1.56-.84-3.05-17.47-2.34-22.27s1.73-6,5.93-8.61c6.64-4.09,15.83-8,14.28-9.75a8.72,8.72,0,0,1-7-2.71C338.06,291.1,339.76,288.57,339.76,288.57Z" style="fill:#860065"></path><path d="M325.74,163.83H322a19.13,19.13,0,0,1-19.13-19.14h0a20.41,20.41,0,0,1,20.41-20.41h1.19c13.91,0,21.79,9.14,21.79,20.41h0C346.25,155.26,336.31,163.83,325.74,163.83Z" style="fill:#263238"></path><path d="M305.56,129.67a2.75,2.75,0,0,1,2.16,3.24l-5.39-1.08A2.75,2.75,0,0,1,305.56,129.67Z" style="fill:#263238"></path><path d="M309.08,128.5a2.74,2.74,0,0,1-1.76,3.46l-1.7-5.23A2.75,2.75,0,0,1,309.08,128.5Z" style="fill:#263238"></path><path d="M303.75,226.1c-7.33,16,3,61.82,3,61.82-.22,2.6-4,7.65-4.29,19.13-.25,10.85,3.92,33.38,5.17,49.38a10.23,10.23,0,0,0,9.55.38s5.87-53,7.56-66.46c1.48-11.71,5.44-40.12,5.44-40.12l13.25-27.64Z" style="fill:#37474f"></path><path d="M304.62,330.81c-1.15.7-.49,1.81,0,6.41s2.61,14.81,3,19.21-2.84,15.69-2.86,18.64,5.31,11.65,9.08,11.65c2.42,0,5.69-5.5,5.88-7.76.49-6-3-17.85-2.55-22.15s2.64-17.29,3-19.59c.73-4.52,1.14-6.41-.11-6.41,0,0-1.43,2.5-7.63,2.83S304.62,330.81,304.62,330.81Z" style="fill:#860065"></path><path d="M342.07,198.9c5.52-5.91,5.9-10.17,3.53-14.51-4.92-9-12.87-14-14.35-14.28l-11.9.23-9.88.46c-1.35.43-5,3.83-6.4,9a23.22,23.22,0,0,0,.75,12.94L312,211.7h0c-1.15,6.65-10,12.47-10,20.53,23.87.62,28.23,18,28.23,18,14.36-9.55,13.23-26.47,13.23-26.47C344.05,215.84,341.67,206.18,342.07,198.9Z" style="fill:#455a64"></path><path d="M317.94,212c-1.79-1.79-5.44-4.39-9.75-16.94-.91-2.66.45-8.81,1.84-12.18l-7.16-2.09a23.74,23.74,0,0,0,.95,12L312,211.7h0c-1.14,6.59-9.86,12.36-10,20.31l.12.23a36,36,0,0,1,15.53,3.64,1.38,1.38,0,0,0-1-1.57,63,63,0,0,1-6.08-3c2.14,0,2.35-2.6,2.35-2.6l-2.82-.26s-.58-6.45,2.4-9.55S318.61,212.63,317.94,212Z" style="fill:#37474f"></path><path d="M338,132.78c2.22,1.31,5,6.89,4.69,18.59-.23,9.92-3.44,12.37-5.05,13.08s-4.73.27-7.76-.23v5.95c.12-.15,6.16,5.15,5.54,8.37-.52,2.69-7.66,2.59-11.57-.08a25.29,25.29,0,0,1-6.42-6.72V158.56a6,6,0,0,1-5.39-.7c-3.36-2.18-3.47-7.71-1.52-9.68s6.13-1.35,6.91,1.38c0,0,4.82.17,11.25-3.36A18,18,0,0,0,338,132.78Z" style="fill:#b16668"></path><polygon points="335.35 147.27 335.55 154.77 339.5 153.55 335.35 147.27" style="fill:#9a4a4d"></polygon><path d="M331.92,157.29l2.9.92a1.49,1.49,0,0,1-1.88,1A1.59,1.59,0,0,1,331.92,157.29Z" style="fill:#9a4a4d"></path><path d="M342.67,143.44l-3-.45a1.46,1.46,0,0,1,1.68-1.31A1.6,1.6,0,0,1,342.67,143.44Z" style="fill:#263238"></path><path d="M317.4,149.56a3.59,3.59,0,0,0-2.79-2.4,29.15,29.15,0,0,1,11.34-3.1c6.25-.19,7.19,1.87,9.89,1.82s3.52-1.8,6.53-2a15.51,15.51,0,0,1,.31,7.94s-2.48,1.11-5.42-1.65l-.71-1.07a6.6,6.6,0,0,0-2.17,1.69,10.56,10.56,0,0,1-8.25,2.19A18.13,18.13,0,0,1,317.4,149.56Z" style="fill:#455a64"></path><path d="M327.38,148.28a2.94,2.94,0,0,1,3.09-1.26,2.33,2.33,0,0,1,1.85,1.85,3,3,0,0,1-2.9,1.13A2.54,2.54,0,0,1,327.38,148.28Z" style="fill:#f5f5f5"></path><path d="M338.48,148.86a2.42,2.42,0,0,1,1-1.57,2.45,2.45,0,0,1,2.65.21,2,2,0,0,1-1.39,2.09A2.21,2.21,0,0,1,338.48,148.86Z" style="fill:#f5f5f5"></path><path d="M329.85,164.22c-3.19-.42-9.75-2.31-10.77-4.9a6.71,6.71,0,0,0,2.3,3.31c2,1.68,8.47,3.57,8.47,3.57Z" style="fill:#9a4a4d"></path><path d="M290,207.86l13.87-15.08a41.6,41.6,0,0,0,4.47-6c3.12-4.83,3.26-13.17,1.18-16-5.39,0-8.81,1.11-15.64,10.51-5.78,7.95-12.81,17.63-14.65,20.75-2.27,3.83-2.93,4.88-.95,8.67s9.38,13.51,15.62,20.82,9.9,9.78,14.57,10.87,6.75.16,9.38-2.25.77-4.58-1.67-5.14a19.79,19.79,0,0,1-6.54-2.68c-1.49-1.07-2-1.91-.57-2,1.78-.08,3.45-.43,3.9-1.68.57-1.55-.89-1.14-2.93-1.76a39,39,0,0,0-8.08-1.55c-3.34.16-12-17.53-12-17.53" style="fill:#b16668"></path><path d="M306.91,170.93c2.56-.13,7.2,5.65,9.48,6.53s4.82-2.66,1-7A17.94,17.94,0,0,0,306.91,170.93Z" style="fill:#860065"></path><path d="M306.91,170.93c2.56-.13,7.2,5.65,9.48,6.53s4.82-2.66,1-7A17.94,17.94,0,0,0,306.91,170.93Z" style="fill:#fff;opacity:0.5"></path><path d="M329.85,170.17s1.76-2.21,5.62-.3a11.28,11.28,0,0,1,1.83,3.26c.78,2.6.34,3.47-.85,3.47-1.75,0-2.52-1.84-3.94-3.52A23.46,23.46,0,0,0,329.85,170.17Z" style="fill:#860065"></path><path d="M329.85,170.17s1.76-2.21,5.62-.3a11.28,11.28,0,0,1,1.83,3.26c.78,2.6.34,3.47-.85,3.47-1.75,0-2.52-1.84-3.94-3.52A23.46,23.46,0,0,0,329.85,170.17Z" style="fill:#fff;opacity:0.5"></path></g></g><g id="freepik--character-1--inject-2"><path d="M185.66,193.37s-3.22-2.34-11.71-.75-18.54,8.11-27,27.63-21.19,43-39.6,53.41c-11.25,6.35-25.89,7.47-39,6.15a41.46,41.46,0,0,0,11.34,29.07C95.36,325.14,113.92,323,113.92,323s7.2,9,21.34,11.85a57.07,57.07,0,0,0,25.27-.53s11.38,2.54,19.78.53c16.72-4,21.44-15.34,21.21-15.63s7.95-124,7.95-124Z" style="fill:#860065"></path><path d="M164.06,273.84c-6.42,18.19-32.34,45.9-50.14,49.19a31.85,31.85,0,0,0,6.25,5.48C152.17,316.75,164.06,273.84,164.06,273.84Z" style="opacity:0.1"></path><path d="M201.52,319.25c-.15-.18,3.4-54.75,5.8-91.43-4.85-2.49-8.91,1.82-11,18.23-9.76,78.06-35.82,88.3-35.82,88.3s11.38,2.54,19.78.53C197,330.89,201.75,319.54,201.52,319.25Z" style="opacity:0.1"></path><path d="M174,192.62c-8.49,1.58-18.54,8.11-27,27.63s-21.19,43-39.6,53.41c-11.25,6.35-25.89,7.47-39,6.15,0,0,18.12,11.32,42.62,0s36-44.71,40.45-58.08,19.15-31.11,34.26-28.36l-.37-.21C184.23,192.62,180.82,191.33,174,192.62Z" style="fill:#fff;opacity:0.5"></path><path d="M183.74,193.54c-12-.09-16.56,5.16-18.55,8-4.29,6.2-15.76,30.68-16.7,33.63s22.45,28.69,22.45,28.69l6-6-12.9-23.33,13.77-20.46Z" style="fill:#37474f"></path><g id="freepik--character--inject-2"><rect x="204.98" y="388.4" width="9.14" height="13.31" style="fill:#ffa8a7"></rect><rect x="173.07" y="372.08" width="9.14" height="13.31" transform="translate(-12.92 6.33) rotate(-1.97)" style="fill:#ffa8a7"></rect><path d="M213.52,254.22c-.06,4,1.45,11.16,1.69,19.62.64,22.2-.56,52.69-.56,52.69.21,2.51,2.57,7.14,2.06,16.79-.69,13.1-1.83,46.62-1.83,46.62s-4.28,4.25-10.33,0c0,0-8.28-46.58-9.91-59.56-1.43-11.33-3.86-49.25-3.86-49.25l-3.4,44.18s.24,8.42.57,14.43-5.37,37.15-5.37,37.15a10,10,0,0,1-9.94.38s-3.53-47.14-4.47-52.57,2.61-70.48,2.61-70.48Z" style="fill:#37474f"></path><path d="M199.77,193.78a107.49,107.49,0,0,1,11.66,1.47,18,18,0,0,1,3,1.15,51.46,51.46,0,0,1,2.3,28,182.2,182.2,0,0,0-3.2,35.65c-5.23,6.82-31.84,9.15-43.15-.06,0,0,.31-11.36-.52-23.5-.72-10.74-2.59-20.47-1.9-25.44,1.57-11.36,6.73-17.07,17.65-17.71Z" style="fill:#455a64"></path><path d="M190.78,281.13s-8.26-1.07-20.7-13.58l.41-11.9s14.71,7.77,43.13-.65l1,10.42S200.28,264.19,190.78,281.13Z" style="fill:#860065"></path><path d="M190.78,281.13s-8.26-1.07-20.7-13.58l.41-11.9s14.71,7.77,43.13-.65l1,10.42S200.28,264.19,190.78,281.13Z" style="opacity:0.30000000000000004"></path><path d="M202.84,157.36a4.87,4.87,0,0,1,4,1.41c1.73,1.77,1.37,5,0,12.58l-5.35.61Z" style="fill:#263238"></path><path d="M171.66,155.18a8.42,8.42,0,0,1-3.35-.68c-1.64-.94-2.07.92-1.17,2.54a7.64,7.64,0,0,0,6.21,4.13c.05-.23,1.53-4.17,1.53-4.17Z" style="fill:#263238"></path><path d="M200.33,172c.8.48,1.93-1.05,2.91-2.07s4.18-2.43,5.77.93-1.41,8-3.92,8.74c-4.34,1.36-5-1.42-5-1.42l-.33,15.64s-2.84,6.95-10.53,8-6.11-5.3-3.58-8.41v-4.76a27.12,27.12,0,0,1-5.85.3c-3.19-.49-5.2-3-6.16-6.46-1.56-5.55-2.15-10-.83-20.93,1.45-12,15.35-12.08,22.86-7.35S200.33,172,200.33,172Z" style="fill:#ffa8a7"></path><path d="M200.33,173.3c.4,0,1.92-2.51,2.91-3.41,1.37-1.25-.4-12.53-.4-12.53s1.39-4.29-1.32-7.12-8-2.36-11.79-2.5A34.69,34.69,0,0,1,176,145c-5.45-2.37-5.85-2.65-6.53-.26s-.93,7.87,2.32,11.55l2.71,1s1.46,1.3,6.54,1.91a74.88,74.88,0,0,0,14.07-.26c1.48-.2,1.79,1.22,2.59,5.12C198.41,167.47,199,173.27,200.33,173.3Z" style="fill:#263238"></path><path d="M202.83,158.23l4.81-2.57a2.65,2.65,0,0,0-3.64-1.21A2.88,2.88,0,0,0,202.83,158.23Z" style="fill:#263238"></path><path d="M185.67,188.61s7.12-1.43,9.61-2.76a8.26,8.26,0,0,0,3.44-3.4,11.22,11.22,0,0,1-2,4c-1.82,2.33-11.09,4-11.09,4Z" style="fill:#f28f8f"></path><path d="M188.88,164.49l3.41.74a1.82,1.82,0,0,0-1.38-2.12A1.7,1.7,0,0,0,188.88,164.49Z" style="fill:#263238"></path><path d="M186.31,180l-3.25,1.22a1.71,1.71,0,0,0,2.21,1.08A1.82,1.82,0,0,0,186.31,180Z" style="fill:#f28f8f"></path><path d="M173.65,165.35l3.29-1.23a1.69,1.69,0,0,0-2.2-1.06A1.83,1.83,0,0,0,173.65,165.35Z" style="fill:#263238"></path><polygon points="182.78 168.42 182.31 177 177.83 175.48 182.78 168.42" style="fill:#f28f8f"></polygon><path d="M201.52,172a20.83,20.83,0,0,1,2.24-2.5,34.57,34.57,0,0,0-12.37-3.29c-6.25-.18-7.19,1.88-9.89,1.82s-4.11-1.83-6.62-1.68c-2.08.12-2.61,1-2.61,1a10.59,10.59,0,0,0-.17,5.41,6.34,6.34,0,0,0,2.55,1.22,7.19,7.19,0,0,0,5.43-1.65l.71-1A5.86,5.86,0,0,1,183,172.9a10.55,10.55,0,0,0,8.25,2.18A37.18,37.18,0,0,0,201.52,172Z" style="fill:#455a64"></path><path d="M191.84,170.07a3.16,3.16,0,0,0-3.31-1.35,2.41,2.41,0,0,0-1.89,2.1,3.09,3.09,0,0,0,3,1.1A2.77,2.77,0,0,0,191.84,170.07Z" style="fill:#f5f5f5"></path><path d="M178.37,170.46a2.65,2.65,0,0,0-1.79-2,3,3,0,0,0-2.63.94,2.36,2.36,0,0,0,1.77,2A2.58,2.58,0,0,0,178.37,170.46Z" style="fill:#f5f5f5"></path><path d="M216.55,371.19c.23-4,.59-4.87-.81-5.17l-.06,1.71s-1.13,2.4-7.51,2.52-7.45-2.26-7.45-2.26l-.32-1.83c-1.36.46-.75,1.81,0,6,.74,4,3.92,20,3.55,22.87s-2.94,7.48-3.09,7.76a23,23,0,0,1-3.72,4.9c-2.88,2.63-7.06,5.72-8.06,8.65s6.21,5,8.9,4.56c3.13-.55,8.55-2.76,9.91-4.8s2-5.06,3.11-6.55,4.44-3.91,5-5.64a6.8,6.8,0,0,0-.11-3h0c-.09-.48-.2-1-.31-1.43-.37-1.89-.56-4.38-.2-11.13C215.92,379.86,216.42,373.39,216.55,371.19Z" style="fill:#860065"></path><path d="M216.55,371.19c.23-4,.59-4.87-.81-5.17l-.06,1.71s-1.13,2.4-7.51,2.52-7.45-2.26-7.45-2.26l-.32-1.83c-1.36.46-.75,1.81,0,6,.74,4,3.92,20,3.55,22.87s-2.94,7.48-3.09,7.76a23,23,0,0,1-3.72,4.9c-2.88,2.63-7.06,5.72-8.06,8.65s6.21,5,8.9,4.56c3.13-.55,8.55-2.76,9.91-4.8s2-5.06,3.11-6.55,4.44-3.91,5-5.64a6.8,6.8,0,0,0-.11-3h0c-.09-.48-.2-1-.31-1.43-.37-1.89-.56-4.38-.2-11.13C215.92,379.86,216.42,373.39,216.55,371.19Z" style="opacity:0.30000000000000004"></path><path d="M186.15,360.62c.56-3.7,1.24-4.55,0-4.88l-.21,1.38s-1.61,1.58-7.23,1.58c-6.08,0-7.64-1.79-7.64-1.79l-.1-1.17c-1.38.2-1.19,1.24-.73,5.24.2,1.69,1.59,12.77,1.69,17.75s-2.32,6.56-3.92,8.48a21.87,21.87,0,0,1-2.08,1.2c-3.43,1.71-10.08,4.35-13.09,5.7-1.88.85-1.79,3.12.15,4.42s6.64,2.22,12.28,1c3.07-.69,7.06-3.52,9.59-3.37s7.27.12,9.14-1.17,1.12-4,.59-6.4h0a69.33,69.33,0,0,1-1-11C183.68,375,185.59,364.33,186.15,360.62Z" style="fill:#860065"></path><path d="M186.15,360.62c.56-3.7,1.24-4.55,0-4.88l-.21,1.38s-1.61,1.58-7.23,1.58c-6.08,0-7.64-1.79-7.64-1.79l-.1-1.17c-1.38.2-1.19,1.24-.73,5.24.2,1.69,1.59,12.77,1.69,17.75s-2.32,6.56-3.92,8.48a21.87,21.87,0,0,1-2.08,1.2c-3.43,1.71-10.08,4.35-13.09,5.7-1.88.85-1.79,3.12.15,4.42s6.64,2.22,12.28,1c3.07-.69,7.06-3.52,9.59-3.37s7.27.12,9.14-1.17,1.12-4,.59-6.4h0a69.33,69.33,0,0,1-1-11C183.68,375,185.59,364.33,186.15,360.62Z" style="opacity:0.30000000000000004"></path><path d="M190.78,281.13a63.84,63.84,0,0,1-15.07-8.42s1.9,4.79,12.2,10.44l.52,28.53Z" style="fill:#263238"></path></g><path d="M228.47,235.89,216.91,219a41.08,41.08,0,0,1-3.56-6.55c-2.4-5.23-1.33-13.51,1.13-16,5.33.78,8.56,2.37,14,12.65,4.57,8.7,11,19.43,12.37,22.78,1.7,4.12,2.2,5.25-.3,8.72a174,174,0,0,1-19.32,21c-7.23,6.34-11.2,8.27-16,8.67s-6.7-.81-9-3.58-.1-4.63,2.4-4.84a20.2,20.2,0,0,0,6.85-1.71c1.63-.85,2.22-1.62.85-1.87-1.75-.33-3.35-.93-3.62-2.23-.34-1.61,1-1,3.16-1.32a38.76,38.76,0,0,1,8.22-.37c3.27.64,14.35-18.44,14.35-18.44" style="fill:#ffa8a7"></path><path d="M211.43,195.25c6.59.9,8.67.82,12.27,5.26s17.19,29.07,18.54,32.85.73,5.47-1.92,8.65-16.89,18-16.89,18-4-.42-7.23-6.73L227.62,236s-13-14.55-15.37-19.72C208.79,208.56,211.43,195.25,211.43,195.25Z" style="fill:#37474f"></path><path d="M214.4,195.63c-3.59-.18-10,6.73-13.19,8s-6.76-3.73-1.41-9.86A33.26,33.26,0,0,1,214.4,195.63Z" style="fill:#860065"></path><path d="M214.4,195.63c-3.59-.18-10,6.73-13.19,8s-6.76-3.73-1.41-9.86A33.26,33.26,0,0,1,214.4,195.63Z" style="fill:#fff;opacity:0.5"></path><path d="M185.66,193.36s-2.46-3.09-7.88-.41a15.44,15.44,0,0,0-2.56,4.57c-1.11,3.65-.49,4.87,1.19,4.87,2.45,0,3.53-2.58,5.52-4.95A35.76,35.76,0,0,1,185.66,193.36Z" style="fill:#860065"></path><path d="M185.66,193.36s-2.46-3.09-7.88-.41a15.44,15.44,0,0,0-2.56,4.57c-1.11,3.65-.49,4.87,1.19,4.87,2.45,0,3.53-2.58,5.52-4.95A35.76,35.76,0,0,1,185.66,193.36Z" style="fill:#fff;opacity:0.5"></path></g></svg>