<svg xmlns="http://www.w3.org/2000/svg" viewBox="0 0 500 500"><g id="freepik--Car--inject-77"><g id="freepik--car--inject-77"><path d="M205.77,236.73h0l-.9,3.75c-2.07,3.88-6.65,8.78-8.29,8.37-1.47-.36-2.37-2.5-2.83-5.14v0a26.16,26.16,0,0,1-.38-3.82c-.14-4.16,1.71-13.84,7.47-16.42a3,3,0,0,1,3.42.77,6.76,6.76,0,0,1,1.67,2.75C206.89,229.87,205.9,236.58,205.77,236.73Z" style="fill:#860065"></path><path d="M205.77,236.73h0c-.3,1.55-.9,3.75-.9,3.75-2.07,3.88-6.65,8.78-8.29,8.37-1.47-.36-2.37-2.5-2.83-5.14v0a26.16,26.16,0,0,1-.38-3.82c-.14-4.16,1.71-13.84,7.47-16.42a3,3,0,0,1,3.42.77,6.76,6.76,0,0,1,1.67,2.75C206.89,229.87,205.9,236.58,205.77,236.73Z" style="opacity:0.30000000000000004"></path><path d="M204.87,240.48c-2.07,3.88-6.65,8.78-8.29,8.37-1.47-.36-2.37-2.5-2.83-5.14v0a26.16,26.16,0,0,1-.38-3.82c-.14-4.16,1.71-13.84,7.47-16.42a3,3,0,0,1,3.42.77l-.79,1.78c-4,1.73-5.11,7.95-4.74,12.68S202.56,242.92,204.87,240.48Z" style="fill:#860065"></path><path d="M204.87,240.48c-2.07,3.88-6.65,8.78-8.29,8.37-1.47-.36-2.37-2.5-2.83-5.14v0a26.16,26.16,0,0,1-.38-3.82c-.14-4.16,1.71-13.84,7.47-16.42a3,3,0,0,1,3.42.77l-.79,1.78c-4,1.73-5.11,7.95-4.74,12.68S202.56,242.92,204.87,240.48Z" style="opacity:0.35000000000000003"></path><path d="M205.92,227c-1.46-1.54-5.08-1.62-8.12,2.57s-4,11.36-4.05,14.15a27.59,27.59,0,0,1-.39-3.83c-.14-4.15,1.71-13.84,7.47-16.41C203.24,222.37,205.23,224.83,205.92,227Z" style="fill:#37474f"></path><path d="M396.38,224.89,339,193.24a24.09,24.09,0,0,0-8-3.66c2.48-14.07-18-30.36-37-24.94,0,0-43,18-53.6,29.35-15.84,17-35,35.72-40.72,50.35-1,2.65,95.71,98.93,95.71,98.93L335.4,366.4,438.91,248.34C430.73,231.87,420.12,218.92,396.38,224.89Zm-102.47-54.2c7.95-2.12,13.54-2.18,21.1,4.81,5.1,4.73,6.77,18.82,2.3,21.16l-32.25,16.9-.05,0-.35.18,0,0c-2.88,1.51-2.52-1.66-2-4.39,1.22-6.91,3.8-21.42,5.24-29.59C288.43,175.49,290.29,171.65,293.91,170.69ZM206.47,246c3.43-11.56,25.61-34,30.64-38.65,12.59-11.57,23-19.3,26.41-21.17,8.51-4.66,12.92-6.92,15.89-8.38,3.7-1.82,4.76-.95,4.67.11-.05.52-.13,1.16-.26,1.91l-4,21.62c-.67,3.14-1.53,3.81-6.76,6.66C253.69,218.62,206.6,245.94,206.47,246Z" style="fill:#860065"></path><path d="M396.38,224.89,339,193.24a24.09,24.09,0,0,0-8-3.66c2.48-14.07-18-30.36-37-24.94,0,0-39.91,17.86-50.53,29.26-15.84,17-36.09,37.46-41.79,52.09-1,2.65,93.71,97.28,93.71,97.28L335.4,366.4,438.91,248.34C430.73,231.87,420.12,218.92,396.38,224.89Zm-102.47-54.2c7.95-2.12,13.54-2.18,21.1,4.81,5.1,4.73,6.77,18.82,2.3,21.16l-32.25,16.9-.05,0-.35.18,0,0c-2.88,1.51-2.52-1.66-2-4.39,1.22-6.91,3.8-21.42,5.24-29.59C288.43,175.49,290.29,171.65,293.91,170.69ZM206.47,246c3.43-11.56,25.61-34,30.64-38.65,12.59-11.57,23-19.3,26.41-21.17,8.51-4.66,12.92-6.92,15.89-8.38,3.7-1.82,4.76-.95,4.67.11-.05.52-.13,1.16-.26,1.91l-4,21.62c-.67,3.14-1.53,3.81-6.76,6.66C253.69,218.62,206.6,245.94,206.47,246Z" style="opacity:0.2"></path><g id="freepik--codriver-seat--inject-77"><path d="M324.54,275.79l-11.72-.23L295,265.34a13.34,13.34,0,0,0-10.8-.52l-21.63,9.75-14.82-.29v8.65h0c0,1,.69,2,2.09,2.78l38.82,22.41a9.5,9.5,0,0,0,10-.79l24.11-19.57a4.32,4.32,0,0,0,1.77-3.32l0,0Z" style="fill:#37474f"></path><path d="M249.83,277.06l38.82,22.42a9.52,9.52,0,0,0,10-.79l24.11-19.58c2.6-2.11,2.35-5.18-.56-6.84L295,256.68a13.38,13.38,0,0,0-10.8-.52l-34.07,15.37C247.05,272.91,246.93,275.39,249.83,277.06Z" style="fill:#455a64"></path><path d="M324.55,275.8v8.63l0,0a4.28,4.28,0,0,1-1.77,3.31l-24.11,19.57a8.91,8.91,0,0,1-4.72,1.8v-8.65a8.91,8.91,0,0,0,4.72-1.8l24.11-19.58A4.34,4.34,0,0,0,324.55,275.8Z" style="fill:#263238"></path><path d="M328.29,273.23a2.18,2.18,0,0,1-.83,2.06l-9.89,5.7h0a2.05,2.05,0,0,0,.85-2.05l-2.15-48.3a7.41,7.41,0,0,0-3.31-5.47l-23.3-13.44a2.46,2.46,0,0,0-2.45-.2h0l9.81-5.66h0a2.48,2.48,0,0,1,2.52.16l23.28,13.44a7.39,7.39,0,0,1,3.32,5.47Z" style="fill:#263238"></path><path d="M289.67,211.71,313,225.16a7.41,7.41,0,0,1,3.31,5.46l2.15,48.31c.09,2-1.25,2.83-3,1.82l-33.15-19.14a5.76,5.76,0,0,1-2.62-5.43L286,213.49A2.31,2.31,0,0,1,289.67,211.71Z" style="fill:#37474f"></path><path d="M325.12,221.83l-9.87,5.7a6.86,6.86,0,0,0-2.29-2.37l-23.3-13.44a2.46,2.46,0,0,0-2.45-.2h0l9.81-5.66h0a2.48,2.48,0,0,1,2.52.16l23.28,13.44A7.07,7.07,0,0,1,325.12,221.83Z" style="fill:#455a64"></path><path d="M321.05,214.81v-12c0-8.65-5.53-18.85-12.34-22.78-3.12-1.81-6-2-8.14-.78v0L293,183.57l3.34,6.38v10.61a7,7,0,0,0,3.15,5.47l7.51,4.33,5.65,10.81,7.43-4.32h0A2.2,2.2,0,0,0,321.05,214.81Z" style="fill:#263238"></path><path d="M308.71,197.12l9.67-5.58c-2.26-4.93-5.75-9.28-9.67-11.54-3.12-1.81-6-2-8.14-.78v0L293,183.57l3.34,6.38V192Z" style="fill:#455a64"></path><path d="M313.65,219.11v-12c0-8.65-5.53-18.85-12.34-22.79S289,184.2,289,192.85v12a7,7,0,0,0,3.15,5.47l18.36,10.59C312.23,221.94,313.65,221.13,313.65,219.11Z" style="fill:#37474f"></path><path d="M290.37,222a119.1,119.1,0,0,0-4.08,32.7,8.38,8.38,0,0,0,3,5.87,93.24,93.24,0,0,0,18.56,10.69,2.38,2.38,0,0,0,3.54-2.24,336.7,336.7,0,0,0,.11-35.46,9.05,9.05,0,0,0-3.18-5.85,72.8,72.8,0,0,0-13.55-7.83A3.15,3.15,0,0,0,290.37,222Z" style="fill:#860065"></path><path d="M311.1,270.08a3.17,3.17,0,0,0,.26-1.11,336.7,336.7,0,0,0,.11-35.46,8.27,8.27,0,0,0-1-3.21c-1.29-1.84-1.75,13.63-1.74,23.06s.13,18.75,1.67,17.67l.18-.15A4.94,4.94,0,0,0,311.1,270.08Z" style="opacity:0.15"></path><g style="opacity:0.15"><path d="M288.45,253.85l.75.48c.47.32,1.15.74,1.95,1.27,1.61,1,3.76,2.4,6,3.66s4.45,2.44,6.17,3.3c.86.42,1.57.81,2.08,1s.79.41.79.41l-.87-.18c-.55-.14-1.34-.32-2.26-.63a33.1,33.1,0,0,1-3.11-1.17c-.55-.26-1.14-.5-1.7-.8s-1.14-.61-1.71-.92c-1.12-.66-2.21-1.35-3.2-2.07a31.33,31.33,0,0,1-2.58-2.09c-.73-.64-1.29-1.24-1.68-1.64S288.45,253.85,288.45,253.85Z"></path><path d="M288.45,247.75s.28.16.75.47,1.15.75,1.95,1.27c1.61,1,3.76,2.41,6,3.66s4.45,2.44,6.17,3.3c.86.43,1.57.81,2.08,1.05l.79.4s-.32,0-.87-.18-1.34-.32-2.26-.62-2-.7-3.11-1.18c-.55-.26-1.14-.5-1.7-.8s-1.14-.6-1.71-.91c-1.12-.66-2.21-1.36-3.2-2.08a31.33,31.33,0,0,1-2.58-2.09c-.73-.64-1.29-1.24-1.68-1.64S288.45,247.75,288.45,247.75Z"></path><path d="M289.71,242.7l.7.43c.43.3,1.07.67,1.81,1.16,1.48,1,3.47,2.18,5.52,3.28s4.17,2.12,5.77,2.89l1.92,1c.47.23.73.38.73.38l-.81-.16c-.5-.12-1.24-.27-2.09-.52s-1.86-.58-2.9-1c-.52-.22-1.06-.43-1.59-.69s-1.07-.52-1.6-.8-1.05-.59-1.55-.91-1-.65-1.44-1a26.56,26.56,0,0,1-2.39-1.93c-.66-.6-1.17-1.16-1.53-1.53S289.71,242.7,289.71,242.7Z"></path><path d="M290.22,237s.25.14.68.42,1,.64,1.75,1.11c1.44.92,3.36,2.1,5.35,3.14s4,2,5.59,2.73l1.87.92.7.37s-.29,0-.78-.14-1.2-.26-2-.49-1.8-.54-2.81-.92c-.5-.21-1-.39-1.55-.64s-1-.5-1.56-.76-1-.56-1.5-.86-.95-.63-1.4-.93a24.57,24.57,0,0,1-2.3-1.87c-.65-.58-1.14-1.12-1.48-1.48S290.22,237,290.22,237Z"></path><path d="M291.09,231.57l.64.38,1.65,1a55.33,55.33,0,0,0,5.05,2.91c1.88.95,3.85,1.78,5.31,2.47s2.42,1.22,2.42,1.22a26,26,0,0,1-2.66-.56,28.52,28.52,0,0,1-5.62-2.05c-.48-.26-1-.51-1.43-.79s-.9-.59-1.32-.87a21.6,21.6,0,0,1-2.17-1.78A18.5,18.5,0,0,1,291.09,231.57Z"></path><path d="M293.11,226.34s.84.47,2,1.22,2.76,1.68,4.39,2.53,3.3,1.64,4.56,2.27,2.08,1.12,2.08,1.12a17.49,17.49,0,0,1-2.33-.46,24,24,0,0,1-4.87-1.86c-.42-.23-.84-.46-1.24-.71s-.78-.51-1.15-.77a16.75,16.75,0,0,1-1.87-1.58A14.88,14.88,0,0,1,293.11,226.34Z"></path></g><path d="M280.43,265.89c-6.12,1.1-12.18,4.22-18.19,8.73a2.69,2.69,0,0,0,0,4.49,120,120,0,0,0,23.38,13.42,8.63,8.63,0,0,0,6.62-.18,57.81,57.81,0,0,0,14-10,3.11,3.11,0,0,0-.44-4.81,98.41,98.41,0,0,0-18.35-10.76A14.7,14.7,0,0,0,280.43,265.89Z" style="fill:#860065"></path><g style="opacity:0.2"><path d="M265.51,276.88s.39.1,1,.3,1.6.5,2.71.92a59.07,59.07,0,0,1,7.85,3.68,54.08,54.08,0,0,1,7.17,4.87c1.83,1.51,2.93,2.64,2.93,2.64l-3.34-2.07c-2-1.24-4.65-2.85-7.36-4.38s-5.46-3-7.54-4.1l-2.51-1.34Z"></path><path d="M271.35,273.52l1,.3c.65.21,1.6.5,2.7.93a57.11,57.11,0,0,1,7.85,3.67,52.79,52.79,0,0,1,7.17,4.87c1.83,1.51,2.93,2.64,2.93,2.64l-3.33-2.07c-2-1.24-4.66-2.85-7.37-4.38s-5.46-3-7.53-4.1L272.3,274C271.69,273.72,271.35,273.52,271.35,273.52Z"></path><path d="M276.36,270.67l1,.3c.65.22,1.6.5,2.71.93a56.58,56.58,0,0,1,7.84,3.68,51.76,51.76,0,0,1,7.18,4.87,38.84,38.84,0,0,1,2.93,2.63s-1.34-.82-3.34-2.07-4.65-2.85-7.37-4.38-5.45-3-7.53-4.1l-2.51-1.34C276.7,270.87,276.36,270.67,276.36,270.67Z"></path><path d="M281.83,268.33l1,.27c.6.19,1.47.45,2.48.83a51.42,51.42,0,0,1,7.22,3.36,47.13,47.13,0,0,1,6.57,4.49c1.67,1.39,2.68,2.44,2.68,2.44s-.32-.17-.86-.51l-2.22-1.36c-1.84-1.13-4.28-2.6-6.77-4s-5-2.76-6.9-3.78l-2.29-1.25C282.14,268.52,281.83,268.33,281.83,268.33Z"></path></g></g><g id="freepik--codriver-seat--inject-77"><path d="M378.06,307.17l-11.72-.23L348.5,296.72a13.37,13.37,0,0,0-10.8-.52L316.08,306l-14.82-.29v8.65h0c0,1,.69,2,2.1,2.78l38.82,22.42a9.48,9.48,0,0,0,10-.8l24.11-19.57a4.33,4.33,0,0,0,1.78-3.31l0,0Z" style="fill:#37474f"></path><path d="M303.36,308.45l38.82,22.41a9.48,9.48,0,0,0,10-.79l24.11-19.57c2.6-2.12,2.36-5.18-.55-6.85L348.5,288.07a13.33,13.33,0,0,0-10.8-.52l-34.07,15.36C300.58,304.29,300.45,306.77,303.36,308.45Z" style="fill:#455a64"></path><path d="M378.07,307.18v8.64l0,0a4.28,4.28,0,0,1-1.77,3.31l-24.11,19.57a8.84,8.84,0,0,1-4.71,1.8v-8.65a8.84,8.84,0,0,0,4.71-1.8l24.11-19.57A4.37,4.37,0,0,0,378.07,307.18Z" style="fill:#263238"></path><path d="M381.81,304.62a2.15,2.15,0,0,1-.83,2.05l-9.88,5.71h0a2.07,2.07,0,0,0,.85-2.06L369.8,262a7.42,7.42,0,0,0-3.32-5.47L343.19,243.1a2.51,2.51,0,0,0-2.46-.2h0l9.82-5.66h0a2.51,2.51,0,0,1,2.51.16l23.28,13.45a7.39,7.39,0,0,1,3.32,5.46Z" style="fill:#263238"></path><path d="M343.19,243.1l23.29,13.44A7.42,7.42,0,0,1,369.8,262l2.14,48.32c.09,2-1.25,2.82-3,1.82L335.79,293a5.75,5.75,0,0,1-2.62-5.42l6.33-42.69A2.3,2.3,0,0,1,343.19,243.1Z" style="fill:#37474f"></path><path d="M378.64,253.22l-9.86,5.69a7,7,0,0,0-2.3-2.37L343.19,243.1a2.51,2.51,0,0,0-2.46-.2h0l9.82-5.66h0a2.51,2.51,0,0,1,2.51.16l23.28,13.45A6.89,6.89,0,0,1,378.64,253.22Z" style="fill:#455a64"></path><path d="M374.57,246.19v-12c0-8.66-5.52-18.86-12.34-22.79-3.12-1.81-6-2-8.14-.78v0L346.57,215l3.33,6.39V232a6.94,6.94,0,0,0,3.16,5.46l7.5,4.34,5.65,10.81,7.43-4.33h0A2.22,2.22,0,0,0,374.57,246.19Z" style="fill:#263238"></path><path d="M362.23,228.5l9.67-5.58c-2.26-4.93-5.74-9.28-9.67-11.54-3.12-1.81-6-2-8.14-.78v0L346.57,215l3.33,6.39v2.08Z" style="fill:#455a64"></path><path d="M367.17,250.5v-12c0-8.65-5.52-18.85-12.34-22.78s-12.33-.11-12.33,8.54v12a7,7,0,0,0,3.16,5.47L364,252.32C365.76,253.32,367.17,252.51,367.17,250.5Z" style="fill:#37474f"></path><path d="M343.89,253.33a119.53,119.53,0,0,0-4.08,32.7,8.46,8.46,0,0,0,3,5.88,93.73,93.73,0,0,0,18.56,10.69,2.39,2.39,0,0,0,3.54-2.25,336.7,336.7,0,0,0,.11-35.46,9,9,0,0,0-3.18-5.85,73,73,0,0,0-13.54-7.82A3.15,3.15,0,0,0,343.89,253.33Z" style="fill:#860065"></path><path d="M364.62,301.46a3.17,3.17,0,0,0,.26-1.11,336.7,336.7,0,0,0,.11-35.46,8.37,8.37,0,0,0-1-3.21c-1.29-1.83-1.74,13.63-1.73,23.06s.12,18.76,1.67,17.67a1.22,1.22,0,0,0,.17-.15A4.53,4.53,0,0,0,364.62,301.46Z" style="opacity:0.15"></path><g style="opacity:0.15"><path d="M342,285.23l.75.48c.47.33,1.15.75,2,1.27,1.6,1,3.75,2.41,6,3.66s4.46,2.44,6.17,3.3c.86.43,1.57.81,2.08,1.05l.79.4s-.32-.05-.87-.18-1.34-.32-2.26-.62-2-.7-3.11-1.18c-.55-.26-1.13-.5-1.69-.8s-1.14-.6-1.71-.91c-1.12-.66-2.22-1.36-3.2-2.08a31.6,31.6,0,0,1-2.59-2.09c-.73-.64-1.28-1.24-1.68-1.64S342,285.23,342,285.23Z"></path><path d="M342,279.13s.28.16.75.48,1.15.74,2,1.27c1.6,1.05,3.75,2.4,6,3.66s4.46,2.43,6.17,3.29c.86.43,1.57.81,2.08,1.05s.79.41.79.41l-.87-.19c-.55-.14-1.34-.31-2.26-.62s-2-.7-3.11-1.18c-.55-.25-1.13-.49-1.69-.8s-1.14-.6-1.71-.91c-1.12-.66-2.22-1.35-3.2-2.07s-1.87-1.44-2.59-2.09-1.28-1.24-1.68-1.64S342,279.13,342,279.13Z"></path><path d="M343.23,274.08l.7.43c.43.3,1.07.68,1.81,1.16,1.49,1,3.47,2.18,5.53,3.29s4.16,2.12,5.76,2.89l1.93.95c.46.23.72.38.72.38s-.29,0-.8-.16-1.24-.26-2.1-.52-1.85-.58-2.9-1c-.51-.22-1.06-.42-1.59-.69s-1.07-.52-1.6-.8-1-.59-1.54-.9-1-.65-1.45-1a26.32,26.32,0,0,1-2.38-1.93c-.67-.6-1.18-1.15-1.54-1.53Z"></path><path d="M343.74,268.38s.26.15.68.42,1,.65,1.75,1.11c1.44.92,3.36,2.1,5.35,3.14s4.05,2,5.59,2.74l1.87.92c.45.22.7.37.7.37l-.78-.15c-.49-.11-1.2-.25-2-.49s-1.8-.53-2.81-.92c-.5-.2-1-.39-1.55-.64s-1-.49-1.56-.75-1-.57-1.5-.87-.95-.62-1.4-.93a23.07,23.07,0,0,1-2.3-1.87c-.65-.58-1.14-1.12-1.48-1.48S343.74,268.38,343.74,268.38Z"></path><path d="M344.61,263l.65.39,1.65,1a56.55,56.55,0,0,0,5,2.9c1.88,1,3.85,1.79,5.31,2.48s2.42,1.21,2.42,1.21a25.54,25.54,0,0,1-2.65-.56,28.61,28.61,0,0,1-5.62-2c-.49-.26-1-.52-1.43-.8s-.91-.58-1.33-.87a21.61,21.61,0,0,1-2.17-1.77A19.07,19.07,0,0,1,344.61,263Z"></path><path d="M346.63,257.72s.84.48,2,1.22,2.76,1.69,4.39,2.53,3.31,1.64,4.56,2.28,2.08,1.11,2.08,1.11a17.21,17.21,0,0,1-2.32-.46,23.8,23.8,0,0,1-4.88-1.86c-.42-.23-.84-.46-1.24-.71s-.78-.51-1.15-.77a18.78,18.78,0,0,1-1.87-1.57A15.36,15.36,0,0,1,346.63,257.72Z"></path></g><path d="M334,297.27c-6.12,1.1-12.18,4.22-18.19,8.74a2.69,2.69,0,0,0,0,4.49,120.46,120.46,0,0,0,23.38,13.41,8.68,8.68,0,0,0,6.62-.17,57.92,57.92,0,0,0,14-10,3.1,3.1,0,0,0-.44-4.81A98.82,98.82,0,0,0,341,298.2,14.74,14.74,0,0,0,334,297.27Z" style="fill:#860065"></path><g style="opacity:0.2"><path d="M319,308.26l1,.3c.65.22,1.6.51,2.7.93a56.11,56.11,0,0,1,7.85,3.68A51,51,0,0,1,337.8,318a37.44,37.44,0,0,1,2.93,2.64l-3.33-2.07c-2-1.25-4.66-2.86-7.37-4.39s-5.46-3-7.53-4.1L320,308.78C319.38,308.46,319,308.26,319,308.26Z"></path><path d="M324.87,304.9s.38.1,1,.31,1.6.5,2.7.92a56.11,56.11,0,0,1,7.85,3.68,51,51,0,0,1,7.17,4.87,39,39,0,0,1,2.94,2.64l-3.34-2.07c-2-1.25-4.65-2.86-7.37-4.39s-5.46-3-7.53-4.1l-2.51-1.34C325.21,305.1,324.87,304.9,324.87,304.9Z"></path><path d="M329.88,302.05s.39.1,1,.31,1.61.5,2.71.92a56.65,56.65,0,0,1,7.85,3.68,53.13,53.13,0,0,1,7.17,4.87,37.44,37.44,0,0,1,2.93,2.64l-3.34-2.07c-2-1.24-4.65-2.86-7.36-4.39s-5.46-3-7.54-4.1l-2.51-1.34Z"></path><path d="M335.35,299.72s.35.08,1,.27,1.47.44,2.49.83a50.68,50.68,0,0,1,7.21,3.35,47.28,47.28,0,0,1,6.58,4.49,35.79,35.79,0,0,1,2.67,2.45s-.32-.18-.85-.52l-2.23-1.36c-1.83-1.13-4.28-2.6-6.77-4s-5-2.76-6.9-3.78l-2.29-1.25Z"></path></g></g><g id="freepik--back-car--inject-77"><polygon points="453.82 297.99 413.76 274.86 436.01 262.01 457.68 275.69 453.82 297.99" style="fill:#860065"></polygon><polygon points="453.82 297.99 413.76 274.86 436.01 262.01 457.68 275.69 453.82 297.99" style="opacity:0.35000000000000003"></polygon><path d="M436.93,292.49l5.75-11.42L429,273.14h0c-4.35-2.51-10.15-2.22-16.51,1.45-13.52,7.81-16.36,23.25-16.36,40.28,0,8.92-5.11,19.9-.31,22.76h0l.19.11,0,0,14,8.1,6.07-12.05C427.61,325,436.49,307.69,436.93,292.49Z" style="fill:#37474f"></path><path d="M436.93,292.49l5.75-11.42L429,273.14h0c-4.35-2.51-10.15-2.22-16.51,1.45-13.52,7.81-16.36,23.25-16.36,40.28,0,8.92-5.11,19.9-.31,22.76h0l.19.11,0,0,14,8.1,6.07-12.05C427.61,325,436.49,307.69,436.93,292.49Z" style="fill:#263238"></path><path d="M451.2,299.52c0,14.69-8.15,31.68-19.07,41.08a.1.1,0,0,0,0,0,36.61,36.61,0,0,1-5.37,3.84c-13.52,7.81-24.49.33-24.48-16.7,0-12.86,6.26-27.51,15.15-37.26l.07-.08a39.65,39.65,0,0,1,9.26-7.63C440.24,275,451.2,282.5,451.2,299.52Z" style="fill:#37474f"></path><path d="M426.72,293.1c8.6-5,15.58.21,15.58,11.56s-7,24.59-15.58,29.56-15.58-.21-15.58-11.57S418.12,298.07,426.72,293.1Z" style="fill:#455a64"></path><path d="M433.74,310.46c-.55,5.65-4.14,11.67-8,13.43a3.78,3.78,0,0,1-4.24-.33c-1.38-1.15-2.09-3.53-1.78-6.71.54-5.65,4.12-11.66,8-13.42a4.39,4.39,0,0,1,2.85-.4h0C432.81,303.57,434.13,306.35,433.74,310.46Z" style="fill:#fafafa"></path><path d="M432.34,309.74c-.55,5.65-4.14,11.67-8,13.43a4.34,4.34,0,0,1-2.84.39c-1.38-1.15-2.09-3.53-1.78-6.71.54-5.65,4.12-11.66,8-13.42a4.39,4.39,0,0,1,2.85-.4h0C431.93,304.2,432.65,306.58,432.34,309.74Z" style="fill:#e0e0e0"></path><path d="M451.2,299.52c0,14.69-8.15,31.68-19.07,41.08a69.36,69.36,0,0,0,15.53-30c2.07-9.82,1.29-23.91-7.13-27.47S421,287,417.46,290.45a39.65,39.65,0,0,1,9.26-7.63C440.24,275,451.2,282.5,451.2,299.52Z" style="fill:#455a64"></path><path d="M377.2,283.88l-.51.29Z" style="fill:#860065"></path><path d="M382.55,280.79m-8.75,5.06h0l0,0Zm65.11-37.51c0-14.07-25.59-35.18-44.68-25.8,0,0-36.56,18.81-45.17,30.21-12.84,17-24.28,47-27.4,61.66-.57,2.65,8.58-2,11.72-2.75a2.29,2.29,0,0,1,2.09.72l-.07,54,59.05-34a44.92,44.92,0,0,1,.25-4.73c1.81-18.73,15.54-40.46,30.26-48.95,16-9.23,28.93-.61,28.93,19.26,2.67-1.24,4-2.5,4.66-5.81s.67-8.66.67-18.05C459.22,263.29,453.27,251.94,438.91,248.34ZM424,249.72l-26.75,15.45-.05,0-.31.18,0,0c-2.61,1.51-2.81-1.66-2.81-4.39,0-6.91,0-14.27,0-22.44-.15-4.32,1-8.16,4.48-9.12,7.58-2.12,13.16-2.18,21.95,4.81C426.39,239,428,247.38,424,249.72Zm-88.5,51c1.39-11.56,10.52-28.12,13.31-33.8,6.35-12.95,19-20.16,22.07-22,7.69-4.66,11.7-6.92,14.41-8.38,3.38-1.82,4.59-1,4.69.11,0,.52.08,1.16.08,1.91V265.4a6.13,6.13,0,0,1-3.26,6S335.62,300.7,335.47,300.76Z" style="fill:#860065"></path><path d="M394,274a10.15,10.15,0,0,1,1.55,4s27.1-17,35.22-21a18.71,18.71,0,0,1,24.38,7s-2.45-7.13-9.34-10.32c-8-3.71-12.45-1.4-27.6,6.56S394,274,394,274Z" style="fill:#fff;opacity:0.5"></path><path d="M341.32,303.32l42.37-24.21a4.13,4.13,0,0,1,1.64,3.62Z" style="fill:#fff;opacity:0.5"></path><path d="M376.52,294.79a.33.33,0,0,1-.5-.28V293c0-1.18,1.77-3.16,3.94-4.41l3.21-1.86c2.18-1.25,3.95-1.32,3.95-.14v1.28a1.5,1.5,0,0,1-.75,1.29Z" style="fill:#37474f"></path><path d="M343.67,351.73c-2.4,1.28-2.89-3.87-4.26-13.9S338.17,311,338.17,311c-1.65,7.52-1,25.72,0,37.38s3.16,10.58,5.5,8.84l41.87-26.15Z" style="opacity:0.15"></path><path d="M387.21,276.92s3.11,3.65,3.11,11.56c0,9.51.1,40.87.1,40.87s1.76-33.91,2.83-41.8-2.93-12.34-2.93-12.34Z" style="opacity:0.15"></path><path d="M426.25,236.8A24.42,24.42,0,0,0,410.54,226c-10.58-2.08-18.69,2.8-23.8,5.51-.34.18-.69.36-1,.57-4.12,2.45-16.93,9.72-23,14.42-5.82,4.51-13.2,13.48-16.38,19.94-7.24,14.73-11.52,26.85-12.48,31.88-.26,1.38-1.59,6.26.36,5.49.33-.13,1.88-.88,2.24-1.08,8-4.38,19.11-10.67,19.11-10.67s21.07-12.51,30.13-17.74c1.53-.88,1.95-1.15,3.8-2.31s26.47-15.13,34.56-19.83C429.16,249.25,429.53,242.54,426.25,236.8ZM390,264.3a6.13,6.13,0,0,1-3.26,5.95l-.15.09-.2.12c-2.95,1.82-8.58,5.09-13,7.51l-.11.06-.24.14,0,0,0,0-.33.19c-15.25,8.32-35.87,20.68-36,20.74a177.55,177.55,0,0,1,12.13-31.37c6.35-12.95,19-21,22.09-22.85,7.69-4.66,11.7-6.92,14.41-8.38,3.38-1.82,4.59-1,4.69.11,0,.52.08,1.16.08,1.91Zm32.63-14.77-25.44,14.69-.05,0-.31.18,0,0c-2.61,1.51-2.81-1.66-2.81-4.39,0-6.91,0-13.32,0-21.49-.15-4.32,1-8.16,4.48-9.12,7.58-2.12,13.16-2.18,21.95,4.81C426.39,239,426.72,247.19,422.66,249.53Z" style="fill:#263238"></path><path d="M373.28,278l.19-.1C373.27,278.06,373.24,278.07,373.28,278Z" style="fill:#263238"></path><path d="M376.58,276.14l-1.11.64.48-.28Z" style="fill:#263238"></path><path d="M387.17,270Z" style="fill:#263238"></path><path d="M373.33,278l.37-.22.13-.07-.52.3Z" style="fill:#263238"></path><path d="M374.64,277.26l.34-.2.27-.15-1.05.6-.44.26.34-.2.1-.06Z" style="fill:#263238"></path><path d="M390,264.3a6.13,6.13,0,0,1-3.26,5.95l-.15.09-.2.12c-2.95,1.82-8.58,5.09-13,7.51l-.11.06-.24.14,0,0,0,0-.33.19c-15.25,8.32-35.87,20.68-36,20.74a177.55,177.55,0,0,1,12.13-31.37c6.35-12.95,19-21,22.09-22.85,7.69-4.66,11.7-6.92,14.41-8.38,3.38-1.82,4.59-1,4.69.11,0,.52.08,1.16.08,1.91Z" style="opacity:0.5"></path><path d="M422.66,249.53l-25.44,14.69-.05,0-.31.18,0,0c-2.61,1.51-2.81-1.66-2.81-4.39,0-6.91,0-13.32,0-21.49-.15-4.32,1-8.16,4.48-9.12,7.58-2.12,13.16-2.18,21.95,4.81C426.39,239,426.72,247.19,422.66,249.53Z" style="opacity:0.5"></path><path d="M431.59,233.33c-10.87-14.29-26.46-31.23-69.86-53s-51.21-23.89-74.52-12.77l0,0c-12.55,5.56-38.82,17.83-46.81,26.4a10.06,10.06,0,0,1,3.07-.09c15.09,4.1,92.19,51.34,104.91,59.82a9.58,9.58,0,0,1,.73-1c8.61-11.4,45.17-30.21,45.17-30.21,11.06-5.52,26.49-.77,37.41,10.86Z" style="fill:#860065"></path><path d="M431.59,233.33c-10.87-14.29-26.46-31.23-69.86-53s-51.21-23.89-74.52-12.77l0,0c-12.55,5.56-38.82,17.83-46.81,26.4a10.06,10.06,0,0,1,3.07-.09c15.09,4.1,92.19,51.34,104.91,59.82a9.58,9.58,0,0,1,.73-1c8.61-11.4,45.17-30.21,45.17-30.21,11.06-5.52,26.49-.77,37.41,10.86Z" style="fill:#fff;opacity:0.5"></path></g><g id="freepik--front-car--inject-77"><path d="M264.76,267.64c-29.32-17.11-60.32-27.15-60.38-27.16.84,3.17,1.37,9.69,6.61,16.6,4,5.35,9.11,11.17,15.33,15.34,14.68,10.25,29.51,17.27,34.55,20.28,25.25,13.69,57,18.14,61.25,13.1C322.12,305.8,288.1,281.25,264.76,267.64Z" style="fill:#455a64"></path><path d="M322.12,305.8c-1.2-.75-41.12-25.36-59.57-36.45-17.56-10.56-53.77-26.88-58.17-28.87a322,322,0,0,1,60.38,27.16A683.24,683.24,0,0,1,322.12,305.8Z" style="fill:#37474f"></path><polygon points="335.39 366.4 295.34 343.27 317.59 330.42 335.39 340.74 335.39 366.4" style="fill:#860065"></polygon><polygon points="335.39 366.4 295.34 343.27 317.59 330.42 335.39 340.74 335.39 366.4" style="opacity:0.35000000000000003"></polygon><path d="M318.9,360.65l5.76-11.42L311,341.3h0c-4.36-2.5-10.15-2.22-16.52,1.46-13.52,7.81-24.48,27.94-24.48,45,0,8.92,3,15.21,7.81,18.06h0l.19.11,0,0,14,8.1,6.07-12C309.59,393.18,318.46,375.84,318.9,360.65Z" style="fill:#37474f"></path><path d="M318.9,360.65l5.76-11.42L311,341.3h0c-4.36-2.5-10.15-2.22-16.52,1.46-13.52,7.81-24.48,27.94-24.48,45,0,8.92,3,15.21,7.81,18.06h0l.19.11,0,0,14,8.1,6.07-12C309.59,393.18,318.46,375.84,318.9,360.65Z" style="fill:#263238"></path><path d="M333.17,367.68c0,14.68-8.15,31.68-19.06,41.08a.11.11,0,0,0-.05,0,36,36,0,0,1-5.37,3.85c-13.52,7.81-24.49.33-24.47-16.7,0-12.86,6.25-27.51,15.14-37.26l.07-.08a39.85,39.85,0,0,1,9.26-7.63C322.21,343.18,333.17,350.65,333.17,367.68Z" style="fill:#37474f"></path><path d="M308.69,361.26c8.61-5,15.58.21,15.58,11.56s-7,24.59-15.58,29.55-15.58-.21-15.58-11.56S300.09,366.23,308.69,361.26Z" style="fill:#455a64"></path><path d="M315.73,378.68c-.59,5.64-4.23,11.63-8.11,13.36a3.79,3.79,0,0,1-4.24-.36c-1.36-1.17-2.06-3.55-1.73-6.72.6-5.65,4.22-11.64,8.11-13.37a4.37,4.37,0,0,1,2.85-.37s0,0,0,0C314.86,371.77,316.16,374.57,315.73,378.68Z" style="fill:#fafafa"></path><path d="M314.34,378c-.59,5.64-4.22,11.63-8.11,13.36a4.41,4.41,0,0,1-2.85.37c-1.36-1.17-2.06-3.55-1.73-6.72.6-5.65,4.22-11.64,8.11-13.37a4.37,4.37,0,0,1,2.85-.37s0,0,0,0C314,372.4,314.67,374.79,314.34,378Z" style="fill:#e0e0e0"></path><path d="M333.17,367.68c0,14.68-8.15,31.68-19.06,41.08,6.46-7,13.16-18.81,15.52-30.05,2.07-9.81,1.3-23.9-7.13-27.46s-19.55,3.94-23.07,7.36a39.85,39.85,0,0,1,9.26-7.63C322.21,343.18,333.17,350.65,333.17,367.68Z" style="fill:#455a64"></path><path d="M333.68,306.33s-7.48.54-10.34,1.48c-2.56.84-29.65,0-56.45-11.76-16-7-28.23-12.81-41.87-24.54-17.79-15.28-20.15-25.52-21.94-29.66-7.36,5.23-17.3,12.45-23,16.86-13.12,10.91-29.09,27-35.41,44.87-.43,1.21-.82,2.43-1.15,3.65-9.35,34.07-1.34,46.62,6.68,57,3.41,4.43,12.88,13.05,24.69,20.09a292.87,292.87,0,0,0,30,15.37A107.53,107.53,0,0,0,223.65,406c32.46,7.16,54.24-6.48,54.24-6.48a26.31,26.31,0,0,1,.06-5.42,56.87,56.87,0,0,1,1.29-7.17,71.83,71.83,0,0,1,6.85-17.48c4.63-8.43,10.82-15.82,17.71-20.6.9-.64,1.82-1.22,2.74-1.75,14.9-8.61,27.18-1.68,28.76,15.41.12,1.24.1,2.51.1,3.85l.77-15.71-.7-41.89S333.14,308.35,333.68,306.33Z" style="fill:#860065"></path><path d="M203.16,254.19c19.82,30.07,59.17,51.46,103.81,60,2.71.52,3.79,2.93,1.48,4.44-4.11,2.68-11.05,4.12-19.84,2.43-40.18-11.76-68-27-86.93-48.81-1.81-2.09-4.27-5.85-5-8.52-1-3.75-.86-7.38.48-10.14C198.4,251.08,201.64,251.88,203.16,254.19Z" style="opacity:0.2"></path><path d="M184.15,342.53c4.55,2.39,12.85-5.64,17-8.86s-5.37-11.74-10.65-10.48C183.1,325,180.13,340.41,184.15,342.53Z" style="fill:#455a64"></path><path d="M204.88,399.73a105,105,0,0,0,11.8,4.42c-4.85-1.93-.76-11.53-4.4-15.1-3.81-3.73-16-9.41-30.76-17.93s-24.71-17.76-27-14.9c-4,5.13-7.21,4.18-7.23,4.17.94,1.35,1.9,2.63,2.86,3.88,3.41,4.43,12.88,13.05,24.69,20.09A292.87,292.87,0,0,0,204.88,399.73Z" style="fill:#455a64"></path><polygon points="217.4 404.37 217.4 404.37 217.4 404.37 217.4 404.37" style="fill:#455a64"></polygon><g style="opacity:0.2"><path d="M199.63,244.34c-8.24,8.39-15.73,17.6-21.35,27.91a100.53,100.53,0,0,0-11.37,33,94.56,94.56,0,0,0-1.4,17.42,46,46,0,0,0,3.34,16.9,14.94,14.94,0,0,0,.89,1.95c.34.64.65,1.28,1,1.9a33,33,0,0,0,2.43,3.53A34.59,34.59,0,0,0,176,350.2a39.27,39.27,0,0,0,3.29,2.75,51.92,51.92,0,0,0,7.42,4.46,79.49,79.49,0,0,0,8,3.53c1.34.55,2.73.94,4.11,1.38.69.2,1.39.36,2.09.54l1.05.26,1.06.18a37.41,37.41,0,0,0,8.58.65,53.87,53.87,0,0,0,16.89-3.69c2.72-1,5.41-2.18,8.13-3.35l8.14-3.44c5.44-2.28,10.94-4.44,16.52-6.38s11.19-3.76,16.82-5.49,11.27-3.35,16.69-5.61a68.49,68.49,0,0,0,15.35-8.44,40.51,40.51,0,0,0,11.52-13.14A39.74,39.74,0,0,1,310.47,328a69.48,69.48,0,0,1-15.3,8.92,174.23,174.23,0,0,1-16.69,5.91c-5.6,1.82-11.17,3.69-16.68,5.73s-11,4.25-16.37,6.53l-8.11,3.48c-2.69,1.17-5.41,2.36-8.19,3.42a55.65,55.65,0,0,1-17.46,3.9,39.92,39.92,0,0,1-9-.63l-1.11-.19-1.1-.27c-.73-.18-1.46-.34-2.19-.54-1.43-.46-2.88-.86-4.26-1.42a78.73,78.73,0,0,1-8.16-3.67,52.39,52.39,0,0,1-7.67-4.67,40,40,0,0,1-3.47-2.92,37.33,37.33,0,0,1-3-3.41,36.39,36.39,0,0,1-2.55-3.75c-.37-.66-.7-1.34-1-2a17.37,17.37,0,0,1-.94-2.06,48.07,48.07,0,0,1-3.39-17.57A89,89,0,0,1,165.4,305a101.53,101.53,0,0,1,12-33.26A123.22,123.22,0,0,1,199.63,244.34Z"></path></g><path d="M242.71,286.91s-30-16.77-41.09-43.23c0,0-12.84,12.09-20.81,28.11a136.82,136.82,0,0,0-11.7,34.52s6.64-25.74,17.95-41.57c10.61-14.86,13.19-18.51,19.28-8.78C211,263.43,226.08,281.49,242.71,286.91Z" style="fill:#fff;opacity:0.5"></path><path d="M289.27,336.1c-7.44,1.83-21.49,5.32-33.16,10s-26.4,13.81-41.63,15.49S184,354.15,184,354.15s15.62,7.2,30.06,5.22,28.36-10.78,42.73-15.88S289.27,336.1,289.27,336.1Z" style="fill:#fff;opacity:0.5"></path><path d="M268.89,385.18c-1.42-.2-5,.75-11,2.48s-7.47,1.89-9.7,3.43c-1.89,1.3-6.93,5.41-9.36,6.66-3.86,2,0,3.43,10.79,3.44s14.44-3.22,16.92-6.53S272.13,385.63,268.89,385.18Z" style="fill:#455a64"></path><path d="M142.31,326.55a48.18,48.18,0,0,0-.6,5.91,28,28,0,0,0,2.21,11.38c.47,1.1,1.29,2.35,2.49,2.24.47-.05-.52-16.43-.75-18s-.41-2.94-.62-4.41c-.08-.54-.28-1.21-.82-1.26C143.32,322.29,142.71,324.29,142.31,326.55Z" style="fill:#455a64"></path><path d="M159.42,312.11c1.08-4.58,1-12.19,1.2-16.87a65.38,65.38,0,0,1,1.53-13.13c.57-2.92,1-5.32.1-6.36-7.43,8.32-14,17.81-17.59,27.83-.43,1.21-.82,2.43-1.15,3.65s-.62,2.32-.91,3.45c.69,3.5,3.8,8.31,7.9,8.74C155.24,319.9,158.33,316.7,159.42,312.11Z" style="fill:#455a64"></path><path d="M157.61,278a3.87,3.87,0,0,1,2.82-.86c1,.14.57,1.66.35,2.3-.39,1.14-.77,2.29-1.16,3.44-.29.84-.46,1.91-1.57,2-1.37.06-2.09-1.58-2.33-2.69A4.43,4.43,0,0,1,157.61,278Z" style="fill:#860065"></path><path d="M157.61,278a3.87,3.87,0,0,1,2.82-.86c1,.14.57,1.66.35,2.3-.39,1.14-.77,2.29-1.16,3.44-.29.84-.46,1.91-1.57,2-1.37.06-2.09-1.58-2.33-2.69A4.43,4.43,0,0,1,157.61,278Z" style="fill:#fff;opacity:0.65"></path><path d="M148.16,316.35a4.66,4.66,0,0,0,6.16-.78,11,11,0,0,0,2.61-4.53c2.43-7.23,1.27-15.11,0-22.63A4.47,4.47,0,0,0,156,286c-1.84-1.93-5.06,1.54-6.23,2.77a23,23,0,0,0-4.49,6.85c-1.47,3.47-2.85,8.53-2.08,12.33C143.83,310.92,145.49,314.67,148.16,316.35Z" style="fill:#860065"></path><path d="M148.16,316.35a4.66,4.66,0,0,0,6.16-.78,11,11,0,0,0,2.61-4.53c2.43-7.23,1.27-15.11,0-22.63A4.47,4.47,0,0,0,156,286c-1.84-1.93-5.06,1.54-6.23,2.77a23,23,0,0,0-4.49,6.85c-1.47,3.47-2.85,8.53-2.08,12.33C143.83,310.92,145.49,314.67,148.16,316.35Z" style="fill:#fff;opacity:0.65"></path><path d="M150.45,291.55a10.17,10.17,0,0,0-.6,12.15,3.16,3.16,0,0,0,2.08,1.51,2.47,2.47,0,0,0,2.27-1.27,6.41,6.41,0,0,0,.76-2.62,51.81,51.81,0,0,0,.18-8.45C155,289.4,152.48,289.21,150.45,291.55Z" style="fill:#fff;opacity:0.45"></path><path d="M245,358.94c5-4.23,12.72-7.83,25.61-9.1,11.47-1.12,21.69-6.39,22-.66s-8.79,22.94-25.48,28.72c-14.39,5-23.55,1.09-26.62-3.75S240.07,363.17,245,358.94Z" style="fill:#455a64"></path><path d="M284.64,356.42c2.16.59,3.63-.4,4.53-2.32.64-1.39,1.19-3.44-.56-4.18-2.43-1-5.72-.2-8,.9C276.08,353,282.52,355.85,284.64,356.42Z" style="fill:#860065"></path><path d="M284.64,356.42c2.16.59,3.63-.4,4.53-2.32.64-1.39,1.19-3.44-.56-4.18-2.43-1-5.72-.2-8,.9C276.08,353,282.52,355.85,284.64,356.42Z" style="fill:#fff;opacity:0.65"></path><path d="M279,364.23c1.45-2.61,2.24-5.6.21-7.7s-6-2.77-8.81-3a32.9,32.9,0,0,0-23.93,7.43,15.21,15.21,0,0,0-3.86,4.45,7.5,7.5,0,0,0-.7,5.72c2.85,8.77,16.41,7.42,23,4.93a27.92,27.92,0,0,0,11.16-7.77A24,24,0,0,0,279,364.23Z" style="fill:#860065"></path><path d="M279,364.23c1.45-2.61,2.24-5.6.21-7.7s-6-2.77-8.81-3a32.9,32.9,0,0,0-23.93,7.43,15.21,15.21,0,0,0-3.86,4.45,7.5,7.5,0,0,0-.7,5.72c2.85,8.77,16.41,7.42,23,4.93a27.92,27.92,0,0,0,11.16-7.77A24,24,0,0,0,279,364.23Z" style="fill:#fff;opacity:0.65"></path><path d="M263.59,355.52a28.68,28.68,0,0,0-5.49,1.67c-2,.82-4,2.47-3.8,4.6.42,4.58,9.08,6.73,12.79,6.56a11,11,0,0,0,9.34-5.66C280.56,354.35,267.86,354.81,263.59,355.52Z" style="fill:#fff;opacity:0.45"></path><path d="M243.42,193.9c-17.48,15-26.87,26-39.95,44.32-2.62,4.53,5.33,21.76,21.05,34.49,42.54,34.48,95.62,41.15,101,35.59,7.57-26.9,15.41-42.82,22.83-54.58C335.61,245.24,258.51,198,243.42,193.9Zm78.84,111.39a1.37,1.37,0,0,1-1.44,1c-13.35,0-54-5.45-92.54-34.81C208,256.05,207,240.62,206.66,239.41c10.28-15.81,19.32-25.54,34.71-39.51a5.38,5.38,0,0,1,5.77-.93c21.11,9.22,67,35.56,91.46,53.21a5.4,5.4,0,0,1,1.57,7C330.65,276.37,327.17,288.16,322.26,305.29Z" style="fill:#37474f"></path><path d="M322.26,305.29a1.37,1.37,0,0,1-1.44,1c-13.35,0-54-5.45-92.54-34.81C208,256.05,207,240.62,206.66,239.41c10.28-15.81,19.32-25.54,34.71-39.51a5.38,5.38,0,0,1,5.77-.93c21.11,9.22,67,35.56,91.46,53.21a5.4,5.4,0,0,1,1.57,7C330.65,276.37,327.17,288.16,322.26,305.29Z" style="opacity:0.5"></path><path d="M349.19,309.49c-1.86,8.83-11.63,10.69-18.95,10.47-3.88-.11-7.07-.82-8-1.38-2.83-1.63-1.52-5,0-7,2.56-3.32,14.07-10,21.29-10.21C347.71,301.24,350.48,303.3,349.19,309.49Z" style="fill:#860065"></path><path d="M349.19,309.49c-1.86,8.83-11.63,10.69-18.95,10.47-3.88-.11-7.07-.82-8-1.38-2.83-1.63-1.52-5,0-7,2.56-3.32,14.07-10,21.29-10.21C347.71,301.24,350.48,303.3,349.19,309.49Z" style="opacity:0.30000000000000004"></path><path d="M349.19,309.49c-1.86,8.83-11.63,10.69-18.95,10.47-3.88-.11-7.07-.82-8-1.38-2.83-1.63-1.52-5,0-7-1.43,2.69,6.11,4.36,12.83,1.95s11.72-7.61,8.46-12.16C347.71,301.24,350.48,303.3,349.19,309.49Z" style="fill:#860065"></path><path d="M349.19,309.49c-1.86,8.83-11.63,10.69-18.95,10.47-3.88-.11-7.07-.82-8-1.38-2.83-1.63-1.52-5,0-7-1.43,2.69,6.11,4.36,12.83,1.95s11.72-7.61,8.46-12.16C347.71,301.24,350.48,303.3,349.19,309.49Z" style="opacity:0.35000000000000003"></path><path d="M349.19,309.49c-1.86,8.83-11.63,10.69-18.95,10.47,7.29-.21,13.09-4.41,15.29-9s.52-9-2-9.58C347.71,301.24,350.48,303.3,349.19,309.49Z" style="fill:#37474f"></path></g></g></g><g id="freepik--Cable--inject-77"><g id="freepik--cable--inject-77"><path d="M82.81,185.42a2.78,2.78,0,0,0-2.14-.38s-.49.27-.78.47a5.11,5.11,0,0,0,3.17,9.21,4.82,4.82,0,0,0,2.14-.55l.69-.4h0a2.76,2.76,0,0,0,.68-2.12A8.14,8.14,0,0,0,82.81,185.42Z" style="fill:#860065"></path><path d="M191.36,335.47c-1.29,1.78-3.28,2.65-4.16,2a4,4,0,1,1,4.69-6.47C192.64,331.71,192.66,333.68,191.36,335.47Z" style="fill:#263238"></path><path d="M134.11,420.43a33.13,33.13,0,0,1-16.6-4.72c-6.19-3.57-10-8.54-11.33-14.77-2.06-9.65,2.46-20.33,6.95-26.55l1.28-1.76c7.93-10.94,12.3-17,10.75-23.21-1.85-7.48-26.48-6.47-52.35-4.47l-7,.54c-16.68,1.25-41.37-1.68-43.72-9.31-.9-2.91,1.31-5.93,6.58-9C49,315.47,66.57,305.34,66.57,283.52c0-26.32-.18-40.36-.32-50.6-.07-5.75-.13-14-.13-18.8,0-13.56,13.12-23.41,13.68-23.82A1,1,0,0,1,81,191.91c-.12.09-12.86,9.67-12.86,22.21,0,4.76.06,13,.13,18.77.14,10.25.32,24.29.32,50.63,0,23-18.88,33.88-38.88,45.42-3,1.73-6.4,4.28-5.67,6.65,1.65,5.35,22.67,9.33,41.66,7.9l7-.53c27-2.09,52.19-3.14,54.45,6,1.77,7.15-2.79,13.44-11.07,24.86l-1.28,1.77c-4.25,5.88-8.54,15.94-6.62,24.95,1.21,5.66,4.7,10.19,10.38,13.46,12.73,7.35,24.9,4.65,31.31-1.29,5.4-5,7.81-13,7.81-26,0-2,0-4.13,0-6.28-.07-8.62-.14-17.53.79-25.37,1-8.72,4.63-15.79,10.09-19.92,4.94-3.73,11.25-5,18.75-3.82a1,1,0,1,1-.32,2c-6.94-1.11-12.73.05-17.22,3.45-6.79,5.12-8.75,13.82-9.31,18.55-.92,7.72-.85,16.57-.78,25.13,0,2.15,0,4.26,0,6.29,0,13.58-2.61,22.05-8.45,27.46A25.14,25.14,0,0,1,134.11,420.43Z" style="fill:#37474f"></path></g></g><g id="freepik--speach-bubble--inject-77"><g id="freepik--speach-bubble--inject-77"><path d="M290.06,144.56,284.42,134l4.54-13.1v-8l-13.89,8v8l6,10.34a.83.83,0,0,0,.41.36h0Z" style="fill:#860065"></path><path d="M290.06,144.56,284.42,134l4.54-13.1v-8l-13.89,8v8l6,10.34a.83.83,0,0,0,.41.36h0Z" style="opacity:0.2"></path><path d="M323.23,49.08a9.21,9.21,0,0,0-4.16-7.22l-3.39-2a9.26,9.26,0,0,0-8.33,0L255.35,70a9.22,9.22,0,0,0-4.17,7.22v57.21a9.22,9.22,0,0,0,4.17,7.22l3.39,2a9.19,9.19,0,0,0,8.33,0l16.72-9.66,6,10.32a.89.89,0,0,0,1.61-.15l6.3-18.18,21.41-12.4a9.22,9.22,0,0,0,4.17-7.22Z" style="fill:#860065"></path><path d="M251.18,134.41a9.22,9.22,0,0,0,4.17,7.22l3.39,2a9.31,9.31,0,0,0,7.62.34c-2,.74-3.46-.37-3.46-2.74V84a8.51,8.51,0,0,1,1.22-4.1L252.4,73.09a8.58,8.58,0,0,0-1.22,4.11Z" style="opacity:0.2"></path><path d="M323.1,47.89c-.49-1.77-2.1-2.33-4-1.22l-52,30.08a8.26,8.26,0,0,0-2.94,3.11L252.42,73.1A8.31,8.31,0,0,1,255.35,70l52-30.08a9.28,9.28,0,0,1,8.34,0l3.4,2A9.2,9.2,0,0,1,323.1,47.89Z" style="fill:#fff;opacity:0.5"></path><path d="M315.82,65.3c-3.42,8,.8,20.32-2.21,30.15s-8.46,14.15-14.35,13.39c-.69-11,2.76-22.26,8.46-31.51C302.29,82.84,295,92,296.56,108.51c-4.48-1.94-8.58-10.67-3.8-21.4C299.32,72.36,315.82,65.3,315.82,65.3Z" style="fill:#fff"></path><polygon points="279.85 77.73 269.45 105.31 278.38 106.84 275.6 129.04 286.43 100.49 277.52 98.55 279.85 77.73" style="fill:#fff"></polygon></g></g></svg>
