<svg xmlns="http://www.w3.org/2000/svg" viewBox="0 0 500 500"><g id="freepik--Arrow--inject-41"><g id="freepik--arrow--inject-41"><polygon points="338.94 48.07 334.65 45.57 297.39 58.97 305.62 66.67 200.22 179.22 178.26 158.49 173.96 155.99 91.69 243.84 101.56 253.08 105.86 255.59 177.48 179.11 197.94 197.89 204.38 201.65 318.96 79.3 323.71 83.61 328.01 86.12 338.94 48.07" style="fill:#860065"></polygon><polygon points="338.94 48.07 334.65 45.57 297.39 58.97 305.62 66.67 200.22 179.22 178.26 158.49 173.96 155.99 91.69 243.84 101.56 253.08 105.86 255.59 177.48 179.11 197.94 197.89 204.38 201.65 318.96 79.3 323.71 83.61 328.01 86.12 338.94 48.07" style="fill:#fff;opacity:0.25"></polygon><polygon points="338.94 48.07 328.01 86.12 319.78 78.42 204.38 201.65 178.88 177.61 105.86 255.59 95.98 246.34 178.26 158.49 203.75 182.53 309.91 69.17 301.69 61.47 338.94 48.07" style="fill:#860065"></polygon><polygon points="178.88 177.61 177.48 179.11 197.94 197.89 204.38 201.65 178.88 177.61" style="fill:#860065"></polygon><polygon points="178.88 177.61 177.48 179.11 197.94 197.89 204.38 201.65 178.88 177.61" style="opacity:0.2"></polygon><polygon points="305.62 66.67 309.91 69.17 301.69 61.47 297.39 58.97 305.62 66.67" style="fill:#860065"></polygon><polygon points="305.62 66.67 309.91 69.17 301.69 61.47 297.39 58.97 305.62 66.67" style="opacity:0.2"></polygon><polygon points="318.96 79.3 319.78 78.42 328.01 86.12 323.71 83.61 318.96 79.3" style="fill:#860065"></polygon><polygon points="318.96 79.3 319.78 78.42 328.01 86.12 323.71 83.61 318.96 79.3" style="opacity:0.2"></polygon><polygon points="91.69 243.84 95.98 246.34 105.86 255.59 101.56 253.08 91.69 243.84" style="fill:#860065"></polygon><polygon points="91.69 243.84 95.98 246.34 105.86 255.59 101.56 253.08 91.69 243.84" style="opacity:0.2"></polygon><polygon points="123.1 217.39 178.26 160.31 203.75 182.53 178.26 158.49 123.1 217.39" style="fill:#fff;opacity:0.5"></polygon><polygon points="252.39 130.6 311.16 69.17 303.24 61.85 338.94 48.07 301.69 61.47 309.91 69.17 252.39 130.6" style="fill:#fff;opacity:0.5"></polygon></g></g><g id="freepik--bar-chart--inject-41"><g id="freepik--bar-graph--inject-41"><g style="opacity:0.30000000000000004"><path d="M340.94,320.78a.63.63,0,0,1-.33-.09L297.91,296a.68.68,0,0,1-.33-.57.66.66,0,0,1,.33-.57l53.37-30.81a.65.65,0,0,1,.66,0l42.7,24.65a.65.65,0,0,1,.32.57.67.67,0,0,1-.32.57l-53.37,30.81A.68.68,0,0,1,340.94,320.78Zm-41.38-25.31,41.38,23.89L393,289.31l-41.38-23.89Z" style="fill:#860065"></path></g><polygon points="340.94 313.96 340.93 149.09 308.91 130.6 308.92 295.47 340.94 313.96" style="fill:#860065"></polygon><polygon points="340.94 313.96 340.93 149.09 308.91 130.6 308.92 295.47 340.94 313.96" style="opacity:0.2"></polygon><polygon points="340.94 313.96 383.63 289.31 383.64 124.44 340.93 149.09 340.94 313.96" style="fill:#860065"></polygon><polygon points="383.64 124.44 351.62 105.95 308.91 130.6 340.93 149.09 383.64 124.44" style="fill:#860065"></polygon><polygon points="383.64 124.44 351.62 105.95 308.91 130.6 340.93 149.09 383.64 124.44" style="fill:#fff;opacity:0.25"></polygon><path d="M383.64,124.44l-43.13,23.78-14-7.82-17.59-9.8,17.28,10.34,14.17,8.46c-.34,4.8-.43,87.56-.37,92.37s.31,67.28.95,72.19c.64-4.91.86-67.28.93-72.19.07-4.65,0-87.26-.34-91.91Z" style="fill:#fff;opacity:0.30000000000000004"></path><g style="opacity:0.30000000000000004"><path d="M260.88,367a.68.68,0,0,1-.33-.09l-42.69-24.65a.68.68,0,0,1-.33-.57.66.66,0,0,1,.33-.57l53.37-30.81a.65.65,0,0,1,.66,0L314.58,335a.66.66,0,0,1,.33.57.68.68,0,0,1-.33.57l-53.37,30.81A.63.63,0,0,1,260.88,367ZM219.5,341.69l41.38,23.89,52.06-30.05-41.38-23.89Z" style="fill:#860065"></path></g><polygon points="260.88 360.18 260.88 227.75 228.86 209.26 228.86 341.69 260.88 360.18" style="fill:#860065"></polygon><polygon points="260.88 360.18 260.88 227.75 228.86 209.26 228.86 341.69 260.88 360.18" style="fill:#fff;opacity:0.1"></polygon><polygon points="260.88 360.18 303.58 335.53 303.58 203.1 260.88 227.75 260.88 360.18" style="fill:#860065"></polygon><polygon points="260.88 360.18 303.58 335.53 303.58 203.1 260.88 227.75 260.88 360.18" style="fill:#fff;opacity:0.30000000000000004"></polygon><polygon points="303.58 203.1 271.56 184.62 228.86 209.26 260.88 227.75 303.58 203.1" style="fill:#860065"></polygon><polygon points="303.58 203.1 271.56 184.62 228.86 209.26 260.88 227.75 303.58 203.1" style="fill:#fff;opacity:0.55"></polygon><path d="M261.45,228.08l42.13-25-42.7,24c-4.65-2.64-9.76-5.47-14.43-8.07l-17.59-9.79,17.28,10.33c4.72,2.83,9.44,5.67,14.18,8.46-.15,5,.24,127,.56,132.12C261.21,355.09,261.59,232.9,261.45,228.08Z" style="fill:#fff;opacity:0.30000000000000004"></path><g style="opacity:0.30000000000000004"><path d="M180.83,413.22a.66.66,0,0,1-.33-.09l-42.7-24.65a.67.67,0,0,1-.32-.57.65.65,0,0,1,.32-.57l53.37-30.81a.65.65,0,0,1,.66,0l42.7,24.65a.65.65,0,0,1,.32.57.67.67,0,0,1-.32.57l-53.37,30.81A.68.68,0,0,1,180.83,413.22Zm-41.38-25.31,41.38,23.89,52-30.05L191.5,357.86Z" style="fill:#860065"></path></g><polygon points="180.83 406.4 180.82 317.24 148.8 298.75 148.81 387.91 180.83 406.4" style="fill:#860065"></polygon><polygon points="180.83 406.4 180.82 317.24 148.8 298.75 148.81 387.91 180.83 406.4" style="opacity:0.45"></polygon><polygon points="180.83 406.4 223.52 381.75 223.53 292.59 180.82 317.24 180.83 406.4" style="fill:#860065"></polygon><polygon points="180.83 406.4 223.52 381.75 223.53 292.59 180.82 317.24 180.83 406.4" style="opacity:0.30000000000000004"></polygon><polygon points="223.53 292.59 191.51 274.1 148.8 298.75 180.82 317.24 223.53 292.59" style="fill:#860065"></polygon><polygon points="223.53 292.59 191.51 274.1 148.8 298.75 180.82 317.24 223.53 292.59" style="opacity:0.15"></polygon><path d="M223.53,292.59l-42.71,24-14.43-8.05-17.59-9.8,17.28,10.34L180.24,318s-.05,85.4.59,88.43c.64-3,.62-88.41.62-88.41Z" style="fill:#fff;opacity:0.30000000000000004"></path></g></g><g id="freepik--pie-charts--inject-41"><g id="freepik--pie-chart--inject-41"><path d="M272.75,443.13c-10.87,0-21.74-2.39-30-7.17-8.13-4.69-12.6-11-12.6-17.65s4.47-13,12.6-17.65c16.56-9.56,43.5-9.56,60,0h0c8.13,4.69,12.6,11,12.6,17.65s-4.47,13-12.6,17.65S283.63,443.13,272.75,443.13Zm0-48.56c-10.68,0-21.36,2.34-29.49,7-7.77,4.49-12.05,10.42-12.05,16.71s4.28,12.22,12.05,16.71c16.26,9.38,42.71,9.38,59,0,7.77-4.49,12.05-10.42,12.05-16.71S310,406.09,302.24,401.6h0C294.11,396.91,283.43,394.57,272.76,394.57Z" style="fill:#860065"></path><g id="freepik--pie-chart--inject-41"><path d="M273.88,409.43v7.08l-7-19v-7.07h0Z" style="fill:#263238"></path><polygon points="273.88 409.43 273.88 416.51 302.73 406.5 302.73 399.43 273.88 409.43" style="fill:#37474f"></polygon><path d="M266.89,390.43l7,19,28.85-10C294.81,392.52,281,389.06,266.89,390.43Z" style="fill:#455a64"></path><path d="M236.75,410.75a1.48,1.48,0,0,0,0,.21v-.21Z" style="fill:#860065"></path><path d="M271,418.36l-4.29,20.15c-17.48-1.71-30.11-10.55-30-20.66V411c0,10,12.61,18.78,30,20.48l2.95-13.85Z" style="fill:#860065"></path><path d="M271,418.36l-4.29,20.15c-17.48-1.71-30.11-10.55-30-20.66V411c0,10,12.61,18.78,30,20.48l2.95-13.85Z" style="opacity:0.4"></path><path d="M270,431.67v7.08a55.9,55.9,0,0,0,21.28-2.91c8.25-2.86,14.07-7.41,16.4-12.79a13,13,0,0,0,1.08-4.94c0-.67,0-7.32,0-7.32s-2-.15-4.34-2.65L299,410l-24.74,8.58Z" style="fill:#860065"></path><path d="M270,431.67v7.08a55.9,55.9,0,0,0,21.28-2.91c8.25-2.86,14.07-7.41,16.4-12.79a13,13,0,0,0,1.08-4.94c0-.67,0-7.32,0-7.32s-2-.15-4.34-2.65L299,410l-24.74,8.58Z" style="fill:#fff;opacity:0.6000000000000001"></path><polygon points="248.48 402.66 269.97 415.06 269.97 407.99 248.48 395.58 248.48 402.66" style="fill:#860065"></polygon><polygon points="248.48 402.66 269.97 415.06 269.97 407.99 248.48 395.58 248.48 402.66" style="opacity:0.1"></polygon><path d="M237,408.41c-2.35,11.06,10.87,21.19,29.71,23L271,411.29l-24.87-14.36C241,400.18,238,404,237,408.41Z" style="fill:#860065"></path><path d="M237,408.41c-2.35,11.06,10.87,21.19,29.71,23L271,411.29l-24.87-14.36C241,400.18,238,404,237,408.41Z" style="opacity:0.30000000000000004"></path><path d="M270.13,431.08l-.12.59a55.71,55.71,0,0,0,21.28-2.91c8.25-2.86,14.07-7.4,16.4-12.79,2.19-5.08,1-10.33-3.26-14.9l-5.4,1.87-24.74,8.58Z" style="fill:#860065"></path><path d="M270.13,431.08l-.12.59a55.71,55.71,0,0,0,21.28-2.91c8.25-2.86,14.07-7.4,16.4-12.79,2.19-5.08,1-10.33-3.26-14.9l-5.4,1.87-24.74,8.58Z" style="fill:#fff;opacity:0.75"></path><path d="M248.48,395.58,270,408l-6.32-17.17A44.25,44.25,0,0,0,248.48,395.58Z" style="fill:#860065"></path><polygon points="271.01 418.36 271.01 411.29 266.72 431.44 266.72 438.51 271.01 418.36" style="fill:#860065"></polygon><polygon points="271.01 418.36 271.01 411.29 266.72 431.44 266.72 438.51 271.01 418.36" style="opacity:0.55"></polygon></g></g><g id="freepik--pie-chart--inject-41"><path d="M343.32,402.4c-10.88,0-21.75-2.39-30-7.17s-12.6-11-12.6-17.66,4.47-13,12.6-17.65c16.56-9.56,43.5-9.56,60.06,0h0c8.12,4.69,12.59,11,12.59,17.65s-4.47,13-12.6,17.66S354.19,402.4,343.32,402.4Zm0-48.57c-10.68,0-21.36,2.35-29.48,7-7.78,4.49-12.06,10.42-12.06,16.7s4.28,12.22,12.06,16.71c16.25,9.38,42.7,9.38,59,0,7.77-4.49,12.05-10.42,12.05-16.71s-4.28-12.21-12.05-16.7h0C364.67,356.18,354,353.83,343.32,353.83Z" style="fill:#860065"></path><g id="freepik--pie-chart--inject-41"><path d="M378,371.61v-7.06c-13.62-7.87-44.75-10.1-58.83-2.68l24.73,14.29,26.44-3.53Z" style="fill:#860065"></path><path d="M378,371.61v-7.06c-13.62-7.87-44.75-10.1-58.83-2.68l24.73,14.29,26.44-3.53Z" style="opacity:0.1"></path><path d="M378,364.55c-1.68-3.57-4.56-6.4-9.2-9.08-13.63-7.87-35.55-8.09-49.63-.66l24.73,14.28,26.44-3.52Z" style="fill:#860065"></path><polygon points="343.89 376.15 343.89 369.09 319.15 354.81 319.15 361.87 343.89 376.15" style="fill:#860065"></polygon><polygon points="343.89 376.15 343.89 369.09 319.15 354.81 319.15 361.87 343.89 376.15" style="opacity:0.2"></polygon><path d="M351.46,397.42c9.35-1.25,17.3-4.52,22.39-9.22,3.6-3.32,5.46-7.08,5.48-10.9v-7.16l-22.28,6.22-12,1.59,1.21,19.94C348,397.81,349.67,397.66,351.46,397.42Z" style="fill:#37474f"></path><path d="M351.46,390.36c9.35-1.25,17.3-4.52,22.39-9.23,4.8-4.42,6.5-9.62,4.88-14.72l-21.68,2.88-12,1.6,1.21,19.93C348,390.74,349.67,390.6,351.46,390.36Z" style="fill:#455a64"></path><path d="M311.75,387.06l29-10.05-23.89-13.79c-4.41,2.78-9.51,6.73-9.51,6.73s0,5.73,0,7.25C307.33,380.54,308.79,383.92,311.75,387.06Z" style="fill:#860065"></path><path d="M311.75,387.06l29-10.05-23.89-13.79c-4.41,2.78-9.51,6.73-9.51,6.73s0,5.73,0,7.25C307.33,380.54,308.79,383.92,311.75,387.06Z" style="opacity:0.4"></path><path d="M311.75,380l29-10.05-23.89-13.79C306.32,362.76,304.33,372.13,311.75,380Z" style="fill:#860065"></path><path d="M311.75,380l29-10.05-23.89-13.79C306.32,362.76,304.33,372.13,311.75,380Z" style="opacity:0.30000000000000004"></path><polygon points="311.75 387.06 311.75 380 340.71 369.95 340.71 377.01 311.75 387.06" style="fill:#860065"></polygon><polygon points="311.75 387.06 311.75 380 340.71 369.95 340.71 377.01 311.75 387.06" style="opacity:0.55"></polygon><path d="M343,398v-7.06l-1.16-12-28.37,2.78v7.07C320.16,394.58,330.78,397.91,343,398Z" style="fill:#860065"></path><path d="M343,398v-7.06l-1.16-12-28.37,2.78v7.07C320.16,394.58,330.78,397.91,343,398Z" style="fill:#fff;opacity:0.6000000000000001"></path><path d="M343,390.89l-1.16-19.1-21.48,7.45-6.89,2.39C320.16,387.52,330.78,390.84,343,390.89Z" style="fill:#860065"></path><path d="M343,390.89l-1.16-19.1-21.48,7.45-6.89,2.39C320.16,387.52,330.78,390.84,343,390.89Z" style="fill:#fff;opacity:0.75"></path><polygon points="345.07 370.89 345.07 377.95 346.28 397.89 346.28 390.82 345.07 370.89" style="fill:#263238"></polygon></g></g><g id="freepik--pie-chart--inject-41"><path d="M413.87,361.67c-10.87,0-21.74-2.39-30-7.17s-12.6-11-12.6-17.66,4.47-13,12.6-17.65c16.56-9.56,43.5-9.56,60,0h0c8.13,4.69,12.6,11,12.6,17.65s-4.47,13-12.6,17.66S424.75,361.67,413.87,361.67Zm0-48.57c-10.67,0-21.35,2.35-29.48,7-7.77,4.49-12.05,10.42-12.05,16.7s4.28,12.22,12.05,16.71c16.26,9.38,42.71,9.38,59,0,7.77-4.49,12.05-10.42,12.05-16.71s-4.28-12.21-12.05-16.7h0C435.23,315.45,424.55,313.1,413.87,313.1Z" style="fill:#860065"></path><g id="freepik--pie-chart--inject-41"><path d="M389.7,314.09l22.43,13L411,308.74C402.78,309.09,395.78,310.85,389.7,314.09Z" style="fill:#860065"></path><polygon points="412.13 327.04 412.13 334.1 389.7 321.15 389.7 314.09 412.13 327.04" style="fill:#860065"></polygon><polygon points="412.13 327.04 412.13 334.1 389.7 321.15 389.7 314.09 412.13 327.04" style="opacity:0.2"></polygon><polygon points="441.2 315.91 415.46 327.52 415.46 334.58 441.2 322.97 441.2 315.91" style="fill:#37474f"></polygon><path d="M441.2,315.91c-6.93-4.72-16.16-7.21-26.88-7.24l.7,11.44.44,7.41Z" style="fill:#455a64"></path><polygon points="414.32 308.67 414.32 315.73 415.46 334.58 415.46 327.52 414.32 308.67" style="fill:#263238"></polygon><path d="M420.68,341.12l13.15,12.64c.74-.28,1.43-.57,2.22-.93,9.07-4.08,13.81-10.2,13.8-16.37v-7c-1-2.66-3.74-2.66-6.62-5L416.36,336.6l-.27.12Z" style="fill:#860065"></path><path d="M420.68,341.12l13.15,12.64c.74-.28,1.43-.57,2.22-.93,9.07-4.08,13.81-10.2,13.8-16.37v-7c-1-2.66-3.74-2.66-6.62-5L416.36,336.6l-.27.12Z" style="fill:#fff;opacity:0.6000000000000001"></path><path d="M420.68,334.06l13.15,12.64c.74-.28,1.43-.57,2.22-.93,15.18-6.84,18.23-19.38,7.18-28.36l-26.87,12.12-.27.12Z" style="fill:#860065"></path><path d="M420.68,334.06l13.15,12.64c.74-.28,1.43-.57,2.22-.93,15.18-6.84,18.23-19.38,7.18-28.36l-26.87,12.12-.27.12Z" style="fill:#fff;opacity:0.75"></path><polygon points="433.83 353.76 433.83 346.7 416.09 329.65 416.09 336.72 433.83 353.76" style="fill:#860065"></polygon><polygon points="433.83 353.76 433.83 346.7 416.09 329.65 416.09 336.72 433.83 353.76" style="fill:#fff;opacity:0.4"></polygon><path d="M387.37,322.5c-3.78,2.38-8,3.88-9.51,6.78v7.07c0,3.68,1.71,7.41,5.26,10.82,4.95,4.75,12.8,8.11,22.11,9.45A59.5,59.5,0,0,0,431,354.74v-7.06l-11.58-4.07-6.8-6.53Z" style="fill:#860065"></path><path d="M387.37,322.5c-3.78,2.38-8,3.88-9.51,6.78v7.07c0,3.68,1.71,7.41,5.26,10.82,4.95,4.75,12.8,8.11,22.11,9.45A59.5,59.5,0,0,0,431,354.74v-7.06l-11.58-4.07-6.8-6.53Z" style="opacity:0.4"></path><path d="M387.37,315.44c-10.86,6.84-12.61,16.63-4.25,24.67,4.95,4.75,12.8,8.1,22.11,9.44A59.35,59.35,0,0,0,431,347.68l-11.58-11.13-6.8-6.54Z" style="fill:#860065"></path><path d="M387.37,315.44c-10.86,6.84-12.61,16.63-4.25,24.67,4.95,4.75,12.8,8.1,22.11,9.44A59.35,59.35,0,0,0,431,347.68l-11.58-11.13-6.8-6.54Z" style="opacity:0.30000000000000004"></path></g></g></g><g id="freepik--magnifying-glass--inject-41"><g id="freepik--Glass--inject-41"><path d="M61.28,224.53h0a3.18,3.18,0,0,1,1.86-2.61,10,10,0,0,1,9,0,3.18,3.18,0,0,1,1.88,2.6h0l2.68,66.42h0c.1,1.39-.76,2.79-2.59,3.85a13.93,13.93,0,0,1-12.62,0c-1.83-1.05-2.69-2.44-2.61-3.83h0Z" style="fill:#455a64"></path><path d="M72.17,221.9c2.5,1.44,2.51,3.77,0,5.22a10,10,0,0,1-9,0c-2.5-1.44-2.51-3.77,0-5.22A10,10,0,0,1,72.17,221.9Z" style="fill:#37474f"></path><path d="M64.89,206.68a6,6,0,0,1,5.46,0,1.91,1.91,0,0,1,1.13,1.58h0l0,16.26h0a1.94,1.94,0,0,1-1.13,1.58,6,6,0,0,1-5.46,0,1.92,1.92,0,0,1-1.14-1.57l0-16.27h0A1.92,1.92,0,0,1,64.89,206.68Z" style="fill:#860065"></path><path d="M64.89,206.68a6,6,0,0,1,5.46,0,1.91,1.91,0,0,1,1.13,1.58h0l0,16.26h0a1.94,1.94,0,0,1-1.13,1.58,6,6,0,0,1-5.46,0,1.92,1.92,0,0,1-1.14-1.57l0-16.27h0A1.92,1.92,0,0,1,64.89,206.68Z" style="opacity:0.2"></path><path d="M63.78,217.3l.62.08h.35a11.52,11.52,0,0,0,1.17.09,14.24,14.24,0,0,0,1.46,0,11.24,11.24,0,0,0,1.29-.06,4.91,4.91,0,0,0,.67-.08,4.55,4.55,0,0,0,.73-.09,6.13,6.13,0,0,0,.73-.11,5,5,0,0,0,.53-.11l.17,0,0-8.77h0a1.91,1.91,0,0,0-1.13-1.58,4.82,4.82,0,0,0-1-.39,26.15,26.15,0,0,1-5.63,3.65Z" style="opacity:0.2"></path><path d="M69.53,228l1.86,67.81a11.11,11.11,0,0,0,2.74-1.08c1.83-1.06,2.69-2.46,2.59-3.85h0l-2.68-66.41a3.18,3.18,0,0,1-1.86,2.61A8.54,8.54,0,0,1,69.53,228Z" style="opacity:0.15"></path><path d="M113,140.35c0-.46,0-.9-.07-1.35s0-.87-.09-1.31c0-.29-.06-.58-.1-.87-.07-.75-.18-1.5-.3-2.21l-.18-1c-.06-.32-.13-.61-.19-.91-.19-.83-.39-1.63-.63-2.4-.12-.37-.23-.73-.35-1.09a.49.49,0,0,1-.06-.17c-.13-.35-.25-.7-.39-1s-.31-.78-.49-1.15a8.59,8.59,0,0,0-.39-.81,4.41,4.41,0,0,0-.28-.58c-.12-.23-.24-.47-.37-.69l-.09-.15c-.11-.2-.24-.4-.36-.6s-.16-.26-.24-.38a19.31,19.31,0,0,0-1.92-2.55l-.35-.4c-.1-.12-.2-.21-.31-.32s-.25-.25-.39-.39a11,11,0,0,0-1.15-1c-.19-.17-.39-.32-.59-.47s-.4-.3-.61-.44a11.19,11.19,0,0,0-1-.65l-.27-.17,0,0h0l-6.22-3.66h0l-.09,0A19.77,19.77,0,0,0,85.55,111c-5.16,0-11,1.69-17.18,5.26C47.16,128.5,30,158.3,30,182.81c0,12.22,4.28,20.82,11.19,24.85l.06,0h0l6.24,3.65s0,0,0,0l.07,0h0l.09.05.1.05a9.84,9.84,0,0,0,.91.48c.38.19.77.36,1.16.51a9.58,9.58,0,0,0,1.06.39,5.18,5.18,0,0,0,.56.17,6.13,6.13,0,0,0,.61.18c.21.06.41.11.62.15a2.63,2.63,0,0,0,.47.1c.26.06.55.11.83.15a.58.58,0,0,0,.19,0l1,.14c5.72.6,12.38-1,19.5-5.13,21.23-12.25,38.44-42.06,38.44-66.56C113.06,141.51,113.05,140.93,113,140.35ZM43,198.18a37.56,37.56,0,0,1-1.3-10.06c0-23.22,17-52.66,37.11-64.27a35.75,35.75,0,0,1,9.41-3.9,20.62,20.62,0,0,1,4.84-.61,14.79,14.79,0,0,1,2.46.19l.06,0c4.12,4.86,4.73,12.67,4.73,16.84,0,23.22-17,52.66-37.1,64.26-5.12,3-10,4.52-14.26,4.52a9.44,9.44,0,0,1-2.59-.34h0A18.3,18.3,0,0,1,43,198.18Z" style="fill:#37474f"></path><path d="M107.53,140.45c0,12.34-4.79,26.42-12.3,38.67-.36.58-.72,1.15-1.09,1.72s-.63,1-1,1.47c-.71,1.05-1.42,2.08-2.17,3.09q-.53.73-1.08,1.44c-.39.51-.79,1-1.2,1.54-.77,1-1.57,1.92-2.38,2.85-.53.62-1.08,1.22-1.63,1.81a62.41,62.41,0,0,1-14.29,11.67c-1,.56-1.91,1.06-2.85,1.52a28.47,28.47,0,0,1-9.78,2.92c-.55,0-1.1.08-1.62.08q-.42,0-.81,0h0a12.39,12.39,0,0,1-1.53-.15l-.73-.13a5.53,5.53,0,0,1-.7-.18,11.15,11.15,0,0,1-6-3.9,9.51,9.51,0,0,0,2.59.33c4.22,0,9.14-1.55,14.26-4.51,20.12-11.6,37.09-41,37.09-64.26,0-4.17-.6-12-4.72-16.85l-.07,0c5.25.84,8.23,4.41,9.91,8.53a23.53,23.53,0,0,1,1.15,3.6,1.94,1.94,0,0,0,.05.2c0,.22.1.45.14.67s.09.43.13.65l0,.16c0,.24.09.47.12.7.14.86.24,1.7.32,2.5,0,.24,0,.46,0,.68s0,.34,0,.5v.21c0,.18,0,.35,0,.53v.15c0,.22,0,.44,0,.65C107.53,139.68,107.53,140.08,107.53,140.45Z" style="opacity:0.25"></path><path d="M46.9,211l-5.76-3.39C34.22,203.61,30,195,30,182.82c0-10.93,3.43-22.91,9.09-33.91l6.58,3.78c-5.68,11-9.44,22.85-9.44,33.78C36.18,198.42,40.25,206.9,46.9,211Z" style="fill:#263238"></path><path d="M101.86,117.26l0-.05h0l-6.22-3.66h0l-.09,0A19.75,19.75,0,0,0,85.55,111c-5.16,0-11,1.69-17.18,5.25-11.76,6.8-22.28,19-29.33,32.67l6.54,3.85c0,.09-.09.18-.14.27,7.07-13.54,17.54-25.79,29.18-33.12,10.53-6.64,20.52-6.73,27.5-2.49Z" style="fill:#455a64"></path><path d="M104.19,138.48c0,23.22-17,52.66-37.11,64.27a35.75,35.75,0,0,1-9.41,3.9,20.62,20.62,0,0,1-4.84.61,13.73,13.73,0,0,1-4.92-.84A16.57,16.57,0,0,1,43,198.18a37.56,37.56,0,0,1-1.3-10.06c0-23.22,17-52.66,37.11-64.27a35.75,35.75,0,0,1,9.41-3.9,20.62,20.62,0,0,1,4.84-.61,13.73,13.73,0,0,1,4.92.84,16.53,16.53,0,0,1,4.91,8.24A37.56,37.56,0,0,1,104.19,138.48Z" style="fill:#860065;opacity:0.1"></path><path d="M52.83,207.26a20.62,20.62,0,0,0,4.84-.61,35.75,35.75,0,0,0,9.41-3.9c20.12-11.61,37.11-41.05,37.11-64.27a37.56,37.56,0,0,0-1.3-10.06A16.53,16.53,0,0,0,98,120.19l-.24-.08-.67-.22-.4-.11c-.23-.06-.46-.11-.7-.15l-.41-.09h0c4.12,4.87,4.72,12.68,4.72,16.85,0,23.22-17,52.66-37.09,64.26-5.12,3-10,4.51-14.26,4.51a9.51,9.51,0,0,1-2.59-.33l0,0a11.49,11.49,0,0,0,1.51,1.53A13.73,13.73,0,0,0,52.83,207.26Z" style="fill:#fff;opacity:0.30000000000000004"></path></g></g><g id="freepik--Character--inject-41"><g id="freepik--character--inject-41"><g id="freepik--character--inject-41"><g id="freepik--character--inject-41"><path d="M241.46,221.67a4.86,4.86,0,0,1,3.28.58,15,15,0,0,1,2.55,5.33c.74,2.67,1.08,3.73,2.79,5a18.89,18.89,0,0,1,5.48,6,18.39,18.39,0,0,1,2.3,11.8c-.63,4.74-2.57,6.61-4.35,7.49a8.46,8.46,0,0,1-3.34.6Z" style="fill:#263238"></path><path d="M232.72,221.19l.95.87a14,14,0,0,1,1.58,1.39c2,2.18,1.65,7,1.52,8.32a3,3,0,0,0-2.36.66c-1.55,1.1-4.08,3.25-3.87,4.12s4.47,2.74,8.5,7.72a39.42,39.42,0,0,1,5.56,9.25c1.12,2.29,3.31,6,6.87,4.69,1.85-.64,5.8-4.91,4.75-12.88-1-7.46-4.88-10.21-7.52-12.14s-2.93-4-4.39-7.61c-.64-1.59-1.07-2.85-2.85-3.91-2.35-.68-4.69-.06-6.42-.24C233.63,221.28,233.12,220.45,232.72,221.19Z" style="fill:#37474f"></path><path d="M237.32,169.84a4.8,4.8,0,0,1-2.9,2.67c-8,2.65-18.33,6-28.1,10.17-12.12,5.19-15.7,8.25-18.64,13.51-1.79,3.22-1.56,7.66-.58,10.71s3.45,7.31,9.68,10.8c12.38,6.94,19.56,11.21,27.07,14.77,0,0,6.68-7.14,7.39-13.31l-10.91-9.95,25.76-12.14,33-29.93Z" style="fill:#455a64"></path><path d="M219.88,207.48a15.88,15.88,0,0,0-6.56,9.94c-.44,2.07-1.07,5.67-1.57,8.71,4.44,2.44,8.25,4.51,12.1,6.34,0,0,6.68-7.14,7.39-13.31l-10.91-9.95,1.5-.7Z" style="fill:#37474f"></path><path d="M246.09,197.07,239,175.16l-3.6,5.45a28.5,28.5,0,0,0,2.74,10.57s-12,9.21-13.42,10.09c-5.32,3.31-6,2.85-9,.7a12.11,12.11,0,0,0-11.05-1.72c7.44-.53,9.27,2.55,15.73,9l25.76-12.14Z" style="fill:#37474f"></path><path d="M212.09,281c0,2.39.88,5.94-.48,8.68a8,8,0,0,1-4.57,4A10.31,10.31,0,0,0,204.1,295c-1,.84-2,1.69-3,2.52a35.6,35.6,0,0,0-4.28,3.44c-3.49,3.73-9,4.89-14,4.53a18.07,18.07,0,0,1-7.09-1.79c-1.59-.78-3.51-2.29-3.5-4.23s1.53-2.72,3-3.78a41,41,0,0,1,6-3.35,31.06,31.06,0,0,0,6.07-3.8c1.94-1.7,7.38-5,10.69-12.13,1.51-3.26,6.51-17.84,6.51-17.84l17.69,5.3S212.1,278.6,212.09,281Z" style="fill:#ffbda7"></path><path d="M212.16,290.41a5.37,5.37,0,0,1-.69,3.58,16.46,16.46,0,0,1-5.88,2.68c-2.93.76-4.1,1.12-5.49,3a16.67,16.67,0,0,1-5.94,5.61A19.6,19.6,0,0,1,179,307.07c-4.67-1.19-6.24-3.72-6.59-4.42a5.31,5.31,0,0,1-.37-3.1Z" style="fill:#263238"></path><path d="M212.57,279.48a17.94,17.94,0,0,0-.68,1.86,4.19,4.19,0,0,1-1.63,2.07c-2.42,1.64-5.86,1.6-7.28,1.43a2.94,2.94,0,0,0-1.63-3.1c-2.81-1.41-5.48-2.32-6.39-1.94-2.1.88-.48,1.72-7,7.13a59,59,0,0,1-11,7.36c-2.44,1.36-5.79,3.62-4.74,6.36.67,2,5.23,6.31,13.66,5.57,7.78-.68,11.39-5.26,13.55-8.1s4.39-3.18,8.39-4.72c1.75-.67,3.13-1.06,4.33-3,.78-2.55.35-6,.58-7.92C212.93,281,213.36,279.94,212.57,279.48Z" style="fill:#37474f"></path><path d="M234.36,174.52l5-5L287,175.8c.08,4.75-.88,14.86-2.78,19.94-1.74,4.65-4,9.62-15,15.52S245,223.12,242.32,224.62c-3.85,2.18-3.75,2.27-4.66,9.08-.93,7-4.27,14.85-8.93,21.85-3.65,5.48-14,22.8-14,22.8-6.81,1.35-12.36-2.57-15.42-6.32,0,0,13.9-44,15.31-51.26.79-4.05,1.57-7.69,6.42-12.27,4.16-3.92,20.29-17.67,20.29-17.67S234.91,185.19,234.36,174.52Z" style="fill:#455a64"></path><path d="M278.88,179.87c.52,10.1.83,16.2-12.95,23.24-4.15,2.12-8.47,4.13-12.64,6.08-12.38,5.79-20.81,12.07-21.47,16.67-.25,1.75-.39,3.84-.56,6.27-.4,5.72-.73,10.46-5.44,19.52-3.29,6.3-10.14,19.29-13.57,24.56l1.26.13c3.34-5.35,9.66-17,13.28-24.06,4.83-9.4,5.2-14.3,5.6-20.08.17-2.39.32-4.47.56-6.18.57-4,9.72-10.61,20.82-15.8,4.18-1.95,8.51-4,12.68-6.1,14.44-7.37,14.09-14.11,13.56-24.3,0-1-.09-2-.13-3l-1.15-.22C278.77,177.72,278.82,178.82,278.88,179.87Z" style="fill:#37474f"></path><path d="M270.29,201.73c-.17-.13-4.24-3.18-2.35-10.53A42.16,42.16,0,0,0,269.27,174l1.13-.11A43.42,43.42,0,0,1,269,191.48c-1.69,6.61,1.88,9.3,1.92,9.32Z" style="fill:#37474f"></path><path d="M200.88,267c1.67,2.82,11.79,8.33,16.78,6.65l-2.91,5c-3.7,1.7-12-1.62-16-5.84Z" style="fill:#37474f"></path><g id="freepik--Top--inject-41"><g id="freepik--Arm--inject-41"><path id="freepik--arm--inject-41" d="M250.16,112.36c-8.36,0-13.28,3.63-13.28,10.63,0,6.07,2.27,25,2.27,25l-12.5,9.84,7.22,8.65s12.34-6.26,16.61-8.59c6.51-3.56,5.69-4.92,5.16-13.16S250.16,112.36,250.16,112.36Z" style="fill:#ebebeb"></path><path d="M229,156l4.28-3.36a12.8,12.8,0,0,1,4.86,5.45,13.27,13.27,0,0,1,1.23,5.61l-4.55,2.32S234.11,158.78,229,156Z" style="fill:#e0e0e0"></path></g><path id="freepik--Chest--inject-41" d="M262.45,112.34c7.06.48,10.16,1.87,18.64,3.65,2,1.85,5,9.68,5.94,19.5,1.17,12.8,1.24,17.74.9,33.38a117.34,117.34,0,0,1-1.27,16.36c-12.56,7.59-44.42,3.48-53.4-12.44,2.23-3.38,3.2-14,3.68-37.37.29-13.73,8-22.89,13.34-23.07C252.93,112.29,257.92,112,262.45,112.34Z" style="fill:#f5f5f5"></path><g id="freepik--Head--inject-41"><path d="M242.29,87.26a7.74,7.74,0,0,1-3.06-3.66,12.16,12.16,0,0,1-.87-5.3,6,6,0,0,1,.44-1.84,2.66,2.66,0,0,1,2-1c.49-.09,1-.16,1.47-.23A9.6,9.6,0,0,1,240,72.09a5,5,0,0,1-.24-2.87,1.46,1.46,0,0,1,.3-.71,1.66,1.66,0,0,1,1.66-.26,32.26,32.26,0,0,0,10.54.54c2.79-.23,4.18-.6,8-1.06s10.72,1.12,12.09,8.32c5.16.72,6,9,4.66,12.53-2.54,6.51-5,10.83-6.26,15.51-.27-.18-17.75-9.7-21.77-12.39l-4.52-3C243.69,88.18,243,87.74,242.29,87.26Z" style="fill:#263238"></path><path d="M275.58,99.19c-3,2.38-5,.24-5,.24l.5,14.71c-1.54,2.12-8.08,3.56-11.06,5.51-1.15.75-3,3.74-4.93,5.88-1.12-2.44-3.54-8.29-.18-12.34l-.08-2.81a25.26,25.26,0,0,1-4.7-.07,7.77,7.77,0,0,1-2.76-.93,8.41,8.41,0,0,1-3.88-4.9,41,41,0,0,1-1.77-11.15c-.15-4.54.13-10.42,1.54-13.5,2.64-2.48,10.72-3,17.57-1.22.18,1.69,0,3.18,1.46,5a7.26,7.26,0,0,0,2.66,2c.29,3.29.45,4.18,1.1,5.62.37.82,1.08,2.06,2.74,1.4.78-.31,1.31-2.08,2.1-3.27,1-1.6,4.49-2.44,6.27.9A7.45,7.45,0,0,1,275.58,99.19Z" style="fill:#ffbda7"></path><path d="M254.79,110.38c3.42-.45,9.5-1.94,11.2-4.09s2.93-7,2.93-7-.51,5.46-1.78,7.86-4.21,3.45-6.35,4.17a37.53,37.53,0,0,1-5.94,1.17Z" style="fill:#f0997a"></path><path d="M255.65,87.58l3.49-.78a1.88,1.88,0,0,0-2.2-1.39A1.75,1.75,0,0,0,255.65,87.58Z" style="fill:#263238"></path><path d="M247.19,86.11l-2.84,2.18a1.87,1.87,0,0,1,.35-2.57A1.74,1.74,0,0,1,247.19,86.11Z" style="fill:#263238"></path><path d="M256.54,100.2l-3.69,1.55a2.1,2.1,0,0,0,2.69,1.1A2,2,0,0,0,256.54,100.2Z" style="fill:#b16668"></path><path d="M256.45,101a2,2,0,0,0-1.89,2,2.07,2.07,0,0,0,1-.13,1.94,1.94,0,0,0,1.19-1.84Z" style="fill:#ffa8a7"></path><polygon points="253.05 88.5 252.3 99.26 246.68 97.1 253.05 88.5" style="fill:#f0997a"></polygon><path d="M258.83,90.67a1.47,1.47,0,1,1-1.53-1.39A1.47,1.47,0,0,1,258.83,90.67Z" style="fill:#263238"></path><path d="M247.85,91.06a1.46,1.46,0,0,1-1.47,1.46A1.48,1.48,0,0,1,244.92,91a1.46,1.46,0,0,1,1.48-1.45A1.45,1.45,0,0,1,247.85,91.06Z" style="fill:#263238"></path></g><g id="freepik--Laptop--inject-41"><path d="M267.56,191.89l0,.89a2.54,2.54,0,0,1-1.22,2.21l-23.75,14.36a2.55,2.55,0,0,1-1.25.36,2.49,2.49,0,0,1-1.27-.31l-44.66-24.52a2.54,2.54,0,0,1-1.31-2.16v-.61L241.32,208Z" style="fill:#ebebeb"></path><path d="M194.11,182.11l25.83-15.66a1.53,1.53,0,0,1,1.51,0l45.93,25.23a.33.33,0,0,1,0,.58L241.32,208Z" style="fill:#fafafa"></path><polygon points="241.51 205.81 255.45 197.37 213.69 174.44 199.68 182.83 241.51 205.81" style="fill:#e0e0e0"></polygon><polygon points="247.96 183.03 247.71 183.18 240.88 187.32 228.43 180.48 228.17 180.34 235.26 176.05 247.96 183.03" style="fill:#e0e0e0"></polygon><polygon points="247.71 183.18 240.88 187.32 228.43 180.48 235.26 176.34 247.71 183.18" style="fill:#e6e6e6"></polygon><path d="M241.32,208l0,1.68a2.49,2.49,0,0,1-1.27-.31l-44.66-24.52a2.54,2.54,0,0,1-1.31-2.16v-.61Z" style="fill:#ebebeb"></path><g style="opacity:0.5;mix-blend-mode:multiply"><path d="M241.32,208l0,1.68a2.49,2.49,0,0,1-1.27-.31l-44.66-24.52a2.54,2.54,0,0,1-1.31-2.16v-.61Z" style="fill:#e0e0e0"></path></g><path d="M229.37,155.74a27.41,27.41,0,0,1-7.89,4.64c-5.41,1.94-6.53,1.9-10.77,5.15a37,37,0,0,0-4.11,3.9c-1.23,2.18-3,4-4.35,6.13-1.12,1.24.27,1.6,1.36,1.42,3-.64,4.79-3.52,7.21-5.11a10.4,10.4,0,0,0,.22,3c.18.81.23,1.82,1.06,2.24a6.27,6.27,0,0,0,1.83.31,1.26,1.26,0,0,0,.51.7,2.12,2.12,0,0,0,1.51,0,6.49,6.49,0,0,0,.78-.31,1.52,1.52,0,0,0,1.17.95,6.73,6.73,0,0,0,3.44-.66c.15-.11,1.26-1.09,1.59-1.37s.92-.67,1.07-1.07-.81-1.27-1.49-1.22a6.53,6.53,0,0,0-2.14.64,7.92,7.92,0,0,0,.21-2c.37-1.08,4.88-.52,8.52-2,2.75-1.16,3.48-3.93,4.77-4.59l1.15-.58C235,160.93,232.64,157.35,229.37,155.74Z" style="fill:#ffbda7"></path><path d="M240.62,208.42a3,3,0,0,1-2.58-.14l-44.46-24.42a3,3,0,0,1-1.5-2.06l-5.42-28.57a2.63,2.63,0,0,1,0-.49,2.94,2.94,0,0,1,.84-2.14L233.65,176a2.22,2.22,0,0,1,1.11,1.52Z" style="fill:#860065"></path><g style="opacity:0.7000000000000001"><path d="M240.62,208.42a3,3,0,0,1-2.58-.14l-44.46-24.42a3,3,0,0,1-1.5-2.06l-5.42-28.57a2.63,2.63,0,0,1,0-.49,2.94,2.94,0,0,1,.84-2.14L233.65,176a2.22,2.22,0,0,1,1.11,1.52Z" style="fill:#fff"></path></g><path d="M241.32,208l-.3.18a3,3,0,0,1-.4.21l-5.86-30.92a2.22,2.22,0,0,0-1.11-1.52l-46.2-25.38a2.88,2.88,0,0,1,.6-.48l46.29,25.43a2.19,2.19,0,0,1,1.11,1.52Z" style="fill:#fafafa"></path><path d="M215.32,182.48c-.37-1.91-2.4-4.42-4.55-5.6s-3.6-.59-3.24,1.33,2.4,4.42,4.55,5.6S215.68,184.39,215.32,182.48Z" style="fill:#860065"></path></g><g id="freepik--arm--inject-41"><path d="M303.1,156.38c-2.61-11.08-7.24-23.68-10.2-31.94-1.58-4.38-4-6.21-10.92-8-4.84,7.13-3.53,18.28-1.78,22.4l6.65,18.7s-6.05,5.57-11.75,9.81c-4.82,3.57-7.3,5.64-13,5.6-6.64,0-7.57.21-10.54,1.53-1.58.69-5.66,3-7.25,3.87-1.21.65-3.43,3-5.47,4.5s.47,2.21,2,1.76a22.55,22.55,0,0,0,4.89-2.29,26.48,26.48,0,0,1,3.84-1.49,23.07,23.07,0,0,0-.79,4.5c0,.82-.17,1.81.54,2.41a6.35,6.35,0,0,0,1.73.7,1.2,1.2,0,0,0,.34.79,2,2,0,0,0,1.46.37,6.15,6.15,0,0,0,.84-.13,1.5,1.5,0,0,0,.93,1.18,6.6,6.6,0,0,0,3.5.1c.17-.07,1.47-.78,1.85-1a3.41,3.41,0,0,0,1.28-.82c.29-.42-.52-1.41-1.19-1.51a6.7,6.7,0,0,0-2.23.16,7.68,7.68,0,0,0,.64-1.93c.61-1,5,0,8.88-.7,2.94-.53,5.05-3.33,6.37-3.93,8.44-3.86,14.89-6.57,23.4-11.77C304.85,164.5,304.51,162.34,303.1,156.38Z" style="fill:#ffbda7"></path><path d="M248.77,181.07c.44-1.12,1.13-2.44,2-2.75a10.26,10.26,0,0,0-1.22,2.48Z" style="fill:#f0997a"></path><path d="M251,188.41a8.9,8.9,0,0,1-.09-2.42,21.26,21.26,0,0,1,.3-2.4,10.24,10.24,0,0,1,.64-2.35,4.4,4.4,0,0,1,1.44-2,3.59,3.59,0,0,0-.66,1,7.36,7.36,0,0,0-.45,1.09,19.37,19.37,0,0,0-.52,2.31c-.14.79-.27,1.57-.4,2.36A19,19,0,0,0,251,188.41Z" style="fill:#f0997a"></path><path d="M253.64,189.44a11.14,11.14,0,0,1,0-2.38,18.76,18.76,0,0,1,.35-2.35,15.35,15.35,0,0,1,.63-2.3,4.52,4.52,0,0,1,1.21-2,2.89,2.89,0,0,0-.53,1c-.13.37-.24.74-.34,1.12-.19.75-.37,1.52-.52,2.28C254.11,186.34,253.81,187.87,253.64,189.44Z" style="fill:#f0997a"></path><path d="M260,187.41a4.13,4.13,0,0,0-1,.14c-.32.08-.54.24-.94.37l.16-.26a1,1,0,0,1-.06.47,1.21,1.21,0,0,1-.22.37,1.34,1.34,0,0,1-.67.44,3.54,3.54,0,0,0,.4-.61,1.21,1.21,0,0,0,.09-.31.92.92,0,0,0,0-.27l0-.18.19-.08a2.56,2.56,0,0,1,.92-.2A2,2,0,0,1,260,187.41Z" style="fill:#f0997a"></path><path d="M281.09,116c2.61.42,7.8.89,10.57,4.94s4.28,9.23,6.51,16.07,5.68,18.43,6.43,22.09,0,5.71-3.3,8-13,7.9-17.8,9.45a14.64,14.64,0,0,0-3.3-7.15,15.1,15.1,0,0,0-3.67-3.21l9.9-8.72s-6.38-18.27-7.48-21S276.42,123.06,281.09,116Z" style="fill:#ebebeb"></path><path d="M277.84,165.08l-4.65,3.65a15.65,15.65,0,0,1,4.44,4.49,11.83,11.83,0,0,1,2,5.1l6-2.52S284.82,166.72,277.84,165.08Z" style="fill:#e0e0e0"></path></g><g id="freepik--Tie--inject-41"><path d="M255.05,125.53a43.33,43.33,0,0,0,3.68-6.5c1-2,4.38-2.43,7.86-4.61a12.26,12.26,0,0,0,4.31-4.31l-.08-2.26c1.22,0,1.24,1,1.78,2.25s2.37,4.15,3.81,4.55c-1.54,4.33-6.81,9.43-12.51,11.79-2-4.53-4.12-5.86-4.79-5C257.49,123.39,256.64,124.61,255.05,125.53Z" style="fill:#e6e6e6"></path><path d="M255.05,125.53c-.77-1.84-.59-4.85-1.08-7.72-.18-1.1.9-4.62.9-4.62l-.08-2.81-1.68.08a7.36,7.36,0,0,1-1.51,1.85c-2.12,1.87-3.74,8.18-3,10.72.68-2.34,2.48-4,3.53-3.56S253.64,124.11,255.05,125.53Z" style="fill:#e6e6e6"></path><path d="M256.26,130c0,5.75.66,20.78,1.17,25,.4,3.35-4.37,10.8-5.8,11-.87.13-4.94-6.56-5.13-11.32-.17-4.33,3.48-18.89,6.2-25.49A1.87,1.87,0,0,1,256.26,130Z" style="fill:#860065"></path><path d="M253.06,123.8c-1-1.29-.68-4.15-.68-4.15-.55-.65-1.88,0-2.75,1.27,0,0,.38,4,2.75,5.85Z" style="fill:#860065"></path><path d="M252.38,126.77l.68-3a2.91,2.91,0,0,1-.2-.35h0A2.88,2.88,0,0,0,251.6,126,5.17,5.17,0,0,0,252.38,126.77Z" style="opacity:0.15"></path><path d="M252.38,119.65c-.55-.65-1.88,0-2.75,1.27a10.77,10.77,0,0,0,.29,1.55c.41-1.13,1.38-2.26,2-2.11a1.33,1.33,0,0,1,.46.23C252.34,120,252.38,119.65,252.38,119.65Z" style="opacity:0.15"></path><path d="M257.18,124.81c1.54-.76,3.23-3.35,3.23-3.35a9.55,9.55,0,0,1,2.58,3.17,13.17,13.17,0,0,1-5.19,2.44Z" style="fill:#860065"></path><path d="M260.41,121.46,260,122a9.35,9.35,0,0,1,2.25,3.16,7.7,7.7,0,0,0,.7-.52A9.55,9.55,0,0,0,260.41,121.46Z" style="opacity:0.15"></path><path d="M255.13,123.64c-2.33-.45-2.59.74-3,1.89-.28.72-.08,3.05.6,3.71a3.76,3.76,0,0,1,3.56.75c.9-.9,1.81-2.5,1.66-3.48A3.36,3.36,0,0,0,255.13,123.64Z" style="fill:#860065"></path><path d="M256.26,130c.9-.9,1.81-2.5,1.66-3.48a3.42,3.42,0,0,0-1.42-2.31,3.48,3.48,0,0,1,.25,3.59c-.65.83-.95.69-1.89.58s-2.16.49-2.16.87A3.76,3.76,0,0,1,256.26,130Z" style="opacity:0.15"></path></g></g></g></g></g></g><g id="freepik--curve-chart--inject-41"><g id="freepik--speech-bubble--inject-41"><path d="M222,130.35c-13.93,0-21.29-7.08-21.29-20.49h.72c0,12.93,7.11,19.77,20.57,19.77Z" style="fill:#860065"></path><path d="M222,130.35c-13.93,0-21.29-7.08-21.29-20.49h.72c0,12.93,7.11,19.77,20.57,19.77Z" style="fill:#fff;opacity:0.8"></path><path d="M134,148.42a1.07,1.07,0,0,1-.48-1V82.15A2.73,2.73,0,0,1,134.79,80l77-44.43a1.06,1.06,0,0,1,1.08-.07,1.07,1.07,0,0,1,.48,1v65.29a2.73,2.73,0,0,1-1.25,2.16l-77,44.43a1.38,1.38,0,0,1-.65.19A.92.92,0,0,1,134,148.42Zm78-112.31-77,44.43a2.07,2.07,0,0,0-.93,1.61v65.29a.36.36,0,0,0,.62.35l77-44.43a2.1,2.1,0,0,0,.93-1.61V36.46a.5.5,0,0,0-.16-.43.28.28,0,0,0-.13,0A.71.71,0,0,0,212.06,36.11Z" style="fill:#860065"></path><path d="M134,148.42a1.07,1.07,0,0,1-.48-1V82.15A2.73,2.73,0,0,1,134.79,80l77-44.43a1.06,1.06,0,0,1,1.08-.07,1.07,1.07,0,0,1,.48,1v65.29a2.73,2.73,0,0,1-1.25,2.16l-77,44.43a1.38,1.38,0,0,1-.65.19A.92.92,0,0,1,134,148.42Zm78-112.31-77,44.43a2.07,2.07,0,0,0-.93,1.61v65.29a.36.36,0,0,0,.62.35l77-44.43a2.1,2.1,0,0,0,.93-1.61V36.46a.5.5,0,0,0-.16-.43.28.28,0,0,0-.13,0A.71.71,0,0,0,212.06,36.11Z" style="fill:#fff;opacity:0.8"></path><circle cx="221.98" cy="130.01" r="1.57" style="fill:#860065"></circle><path d="M141.83,129.38h-.11a.47.47,0,0,1-.36-.57l.54-2.52c2.23-10.24,5.28-24.27,9.59-26.76,2.31-1.34,3.69.85,4.91,2.77,1.58,2.5,2.69,3.93,4.82,2.7,2.3-1.33,3.67-7.55,5.12-14.13,1.8-8.22,3.85-17.54,8.44-20.19a2.81,2.81,0,0,1,2.63-.25c2.88,1.27,4.33,7.83,5.86,14.78,1.34,6,2.72,12.28,4.85,13.22a1.49,1.49,0,0,0,1.41-.16c2.22-1.29,3.25-5.4,4.25-9.38,1.13-4.5,2.29-9.14,5.26-10.85a1.81,1.81,0,0,1,1.74-.12c2.26,1,3.56,6.88,4.6,12.28l.12.61a.48.48,0,0,1-.95.19l-.12-.62c-.67-3.46-2.05-10.67-4.05-11.58a.89.89,0,0,0-.86.07c-2.61,1.51-3.73,6-4.8,10.25s-2.13,8.49-4.71,10a2.41,2.41,0,0,1-2.28.21c-2.58-1.13-3.95-7.33-5.4-13.89-1.35-6.11-2.88-13-5.31-14.11a1.87,1.87,0,0,0-1.76.21C171,73.94,169,83,167.28,91.07c-1.56,7.09-2.91,13.21-5.57,14.75-3.1,1.79-4.78-.87-6.13-3s-2.25-3.24-3.61-2.46c-3.94,2.28-7.06,16.63-9.12,26.13L142.3,129A.48.48,0,0,1,141.83,129.38Z" style="fill:#860065"></path><path d="M152.32,98.18a3.56,3.56,0,0,0-1.61,2.79c0,1,.72,1.44,1.61.93a3.55,3.55,0,0,0,1.61-2.79C153.93,98.09,153.21,97.67,152.32,98.18Z" style="fill:#860065"></path><g style="opacity:0.55"><path d="M152.32,98.18a3.56,3.56,0,0,0-1.61,2.79c0,1,.72,1.44,1.61.93a3.55,3.55,0,0,0,1.61-2.79C153.93,98.09,153.21,97.67,152.32,98.18Z" style="fill:#fff"></path></g><path d="M175,69.36a3.55,3.55,0,0,0-1.61,2.79c0,1,.72,1.44,1.61.93a3.56,3.56,0,0,0,1.61-2.79C176.64,69.26,175.92,68.85,175,69.36Z" style="fill:#860065"></path><g style="opacity:0.55"><path d="M175,69.36a3.55,3.55,0,0,0-1.61,2.79c0,1,.72,1.44,1.61.93a3.56,3.56,0,0,0,1.61-2.79C176.64,69.26,175.92,68.85,175,69.36Z" style="fill:#fff"></path></g><path d="M199.39,76.8a3.55,3.55,0,0,0-1.61,2.78c0,1,.72,1.45,1.61.93A3.55,3.55,0,0,0,201,77.73C201,76.7,200.28,76.29,199.39,76.8Z" style="fill:#860065"></path><g style="opacity:0.55"><path d="M199.39,76.8a3.55,3.55,0,0,0-1.61,2.78c0,1,.72,1.45,1.61.93A3.55,3.55,0,0,0,201,77.73C201,76.7,200.28,76.29,199.39,76.8Z" style="fill:#fff"></path></g></g></g></svg>
