<svg xmlns="http://www.w3.org/2000/svg" viewBox="0 0 500 500"><g id="freepik--Streetlights--inject-13"><g id="freepik--street-light--inject-13"><path d="M34.26,82.06A30.62,30.62,0,0,0,21.75,95.78v-30a1.31,1.31,0,1,0-2.62,0V329.13c0,.2.12-.15.39,0a2.1,2.1,0,0,0,1.86,0c.25-.15.37.2.37,0V104.79A27.32,27.32,0,0,1,35.46,84.11c9.39-5.47,20.54-5.34,30.6.36l1.17-2.06C56.42,76.28,44.4,76.15,34.26,82.06Z" style="fill:#263238"></path><path d="M67.93,90.91l4.71,3.28c3.76,2.61,9.82,3,13.53.85,1.72-1,2.57-2.23,2.57-3.47,0-.45,0-2.2,0-2.63,0-1.42-1.11-2.84-3.33-3.86L78,81.67c-4.16-1.91-9.61-2.26-12.18-.78a2.57,2.57,0,0,0-1.41,2.31c0,.45,0,2.19,0,2.61C64.34,87.38,65.58,89.28,67.93,90.91Z" style="fill:#263238"></path><path d="M65.77,80.89c-2.56,1.48-1.6,4.8,2.16,7.42l4.71,3.28c3.76,2.61,9.82,3,13.53.84s3.37-5.43-.79-7.35L78,81.67C73.79,79.76,68.34,79.41,65.77,80.89Z" style="fill:#37474f"></path><path d="M65.46,83.15a1.54,1.54,0,0,1,.87-1.28,8.08,8.08,0,0,1,3.86-.77,18.37,18.37,0,0,1,7.28,1.59l7.43,3.42c1.69.77,2.67,1.78,2.71,2.78s-.66,1.79-2,2.56a10.67,10.67,0,0,1-5.25,1.24,12.65,12.65,0,0,1-7.07-2l-4.71-3.29C66.64,86,65.42,84.37,65.46,83.15Z" style="fill:#455a64"></path></g><g id="freepik--street-light--inject-13"><path d="M465.74,82.06a30.62,30.62,0,0,1,12.51,13.72v-30a1.31,1.31,0,1,1,2.62,0V329.13c0,.2-.12-.15-.39,0a2.1,2.1,0,0,1-1.86,0c-.25-.15-.37.2-.37,0V104.79a27.32,27.32,0,0,0-13.71-20.68c-9.39-5.47-20.54-5.34-30.6.36l-1.17-2.06C443.58,76.28,455.6,76.15,465.74,82.06Z" style="fill:#263238"></path><path d="M432.07,90.91l-4.71,3.28c-3.76,2.61-9.82,3-13.53.85-1.72-1-2.57-2.23-2.57-3.47,0-.45,0-2.2,0-2.63,0-1.42,1.11-2.84,3.33-3.86l7.43-3.41c4.16-1.91,9.61-2.26,12.18-.78a2.57,2.57,0,0,1,1.41,2.31c0,.45,0,2.19,0,2.61C435.66,87.38,434.42,89.28,432.07,90.91Z" style="fill:#263238"></path><path d="M434.23,80.89c2.56,1.48,1.6,4.8-2.16,7.42l-4.71,3.28c-3.76,2.61-9.82,3-13.53.84s-3.37-5.43.79-7.35l7.43-3.41C426.21,79.76,431.66,79.41,434.23,80.89Z" style="fill:#37474f"></path><path d="M434.54,83.15a1.54,1.54,0,0,0-.87-1.28,8.08,8.08,0,0,0-3.86-.77,18.37,18.37,0,0,0-7.28,1.59l-7.43,3.42c-1.69.77-2.67,1.78-2.71,2.78s.66,1.79,2,2.56a10.67,10.67,0,0,0,5.25,1.24,12.65,12.65,0,0,0,7.07-2l4.71-3.29C433.36,86,434.58,84.37,434.54,83.15Z" style="fill:#455a64"></path></g></g><g id="freepik--Character--inject-13"><g id="freepik--Car--inject-13"><g id="freepik--Interiors--inject-13"><path d="M360.88,256.81s-23.71-10.48-62.35-30.69a148.26,148.26,0,0,1-26-17.83c-10.15-10.31-11.1-15-15.6-16.95a151.15,151.15,0,0,0-17-5.54L130.8,255l107.1,85.53,29.55-22.12,93.6-58.63-.33,0,.16-.07C362.77,259,360.88,256.81,360.88,256.81Z" style="fill:#e0e0e0"></path><polygon points="382.82 316.7 294.56 367.66 152.91 285.88 241.17 234.92 382.82 316.7"></polygon><path d="M239.88,185.8c-3.49-2-6.35-3.65-8.42-4.82a59.08,59.08,0,0,0-34.75-7.73c-6.48.58-10,1.45-13.1,2.58A16.09,16.09,0,0,0,173.7,185L102,232l28.81,23" style="fill:#860065"></path><path d="M247.07,188.94c7.24,2.23,12.11,3.61,10.3,4.59S209.13,181,200.06,179.34s-18.37-2-7.11-4.5c10.05-2.24,21.89.44,27.88,2.53A108.69,108.69,0,0,1,235,184.13s-29-7.15-30.11-7.29-3.83,0,3,1.92S239.84,186.71,247.07,188.94Z" style="fill:#fff;opacity:0.15"></path></g><path d="M355.57,253.79c-12.41-6.4-39-20.1-51.67-26.39-17.84-8.87-29.7-16.56-37.56-29.69-2.93-4.86-5.81-9.79-8-13.56,5,1.87,12.17,4.77,20,8.55,15,7.3,33.24,16.1,44.31,23.54C331.13,222,350.63,244.69,355.57,253.79Z" style="opacity:0.5"></path><path d="M324.18,213.9c-11.27-7.58-29.74-16.5-44.65-23.75a227.69,227.69,0,0,0-27.47-11.23s5.82,10.2,11.85,20.25c8.62,14.37,21.81,22.36,38.72,30.76s58.26,29.79,58.26,29.79c0-1-.12-3.56-2.1-5.09C352.47,243.55,333.5,220.16,324.18,213.9Zm-57.84-16.19c-2.93-4.86-5.81-9.79-8-13.56,5,1.87,12.17,4.77,20,8.55,15,7.3,33.24,16.1,44.31,23.54,8.53,5.73,26,27.43,33,37.55-12.41-6.4-39-20.1-51.67-26.39C286.06,218.53,274.2,210.84,266.34,197.71Z" style="fill:#37474f"></path><path d="M258.34,184.15l.3.52.9-.06C259.13,184.44,258.73,184.29,258.34,184.15Zm26.26,8.55v3.18c0,6.73,0,15.21,0,20.59v1.73a11.89,11.89,0,0,1-.1,1.63c1.12.74,2.28,1.47,3.47,2.19V194.48C286.84,193.86,285.7,193.26,284.6,192.7Z" style="fill:#37474f"></path><g id="freepik--back-seats--inject-13"><path d="M159.08,280.67l55.48-26.18,25-14a11.12,11.12,0,0,1,9-.43l18,8.12,12.35-.24v7.21h0a2.88,2.88,0,0,1-1.74,2.32L189,307.62a7.9,7.9,0,0,1-8.31-.66l-20.08-16.3a3.58,3.58,0,0,1-1.48-2.76l0,0Z" style="fill:#263238"></path><path d="M277.19,250.28,189,300.41a7.9,7.9,0,0,1-8.31-.66l-20.08-16.3c-2.17-1.77-2-4.32.46-5.71l78.54-44.44a11.12,11.12,0,0,1,9-.43L277,245.67C279.51,246.82,279.61,248.88,277.19,250.28Z" style="fill:#455a64"></path><path d="M159.07,280.68v7.2l0,0a3.58,3.58,0,0,0,1.48,2.76L180.66,307a7.38,7.38,0,0,0,3.93,1.5v-7.21a7.37,7.37,0,0,1-3.93-1.49l-20.08-16.32A3.6,3.6,0,0,1,159.07,280.68Z" style="fill:#263238"></path><path d="M159.07,276.58a1.8,1.8,0,0,0,.69,1.71l5.41,3.13h0a1.72,1.72,0,0,1-.71-1.71l1.79-40.24A6.18,6.18,0,0,1,169,234.9l71.72-41a2.08,2.08,0,0,1,2-.16h0l-5.35-3.08h0a2,2,0,0,0-2.09.13l-71.71,41a6.12,6.12,0,0,0-2.76,4.55Z" style="fill:#263238"></path><path d="M240.73,193.94,169,234.9a6.21,6.21,0,0,0-2.77,4.55l-1.78,40.25c-.08,1.68,1,2.36,2.49,1.52l79.94-45.71a4.8,4.8,0,0,0,2.18-4.52l-5.27-35.56A1.93,1.93,0,0,0,240.73,193.94Z" style="fill:#37474f"></path><path d="M161.72,233.76l5.38,3.12a5.88,5.88,0,0,1,1.92-2l71.72-41a2.08,2.08,0,0,1,2-.16h0l-5.35-3.08h0a2,2,0,0,0-2.09.13l-71.71,41A5.65,5.65,0,0,0,161.72,233.76Z" style="fill:#455a64"></path></g><g id="freepik--Seats--inject-13"><g id="freepik--codriver-seat--inject-13"><path d="M263.77,285.58l10.79-.22L291,276a12.3,12.3,0,0,1,9.94-.48l19.88,9,13.63-.27v8h0a3.17,3.17,0,0,1-1.93,2.56l-35.7,20.62a8.73,8.73,0,0,1-9.17-.73l-22.18-18a4,4,0,0,1-1.63-3.05l0,0Z" style="fill:#37474f"></path><path d="M332.48,286.75l-35.7,20.61a8.71,8.71,0,0,1-9.17-.72l-22.18-18c-2.4-1.95-2.17-4.77.51-6.3L291,268a12.26,12.26,0,0,1,9.94-.48l31.33,14.13C335,282.93,335.15,285.21,332.48,286.75Z" style="fill:#455a64"></path><path d="M263.77,285.58v7.95l0,0a3.94,3.94,0,0,0,1.63,3.05l22.18,18a8.13,8.13,0,0,0,4.33,1.65V308.3a8.14,8.14,0,0,1-4.33-1.66l-22.18-18A4,4,0,0,1,263.77,285.58Z" style="fill:#263238"></path><path d="M261.62,285.14a1.94,1.94,0,0,0,1.07,1.71L269,290h0a1.86,1.86,0,0,1-1.1-1.71l-3.74-41.12a5.53,5.53,0,0,1,2.61-4.78L288.21,230a2.77,2.77,0,0,1,2.41-.27h0l-6.24-3.07h0a2.79,2.79,0,0,0-2.47.24l-21.41,12.37a5.47,5.47,0,0,0-2.62,4.77Z" style="fill:#263238"></path><path d="M288.21,230l-21.42,12.36a5.5,5.5,0,0,0-2.62,4.78l3.75,41.13c.16,1.71,1.58,2.35,3.18,1.42l30.5-17.61a4.25,4.25,0,0,0,1.94-4.71l-11.46-36A2.52,2.52,0,0,0,288.21,230Z" style="fill:#37474f"></path><path d="M258.51,241.34l6.29,3.1a5.6,5.6,0,0,1,2-2.11L288.21,230a2.77,2.77,0,0,1,2.41-.27h0l-6.24-3.07h0a2.79,2.79,0,0,0-2.47.24l-21.41,12.37A5.57,5.57,0,0,0,258.51,241.34Z" style="fill:#455a64"></path><path d="M261.68,235.21c-.35-2.44-.11-.8-.7-4.9-1.05-7.35,3.17-16.24,9.44-19.86,2.87-1.66,5.67-1.91,8-1v0l3.81,2.07-2.52,5.56.53,3.7c.24,1.71,3.3,5.18,1.7,6.11l-6.9,4-8.44,8.07-3.72-2h0A2,2,0,0,1,261.68,235.21Z" style="fill:#263238"></path><path d="M268.34,223.66l-6.09-3a20.08,20.08,0,0,1,8.17-10.2c2.87-1.66,5.67-1.91,8-1v0l3.81,2.07-2.52,5.56.25,1.77Z" style="fill:#455a64"></path><path d="M265.37,237.23c-.35-2.45-.12-.8-.7-4.9-1.06-7.35,3.17-16.24,9.44-19.86s12.19-.59,13.25,6.76l.7,4.9a5.19,5.19,0,0,1-2.46,4.77l-16.89,9.74C267.11,239.57,265.61,238.94,265.37,237.23Z" style="fill:#37474f"></path></g><g id="freepik--codriver-seat--inject-13"><path d="M214.55,314.44l10.78-.21,16.4-9.4a12.3,12.3,0,0,1,9.94-.48l19.89,9,13.63-.26V321h0a3.2,3.2,0,0,1-1.93,2.56l-35.7,20.61a8.71,8.71,0,0,1-9.17-.73l-22.18-18a4,4,0,0,1-1.63-3h0Z" style="fill:#37474f"></path><path d="M283.25,315.62l-35.7,20.61a8.71,8.71,0,0,1-9.17-.73l-22.18-18c-2.39-1.94-2.16-4.76.51-6.3l25-14.33a12.3,12.3,0,0,1,9.94-.48L283,310.53C285.81,311.8,285.93,314.07,283.25,315.62Z" style="fill:#455a64"></path><path d="M214.54,314.45v7.94l0,0a3.94,3.94,0,0,0,1.63,3l22.18,18a8.05,8.05,0,0,0,4.33,1.65v-7.95a8.21,8.21,0,0,1-4.33-1.65l-22.18-18A4,4,0,0,1,214.54,314.45Z" style="fill:#263238"></path><path d="M212.39,314a2,2,0,0,0,1.07,1.71l6.32,3.11h0a1.87,1.87,0,0,1-1.09-1.71L214.94,276a5.51,5.51,0,0,1,2.62-4.78L239,258.83a2.76,2.76,0,0,1,2.41-.26h0l-6.24-3.07h0a2.76,2.76,0,0,0-2.47.24L211.26,268.1a5.46,5.46,0,0,0-2.61,4.78Z" style="fill:#263238"></path><path d="M239,258.83,217.56,271.2a5.49,5.49,0,0,0-2.62,4.77l3.75,41.13c.16,1.71,1.58,2.35,3.19,1.43l30.49-17.61a4.26,4.26,0,0,0,1.94-4.72l-11.46-36A2.53,2.53,0,0,0,239,258.83Z" style="fill:#37474f"></path><path d="M209.28,270.21l6.29,3.09a5.52,5.52,0,0,1,2-2.1L239,258.83a2.76,2.76,0,0,1,2.41-.26h0l-6.24-3.07h0a2.76,2.76,0,0,0-2.47.24L211.26,268.1A5.6,5.6,0,0,0,209.28,270.21Z" style="fill:#455a64"></path><path d="M212.45,264.07c-.35-2.44-.11-.79-.7-4.9-1.05-7.35,3.18-16.24,9.44-19.85,2.88-1.66,5.67-1.91,8-1h0l3.8,2.07-2.52,5.55.53,3.7c.24,1.71,3.31,5.19,1.7,6.11l-6.9,4-8.44,8.07-3.72-2h0A2.08,2.08,0,0,1,212.45,264.07Z" style="fill:#263238"></path><path d="M219.11,252.52l-6.09-3a20.05,20.05,0,0,1,8.17-10.19c2.88-1.66,5.67-1.91,8-1h0l3.8,2.07-2.52,5.55.25,1.77Z" style="fill:#455a64"></path><path d="M216.14,266.09c-.35-2.44-.11-.8-.7-4.9-1.05-7.35,3.17-16.24,9.44-19.86s12.2-.59,13.25,6.76l.7,4.9a5.18,5.18,0,0,1-2.46,4.77l-16.88,9.75C217.88,268.44,216.39,267.8,216.14,266.09Z" style="fill:#37474f"></path></g></g><g id="freepik--character--inject-13"><g id="freepik--character--inject-13"><g id="freepik--Bottom--inject-13"><path d="M321.24,315.35s-1.75,8.61-1.5,11.86-.37,4.59.63,8.18c.22.78.82,2.33,1,3a1,1,0,0,1-.67,1.3c-1.34.48-4-2-5.44-4.81a92.85,92.85,0,0,1-4.06-10.18,4.86,4.86,0,0,1,.14-2.41,6.53,6.53,0,0,1,.48-1.29c.27-1.53.13-4.34.27-6.31Z" style="fill:#ffbda7"></path><path d="M308.89,328.07a3.77,3.77,0,0,0-.23,1.15c.06.68,1.77,2.71,2.43,3.44a5.66,5.66,0,0,1,1.52,3.69,9.68,9.68,0,0,0,2.88,5.72A14.07,14.07,0,0,0,323,346c3.49.66,4.44-1.27,4.44-1.27s.82-1.84.11-2.46S308.89,328.07,308.89,328.07Z" style="fill:#37474f"></path><path d="M311.82,321c-.11,0-.29,0-.51.36-.08.14-.49,1.81-.89,2.72s-1.53,2.65-1.53,4c1.11,2.53,3.67,4.06,4.33,6.5s1.07,5.31,5,7.88,7.72,2.42,9,1.45.92-2.47-1.3-5.11c-2.35-2.79-4.52-9.23-4.52-9.24a23.73,23.73,0,0,1-.7-2.76,20.34,20.34,0,0,1-.11-2.82,2.14,2.14,0,0,0-.32-1.23,2,2,0,0,0-1.08-.6,8.23,8.23,0,0,0-1.94-.43,2.82,2.82,0,0,0-1.87.49,13.72,13.72,0,0,1-1.09.95,1.64,1.64,0,0,1-1.81-.11,1.61,1.61,0,0,1-.69-1.66A2.86,2.86,0,0,1,311.82,321Z" style="fill:#860065"></path><path d="M311.82,321c-.11,0-.29,0-.51.36-.08.14-.49,1.81-.89,2.72s-1.53,2.65-1.53,4c1.11,2.53,3.67,4.06,4.33,6.5s1.07,5.31,5,7.88,7.72,2.42,9,1.45.92-2.47-1.3-5.11c-2.35-2.79-4.52-9.23-4.52-9.24a23.73,23.73,0,0,1-.7-2.76,20.34,20.34,0,0,1-.11-2.82,2.14,2.14,0,0,0-.32-1.23,2,2,0,0,0-1.08-.6,8.23,8.23,0,0,0-1.94-.43,2.82,2.82,0,0,0-1.87.49,13.72,13.72,0,0,1-1.09.95,1.64,1.64,0,0,1-1.81-.11,1.61,1.61,0,0,1-.69-1.66A2.86,2.86,0,0,1,311.82,321Z" style="opacity:0.4"></path><path d="M315.86,340.29a5.76,5.76,0,0,1,4.84-3.65c3.82-.47,5.4,1.42,6.14,2.55.87,1.36,1.92,3.88.44,4.83s-3.6,1-6.91-.22A8.7,8.7,0,0,1,315.86,340.29Z" style="fill:#fafafa"></path><path d="M315,328a.37.37,0,0,0,.35-.05c.55-.39,3.59-1.48,5.63.08.21-.23.12-.59-.25-1.07a6.74,6.74,0,0,0-5.85.33.41.41,0,0,0-.08.56A.43.43,0,0,0,315,328Z" style="fill:#fafafa"></path><path d="M321.68,330.34a1.31,1.31,0,0,0-.36-1.08,6.82,6.82,0,0,0-5.56.47.41.41,0,0,0-.08.56.55.55,0,0,0,.2.15.37.37,0,0,0,.35-.05C316.77,330,319.65,329,321.68,330.34Z" style="fill:#fafafa"></path><path d="M323.93,335.61a2.38,2.38,0,0,0-.67-1.4,6.79,6.79,0,0,0-5.76.38.41.41,0,0,0-.08.56.51.51,0,0,0,.21.15.35.35,0,0,0,.34-.05C318.55,334.84,321.9,333.65,323.93,335.61Z" style="fill:#fafafa"></path><path d="M316.75,332.87a.37.37,0,0,0,.35-.05c.55-.39,3.52-1.45,5.56,0a1.46,1.46,0,0,0-.47-1.16,6.82,6.82,0,0,0-5.56.47.4.4,0,0,0-.08.56A.55.55,0,0,0,316.75,332.87Z" style="fill:#fafafa"></path><path d="M330.58,325.23c2.4,6.33,2.91,9.87,5.6,13.35s4.12,5.34,7.32,7.8c.7.54,2.22,1.48,2.79,1.91a1.11,1.11,0,0,1,.27,1.63c-.86,1.4-5.51,2.81-8.63,1.35s-6.55-5.36-8.51-6.67a24.83,24.83,0,0,1-2.13-1.57c-.66-.54-.67-1.2-.88-1.94-.11-.35-.28-1.34-.28-1.34-.77-1.67-2.7-5-4.75-8.26Z" style="fill:#ffbda7"></path><path d="M327,347.86a4,4,0,0,0,.41,1.24c.42.62,3.15,1.52,4.17,1.82a5.87,5.87,0,0,1,3.46,2.62,9.93,9.93,0,0,0,5.85,3.73,14.78,14.78,0,0,0,9.26-.84c3.66-1.49,3.5-3.92,3.5-3.92s-.23-2.28-1.24-2.44S327,347.86,327,347.86Z" style="fill:#37474f"></path><path d="M325.87,339.23c-.09.07-.27.18-.28.67,0,.18.53,2,.64,3.15s0,3.49.77,4.81c2.43,1.75,5.68,1.66,7.64,3.59s3.91,4.45,9.09,4.49,8.62-2.4,9.25-4.08-.49-2.93-4-4.11c-3.75-1.25-9.32-6.11-9.32-6.12a24.06,24.06,0,0,1-2.18-2.22,22.87,22.87,0,0,1-1.64-2.64,2.18,2.18,0,0,0-1-1,2.16,2.16,0,0,0-1.35.08,9.28,9.28,0,0,0-2.06.77,3.44,3.44,0,0,0-1.51,1.62c-.2.51-.25,1.09-.5,1.58a1.87,1.87,0,0,1-1.77,1,1.7,1.7,0,0,1-1.57-1.17A4.14,4.14,0,0,1,325.87,339.23Z" style="fill:#860065"></path><path d="M325.87,339.23c-.09.07-.27.18-.28.67,0,.18.53,2,.64,3.15s0,3.49.77,4.81c2.43,1.75,5.68,1.66,7.64,3.59s3.91,4.45,9.09,4.49,8.62-2.4,9.25-4.08-.49-2.93-4-4.11c-3.75-1.25-9.32-6.11-9.32-6.12a24.06,24.06,0,0,1-2.18-2.22,22.87,22.87,0,0,1-1.64-2.64,2.18,2.18,0,0,0-1-1,2.16,2.16,0,0,0-1.35.08,9.28,9.28,0,0,0-2.06.77,3.44,3.44,0,0,0-1.51,1.62c-.2.51-.25,1.09-.5,1.58a1.87,1.87,0,0,1-1.77,1,1.7,1.7,0,0,1-1.57-1.17A4.14,4.14,0,0,1,325.87,339.23Z" style="opacity:0.4"></path><path d="M340.27,355.34a7,7,0,0,1,2.57-6.47c3.35-2.79,5.88-1.94,7.2-1.3,1.57.77,3.94,2.55,3.06,4.37s-2.84,3.19-6.66,4A8.92,8.92,0,0,1,340.27,355.34Z" style="fill:#fafafa"></path><path d="M332.75,344.06a.43.43,0,0,0,.3-.26c.31-.71,2.58-3.62,5.36-3.37.07-.35-.21-.64-.82-.87-2.82.29-5,3-5.34,3.89a.43.43,0,0,0,.22.58A.45.45,0,0,0,332.75,344.06Z" style="fill:#fafafa"></path><path d="M340.33,342.22a1.4,1.4,0,0,0-.94-.82,8,8,0,0,0-5,3.85.44.44,0,0,0,.23.59.42.42,0,0,0,.27,0,.41.41,0,0,0,.3-.26C335.5,344.91,337.66,342.16,340.33,342.22Z" style="fill:#fafafa"></path><path d="M345.34,345.91a2.52,2.52,0,0,0-1.41-.94,7.85,7.85,0,0,0-5.23,3.89.45.45,0,0,0,.23.58.37.37,0,0,0,.27,0,.44.44,0,0,0,.31-.25C339.83,348.45,342.34,345.26,345.34,345.91Z" style="fill:#fafafa"></path><path d="M337.05,347.66a.45.45,0,0,0,.31-.26c.3-.7,2.52-3.54,5.26-3.37a1.54,1.54,0,0,0-1.07-.83,8,8,0,0,0-5,3.85.45.45,0,0,0,.23.59A.42.42,0,0,0,337.05,347.66Z" style="fill:#fafafa"></path><path d="M302.26,268.2c4.3,3.06,16.09,8.22,25.4,15.89,2.48,2,3.13,4.38,1.91,11.09-1.12,6.17-4.69,16.08-7.33,24l-37-40.55Z" style="fill:#37474f"></path><path d="M322.24,319.16l-21.81-33.48.7-.19c3.74-2.21,5.35-7.48,5.35-7.48,0,3.54-1.19,5.2-2.32,7.07a171.38,171.38,0,0,1,15.43,9.78c2.52,1.83,3.41,2.71,4.59,7.17,1.35,5.12,1.68,6.53,1.68,6.53Z" style="fill:#263238"></path><path d="M300.48,269.83h0L271.77,276c1.14,6.39.93,9.6,2.76,13.58,1.44,3.14,4.9,8.36,12.64,11.75,8.91,3.91,21.08,7.44,22.92,8.3a37,37,0,0,0,3.38,9.46,75.91,75.91,0,0,0,5.84,9.91c2,2.89,4.33,6.71,4.33,6.71a12,12,0,0,0,9.34-4.1s-6.61-20-8.6-25.85c-1.64-4.83-1.49-6.35-4.86-9.3-2.89-2.52-18.39-10.92-18.39-10.92S304,277.32,300.48,269.83Z" style="fill:#37474f"></path></g><g id="freepik--Top--inject-13"><path d="M296.89,236.83c4,.18,6.15.67,9,4.14s13.52,19.11,13.52,19.11l-8.24,6.06L300.3,251.71Z" style="fill:#f0997a"></path><path d="M296.57,235a11.35,11.35,0,0,1,7.12,3.2c2.33,2.28,9.12,12.11,9.12,12.11a13.63,13.63,0,0,1-8.49,7.28l-6.66-7.74Z" style="fill:#860065"></path><path d="M285.78,235.44c-3.7.66-7.64,2-13.68,5.78-1.43,1.11-3,5.13-2.49,12.34.61,8.89.72,10.33,1.25,16,.65,7,1.66,13.06,1.66,13.06,10.63,4.55,31.93-1.75,35.16-11.17-1.37-5.09-3.12-8.65-3.55-18.09-.47-10.28-3.2-15.93-7.56-18.34A54.16,54.16,0,0,0,285.78,235.44Z" style="fill:#fff"></path><path d="M260.11,293.2c-.8-2.89-1.59-2.73,1.09-4.09,3.57-1.8,7.25-3.58,7.87-2.76a22.72,22.72,0,0,1,2.06,5.84c.27,1.5-5.12,2.69-7.43,3.11C260.39,295.9,260.61,295,260.11,293.2Z"></path><path d="M295.69,234.76c1.9,9.35,1,39.2-26.29,52.15l1.73,5.28s20.08-3.23,29.24-8.53,9.93-11.73,9.93-11.73l-2.44-2.44s-4.2,11-28.19,16.9c13-7.53,25-27.14,20-51.3Z"></path><g id="freepik--Head--inject-13"><path d="M300,221c.48-.61,1.36-1.91.75-2.67,1.28-.52,2.18-3.2.12-2.61,2.51-.72,3.37-4.14,2.43-4.72-.54-.33-1.27.23-2.58.21-2.4,0-2.24-.42-6.33-2.15-3.34-1.42-13.67-2.28-14.21,4.84-3.34.47-4.27,4.84-3.29,8.33,1.2,4.29,4,6.7,4.87,9.67C283.89,230.63,296.65,224.12,300,221Z" style="fill:#263238"></path><path d="M278.6,228.73c1.95,1.5,3.28.14,3.28.14l-.65,8.42c3.6,4.37,14.14,4.82,10.78.26l.13-2.29a9.16,9.16,0,0,0,4.71-.56,4.6,4.6,0,0,0,2.37-3.08c.62-1.85.63-4.68.71-7.44s-.45-7.35-1.37-9.3c-1.73-1.57-4.92,1.87-10.93.79a5.65,5.65,0,0,1-1.36,3.13,4.69,4.69,0,0,1-1.72,1.26,8.61,8.61,0,0,1,.23,3.56,1.22,1.22,0,0,1-1.77.9c-.51-.19-.86-1.31-1.37-2.07a2.4,2.4,0,0,0-4.07.59A4.69,4.69,0,0,0,278.6,228.73Z" style="fill:#ffbda7"></path><path d="M292.14,235.26c-2.22-.27-5.53-.79-7.2-2.57a6,6,0,0,1-1.74-3.86,8.25,8.25,0,0,0,1,4.63c.91,1.47,2.64,2.1,4,2.55a26.67,26.67,0,0,0,3.86.74Z" style="fill:#f0997a"></path><path d="M290.56,220l-2.1,1.24a1.25,1.25,0,0,1,.44-1.69A1.21,1.21,0,0,1,290.56,220Z" style="fill:#263238"></path><path d="M296.51,219.48l2.22,1a1.24,1.24,0,0,0-.61-1.63A1.21,1.21,0,0,0,296.51,219.48Z" style="fill:#263238"></path><path d="M290.53,228.79l3.1,1.07a1.74,1.74,0,0,1-2.15,1A1.56,1.56,0,0,1,290.53,228.79Z" style="fill:#b16668"></path><path d="M290.65,229.42a1.58,1.58,0,0,1,1.64,1.5,1.71,1.71,0,0,1-.81-.06,1.55,1.55,0,0,1-1.06-1.42Z" style="fill:#ffa8a7"></path><path d="M289.23,222.93a1,1,0,1,0,1-1A1,1,0,0,0,289.23,222.93Z" style="fill:#263238"></path><path d="M296.45,222.65a1,1,0,1,0,1-1A1,1,0,0,0,296.45,222.65Z" style="fill:#263238"></path><path d="M297.87,226.54l-3.51,1.4-1.1-6.54C294.65,221.67,296.21,223.37,297.87,226.54Z" style="fill:#f0997a"></path></g><g id="freepik--Tablet--inject-13"><path d="M321.09,252.18h0l-.77-.53h0a.82.82,0,0,0-.74,0l-8,3.17a2.85,2.85,0,0,0-1.55,1.79l-3.8,16.48a.75.75,0,0,0,.19.8h0l.79.55h0a.82.82,0,0,0,.74,0l8.05-3.17a2.8,2.8,0,0,0,1.54-1.79c.75-3.24,3.06-13.24,3.8-16.48A.69.69,0,0,0,321.09,252.18Z" style="fill:#455a64"></path><path d="M311.54,255.89a2.65,2.65,0,0,0-.76,1.26L307,273.62a.74.74,0,0,0,.17.78l-.75-.51h0a.73.73,0,0,1-.2-.8l3.8-16.47a2.82,2.82,0,0,1,.7-1.19Z" style="fill:#455a64"></path><path d="M307,273.62l3.8-16.47a2.85,2.85,0,0,1,1.54-1.8l8.05-3.16c.69-.27,1.11.09.94.81-.74,3.24-3.05,13.24-3.8,16.48a2.8,2.8,0,0,1-1.54,1.79l-8.05,3.17C307.24,274.71,306.81,274.34,307,273.62Z" style="fill:#263238"></path><path d="M311.15,260.48l.71-3.09a.53.53,0,0,1,.29-.33l1.39-.55c.12-.05.2,0,.17.16l-.71,3.08a.52.52,0,0,1-.29.34l-1.39.54C311.19,260.68,311.11,260.61,311.15,260.48Z" style="fill:#455a64"></path><path d="M312,258.1a1.35,1.35,0,0,1,.74-.83c.34-.13.54,0,.47.35a1.35,1.35,0,0,1-.74.83C312.14,258.58,311.93,258.42,312,258.1Z" style="fill:#263238"></path><path d="M311.66,259.65a1.35,1.35,0,0,1,.74-.83c.34-.13.54,0,.47.36a1.35,1.35,0,0,1-.74.83C311.8,260.14,311.59,260,311.66,259.65Z" style="fill:#263238"></path><path d="M321,261.16c.71-1.09.63-1.23.2-1.75a3.37,3.37,0,0,0-2.78-1.26,6.76,6.76,0,0,0-2.33.37c-.47.27,0,1.26,1.21,1.47,1.93.34,1.94.86,1.94.86a23,23,0,0,0-2.48-.31,18.05,18.05,0,0,0-2.79.55c-.79.17-.9,1.22.48,1.51l-1.47.3c-1,.22-1.35.79-.51,1.39a1.55,1.55,0,0,0,1,.3s-1.1.05-1.11.42c0,1.05.68,1.3,2.93,1.84s2.48,1.53,2.27,2.43c0,0,.82-.53,1.56-1.09.53-.41,1-.87.69-1.72,0,0,1.22,0,1.25-.79a3.9,3.9,0,0,0-.36-1.59,1.33,1.33,0,0,0,.6-1.28,2.09,2.09,0,0,0-.5-1.29Z" style="fill:#ffbda7"></path><path d="M314.49,262.6a6.37,6.37,0,0,1,1.33-.21,4.28,4.28,0,0,1,1.32.35,15.94,15.94,0,0,1,2.4,1.14,16.58,16.58,0,0,1-2.54-.77,6.89,6.89,0,0,0-1.2-.42C315.39,262.65,314.93,262.66,314.49,262.6Z" style="fill:#f0997a"></path><path d="M313.47,264.59a2.92,2.92,0,0,1,1.44-.11,7.5,7.5,0,0,1,1.41.37,14,14,0,0,1,2.59,1.23,27.92,27.92,0,0,1-2.73-.86A7.71,7.71,0,0,0,313.47,264.59Z" style="fill:#f0997a"></path></g><path d="M284.32,268.49l-4.76-15.79s-3.34-8.32-7.46-10.91a8.67,8.67,0,0,0-3.86,5.61c-.86,3.59-.27,6.29,2,15.54,1.75,7.26,3.37,12.05,4.85,14.55,1.84,3.1,5.62,2.44,10.64,1.38s8.1-2,15-4.06a41.46,41.46,0,0,0,7.6-3.31,10.93,10.93,0,0,0,2.8-1.84,6.29,6.29,0,0,0,1.74-2.49,2,2,0,0,1,.21-.52,3.6,3.6,0,0,1,.37-.41,3.44,3.44,0,0,0,.67-.81,5.09,5.09,0,0,0,.33-1.07,4.74,4.74,0,0,1,.15-.5,3,3,0,0,1,.26-.46,3.83,3.83,0,0,0,.67-1.22.73.73,0,0,0-.18-.68s.41-.44.54-.6a3.47,3.47,0,0,0,.48-.72.37.37,0,0,0,.05-.32.29.29,0,0,0-.13-.14c-.87-.61-1.86-.15-2.67.32-1.1.63-2.09,1.41-3.14,2.12a11.07,11.07,0,0,1-2.05,1.14c-.44.18-1.63.84-1.6,0a17.76,17.76,0,0,1,.49-2.58,3,3,0,0,0-.49-2.5.86.86,0,0,0-.67-.33c-.35,0-.58.38-.74.69a10.38,10.38,0,0,1-1.53,2.43,12.43,12.43,0,0,0-2,2.43,11.93,11.93,0,0,1-1.34,2.3c-.85,1-2.57,1.42-4.95,1.74-1.71.22-3.41.47-5.12.62C288.41,268.25,286.36,268.4,284.32,268.49Z" style="fill:#ffbda7"></path><path d="M284.32,268.49a28.28,28.28,0,0,0-5.72.44s1.25-1.27,5.43-1.33Z" style="fill:#f0997a"></path><path d="M315.24,261.63a17.43,17.43,0,0,1-1.28,1.3c-.43.42-.89.83-1.33,1.24-.22.21-.43.43-.67.63s-.48.38-.73.56a17.42,17.42,0,0,1-1.52,1l.71-.58c.24-.18.47-.37.71-.57s.46-.38.69-.59.43-.41.66-.62c.44-.42.9-.82,1.37-1.21Z" style="fill:#f0997a"></path><path d="M314.56,263.79a7.43,7.43,0,0,1-.82,1.17c-.31.36-.63.7-1,1s-.67.64-1,.95a13.19,13.19,0,0,1-1.12.85c.34-.32.66-.66,1-1l1-1,1-1C313.93,264.51,314.25,264.15,314.56,263.79Z" style="fill:#f0997a"></path><path d="M272.1,241.22c-2.93,1.69-3.68,3.62-4.6,6.33s.72,9.94,2.85,18.82c5.94.22,9-.71,12.54-3.15l-2.84-11.4C279.05,247.7,276.07,242.08,272.1,241.22Z" style="fill:#860065"></path></g></g><g id="freepik--arm-with-steering-wheel--inject-13"><path d="M339.39,271.32c-.46-3.38-2-6-4.43-7.36a8.16,8.16,0,0,0-4.16-1.1,13,13,0,0,0-6.42,1.92c-7.27,4.21-13,14.09-13,22.48v.14l4.59-2.63a21.91,21.91,0,0,1,1.08-4.09c.28-.7.57-1.41.92-2.11,2-4.17,5.11-8,8.58-10a8.61,8.61,0,0,1,4.22-1.31,4,4,0,0,1,2,.48,3.44,3.44,0,0,1,.85.69,5.1,5.1,0,0,1,1.12,2.09,10.24,10.24,0,0,1,.41,3v.21Z"></path><path d="M329.53,277l-7.24,4.16-.87.5a5.66,5.66,0,0,1,.13-.56,8.9,8.9,0,0,1,.82-2.14,8.6,8.6,0,0,1,3.11-3.41,3.06,3.06,0,0,1,2.75-.39A2.4,2.4,0,0,1,329.53,277Z"></path><path d="M336.6,268.22l-1.86,2.32-5.14,6.4-.06.09a.06.06,0,0,0,0,0l-7.24,4.16-.74-.06-4.47-.41-2-.17.18-2.19,2.72.25,4.37.38,2.62.24,3.24-4,5.39-6.7,1.28-1.59Z"></path></g></g><g id="freepik--back-car--inject-13"><polygon points="87.71 283.74 124.55 262.46 104.08 250.65 84.16 263.23 87.71 283.74" style="fill:#263238"></polygon><path d="M103.24,278.69,98,268.18l12.59-7.29h0c4-2.3,9.34-2,15.19,1.34,12.43,7.18,22.52,25.7,22.52,41.36,0,8.2-2.77,14-7.19,16.62h0l-.17.11h0L128,327.78l-5.58-11.08C111.81,308.61,103.65,292.66,103.24,278.69Z" style="fill:#37474f"></path><path d="M103.24,278.69,98,268.18l12.59-7.29h0c4-2.3,9.34-2,15.19,1.34,12.43,7.18,22.52,25.7,22.52,41.36,0,8.2-2.77,14-7.19,16.62h0l-.17.11h0L128,327.78l-5.58-11.08C111.81,308.61,103.65,292.66,103.24,278.69Z" style="fill:#263238"></path><path d="M90.12,285.15c0,13.51,7.5,29.14,17.53,37.78l0,.05a34,34,0,0,0,4.94,3.53c12.44,7.19,22.53.31,22.52-15.36,0-11.83-5.76-25.3-13.93-34.27l-.07-.07a36.35,36.35,0,0,0-8.52-7C100.2,262.62,90.12,269.49,90.12,285.15Z" style="fill:#37474f"></path><path d="M112.63,279.25c-7.91-4.57-14.33.19-14.33,10.63s6.42,22.61,14.33,27.18S127,316.87,127,306.43,120.54,283.82,112.63,279.25Z" style="fill:#455a64"></path><path d="M106.18,295.22c.5,5.19,3.81,10.72,7.36,12.34a3.48,3.48,0,0,0,3.9-.29c1.27-1.07,1.93-3.26,1.64-6.18-.5-5.19-3.79-10.73-7.36-12.34a4,4,0,0,0-2.62-.37h0C107,288.88,105.81,291.43,106.18,295.22Z" style="fill:#fafafa"></path><path d="M107.46,294.55c.51,5.2,3.81,10.73,7.37,12.35a4.1,4.1,0,0,0,2.61.37c1.27-1.07,1.93-3.26,1.64-6.18-.5-5.19-3.79-10.73-7.36-12.34a4,4,0,0,0-2.62-.37h0C107.84,289.46,107.18,291.65,107.46,294.55Z" style="fill:#e0e0e0"></path><path d="M90.12,285.15c0,13.51,7.5,29.14,17.53,37.78A63.87,63.87,0,0,1,93.37,295.3c-1.9-9-1.19-22,6.56-25.26s18,3.63,21.22,6.77a36.35,36.35,0,0,0-8.52-7C100.2,262.62,90.12,269.49,90.12,285.15Z" style="fill:#455a64"></path><path d="M84,232.67c4.56-10.79,23.59-22,31.71-17.92,2.54,1.26,9.73,5.62,18.79,10.83,0,0,29.79,18,32.55,19.62,0,0-14.25-.24-17.48.93a3.41,3.41,0,0,0-2.38,4.56l1.63,5.28c2.32,10.4,5,12.06,24.35,25.06,6.47,4.35,12.41,8.69,12.41,8.69s5.23,2.83,8.84,4.69,24.13,12.74,27.18,14.5c5.47,3.16,14.33,7.19,14.33,7.19v53l-93.62-53.68a43.16,43.16,0,0,0-.23-4.35c-1.66-17.22-14.3-37.21-27.84-45-14.69-8.49-26.61-.56-26.61,17.71l-2.38-1.37C76.8,277.27,79.45,243.44,84,232.67Z" style="fill:#860065"></path><path d="M156.21,273.92c2.57,1.92,16.94,11,19,12.26a10,10,0,0,0-2.56,4.17S120.55,260.28,107.83,249,88.15,227.27,98,221.81c3-1.66,5.78-3.89,9.38-2.54a2,2,0,0,1,.72.4,2.69,2.69,0,0,1,.6,1.3c2.88,11.2,12,19.58,19.45,28.05C135.35,257.32,147.11,267.11,156.21,273.92Z" style="fill:#fff;opacity:0.15"></path><path d="M144.72,311.35l84.77,48.94v-2.2L143.78,308.6A22.55,22.55,0,0,0,144.72,311.35Z" style="opacity:0.15"></path><path d="M234.24,319.51l-50.19-28.74a3.81,3.81,0,0,0-1.51,3.33Z" style="fill:#fff;opacity:0.15"></path><path d="M135.93,245.42c5.75,0,6,3,7.87,8.93,1.47,4.65,3.75,8.79,1,7.42s-12.35-11.6-14.13-13.37C127,244.73,133.3,245.42,135.93,245.42Z"></path><path d="M107.93,214.31c3-.68,5.79-.63,7.84.41,2.53,1.26,9.73,5.62,18.79,10.84l12.19,7,65-37.44s-25.21-12.87-34.17-16.33S110.46,207.61,107.93,214.31Z" style="fill:#860065"></path><path d="M107.93,214.31c3-.68,5.79-.63,7.84.41,2.53,1.26,9.73,5.62,18.79,10.84l12.19,7,65-37.44s-25.21-12.87-34.17-16.33S110.46,207.61,107.93,214.31Z" style="fill:#fff;opacity:0.30000000000000004"></path><path d="M191.48,302.21a.3.3,0,0,0,.46-.26v-1.44c0-1.08-1.62-2.9-3.62-4.05l-3-1.71c-2-1.15-3.62-1.21-3.62-.13v1.17a1.36,1.36,0,0,0,.68,1.19Z" style="fill:#263238"></path><path d="M126.21,262.16c-1.8,2.35-3.08,8.58-3.08,8.58a47.76,47.76,0,0,1,4.86-7.29c2.07-2.21,9.55-4.79,9.55-4.79S128,259.82,126.21,262.16Zm-42.44-9c-2-3.58-2.9-15.51-2.9-15.51s-.82,13.67,1.55,16.94,12.9,7.58,12.9,7.58S85.82,256.73,83.77,253.15ZM135.63,229c-11.74-7-22.41-12.85-23.94-12-5,2.89,3.12,11.58,14,20.51ZM174,297.25c1,7.26,2.61,30.39,2.61,30.39s.09-20.79.09-29.54c0-7.28,2.86-10.63,2.86-10.63l-2.86-1.57S173,290,174,297.25Zm56.17,30c1,7.26,2.6,30.4,2.6,30.4s.09-20.79.09-29.54c0-7.28,2.87-10.63,2.87-10.63l-2.86-1.58S229.13,320,230.12,327.28Zm-46-148.76c-1.61.95,5.28,4,14.62,8.81,16,8.22,39.29,19.52,39.29,19.52l12.2-13.52S188.54,175.94,184.15,178.52Z" style="opacity:0.15"></path><path d="M279.53,190.15l-93.92,54.22-1.87,1.08a58.79,58.79,0,0,0-10.84-1.68c-9.74-.87-20.69,1.66-20.69,1.66l-28.61-6.09c-.48-.11-2.58-.61-3.13-.78a1.93,1.93,0,0,1-.88-3.27l0,0c8-7.65,17.77-13.22,27.15-19s18.65-11.39,28.09-16.89c8.2-4.76,16.43-9.5,24.93-13.69,1.77-.86,3.57-1.67,5.4-2.41.49-.2.95-.38,1.36-.51l.1,0c1.13-.35,2.55-.76,4.18-1.18,8.36-2.17,22.62-4.82,35.13-4C250.93,177.82,279.53,190.15,279.53,190.15Z" style="fill:#860065"></path><path d="M279.53,190.15l-93.92,54.22c-5.66-2.3-10-1.42-18.94-1.46-6.64,0-13.22.13-19.31,1.49l-19.76-4.23c7.9-2.71,23.46-4.17,30.83-7.9,6.38-3.23,12.62-6.78,18.84-10.33,17.09-9.77,33.2-19,50.18-30.32,15.84-10.54,18.15-13.82,24.61-12.7,1.71.53,4.45,1.34,6.55,2.13,6.46,2.42,9.71,3.79,16.3,6.81C277.72,189.16,279.51,190.14,279.53,190.15Z" style="fill:#860065"></path><path d="M279.53,190.15l-93.92,54.22c-5.66-2.3-10-1.42-18.94-1.46-6.64,0-13.22.13-19.31,1.49l-19.76-4.23c7.9-2.71,23.46-4.17,30.83-7.9,6.38-3.23,12.62-6.78,18.84-10.33,17.09-9.77,33.2-19,50.18-30.32,15.84-10.54,18.15-13.82,24.61-12.7,1.71.53,4.45,1.34,6.55,2.13,6.46,2.42,9.71,3.79,16.3,6.81C277.72,189.16,279.51,190.14,279.53,190.15Z" style="fill:#fff;opacity:0.30000000000000004"></path><path d="M137.8,235.2a89.1,89.1,0,0,0,30.76-11.52c6.85-4,39.1-23.56,50.89-30.38s15.25-10.17,9.35-10.39c-3.48-.06-9.92,1.08-13.79,1.69a50.08,50.08,0,0,0-18.41,6.85c-15.5,9-29.71,17.74-49.67,29.26C114.07,239.68,124.24,237.41,137.8,235.2Z" style="fill:#37474f"></path><path d="M185.62,244.37c-3.74-1.91-11.12-2.14-17-2.16-7.2,0-19.09.56-23,3-2.44,1.52-.39,4.44,1.52,11.63,1.61,6.06,2.8,8.49,7,11.93,7.74,6.36,27.08,18.31,31.39,21Zm-6.2,37.84c-5.86-3.88-21.76-13.78-24.57-16.06-3.6-2.93-6.25-15-6.94-18-.86-3.67,26.14-3,30.16-2.34,3.25.56,4.26,2.13,4.13,6.11,0,7.51,0,20.86,0,27.21C182.21,281.69,181.73,283.74,179.42,282.21Z" style="fill:#455a64"></path><path d="M147.91,248.19c.69,2.93,3.34,15,6.94,18,2.81,2.28,18.71,12.18,24.57,16.06,2.31,1.53,2.79-.52,2.79-3,0-6.35,0-19.7,0-27.21.13-4-.88-5.55-4.13-6.11C174.05,245.16,147.05,244.52,147.91,248.19Z" style="opacity:0.5"></path></g><g id="freepik--front-car--inject-13"><path d="M254,319a589.65,589.65,0,0,1,51.35-34.31c27-15.74,55.48-25,55.54-25-.77,2.91-5.37,7.54-11.57,12.57-4.38,3.58-9.33,7.23-15.05,11.07-13.5,9.43-26.3,15.93-30.93,18.7-23.22,12.59-46.85,22.38-50.75,17.74C252.59,319.8,254,319,254,319Z" style="fill:#455a64"></path><path d="M252.59,319.8c1.11-.69,37.82-23.33,54.79-33.53,16.16-9.71,49.46-24.72,53.5-26.55a295.94,295.94,0,0,0-55.53,25A629.5,629.5,0,0,0,252.59,319.8Z" style="fill:#37474f"></path><polygon points="236.01 369.08 272.85 347.81 252.38 335.99 236.01 345.48 236.01 369.08" style="fill:#263238"></polygon><path d="M251.18,363.79l-5.29-10.51L258.48,346h0c4-2.3,9.34-2,15.19,1.34,12.43,7.18,22.51,25.69,22.52,41.36,0,8.2-2.77,14-7.19,16.61h0l-.17.1,0,0-12.91,7.45-5.58-11.09C259.75,393.71,251.59,377.77,251.18,363.79Z" style="fill:#37474f"></path><path d="M251.18,363.79l-5.29-10.51L258.48,346h0c4-2.3,9.34-2,15.19,1.34,12.43,7.18,22.51,25.69,22.52,41.36,0,8.2-2.77,14-7.19,16.61h0l-.17.1,0,0-12.91,7.45-5.58-11.09C259.75,393.71,251.59,377.77,251.18,363.79Z" style="fill:#263238"></path><path d="M238.06,370.26c0,13.5,7.49,29.13,17.53,37.78l0,0a33.59,33.59,0,0,0,4.94,3.54c12.44,7.18,22.52.3,22.51-15.36,0-11.83-5.75-25.31-13.92-34.27a.29.29,0,0,1-.07-.08,36.35,36.35,0,0,0-8.52-7C248.13,347.73,238.06,354.6,238.06,370.26Z" style="fill:#37474f"></path><path d="M260.57,364.35c-7.91-4.57-14.33.2-14.33,10.64s6.42,22.61,14.33,27.18,14.33-.2,14.33-10.64S268.48,368.92,260.57,364.35Z" style="fill:#455a64"></path><path d="M254.1,380.37c.54,5.19,3.88,10.7,7.46,12.29a3.45,3.45,0,0,0,3.89-.33c1.26-1.07,1.9-3.27,1.59-6.18-.54-5.19-3.87-10.7-7.45-12.29a4,4,0,0,0-2.62-.35h0C254.9,374,253.7,376.59,254.1,380.37Z" style="fill:#fafafa"></path><path d="M255.37,379.7c.55,5.19,3.89,10.7,7.46,12.29a4,4,0,0,0,2.62.34c1.26-1.07,1.9-3.27,1.59-6.18-.54-5.19-3.87-10.7-7.45-12.29a4,4,0,0,0-2.62-.35h0C255.71,374.6,255.07,376.79,255.37,379.7Z" style="fill:#e0e0e0"></path><path d="M238.06,370.26c0,13.5,7.49,29.13,17.53,37.78a63.93,63.93,0,0,1-14.28-27.63c-1.9-9-1.19-22,6.56-25.27s18,3.63,21.22,6.77a36.35,36.35,0,0,0-8.52-7C248.13,347.73,238.06,354.6,238.06,370.26Z" style="fill:#455a64"></path><path d="M398.27,289.87c-5.61-9.84-15-17.18-24.16-23.54-1.28-.9-10.89-8.28-15.32-11.7h0a5.09,5.09,0,0,1,1.12,2.53,10,10,0,0,1-3.6,8.31,285.94,285.94,0,0,1-39.78,27.77c-14.72,8.49-32.68,17-45.83,22.9-11.19,5-24.11,6-34.77,0v4.14c5.36,3.34,10.74,6.58,16.05,9.64,45.42,26.23,69.66,40.22,123,9.44,9.23-5.33,17.69-11.53,24.74-19.56S403,298.2,398.27,289.87Z" style="fill:#860065"></path><path d="M398.27,289.87c-5.61-9.84-15-17.18-24.16-23.54-1.28-.9-10.89-8.28-15.32-11.7h0a5.09,5.09,0,0,1,1.12,2.53,10,10,0,0,1-3.6,8.31,285.94,285.94,0,0,1-39.78,27.77c-14.72,8.49-32.68,17-45.83,22.9-11.19,5-24.11,6-34.77,0v4.14c5.36,3.34,10.74,6.58,16.05,9.64,45.42,26.23,69.66,40.22,123,9.44,9.23-5.33,17.69-11.53,24.74-19.56S403,298.2,398.27,289.87Z" style="fill:#fff;opacity:0.30000000000000004"></path><path d="M415.72,348.65c-.2.92-.44,1.85-.69,2.82-4,15.14-22.29,30-35.86,37.71-10.46,5.93-21.36,11.24-32.68,14.75a70.28,70.28,0,0,1-44.16-.51c-7.95-2.8-13.18-6.24-13.49-8.82a51.45,51.45,0,0,0-1.19-6.6,65.54,65.54,0,0,0-6.3-16.07c-4.25-7.75-9.94-14.55-16.28-18.95-.83-.58-1.67-1.12-2.52-1.6-13.71-7.92-25-1.55-26.45,14.16-.11,1.14-.16,2.33-.16,3.56V320.25c5.36,3.33,10.74,6.56,16.05,9.63,16.34,9.44,29.95,17.29,43.14,22.05,23.49,8.46,45.72,7.1,79.86-12.6,5.32-3.08,10.39-6.15,14.45-10.72a28.32,28.32,0,0,0,6.64-15.72c.76-6.77-.4-13.62-2.08-20.22-1.35-5.27-3.4-11.48-6.55-15.92a118.21,118.21,0,0,1,14.76,13.62c.63.69,1.22,1.39,1.81,2.1a55,55,0,0,1,11.59,25.08C417.65,328.87,418.41,336.94,415.72,348.65Z" style="fill:#860065"></path><path d="M377.58,318.69c-1.75-2-3.51-4.07-5.36-6a92.45,92.45,0,0,0-8.29-8c-4-3.57-8.19-7-12.51-10.18-2.17-1.6-4.37-3.14-6.6-4.65s-4.52-2.91-6.88-4.2c4.43,3,8.73,6.24,12.93,9.56s8.33,6.73,12.28,10.34,4.66,4,8.42,7.79,7.4,7.75,11,11.72C381,322.88,379.31,320.75,377.58,318.69Z" style="fill:#860065"></path><path d="M342.52,339.17c-2-1.89-4-3.79-6.13-5.56a77.59,77.59,0,0,0-9.79-7.4,143.74,143.74,0,0,0-14.31-8.33c-2.47-1.24-5-2.4-7.5-3.5s-5.12-2.07-7.76-2.87a157.12,157.12,0,0,1,14.84,7.17c4.81,2.64,9.55,5.41,14.08,8.51a90.76,90.76,0,0,1,9.87,7.11c4.33,3.38,8.37,7.11,12.43,10.83l-2.83-3C344.47,341.12,343.53,340.11,342.52,339.17Z" style="fill:#860065"></path><path d="M388.7,324.67a263.37,263.37,0,0,1-47.24,27.18c-2.46,1.11-3.69,4.06-2.1,6.24a29,29,0,0,0,8.94,7.9c2.37,1.29,6.66.89,9.18-.07q21.28-8.09,35.48-20.27c2.05-1.76,4.44-5.34,4.53-8a35.15,35.15,0,0,0-1.78-12.41C394.73,322.69,390.88,323.07,388.7,324.67Z" style="fill:#e0e0e0"></path><path d="M352.32,363.88a12.44,12.44,0,0,0,4.12-.7c13.81-5.25,25.46-11.89,34.61-19.76,1.75-1.5,3.46-4.37,3.51-5.9A32.51,32.51,0,0,0,393,326.38c-.46-1-2,.23-2.58.65a267.52,267.52,0,0,1-47.76,27.49,1.88,1.88,0,0,0-1.06,1.16.74.74,0,0,0,.11.68,25.91,25.91,0,0,0,8,7.05A6,6,0,0,0,352.32,363.88Z" style="fill:#455a64"></path><path d="M375.11,355.9l2.85-.68a73.33,73.33,0,0,0-6.77-17l-2.55,1.45A72.28,72.28,0,0,1,375.11,355.9Z" style="fill:#e0e0e0"></path><path d="M374.19,346.21A210.09,210.09,0,0,1,345,360.63l.15.46a211.06,211.06,0,0,0,29.3-14.46c11.33-6.94,20.2-13.62,20.29-13.69l-.3-.39C394.35,332.62,385.5,339.28,374.19,346.21Zm1,1.65A204,204,0,0,1,346.46,362l.15.46a203.79,203.79,0,0,0,28.84-14.19c11.32-6.95,19.41-13.16,19.49-13.22l-.29-.39C394.57,334.73,386.49,340.93,375.19,347.86Zm2,3.29a186,186,0,0,1-27.8,13.61l.16.46a187.44,187.44,0,0,0,27.9-13.65,182,182,0,0,0,17.92-12.29l-.31-.38A180.25,180.25,0,0,1,377.18,351.15Zm-1-1.64a195.48,195.48,0,0,1-28.26,13.87l.16.47a196.78,196.78,0,0,0,28.36-13.93,211.19,211.19,0,0,0,18.71-12.75l-.3-.38A214.28,214.28,0,0,1,376.18,349.51Zm-3-4.94a224,224,0,0,1-29.67,14.68l.16.47A226,226,0,0,0,373.46,345c11.32-6.94,21-14.08,21.07-14.15l-.29-.39C394.14,330.51,384.51,337.64,373.2,344.57ZM340.61,356.5l.16.46a243.28,243.28,0,0,0,30.7-15.27c11.32-6.94,22.53-15,22.65-15.09l-.29-.4c-.11.08-11.31,8.14-22.62,15.07A243.58,243.58,0,0,1,340.61,356.5Zm31.6-13.58a236.4,236.4,0,0,1-30.14,15l.16.46a237.58,237.58,0,0,0,30.23-15c11.33-6.94,21.76-14.55,21.86-14.63l-.29-.39C393.93,328.4,383.51,336,372.21,342.92Z" style="fill:#e0e0e0"></path><path d="M378.09,364.08c-15.14,7.9-34.8,18.83-56.47,18.45s-41.48-14.72-41.48-14.72a70.23,70.23,0,0,0,41.33,17.69c25.38,1.84,41.59-8.62,57.15-17,16.17-8.72,30-25.73,32.34-35.93C407.74,340.48,393.24,356.19,378.09,364.08Z" style="opacity:0.2"></path><g style="opacity:0.30000000000000004"><path d="M349.83,395.93c13.9-4.18,23.86-10.2,33.56-16.55s16.63-13.38,19.43-17c3.44-4.47,4.74-10.49,3-8.84-3.54,3.35-5.79,6.51-15.69,13.79-14.33,10.53-30.77,21.45-55.56,23.05a20.38,20.38,0,0,0-4.76.59C323.83,393.06,340.38,398.76,349.83,395.93Z"></path><path d="M297.53,385.32c1.38-.23,4.86.6,10.77,2.14s7.33,1.65,9.54,3.09c1.88,1.23,6.9,5.1,9.31,6.27,3.81,1.84,0,3.34-10.44,3.62s-14.17-2.78-16.67-5.94S294.38,385.84,297.53,385.32Z"></path><path d="M413.16,348.83a10.74,10.74,0,0,1-3.49,2c-1.8-.07-.34-3.2.82-7.85s4.86-9.55,6-13A71.41,71.41,0,0,1,413.16,348.83Z"></path></g><path d="M326.31,360.17c3.07.14,6,.59,8.76,2.53s7.75,6.76,4.57,10.44c-1.31,1.51-3.36,2.14-5.32,2.55a35.76,35.76,0,0,1-19.65-1.82,29.53,29.53,0,0,1-10.95-6.95,7.61,7.61,0,0,1-2.06-3.12,3.26,3.26,0,0,1,.93-3.45c1.09-.83,2.85-.85,4.16-.79l10.35.43C320.19,360.12,323.24,360,326.31,360.17Z" style="fill:#fafafa"></path><path d="M315.34,374.11a18.34,18.34,0,0,1-.07-13.72l.21-.47-8.73-.36c-1.31-.06-3.07,0-4.16.79a3.26,3.26,0,0,0-.93,3.45,7.61,7.61,0,0,0,2.06,3.12,29.53,29.53,0,0,0,10.95,6.95Z" style="fill:#860065"></path><path d="M315.34,374.11a18.34,18.34,0,0,1-.07-13.72l.21-.47-8.73-.36c-1.31-.06-3.07,0-4.16.79a3.26,3.26,0,0,0-.93,3.45,7.61,7.61,0,0,0,2.06,3.12,29.53,29.53,0,0,0,10.95,6.95Z" style="fill:#fff;opacity:0.6000000000000001"></path><path d="M400.18,313.9a36.4,36.4,0,0,0,2.31,16.92,2.16,2.16,0,0,0,.58.92c2.8,2.22,6.31-10.42,6.5-11.84.67-5.12-.93-12.74-3.5-18.11-1.09-2.27-2.41-3.18-3.38-.43a52.26,52.26,0,0,0-2,8.55C400.47,311.23,400.3,312.56,400.18,313.9Z" style="fill:#fafafa"></path><path d="M406.07,301.79c-1.09-2.27-2.41-3.18-3.38-.43a36.17,36.17,0,0,0-1.21,4.38,17.38,17.38,0,0,1,7.08,7.21c.39.75.73,1.54,1.07,2.32A39.84,39.84,0,0,0,406.07,301.79Z" style="fill:#860065"></path><path d="M406.07,301.79c-1.09-2.27-2.41-3.18-3.38-.43a36.17,36.17,0,0,0-1.21,4.38,17.38,17.38,0,0,1,7.08,7.21c.39.75.73,1.54,1.07,2.32A39.84,39.84,0,0,0,406.07,301.79Z" style="fill:#fff;opacity:0.6000000000000001"></path></g></g></g><g id="freepik--Icon--inject-13"><g id="freepik--Signal--inject-13"><g id="freepik--signal--inject-13"><path d="M152,171.27a1.74,1.74,0,0,1-2.8-1.33c-1.36-6.85-6.43-9.25-12.32-5.85s-11,11.66-12.32,20.07c-.37,2.28-1.92,4.45-3.47,4.85s-2.5-1.12-2.13-3.39c2-12.24,9.35-24.25,17.92-29.2s15.94-1.45,17.92,8.51a7,7,0,0,1-2.13,5.85A4.54,4.54,0,0,1,152,171.27Z" style="fill:#860065"></path><path d="M160.19,155.21a1.67,1.67,0,0,1-2.61-.71c-4-9.19-12.7-11.59-22.19-6.11s-18.21,17.94-22.19,31.73c-.67,2.31-2.38,4.13-3.82,4.08s-2.07-2-1.41-4.29c4.93-17,15.69-32.42,27.42-39.19s22.48-3.81,27.41,7.54c.67,1.54,0,4.18-1.4,5.9A4.42,4.42,0,0,1,160.19,155.21Z" style="fill:#860065"></path><path d="M167.56,140.32a1.67,1.67,0,0,1-2.51-.51c-6.31-11.38-18.24-13.82-31.13-6.37s-24.83,23.66-31.14,42.32c-.77,2.29-2.53,4-3.91,3.73S97,177.2,97.76,174.9c7.33-21.66,21.18-40.49,36.16-49.14s28.82-5.81,36.15,7.4c.78,1.4.28,4-1.1,5.86A5,5,0,0,1,167.56,140.32Z" style="fill:#860065"></path></g><g id="freepik--signal--inject-13" style="opacity:0.6000000000000001"><path d="M152,171.27a1.74,1.74,0,0,1-2.8-1.33c-1.36-6.85-6.43-9.25-12.32-5.85s-11,11.66-12.32,20.07c-.37,2.28-1.92,4.45-3.47,4.85s-2.5-1.12-2.13-3.39c2-12.24,9.35-24.25,17.92-29.2s15.94-1.45,17.92,8.51a7,7,0,0,1-2.13,5.85A4.54,4.54,0,0,1,152,171.27Z" style="fill:#fff"></path><path d="M160.19,155.21a1.67,1.67,0,0,1-2.61-.71c-4-9.19-12.7-11.59-22.19-6.11s-18.21,17.94-22.19,31.73c-.67,2.31-2.38,4.13-3.82,4.08s-2.07-2-1.41-4.29c4.93-17,15.69-32.42,27.42-39.19s22.48-3.81,27.41,7.54c.67,1.54,0,4.18-1.4,5.9A4.42,4.42,0,0,1,160.19,155.21Z" style="fill:#fff"></path><path d="M167.56,140.32a1.67,1.67,0,0,1-2.51-.51c-6.31-11.38-18.24-13.82-31.13-6.37s-24.83,23.66-31.14,42.32c-.77,2.29-2.53,4-3.91,3.73S97,177.2,97.76,174.9c7.33-21.66,21.18-40.49,36.16-49.14s28.82-5.81,36.15,7.4c.78,1.4.28,4-1.1,5.86A5,5,0,0,1,167.56,140.32Z" style="fill:#fff"></path></g></g></g></svg>
