<svg xmlns="http://www.w3.org/2000/svg" viewBox="0 0 500 500"><g id="freepik--Trees--inject-247"><g id="freepik--Tree--inject-247"><g id="freepik--tree--inject-247"><path d="M110.13,177.64a5.06,5.06,0,0,1,2.7.49,28.14,28.14,0,0,1,4.41,3.12,8.9,8.9,0,0,0,4.89,2.12c1.8.06,3.75-1.07,4.08-2.84a2.54,2.54,0,0,1,.23-.91,1.33,1.33,0,0,1,1.54-.39,8.09,8.09,0,0,1,1.48.85c1.83,1.08,4.11.84,6.21.53,1.75-.25,4-1,3.94-2.78,0-1.15-1-2-1.8-2.84s-1.43-2.17-.71-3.06a2.08,2.08,0,0,1,1-.62c2.18-.71,4.85.23,6.69-1.13a3.85,3.85,0,0,0,1-4.62,5.86,5.86,0,0,0-3.93-3c-1.46-.37-3.33-.55-3.87-2-.48-1.23.48-2.57,1.57-3.33s2.39-1.29,3.14-2.37a3.79,3.79,0,0,0,.11-3.91,4.78,4.78,0,0,0-3.29-2.25,7.37,7.37,0,0,1-2-.44,1.33,1.33,0,0,1-.74-1.68c.2-.36.61-.55.85-.88a1.6,1.6,0,0,0-.59-2.08,8.17,8.17,0,0,0-2.22-.85c-1.59-.53-2.4-1.36-1.93-3s2.74-1.55,3.41-3.15c.6-1.41-1-4.42-2.32-5.28a28.88,28.88,0,0,0-4.2-1.88c-1.38-.65-2.73-1.81-2.84-3.34s1.06-2.89,2-4.14,1.78-3,.94-4.32-2.6-1.36-4-1.82a6.51,6.51,0,0,1-4-3.58c-.39-.89-.57-1.86-1-2.7-1.43-2.65-5-3.8-7.81-3.48a3.15,3.15,0,0,0-2.65,1.8,4.19,4.19,0,0,0-1,1.83c-.21,1.28.46,2.9-.74,3.87-1.83,1.48-4.63-.51-4.53,2.8a14.32,14.32,0,0,0,.61,4.12c.5,1.39,1.5,2,.67,3.55-1.07,2-1.78,2-3.93,2-1.56,0-2.86-.08-4,1.1-2,2.08-.82,4,1,5.56,2,1.82,1,2.62.69,5-.13,1.13.13,1.48-.89,2.24-1.92,1.42-3,.94-2.45,3.73.49,2.55-.27,1.68-2.48,2.63-2,.84-3.25,3-4.83,4.26-1,.85-2.58,1.5-2.67,3-.19,2.84,3.35,2.22,5,2.9,2.74,1.11,1.92,4.7-.22,6.05s-5.58,2-5.76,5.21c-.14,2.5,1.28,3.05,3.21,3.89,1.55.66,1.35.86,1.35,2.7,0,3.72,1.25,4.78,4.92,4.17,1-.16,2.54-.59,3.54-.29,1.41.42.93.77,1,1.94.1,3,3.6,2.16,5.08.87C105.67,179.59,107.81,177.87,110.13,177.64Z" style="fill:#860065"></path><path d="M138.11,171.31c1.67-.55,3.64-.12,5.29-.51a20.67,20.67,0,0,0-3-.47,8.39,8.39,0,0,0-6.4,2.54,5.75,5.75,0,0,1,1.28,3.84c-4.15,1.13-8.25-4.44-12.2-2.75.24,2,0,4.71-2,5.16a3.18,3.18,0,0,1-3-1.46c-.71-.94-1.15-2.06-1.87-3a6.35,6.35,0,0,0-8.45-1.23c-.62.44-1.27,1.15-2.1,1a1.44,1.44,0,0,1-1.28-1.23c-.06-.83.6-1.5,1-2.21a5.59,5.59,0,0,0,.26-5.07,8.72,8.72,0,0,0-3.47-3.87c-1.29-.82-2.93-1.65-3.07-3.17-.12-1.31,1-2.44,1.13-3.74a6,6,0,0,0-1.21-3.53,5.22,5.22,0,0,1-.84-2.73,8.59,8.59,0,0,1,.07-1c.2-1.1,2-1.22,2.66-1.85,1.41-1.25.31-3.58.71-5.43.29-1.3,1.34-2.32,1.69-3.61.7-2.57-1.64-5-4.09-6.06a15.28,15.28,0,0,1-2.78-1.29l-.09-.07a5.11,5.11,0,0,0,2,3.22c2,1.82,1,2.62.69,5-.13,1.13.13,1.48-.89,2.24-1.92,1.42-3,.94-2.45,3.73.49,2.55-.27,1.68-2.48,2.63-2,.84-3.25,3-4.83,4.26-1,.85-2.58,1.5-2.67,3-.19,2.84,3.35,2.22,5,2.9,2.74,1.11,1.92,4.7-.22,6.05s-5.58,2-5.76,5.21c-.14,2.5,1.28,3.05,3.21,3.89,1.55.66,1.35.86,1.35,2.7,0,3.72,1.25,4.78,4.92,4.17,1-.16,2.54-.59,3.54-.29,1.41.42.93.77,1,1.94.1,3,3.6,2.16,5.08.87,1.71-1.48,3.85-3.2,6.17-3.43a5.06,5.06,0,0,1,2.7.49,28.14,28.14,0,0,1,4.41,3.12,8.9,8.9,0,0,0,4.89,2.12c1.8.06,3.75-1.07,4.08-2.84a2.54,2.54,0,0,1,.23-.91,1.33,1.33,0,0,1,1.54-.39,8.09,8.09,0,0,1,1.48.85c1.83,1.08,4.11.84,6.21.53,1.75-.25,4-1,3.94-2.78,0-1.15-1-2-1.8-2.84s-1.43-2.17-.71-3.06A2.08,2.08,0,0,1,138.11,171.31Z" style="opacity:0.15"></path><path d="M104.41,147l10,19.85v-9.13l1-38.91,1.48,38.91v6.14l11-19.24-11,23.62v69.44a.61.61,0,0,1-.37.51,2,2,0,0,1-1.77,0,.61.61,0,0,1-.36-.51V171.91Z" style="fill:#37474f"></path></g><g id="freepik--Bush--inject-247"><path id="freepik--bush--inject-247" d="M108.66,242.39c2.86.45,5.43-.34,5.87-3.44a27.44,27.44,0,0,0,0-7.68c-.13-.92-.46-2-1.35-2.25a1.71,1.71,0,0,0-1.85,1,4.89,4.89,0,0,0-.31,2.25c-.46-1-1.13-2.16-2.23-2.19a2.05,2.05,0,0,0-1.83,2.07,6,6,0,0,0,.93,2.87,2.81,2.81,0,0,0-2.23.35,2,2,0,0,0-.08,2.54,5.64,5.64,0,0,0,2.25,1.61,1,1,0,0,0-1.37.67,1.52,1.52,0,0,0,.59,1.54A3.28,3.28,0,0,0,108.66,242.39Z" style="fill:#455a64"></path><g id="freepik--bush--inject-247"><path id="freepik--bush--inject-247" d="M113.63,243.61s5.57-3.21,6.85-4a5.31,5.31,0,0,0,1.48-1.4,3.93,3.93,0,0,0,.84-1.77.91.91,0,0,0-.07-.67c-.25-.37-.84-.24-1.16.05s-.59.55-.93.92a10.45,10.45,0,0,0,.13-2.37,1,1,0,0,0-.29-.79.88.88,0,0,0-1,0,4,4,0,0,0-1.58,2.52,8.29,8.29,0,0,0-.1-3c-.23-1.08-1.47-1.5-1.89-.47a5.62,5.62,0,0,0-.36,1.72,6.65,6.65,0,0,0,.15,2.27,7,7,0,0,0-1.83-2.52,1.1,1.1,0,0,0-1-.37c-.43.16-.51.74-.46,1.2a6.66,6.66,0,0,0,.93,2.76,5.56,5.56,0,0,0-2.31-.9.69.69,0,0,0-.73.23.91.91,0,0,0,.16.95,5.6,5.6,0,0,0,1.84,1.71,6.08,6.08,0,0,0-2.24-.23.78.78,0,0,0-.6.25c-.2.29,0,.67.28.91a6.8,6.8,0,0,0,1.6,1,2.2,2.2,0,0,0-1,.16.79.79,0,0,0-.47.81,1,1,0,0,0,.72.64A4.78,4.78,0,0,0,113.63,243.61Z" style="fill:#860065"></path></g></g></g><g id="freepik--tree--inject-247"><g id="freepik--tree--inject-247"><path d="M76.51,211.59a4.9,4.9,0,0,1,2.71.49,27.31,27.31,0,0,1,4.41,3.12,8.86,8.86,0,0,0,4.89,2.11c1.8.06,3.75-1.06,4.07-2.84a2.56,2.56,0,0,1,.24-.9,1.31,1.31,0,0,1,1.54-.4,8.77,8.77,0,0,1,1.48.86c1.83,1.08,4.11.83,6.21.53,1.74-.26,3.94-1,3.94-2.79,0-1.15-1-2-1.8-2.83s-1.44-2.18-.71-3.07a2.16,2.16,0,0,1,1-.62c2.18-.71,4.85.24,6.69-1.13a3.84,3.84,0,0,0,1-4.61,5.9,5.9,0,0,0-3.93-3c-1.47-.37-3.33-.54-3.87-1.95-.48-1.23.48-2.57,1.56-3.33s2.4-1.29,3.15-2.38a3.75,3.75,0,0,0,.1-3.9,4.75,4.75,0,0,0-3.28-2.26,7.43,7.43,0,0,1-2-.43,1.33,1.33,0,0,1-.73-1.68c.19-.36.61-.55.85-.89a1.59,1.59,0,0,0-.59-2.07,8.11,8.11,0,0,0-2.23-.85c-1.58-.53-2.39-1.37-1.92-3s2.73-1.54,3.41-3.14c.59-1.42-1.05-4.42-2.32-5.29a30.48,30.48,0,0,0-4.2-1.87c-1.39-.66-2.73-1.82-2.84-3.35s1.06-2.89,2-4.14,1.77-3,.94-4.32-2.6-1.35-4-1.81a6.58,6.58,0,0,1-4-3.59c-.38-.88-.57-1.85-1-2.7-1.43-2.64-5-3.8-7.81-3.47a3.14,3.14,0,0,0-2.65,1.8,4.2,4.2,0,0,0-1,1.83c-.21,1.27.47,2.9-.74,3.87-1.82,1.48-4.62-.51-4.53,2.8a14.09,14.09,0,0,0,.62,4.12c.5,1.39,1.5,2,.67,3.55-1.08,2-1.78,2-3.93,2-1.56,0-2.86-.09-4,1.09-2,2.08-.82,4,1,5.56,2,1.82,1,2.62.68,5-.12,1.14.14,1.49-.88,2.24-1.92,1.42-3,.94-2.45,3.74.49,2.55-.27,1.67-2.48,2.62-2,.84-3.25,3-4.84,4.27-1,.84-2.57,1.5-2.67,3-.18,2.84,3.35,2.22,5,2.9,2.75,1.11,1.93,4.71-.21,6.06s-5.58,1.95-5.76,5.21c-.14,2.49,1.28,3,3.21,3.88,1.55.67,1.35.86,1.35,2.71,0,3.72,1.25,4.77,4.92,4.17,1-.17,2.54-.6,3.54-.29,1.4.42.93.76,1,1.94.1,3,3.6,2.16,5.08.87C72.05,213.54,74.2,211.82,76.51,211.59Z" style="fill:#860065"></path><path d="M76.51,211.59a4.9,4.9,0,0,1,2.71.49,27.31,27.31,0,0,1,4.41,3.12,8.86,8.86,0,0,0,4.89,2.11c1.8.06,3.75-1.06,4.07-2.84a2.56,2.56,0,0,1,.24-.9,1.31,1.31,0,0,1,1.54-.4,8.77,8.77,0,0,1,1.48.86c1.83,1.08,4.11.83,6.21.53,1.74-.26,3.94-1,3.94-2.79,0-1.15-1-2-1.8-2.83s-1.44-2.18-.71-3.07a2.16,2.16,0,0,1,1-.62c2.18-.71,4.85.24,6.69-1.13a3.84,3.84,0,0,0,1-4.61,5.9,5.9,0,0,0-3.93-3c-1.47-.37-3.33-.54-3.87-1.95-.48-1.23.48-2.57,1.56-3.33s2.4-1.29,3.15-2.38a3.75,3.75,0,0,0,.1-3.9,4.75,4.75,0,0,0-3.28-2.26,7.43,7.43,0,0,1-2-.43,1.33,1.33,0,0,1-.73-1.68c.19-.36.61-.55.85-.89a1.59,1.59,0,0,0-.59-2.07,8.11,8.11,0,0,0-2.23-.85c-1.58-.53-2.39-1.37-1.92-3s2.73-1.54,3.41-3.14c.59-1.42-1.05-4.42-2.32-5.29a30.48,30.48,0,0,0-4.2-1.87c-1.39-.66-2.73-1.82-2.84-3.35s1.06-2.89,2-4.14,1.77-3,.94-4.32-2.6-1.35-4-1.81a6.58,6.58,0,0,1-4-3.59c-.38-.88-.57-1.85-1-2.7-1.43-2.64-5-3.8-7.81-3.47a3.14,3.14,0,0,0-2.65,1.8,4.2,4.2,0,0,0-1,1.83c-.21,1.27.47,2.9-.74,3.87-1.82,1.48-4.62-.51-4.53,2.8a14.09,14.09,0,0,0,.62,4.12c.5,1.39,1.5,2,.67,3.55-1.08,2-1.78,2-3.93,2-1.56,0-2.86-.09-4,1.09-2,2.08-.82,4,1,5.56,2,1.82,1,2.62.68,5-.12,1.14.14,1.49-.88,2.24-1.92,1.42-3,.94-2.45,3.74.49,2.55-.27,1.67-2.48,2.62-2,.84-3.25,3-4.84,4.27-1,.84-2.57,1.5-2.67,3-.18,2.84,3.35,2.22,5,2.9,2.75,1.11,1.93,4.71-.21,6.06s-5.58,1.95-5.76,5.21c-.14,2.49,1.28,3,3.21,3.88,1.55.67,1.35.86,1.35,2.71,0,3.72,1.25,4.77,4.92,4.17,1-.17,2.54-.6,3.54-.29,1.4.42.93.76,1,1.94.1,3,3.6,2.16,5.08.87C72.05,213.54,74.2,211.82,76.51,211.59Z" style="fill:#fff;opacity:0.30000000000000004"></path><path d="M104.5,205.25c1.67-.54,3.63-.12,5.29-.5a19.48,19.48,0,0,0-3-.47,8.37,8.37,0,0,0-6.39,2.54,5.74,5.74,0,0,1,1.28,3.84c-4.15,1.12-8.25-4.45-12.21-2.76.24,2,0,4.72-2,5.16a3.19,3.19,0,0,1-3-1.45c-.72-.94-1.15-2.07-1.87-3a6.39,6.39,0,0,0-8.46-1.23c-1.07.78-2.41,2-3.49,1.18s-.45-3.1-1.72-3.73c-.84-.42-2,.25-2.74-.38a1.9,1.9,0,0,1-.48-1c-.5-2.13-.94-4.59.4-6.31,1.19-1.54,3.71-2.48,3.43-4.41-.23-1.64-2.32-2.14-4-2.33s-3.74-1-3.65-2.63,2.28-2.41,2.61-4c.14-.68-.1-1.44.22-2.07.47-.93,1.81-1,2.6-1.66,1.41-1.25.31-3.59.71-5.43.29-1.3,1.34-2.33,1.69-3.61.7-2.57-1.64-5-4.09-6.07a15,15,0,0,1-2.79-1.29l-.08-.06a5.07,5.07,0,0,0,2,3.21c2,1.82,1,2.62.68,5-.12,1.14.14,1.49-.88,2.24-1.92,1.42-3,.94-2.45,3.74.49,2.55-.27,1.67-2.48,2.62-2,.84-3.25,3-4.84,4.27-1,.84-2.57,1.5-2.67,3-.18,2.84,3.35,2.22,5,2.9,2.75,1.11,1.93,4.71-.21,6.06s-5.58,1.95-5.76,5.21c-.14,2.49,1.28,3,3.21,3.88,1.55.67,1.35.86,1.35,2.71,0,3.72,1.25,4.77,4.92,4.17,1-.17,2.54-.6,3.54-.29,1.4.42.93.76,1,1.94.1,3,3.6,2.16,5.08.87,1.7-1.48,3.85-3.2,6.16-3.43a4.9,4.9,0,0,1,2.71.49,27.31,27.31,0,0,1,4.41,3.12,8.86,8.86,0,0,0,4.89,2.11c1.8.06,3.75-1.06,4.07-2.84a2.56,2.56,0,0,1,.24-.9,1.31,1.31,0,0,1,1.54-.4,8.77,8.77,0,0,1,1.48.86c1.83,1.08,4.11.83,6.21.53,1.74-.26,3.94-1,3.94-2.79,0-1.15-1-2-1.8-2.83s-1.44-2.18-.71-3.07A2.16,2.16,0,0,1,104.5,205.25Z" style="fill:#860065;opacity:0.45"></path><path d="M70.79,180.94l10,19.85v-9.14l1-38.91,1.49,38.91v6.15l11-19.24-11,23.62v57.48a.64.64,0,0,1-.37.51,2,2,0,0,1-1.77,0,.63.63,0,0,1-.36-.51V205.85Z" style="fill:#37474f"></path></g><g id="freepik--bush--inject-247"><path id="freepik--bush--inject-247" d="M75,264.08c2.87.45,5.44-.34,5.87-3.44a27.44,27.44,0,0,0,0-7.68c-.13-.92-.46-2-1.36-2.25a1.71,1.71,0,0,0-1.84,1A5,5,0,0,0,77.4,254c-.45-1-1.12-2.16-2.23-2.19a2,2,0,0,0-1.82,2.07,6,6,0,0,0,.93,2.87,2.81,2.81,0,0,0-2.23.35,1.94,1.94,0,0,0-.08,2.54,5.68,5.68,0,0,0,2.24,1.61,1,1,0,0,0-1.36.67,1.53,1.53,0,0,0,.58,1.54A3.57,3.57,0,0,0,75,264.08Z" style="fill:#455a64"></path><g id="freepik--bush--inject-247"><path id="freepik--bush--inject-247" d="M80,265.3l6.84-4a5.2,5.2,0,0,0,1.49-1.4,3.93,3.93,0,0,0,.84-1.77.86.86,0,0,0-.08-.67c-.24-.37-.83-.24-1.15.05s-.59.55-.94.92a10.46,10.46,0,0,0,.14-2.37,1.09,1.09,0,0,0-.29-.79.86.86,0,0,0-1,0,4,4,0,0,0-1.59,2.52,8.08,8.08,0,0,0-.09-3c-.24-1.08-1.47-1.51-1.9-.47a6.2,6.2,0,0,0-.36,1.72,6.91,6.91,0,0,0,.16,2.27,7.4,7.4,0,0,0-1.83-2.53c-.29-.26-.69-.51-1-.36s-.51.74-.46,1.2a6.38,6.38,0,0,0,.93,2.76,5.6,5.6,0,0,0-2.32-.9.66.66,0,0,0-.72.23.94.94,0,0,0,.15.95,5.75,5.75,0,0,0,1.85,1.71,5.9,5.9,0,0,0-2.25-.23.77.77,0,0,0-.6.25c-.19.29,0,.67.28.91a6.5,6.5,0,0,0,1.61,1,2.35,2.35,0,0,0-1,.17.79.79,0,0,0-.47.81,1,1,0,0,0,.72.64A4.84,4.84,0,0,0,80,265.3Z" style="fill:#860065"></path></g></g></g></g><g id="freepik--Streetlight--inject-247"><g id="freepik--city-lights--inject-247"><path d="M40.89,287.88a1,1,0,0,0,1-1V104a12.32,12.32,0,0,1,5.49-9.5l15.92-9.22c1.27-.73,2.41-.88,3.21-.42s1.24,1.52,1.24,3v19.09a1,1,0,0,0,2.08,0V87.8c0-2.24-.81-3.94-2.28-4.79s-3.35-.7-5.29.42L46.38,92.65A14.23,14.23,0,0,0,39.85,104V286.84A1,1,0,0,0,40.89,287.88Z"></path><path d="M65.38,102.45a8.28,8.28,0,0,1,7.51,0,2.62,2.62,0,0,1,1.56,2.16v1.54a2.65,2.65,0,0,1-1.56,2.17,8.35,8.35,0,0,1-7.51,0,2.66,2.66,0,0,1-1.55-2.17v-1.54A2.63,2.63,0,0,1,65.38,102.45Z" style="fill:#455a64"></path><path d="M65.38,104c-2.07,1.2-2.07,3.14,0,4.34a8.28,8.28,0,0,0,7.51,0c2.08-1.2,2.08-3.14,0-4.34A8.28,8.28,0,0,0,65.38,104Z" style="fill:#37474f"></path><path d="M64,118.72H74.31v-12a2.58,2.58,0,0,0-1.51-2.12,8.13,8.13,0,0,0-7.32,0A2.58,2.58,0,0,0,64,106.67h0Z" style="fill:#860065"></path><path d="M64,118.72H74.31v-12a2.58,2.58,0,0,0-1.51-2.12,8.13,8.13,0,0,0-7.32,0A2.58,2.58,0,0,0,64,106.67h0Z" style="fill:#fff;opacity:0.7000000000000001"></path><path d="M72.8,120.83c2-1.17,2-3.06,0-4.22a8.07,8.07,0,0,0-7.32,0c-2,1.16-2,3,0,4.22A8.07,8.07,0,0,0,72.8,120.83Z" style="fill:#860065"></path><path d="M72.8,120.83c2-1.17,2-3.06,0-4.22a8.07,8.07,0,0,0-7.32,0c-2,1.16-2,3,0,4.22A8.07,8.07,0,0,0,72.8,120.83Z" style="fill:#fff;opacity:0.5"></path><path d="M66,108.41a3.11,3.11,0,1,1,3.11,3.1A3.11,3.11,0,0,1,66,108.41Z" style="fill:#fff;opacity:0.2"></path><path d="M64,112.11a6.34,6.34,0,0,0,10.34,0v-5.44a2.58,2.58,0,0,0-1.51-2.12,8.13,8.13,0,0,0-7.32,0A2.58,2.58,0,0,0,64,106.67Z" style="fill:#fff;opacity:0.2"></path><path d="M67.7,108.41a1.44,1.44,0,1,1,1.44,1.44A1.44,1.44,0,0,1,67.7,108.41Z" style="fill:#fff;opacity:0.4"></path><path d="M65.38,116.1a8.28,8.28,0,0,1,7.51,0,2.64,2.64,0,0,1,1.56,2.17v1.53A2.65,2.65,0,0,1,72.89,122a8.35,8.35,0,0,1-7.51,0,2.66,2.66,0,0,1-1.55-2.17v-1.53A2.64,2.64,0,0,1,65.38,116.1Z" style="fill:#455a64"></path><path d="M65.38,117.63c-2.07,1.2-2.07,3.14,0,4.34a8.35,8.35,0,0,0,7.51,0c2.08-1.2,2.08-3.14,0-4.34A8.28,8.28,0,0,0,65.38,117.63Z" style="fill:#37474f"></path></g></g><g id="freepik--Towing--inject-247"><g id="freepik--towing--inject-247"><g id="freepik--Truck--inject-247"><polygon points="403.77 283.16 419.98 273.81 419.98 254.59 403.77 263.95 403.77 283.16" style="fill:#e0e0e0"></polygon><polygon points="403.77 283.16 419.98 273.81 419.98 254.59 403.77 263.95 403.77 283.16" style="opacity:0.30000000000000004"></polygon><polygon points="403.77 283.16 387.56 273.81 387.56 254.59 403.77 263.95 403.77 283.16"></polygon><path d="M369.59,287.8a2.08,2.08,0,0,0,.68-1.35c.11-.72.24-1.43.39-2.15a1.47,1.47,0,0,0-.07-1.06l-.22-.12c-.2-.12-.22-.6,0-1.13l1.37-3.93c.2-.59.58-1,.85-1s.69-.37,1-.92.69-1.36,1.06-2a1.81,1.81,0,0,0,.28-1.44,1.54,1.54,0,0,1,.36-1.34l2.37-3.18c.3-.39.64-.57.83-.46l.41.23a1.15,1.15,0,0,0,.65-.38c.47-.47.95-.92,1.44-1.34a2.08,2.08,0,0,0,.73-1.34,1.56,1.56,0,0,1,.73-1.17l2.74-1.57a.59.59,0,0,1,.56-.07l1.34.78a9.82,9.82,0,0,1,1-.2,1.36,1.36,0,0,0,1-.88.91.91,0,0,1,.92-.68l2.37.45a.39.39,0,0,1,.15.06l11.76,6.76a.66.66,0,0,1,.25.71l2.92,1.68a.53.53,0,0,1,.19.2l1.37,2.36a1.27,1.27,0,0,1-.11,1.27,1.81,1.81,0,0,0-.22,1.42,16.32,16.32,0,0,1,.39,1.7l1,.56c.15.08.25.33.25.68v3.63a1.64,1.64,0,0,1-.53,1.29,2,2,0,0,0-.67,1.34c-.1.73-.24,1.45-.39,2.17a1.46,1.46,0,0,0,.07,1.06l.21.12c.19.11.21.59,0,1.12l-1.37,3.94c-.2.58-.57,1-.83,1s-.66.37-.93.93-.7,1.38-1.08,2a1.88,1.88,0,0,0-.3,1.41c.15.25,0,.84-.37,1.31l-2.37,3.18c-.3.4-.64.6-.82.49l-.36-.2a1.16,1.16,0,0,0-.67.4c-.49.49-1,.95-1.48,1.38a2,2,0,0,0-.73,1.28,1.47,1.47,0,0,1-.74,1.11l-2.73,1.58a.58.58,0,0,1-.57.07c-.11-.05-1.22-.7-1.22-.7a8.2,8.2,0,0,1-1.16.23,1.28,1.28,0,0,0-.95.82.89.89,0,0,1-.9.63l-2.37-.46a.44.44,0,0,1-.16-.06l-11.76-6.76a.64.64,0,0,1-.25-.7l-2.89-1.67a.56.56,0,0,1-.21-.22l-1.37-2.36a1.25,1.25,0,0,1,.09-1.25,1.74,1.74,0,0,0,.22-1.4,17.34,17.34,0,0,1-.39-1.72v0l-.95-.55c-.15-.08-.25-.33-.25-.68v-3.64A1.63,1.63,0,0,1,369.59,287.8Z" style="fill:#37474f"></path><path d="M380.81,299.49v-3.63a1.61,1.61,0,0,1,.54-1.29,2.06,2.06,0,0,0,.68-1.35c.11-.72.24-1.44.4-2.16s0-1.1-.23-1.15-.31-.57-.11-1.15l1.37-3.94c.21-.58.59-1,.85-1s.69-.37,1-.93.69-1.35,1.06-2a1.79,1.79,0,0,0,.28-1.43,1.53,1.53,0,0,1,.36-1.34l2.37-3.18c.36-.47.77-.64.92-.37s.59.14,1-.25.95-.92,1.44-1.33a2.11,2.11,0,0,0,.72-1.34,1.52,1.52,0,0,1,.74-1.17l2.74-1.57c.4-.24.73-.09.73.32a.52.52,0,0,0,.73.5,9.78,9.78,0,0,1,1.44-.31,1.37,1.37,0,0,0,1-.88.91.91,0,0,1,.92-.68l2.37.45c.35.07.51.48.36.93a1,1,0,0,0,.28,1.11,7.29,7.29,0,0,1,1.06.79.65.65,0,0,0,1-.18c.27-.36.65-.36.85,0l1.37,2.36a1.27,1.27,0,0,1-.11,1.27,1.81,1.81,0,0,0-.22,1.42,16.32,16.32,0,0,1,.39,1.7c.09.48.38.74.68.57s.54.13.54.67v3.63a1.64,1.64,0,0,1-.53,1.29,2,2,0,0,0-.67,1.34c-.1.73-.24,1.45-.39,2.17s0,1.11.21,1.16.3.56.1,1.14l-1.37,3.94c-.2.58-.57,1-.83,1s-.66.37-.93.93-.7,1.38-1.08,2a1.88,1.88,0,0,0-.3,1.41c.15.25,0,.84-.37,1.31l-2.37,3.18c-.35.47-.76.66-.9.41s-.57-.11-.95.28-1,.95-1.48,1.38a2,2,0,0,0-.73,1.28,1.47,1.47,0,0,1-.74,1.11l-2.73,1.58c-.41.23-.74.11-.74-.27s-.33-.57-.73-.45a8.92,8.92,0,0,1-1.48.32,1.28,1.28,0,0,0-.95.82.89.89,0,0,1-.9.63l-2.37-.46a.62.62,0,0,1-.37-.88.92.92,0,0,0-.3-1.06,7.68,7.68,0,0,1-1.08-.82.61.61,0,0,0-.93.14.46.46,0,0,1-.83,0l-1.37-2.36a1.25,1.25,0,0,1,.1-1.26,1.76,1.76,0,0,0,.21-1.39c-.15-.55-.28-1.12-.39-1.73s-.37-.75-.66-.58S380.81,300,380.81,299.49Z" style="fill:#455a64"></path><path d="M387,262.87l10.37,6,.05,0a.45.45,0,0,1,.17.39.51.51,0,0,0,.72.5l.46-.12a8.9,8.9,0,0,1,1-.19,1.14,1.14,0,0,0,.6-.32l-11.75-6.77a1.11,1.11,0,0,1-.6.32C387.68,262.73,387.36,262.8,387,262.87Z" style="fill:#263238"></path><path d="M381.35,265.74l11.76,6.76a1.63,1.63,0,0,0,.29-.83,1.27,1.27,0,0,1,.21-.64l-11.76-6.76a1.27,1.27,0,0,0-.21.64A1.73,1.73,0,0,1,381.35,265.74Z"></path><path d="M378.82,268l11.29,6.51.06,0a.19.19,0,0,1,.09.09.28.28,0,0,0,.33.13,1.19,1.19,0,0,0,.65-.37c.47-.48.95-.93,1.44-1.34a2.21,2.21,0,0,0,.43-.52l-11.76-6.76a2.74,2.74,0,0,1-.44.51c-.49.42-1,.86-1.44,1.34A1.15,1.15,0,0,1,378.82,268Z" style="fill:#263238"></path><path d="M372.23,277.21,384,284a.37.37,0,0,1,.31-.11c.27.05.69-.37,1-.93s.69-1.35,1.06-2a1.79,1.79,0,0,0,.28-1.43.67.67,0,0,1-.05-.36l-11.76-6.76a.56.56,0,0,0,.05.35,1.81,1.81,0,0,1-.28,1.44c-.38.65-.72,1.32-1.06,2s-.69,1-1,.93A.37.37,0,0,0,372.23,277.21Z" style="fill:#263238"></path><path d="M384,284l-11.77-6.76a.37.37,0,0,1,.32-.11l.15,0,11.76,6.76a.41.41,0,0,1-.15,0A.37.37,0,0,0,384,284Z"></path><path d="M374.85,272.72a.56.56,0,0,1-.05-.35l11.76,6.76a.67.67,0,0,0,.05.36.79.79,0,0,1,0,.5l-11.76-6.77A.79.79,0,0,0,374.85,272.72Z"></path><path d="M369.23,288.25,381,295a.88.88,0,0,1,.34-.44,2.06,2.06,0,0,0,.68-1.35c.11-.72.24-1.44.4-2.16a1.36,1.36,0,0,0-.1-1.07h0l-.13-.07-.11-.06-11.5-6.61a1.5,1.5,0,0,1,.08,1.06c-.16.72-.29,1.44-.4,2.15a2.14,2.14,0,0,1-.68,1.36A1,1,0,0,0,369.23,288.25Z" style="fill:#263238"></path><path d="M369.59,287.81a1.24,1.24,0,0,0,.4-.5l11.77,6.76a1.25,1.25,0,0,1-.41.5.88.88,0,0,0-.34.44l-11.78-6.76A1,1,0,0,1,369.59,287.81Z"></path><path d="M370.23,297.58,382,304.35a1.35,1.35,0,0,1,.21-.49,1.85,1.85,0,0,0,.21-1.39,16.92,16.92,0,0,1-.39-1.73h0c-.08-.48-.37-.74-.66-.57a.31.31,0,0,1-.32,0L370.25,294v0c.11.6.24,1.18.39,1.72a1.74,1.74,0,0,1-.22,1.4A1.08,1.08,0,0,0,370.23,297.58Z" style="fill:#263238"></path><path d="M382.19,303.86a1.35,1.35,0,0,0-.21.49l-11.75-6.77a1.08,1.08,0,0,1,.19-.48,1.45,1.45,0,0,0,.24-.61l11.76,6.76A1.58,1.58,0,0,1,382.19,303.86Z"></path><path d="M404.68,270.38a7.29,7.29,0,0,1,1.06.79.64.64,0,0,0,1-.18.51.51,0,0,1,.63-.22l0,0-2.85-1.64s0,.11,0,.17A1,1,0,0,0,404.68,270.38Z" style="fill:#263238"></path><path d="M375.06,303.3h0l0,0,.18.1L386.71,310l.07,0a.68.68,0,0,1-.18-.8.94.94,0,0,0-.3-1.07,6.92,6.92,0,0,1-1.08-.81.61.61,0,0,0-.93.14.49.49,0,0,1-.54.23l-.11-.05-8.84-5.08A.64.64,0,0,0,375.06,303.3Z"></path><path d="M392.35,308.9l1.22.7a.35.35,0,0,1-.17-.34c0-.38-.33-.57-.73-.45Z" style="fill:#263238"></path><path d="M400.51,303.78l.28.16a.08.08,0,0,1,0,0A.24.24,0,0,0,400.51,303.78Z" style="fill:#263238"></path><path d="M409,277.73c.08.48.38.74.68.57a.3.3,0,0,1,.24,0l-.08,0-.13-.08Z" style="fill:#263238"></path><path d="M388.62,262.36l11.75,6.77a1.47,1.47,0,0,0,.38-.56,1,1,0,0,1,.41-.54l-11.77-6.76a1.07,1.07,0,0,0-.4.54A1.49,1.49,0,0,1,388.62,262.36Z"></path><path d="M373.78,293.66c0,5.9,2,10.06,5.09,11.85.92.52,1.32.74,2.11,1.2-3.07-1.82-5-5.95-5-11.81,0-10.78,6.58-23.31,14.71-28,3.5-2,6.73-2.23,9.25-1l-1.8-1c-2.59-1.49-5.95-1.35-9.64.77C380.37,270.34,373.78,282.87,373.78,293.66Z" style="fill:#37474f"></path><path d="M376,294.91c0,5.85,1.94,10,5,11.8l1.41.81c-3.06-1.81-5-5.95-5-11.79,0-10.79,6.59-23.32,14.71-28,3.63-2.09,7-2.25,9.53-.82l-1.7-1c-2.52-1.26-5.75-1-9.25,1C382.55,271.59,376,284.12,376,294.91Z"></path><path d="M381.85,264.27,393.61,271a1.61,1.61,0,0,1,.52-.52l2.75-1.57a.56.56,0,0,1,.51-.09l-10.37-6-.88-.49-.31-.18-.17-.1a.6.6,0,0,0-.55.07l-2.73,1.58A1.47,1.47,0,0,0,381.85,264.27Z" style="fill:#37474f"></path><path d="M374.8,272.37l11.76,6.76a2.15,2.15,0,0,1,.41-1l2.37-3.18c.27-.35.57-.54.77-.49L378.82,268l-.41-.23c-.2-.12-.53.06-.83.46l-2.37,3.19A2,2,0,0,0,374.8,272.37Z" style="fill:#37474f"></path><path d="M370.35,283.1l.06,0,.18.1,11.5,6.61a1.25,1.25,0,0,1,0-1.09l1.37-3.94A1.92,1.92,0,0,1,384,284l-11.77-6.76a2.14,2.14,0,0,0-.53.85L370.33,282C370.15,282.5,370.17,283,370.35,283.1Z" style="fill:#37474f"></path><path d="M369.05,289.1v3.63c0,.35.1.6.25.68l.95.55,10.78,6.2a.85.85,0,0,1-.22-.66v-3.64a1.87,1.87,0,0,1,.2-.85h0l-11.78-6.76A2.12,2.12,0,0,0,369.05,289.1Z" style="fill:#37474f"></path><path d="M370.33,298.35l1.37,2.36a.45.45,0,0,0,.21.22l.64.37.24.14,2,1.16,8.84,5.08a.71.71,0,0,1-.18-.2l-1.37-2.36a1.25,1.25,0,0,1-.11-.77l-11.75-6.77A1.11,1.11,0,0,0,370.33,298.35Z" style="fill:#37474f"></path><path d="M387.47,293.85c0,5.89,3.6,8.6,8,6s8-9.4,8-15.29-3.6-8.6-8-6.05S387.47,288,387.47,293.85Zm1.39-.8c0-4.87,3-10.53,6.65-12.64s6.64.13,6.64,5-3,10.53-6.64,12.64S388.86,297.93,388.86,293.05Z" style="fill:#860065"></path><path d="M388.86,293.05a7.24,7.24,0,0,0,1.17,4.33c1.19,1.62,3.2,2,5.47.68,3.68-2.12,6.66-7.77,6.66-12.65,0-3.41-1.46-5.53-3.59-5.77a5,5,0,0,0-3.07.76C391.83,282.52,388.86,288.18,388.86,293.05Z" style="fill:#860065"></path><path d="M388.86,293.05a7.24,7.24,0,0,0,1.17,4.33c1.19,1.62,3.2,2,5.47.68,3.68-2.12,6.66-7.77,6.66-12.65,0-3.41-1.46-5.53-3.59-5.77a5,5,0,0,0-3.07.76C391.83,282.52,388.86,288.18,388.86,293.05Z" style="opacity:0.4"></path><path d="M388.86,293.05a7.24,7.24,0,0,0,1.17,4.33,5,5,0,0,0,3.08-.77c3.67-2.1,6.64-7.77,6.64-12.64a7.15,7.15,0,0,0-1.18-4.33,5,5,0,0,0-3.07.76C391.83,282.52,388.86,288.18,388.86,293.05Z" style="fill:#263238"></path><path d="M396.41,286.18l.94,3.33,2.4-7.91a3.13,3.13,0,0,0-.45-1.6Z" style="fill:#860065"></path><path d="M396.41,286.18l.94,3.33,2.4-7.91a3.13,3.13,0,0,0-.45-1.6Z" style="opacity:0.2"></path><path d="M397.6,288.39l-2.48,3.81,1.68,2a5.16,5.16,0,0,0,1.28-1.87Z" style="fill:#860065"></path><path d="M397.6,288.39l-2.48,3.81,1.68,2a5.16,5.16,0,0,0,1.28-1.87Z" style="opacity:0.2"></path><path d="M389.27,295.86a4.9,4.9,0,0,0,.65,1.36l6-5.46-2.08-.82-.15.69-.61-.25h0Z" style="fill:#860065"></path><path d="M389.27,295.86a4.9,4.9,0,0,0,.65,1.36l6-5.46-2.08-.82-.15.69-.61-.25h0Z" style="opacity:0.2"></path><path d="M389.11,290.5l3.94.88h0l.37-.59.39.15.64-3-.48.27,0-.78-4,0A16.71,16.71,0,0,0,389.11,290.5Z" style="fill:#860065"></path><path d="M389.11,290.5l3.94.88h0l.37-.59.39.15.64-3-.48.27,0-.78-4,0A16.71,16.71,0,0,0,389.11,290.5Z" style="opacity:0.2"></path><path d="M394,287.41l.59-.19-.15.7,2.59-1.49-2.28-5.55a11.44,11.44,0,0,0-1.92,1.79Z" style="fill:#860065"></path><path d="M394,287.41l.59-.19-.15.7,2.59-1.49-2.28-5.55a11.44,11.44,0,0,0-1.92,1.79Z" style="opacity:0.2"></path><path d="M393,290.68c0,1.84,1.13,2.69,2.52,1.89a6,6,0,0,0,2.51-4.79c0-1.84-1.13-2.69-2.51-1.89A6,6,0,0,0,393,290.68Z" style="fill:#860065"></path><path d="M434.49,207.18v39L403.63,264c-3-5.63-8.85-7.25-15.58-3.37S375.4,273,372.41,282.08l-3.24,1.84V175L420,145.65l13.22,50A45.75,45.75,0,0,1,434.49,207.18Z" style="fill:#f0f0f0"></path><path d="M420,145.65l-1.9,1.1,13.23,50a46.39,46.39,0,0,1,1.29,11.51V211c0,1.52.42,2.51,1,2.2l.95-.55v-5.51a45.75,45.75,0,0,0-1.3-11.5Z" style="fill:#37474f"></path><path d="M422.73,211.12l-2,1.15a1.6,1.6,0,0,0-.74,1.27v1c0,.47.33.66.74.43l2-1.15a1.6,1.6,0,0,0,.74-1.27v-.95C423.47,211.08,423.14,210.89,422.73,211.12Z" style="fill:#860065"></path><path d="M422.73,211.12l-2,1.15a1.6,1.6,0,0,0-.74,1.27v1c0,.47.33.66.74.43l2-1.15a1.6,1.6,0,0,0,.74-1.27v-.95C423.47,211.08,423.14,210.89,422.73,211.12Z" style="fill:#fff;opacity:0.7000000000000001"></path><path d="M433,244.76c-.82.48-1.48-.14-1.48-1.38v-5.52a3.83,3.83,0,0,1,1.48-3.09l1.48-.86v10Z" style="fill:#860065"></path><path d="M433,244.76c-.82.48-1.48-.14-1.48-1.38v-5.52a3.83,3.83,0,0,1,1.48-3.09l1.48-.86v10Z" style="fill:#fff;opacity:0.7000000000000001"></path><g style="opacity:0.2"><path d="M380.26,259.83a2.3,2.3,0,0,1-1-.21c-.62-.3-1.37-1-1.37-2.87V181.07a10.86,10.86,0,0,1,5-8.62L407,158.53a5.37,5.37,0,0,1,4.67-.59,3.42,3.42,0,0,1,2,2.35l11.68,44.19a42.36,42.36,0,0,1,1.22,10.73v24.37a10.86,10.86,0,0,1-5,8.62L409.79,255c-2.64,1.53-5.87,1.55-7.51.06-3.51-3.19-8.64-3.1-14.45.26a33.21,33.21,0,0,0-4.21,2.94A5.66,5.66,0,0,1,380.26,259.83ZM410.1,159a5,5,0,0,0-2.42.71l-24.12,13.92a9.52,9.52,0,0,0-4.31,7.46v75.68c0,.51.08,1.41.61,1.66s1.47,0,2.91-1.15a35,35,0,0,1,4.39-3.06c6.36-3.67,12-3.71,16-.09,1,.94,3.6,1.12,5.94-.23L421,247a9.55,9.55,0,0,0,4.31-7.46V215.21a41.1,41.1,0,0,0-1.18-10.39L412.4,160.63a2.09,2.09,0,0,0-1.23-1.46A2.87,2.87,0,0,0,410.1,159Z"></path></g><path d="M417.7,204.94l-9.42-35.54c-.59-2.22-3.14-2.82-5.71-1.34l-14,8.07a10.27,10.27,0,0,0-4.64,8v29.37c0,3,1.83,4.8,4.09,4.12l8.16-2.49c1.65-.5,2.87-.06,3.5,1.29.83,1.78,2.67,2,5.16.54l9.28-5.36C416.69,210.16,418.29,207.16,417.7,204.94Z" style="fill:#860065"></path><path d="M417.7,204.94l-9.42-35.54c-.59-2.22-3.14-2.82-5.71-1.34l-14,8.07a10.27,10.27,0,0,0-4.64,8v29.37c0,3,1.83,4.8,4.09,4.12l8.16-2.49c1.65-.5,2.87-.06,3.5,1.29.83,1.78,2.67,2,5.16.54l9.28-5.36C416.69,210.16,418.29,207.16,417.7,204.94Z" style="fill:#fff;opacity:0.8"></path><path d="M413.86,190.46l-14.93,25a2.71,2.71,0,0,1,.76,1,2.44,2.44,0,0,0,2.84,1.43l12.88-21.6Z" style="fill:#fff;opacity:0.8"></path><path d="M383.94,201.38l20.26-34a6.09,6.09,0,0,0-1.63.65l-5.76,3.32L383.94,193Z" style="fill:#fff;opacity:0.8"></path><path d="M408.28,169.4a2.92,2.92,0,0,0-.56-1.08L383.94,208.2v5.34c0,3,1.83,4.8,4.09,4.12l3.61-1.1,20.17-33.84Z" style="fill:#fff;opacity:0.8"></path><path d="M402,218.91a3.55,3.55,0,0,1-1.09-.16,3.35,3.35,0,0,1-2.05-1.88c-.29-.61-.81-1.25-2.35-.78l-8.17,2.49a3.76,3.76,0,0,1-3.39-.54,5.48,5.48,0,0,1-1.93-4.5V184.17a11.17,11.17,0,0,1,5.12-8.87l14-8.07a5.63,5.63,0,0,1,4.93-.62,3.73,3.73,0,0,1,2.19,2.55l9.42,35.53c.7,2.66-1.06,6.08-4,7.78l-9.27,5.36A6.93,6.93,0,0,1,402,218.91Zm-4.54-4.9a3.32,3.32,0,0,1,3.14,2,1.45,1.45,0,0,0,.88.87,4.08,4.08,0,0,0,2.93-.75l9.28-5.36c2.17-1.25,3.6-3.83,3.12-5.62l-9.42-35.54a1.79,1.79,0,0,0-1.07-1.27,3.86,3.86,0,0,0-3.23.51l-14,8.07a9.36,9.36,0,0,0-4.16,7.21v29.37a3.64,3.64,0,0,0,1.16,3,1.85,1.85,0,0,0,1.69.24l8.17-2.49A5.2,5.2,0,0,1,397.42,214Z" style="fill:#455a64"></path><path d="M381.81,228.28v6.8c0,1,.69,1.39,1.54.89l0,0a3.4,3.4,0,0,0,1.55-2.68v-6.79c0-1-.69-1.39-1.55-.9l0,0A3.45,3.45,0,0,0,381.81,228.28Z" style="fill:#455a64"></path><path d="M274.83,120.51,369.17,175,420,145.65s-8.89-11.43-41.88-30.48-52.46-24-52.46-24Z" style="fill:#fafafa"></path><path d="M378.09,115.17c-33-19-52.46-24-52.46-24l-1.9,1.1s19.47,4.94,52.46,24,41.88,30.48,41.88,30.48l1.9-1.09S411.08,134.22,378.09,115.17Z" style="fill:#e0e0e0"></path><polygon points="404.95 268.41 404.95 265.07 397.69 260.88 397.69 264.22 404.95 268.41" style="fill:#263238"></polygon><path d="M399.61,259.7c-3.1-1.76-7.15-1.59-11.56,1-6.77,3.89-12.65,12.31-15.64,21.42l4.43,2.56c3-9.11,8.86-17.52,15.63-21.42,4.44-2.55,8.5-2.72,11.61-.93Z" style="fill:#455a64"></path><path d="M392.48,263.23c-6.77,3.88-12.65,12.29-15.62,21.4l4.92-2.84c2.94-6.72,7.48-12.59,12.47-15.47a11,11,0,0,1,5.27-1.64c2.32,0,4.2,1.35,5.43,3.73l3.11-1.79C405.09,261,399.23,259.35,392.48,263.23Z" style="fill:#37474f"></path><polygon points="274.83 120.51 369.17 174.98 369.17 283.93 274.83 229.45 274.83 120.51" style="fill:#e0e0e0"></polygon><path d="M307.72,147.89l28.55,16.48a8.53,8.53,0,0,1,3.87,6.7v16.21c0,2.46-1.73,3.46-3.87,2.23L307.72,173a8.58,8.58,0,0,1-3.86-6.7V150.12C303.85,147.65,305.59,146.65,307.72,147.89Z" style="fill:#860065"></path><path d="M307.72,147.89l28.55,16.48a8.53,8.53,0,0,1,3.87,6.7v16.21c0,2.46-1.73,3.46-3.87,2.23L307.72,173a8.58,8.58,0,0,1-3.86-6.7V150.12C303.85,147.65,305.59,146.65,307.72,147.89Z" style="fill:#fff;opacity:0.8"></path><path d="M318.31,154l-10.59-6.11a2.72,2.72,0,0,0-2.69-.29L326.74,184l9.53,5.51c1.31.76,2.47.67,3.17-.08Z" style="fill:#fff;opacity:0.8"></path><polygon points="319.71 179.95 303.86 153.35 303.86 161.11 312.66 175.88 319.71 179.95" style="fill:#fff;opacity:0.8"></polygon><polygon points="325.73 158.28 340.14 182.45 340.14 177.34 330.38 160.96 325.73 158.28" style="fill:#fff;opacity:0.8"></polygon><path d="M338,191a4.45,4.45,0,0,1-2.21-.66l-28.54-16.48a9.49,9.49,0,0,1-4.35-7.53V150.12a3.3,3.3,0,0,1,5.31-3.07l28.55,16.49a9.47,9.47,0,0,1,4.35,7.53v16.21a3.61,3.61,0,0,1-1.61,3.33A2.93,2.93,0,0,1,338,191Zm-32-42.68a1,1,0,0,0-.53.13,1.85,1.85,0,0,0-.66,1.67v16.21a7.63,7.63,0,0,0,3.38,5.87l28.55,16.48a1.44,1.44,0,0,0,2.43-1.4V171.07a7.61,7.61,0,0,0-3.39-5.87l-28.55-16.48A2.49,2.49,0,0,0,306,148.32Z" style="fill:#455a64"></path><path d="M434.49,240.25l5.36,3.11a9.87,9.87,0,0,1,4.94,8.55v7.76a10,10,0,0,1-5,8.6l-14.73,8.5-5.14-3V254.6l14.52-8.38Z" style="fill:#455a64"></path><path d="M439.94,249l-14.84,8.57-5.13-3,14.52-8.38v-6l5.46,3.16A3.22,3.22,0,0,1,439.94,249Z" style="fill:#37474f"></path><polygon points="425.11 276.77 425.1 257.56 419.98 254.6 419.98 273.81 425.11 276.77" style="fill:#263238"></polygon><path d="M439.07,210.44a3.34,3.34,0,0,1-1.65-.48l-3.86-2.23a6.68,6.68,0,0,1-3.06-5.3V187.62a2.55,2.55,0,0,1,2.44-2.84,3.31,3.31,0,0,1,1.65.48l3.86,2.23a6.66,6.66,0,0,1,3.06,5.3v14.8C441.51,209.27,440.51,210.44,439.07,210.44Z" style="fill:#455a64"></path><path d="M434.08,186.15l3.86,2.23a5.64,5.64,0,0,1,2.54,4.41v14.8c0,1.63-1.14,2.29-2.54,1.47l-3.87-2.23a5.62,5.62,0,0,1-2.54-4.4V187.62C431.53,186,432.67,185.34,434.08,186.15Z" style="fill:#860065"></path><path d="M434.08,186.15l3.86,2.23a5.64,5.64,0,0,1,2.54,4.41v14.8c0,1.63-1.14,2.29-2.54,1.47l-3.87-2.23a5.62,5.62,0,0,1-2.54-4.4V187.62C431.53,186,432.67,185.34,434.08,186.15Z" style="fill:#fff;opacity:0.7000000000000001"></path><g style="opacity:0.2"><path d="M440.48,193.25v-.46a5.14,5.14,0,0,0-.71-2.44l-8.24,8.24v3.61Z" style="fill:#fff"></path><polygon points="431.53 194.81 437.95 188.39 437.94 188.38 436.19 187.37 431.53 192.03 431.53 194.81" style="fill:#fff"></polygon><path d="M433.09,206l7.39-7.39v-1.12l-7.89,7.89A5,5,0,0,0,433.09,206Z" style="fill:#fff"></path><polygon points="440.48 202.2 435.2 207.49 436.98 208.51 440.48 205.01 440.48 202.2" style="fill:#fff"></polygon></g><polygon points="374.49 153.26 301.92 111.36 316.43 102.98 389.01 144.88 374.49 153.26" style="fill:#860065"></polygon><polygon points="374.49 153.26 301.92 111.36 316.43 102.98 389.01 144.88 374.49 153.26" style="fill:#fff;opacity:0.8"></polygon><polygon points="301.92 111.36 297.61 117.25 374.49 161.64 374.49 153.26 301.92 111.36" style="fill:#860065"></polygon><polygon points="301.92 111.36 297.61 117.25 374.49 161.64 374.49 153.26 301.92 111.36" style="fill:#fff;opacity:0.6000000000000001"></polygon><polygon points="389.01 144.88 393.25 150.8 374.49 161.64 374.49 153.26 389.01 144.88" style="fill:#860065"></polygon><polygon points="389.01 144.88 393.25 150.8 374.49 161.64 374.49 153.26 389.01 144.88" style="fill:#fff;opacity:0.7000000000000001"></polygon><polygon points="345.46 136.5 359.98 128.12 345.46 119.74 330.95 128.12 345.46 136.5" style="fill:#fafafa"></polygon><polygon points="345.46 136.5 342.18 142.98 327.11 134.28 330.95 128.12 345.46 136.5" style="fill:#ebebeb"></polygon></g><g id="freepik--Back--inject-247"><polygon points="368.09 267.81 368.09 301.32 339.07 318.08 339.07 284.56 368.09 267.81" style="fill:#455a64"></polygon><polygon points="368.09 267.81 281 217.52 251.97 234.28 339.07 284.56 368.09 267.81" style="fill:#37474f"></polygon><polygon points="251.97 234.28 251.97 267.8 339.07 318.08 339.07 284.56 251.97 234.28" style="fill:#263238"></polygon><path d="M301.06,59.23a2.46,2.46,0,0,1,2.46-.53h0l4.16,2.4-.11.27a3.16,3.16,0,0,1,.52,1.48,7.76,7.76,0,0,1-2.73,6.45A3.17,3.17,0,0,1,304,70l-.12.28-4.15-2.4h0a2.4,2.4,0,0,1-1.36-2.14A7.73,7.73,0,0,1,301.06,59.23Z" style="fill:#860065"></path><path d="M301.06,59.23a2.46,2.46,0,0,1,2.46-.53h0l4.16,2.4-.11.27a3.16,3.16,0,0,1,.52,1.48,7.76,7.76,0,0,1-2.73,6.45A3.17,3.17,0,0,1,304,70l-.12.28-4.15-2.4h0a2.4,2.4,0,0,1-1.36-2.14A7.73,7.73,0,0,1,301.06,59.23Z" style="opacity:0.15"></path><path d="M305.31,61.67a7.75,7.75,0,0,0-2.73,6.45c.27,2.21,1.94,2.92,3.72,1.57A7.72,7.72,0,0,0,309,63.24C308.76,61,307.09,60.32,305.31,61.67Z" style="fill:#860065"></path><path d="M304.26,66.84a1.51,1.51,0,0,0,.22.66c.31.51.92.58,1.56.1a3.7,3.7,0,0,0,1.31-3.08c-.09-.69-.45-1.07-.93-1.08a1.39,1.39,0,0,0-.85.32A3.73,3.73,0,0,0,304.26,66.84Z" style="fill:#860065"></path><path d="M304.26,66.84a1.51,1.51,0,0,0,.22.66c.31.51.92.58,1.56.1a3.7,3.7,0,0,0,1.31-3.08c-.09-.69-.45-1.07-.93-1.08a1.39,1.39,0,0,0-.85.32A3.73,3.73,0,0,0,304.26,66.84Z" style="opacity:0.30000000000000004"></path><path d="M304.26,66.84a1.51,1.51,0,0,0,.22.66,1.4,1.4,0,0,0,.86-.33,3.69,3.69,0,0,0,1.3-3.07,1.51,1.51,0,0,0-.22-.66,1.39,1.39,0,0,0-.85.32A3.73,3.73,0,0,0,304.26,66.84Z" style="fill:#455a64"></path><path d="M324.41,72.82a1.84,1.84,0,0,0-1-1.6h0l-15.64-9h0a1.81,1.81,0,0,0-1.84.4,5.76,5.76,0,0,0-2,4.82,1.81,1.81,0,0,0,1,1.6h0l15.63,9h0a1.82,1.82,0,0,0,1.84-.39A5.8,5.8,0,0,0,324.41,72.82Z" style="fill:#455a64"></path><polygon points="300.22 244.12 304.58 70.65 318.55 78.72 322 256.69 300.22 244.12" style="fill:#860065"></polygon><path d="M311.67,113.15a.58.58,0,0,1-.59,0L270.17,89.11a.6.6,0,0,1-.24-.54,1.91,1.91,0,0,1,.86-1.47.6.6,0,0,1,.6,0l40.91,24.09a.6.6,0,0,1,.24.54A1.9,1.9,0,0,1,311.67,113.15Z" style="fill:#455a64"></path><path d="M211.27,119.31l86.67-53.78a9.76,9.76,0,0,1,10-.16l13.11,7.57-9.53.37-86.73,53.82a4.7,4.7,0,0,0-1.91,3.52v.79a1.39,1.39,0,0,0,.58,1.28l-13.55-7.82a1.39,1.39,0,0,1-.58-1.28v-.79A4.68,4.68,0,0,1,211.27,119.31Z" style="fill:#860065"></path><path d="M211.27,119.31l86.67-53.78a9.76,9.76,0,0,1,10-.16l13.11,7.57-9.53.37-86.73,53.82a4.7,4.7,0,0,0-1.91,3.52v.79a1.39,1.39,0,0,0,.58,1.28l-13.55-7.82a1.39,1.39,0,0,1-.58-1.28v-.79A4.68,4.68,0,0,1,211.27,119.31Z" style="fill:#fff;opacity:0.45"></path><path d="M335.41,248.94,326.26,81a9.65,9.65,0,0,0-14.71-7.67l-86.73,53.82a4.7,4.7,0,0,0-1.91,3.52v.79c0,1.26.88,1.77,2,1.14L311.1,82.81a5.08,5.08,0,0,1,7.62,4.3L322,256.69Z" style="fill:#860065"></path><path d="M335.41,248.94,326.26,81a9.65,9.65,0,0,0-14.71-7.67l-86.73,53.82a4.7,4.7,0,0,0-1.91,3.52v.79c0,1.26.88,1.77,2,1.14L311.1,82.81a5.08,5.08,0,0,1,7.62,4.3L322,256.69Z" style="fill:#fff;opacity:0.25"></path><path d="M225.29,128.38a2.55,2.55,0,0,0-1.17,2c0,.74.52,1,1.17.67a2.59,2.59,0,0,0,1.16-2C226.45,128.31,225.93,128,225.29,128.38Z" style="fill:#37474f"></path><path d="M271.65,88.43a.6.6,0,0,1-.31.51l-43.72,18.49a.58.58,0,0,1-.58-.13,1.88,1.88,0,0,1-.66-1.56.6.6,0,0,1,.31-.52c.09,0,43.62-18.46,43.72-18.49a.58.58,0,0,1,.58.13A1.88,1.88,0,0,1,271.65,88.43Z" style="fill:#455a64"></path><path d="M227.94,106.92a1.88,1.88,0,0,0-.66-1.57c-.43-.32-.84-.15-.9.39a1.88,1.88,0,0,0,.66,1.56C227.47,107.63,227.88,107.46,227.94,106.92Z" style="fill:#37474f"></path><path d="M203.57,178.9l5.44,3.15a.84.84,0,0,0,.27.13,1,1,0,0,0,.3,0,1.76,1.76,0,0,0,.89-.28c1.84-1,4.1-4.89,5-8.54l11.34-41.94-1.94,1.12a1.35,1.35,0,0,1-1.5.07c-.36-.19-1.53-.87-3.07-1.78l-.19-.11a.92.92,0,0,1-.22-.26,2,2,0,0,1-.23-.63,1.09,1.09,0,0,1,0-.32v-.78a4.71,4.71,0,0,1,1.92-3.53l8.15-5.31,3.79-15a.34.34,0,0,0,0-.14c.09-.32.16-.64.23-1a19.43,19.43,0,0,0,.27-2c0-.27,0-.55,0-.8v-.29a.47.47,0,0,0,0-.18,4.61,4.61,0,0,0,0-.55,5.31,5.31,0,0,0-.28-1.3,2.12,2.12,0,0,0-.22-.48,1.53,1.53,0,0,0-.16-.25l-.21-.27-.07-.07a2.49,2.49,0,0,0-.38-.3l-5.56-3.19a3,3,0,0,0-3,.39c-3.72,2.12-7.66,8.86-8.84,15L202.91,174C202.4,176.58,202.72,178.4,203.57,178.9Z" style="fill:#860065"></path><path d="M203.57,178.9l5.44,3.15a.84.84,0,0,0,.27.13,1,1,0,0,0,.3,0,1.76,1.76,0,0,0,.89-.28c1.84-1,4.1-4.89,5-8.54l11.34-41.94-1.94,1.12a1.35,1.35,0,0,1-1.5.07c-.36-.19-1.53-.87-3.07-1.78l-.19-.11a1.06,1.06,0,0,1-.38-.62.9.9,0,0,1-.07-.27,1.09,1.09,0,0,1,0-.32v-.78a4.71,4.71,0,0,1,1.92-3.53l8.15-5.31,3.79-15a.34.34,0,0,0,0-.14c.09-.32.16-.64.23-1a19.43,19.43,0,0,0,.27-2,7.68,7.68,0,0,0,0-1.27,4.61,4.61,0,0,0,0-.55,4.75,4.75,0,0,0-.5-1.78,1.53,1.53,0,0,0-.16-.25l-.21-.27-.07-.07a2.49,2.49,0,0,0-.38-.3l-5.56-3.19a3,3,0,0,0-3,.39c-3.72,2.12-7.66,8.86-8.84,15L202.91,174C202.4,176.58,202.72,178.4,203.57,178.9Z" style="fill:#fff;opacity:0.25"></path><path d="M209,182.05a.84.84,0,0,0,.27.13,1,1,0,0,0,.3,0,1.76,1.76,0,0,0,.89-.28c1.84-1,4.1-4.89,5-8.54l11.35-41.95-2,1.12a1.36,1.36,0,0,1-1.47.09l-3.1-1.79a1.46,1.46,0,0,1-.67-1.4v-.7a4.71,4.71,0,0,1,1.92-3.53l8.15-5.31,3.79-15a.34.34,0,0,0,0-.14c.09-.32.16-.64.23-1a19.43,19.43,0,0,0,.27-2c0-.27,0-.55,0-.8a3.47,3.47,0,0,0,0-.47,4.61,4.61,0,0,0,0-.55,5.31,5.31,0,0,0-.28-1.3,2.12,2.12,0,0,0-.22-.48,1.53,1.53,0,0,0-.16-.25l-.21-.27-.07-.07a2.49,2.49,0,0,0-.38-.3c-.76-.45-1.8-.34-3.08.39-3.69,2.14-7.65,8.86-8.84,15l-.07.34-3.1,16.15-9.15,47.84C207.94,179.68,208.21,181.48,209,182.05Z" style="fill:#860065"></path><path d="M209,182.05a.84.84,0,0,0,.27.13,1,1,0,0,0,.3,0,1.76,1.76,0,0,0,.89-.28c1.84-1,4.1-4.89,5-8.54l11.35-41.95-2,1.12a1.36,1.36,0,0,1-1.47.09l-3.1-1.79a1.46,1.46,0,0,1-.67-1.4v-.7a4.71,4.71,0,0,1,1.92-3.53l8.15-5.31,3.79-15a.34.34,0,0,0,0-.14c.09-.32.16-.64.23-1a19.43,19.43,0,0,0,.27-2c0-.27,0-.55,0-.8a3.47,3.47,0,0,0,0-.47,4.61,4.61,0,0,0,0-.55,5.31,5.31,0,0,0-.28-1.3,2.12,2.12,0,0,0-.22-.48,1.53,1.53,0,0,0-.16-.25l-.21-.27-.07-.07a2.49,2.49,0,0,0-.38-.3c-.76-.45-1.8-.34-3.08.39-3.69,2.14-7.65,8.86-8.84,15l-.07.34-3.1,16.15-9.15,47.84C207.94,179.68,208.21,181.48,209,182.05Z" style="opacity:0.1"></path><path d="M202.5,181.14a.58.58,0,0,1-.24-.55c0-.1,9.64-49.5,9.66-49.6a.58.58,0,0,1,.43-.4,1.88,1.88,0,0,1,1.67.32.58.58,0,0,1,.25.55l-9.66,49.61a.61.61,0,0,1-.44.39A1.89,1.89,0,0,1,202.5,181.14Z" style="fill:#455a64"></path><path d="M212.17,131.55a1.87,1.87,0,0,0,1.66.33.52.52,0,0,0,.19-1,1.88,1.88,0,0,0-1.67-.32C211.84,130.76,211.76,131.19,212.17,131.55Z" style="fill:#37474f"></path><path d="M232.74,108c1.58,1.58,2.76,3.36,2.8,5.17s-1,3.41-3.22,4.79c-2.34,1.48-5.89,2.74-9.65,4.09-7.67,2.73-16.36,5.84-18,11.77-1.46,5.33,2.33,9.11,4,9.68l-.11.57h0c-2.28-.72-5.93-5-4.46-10.39,1.71-6.22,10.55-9.37,18.35-12.16,3.73-1.33,7.25-2.59,9.53-4,2-1.26,3-2.71,3-4.29a7.21,7.21,0,0,0-2.39-4.56" style="fill:#37474f"></path><path d="M202.9,180.84v10.88a.44.44,0,0,0,.88,0V180.84Z" style="fill:#455a64"></path><path d="M205.69,191.72a2.36,2.36,0,1,1-2.35-2.36A2.35,2.35,0,0,1,205.69,191.72Z" style="fill:#455a64"></path><path d="M202.37,206a2.07,2.07,0,0,1-1-.28,3.71,3.71,0,0,1-1.45-3.36.68.68,0,0,1,1.36,0c0,1.28.4,2,.77,2.18a1,1,0,0,0,1-.11c1.31-.76,2.42-3.17,2.42-5.27,0-1.28-.39-2-.76-2.18a1,1,0,0,0-1,.11.68.68,0,0,1-1-.59v-4a.68.68,0,1,1,1.36,0v3a2,2,0,0,1,1.32.25,3.71,3.71,0,0,1,1.45,3.36c0,2.61-1.37,5.45-3.11,6.45A2.6,2.6,0,0,1,202.37,206Z" style="fill:#455a64"></path><path d="M321.28,70.88a2.45,2.45,0,0,1,2.46-.53h0l4.16,2.4-.11.27a3.16,3.16,0,0,1,.53,1.48A7.76,7.76,0,0,1,325.59,81a3.34,3.34,0,0,1-1.41.65l-.12.28-4.15-2.4h0a2.4,2.4,0,0,1-1.36-2.14A7.7,7.7,0,0,1,321.28,70.88Z" style="fill:#860065"></path><path d="M321.28,70.88a2.45,2.45,0,0,1,2.46-.53h0l4.16,2.4-.11.27a3.16,3.16,0,0,1,.53,1.48A7.76,7.76,0,0,1,325.59,81a3.34,3.34,0,0,1-1.41.65l-.12.28-4.15-2.4h0a2.4,2.4,0,0,1-1.36-2.14A7.7,7.7,0,0,1,321.28,70.88Z" style="opacity:0.15"></path><path d="M325.53,73.32a7.69,7.69,0,0,0-2.73,6.45c.27,2.21,1.94,2.92,3.72,1.57a7.75,7.75,0,0,0,2.73-6.45C329,72.68,327.31,72,325.53,73.32Z" style="fill:#860065"></path><path d="M324.48,78.49a1.66,1.66,0,0,0,.21.66c.32.51.93.58,1.57.1a3.69,3.69,0,0,0,1.3-3.08c-.08-.69-.44-1.07-.92-1.08a1.33,1.33,0,0,0-.85.32A3.7,3.7,0,0,0,324.48,78.49Z" style="fill:#860065"></path><path d="M324.48,78.49a1.66,1.66,0,0,0,.21.66c.32.51.93.58,1.57.1a3.69,3.69,0,0,0,1.3-3.08c-.08-.69-.44-1.07-.92-1.08a1.33,1.33,0,0,0-.85.32A3.7,3.7,0,0,0,324.48,78.49Z" style="opacity:0.30000000000000004"></path><path d="M324.48,78.49a1.66,1.66,0,0,0,.21.66,1.36,1.36,0,0,0,.86-.33,3.7,3.7,0,0,0,1.31-3.07,1.65,1.65,0,0,0-.22-.66,1.33,1.33,0,0,0-.85.32A3.7,3.7,0,0,0,324.48,78.49Z" style="fill:#455a64"></path><polygon points="348.95 293.42 348.95 321.73 322.54 336.98 322.54 308.67 348.95 293.42" style="fill:#37474f"></polygon><polygon points="322.54 308.67 322.54 336.98 296.13 352.23 296.13 323.92 322.54 308.67" style="fill:#37474f"></polygon><polygon points="296.13 352.23 288.59 347.87 288.59 323.92 292.36 326.1 296.13 323.92 296.13 352.23" style="fill:#263238"></polygon><polygon points="323.5 336.43 323.49 308.12 321.61 309.21 321.61 337.52 323.5 336.43" style="fill:#263238"></polygon><polygon points="310.29 324.46 310.29 320.1 308.4 321.19 308.4 325.55 310.29 324.46" style="fill:#e0e0e0"></polygon><polygon points="336.69 309.22 336.7 304.86 334.81 305.95 334.81 310.31 336.69 309.22" style="fill:#e0e0e0"></polygon><polygon points="291.77 326.43 291.77 346.03 253.89 367.9 253.89 348.3 291.77 326.43" style="fill:#37474f"></polygon><polygon points="253.89 367.9 291.77 346.03 293.64 347.14 253.89 370.07 253.89 367.9" style="fill:#263238"></polygon><polygon points="293.64 349.32 293.64 347.15 253.89 370.07 253.89 372.26 293.64 349.32" style="fill:#455a64"></polygon><polygon points="221.8 329.77 221.8 349.38 253.89 367.9 253.89 348.3 221.8 329.77" style="fill:#263238"></polygon><polygon points="253.89 367.9 221.8 349.38 219.94 350.48 253.89 370.07 253.89 367.9"></polygon><polygon points="219.94 352.67 219.94 350.49 253.89 370.07 253.89 372.26 219.94 352.67" style="fill:#263238"></polygon><path d="M208.5,380.8a2.06,2.06,0,0,0,.68-1.35c.11-.72.24-1.44.4-2.16a1.43,1.43,0,0,0-.08-1.05l-.21-.13c-.21-.12-.23-.59,0-1.12l1.37-3.94c.21-.58.59-1,.85-1s.69-.37,1-.93.69-1.35,1.06-2a1.75,1.75,0,0,0,.28-1.43,1.53,1.53,0,0,1,.36-1.34l2.37-3.18c.3-.4.64-.58.83-.47l.41.24a1.23,1.23,0,0,0,.66-.39c.47-.47,1-.92,1.44-1.34a2.09,2.09,0,0,0,.72-1.33,1.52,1.52,0,0,1,.74-1.17l2.74-1.58a.56.56,0,0,1,.55-.06l1.34.77a9.4,9.4,0,0,1,1-.19,1.39,1.39,0,0,0,1-.88.94.94,0,0,1,.92-.69l2.37.46a.34.34,0,0,1,.15.06l11.76,6.76a.65.65,0,0,1,.25.71l2.92,1.67a.56.56,0,0,1,.19.21l1.37,2.36a1.24,1.24,0,0,1-.11,1.27,1.77,1.77,0,0,0-.22,1.41,14.28,14.28,0,0,1,.39,1.71l1,.55a.78.78,0,0,1,.26.68v3.64a1.62,1.62,0,0,1-.54,1.28,2,2,0,0,0-.67,1.35c-.1.72-.23,1.45-.39,2.17a1.47,1.47,0,0,0,.07,1.06l.21.11c.2.12.22.59,0,1.13l-1.37,3.93c-.2.59-.57,1-.83,1s-.66.38-.93.94-.7,1.38-1.08,2a1.81,1.81,0,0,0-.29,1.41c.14.25,0,.83-.38,1.31l-2.37,3.18c-.3.4-.63.59-.82.49l-.35-.21a1.27,1.27,0,0,0-.68.4c-.48.49-1,.95-1.48,1.38a2,2,0,0,0-.73,1.28,1.5,1.5,0,0,1-.73,1.12l-2.74,1.57a.62.62,0,0,1-.57.08l-1.22-.7a9.75,9.75,0,0,1-1.15.23,1.3,1.3,0,0,0-1,.81.86.86,0,0,1-.9.63l-2.37-.45a.76.76,0,0,1-.16-.06L214,396.29a.62.62,0,0,1-.26-.7l-2.89-1.66a.64.64,0,0,1-.21-.22l-1.37-2.36a1.25,1.25,0,0,1,.1-1.26,1.78,1.78,0,0,0,.21-1.4c-.15-.54-.28-1.11-.39-1.72h0s-.86-.51-.95-.55a.8.8,0,0,1-.25-.69v-3.63A1.61,1.61,0,0,1,208.5,380.8Z" style="fill:#37474f"></path><path d="M219.72,392.49v-3.64a1.65,1.65,0,0,1,.55-1.29,2,2,0,0,0,.67-1.35c.11-.71.24-1.43.4-2.15s0-1.11-.23-1.16-.31-.56-.1-1.15l1.37-3.93c.2-.59.58-1,.85-1s.68-.37,1-.92.68-1.36,1.05-2a1.82,1.82,0,0,0,.29-1.44c-.16-.26,0-.86.35-1.34l2.38-3.18c.35-.47.76-.63.91-.37s.59.15,1-.24.95-.92,1.44-1.34a2,2,0,0,0,.72-1.34,1.54,1.54,0,0,1,.74-1.17l2.74-1.57c.4-.23.73-.09.73.32a.53.53,0,0,0,.73.51,9.84,9.84,0,0,1,1.44-.32,1.33,1.33,0,0,0,1-.88.93.93,0,0,1,.92-.68l2.37.45c.36.07.52.49.36.93a1,1,0,0,0,.28,1.11,6.79,6.79,0,0,1,1.06.79.64.64,0,0,0,1-.17c.27-.36.65-.36.85,0l1.37,2.36a1.24,1.24,0,0,1-.11,1.27,1.77,1.77,0,0,0-.22,1.41,14.28,14.28,0,0,1,.39,1.71c.09.47.38.74.68.57s.55.12.55.66v3.64a1.62,1.62,0,0,1-.54,1.28,2,2,0,0,0-.67,1.35c-.1.72-.23,1.45-.39,2.17s0,1.1.22,1.15.29.56.09,1.15l-1.37,3.93c-.2.59-.57,1-.82,1s-.67.38-.94.94-.7,1.38-1.08,2a1.81,1.81,0,0,0-.29,1.41c.14.25,0,.83-.38,1.31l-2.37,3.18c-.35.47-.75.65-.9.4s-.57-.11-1,.28-1,.95-1.48,1.38a2,2,0,0,0-.73,1.28,1.5,1.5,0,0,1-.73,1.12l-2.74,1.57c-.41.23-.74.12-.74-.27s-.32-.56-.72-.44a10.64,10.64,0,0,1-1.48.32,1.3,1.3,0,0,0-1,.81.85.85,0,0,1-.89.63l-2.38-.45a.62.62,0,0,1-.37-.88.94.94,0,0,0-.3-1.07,6.47,6.47,0,0,1-1.07-.82.63.63,0,0,0-.94.15.47.47,0,0,1-.83,0L221,398.11a1.2,1.2,0,0,1,.09-1.25,1.83,1.83,0,0,0,.22-1.4,14.45,14.45,0,0,1-.39-1.72c-.09-.48-.37-.75-.67-.58S219.72,393,219.72,392.49Z" style="fill:#455a64"></path><path d="M225.93,355.87l10.37,6,0,0a.43.43,0,0,1,.17.39.52.52,0,0,0,.73.5l.45-.12a9.14,9.14,0,0,1,1-.2,1.13,1.13,0,0,0,.59-.31l-11.75-6.77a1.09,1.09,0,0,1-.6.31C226.6,355.73,226.27,355.79,225.93,355.87Z" style="fill:#263238"></path><path d="M220.26,358.74,232,365.5a1.77,1.77,0,0,0,.29-.83,1.18,1.18,0,0,1,.21-.64l-11.77-6.76a1.27,1.27,0,0,0-.21.64A1.77,1.77,0,0,1,220.26,358.74Z"></path><path d="M217.73,361l11.29,6.5.06,0a.22.22,0,0,1,.09.1.31.31,0,0,0,.33.13,1.21,1.21,0,0,0,.65-.38c.47-.47.95-.92,1.44-1.34a2.41,2.41,0,0,0,.44-.51l-11.77-6.76a2.1,2.1,0,0,1-.43.5c-.5.42-1,.87-1.44,1.34A1.3,1.3,0,0,1,217.73,361Z" style="fill:#263238"></path><path d="M211.14,370.21,222.91,377a.4.4,0,0,1,.31-.12c.27,0,.69-.37,1-.92s.69-1.36,1.06-2a1.77,1.77,0,0,0,.28-1.44.62.62,0,0,1-.05-.35l-11.75-6.76a.5.5,0,0,0,.05.35,1.83,1.83,0,0,1-.29,1.44c-.37.65-.72,1.32-1,2s-.7,1-1,.93A.42.42,0,0,0,211.14,370.21Z" style="fill:#263238"></path><path d="M222.91,377l-11.77-6.76a.42.42,0,0,1,.32-.12.26.26,0,0,0,.15,0l11.76,6.76a.26.26,0,0,1-.15,0A.4.4,0,0,0,222.91,377Z"></path><path d="M213.77,365.72a.5.5,0,0,1-.05-.35l11.75,6.76a.62.62,0,0,0,.05.35.79.79,0,0,1,0,.5l-11.76-6.76A1,1,0,0,0,213.77,365.72Z"></path><path d="M208.15,381.24,219.92,388a.94.94,0,0,1,.35-.44,2.08,2.08,0,0,0,.67-1.35c.11-.72.24-1.43.4-2.15a1.34,1.34,0,0,0-.1-1.08h0l-.13-.07-.1-.07-11.51-6.6a1.38,1.38,0,0,1,.08,1.05c-.16.72-.29,1.44-.4,2.16a2,2,0,0,1-.68,1.35A1,1,0,0,0,208.15,381.24Z" style="fill:#263238"></path><path d="M208.5,380.8a1.19,1.19,0,0,0,.41-.5l11.76,6.76a1.25,1.25,0,0,1-.4.5.94.94,0,0,0-.35.44l-11.77-6.76A1,1,0,0,1,208.5,380.8Z"></path><path d="M209.14,390.57l11.76,6.77a1.14,1.14,0,0,1,.2-.48,1.63,1.63,0,0,0,.25-.66,1.82,1.82,0,0,0,0-.74,14.91,14.91,0,0,1-.39-1.72v0c-.09-.47-.37-.73-.67-.57a.27.27,0,0,1-.32,0L209.16,387h0c.11.61.24,1.18.39,1.72a1.71,1.71,0,0,1-.22,1.4A1.13,1.13,0,0,0,209.14,390.57Z" style="fill:#263238"></path><path d="M221.1,396.86a1.14,1.14,0,0,0-.2.48l-11.76-6.77a1.13,1.13,0,0,1,.19-.48,1.35,1.35,0,0,0,.24-.6l11.76,6.76A1.58,1.58,0,0,1,221.1,396.86Z"></path><path d="M243.6,363.37a7.11,7.11,0,0,1,1.05.8.66.66,0,0,0,1-.18.49.49,0,0,1,.62-.23l0,0-2.84-1.63s0,.1-.05.16A.94.94,0,0,0,243.6,363.37Z" style="fill:#263238"></path><path d="M214,396.29h0l.18.1L225.62,403l.08.05a.67.67,0,0,1-.19-.8.92.92,0,0,0-.3-1.07,7.42,7.42,0,0,1-1.08-.81.6.6,0,0,0-.93.13.49.49,0,0,1-.54.24l-.1-.06-8.84-5.08A.61.61,0,0,0,214,396.29Z"></path><path d="M231.27,401.9l1.21.7a.36.36,0,0,1-.16-.34c0-.38-.34-.57-.74-.46Z" style="fill:#263238"></path><path d="M239.42,396.77l.28.16,0,0A.24.24,0,0,0,239.42,396.77Z" style="fill:#263238"></path><path d="M247.9,370.72c.08.49.37.75.67.57a.32.32,0,0,1,.25,0l-.08-.05-.14-.07Z" style="fill:#263238"></path><path d="M227.53,355.36l11.75,6.77a1.4,1.4,0,0,0,.38-.57,1.13,1.13,0,0,1,.41-.54l-11.77-6.76a1.12,1.12,0,0,0-.4.54A1.41,1.41,0,0,1,227.53,355.36Z"></path><path d="M212.69,386.65c0,5.9,2,10.06,5.09,11.85l2.11,1.2c-3.07-1.81-5-5.95-5-11.8,0-10.79,6.58-23.32,14.71-28,3.51-2,6.73-2.23,9.26-1l-1.81-1c-2.59-1.49-5.95-1.36-9.64.76C219.28,363.33,212.69,375.87,212.69,386.65Z" style="fill:#37474f"></path><path d="M214.88,387.9c0,5.85,1.94,10,5,11.81l1.41.8c-3.06-1.81-5-5.94-5-11.79,0-10.78,6.59-23.31,14.71-28,3.64-2.09,7-2.24,9.53-.82l-1.69-1c-2.53-1.26-5.75-1.05-9.26,1C221.46,364.58,214.88,377.12,214.88,387.9Z"></path><path d="M220.76,357.27,232.53,364a1.47,1.47,0,0,1,.52-.53l2.74-1.57a.63.63,0,0,1,.51-.09l-10.37-6-.88-.5-.31-.18-.16-.09a.59.59,0,0,0-.55.06l-2.74,1.58A1.68,1.68,0,0,0,220.76,357.27Z" style="fill:#37474f"></path><path d="M213.72,365.37l11.75,6.76a2.1,2.1,0,0,1,.42-1l2.36-3.18c.27-.35.58-.54.77-.49L217.73,361l-.41-.24c-.19-.11-.53.07-.82.47l-2.38,3.18A2,2,0,0,0,213.72,365.37Z" style="fill:#37474f"></path><path d="M209.26,376.09l.07.05.17.1,11.51,6.6a1.21,1.21,0,0,1,0-1.09l1.36-3.93a1.81,1.81,0,0,1,.54-.85l-11.77-6.76a2,2,0,0,0-.52.85L209.24,375C209.07,375.5,209.08,376,209.26,376.09Z" style="fill:#37474f"></path><path d="M208,382.09v3.63a.78.78,0,0,0,.25.69l.95.55,10.78,6.19a.83.83,0,0,1-.22-.66v-3.64a2,2,0,0,1,.2-.84h0l-11.77-6.76A2,2,0,0,0,208,382.09Z" style="fill:#37474f"></path><path d="M209.24,391.35l1.37,2.36a.64.64,0,0,0,.21.22l.64.36.24.14,2,1.16,8.84,5.08a.68.68,0,0,1-.19-.19L221,398.11a1.11,1.11,0,0,1-.11-.77l-11.76-6.77A1.19,1.19,0,0,0,209.24,391.35Z" style="fill:#37474f"></path><path d="M226.38,386.84c0,5.89,3.6,8.6,8,6.05s8-9.39,8-15.28-3.59-8.6-8-6.05S226.38,381,226.38,386.84Zm1.39-.79c0-4.88,3-10.54,6.65-12.65s6.65.13,6.65,5-3,10.54-6.65,12.65S227.77,390.92,227.77,386.05Z" style="fill:#860065"></path><path d="M227.77,386.05a7.21,7.21,0,0,0,1.17,4.32c1.2,1.62,3.2,2,5.47.68,3.68-2.11,6.66-7.77,6.66-12.64,0-3.41-1.46-5.53-3.59-5.78a5.08,5.08,0,0,0-3.07.77C230.74,375.51,227.77,381.18,227.77,386.05Z" style="fill:#860065"></path><path d="M227.77,386.05a7.21,7.21,0,0,0,1.17,4.32c1.2,1.62,3.2,2,5.47.68,3.68-2.11,6.66-7.77,6.66-12.64,0-3.41-1.46-5.53-3.59-5.78a5.08,5.08,0,0,0-3.07.77C230.74,375.51,227.77,381.18,227.77,386.05Z" style="opacity:0.4"></path><path d="M227.77,386.05a7.21,7.21,0,0,0,1.17,4.32,5,5,0,0,0,3.08-.76c3.67-2.11,6.64-7.77,6.64-12.64a7.21,7.21,0,0,0-1.18-4.34,5.08,5.08,0,0,0-3.07.77C230.74,375.51,227.77,381.18,227.77,386.05Z" style="fill:#263238"></path><path d="M235.32,379.18l1,3.33,2.39-7.92a3.06,3.06,0,0,0-.45-1.6Z" style="fill:#860065"></path><path d="M235.32,379.18l1,3.33,2.39-7.92a3.06,3.06,0,0,0-.45-1.6Z" style="opacity:0.2"></path><path d="M236.51,381.38,234,385.2l1.68,2a5,5,0,0,0,1.28-1.87Z" style="fill:#860065"></path><path d="M236.51,381.38,234,385.2l1.68,2a5,5,0,0,0,1.28-1.87Z" style="opacity:0.2"></path><path d="M228.18,388.85a5.2,5.2,0,0,0,.65,1.36l6-5.46-2.09-.81-.15.69-.6-.26h0Z" style="fill:#860065"></path><path d="M228.18,388.85a5.2,5.2,0,0,0,.65,1.36l6-5.46-2.09-.81-.15.69-.6-.26h0Z" style="opacity:0.2"></path><path d="M228,383.5l3.95.87h0l.36-.59.39.16.65-3-.48.27,0-.78-4,0A17.61,17.61,0,0,0,228,383.5Z" style="fill:#860065"></path><path d="M228,383.5l3.95.87h0l.36-.59.39.16.65-3-.48.27,0-.78-4,0A17.61,17.61,0,0,0,228,383.5Z" style="opacity:0.2"></path><path d="M232.92,380.41l.6-.19-.15.7,2.58-1.5-2.27-5.55a11.19,11.19,0,0,0-1.93,1.8Z" style="fill:#860065"></path><path d="M232.92,380.41l.6-.19-.15.7,2.58-1.5-2.27-5.55a11.19,11.19,0,0,0-1.93,1.8Z" style="opacity:0.2"></path><path d="M231.9,383.67c0,1.84,1.13,2.69,2.52,1.89a6,6,0,0,0,2.51-4.78c0-1.84-1.12-2.69-2.51-1.89A6,6,0,0,0,231.9,383.67Z" style="fill:#860065"></path><path d="M174.75,400.2a2.08,2.08,0,0,0,.68-1.35c.1-.71.23-1.43.39-2.15a1.41,1.41,0,0,0-.08-1.06l-.21-.12c-.21-.12-.23-.6,0-1.13l1.37-3.93c.2-.59.58-1,.85-1s.68-.37,1-.92.68-1.36,1.05-2a1.82,1.82,0,0,0,.29-1.44c-.16-.26,0-.86.36-1.34l2.37-3.18c.29-.39.63-.57.82-.46l.41.23a1.14,1.14,0,0,0,.66-.38c.47-.47,1-.92,1.44-1.34a2,2,0,0,0,.72-1.34,1.54,1.54,0,0,1,.74-1.17l2.74-1.57a.54.54,0,0,1,.55-.06l1.35.77a9.31,9.31,0,0,1,1-.2,1.33,1.33,0,0,0,1-.88.93.93,0,0,1,.92-.68l2.37.45a.76.76,0,0,1,.16.06l11.76,6.77a.67.67,0,0,1,.25.7l2.91,1.68a.46.46,0,0,1,.19.2l1.37,2.36A1.26,1.26,0,0,1,214,387a1.74,1.74,0,0,0-.23,1.41,16.29,16.29,0,0,1,.4,1.7l1,.56c.16.08.26.33.26.68V395a1.61,1.61,0,0,1-.54,1.29,2.08,2.08,0,0,0-.67,1.34c-.1.73-.23,1.45-.39,2.17a1.5,1.5,0,0,0,.08,1.06l.2.12c.2.11.22.59,0,1.12L212.7,406c-.2.58-.57,1-.82,1s-.67.37-.94.93-.69,1.39-1.07,2.05a1.79,1.79,0,0,0-.3,1.41c.15.25,0,.84-.38,1.31l-2.37,3.18c-.3.4-.63.6-.81.49l-.36-.2a1.21,1.21,0,0,0-.68.4c-.48.49-1,.95-1.48,1.38a2,2,0,0,0-.72,1.28,1.47,1.47,0,0,1-.74,1.11l-2.74,1.58a.57.57,0,0,1-.56.07c-.11-.05-1.22-.7-1.22-.7a8.49,8.49,0,0,1-1.16.23,1.31,1.31,0,0,0-.95.82.9.9,0,0,1-.9.63l-2.37-.46a.38.38,0,0,1-.16-.06l-11.76-6.76a.61.61,0,0,1-.25-.7l-2.9-1.67a.48.48,0,0,1-.2-.22l-1.37-2.36a1.2,1.2,0,0,1,.09-1.25,1.79,1.79,0,0,0,.22-1.4,14.45,14.45,0,0,1-.39-1.72v0l-.94-.55c-.16-.08-.26-.33-.26-.68v-3.64A1.63,1.63,0,0,1,174.75,400.2Z" style="fill:#37474f"></path><path d="M186,411.89v-3.63a1.62,1.62,0,0,1,.55-1.29,2.11,2.11,0,0,0,.68-1.35q.15-1.08.39-2.16c.13-.58,0-1.1-.22-1.15s-.31-.57-.11-1.15l1.37-3.94c.2-.58.58-1,.85-1s.69-.37,1-.93.69-1.35,1.06-2a1.86,1.86,0,0,0,.28-1.44,1.47,1.47,0,0,1,.36-1.34l2.37-3.18c.35-.47.76-.64.92-.37s.59.15,1-.24,1-.93,1.44-1.34a2.08,2.08,0,0,0,.73-1.34,1.54,1.54,0,0,1,.73-1.17l2.74-1.57c.41-.24.74-.09.74.32a.51.51,0,0,0,.72.5,9.78,9.78,0,0,1,1.44-.31,1.38,1.38,0,0,0,1-.88.9.9,0,0,1,.91-.68l2.38.45c.35.07.51.48.35.93a1,1,0,0,0,.29,1.11,7.88,7.88,0,0,1,1.06.79.65.65,0,0,0,1-.18c.26-.35.64-.36.84,0l1.37,2.36A1.26,1.26,0,0,1,214,387a1.74,1.74,0,0,0-.23,1.41,16.29,16.29,0,0,1,.4,1.7c.08.48.37.74.67.57s.55.13.55.67V395a1.61,1.61,0,0,1-.54,1.29,2.08,2.08,0,0,0-.67,1.34c-.1.73-.23,1.45-.39,2.17s0,1.11.22,1.16.3.56.09,1.14L212.7,406c-.2.58-.57,1-.82,1s-.67.37-.94.93-.69,1.39-1.07,2.05a1.79,1.79,0,0,0-.3,1.41c.15.25,0,.84-.38,1.31l-2.37,3.18c-.35.47-.75.66-.9.41s-.56-.11-.95.28-1,.95-1.48,1.38a2,2,0,0,0-.72,1.28,1.47,1.47,0,0,1-.74,1.11l-2.74,1.58c-.41.23-.73.11-.73-.27s-.33-.57-.73-.45a9.14,9.14,0,0,1-1.48.32,1.31,1.31,0,0,0-.95.82.9.9,0,0,1-.9.63l-2.37-.46c-.36-.07-.52-.46-.38-.88a.89.89,0,0,0-.3-1.06,8.22,8.22,0,0,1-1.07-.82.62.62,0,0,0-.94.14.45.45,0,0,1-.82,0l-1.37-2.36a1.24,1.24,0,0,1,.09-1.26,1.76,1.76,0,0,0,.22-1.39,14.62,14.62,0,0,1-.39-1.73c-.08-.48-.37-.75-.67-.58S186,412.43,186,411.89Z" style="fill:#455a64"></path><path d="M192.17,375.27l10.38,6,0,0a.43.43,0,0,1,.17.39.53.53,0,0,0,.73.51,3.81,3.81,0,0,1,.45-.13,9.06,9.06,0,0,1,1-.19,1.15,1.15,0,0,0,.59-.32l-11.75-6.77a1.11,1.11,0,0,1-.6.32C192.84,375.13,192.51,375.2,192.17,375.27Z" style="fill:#263238"></path><path d="M186.5,378.14l11.77,6.76a1.73,1.73,0,0,0,.29-.82,1.28,1.28,0,0,1,.21-.65L187,376.67a1.27,1.27,0,0,0-.21.64A1.63,1.63,0,0,1,186.5,378.14Z"></path><path d="M184,380.37l11.28,6.51s.05,0,.06,0a.21.21,0,0,1,.1.09.27.27,0,0,0,.32.13,1.13,1.13,0,0,0,.65-.37c.47-.48,1-.93,1.44-1.34a2,2,0,0,0,.44-.52l-11.77-6.76a2.37,2.37,0,0,1-.43.51c-.49.42-1,.86-1.44,1.34A1.21,1.21,0,0,1,184,380.37Z" style="fill:#263238"></path><path d="M177.39,389.61l11.76,6.76a.38.38,0,0,1,.31-.11c.27.05.69-.37,1-.93s.68-1.35,1-2a1.76,1.76,0,0,0,.29-1.43.57.57,0,0,1-.05-.35L180,384.77a.56.56,0,0,0,0,.35,1.85,1.85,0,0,1-.28,1.44c-.38.65-.73,1.32-1.06,2s-.7,1-1,.93A.36.36,0,0,0,177.39,389.61Z" style="fill:#263238"></path><path d="M189.15,396.37l-11.76-6.76a.36.36,0,0,1,.32-.11.36.36,0,0,0,.14,0l11.76,6.76a.26.26,0,0,1-.15,0A.38.38,0,0,0,189.15,396.37Z"></path><path d="M180,385.12a.56.56,0,0,1,0-.35l11.76,6.77a.57.57,0,0,0,.05.35.86.86,0,0,1,0,.5l-11.76-6.77A.86.86,0,0,0,180,385.12Z"></path><path d="M174.39,400.65l11.77,6.76a.89.89,0,0,1,.35-.44,2.06,2.06,0,0,0,.67-1.35c.11-.72.24-1.44.4-2.16a1.32,1.32,0,0,0-.09-1.07h0l-.12-.07-.11-.06-11.51-6.61a1.4,1.4,0,0,1,.08,1.06c-.16.72-.29,1.44-.39,2.15a2.1,2.1,0,0,1-.69,1.36A1,1,0,0,0,174.39,400.65Z" style="fill:#263238"></path><path d="M174.74,400.21a1.25,1.25,0,0,0,.41-.5l11.76,6.76a1.33,1.33,0,0,1-.4.5.89.89,0,0,0-.35.44l-11.77-6.76A1,1,0,0,1,174.74,400.21Z"></path><path d="M175.38,410l11.76,6.77a1.22,1.22,0,0,1,.2-.48,1.59,1.59,0,0,0,.25-.67,1.62,1.62,0,0,0,0-.73,14.62,14.62,0,0,1-.39-1.73h0c-.09-.48-.37-.74-.67-.57a.27.27,0,0,1-.32,0l-10.78-6.2v0c.11.6.24,1.18.39,1.72a1.7,1.7,0,0,1-.21,1.4A1.09,1.09,0,0,0,175.38,410Z" style="fill:#263238"></path><path d="M187.34,416.27a1.22,1.22,0,0,0-.2.48L175.38,410a1.09,1.09,0,0,1,.2-.48,1.45,1.45,0,0,0,.24-.61l11.76,6.76A1.49,1.49,0,0,1,187.34,416.27Z"></path><path d="M209.84,382.78a7.88,7.88,0,0,1,1.06.79.64.64,0,0,0,1-.18.5.5,0,0,1,.62-.22l0,0-2.84-1.64a.85.85,0,0,0,0,.17A.94.94,0,0,0,209.84,382.78Z" style="fill:#263238"></path><path d="M180.21,415.7h0l0,0,.17.1,11.44,6.58.08,0a.68.68,0,0,1-.19-.8.9.9,0,0,0-.29-1.06,7.68,7.68,0,0,1-1.08-.82.62.62,0,0,0-.94.14.5.5,0,0,1-.53.24l-.11-.06L180,415A.62.62,0,0,0,180.21,415.7Z"></path><path d="M197.51,421.3l1.21.7a.36.36,0,0,1-.16-.34c0-.38-.34-.57-.73-.45Z" style="fill:#263238"></path><path d="M205.66,416.18l.28.16,0,0A.24.24,0,0,0,205.66,416.18Z" style="fill:#263238"></path><path d="M214.14,390.13c.08.48.38.74.67.57a.33.33,0,0,1,.25,0l-.08,0-.14-.08Z" style="fill:#263238"></path><path d="M193.77,374.76l11.75,6.77a1.32,1.32,0,0,0,.39-.56,1.07,1.07,0,0,1,.4-.54l-11.76-6.76a1,1,0,0,0-.41.54A1.37,1.37,0,0,1,193.77,374.76Z"></path><path d="M178.93,406.06c0,5.9,2,10.06,5.09,11.85l2.11,1.2c-3.07-1.82-5-5.95-5-11.81,0-10.78,6.59-23.31,14.72-28,3.5-2,6.72-2.24,9.25-1l-1.81-1c-2.58-1.49-5.95-1.35-9.63.77C185.52,382.74,178.93,395.27,178.93,406.06Z" style="fill:#37474f"></path><path d="M181.12,407.31c0,5.85,1.94,10,5,11.8l1.42.81c-3.07-1.81-5-5.95-5-11.79,0-10.79,6.59-23.32,14.71-28,3.64-2.09,7-2.25,9.53-.82l-1.69-1c-2.53-1.27-5.75-1.05-9.25,1C187.7,384,181.12,396.52,181.12,407.31Z"></path><path d="M187,376.67l11.77,6.76a1.61,1.61,0,0,1,.52-.52l2.74-1.57a.59.59,0,0,1,.52-.09l-10.38-6-.87-.49-.32-.18-.16-.1a.6.6,0,0,0-.55.07l-2.74,1.58A1.64,1.64,0,0,0,187,376.67Z" style="fill:#37474f"></path><path d="M180,384.77l11.76,6.77a2.08,2.08,0,0,1,.41-1l2.37-3.18c.26-.35.57-.54.76-.49L184,380.37l-.42-.23c-.19-.12-.53.06-.82.46l-2.38,3.19A1.93,1.93,0,0,0,180,384.77Z" style="fill:#37474f"></path><path d="M175.51,395.5l.06,0,.17.1,11.51,6.61a1.21,1.21,0,0,1,0-1.09l1.37-3.94a2,2,0,0,1,.53-.85l-11.76-6.76a2,2,0,0,0-.53.85l-1.38,3.94C175.31,394.9,175.32,395.36,175.51,395.5Z" style="fill:#37474f"></path><path d="M174.2,401.5v3.63c0,.35.1.6.26.68l.94.55,10.78,6.2a.85.85,0,0,1-.21-.66v-3.64a2,2,0,0,1,.19-.85h0l-11.77-6.76A2,2,0,0,0,174.2,401.5Z" style="fill:#37474f"></path><path d="M175.48,410.75l1.37,2.37a.53.53,0,0,0,.21.21l.65.37.23.14,2,1.16,8.84,5.08a.59.59,0,0,1-.18-.2l-1.37-2.36a1.25,1.25,0,0,1-.11-.77L175.38,410A1.17,1.17,0,0,0,175.48,410.75Z" style="fill:#37474f"></path><path d="M192.63,406.25c0,5.89,3.59,8.6,8,6.05s8-9.4,8-15.29-3.6-8.6-8-6.05S192.63,400.36,192.63,406.25Zm1.38-.8c0-4.87,3-10.53,6.65-12.64s6.65.13,6.65,5-3,10.54-6.65,12.65S194,410.33,194,405.45Z" style="fill:#860065"></path><path d="M194,405.45a7.31,7.31,0,0,0,1.17,4.33c1.2,1.62,3.2,2,5.48.68,3.68-2.12,6.65-7.77,6.65-12.65,0-3.41-1.45-5.53-3.58-5.77a5,5,0,0,0-3.07.76C197,394.92,194,400.58,194,405.45Z" style="fill:#860065"></path><path d="M194,405.45a7.31,7.31,0,0,0,1.17,4.33c1.2,1.62,3.2,2,5.48.68,3.68-2.12,6.65-7.77,6.65-12.65,0-3.41-1.45-5.53-3.58-5.77a5,5,0,0,0-3.07.76C197,394.92,194,400.58,194,405.45Z" style="opacity:0.4"></path><path d="M194,405.45a7.31,7.31,0,0,0,1.17,4.33,5,5,0,0,0,3.08-.77c3.67-2.1,6.65-7.77,6.65-12.64a7.22,7.22,0,0,0-1.18-4.33,5,5,0,0,0-3.07.76C197,394.92,194,400.58,194,405.45Z" style="fill:#263238"></path><path d="M201.56,398.58l.95,3.33,2.4-7.91a3.07,3.07,0,0,0-.46-1.6Z" style="fill:#860065"></path><path d="M201.56,398.58l.95,3.33,2.4-7.91a3.07,3.07,0,0,0-.46-1.6Z" style="opacity:0.2"></path><path d="M202.75,400.79l-2.48,3.81,1.69,2a5.16,5.16,0,0,0,1.28-1.87Z" style="fill:#860065"></path><path d="M202.75,400.79l-2.48,3.81,1.69,2a5.16,5.16,0,0,0,1.28-1.87Z" style="opacity:0.2"></path><path d="M194.42,408.26a4.92,4.92,0,0,0,.66,1.36l6-5.46-2.09-.82-.15.69-.6-.25h0Z" style="fill:#860065"></path><path d="M194.42,408.26a4.92,4.92,0,0,0,.66,1.36l6-5.46-2.09-.82-.15.69-.6-.25h0Z" style="opacity:0.2"></path><path d="M194.26,402.9l4,.88h0l.36-.59.39.15.65-3-.48.28,0-.79-4,0A16.74,16.74,0,0,0,194.26,402.9Z" style="fill:#860065"></path><path d="M194.26,402.9l4,.88h0l.36-.59.39.15.65-3-.48.28,0-.79-4,0A16.74,16.74,0,0,0,194.26,402.9Z" style="opacity:0.2"></path><path d="M199.16,399.81l.6-.19-.15.7,2.58-1.49-2.27-5.55a11.92,11.92,0,0,0-1.93,1.79Z" style="fill:#860065"></path><path d="M199.16,399.81l.6-.19-.15.7,2.58-1.49-2.27-5.55a11.92,11.92,0,0,0-1.93,1.79Z" style="opacity:0.2"></path><path d="M198.15,403.08c0,1.84,1.12,2.69,2.51,1.89a6,6,0,0,0,2.52-4.78c0-1.85-1.13-2.7-2.52-1.9A6,6,0,0,0,198.15,403.08Z" style="fill:#860065"></path><polygon points="244.2 361.73 244.2 358.39 236.94 354.2 236.94 357.54 244.2 361.73" style="fill:#263238"></polygon><path d="M234.51,350.51c-3.1-1.77-7.15-1.6-11.57.95-6.77,3.89-12.65,12.31-15.63,21.42L216.1,378c3-9.11,8.86-17.52,15.63-21.42,4.44-2.55,8.5-2.72,11.61-.93Z" style="fill:#455a64"></path><path d="M231.73,356.55c-6.77,3.88-12.65,12.29-15.61,21.4l4.91-2.84c2.95-6.72,7.49-12.59,12.47-15.47a11,11,0,0,1,5.27-1.64c2.33,0,4.2,1.35,5.43,3.73l3.11-1.79C244.35,354.3,238.49,352.67,231.73,356.55Z" style="fill:#37474f"></path><polygon points="210.53 381.19 210.53 377.86 203.27 373.67 203.27 377 210.53 381.19" style="fill:#263238"></polygon><path d="M200.83,370c-3.1-1.76-7.15-1.59-11.56.95-6.77,3.9-12.65,12.31-15.63,21.43l8.78,5.08c3-9.11,8.86-17.53,15.64-21.42,4.43-2.56,8.5-2.72,11.6-.93Z" style="fill:#455a64"></path><path d="M198.06,376c-6.77,3.87-12.65,12.29-15.62,21.4l4.92-2.84c2.95-6.72,7.48-12.6,12.47-15.47a11,11,0,0,1,5.27-1.65c2.32,0,4.2,1.36,5.43,3.74l3.11-1.79C210.67,373.77,204.81,372.14,198.06,376Z" style="fill:#37474f"></path><polygon points="179.46 416.76 179.46 404.61 143.17 383.66 143.13 395.78 179.46 416.76" style="fill:#37474f"></polygon><polygon points="183.97 402 179.46 404.61 179.46 416.76 183.97 414.15 183.97 402" style="fill:#455a64"></polygon><polygon points="183.97 402 147.68 381.05 143.17 383.66 179.46 404.61 183.97 402" style="fill:#263238"></polygon><polygon points="172.17 403.7 177 406.49 177 412.08 172.17 409.29 172.17 403.7" style="fill:#860065"></polygon><polygon points="162.49 398.11 167.33 400.91 167.33 406.49 162.49 403.7 162.49 398.11" style="fill:#860065"></polygon><polygon points="167.33 400.91 172.17 403.7 172.17 409.29 167.33 406.49 167.33 400.91" style="fill:#fafafa"></polygon><polygon points="155.26 393.92 160.09 396.72 160.09 402.3 155.26 399.51 155.26 393.92" style="fill:#860065"></polygon><polygon points="145.58 388.34 150.42 391.13 150.42 396.72 145.58 393.92 145.58 388.34" style="fill:#860065"></polygon><polygon points="150.42 391.13 155.26 393.92 155.26 399.51 150.42 396.72 150.42 391.13" style="fill:#fafafa"></polygon><polygon points="348.95 289.06 348.95 293.42 173.52 394.74 173.51 390.38 348.95 289.06" style="fill:#455a64"></polygon><polygon points="37.2 370.66 37.2 375.02 131.51 429.51 131.52 425.15 37.2 370.66" style="fill:#37474f"></polygon><polygon points="131.51 429.51 173.52 394.74 173.51 390.38 131.52 425.15 131.51 429.51" style="fill:#455a64"></polygon><polygon points="356.5 284.7 173.51 390.38 173.51 381.7 356.49 276.03 356.5 284.7" style="fill:#860065"></polygon><polygon points="356.5 284.7 173.51 390.38 173.51 381.7 356.49 276.03 356.5 284.7" style="fill:#fff;opacity:0.6000000000000001"></polygon><polygon points="173.51 390.38 131.52 425.15 131.51 416.48 173.51 381.7 173.51 390.38" style="fill:#860065"></polygon><polygon points="173.51 390.38 131.52 425.15 131.51 416.48 173.51 381.7 173.51 390.38" style="fill:#fff;opacity:0.6000000000000001"></polygon><polygon points="262.18 221.54 356.49 276.03 173.51 381.7 79.2 327.21 262.18 221.54" style="fill:#860065"></polygon><polygon points="262.18 221.54 356.49 276.03 173.51 381.7 79.2 327.21 262.18 221.54" style="fill:#fff;opacity:0.8"></polygon><polygon points="37.2 361.99 131.51 416.48 131.52 425.15 37.21 370.66 37.2 361.99" style="fill:#860065"></polygon><polygon points="37.2 361.99 131.51 416.48 131.52 425.15 37.21 370.66 37.2 361.99" style="fill:#fff;opacity:0.5"></polygon><polygon points="79.2 327.21 37.2 361.99 131.51 416.48 173.51 381.7 79.2 327.21" style="fill:#860065"></polygon><polygon points="79.2 327.21 37.2 361.99 131.51 416.48 173.51 381.7 79.2 327.21" style="fill:#fff;opacity:0.7000000000000001"></polygon><polygon points="253.01 239.88 90.48 333.73 48.49 368.51 68.92 380.3 110.92 345.52 273.44 251.67 253.01 239.88" style="fill:#455a64"></polygon><polygon points="305.13 270 142.61 363.85 100.61 398.63 121.04 410.42 163.03 375.64 325.56 281.79 305.13 270" style="fill:#455a64"></polygon><polygon points="142.61 363.85 163.03 375.64 121.04 410.42 100.61 398.63 142.61 363.85" style="fill:#37474f"></polygon><polygon points="110.92 345.52 90.48 333.73 48.49 368.51 68.92 380.3 110.92 345.52" style="fill:#37474f"></polygon><polygon points="356.49 276.03 356.49 242.51 349.23 246.7 349.23 280.22 356.49 276.03" style="fill:#860065"></polygon><polygon points="356.49 276.03 356.49 242.51 349.23 246.7 349.23 280.22 356.49 276.03" style="fill:#fff;opacity:0.6000000000000001"></polygon><polygon points="349.23 246.7 254.89 192.23 254.89 225.75 349.23 280.22 349.23 246.7" style="fill:#860065"></polygon><polygon points="349.23 246.7 254.89 192.23 254.89 225.75 349.23 280.22 349.23 246.7" style="fill:#fff;opacity:0.5"></polygon><polygon points="356.49 242.51 349.23 246.7 254.89 192.23 262.15 188.04 356.49 242.51" style="fill:#860065"></polygon><polygon points="356.49 242.51 349.23 246.7 254.89 192.23 262.15 188.04 356.49 242.51" style="fill:#fff;opacity:0.8"></polygon><polygon points="347.45 217.38 341.62 207.28 341.23 206.61 340.57 206.23 276.41 169.19 274.95 168.34 273.5 169.21 272.02 170.03 270.58 170.9 264.94 174.26 263.55 175.1 263.55 194.94 269.29 198.26 272.21 196.57 272.21 176.77 334.11 212.5 339.17 221.27 339.17 238.61 344.91 241.92 347.84 240.24 347.84 218.05 347.45 217.38" style="fill:#860065"></polygon><polygon points="344.91 241.92 339.17 238.61 339.17 221.27 334.11 212.5 272.07 176.69 269.29 178.36 269.29 198.26 263.55 194.94 263.55 176.73 263.55 175.1 264.94 174.26 270.58 170.9 272.02 170.03 273.49 170.87 337.64 207.92 338.31 208.3 338.69 208.97 344.53 219.07 344.91 219.74 344.91 220.5 344.91 241.92" style="fill:#fff;opacity:0.5"></polygon><polygon points="338.31 208.3 341.23 206.61 274.95 168.34 272.02 170.03 338.31 208.3" style="fill:#fff;opacity:0.8"></polygon><rect x="341.38" y="206.57" width="3.38" height="13.2" transform="translate(-60.63 200.13) rotate(-30.01)" style="fill:#fff;opacity:0.6000000000000001"></rect><polygon points="347.84 218.05 344.91 219.74 344.91 241.92 347.84 240.24 347.84 218.05" style="fill:#fff;opacity:0.4"></polygon><polygon points="269.29 198.26 272.21 196.57 272.21 176.77 272.07 176.69 269.29 178.36 269.29 198.26" style="fill:#fff;opacity:0.4"></polygon></g><g id="freepik--Car--inject-247"><path d="M186.91,225.06a5.25,5.25,0,0,0,3.38-4.66c.25-2.33.1-4.87-3.47-7.3s-6.3-1.56-7.69-.93Z" style="fill:#455a64"></path><path d="M185.43,225.33a3.6,3.6,0,0,1-1.62-.63l-3.69-2.46a6,6,0,0,1-2.58-5.17l.32-2.85a2.44,2.44,0,0,1,2.75-2.33,3.6,3.6,0,0,1,1.62.63l3.69,2.46a6,6,0,0,1,2.57,5.17l-.31,2.85A2.44,2.44,0,0,1,185.43,225.33Z" style="fill:#263238"></path><path d="M181.62,213.27l3.69,2.46a5.1,5.1,0,0,1,2.14,4.3l-.31,2.86c-.16,1.48-1.38,2-2.72,1.06l-3.69-2.46a5.1,5.1,0,0,1-2.15-4.31l.32-2.85C179.06,212.85,180.28,212.38,181.62,213.27Z" style="fill:#455a64"></path><g style="opacity:0.2"><path d="M182.73,214l-4.13,3,.36-3.3,1.18-.84a2.16,2.16,0,0,1,1.49.44Z" style="fill:#fff"></path><path d="M185.92,216.24l-6.11,4.41a6.85,6.85,0,0,1-.45-.61h0l5.94-4.29A4.54,4.54,0,0,1,185.92,216.24Z" style="fill:#fff"></path><path d="M187.45,220l0,.49-3.9,2.81-1.7-1.13,5.41-3.91A3.86,3.86,0,0,1,187.45,220Z" style="fill:#fff"></path></g><polygon points="198.31 331.76 170.88 315.93 189.16 305.37 216.59 321.2 198.31 331.76" style="fill:#860065"></polygon><polygon points="198.31 331.76 170.88 315.93 189.16 305.37 216.59 321.2 198.31 331.76" style="opacity:0.30000000000000004"></polygon><polygon points="289.49 279.21 262.06 263.38 266.51 257.82 293.94 273.65 289.49 279.21" style="fill:#860065"></polygon><polygon points="289.49 279.21 262.06 263.38 266.51 257.82 293.94 273.65 289.49 279.21" style="opacity:0.30000000000000004"></polygon><path d="M189.81,332.67l3.14-6.23-7.46-4.32h0c-2.38-1.37-5.54-1.22-9,.79-7.37,4.25-13.35,15.23-13.35,24.52,0,4.86,1.64,8.29,4.26,9.85h0l.11.06h0l7.65,4.42,3.31-6.57C184.73,350.41,189.57,341,189.81,332.67Z" style="fill:#37474f"></path><path d="M189.81,332.67l3.14-6.23-7.46-4.32h0c-2.38-1.37-5.54-1.22-9,.79-7.37,4.25-13.35,15.23-13.35,24.52,0,4.86,1.64,8.29,4.26,9.85h0l.11.06h0l7.65,4.42,3.31-6.57C184.73,350.41,189.57,341,189.81,332.67Z"></path><path d="M197.59,336.51c0,8-4.44,17.27-10.39,22.39l0,0a20.14,20.14,0,0,1-2.92,2.09c-7.38,4.26-13.36.18-13.35-9.1,0-7,3.41-15,8.26-20.32l0,0a21.62,21.62,0,0,1,5.05-4.16C191.62,323.15,197.59,327.22,197.59,336.51Z" style="fill:#263238"></path><path d="M184.25,333c4.69-2.71,8.49.11,8.49,6.3s-3.8,13.4-8.49,16.11-8.5-.11-8.5-6.3S179.56,335.71,184.25,333Z" style="fill:#455a64"></path><path d="M188.08,342.5c-.32,3.08-2.3,6.34-4.42,7.29a2.06,2.06,0,0,1-2.31-.2c-.74-.63-1.12-1.94-.94-3.66.32-3.08,2.3-6.35,4.42-7.29a2.31,2.31,0,0,1,1.55-.2h0C187.61,338.74,188.32,340.26,188.08,342.5Z" style="fill:#37474f"></path><path d="M280.85,280.18,284,274l-7.46-4.32h0c-2.38-1.36-5.54-1.21-9,.8-7.37,4.25-13.35,15.23-13.35,24.52,0,4.86,1.64,8.29,4.26,9.84h0l.11.06h0l7.65,4.42,3.31-6.58C275.77,297.92,280.61,288.47,280.85,280.18Z" style="fill:#37474f"></path><path d="M280.85,280.18,284,274l-7.46-4.32h0c-2.38-1.36-5.54-1.21-9,.8-7.37,4.25-13.35,15.23-13.35,24.52,0,4.86,1.64,8.29,4.26,9.84h0l.11.06h0l7.65,4.42,3.31-6.58C275.77,297.92,280.61,288.47,280.85,280.18Z"></path><path d="M288.63,284c0,8-4.44,17.27-10.39,22.39l0,0a20.14,20.14,0,0,1-2.92,2.09c-7.38,4.26-13.36.18-13.35-9.1,0-7,3.41-15,8.26-20.32l0,0a21.62,21.62,0,0,1,5.05-4.16C282.66,270.66,288.63,274.73,288.63,284Z" style="fill:#263238"></path><path d="M275.29,280.51c4.69-2.7,8.49.12,8.49,6.31s-3.8,13.4-8.49,16.11-8.5-.11-8.5-6.3S270.6,283.22,275.29,280.51Z" style="fill:#455a64"></path><path d="M279.12,290c-.32,3.08-2.3,6.34-4.42,7.29a2.06,2.06,0,0,1-2.31-.2c-.74-.64-1.12-1.94-.94-3.67.32-3.07,2.3-6.34,4.42-7.28a2.38,2.38,0,0,1,1.55-.21h0C278.65,286.25,279.36,287.77,279.12,290Z" style="fill:#37474f"></path><path d="M302,254.21v8.89c0,4.93-4.37,11.44-9.75,14.54l-2.72,1.58c-1.55-7.7-7.65-10.6-15-6.39a24.61,24.61,0,0,0-5.81,4.77s0,0,0,.07a38.12,38.12,0,0,0-9.12,18.83L198.3,331.75c-1.55-7.7-7.65-10.6-15-6.39a25.47,25.47,0,0,0-5.81,4.79s0,0,0,.05A38.24,38.24,0,0,0,168.36,349l-6,3.49c-5.38,3.1-10.39,3.33-19.49,0s-33.85-17-44.5-25.71c-7-5.62-9.74-10.35-9.74-16.18V300.08c0-.51,0-1.05,0-1.55s0-1,.09-1.48a43.7,43.7,0,0,1,.79-6.31,24.66,24.66,0,0,1,.58-2.74A57,57,0,0,1,97,271.05c6.57-10.38,9.09-12.74,15.73-16.57l21.59,8.67L219.66,214c11.73-6.78,43.08-4.66,61.27,6.86S302,242.17,302,254.21Z" style="fill:#860065"></path><path d="M302,254.21v8.89c0,4.93-4.37,11.44-9.75,14.54l-2.72,1.58c-1.55-7.7-7.65-10.6-15-6.39a24.61,24.61,0,0,0-5.81,4.77s0,0,0,.07a38.12,38.12,0,0,0-9.12,18.83L198.3,331.75c-1.55-7.7-7.65-10.6-15-6.39a25.47,25.47,0,0,0-5.81,4.79s0,0,0,.05A38.24,38.24,0,0,0,168.36,349l-6,3.49c-5.38,3.1-10.39,3.33-19.49,0s-33.85-17-44.5-25.71c-7-5.62-9.74-10.35-9.74-16.18V300.08c0-.51,0-1.05,0-1.55s0-1,.09-1.48a43.7,43.7,0,0,1,.79-6.31,24.66,24.66,0,0,1,.58-2.74A57,57,0,0,1,97,271.05c6.57-10.38,9.09-12.74,15.73-16.57l21.59,8.67,70-40.36c7.15-4.13,56.44,33,59.31,32.14,16.51-4.87,28.87-12.9,30.92-22.9C300.7,239.21,302,246.23,302,254.21Z" style="opacity:0.15"></path><path d="M171.69,283.71l-59.35-29c-6.35,3.69-8.91,6.17-15.35,16.34A57,57,0,0,0,90.08,288a24.66,24.66,0,0,0-.58,2.74,43.7,43.7,0,0,0-.79,6.31c0,.49-.07,1-.09,1.48s0,1,0,1.55v10.56c0,5.83,2.77,10.56,9.74,16.18,10.65,8.73,35.4,22.38,44.5,25.71,6,2.19,10.2,2.81,13.91,2.12-1.47-3.86-.14-11.94,1.87-27.67C161.19,307,164.61,291.64,171.69,283.71Z" style="opacity:0.15"></path><path d="M262.31,255.88c3.49-2.07,5.08-5.08,3.7-8.33l-37.2-7.18.07,10.57Z" style="fill:#263238"></path><path d="M183.1,217.24h36.57c5.88,0,16.05,3.41,28.79,11.76s26.29,19.34,15.18,25.93Z" style="fill:#263238"></path><path d="M184.32,218.42h36.57c5.71,0,17.06,6.08,26.21,11.36s23.12,18.32,18.28,21.12c-1.79,1-6,.5-18.28-1l-15.61-2Z" style="fill:#455a64"></path><path d="M263.44,243.51a67.57,67.57,0,0,0-16.34-13.73c-9.15-5.28-20.5-11.36-26.21-11.36H184.32l17,10.6,4.42-2c-5.54-3.22,10-4.86,18.89-3.65S256.94,235.31,263.44,243.51Z" style="fill:#fff;opacity:0.2"></path><path d="M174.81,288.74a61,61,0,0,0-.25,10.83c.12,3.6,2.87,5.22,6.1,3.36l81.65-47.05c3.23-1.87,2.85-3.75-.85-4.22L240.22,249a23.53,23.53,0,0,0-12.55,2.54l-47,27.06C177.43,280.47,175.34,283.62,174.81,288.74Z" style="fill:#263238"></path><path d="M176.54,288.24a45.25,45.25,0,0,0-.37,10.89c.26,2.09,2.11,2.87,4.27,1.63l75.8-43.68c2.15-1.24,1.9-2.5-.57-2.81l-18.49-2.34a15.56,15.56,0,0,0-8.37,1.69l-48.38,27.86C178.28,282.73,177.21,284.1,176.54,288.24Z" style="fill:#37474f"></path><polygon points="210.23 261.99 210.23 285.39 211.77 284.5 211.77 261.1 210.23 261.99" style="fill:#263238"></polygon><polygon points="237.95 250.34 237.95 269.36 239.5 268.47 239.5 249.45 237.95 250.34" style="fill:#263238"></polygon><path d="M155.89,286.16a12.94,12.94,0,0,0,11.69,0l60.63-34.92c5.38-3.1,5.38-8.14,0-11.25l-35.37-20.42c-5.38-3.11-14.11-3.11-19.49,0l-60.63,34.91c-3.22,1.87-3.22,4.89,0,6.76Z" style="fill:#860065"></path><path d="M159.39,280.68c-9.84-4.53-16.72-8.25-24.85-15.76s-3.37-17.44,16.27-32.42l-38.09,22c-3.22,1.87-3.22,4.89,0,6.76l43.17,24.92a12.94,12.94,0,0,0,11.69,0l20.14-11.63C187.6,274.6,169.2,285.19,159.39,280.68Z" style="opacity:0.15"></path><path d="M228.21,240l-35.37-20.42c-3.59-2.07-8.67-2.73-13.25-2a16.92,16.92,0,0,1,8.08,1.68c4.57,2,17.79,9.81,32.72,18s9.07,11.26,5,13.64-51.28,31.51-57.77,35.26l60.63-34.92C233.59,248.14,233.59,243.1,228.21,240Z" style="fill:#fff;opacity:0.30000000000000004"></path><path d="M107.87,323.19v-8c0-1,.71-1.4,1.57-.9l13.61,7.86a2.72,2.72,0,0,1,1.23,2.13v7.9c0,1-.7,1.41-1.57.92l-13.61-7.78A2.73,2.73,0,0,1,107.87,323.19Z" style="fill:#37474f"></path><path d="M110.43,305.55V304.5c0-1.25.87-1.75,1.95-1.13l12.51,7.23a4.29,4.29,0,0,1,2,3.37v.95c0,1.25-.87,1.75-2,1.14l-12.5-7.14A4.3,4.3,0,0,1,110.43,305.55Z" style="fill:#860065"></path><path d="M110.43,305.55V304.5c0-1.25.87-1.75,1.95-1.13l12.51,7.23a4.29,4.29,0,0,1,2,3.37v.95c0,1.25-.87,1.75-2,1.14l-12.5-7.14A4.3,4.3,0,0,1,110.43,305.55Z" style="fill:#fff;opacity:0.2"></path><path d="M146.94,320.23c-2.74.74-6.05,2.45-6.95,6.25-1.1,4.59.58,8.45,4.37,9.44,1.63.43,5.62-.23,8.77-4.77,2.16-3.11,2.44-8,1.25-9.61S149.88,319.45,146.94,320.23Z" style="fill:#37474f"></path><path d="M148.42,325.39a3,3,0,1,1-3-3A3,3,0,0,1,148.42,325.39Z" style="fill:#860065"></path><path d="M146,331.51a1.79,1.79,0,1,1-1.79-1.79A1.79,1.79,0,0,1,146,331.51Z" style="fill:#860065"></path><path d="M92.2,304.34c-.61.9-2,.88-3.6-1.06v-3.2c0-.51,0-1.05,0-1.55s0-1,.09-1.48a43.7,43.7,0,0,1,.79-6.31,24.66,24.66,0,0,1,.58-2.74,9.42,9.42,0,0,1,3,5.69C93.32,297.36,93,303.19,92.2,304.34Z" style="fill:#37474f"></path><path d="M89.66,298.48a1.56,1.56,0,0,0-1,.41c0,.4,0,.78,0,1.19v1.2a1.64,1.64,0,0,0,1.07.42,1.61,1.61,0,1,0,0-3.22Z" style="fill:#860065"></path><path d="M91.81,293.83a3.21,3.21,0,0,1-3.1,3.22,43.7,43.7,0,0,1,.79-6.31A3.25,3.25,0,0,1,91.81,293.83Z" style="fill:#860065"></path><path d="M289.1,226.7c7,8.87-13.5,23.22-22.73,28.44s-66.94,38.72-66.94,38.72,71.21-37.69,88.44-44c11.38-4.16,14.08,10,14.09,13.23h0V254.2C302,244.26,300,235.83,289.1,226.7Z" style="fill:#860065"></path><path d="M289.1,226.7c7,8.87-13.5,23.22-22.73,28.44s-66.94,38.72-66.94,38.72,71.21-37.69,88.44-44c11.38-4.16,14.08,10,14.09,13.23h0V254.2C302,244.26,300,235.83,289.1,226.7Z" style="fill:#fff;opacity:0.1"></path><path d="M176,326.37a29.5,29.5,0,0,1,5.94-5.43,19.79,19.79,0,0,1,7.45-3.16,13.12,13.12,0,0,1,4.1.07,10.08,10.08,0,0,1,3.74,1.66,12.39,12.39,0,0,1,4.37,6.68,13.07,13.07,0,0,0-4.62-6.33,10.33,10.33,0,0,0-3.59-1.51,12.51,12.51,0,0,0-3.91,0,19.91,19.91,0,0,0-7.3,3A36,36,0,0,0,176,326.37Z" style="fill:#860065"></path><path d="M266.91,273.88a29.83,29.83,0,0,1,5.95-5.43,19.72,19.72,0,0,1,7.45-3.16,13.12,13.12,0,0,1,4.1.07,10.08,10.08,0,0,1,3.74,1.66,12.37,12.37,0,0,1,4.36,6.68,13.16,13.16,0,0,0-4.61-6.33,10.33,10.33,0,0,0-3.59-1.51,12.51,12.51,0,0,0-3.91,0,20,20,0,0,0-7.3,3A36.18,36.18,0,0,0,266.91,273.88Z" style="fill:#860065"></path><path d="M203.86,324.76q12.66-8.11,25.65-15.65c4.32-2.54,8.64-5.06,13-7.5s8.71-4.95,13.13-7.31l-.3.47a32.09,32.09,0,0,1,2.27-8.41,22,22,0,0,1,4.79-7.15,23.39,23.39,0,0,0-4.1,7.42,34,34,0,0,0-1.78,8.23l0,.3-.27.16c-4.27,2.64-8.61,5.13-12.93,7.67s-8.66,5-13,7.47Q217.25,317.9,203.86,324.76Z" style="opacity:0.2"></path><path d="M296.78,234.92c1.41,3.83-2.3,9.48-1.71,14.91s4.88,5.8,6.72,0C302.63,243.68,298.15,235.77,296.78,234.92Z" style="fill:#fafafa"></path><path d="M95.11,279.37a75.91,75.91,0,0,1,10.74-15.27,5.44,5.44,0,0,1,6.86-.53,287.85,287.85,0,0,0,45,25.95,4.31,4.31,0,0,1,2,5.88,93.1,93.1,0,0,0-6.09,18,3.76,3.76,0,0,1-5.18,2.76c-19.65-7.83-37.17-17.64-52-29.9A5.76,5.76,0,0,1,95.11,279.37Z" style="fill:#263238"></path><path d="M150,314.89a2.58,2.58,0,0,1-.93-.19c-20.11-8-37.48-18-51.62-29.65a4.19,4.19,0,0,1-1-4.92A74,74,0,0,1,107,265.18a3.43,3.43,0,0,1,2.54-1,3.92,3.92,0,0,1,2.26.68A292.26,292.26,0,0,0,157.05,291a2.63,2.63,0,0,1,1.41,1.52,2.9,2.9,0,0,1-.14,2.25,93.42,93.42,0,0,0-6.2,18.31A2.23,2.23,0,0,1,150,314.89Z" style="fill:#455a64"></path><path d="M158.46,292.47a2.63,2.63,0,0,0-1.41-1.52,296.46,296.46,0,0,1-39.23-22L96.1,281.52a4.22,4.22,0,0,0,1.34,3.53c14.14,11.66,31.51,21.63,51.62,29.65a2.58,2.58,0,0,0,.93.19,2.23,2.23,0,0,0,2.13-1.86,93.42,93.42,0,0,1,6.2-18.31A2.9,2.9,0,0,0,158.46,292.47Z" style="fill:#37474f"></path><path d="M87.47,310.64c.64,3,10.55,12.71,26.94,21.83s30.16,16.51,38.46,16.1,18.82-7.39,18.82-7.39-2,6.17-2.13,9c0,0-8.64,5.45-15.79,6-4.73.36-10.86,1.29-39.57-15.29-19-11-24.85-17-27-21.85-1.1-2.45-1.05-6.05-1-7.66.11-5.43,2.42-6,2.42-6C87.55,306.37,86.82,307.61,87.47,310.64Z" style="fill:#860065"></path><path d="M87.47,310.64c.64,3,10.55,12.71,26.94,21.83s30.16,16.51,38.46,16.1,18.82-7.39,18.82-7.39-2,6.17-2.13,9c0,0-8.64,5.45-15.79,6-4.73.36-10.86,1.29-39.57-15.29-19-11-24.85-17-27-21.85-1.1-2.45-1.05-6.05-1-7.66.11-5.43,2.42-6,2.42-6C87.55,306.37,86.82,307.61,87.47,310.64Z" style="opacity:0.30000000000000004"></path><path d="M88.59,305.37c-1,1-1.77,2.24-1.12,5.27S98,323.35,114.41,332.47s30.16,16.51,38.46,16.1,18.82-7.39,18.82-7.39l-.94-.52s-10.68,6.78-17.91,6.68-17-3.73-37.42-15.58S89.55,312.71,88.61,310.2Z" style="fill:#860065"></path><path d="M261.62,268.23a5.23,5.23,0,0,0,3.38-4.66c.25-2.33.1-4.87-3.47-7.29s-6.3-1.57-7.69-.94Z" style="fill:#455a64"></path><path d="M260.15,268.5a3.64,3.64,0,0,1-1.63-.63l-3.69-2.46a6,6,0,0,1-2.57-5.17l.31-2.85a2.45,2.45,0,0,1,2.75-2.33,3.64,3.64,0,0,1,1.63.63l3.68,2.46a6,6,0,0,1,2.58,5.17l-.31,2.85A2.44,2.44,0,0,1,260.15,268.5Z" style="fill:#263238"></path><path d="M256.34,256.44,260,258.9a5.1,5.1,0,0,1,2.14,4.3l-.31,2.86c-.17,1.48-1.38,1.95-2.73,1.06l-3.69-2.46a5.08,5.08,0,0,1-2.14-4.31l.31-2.85C253.77,256,255,255.55,256.34,256.44Z" style="fill:#455a64"></path><g style="opacity:0.2"><path d="M257.44,257.18l-4.12,3,.35-3.29,1.18-.85a2.15,2.15,0,0,1,1.49.44Z" style="fill:#fff"></path><path d="M260.63,259.41l-6.11,4.41a5.24,5.24,0,0,1-.44-.61h0l5.94-4.29A4,4,0,0,1,260.63,259.41Z" style="fill:#fff"></path><path d="M262.16,263.21l-.05.49-3.89,2.81-1.7-1.13,5.41-3.91A4,4,0,0,1,262.16,263.21Z" style="fill:#fff"></path></g><g style="opacity:0.2"><path d="M172.59,295.29c.22,4.73.26,9.48.58,14.19a20.58,20.58,0,0,0,1.39,6.84,3,3,0,0,0,2.43,2,8.8,8.8,0,0,0,3.29-.89,50.73,50.73,0,0,1,6.82-2.11,16.81,16.81,0,0,1,7.13-.26,9.77,9.77,0,0,1,5.89,3.87,20.47,20.47,0,0,1,2.85,6.49,20.43,20.43,0,0,0-3.07-6.33,9.44,9.44,0,0,0-5.75-3.66,16.34,16.34,0,0,0-7,.35,50.62,50.62,0,0,0-6.72,2.18c-.56.2-1.07.44-1.68.6a9.12,9.12,0,0,1-.9.23l-1,0a3.47,3.47,0,0,1-2.81-2.27,21,21,0,0,1-1.34-7C172.49,304.76,172.6,300,172.59,295.29Z"></path></g><g style="opacity:0.2"><path d="M212,285.53c.23,5.77.25,11.54.28,17.32l-.06,8.66q-.06,4.32-.22,8.66c-.1-2.89-.18-5.78-.21-8.66l-.07-8.66C211.8,297.07,211.81,291.3,212,285.53Z"></path></g><g style="opacity:0.2"><path d="M251.11,263.09c.23,5.75.24,11.5.28,17.26l-.07,8.62c0,2.88-.11,5.75-.21,8.63-.11-2.88-.18-5.75-.22-8.63l-.06-8.62C250.86,274.59,250.87,268.84,251.11,263.09Z"></path></g><path d="M184.75,304.25l5.34-3c1.08-.62,2-.53,2,.2a3.69,3.69,0,0,1-2,2.44l-5.34,3c-1.08.62-1.95.53-1.95-.2A3.67,3.67,0,0,1,184.75,304.25Z" style="fill:#37474f"></path><path d="M216.71,285.75l5.34-3c1.08-.62,1.95-.53,1.95.2a3.67,3.67,0,0,1-1.95,2.44l-5.34,3c-1.08.62-2,.53-2-.2A3.67,3.67,0,0,1,216.71,285.75Z" style="fill:#37474f"></path></g></g></g><g id="freepik--Cones--inject-247"><g id="freepik--Cone--inject-247"><path d="M273,430.65l-15.48-8.94a2.11,2.11,0,0,0-1-.25,2.05,2.05,0,0,0-1,.25L240,430.65a.71.71,0,0,0-.43.6v1.12a.74.74,0,0,0,.43.61l15.48,8.93a2.05,2.05,0,0,0,1,.25,2.11,2.11,0,0,0,1-.25L273,433a.73.73,0,0,0,.42-.61v-1.12A.7.7,0,0,0,273,430.65Z" style="fill:#860065"></path><path d="M273.44,431.25v1.12a.73.73,0,0,1-.42.61l-15.48,8.93a2.11,2.11,0,0,1-1,.25v-20.7a2.11,2.11,0,0,1,1,.25L273,430.65A.7.7,0,0,1,273.44,431.25Z" style="opacity:0.1"></path><path d="M256.5,421.46v20.7a2.05,2.05,0,0,1-1-.25L240,433a.74.74,0,0,1-.43-.61v-1.12a.71.71,0,0,1,.43-.6l15.48-8.94A2.05,2.05,0,0,1,256.5,421.46Z" style="opacity:0.30000000000000004"></path><path d="M255.46,440.78,240,431.85a.63.63,0,0,1,0-1.2l15.48-8.94a2.31,2.31,0,0,1,2.08,0L273,430.65a.63.63,0,0,1,0,1.2l-15.48,8.93A2.25,2.25,0,0,1,255.46,440.78Z" style="fill:#860065"></path><path d="M255.46,440.78,240,431.85a.63.63,0,0,1,0-1.2l15.48-8.94a2.31,2.31,0,0,1,2.08,0L273,430.65a.63.63,0,0,1,0,1.2l-15.48,8.93A2.25,2.25,0,0,1,255.46,440.78Z" style="fill:#fff;opacity:0.5"></path><path d="M256.5,421.46a2.08,2.08,0,0,0-1,.25L240,430.65a.63.63,0,0,0,0,1.2l15.48,8.93a2.08,2.08,0,0,0,1,.25Z" style="opacity:0.05"></path><path d="M266.05,430.12h0l-6.85-20.58h0v0h0a1.54,1.54,0,0,0-.74-.79,4.26,4.26,0,0,0-3.9,0,1.56,1.56,0,0,0-.75.79h0v0h0l-6.85,20.58h0c-.63,1.79.26,3.72,2.66,5.11a15.25,15.25,0,0,0,13.8,0C265.8,433.84,266.68,431.91,266.05,430.12Z" style="fill:#860065"></path><path d="M261.17,415.44v0l-1-2.92a1.43,1.43,0,0,1-.42,1.47,3.38,3.38,0,0,1-.61.47,5.93,5.93,0,0,1-5.32,0,2.8,2.8,0,0,1-.61-.47,1.42,1.42,0,0,1-.42-1.48l-1,2.94h0a1.69,1.69,0,0,0,.22,1.47,3.12,3.12,0,0,0,1.09,1,5.63,5.63,0,0,0,1.18.49,7.92,7.92,0,0,0,4.37,0,5.42,5.42,0,0,0,1.18-.49,3.16,3.16,0,0,0,1.1-1A1.69,1.69,0,0,0,261.17,415.44Z" style="fill:#fafafa"></path><path d="M265.1,427.23v0l-1-2.92a2.63,2.63,0,0,1,.05,1.47,3.36,3.36,0,0,1-.83,1.48A5.63,5.63,0,0,1,262,428.3a12.12,12.12,0,0,1-11,0,5.84,5.84,0,0,1-1.36-1.06,3.33,3.33,0,0,1-.82-1.48,2.63,2.63,0,0,1,0-1.47l-1,2.92v0a2.94,2.94,0,0,0-.11,1.47,4.67,4.67,0,0,0,2.52,3.05,13.64,13.64,0,0,0,12.38,0,4.62,4.62,0,0,0,2.51-3.05A3,3,0,0,0,265.1,427.23Z" style="fill:#fafafa"></path><path d="M263.13,421.34v0l-1-2.93a2,2,0,0,1-.09,1.47,3.4,3.4,0,0,1-1.45,1.48l0,0a9,9,0,0,1-8.14,0l-.05,0a3.43,3.43,0,0,1-1.44-1.48,2,2,0,0,1-.1-1.47l-1,2.93v0a2.34,2.34,0,0,0,0,1.48,3.39,3.39,0,0,0,1.08,1.47,5.33,5.33,0,0,0,.78.54,8.28,8.28,0,0,0,2.6.93,11.42,11.42,0,0,0,4.36,0,8.28,8.28,0,0,0,2.6-.93,5.93,5.93,0,0,0,.78-.54,3.29,3.29,0,0,0,1.07-1.47A2.21,2.21,0,0,0,263.13,421.34Z" style="fill:#fafafa"></path><path d="M256.5,408.25a4,4,0,0,0-1.95.47,1.56,1.56,0,0,0-.75.79h0v0h0l-6.85,20.58h0c-.63,1.79.26,3.72,2.66,5.11a14.08,14.08,0,0,0,6.9,1.65h-.06a5.79,5.79,0,0,1-4.74-6.54l2.85-20.49Z" style="opacity:0.1"></path><path d="M254.55,411a1.19,1.19,0,0,1,0-2.25,4.26,4.26,0,0,1,3.9,0,1.19,1.19,0,0,1,0,2.25A4.32,4.32,0,0,1,254.55,411Z" style="fill:#860065"></path><path d="M254.55,411a1.19,1.19,0,0,1,0-2.25,4.26,4.26,0,0,1,3.9,0,1.19,1.19,0,0,1,0,2.25A4.32,4.32,0,0,1,254.55,411Z" style="fill:#fff;opacity:0.5"></path></g><g id="freepik--cone--inject-247"><path d="M300.41,397.55l-15.48-8.94a2.08,2.08,0,0,0-1-.25,2.11,2.11,0,0,0-1,.25l-15.48,8.94a.72.72,0,0,0-.42.6v1.13a.71.71,0,0,0,.42.6l15.48,8.94a2.22,2.22,0,0,0,1,.25,2.19,2.19,0,0,0,1-.25l15.48-8.94a.73.73,0,0,0,.43-.6v-1.13A.74.74,0,0,0,300.41,397.55Z" style="fill:#860065"></path><path d="M300.84,398.15v1.13a.73.73,0,0,1-.43.6l-15.48,8.94a2.19,2.19,0,0,1-1,.25V388.36a2.08,2.08,0,0,1,1,.25l15.48,8.94A.74.74,0,0,1,300.84,398.15Z" style="opacity:0.1"></path><path d="M283.89,388.36v20.71a2.22,2.22,0,0,1-1-.25l-15.48-8.94a.71.71,0,0,1-.42-.6v-1.13a.72.72,0,0,1,.42-.6l15.48-8.94A2.11,2.11,0,0,1,283.89,388.36Z" style="opacity:0.30000000000000004"></path><path d="M282.85,407.69l-15.48-8.94a.63.63,0,0,1,0-1.2l15.48-8.94a2.31,2.31,0,0,1,2.08,0l15.48,8.94a.63.63,0,0,1,0,1.2l-15.48,8.94A2.31,2.31,0,0,1,282.85,407.69Z" style="fill:#860065"></path><path d="M282.85,407.69l-15.48-8.94a.63.63,0,0,1,0-1.2l15.48-8.94a2.31,2.31,0,0,1,2.08,0l15.48,8.94a.63.63,0,0,1,0,1.2l-15.48,8.94A2.31,2.31,0,0,1,282.85,407.69Z" style="fill:#fff;opacity:0.5"></path><path d="M283.89,388.37a2.21,2.21,0,0,0-1,.24l-15.48,8.94a.63.63,0,0,0,0,1.2l15.48,8.94a2.11,2.11,0,0,0,1,.25Z" style="opacity:0.05"></path><path d="M293.45,397h0l-6.85-20.58h0v0h0a1.62,1.62,0,0,0-.75-.8,4.32,4.32,0,0,0-3.9,0,1.59,1.59,0,0,0-.74.8h0v0h0L274.33,397h0c-.63,1.79.25,3.72,2.65,5.11a15.25,15.25,0,0,0,13.8,0C293.19,400.75,294.08,398.82,293.45,397Z" style="fill:#860065"></path><path d="M288.57,382.35v0l-1-2.93a1.43,1.43,0,0,1-.42,1.48,3,3,0,0,1-.61.46,5.87,5.87,0,0,1-5.32,0,3.35,3.35,0,0,1-.61-.46,1.45,1.45,0,0,1-.42-1.48l-1,2.93v0a1.69,1.69,0,0,0,.21,1.47,3.16,3.16,0,0,0,1.1,1,5.94,5.94,0,0,0,1.18.48,7.88,7.88,0,0,0,4.36,0,6,6,0,0,0,1.19-.48,3.12,3.12,0,0,0,1.09-1A1.69,1.69,0,0,0,288.57,382.35Z" style="fill:#fafafa"></path><path d="M292.49,394.14v0l-1-2.93a2.63,2.63,0,0,1,.05,1.47,3.28,3.28,0,0,1-.82,1.48,5.84,5.84,0,0,1-1.36,1.06,12.12,12.12,0,0,1-11,0,5.63,5.63,0,0,1-1.36-1.06,3.21,3.21,0,0,1-.83-1.48,2.63,2.63,0,0,1,0-1.47l-1,2.93v0a3.11,3.11,0,0,0-.11,1.48,4.69,4.69,0,0,0,2.52,3.05,13.71,13.71,0,0,0,12.38,0,4.69,4.69,0,0,0,2.52-3.05A3,3,0,0,0,292.49,394.14Z" style="fill:#fafafa"></path><path d="M290.53,388.24v0l-1-2.92a2,2,0,0,1-.1,1.47,3.36,3.36,0,0,1-1.44,1.47l-.05,0a9,9,0,0,1-8.14,0l0,0a3.33,3.33,0,0,1-1.45-1.47,2,2,0,0,1-.09-1.47l-1,2.92v0a2.24,2.24,0,0,0,0,1.47,3.29,3.29,0,0,0,1.07,1.47,6,6,0,0,0,.78.55,8.81,8.81,0,0,0,2.6.93,11.42,11.42,0,0,0,4.36,0,8.81,8.81,0,0,0,2.6-.93,5.36,5.36,0,0,0,.78-.55,3.39,3.39,0,0,0,1.08-1.47A2.34,2.34,0,0,0,290.53,388.24Z" style="fill:#fafafa"></path><path d="M283.89,375.16a4,4,0,0,0-1.95.46,1.59,1.59,0,0,0-.74.8h0v0h0L274.33,397h0c-.63,1.79.25,3.72,2.65,5.11a14.11,14.11,0,0,0,6.9,1.65h-.06a5.8,5.8,0,0,1-4.74-6.55l2.85-20.48Z" style="opacity:0.1"></path><path d="M281.94,377.88a1.19,1.19,0,0,1,0-2.26,4.32,4.32,0,0,1,3.9,0,1.19,1.19,0,0,1,0,2.26A4.32,4.32,0,0,1,281.94,377.88Z" style="fill:#860065"></path><path d="M281.94,377.88a1.19,1.19,0,0,1,0-2.26,4.32,4.32,0,0,1,3.9,0,1.19,1.19,0,0,1,0,2.26A4.32,4.32,0,0,1,281.94,377.88Z" style="fill:#fff;opacity:0.5"></path></g></g></svg>