<svg xmlns="http://www.w3.org/2000/svg" viewBox="0 0 500 500"><g id="freepik--character-2--inject-33"><g id="freepik--Character--inject-33"><g id="freepik--Bottom--inject-33"><path d="M434.17,388.91c.25,1.53.74,3.32,1.12,6.46s-.3,3.26,1.59,11.15c1.14,4.74.87,6.6-2.09,10.52-3.17,4.18-6.37,3.25-8.37-1.51-1.72-4.07-1.57-5.94-1.49-10.12s.06-5.39-.06-8.71c-.11-2.92.17-4.91,0-7.15Z" style="fill:#37474f"></path><path d="M434.88,400.37c-.49-4.06-.54-8.25-.69-11-.35-6.14,1.14-18.23.46-27.46L419.15,360c.45,3.6,4.41,19.94,5.76,29.78,0,0,.34,13.32,1.08,19.2a1.12,1.12,0,0,0,1.56.9,10.27,10.27,0,0,1,7-.31,1.12,1.12,0,0,0,1.52-1C436.12,406.4,435.25,403.41,434.88,400.37Z" style="fill:#ffbda7"></path><path d="M389.73,359.06c0,12.76-.07,24.05-.53,27.36a26.25,26.25,0,0,1-1.49,6.75,27,27,0,0,1-3.54,6.89s-3.64,3.88-2.83,4.29,8.45,1.2,11.86.17,3.79-3.93,4.95-9.23,2.17-13,2.17-13a3.4,3.4,0,0,1-.35-.9c-.46-1.53.93-5.5,1.28-9.34Z" style="fill:#ffbda7"></path><path d="M403.72,390.17c-.23,1.24-1.29,2.64-1.77,4.56a34.75,34.75,0,0,0-1,6.69c-.16,2.76-.18,3.16-.18,3.16l-.85-.05s.22-4,.31-5.74,0-3-.83-3.27C399.41,395.52,399.58,389.94,403.72,390.17Z" style="fill:#263238"></path><path d="M400.18,381.55c.55,1.46,2.41,3.52,3.21,4.91a5.32,5.32,0,0,1,.65,2.4,2.49,2.49,0,0,1-.76,1.88,27.56,27.56,0,0,0-2.65,2.94,23.66,23.66,0,0,0-3.55,7c-.54,2.31-.86,4.35-2.84,5.5-1.55.89-7.9,2.14-11.12,2.34-4.39.28-5.52-1.83-3.88-3.51s4.43-4.57,4.93-4.93a7.93,7.93,0,0,1,4.08.57c2.46,1.05,3.24,2.48,5.82,1.19,2.34-1.16,3.27-5.48,3.07-11.7C396.92,383.07,400.18,381.55,400.18,381.55Z" style="fill:#37474f"></path><path d="M424.31,272.08a10.81,10.81,0,0,0,1.17,3.9c3.5,4.91,7.06,10.84,7.65,19.95a402.86,402.86,0,0,1,.2,43.17c.15,1.94,1.62,6.65,1.82,17.73.17,8.82-.42,22.54-.42,22.54s-6.34,3.06-11.83.95c-2.16-8.43-5.75-28.69-7.87-38.33-2.25-10.16-4.53-22.28-4.53-22.28l-3.81,17.74a51.19,51.19,0,0,1-.14,11.46c-.7,5.89-5.5,26.65-5.5,26.65s-7,2.14-11.75-1.17c0,0-.4-29.39-.41-35.88s1.26-45,5.34-61.95a36.93,36.93,0,0,0,.26-3.94C399.12,276.48,418.1,276.21,424.31,272.08Z" style="fill:#37474f"></path><path d="M434.86,376.32c-2.41,2.19-9.78,2.73-12.66,1.18l.87,4.59s1.9,1.3,6.09.94,5.53-2,5.53-2Z" style="fill:#455a64"></path><path d="M401.76,372.65c-2.49.83-9.92.39-12.63-1.29l.11,3.93s1.53,1.48,5.71,1.92,6-.72,6-.72Z" style="fill:#455a64"></path><path d="M410.5,319.71,407.77,298a13.75,13.75,0,0,1-11-5.29s-.18,5.44,8.75,7.93l3.27,20-2.12,16.8Z" style="fill:#263238"></path><path d="M394.29,276.25s4.49,3.42,15.11,3,15.76-3.79,15.7-4h0a14.81,14.81,0,0,1-.71-2.77c0-.16-.06-.3-.07-.4-6.21,4.13-25.19,4.4-29.82.54,0,0-.05,2.54-.2,3.63Z" style="fill:#263238"></path><path d="M417.14,276c-1.22,2.54-3,7.86-3.17,11.51a12.58,12.58,0,0,0,5.47,1.22,43,43,0,0,0-.44-11.87Z" style="fill:#263238"></path><path d="M420.25,274.62c1.88,2.1,5.11,6.7,6.26,10.17a12.54,12.54,0,0,1-4.91,2.7A42.85,42.85,0,0,1,418.71,276Z" style="fill:#263238"></path></g><g id="freepik--Top--inject-33"><g id="freepik--Ponytail--inject-33"><path d="M429.32,242.78c-4.14,1.1-10.44,1.14-13.49-2.4-2.89-3.34-3.05-7.09-3.17-11.29a5.28,5.28,0,0,0-.24-1.59,23.79,23.79,0,0,1-.73-4.28c-.18-1.44-.29-2.89-.34-4.34a60.65,60.65,0,0,1,.34-8.63,17.54,17.54,0,0,1,.94-4.55A7.35,7.35,0,0,1,415.4,202a6.63,6.63,0,0,1,3.39-1,9,9,0,0,1,7.17,3.73c1.64,2.37,1.73,5.44,1.8,8.32a267.46,267.46,0,0,0,2.29,28.41.89.89,0,0,1-.73,1.27Z" style="fill:#37474f"></path><path d="M414.92,203.18c.7-.7,3.79-.29,5.6,1.57s2.39,4.67,1.31,5.54S413.72,205.26,414.92,203.18Z" style="fill:#860065"></path></g><g id="freepik--Arm--inject-33"><path d="M346.52,251a1.33,1.33,0,0,0-.1,1.54c.5.51,1.2,0,1.2,0s-1.31.95-.71,1.62,1.43.1,1.43.1-.9.64-.56,1.06,1.48.26,2.64-.53a7.42,7.42,0,0,0,2.19-.83,5,5,0,0,0,1.7.22,6.41,6.41,0,0,0,1,1c.57.45,1.4,1.94,3.06,2.16a7,7,0,0,0,2.67-.08l-5.82-10.08-6.39.55Z" style="fill:#f0997a"></path><path d="M352.62,252.37a3.46,3.46,0,0,1-1.68.45l.06,0a3.83,3.83,0,0,1-1.57.79l.05,0a2,2,0,0,1-1.14.73,2.4,2.4,0,0,0,1-.81v0h0a4.3,4.3,0,0,0,1.49-.76l0,0h0A4.8,4.8,0,0,0,352.62,252.37Z" style="fill:#b16668"></path><path d="M346,248.12c1-.62,2.94-2.17,3.6-2.45a22.34,22.34,0,0,1,3.55-.86,34.28,34.28,0,0,1,4.57,0c1.41.13,1.94.82,3.67,2.78A22.2,22.2,0,0,0,367,252.2l-4.3,5.94c-1.78-1.06-2.66-.57-4.8-1.53a7.4,7.4,0,0,1-3.36-3.45,2,2,0,0,0-1.61-1l-.81-2.93a6.22,6.22,0,0,0,2-.44.6.6,0,0,0,.37-.46v-.07a13.88,13.88,0,0,1-2.14-.13l-2.16.15c-.11.25-1.85.79-1.85.79a3.57,3.57,0,0,1-1.32.64c-.8.2-1.72.34-2.11-.15S345,248.74,346,248.12Z" style="fill:#ffbda7"></path><path d="M367,252.2c4.91,2.66,15.74,7.34,15.74,7.34s7.46,9,4.88,12.08c-2.14,2.55-4.3,2.7-10.78-2-6-4.39-14.14-11.44-14.14-11.44Z" style="fill:#ffbda7"></path><path d="M354.48,248.23a6.8,6.8,0,0,1,.91-2.3,3.69,3.69,0,0,0-1.2,2.32Z" style="fill:#f0997a"></path><g id="freepik--Key--inject-33"><polyline points="345.74 268.01 346.48 267.58 346.93 267.5 346.19 267.93 345.74 268.01" style="fill:#860065"></polyline><g style="opacity:0.4"><polyline points="345.74 268.01 346.48 267.58 346.93 267.5 346.19 267.93 345.74 268.01"></polyline></g><polyline points="345.74 265.68 346.48 265.25 347.26 264.98 346.52 265.41 345.74 265.68" style="fill:#860065"></polyline><g style="opacity:0.4"><polyline points="345.74 265.68 346.48 265.25 347.26 264.98 346.52 265.41 345.74 265.68"></polyline></g><path d="M347.06,258.8a1.53,1.53,0,0,1,.55.67A1.67,1.67,0,0,1,347.06,258.8Zm.65-1.35a2.62,2.62,0,0,0-2.48-.36l-.7.41h0l0,0-.06,0-.06.05-.05,0-.07.06,0,.05a1.26,1.26,0,0,0-.23.39.74.74,0,0,0,0,.14.85.85,0,0,0,0,.17,2.85,2.85,0,0,0,0,.31,5,5,0,0,0,1.24,2.87l.06.06a5.49,5.49,0,0,0,.57.61v1.47l.78.75v.88l-.78.26v.58l.44.77v.91l-.45.08v1l1.19,1.73.24.14.12-.07.09.05V271l.41.23.74-.42v-7.06h.38l.12,0,.09,0h0l.2-.08.09,0,0,0,.7-.4a1.34,1.34,0,0,0,.62-1.25,5.82,5.82,0,0,0-2.35-4A5.4,5.4,0,0,0,347.71,257.45Z" style="fill:#860065"></path><path d="M347,258.73a1.41,1.41,0,0,1,.7,1c0,.34-.31.43-.7.21a1.38,1.38,0,0,1-.71-1C346.26,258.6,346.57,258.51,347,258.73Zm0-.85a2.64,2.64,0,0,0-2.44-.38h0l0,0-.06,0-.06.05-.05,0-.07.06,0,.05a1.26,1.26,0,0,0-.23.39.74.74,0,0,0,0,.14.85.85,0,0,0,0,.17,2.85,2.85,0,0,0,0,.31,5,5,0,0,0,1.24,2.87l.06.06a5.49,5.49,0,0,0,.57.61v1.47l.78.75v.88l-.78.26v.58l.44.77v.91l-.45.08v1l1.19,1.73.24.14.12-.07.09.05V271l.41.23v-7.63a2.63,2.63,0,0,0,.74.15h.38l.12,0,.09,0h0l.2-.08.09,0,0,0a1.34,1.34,0,0,0,.58-1.22,5.82,5.82,0,0,0-2.35-4A7,7,0,0,0,347,257.88Z" style="fill:#860065"></path><g style="opacity:0.15"><path d="M347,258.73a1.41,1.41,0,0,1,.7,1c0,.34-.31.43-.7.21a1.38,1.38,0,0,1-.71-1C346.26,258.6,346.57,258.51,347,258.73Zm0-.85a2.64,2.64,0,0,0-2.44-.38h0l0,0-.06,0-.06.05-.05,0-.07.06,0,.05a1.26,1.26,0,0,0-.23.39.74.74,0,0,0,0,.14.85.85,0,0,0,0,.17,2.85,2.85,0,0,0,0,.31,5,5,0,0,0,1.24,2.87l.06.06a5.49,5.49,0,0,0,.57.61v1.47l.78.75v.88l-.78.26v.58l.44.77v.91l-.45.08v1l1.19,1.73.24.14.12-.07.09.05V271l.41.23v-7.63a2.63,2.63,0,0,0,.74.15h.38l.12,0,.09,0h0l.2-.08.09,0,0,0a1.34,1.34,0,0,0,.58-1.22,5.82,5.82,0,0,0-2.35-4A7,7,0,0,0,347,257.88Z" style="fill:#fff"></path></g><g style="opacity:0.4"><path d="M347,258.73c-.39-.22-.71-.13-.71.21a1.39,1.39,0,0,0,.7,1c.4.22.71.13.71-.21a.71.71,0,0,0-.06-.28,1.67,1.67,0,0,1-.55-.67Z"></path></g><g style="opacity:0.4"><path d="M347.71,257.45a2.62,2.62,0,0,0-2.48-.36l-.7.41a2.64,2.64,0,0,1,2.44.38,7,7,0,0,1,.74.51,5.82,5.82,0,0,1,2.35,4,1.34,1.34,0,0,1-.58,1.22l.7-.4a1.34,1.34,0,0,0,.62-1.25,5.82,5.82,0,0,0-2.35-4A5.4,5.4,0,0,0,347.71,257.45Z" style="fill:#fff"></path></g><path d="M347,257.88a2.64,2.64,0,0,0-2.44-.38l.7-.41a2.62,2.62,0,0,1,2.48.36l.11.07c-.26.14-.51.29-.74.43Z" style="fill:#860065"></path><g style="opacity:0.15"><polygon points="347.38 263.35 347.17 263.23 347.17 270.9 347.29 270.83 347.38 270.88 347.38 263.35"></polygon></g><g style="opacity:0.15"><polygon points="347.29 263.3 347.17 263.23 347.17 270.9 347.29 270.83 347.29 270.83 347.29 263.3"></polygon></g><g style="opacity:0.15"><path d="M348.39,263.3a2.93,2.93,0,0,1-1.45-.46h0a5.17,5.17,0,0,1-2.61-3.77,1.17,1.17,0,0,1,.54-1.09,2.22,2.22,0,0,1,2.13.3,5.18,5.18,0,0,1,2.6,3.77,1.18,1.18,0,0,1-.54,1.09A1.33,1.33,0,0,1,348.39,263.3Zm-1.39-.56a2.13,2.13,0,0,0,2,.3,1.07,1.07,0,0,0,.48-1,5,5,0,0,0-2.54-3.67,2.12,2.12,0,0,0-2-.3,1.07,1.07,0,0,0-.48,1,5,5,0,0,0,2.55,3.67Z"></path></g><g style="opacity:0.5"><path d="M348.53,263.77a2.63,2.63,0,0,1-.74-.15v7.63l.74-.42Z" style="fill:#fff"></path></g></g><path d="M350.49,248.78a2.94,2.94,0,0,0-2.95.28,9,9,0,0,0-4,7,2.9,2.9,0,0,0,1.23,2.69,2.12,2.12,0,0,0,1.1.29,3.35,3.35,0,0,0,1.22-.26.84.84,0,0,0-.3-.15,2.29,2.29,0,0,1-1.9-.09,2.7,2.7,0,0,1-1.11-2.48,8.68,8.68,0,0,1,3.93-6.8,2.31,2.31,0,0,1,3.8,2.2,8.83,8.83,0,0,1-3.23,6.33l.2.15a9.1,9.1,0,0,0,3.28-6.48A2.92,2.92,0,0,0,350.49,248.78Z" style="fill:#455a64"></path><path d="M347,249.3a13.62,13.62,0,0,1,2.71,0c1,0,1.46,0,2.46-.06l.81,2.93c-.59-.06-2.67.2-3.65.12A3.69,3.69,0,0,1,346.5,251C345.73,250.08,346.31,249.46,347,249.3Z" style="fill:#ffbda7"></path><path d="M388.18,271.81c1.68-1.68,4.71-5.16,6.53-7.38s7.83-9.1,7.83-9.1l1.66-17.41c-7.18.65-8.33,2.36-11.19,5.87-2.12,2.61-8.68,13.08-10.2,15.63l-14.76-7.27a10.62,10.62,0,0,1-2.79,8.55s9.23,7.91,14.24,11.12C383,274.06,385.15,274.85,388.18,271.81Z" style="fill:#860065"></path><g style="opacity:0.4"><path d="M388.18,271.81c1.68-1.68,4.71-5.16,6.53-7.38s7.83-9.1,7.83-9.1l1.66-17.41c-7.18.65-8.33,2.36-11.19,5.87-2.12,2.61-8.68,13.08-10.2,15.63l-14.76-7.27a10.62,10.62,0,0,1-2.79,8.55s9.23,7.91,14.24,11.12C383,274.06,385.15,274.85,388.18,271.81Z"></path></g></g><path d="M414.62,234.83l9.58,3c1.64.57,7.85,4.36,5.68,13.71-.71,3.09-1.69,7.43-2.57,11.77-.68,3.31,1.8,9.69,3.8,19.85,0,0-8.21,6.54-24.53,4.69-12.45-1.4-13.8-6.06-13.8-6.06.35-11.6,1.37-16.07,1.35-20.48a10.59,10.59,0,0,1-1.9-6.16c-.08-4.13,1-6.35,4.71-11a81.68,81.68,0,0,1,6.78-7.55Z" style="fill:#fafafa"></path><path d="M396.92,249.24c-2.88,6.56-.94,44-1.19,41.17,0,0-5.37-2.07-5.87-3.86,0-6.74,1.24-20.28,1.32-24.91.09-5.32,0-9.17,1.75-12.44s8.22-11.28,10.79-12.67C401.07,238.84,398,245.31,396.92,249.24Z" style="fill:#860065"></path><g style="opacity:0.2"><path d="M396.92,249.24c-2.88,6.56-.94,44-1.19,41.17,0,0-5.37-2.07-5.87-3.86,0-6.74,1.24-20.28,1.32-24.91.09-5.32,0-9.17,1.75-12.44s8.22-11.28,10.79-12.67C401.07,238.84,398,245.31,396.92,249.24Z"></path></g><path d="M407.4,236.91c-1.81,1.24-9.92,6.82-11.53,17.67a29.91,29.91,0,0,1,3.51-13.43c2.08-3.38,4.85-6.54,7.95-7.46Z" style="fill:#263238"></path><path d="M418.29,234.94a10.09,10.09,0,0,1,0,2.18c-.09,2-3.3,17.41-3.36,24.78a240.89,240.89,0,0,0,1.78,29.66s11.89,1.08,16.26-4.83a83.28,83.28,0,0,1-4-15.49c-.87-5.32,2.67-18.32,1.75-26-.38-3.22-.16-6.11-2.57-6.86-2-.63-5.17-1.47-5.17-1.47Z" style="fill:#860065"></path><g style="opacity:0.2"><path d="M418.29,234.94a10.09,10.09,0,0,1,0,2.18c-.09,2-3.3,17.41-3.36,24.78a240.89,240.89,0,0,0,1.78,29.66s11.89,1.08,16.26-4.83a83.28,83.28,0,0,1-4-15.49c-.87-5.32,2.67-18.32,1.75-26-.38-3.22-.16-6.11-2.57-6.86-2-.63-5.17-1.47-5.17-1.47Z"></path></g><path d="M399.54,207c-4.94.21-7.75,7.66-4.35,12.87,6,9.22,20.51,3.77,20.51,3.77l2.68,7.84s2.73-3,4.58-5.52c3.34-4.5,3.7-15.21-1.74-16.27C422,204.21,406.83,197.45,399.54,207Z" style="fill:#455a64"></path><path d="M399.47,210.85c-.8,1.63-2.72,4.08-2.42,13.1.23,7.05,2.68,8.59,5,9.48,1.13.44,2.87.44,5.29.18l.06,3.3s-4.39,4-3,12.18c13.65-5.69,13.81-12.63,13.81-12.63l.37-11c.44.72,2.61,1.69,4.31-.48,2-2.55,1.55-5.6-.23-6.72s-4-.06-4.76,2c-1.92.8-4.46-1.19-4.34-8.59-2.33-1.23-6.89.5-8.35.34C403,211.77,401.73,209.65,399.47,210.85Z" style="fill:#ffbda7"></path><path d="M421.82,224a1,1,0,0,1-2,.28,1,1,0,0,1,2-.28Z" style="fill:#860065"></path><path d="M407.34,233.61c5.93-1.28,9.25-3.69,9.86-6.09,0,0-.38,3.14-2,4.52-2.34,1.94-7.79,3.2-7.79,3.2Z" style="fill:#f0997a"></path><path d="M404.2,227.41l4.14-1.53a2.1,2.1,0,0,1-1.22,2.8A2.32,2.32,0,0,1,404.2,227.41Z" style="fill:#b16668"></path><path d="M406.18,228.81a2.19,2.19,0,0,0,.94-.13,2.08,2.08,0,0,0,1.37-1.77A2.54,2.54,0,0,0,406.18,228.81Z" style="fill:#f28f8f"></path><path d="M409.72,220.31a1.2,1.2,0,1,1-1.2-1.19A1.19,1.19,0,0,1,409.72,220.31Z" style="fill:#263238"></path><ellipse cx="400.12" cy="219.91" rx="1.2" ry="1.19" style="fill:#263238"></ellipse><polygon points="405.21 217.67 404.57 225.69 400.76 224.18 405.21 217.67" style="fill:#f0997a"></polygon><path d="M398.2,217.94,401,217a1.4,1.4,0,0,0-1.8-.92A1.52,1.52,0,0,0,398.2,217.94Z" style="fill:#263238"></path><path d="M410.82,218.35l-2.7-1.16a1.42,1.42,0,0,1,1.89-.8A1.53,1.53,0,0,1,410.82,218.35Z" style="fill:#263238"></path><path d="M418.34,232.83c.91,0,1.15.51,2.35,1.88a17.9,17.9,0,0,0,2.27,2.18c-1.11,6.77-6.44,15.21-8,23.15-.07-6.43,1.66-15.27,3.29-25.1Z" style="fill:#263238"></path><path d="M421,288.43l1.1.64h0a1,1,0,0,1,.11-.17,1.73,1.73,0,0,1,.26-.28l.15-.11,9-5.21,2.67-1.53,1.09-.63,15.6-9a.49.49,0,0,1,.47-.07l-1.06-.63a.59.59,0,0,0-.19-.05.65.65,0,0,0-.33.1L435,280.09l-1.76,1-2.64,1.51-.07,0-9,5.22-.15.1A1.65,1.65,0,0,0,421,288.43Z" style="fill:#860065"></path><g style="opacity:0.4"><path d="M421,288.43l1.1.64h0a1,1,0,0,1,.11-.17,1.73,1.73,0,0,1,.26-.28l.15-.11,9-5.21,2.67-1.53,1.09-.63,15.6-9a.49.49,0,0,1,.47-.07l-1.06-.63a.59.59,0,0,0-.19-.05.65.65,0,0,0-.33.1L435,280.09l-1.76,1-2.64,1.51-.07,0-9,5.22-.15.1A1.65,1.65,0,0,0,421,288.43Z" style="fill:#fff"></path></g><path d="M422.16,315.36h0l-1.14-.66a.54.54,0,0,1-.2-.47V289.15a1.41,1.41,0,0,1,.22-.72l1.1.64h0a1.43,1.43,0,0,0-.22.72V315A.43.43,0,0,0,422.16,315.36Z" style="fill:#860065"></path><g style="opacity:0.05"><path d="M422.16,315.36h0l-1.14-.66a.54.54,0,0,1-.2-.47V289.15a1.41,1.41,0,0,1,.22-.72l1.1.64h0a1.43,1.43,0,0,0-.22.72V315A.43.43,0,0,0,422.16,315.36Z"></path></g><path d="M451.76,272.57v25a1.59,1.59,0,0,1-.73,1.27l-28.5,16.46a.44.44,0,0,1-.65-.38V289.79a1.43,1.43,0,0,1,.22-.72,1.6,1.6,0,0,1,.51-.55l9-5.22,2.68-1.53L451,272.15a.51.51,0,0,1,.48-.07h.05A.53.53,0,0,1,451.76,272.57Z" style="fill:#860065"></path><g style="opacity:0.15"><path d="M451.76,272.57v25a1.59,1.59,0,0,1-.73,1.27l-28.5,16.46a.44.44,0,0,1-.65-.38V289.79a1.43,1.43,0,0,1,.22-.72,1.6,1.6,0,0,1,.51-.55l9-5.22,2.68-1.53L451,272.15a.51.51,0,0,1,.48-.07h.05A.53.53,0,0,1,451.76,272.57Z" style="fill:#fff"></path></g><path d="M446.2,289.21l-.81-5.25-7.68,2.84a42.43,42.43,0,0,1,.74,5.8,3.42,3.42,0,0,1-.79,2.31c-1.43,1.76-1.36,3.09-2.24,5-.69,1.48-1.5,2.07-1.24,2.38a1.87,1.87,0,0,0,2.53,0,9.27,9.27,0,0,0,1.79-1.94,21.4,21.4,0,0,1-1.1,6.39l-2.34,1.35a11.11,11.11,0,0,1,1.09.74,3.46,3.46,0,0,0,1.71.52,2.43,2.43,0,0,0,1.51-.55,8.17,8.17,0,0,1,.71-.61c.95-.62,2.35-.08,3.29-.72a6.26,6.26,0,0,0,1.12-1.37c.27-.32.61-.58.89-.89a3.72,3.72,0,0,0,.69-1.56,13.08,13.08,0,0,0,.32-1.51,28.38,28.38,0,0,0,.25-4.22A60.52,60.52,0,0,0,446.2,289.21Z" style="fill:#ffbda7"></path><path d="M428.13,238.36c4.58,1.08,7,2.43,8.42,5.34,2.52,5.09,6,11.38,8.21,21.18,2.1,9.17,1.75,16.75,2.39,25.09,0,0-2.73,5.76-9.81,3.22,0,0-2-12.32-3.48-21.79-.58-3.79-7.15-14.95-7.15-14.95S422.66,245.15,428.13,238.36Z" style="fill:#860065"></path><g style="opacity:0.4"><path d="M428.13,238.36c4.58,1.08,7,2.43,8.42,5.34,2.52,5.09,6,11.38,8.21,21.18,2.1,9.17,1.75,16.75,2.39,25.09,0,0-2.73,5.76-9.81,3.22,0,0-2-12.32-3.48-21.79-.58-3.79-7.15-14.95-7.15-14.95S422.66,245.15,428.13,238.36Z"></path></g><path d="M420.27,309.8c-.35.22-.49-.43-.57-1.37l0-1.74s-1.33,1.19-1.66-2.83c-.36-4.43,1.63-5.24,1.63-5.24s0-.74,0-2.2.31-1.81.64-2.06l.5-.25v15.38Z" style="fill:#860065"></path><g style="opacity:0.8"><path d="M420.27,309.8c-.35.22-.49-.43-.57-1.37l0-1.74s-1.33,1.19-1.66-2.83c-.36-4.43,1.63-5.24,1.63-5.24s0-.74,0-2.2.31-1.81.64-2.06l.5-.25v15.38Z" style="fill:#fff"></path></g><path d="M420.75,295.91l1.14-.52c0,.49.25,2.15.73,1.87l.49-.3c0-1.93.15-3.4.6-3.68l1-.6-.06,14.15-1,.6c-.43.25-.52-1.15-.54-2.58l-.25.15c-.84.51-1,1.3-1,2.61l-1.27.9Z" style="fill:#860065"></path><g style="opacity:0.7000000000000001"><path d="M420.75,295.91l1.14-.52c0,.49.25,2.15.73,1.87l.49-.3c0-1.93.15-3.4.6-3.68l1-.6-.06,14.15-1,.6c-.43.25-.52-1.15-.54-2.58l-.25.15c-.84.51-1,1.3-1,2.61l-1.27.9Z" style="fill:#fff"></path></g></g></g></g><g id="freepik--character-1--inject-33"><g id="freepik--character--inject-33"><path d="M254.78,409c1.72-7.35,2.48-17.85,2.93-24.55.6-8.74,4.44-17.93,4.44-17.93s.12-15,.32-23.9c.48-21.46,3.07-32.44,5.28-35.56,1.05-1.47,1.92-3.56,2.87-5.17,1.4-2.37,2.5-4.48,2.5-4.48l29.51.31c2,3.79,4,54.12,1.3,73.43-1,7.4-5.65,40.82-5.77,41.83-.05.43-1.37,2.31-4.34,1.79s-3.74-1.56-3.74-1.87c0-1.08-1-2.63-1.07-3.71-.55-7-1.93-16.56-2.49-23.75a51.57,51.57,0,0,1,1.11-16l-3.85-27.45c-1.75,11.93-5.62,29.94-7.57,35.38-3.38,9.42-13.63,36.53-13.63,36.53-1.07,2.93-7.3,1.39-8.07-3.64Z" style="fill:#b16668"></path><path d="M283.78,341.94l2.44-11.83s7.62-4.36,9.56-8.51a18.38,18.38,0,0,1-7.6,10l-1.89,10.74,1.34,27Z" style="fill:#9a4a4d"></path><path d="M314.66,428a2.9,2.9,0,0,1-.76,2.89,12.51,12.51,0,0,1-9.31,1.4c-4.49-.92-5.69-1.92-7.4-3.58s-3.25-3.38-5.27-4-4.73-1.55-5.3-2.19-.28-3.25-.28-3.25Z" style="fill:#263238"></path><path d="M288.92,408a.81.81,0,0,0-.81.57c-.2.71-.5,2.8-.89,4a29.87,29.87,0,0,0-.86,7.61c.15,1.36,4,2.49,6,3.4a18.9,18.9,0,0,1,5.3,3.93,14,14,0,0,0,8.16,3.7c3.51.23,7.54-.61,8.56-2.16,1.27-1.93,1.58-3.85-3.44-6.64-.95-.53-3.85-2.53-5-3.36a22.75,22.75,0,0,1-3.41-3,14.46,14.46,0,0,1-1.9-2.5,7,7,0,0,1-.52-1.63,14.64,14.64,0,0,1-.35-1.75,1.22,1.22,0,0,0-.4-.89,1.17,1.17,0,0,0-.67-.1,18.43,18.43,0,0,0-3.55.52,2.1,2.1,0,0,0-1.23.66,1.84,1.84,0,0,0-.3.95,8.43,8.43,0,0,1-.1,1,.65.65,0,0,1-.16.32c-.19.16-.46,0-.61-.15a14.42,14.42,0,0,1-1.27-1.79c-.22-.32-1.31-.59-1.6-.86a7.87,7.87,0,0,1-.85-.64C288.72,408.83,288.91,408.44,288.92,408Z" style="fill:#37474f"></path><path d="M297.62,427.5a27.2,27.2,0,0,0-2.27-2h0s5.37,2.6,8,1.09a2.21,2.21,0,0,0,1-2.76c0-.43,4.05-1.94,5.61-2h0c.42.27.76.49,1,.61,5,2.79,4.71,4.71,3.44,6.64-1,1.55-4,2.61-8.5,2.27A14.42,14.42,0,0,1,297.62,427.5Z" style="fill:#455a64"></path><path d="M304,422.54c3.14,1.53,1.71,2,.8,2.09s-5.28-2.9-8.4-5.77-6.05-6.11-7.26-7.21c-.45-.41-.93-.91-1.36-1.38.14-.7.26-1.34.35-1.68a.81.81,0,0,1,.81-.57l.09,1.15a2.34,2.34,0,0,0,.91.55,4.21,4.21,0,0,1,1.54.95,14.42,14.42,0,0,0,1.27,1.79A37.27,37.27,0,0,0,304,422.54Z" style="fill:#263238"></path><path d="M304.59,424.14a.34.34,0,0,1-.2-.09.31.31,0,0,1,0-.45,7.72,7.72,0,0,1,6.09-1.9.32.32,0,0,1,.25.38.31.31,0,0,1-.37.25,7.16,7.16,0,0,0-5.51,1.71A.31.31,0,0,1,304.59,424.14Z" style="fill:#f0f0f0"></path><path d="M301.88,422.34a.39.39,0,0,1-.2-.08.33.33,0,0,1,0-.46,7.72,7.72,0,0,1,6-2,.32.32,0,1,1-.1.63,7.11,7.11,0,0,0-5.46,1.83A.34.34,0,0,1,301.88,422.34Z" style="fill:#f0f0f0"></path><path d="M299.41,420.33a.32.32,0,0,1-.2-.08.33.33,0,0,1,0-.46,7.72,7.72,0,0,1,6.09-1.89.32.32,0,1,1-.12.63,7.12,7.12,0,0,0-5.51,1.71A.29.29,0,0,1,299.41,420.33Z" style="fill:#f0f0f0"></path><path d="M297.23,418.53a.32.32,0,0,1-.2-.08.31.31,0,0,1,0-.45,7.71,7.71,0,0,1,6-2.15.31.31,0,0,1,.27.36.32.32,0,0,1-.36.27,7.11,7.11,0,0,0-5.43,1.94A.36.36,0,0,1,297.23,418.53Z" style="fill:#f0f0f0"></path><path d="M294.89,416.42a.33.33,0,0,1-.19-.08.32.32,0,0,1,0-.45,7.85,7.85,0,0,1,6.56-2.14.32.32,0,0,1,.27.36.32.32,0,0,1-.36.28,7.27,7.27,0,0,0-6,1.91A.34.34,0,0,1,294.89,416.42Z" style="fill:#f0f0f0"></path><path d="M261.1,429.67c-.61,3.08-1.37,5.07-2.73,6.73a4.6,4.6,0,0,1-5.53,1.13c-2-.83-4.52-2.62-4.75-5.38a17,17,0,0,1,1-7.38Z" style="fill:#263238"></path><path d="M255.21,407c-.76.13-1.82,4.07-2.89,8.17-1.16,4.39-2.13,5.63-3.12,9.23-1.13,4.11-1,5.55.09,8.28s6,5.94,9,2.67c2.49-2.66,2.9-5.47,3.29-9.67a88.18,88.18,0,0,1,1.41-10c.6-3.11,2-5.92,1.28-6.37-.12.45-1.28,3.87-1.81,3.41-.25-.09-.24-.54-.07-1.34a1.37,1.37,0,0,0-.1-1.05,1.66,1.66,0,0,0-.9-.56c-.83-.29-2-.71-2.82-.91-.5-.11-.21-.08-.72-.18a4.55,4.55,0,0,0-1.9-.2c-.29.1-.35.36-.46.64s-.23.69-.36,1c-.06.11-.25.34-.37.31s-.18-.59-.13-.83.08-.61.13-.9S255,407.67,255.21,407Z" style="fill:#37474f"></path><path d="M249.58,422.94c-.17.59-1.11,4.3-.12,5.18s2.15-2.11,2.15-2.11,2.88-.47,6.66,1.85c-.3.62,0,2.85,1.19,2.55s2.09-4.36,2.1-4.42c-.39,4-.83,6.72-3.25,9.31-3.06,3.27-7.91.07-9-2.67s-1.22-4.17-.09-8.28C249.31,423.94,249.45,423.31,249.58,422.94Z" style="fill:#455a64"></path><path d="M251.89,426.32c-.23,1.51-1.51.8-1.42-1.35.13-3.24,1.35-6.17,1.85-9.85,1.07-4.1,2-8.23,2.89-8.17-.13.72-.45,2.25-.45,2.25-.07.31-.21,1.08-.21,1.08-.7,3.08-2,6.62-2.35,9.85C251.92,423,252.11,424.81,251.89,426.32Z" style="fill:#263238"></path><path d="M257.8,427.76a26.63,26.63,0,0,0,1.73-4.58c.68-2.76,2.33-7.58,3.34-10.54.29-.92,1.41-3.31,1.42-3.34.51.33.4,2.07-.29,3.9s-1.13,2.94-1.65,4.72c-1.25,3.49-1.89,7.3-2.66,9.31S257.31,429.2,257.8,427.76Z" style="fill:#263238"></path><path d="M258.14,427.88l-.11-.05a10.32,10.32,0,0,0-6.58-1.62.32.32,0,0,1-.08-.64,10.79,10.79,0,0,1,7,1.73.32.32,0,0,1,.08.45A.33.33,0,0,1,258.14,427.88Z" style="fill:#f0f0f0"></path><path d="M259.43,425l-.1,0a13.67,13.67,0,0,0-7.67-2,.34.34,0,0,1-.35-.3.33.33,0,0,1,.3-.35,14,14,0,0,1,8.07,2.07.33.33,0,0,1,.1.45A.34.34,0,0,1,259.43,425Z" style="fill:#f0f0f0"></path><path d="M251.56,420.47a.32.32,0,0,1-.24-.26.33.33,0,0,1,.26-.38c4.06-.77,8.91,1.75,9.06,1.86a.32.32,0,1,1-.37.53s-4.79-2.48-8.57-1.75Z" style="fill:#f0f0f0"></path><path d="M252.57,417.84a.3.3,0,0,1-.24-.24.32.32,0,0,1,.25-.39c4.48-.93,8.54,2,8.68,2.13a.32.32,0,0,1,.05.45.33.33,0,0,1-.46,0s-4-2.86-8.14-2A.22.22,0,0,1,252.57,417.84Z" style="fill:#f0f0f0"></path><path d="M253.29,414.58a.32.32,0,0,1-.24-.25.32.32,0,0,1,.24-.38c4.21-.95,8.58,2.1,8.73,2.22a.32.32,0,0,1,.06.45.33.33,0,0,1-.46.06s-4.28-3-8.18-2.1Z" style="fill:#ebebeb"></path><g id="freepik--top--inject-33"><path d="M280.06,282.14a10.12,10.12,0,0,1-1.19-1.17c-1.81-2.1-2.86-5-5.26-6.35-1.48-.85-2.53-1.33-4-2.16a11.73,11.73,0,0,1-3.73-3.4c-1.3-2.63-1.15-5-.4-7.86s2.27-4.69,4.06-6.81c1.55-1.84,1.14-4.17.95-6.5a20.93,20.93,0,0,1,.19-7.11,7.44,7.44,0,0,1,2.49-3.94,11,11,0,0,1,1.87-1c.62-.35.63-.65.86-1.32.9-2.6,3.09-4,5.6-4.82a27.37,27.37,0,0,1,9.45-.83,48.52,48.52,0,0,0,7.86.82c.75,0,2.51-.14,3.13.27a2.48,2.48,0,0,1,1,2.78c-.28,1.26-1.62,2.31-1.48,4,.78.82,1.78,2.36.54,3.26a2.6,2.6,0,0,1-1.23.43,8.8,8.8,0,0,1,1.39,1.47,3.22,3.22,0,0,1,.65,1.88,2,2,0,0,1-.9,1.71,3.11,3.11,0,0,1-.8.32l-1.83.54c.14.25.25.43.29.49,1.51,2.09,3.75,4.09,4.24,6.73.57,3-2.42,5-.31,8.11A14.4,14.4,0,0,0,305.9,264c2.12,1.94,3.09,4,2.83,7.66a8.1,8.1,0,0,1-4.67,6.23c-2.31.88-5.6-.1-7.53,1.45-1,.78-1.76,1.77-2.69,2.6a10.51,10.51,0,0,1-13.78.18Z"></path><path d="M332.76,285.84c1.64-.64,2.82-2.19,4.76-3.62s3.42-2.07,4-3,1.74.68,1,2-2.24,2.17-1.7,2.52c.8.52,2.53-.51,3.2-.85,2.06-1.06,4.52-3.05,6.93-3.2a1,1,0,0,1,.72.17.79.79,0,0,1,.08,1,4.43,4.43,0,0,1-.68.81,1.2,1.2,0,0,0-.36,1c.06.32.33.57.38.89a1.16,1.16,0,0,1-.12.6,3.74,3.74,0,0,1-.6,1,6.84,6.84,0,0,0-.61.72,6,6,0,0,0-.49,1.58c-.65,2.28-3.56,3.95-5.54,4.89-4.23,2-6.53,1.3-9.15,2.07s-11,4.14-16.83,5.32c-6.13,1.23-6,1.26-10.41-4.14a179.6,179.6,0,0,1-10.66-15.12c-3.06-4.76-2.95-13.25-.71-16.29,7.15,1.2,6.9,3.17,12.32,11.6s8.07,12.85,8.07,12.85S331.12,286.48,332.76,285.84Z" style="fill:#b16668"></path><path d="M341.42,285.28a5.49,5.49,0,0,1-4.95,4.16C338.1,289.93,341.84,289.08,341.42,285.28Z" style="fill:#9a4a4d"></path><path d="M262.22,327.65c1.18-17.08,4.85-21,7.54-25.83,2.43-4.41,3.26-6.13,3-8.34s-2.21-10.59-3.3-16.54-.25-11,1.39-11.46,8.06-2,8.06-2a57.76,57.76,0,0,1,10.77-.65L296,264a33.14,33.14,0,0,1,6.73,6c3.83,4.46,4.71,7.36,4.52,11.43-.18,3.88-3.6,6.21-3.6,6.21a53.63,53.63,0,0,0-.46,7.74s1.21,9.55,2.06,19.07c1.15,12.88,2.35,32.47,2.35,32.47s-5.39,5.95-22.48,5.95-24.56-6.45-24.56-6.45S261.39,339.58,262.22,327.65Z" style="fill:#860065"></path><g style="opacity:0.4"><path d="M262.22,327.65c1.18-17.08,4.85-21,7.54-25.83,2.43-4.41,3.26-6.13,3-8.34s-2.21-10.59-3.3-16.54-.25-11,1.39-11.46,8.06-2,8.06-2a57.76,57.76,0,0,1,10.77-.65L296,264a33.14,33.14,0,0,1,6.73,6c3.83,4.46,4.71,7.36,4.52,11.43-.18,3.88-3.6,6.21-3.6,6.21a53.63,53.63,0,0,0-.46,7.74s1.21,9.55,2.06,19.07c1.15,12.88,2.35,32.47,2.35,32.47s-5.39,5.95-22.48,5.95-24.56-6.45-24.56-6.45S261.39,339.58,262.22,327.65Z"></path></g><g style="opacity:0.2"><path d="M280.2,286s2.22,4,8,3.64a8.64,8.64,0,0,0,7.16-4.56s0,5.56-7.1,5.89S280.2,286,280.2,286Z"></path></g><path d="M296.61,236.92c1.81.94,2.86,3.25,3.11,11.2.23,7.76-1.71,10.1-3.87,11a11.39,11.39,0,0,1-4.78.51l.09,3.71s3.33,4.31-2.18,4.92a9.79,9.79,0,0,1-9.2-4l-.31-10.18s-1.86,1.58-4.36-.38c-2.07-1.62-2.41-4.85-1-6.5a3.22,3.22,0,0,1,5.3.77c.39.87,2.58,1.72,2.56-1.16s-.88-7.13,2.61-9.42C289.6,237.25,290.75,242.65,296.61,236.92Z" style="fill:#b16668"></path><path d="M288.43,252.25l4.22,1.24a2.16,2.16,0,0,1-2.69,1.56A2.29,2.29,0,0,1,288.43,252.25Z" style="fill:#9a4a4d"></path><path d="M290.84,255.12a2.32,2.32,0,0,0-2.29-2l-.18,0a2.27,2.27,0,0,0,1.59,1.94A2,2,0,0,0,290.84,255.12Z" style="fill:#ffa8a7"></path><path d="M298.09,243.2l-2.33-.72a1.17,1.17,0,0,1,1.48-.83A1.28,1.28,0,0,1,298.09,243.2Z" style="fill:#263238"></path><path d="M288.2,242.82l-2.22,1a1.17,1.17,0,0,1,.57-1.6A1.29,1.29,0,0,1,288.2,242.82Z" style="fill:#263238"></path><polygon points="291.58 243.62 292.06 251.07 295.85 249.51 291.58 243.62" style="fill:#9a4a4d"></polygon><path d="M291.07,259.62c-2.54-.19-6.8-.54-9.38-4.21a7.84,7.84,0,0,0,2.58,3.67c2.43,1.52,6.83,1.77,6.83,1.77Z" style="fill:#9a4a4d"></path><path d="M289,245.85a1.07,1.07,0,1,1-1.07-1.07A1.07,1.07,0,0,1,289,245.85Z" style="fill:#263238"></path><circle cx="296.61" cy="245.36" r="1.07" style="fill:#263238"></circle><path d="M254,293.76c2.45-8,5.07-14.51,6.9-19.57,2.41-6.63,5.55-7.83,10.5-8.86,2.88,1.67,4.26,8.53.59,16.22-2.28,5.67-7.19,17.52-7.19,17.52.33,1.65,1.85,12.3,3.72,16.77a4.51,4.51,0,0,0,3,2.51c2,.76,3.15,3.15,4.71,4.32,1.23.91,2.1,1.13,2,1.5s-.9.91-2.25.79a6.34,6.34,0,0,1-2.61-.86,7.45,7.45,0,0,0-1.17-.74c-.63-.23-.55.34-.44.75a8.48,8.48,0,0,0,1,2,23.53,23.53,0,0,0,2.13,3.09,11.51,11.51,0,0,0,1.95,1.8,16.42,16.42,0,0,1,2,2c.26.29.68.79.59,1.22s-.78.65-1.22.58-.81-.26-1.23-.3c-.88-.1-1.73.44-2.6.34a7.47,7.47,0,0,1-.93-.24,6.85,6.85,0,0,0-1.5-.12,3.51,3.51,0,0,1-1.21-.1l-1.15-.46-2.95-1.19a4,4,0,0,1-1.55-1.54,28.36,28.36,0,0,1-3.94-8.45c-1-3.75-4.89-12.47-6.11-17.07C253.05,298.15,252.91,297.18,254,293.76Z" style="fill:#b16668"></path></g></g></g></svg>