<?xml version="1.0" encoding="utf-8"?>
<!-- Generator: Adobe Illustrator 27.5.0, SVG Export Plug-In . SVG Version: 6.00 Build 0)  -->
<svg version="1.1" xmlns="http://www.w3.org/2000/svg" xmlns:xlink="http://www.w3.org/1999/xlink" x="0px" y="0px"
	 viewBox="0 0 800 800" style="enable-background:new 0 0 800 800;" xml:space="preserve">
<g id="background">
	<rect x="1" style="fill:#D91C5C;" width="800" height="800"/>
	<polygon points="-412.362,-263.777 -411.753,-263.824 -411.98,-263.812 	"/>
</g>
<g id="_x31_">
	<g>
		<path style="opacity:0.1;" d="M802.07,452.588l-19.195-2.527l-4.819,0.79l-2.212-0.301l0.225-30.781l-0.853-0.138l0.026-1.368
			l-39.888-5.929l-4.672,0.904l-1.582-0.226l0.326-30.743l-1.18-0.202v-1.719l-40.136-6.644l-4.471,0.992l-6.017-0.979
			l-29.814,6.895l-0.589,36.821h-1.132l-0.641,40.275h-0.84l-2.538,157.357l-0.829,52.331h-12.457l-0.175-0.227v-17.117
			l-2.816-4.094l-7.887,0.025L597,602.406l-9.08-25.858l-6.102-22.555l-3.793-19.515l-4.031-34.322L573,472.652l0.074-10.699
			l3.467,0.025l4.735-0.452l1.18-17.783l-0.087-4.208l-5.727-0.563h-6.204l-1.092-48.313l-2.085-47.546l-1.619-54.807l-0.026-2.059
			l1.18-0.251l2.212-0.542l1.508-0.652l0.677-0.715l0.026-2.852l-0.202-0.739l-1.028-0.73l-1.81-0.652l-2.712-0.665l-0.203-12.194
			v-1.784l0.327-0.037l1.81-0.465l1.206-0.578l0.552-0.615l0.024-4.672l0.29-0.075l1.518-0.716l0.703-0.778l0.115-16.854
			l-0.189-0.867l-1.029-0.828l-1.859-0.767l-2.511-0.59l-3.039-0.452l-0.718-0.05l-0.389-57.518l0.239-30.793l-0.075-1.583
			l-1.77-1.507l-0.052-28.231l-0.026-0.176h-0.463l-0.592,28.395l-1.933,1.482l-0.251,30.907l-1.332,58.874l-0.049,0.063
			l-2.488,0.176l-2.838,0.465l-2.21,0.615l-1.482,0.753l-0.629,0.841l-0.176,16.891l0.253,0.829l1.104,0.779l1.132,0.427
			l-0.038,4.358l0.188,0.665l0.881,0.616l1.505,0.553l1.545,0.327l-0.478,13.827l-2.008,0.464l-2.199,0.54l-1.48,0.666l-0.63,0.728
			l-0.023,2.851l0.237,0.766l1.094,0.716l1.857,0.642l2.865,0.664l-2.514,53.613l-2.887,47.458l-2.035,51.577l-7.547-0.024
			l-4.949,0.59l0.968,18.449l1.481,3.542l5.024,0.464l1.984,0.025l-0.089,8.061l-1.467,27.98l-4.949,35.553l-4.497,20.472
			l-6.756,22.591l-9.946,25.909l-22.705,43.691l-3.216,0.025l-2.535,1.62l-5.954-0.038h-0.728l-2.499-0.012h-6.017l-0.853-0.013
			l-9.143-0.025h-0.855l-3.554,0.038h3.554v0.326l-9.279,0.013l0.187-3.933l6.705-0.012l0.253-0.037h0.074l0.253-0.024v-0.642
			l-7.247-0.024l0.49-9.545l-7.95-0.088l-2.098-37.16l-0.628-0.14l0.051-13.448l1.759-165.119l-0.943-0.604l0.113-5.412
			l-0.478,0.064l-4.206,0.991l-3.001,0.591v-0.778l-10.588-0.892l-0.515,0.2l0.025-0.816l-13.299-2.561l-0.013,1.832l8.325,1.596
			l-9.056-0.075v-0.213l-9.442-0.126l-2.988-0.453l-16.703-0.238l-2.463,0.377l-6.178-0.075v0.201l-10.098-0.188l11.354-1.558v-1.86
			l-14.958,2.111l-0.012,1.18l-0.554,0.05l-2.561-0.05l-0.025,0.289l-0.265,0.025l-0.012,0.352l-2.348-0.993l-10.8,0.604
			l-3.982-0.956l-0.451-0.1l0.037,5.413l-1.268,0.64l0.024,202.103l-0.037,5.427l-12.045-0.113l0.264-31.835l-24.727-1.382
			l-0.05-236.024h1.405v-0.113h0.151v-0.239h0.302l0.024-0.012v-0.114h0.163v-47.482h-11.893v-59.339h-1.23l0.024-0.401
			l-1.582-3.203l-2.612-1.168l-2.109,1.532l-0.352,3.203v-32.564l-0.051-4.283h-1.029l0.074-0.729l-1.594-3.189l-2.625-1.131
			l-2.109,1.608l-0.353,3.391l0.026,0.05h-0.026V183.52l-0.176-3.365l-7.622,0.012l0.013-46.529l-0.139-1.998h-4.483v-8.175
			l1.155-0.477l1.394-3.378l-0.363-0.917l0.251-0.616l-1.406-3.403l-1.03-0.427v-1.067l-0.703-0.251l-0.73-0.05l-0.075-7.31
			l-0.05-7.886l-0.051-7.837l-0.049-7.862l-0.063-7.861l-0.063-7.861l-0.05-7.862l-0.025-0.352l-1.671,0.175l-0.063,7.849
			l-0.05,7.85l-0.076,7.849l-0.05,7.861l-0.062,7.836l-0.051,7.862l-0.062,7.598l-0.629,0.251v1.005l-1.18,0.489l-1.432,3.403
			l0.427,0.98l-0.227,0.553l1.408,3.378l1.003,0.414v8.238h-4.697v48.526h-7.986l-0.026,30.304h-3.265l1.507-0.904l1.62-3.366
			l-0.326-3.152l-2.097-1.105l-2.625,1.608l-1.62,3.34l0.326,3.14l0.829,0.439h-2.412v36.897h-3.44l1.632-0.955l1.633-3.366
			l-0.326-3.203l-2.11-1.167l-2.613,1.557l-1.632,3.341l0.326,3.19l1.03,0.603h-2.649l-0.025,59.326h-11.867l-0.025,47.482
			l0.063,0.014h0.541v0.112h0.602v0.113l0.075,0.026h0.528v0.101h0.025l-0.151,290.3l-1.984,8.478l-0.012,14.078h-19.541
			l0.113-304.04l-20.408-7.786l-96.361,1.281l-11.202,8.113l0.603,302.432H45.772v-0.992l2.536-0.477l1.545-0.842l-0.039-1.531
			l-0.804-0.842l-3.039-0.754l-0.251-0.051l-1.984-222.421l-0.603-20.283l-1.256-19.314l-1.897-18.073l-2.449-16.476l-3.943-0.013
			l-13.664-4.245l-0.589-1.444l-24.226-0.041v432.189h806.96V452.588z M226.387,337.826h-0.552v0.062l-4.823,0.1v-16.978h5.388
			L226.387,337.826z M226.399,317.154h-5.388v-4.194l5.388-0.014V317.154z M295.057,338.001h-0.842l-6.267-0.113v-0.062h-0.075
			v-16.816h7.184V338.001z M295.057,317.154h-7.184v-4.208h7.184V317.154z M574.721,667.396l-0.024-8.992l-40.076-3.001
			l-6.617-0.264l-3.201-0.227l-0.025-13.286h0.025l4.47-0.076v-1.256l-5.124-0.1l-7.409-0.025
			c9.935-11.215,23.133-19.956,37.65-19.956c25.556,0,47.07,27.051,53.688,47.183H574.721z"/>
		<path style="fill:#941740;" d="M802.07,781.401V649.832h-41.76v-36.956h6.275v-50.192h10.801
			c-6.857-6.777-19.299-19.907-25.519-29.914c-9.107-14.349-18.506-32.615-18.506-32.615h-0.158v-24.831l0.529-0.026l0.186-13.078
			c0,0-10.033-1.932-16.943,4.633c-6.936,6.513-19.404,2.595-19.404,2.595s7.65,9.609,17.658,7.836
			c4.525-0.768,8.629-1.218,11.859-1.509v24.408h-0.238c0,0-9.451,18.292-18.426,32.588c-6.326,10.007-18.689,23.137-25.545,29.967
			h10.879v50.192h6.223v33.462h-27.373v-69.253h6.484c-3.52-6.618-9.768-19.378-12.945-29.067
			c-4.553-13.872-8.496-31.635-8.496-31.635h-0.424v-28.088h-4.131v28.061h-0.424c0,0-3.918,17.789-8.443,31.608
			c-2.516,7.624-6.883,17.049-10.246,23.878H616.67v-84.978h6.035c-3.176-6.3-9.133-18.134-12.098-27.214
			c-4.262-12.919-7.916-29.49-7.916-29.49h-0.555v-16.52l0.053-3.177c0,0-10.061-1.933-16.996,4.606
			c-7.016,6.566-19.457,2.621-19.457,2.621s7.65,9.609,17.631,7.862c6.75-1.165,12.494-1.642,15.752-1.853v6.46h-0.98
			c0,0-3.76,16.571-8.021,29.49c-1.932,5.903-5.029,12.733-7.836,18.584v-10.642h-14.375v29.014l-25.545,37.804v-27.161h5.24
			l5.428-9.742v-26.367h-17.102v-48.975h2.436l3.998-7.307V395.11h-9.557v-38.544h15.459c-3.758-5.374-32.826-54.904-34.256-62.317
			c1.801-0.953,3.098-2.674,3.098-4.712c0-2.595-1.879-4.686-4.605-5.295v-31.211h-4.264v1.721
			c-4.234-0.344-13.713-0.212-20.887,6.459c-9.451,8.869-26.287,3.548-26.287,3.548s10.352,13.024,23.904,10.642
			c10.299-1.773,19.379-2.355,23.217-2.541v11.383c-2.699,0.609-4.605,2.7-4.605,5.295c0,2.038,1.324,3.759,3.256,4.712
			c-1.563,7.413-30.734,56.943-34.441,62.317h15.539v38.57h-9.82v19.828l4.129,7.254h2.41v48.975h-17.102v26.367l5.4,9.742h5.109
			v95.672l-44.74-0.635v-21.125h4.078v-28.697h7.227c-4.553-6.512-12.76-18.795-16.836-28.246
			c-6.063-13.475-12.23-30.735-12.23-30.735h-0.16v-18.637h0.371l0.238-13.554c0,0-0.424-0.053-0.582-0.053v-0.741h-3.945v0.635
			c-3.6,0.107-8.736,0.927-12.998,4.871c-7.146,6.777-20.092,2.727-20.092,2.727s7.914,9.928,18.346,8.101
			c6.008-1.032,11.25-1.509,14.797-1.773v17.948c0,0-6.459,17.685-12.414,31.186c-4.184,9.478-12.391,21.761-16.891,28.22h7.254
			v28.75h4.076v21.072H369.07v179.379h79.656v-0.265h85.93v-54.745c0,0,1.563-42.94,43.76-42.94c42.252,0,44.131,42.94,44.131,42.94
			v54.745H802.07z M519.885,457.004h-18.213v-26.473c0,0,1.615-7.359,9.266-7.359c7.703,0,8.947,7.359,8.947,7.359V457.004z"/>
		<g>
			<g>
				<path d="M644.205,338.308c12.845-0.992,24.49,6.545,24.926,23.628c-0.183,14.305-6.959,29.074-18.793,31.892l1.777,3.099
					l-3.652,0.282c0.188,3.856-0.145,7.731-0.869,11.521c-0.883,4.373-2.21,8.703-4.36,12.639c-0.533,0.982-1.115,1.938-1.702,2.885
					c-0.574,0.946-1.194,1.882-1.541,2.914c-0.171,0.516-0.242,1.063-0.173,1.602c0.068,0.539,0.261,1.061,0.508,1.553
					c0.506,0.984,1.19,1.872,1.892,2.734c-0.742-0.829-1.463-1.688-2.005-2.674c-0.268-0.491-0.488-1.021-0.577-1.588
					c-0.094-0.563-0.037-1.15,0.125-1.697c0.338-1.092,0.951-2.045,1.506-3.006c0.567-0.957,1.125-1.916,1.635-2.9
					c2.056-3.928,3.371-8.206,4.211-12.555c0.751-3.746,1.081-7.578,0.948-11.395l-4.026,0.311l1.228-3.315
					c-9.616-0.676-18.135-9.362-22.453-26.86C619.387,351.014,631.36,339.3,644.205,338.308z"/>
				<path d="M720.258,408.814c12.869,0.596,23.498,9.509,21.828,26.517c-1.942,14.173-10.485,27.995-22.576,29.335l1.383,3.295
					l-3.66-0.169c-0.287,3.85-1.096,7.655-2.279,11.325c-1.415,4.231-3.266,8.365-5.885,12.007
					c-0.649,0.909-1.344,1.785-2.043,2.652c-0.687,0.869-1.417,1.721-1.889,2.704c-0.232,0.489-0.371,1.023-0.367,1.567
					c0,0.543,0.127,1.085,0.313,1.603c0.381,1.039,0.95,2.003,1.539,2.945c-0.635-0.914-1.244-1.855-1.66-2.898
					c-0.205-0.522-0.357-1.074-0.377-1.648c-0.023-0.57,0.104-1.146,0.332-1.669c0.471-1.042,1.197-1.911,1.865-2.798
					c0.682-0.881,1.352-1.762,1.979-2.678c2.524-3.644,4.356-7.728,5.726-11.94c1.205-3.625,2.004-7.387,2.342-11.191l-4.034-0.188
					l1.628-3.138c-9.461-1.855-16.845-11.522-18.977-29.42C694.064,418.366,707.389,408.216,720.258,408.814z"/>
				<path d="M690.221,195.97c12.199-4.143,25.35,0.273,30.004,16.717c3.367,13.903,0.461,29.891-10.307,35.553l2.49,2.563
					l-3.469,1.178c1.137,3.689,1.773,7.526,2.012,11.377c0.229,4.455,0.014,8.978-1.094,13.325c-0.273,1.084-0.6,2.153-0.934,3.215
					c-0.321,1.061-0.691,2.119-0.771,3.207c-0.039,0.541,0.029,1.088,0.231,1.594c0.198,0.504,0.514,0.963,0.875,1.378
					c0.734,0.828,1.617,1.518,2.511,2.18c-0.926-0.619-1.837-1.273-2.605-2.093c-0.382-0.41-0.726-0.869-0.952-1.396
					c-0.23-0.522-0.321-1.106-0.301-1.675c0.059-1.143,0.416-2.217,0.716-3.287c0.312-1.067,0.615-2.135,0.864-3.215
					c1.02-4.315,1.233-8.786,0.971-13.207c-0.201-3.815-0.831-7.608-1.905-11.274l-3.823,1.299l0.369-3.516
					c-9.485,1.728-19.889-4.577-28.408-20.46C669.325,214.428,678.022,200.113,690.221,195.97z"/>
				<path d="M576.031,65.98c11.438-5.929,25.102-3.538,32.174,12.02c5.418,13.24,4.946,29.482-4.848,36.698l2.846,2.16l-3.252,1.686
					c1.678,3.476,2.885,7.174,3.699,10.945c0.894,4.371,1.362,8.875,0.92,13.339c-0.107,1.112-0.27,2.219-0.441,3.32
					c-0.158,1.096-0.364,2.198-0.28,3.286c0.044,0.54,0.192,1.072,0.467,1.541c0.273,0.468,0.653,0.875,1.074,1.23
					c0.849,0.708,1.827,1.258,2.81,1.78c-1.008-0.474-2.008-0.983-2.891-1.68c-0.44-0.347-0.848-0.749-1.152-1.236
					c-0.305-0.482-0.483-1.045-0.547-1.611c-0.115-1.139,0.078-2.254,0.213-3.356c0.148-1.103,0.287-2.202,0.371-3.309
					c0.359-4.418-0.101-8.871-1.025-13.203c-0.77-3.741-1.963-7.397-3.576-10.86l-3.586,1.858l-0.162-3.532
					c-9.118,3.133-20.35-1.538-31.159-15.959C558.144,87.368,564.593,71.909,576.031,65.98z"/>
			</g>
			<g>
				<path d="M692.841,510.496c-12.869-0.597-26.193,9.554-24.813,26.215c2.132,17.897,9.516,27.565,18.977,29.42l-1.628,3.138
					l4.034,0.186l0.404,0.02l3.66,0.169l-1.383-3.295c12.091-1.34,20.634-15.162,22.576-29.335
					C716.339,520.006,705.71,511.093,692.841,510.496z"/>
				<path d="M641.61,538.1c-12.858,0.809-24.997,12.35-21.81,28.762c4.068,17.558,12.462,26.363,22.068,27.178l-1.276,3.296
					l4.03-0.254l0.404-0.025l3.656-0.23l-1.733-3.125c11.873-2.649,18.859-17.319,19.247-31.619
					C666.005,544.993,654.468,537.291,641.61,538.1z"/>
				<path d="M658.939,476.469c-12.881-0.269-25.941,10.218-24.137,26.838c2.586,17.837,10.214,27.314,19.719,28.927l-1.547,3.179
					l4.037,0.084l0.404,0.009l3.664,0.076l-1.467-3.259c12.053-1.648,20.241-15.683,21.822-29.9
					C682.672,485.377,671.819,476.737,658.939,476.469z"/>
				<path d="M604.257,559.93c-12.314,3.785-21.427,17.84-14.5,33.055c8.052,16.125,18.268,22.73,27.799,21.281l-0.473,3.503
					l3.86-1.187l0.387-0.118l3.502-1.077l-2.414-2.635c10.928-5.345,14.3-21.24,11.341-35.236
					C629.586,560.943,616.571,556.144,604.257,559.93z"/>
				<path d="M620.515,628.086c-11.27,6.241-17.291,21.872-7.377,35.333c11.202,14.12,22.559,18.479,31.587,15.097l0.26,3.525
					l3.533-1.957l0.354-0.195l3.205-1.776l-2.906-2.08c9.592-7.481,9.616-23.73,3.837-36.816
					C645.51,623.858,631.785,621.845,620.515,628.086z"/>
				<path d="M737.376,586.644c-11.886-4.972-27.882-0.003-32.295,16.122c-4.132,17.544-0.51,29.156,7.742,34.143l-2.604,2.39
					l3.726,1.559l0.372,0.156l3.382,1.414l-0.17-3.57c11.817,2.886,24.58-7.171,31.263-19.819
					C756.189,603.633,749.261,591.616,737.376,586.644z"/>
				<path d="M687.597,573.374c-12.773-1.691-26.913,7.286-26.957,24.004c0.598,18.014,7.13,28.275,16.398,30.931l-1.89,2.988
					l4.004,0.53l0.4,0.053l3.634,0.481l-1.097-3.401c12.16-0.305,21.851-13.348,24.994-27.304
					C710.197,584.852,700.368,575.066,687.597,573.374z"/>
				<path d="M725.856,485.724c-12.676-2.303-27.231,5.983-28.081,22.679c-0.27,18.022,5.762,28.587,14.892,31.686l-2.031,2.893
					l3.975,0.723l0.396,0.072l3.607,0.655l-0.932-3.449c12.16,0.28,22.468-12.281,26.279-26.07
					C747.88,498.277,738.532,488.029,725.856,485.724z"/>
				<path d="M740.732,531.309c-10.903-3.452-24.651,2.21-27.273,16.816c-2.262,15.84,1.863,25.819,9.556,29.573l-2.114,2.319
					l3.418,1.082l0.343,0.109l3.101,0.981l-0.433-3.144c10.678,1.614,21.163-8.29,26.069-20.004
					C758.716,544.835,751.636,534.761,740.732,531.309z"/>
				<path d="M669.807,773.774l-0.932-0.365c0.891-2.267,0.985-25.098,1.049-40.205c0.032-7.831,0.059-14.017,0.178-15.325
					c0.102-1.109,0.188-2.193,0.272-3.261c0.373-4.721,0.727-9.18,2.307-14.026c5.824-17.863,8.102-34.412,7.169-52.082
					c-0.309-5.839-1.14-11.662-1.943-17.295c-1.058-7.417-2.152-15.087-2.066-22.88c0.103-9.159,1.426-22.144,7.15-31.986
					c1.037-1.783,2.406-3.578,3.855-5.477c3.489-4.575,7.098-9.306,6.663-14.571l0.996-0.082c0.467,5.648-3.428,10.755-6.864,15.26
					c-1.43,1.874-2.78,3.645-3.785,5.373c-5.615,9.654-6.915,22.456-7.016,31.496c-0.086,7.716,1.003,15.348,2.056,22.728
					c0.807,5.653,1.641,11.5,1.951,17.383c0.94,17.797-1.354,34.461-7.216,52.445c-1.544,4.733-1.893,9.135-2.262,13.795
					c-0.085,1.071-0.171,2.159-0.272,3.273c-0.116,1.265-0.142,7.431-0.174,15.237C670.84,753.3,670.691,771.521,669.807,773.774z"
					/>
				<path d="M669.063,771.229h-1c0-2.726,0.111-8.99,0.252-16.922c0.338-19.095,0.85-47.952,0.248-54.57
					c-1.058-11.648-8.677-24.076-14.798-34.062l-1.018-1.661c-5.613-9.186-6.111-17.294-6.688-26.681
					c-0.158-2.584-0.323-5.256-0.604-8.049c-1.273-12.599-1.892-24.393-1.892-36.056h1c0,11.629,0.617,23.39,1.886,35.956
					c0.284,2.812,0.449,5.493,0.608,8.087c0.569,9.254,1.06,17.246,6.544,26.221l1.017,1.659
					c6.176,10.075,13.862,22.613,14.941,34.495c0.606,6.672,0.094,35.561-0.245,54.678
					C669.174,762.252,669.063,768.513,669.063,771.229z"/>
				<path d="M670.93,777.769h-1l-0.001-1.299c-0.026-49.601,1.42-64.481,2.637-68.23c3.304-10.174,10.679-17.054,18.486-24.338
					c9.791-9.135,16.156-18.477,20.031-29.398c2.792-7.868,3.642-15.476,4.541-23.53c0.483-4.331,0.983-8.81,1.814-13.295
					l0.982,0.182c-0.823,4.45-1.322,8.91-1.804,13.224c-0.866,7.757-1.762,15.777-4.591,23.754
					c-3.932,11.079-10.38,20.547-20.293,29.795c-7.71,7.193-14.993,13.988-18.217,23.916c-1.195,3.681-2.614,18.451-2.588,67.921
					L670.93,777.769z"/>
				<path d="M668.423,777.851l-0.986-0.164c1.396-8.385,1.136-24.305,0.86-41.159c-0.423-25.931-0.903-55.321,4.312-67.593
					c5.566-13.102,13.113-20.588,20.412-27.828c7.263-7.205,14.773-14.654,20.281-27.688l0.44-1.04
					c2.448-5.777,5.495-12.967,6.19-19.205c0.45-4.04,3.9-11.122,6.184-15.809c0.398-0.817,0.752-1.544,1.035-2.143l0.904,0.428
					c-0.284,0.603-0.641,1.332-1.04,2.153c-2.116,4.344-5.658,11.613-6.089,15.483c-0.712,6.383-3.79,13.646-6.264,19.483
					l-0.44,1.039c-5.586,13.215-13.167,20.735-20.499,28.009c-7.231,7.172-14.706,14.588-20.196,27.509
					c-5.131,12.077-4.653,41.354-4.231,67.187C669.572,753.412,669.833,769.376,668.423,777.851z"/>
				<path d="M673.43,774.769h-1c0-31.692-1.966-102.385-5.884-130.443c-1.187-8.497-2.884-16.935-4.525-25.095
					c-2.611-12.98-5.312-26.4-5.979-40.253c-0.848-17.573,0.086-35.332,0.988-52.506c0.135-2.577,0.271-5.152,0.4-7.728l0.998,0.051
					c-0.129,2.576-0.265,5.152-0.4,7.729c-0.9,17.15-1.832,34.883-0.988,52.405c0.664,13.777,3.357,27.161,5.961,40.104
					c1.645,8.175,3.345,16.627,4.535,25.153C671.46,672.291,673.43,743.052,673.43,774.769z"/>
				<path d="M674.43,779.284l-1-0.031c0.138-4.338-1.266-50.451-1.499-54.455c-0.431-7.39-1.392-14.782-3.116-23.972
					c-1.898-10.11-6.67-28.932-17.303-41.379c-1.369-1.604-2.786-3.237-4.23-4.901c-14.554-16.778-31.049-35.794-30.352-58.293
					l1,0.031c-0.686,22.107,15.674,40.967,30.107,57.606c1.445,1.666,2.864,3.302,4.234,4.906
					c10.784,12.624,15.609,31.636,17.525,41.846c1.732,9.231,2.698,16.664,3.132,24.097
					C673.162,728.748,674.567,774.937,674.43,779.284z"/>
				<path d="M671.66,777.406l-0.961-0.275c1.292-4.518,3.219-51.998,1.761-57.49c-1.736-6.544-5.525-12.687-8.222-16.737
					c-0.993-1.491-1.944-2.993-2.894-4.492c-1.99-3.143-4.049-6.394-6.438-9.405c-0.777-0.979-1.536-1.905-2.276-2.807
					c-3.133-3.821-5.839-7.121-8.156-12.224l0.91-0.414c2.263,4.984,4.931,8.237,8.02,12.003c0.743,0.906,1.506,1.836,2.286,2.82
					c2.422,3.052,4.495,6.326,6.499,9.491c0.945,1.492,1.893,2.988,2.881,4.473c2.737,4.11,6.581,10.348,8.356,17.036
					C674.898,724.932,672.964,772.849,671.66,777.406z"/>
				<path d="M670.428,774.31l-0.996-0.082c1.08-13.11,5.971-47.697,9.542-72.95c1.254-8.872,2.338-16.534,2.961-21.197
					c0.324-2.434,0.625-4.86,0.925-7.278c1.362-10.994,2.648-21.379,5.983-31.696c2.253-6.971,4.582-14.024,6.835-20.845
					c4.6-13.926,9.356-28.326,13.66-42.634c2.715-9.025,4.092-19.407,4.092-30.858h1c0,11.549-1.391,22.027-4.135,31.146
					c-4.309,14.321-9.066,28.728-13.668,42.659c-2.252,6.819-4.581,13.871-6.833,20.838c-3.305,10.227-4.586,20.566-5.942,31.513
					c-0.3,2.422-0.601,4.852-0.927,7.288c-0.623,4.666-1.706,12.33-2.961,21.204C676.394,726.658,671.506,761.229,670.428,774.31z"
					/>
				<rect x="662.334" y="735.501" width="18.5" height="44.999"/>
			</g>
		</g>
		<path d="M64.517,440.955c2.364,20.15,7.263,39.537,14.384,57.826H61.612c-3.647,0-6.6,2.957-6.6,6.602
			c0,12.04,14.842,26.586,33.277,26.586c2.152,0,4.249-0.205,6.285-0.575c14.756,25.487,34.137,47.972,56.978,66.317H133.02
			c-3.646,0-6.601,2.956-6.601,6.6c0,12.042,14.843,26.587,33.281,26.587c10.261,0,19.406-4.51,25.503-10.584
			c12.483,6.914,25.65,12.737,39.381,17.33L190.15,768.531h16.786l33.195-126.271c3.212,0.835,6.458,1.587,9.722,2.286
			c-2.229,1.06-3.779,3.313-3.779,5.946c0,12.039,14.842,26.584,33.279,26.584c18.433,0,33.279-14.545,33.279-26.584
			c0-0.366-0.052-0.717-0.108-1.065c11.145-0.609,22.085-2,32.769-4.108l32.594,123.212h16.713l-33.515-126.898
			c1.674-0.451,3.341-0.92,5.001-1.409c5.087,9.108,16.833,17.2,30.582,17.2c18.433,0,33.277-14.548,33.277-26.589
			c0-3.644-2.953-6.601-6.599-6.601h-17.014c16.35-8.313,31.603-18.48,45.501-30.211c5.716,4.061,13.014,6.781,20.984,6.781
			c18.434,0,33.276-14.544,33.276-26.585c0-3.646-2.952-6.601-6.601-6.601h-20.946c11.356-13.155,21.282-27.571,29.553-43.003
			c2.898,0.771,5.956,1.211,9.121,1.211c18.434,0,33.278-14.548,33.278-26.588c0-3.645-2.954-6.602-6.6-6.602h-21.607
			c7.686-21.5,12.349-44.424,13.459-68.264c16.645-1.798,29.507-15.169,29.507-26.376c0-3.646-2.956-6.6-6.601-6.6h-23.654
			c-1.913-20.838-6.529-40.902-13.515-59.833c12.662-4.375,21.639-15.25,21.639-24.613c0-3.645-2.955-6.601-6.601-6.601h-29.215
			c-13.279-24.357-30.723-46.125-51.356-64.365c8.636-5.333,14.278-13.696,14.278-21.115c0-3.645-2.956-6.6-6.604-6.6H417.5
			c-21.677-12.533-45.513-21.728-70.804-26.874c6.92-5.282,11.281-12.534,11.281-19.056c0-3.645-2.956-6.601-6.602-6.601H298.02
			c-3.648,0-6.601,2.956-6.601,6.601c0,4.738,2.305,9.861,6.217,14.336c-19.431,0.148-38.311,2.642-56.369,7.225
			c0.249-1.159,0.381-2.309,0.381-3.437c0-3.646-2.955-6.602-6.603-6.602h-53.354c-3.648,0-6.603,2.956-6.603,6.602
			c0,8.001,6.56,17.104,16.368,22.314c-18.395,9.479-35.396,21.299-50.604,35.065h-38.861c-3.646,0-6.6,2.956-6.6,6.601
			c0,8.394,7.215,17.998,17.829,23.05c-11.855,15.117-21.904,31.71-29.84,49.447H54.948c-3.646,0-6.601,2.957-6.601,6.603
			c0,9.81,9.854,21.278,23.471,25.194c-5.361,18.901-8.42,38.759-8.868,59.251H41.72c-3.648,0-6.601,2.955-6.601,6.602
			C35.119,425.775,47.925,439.109,64.517,440.955z M77.28,370.42l11.52,2.374l-14.013,13.707
			C75.428,381.081,76.263,375.718,77.28,370.42z M121.568,505.384c0-3.645-2.955-6.602-6.601-6.602h-4.861
			c-3.766-8.302-6.989-16.897-9.651-25.733l70.37-20.071c4.647,15.003,11.852,28.894,21.104,41.156l-57.463,45.244
			c-5.84-7.618-11.165-15.649-15.923-24.044C120.482,512.059,121.568,508.63,121.568,505.384z M226.996,579.662l-10.086,24.232
			c-23.596-10.255-44.927-24.762-63.026-42.554l52.002-51.428c11.319,10.957,24.55,19.949,39.139,26.423l-17.376,41.756
			c-0.256,0.16-0.478,0.369-0.598,0.658C226.932,579.044,226.92,579.363,226.996,579.662z M310.392,438.913l46.949,84.264
			c-7.426,3.924-15.294,7.107-23.509,9.475L310.392,438.913z M332.367,593.623l1.992,10.003l-15.866-8.467l11.599-10.631
			L332.367,593.623z M471.153,530.115l-0.525-13.144l6.539,3.833C475.244,523.965,473.236,527.066,471.153,530.115z
			 M480.623,522.831l11.001,6.446l-19.9,7.017C474.853,531.925,477.825,527.438,480.623,522.831z M417.028,478.722
			c6.131-10.963,10.777-22.86,13.658-35.427l45.179,9.316c0.125,0.063,0.241,0.145,0.384,0.171c0.151,0.029,0.306,0.022,0.456,0.003
			l25.647,5.288c-2.639,11.937-6.299,23.491-10.897,34.564h-0.91c-3.647,0-6.6,2.957-6.6,6.602c0,2.191,0.496,4.468,1.413,6.724
			c-1.653,3.301-3.388,6.556-5.21,9.754L417.028,478.722z M507.313,372.54c-0.961-4.92-2.093-9.779-3.39-14.573l12.152-3.466
			l-8.205,18.523L507.313,372.54z M510.104,435.294l13.753,1.247l-16.244,15.809C508.665,446.736,509.505,441.052,510.104,435.294z
			 M476.572,306.952c0,6.605,4.471,13.958,11.545,19.255c4.054,8.753,7.514,17.833,10.331,27.191l-70.366,20.071
			c-4.646-15.004-11.853-28.891-21.105-41.155l57.467-45.246c4.439,5.794,8.591,11.822,12.412,18.072
			C476.688,305.719,476.572,306.318,476.572,306.952z M191.269,235.885c1.492-0.913,2.994-1.81,4.509-2.686l11.689,20.978
			l-22.521-1.142L191.269,235.885z M182.563,250.977l-4.614-6.209c3.018-2.183,6.094-4.294,9.232-6.317L182.563,250.977z
			 M207.199,257.115l-7.145,17.402l-13.716-18.46L207.199,257.115z M209.843,258.444l10.65,19.118l-18.026-1.157L209.843,258.444z
			 M221.321,280.569l-3.317,18.101l-14.291-19.232L221.321,280.569z M223.787,283.472l7.603,13.647
			c-2.476,1.456-4.907,2.985-7.277,4.592l-3.58-0.496L223.787,283.472z M236.077,306.348l0.495,0.068l0.012,0.022l-2.015,14.525
			l-6.824-9.181C230.448,309.867,233.22,308.047,236.077,306.348z M280.862,393.147c-0.417,0.387-0.827,0.781-1.218,1.192
			l-76.995-58.969c5.998-7.443,12.838-14.174,20.368-20.065L280.862,393.147z M274.482,402.004c-0.413,0.921-0.79,1.861-1.102,2.834
			l-95.018-19.595c2.644-11.445,6.856-22.292,12.427-32.292L274.482,402.004z M193.778,347.868c1.568-2.523,3.229-4.981,4.967-7.381
			l3.284,12.216L193.778,347.868z M152.139,305.345l0.201,18.233l-19.253-11.283L152.139,305.345z M130.055,310.263l-0.763-16.149
			c1.14-1.627,2.3-3.24,3.485-4.832l17.677,13.539L130.055,310.263z M181.877,347.726c-6.131,10.961-10.779,22.858-13.658,35.426
			l-18.72-3.86c-0.004,0-0.011-0.004-0.016-0.004c0,0-0.002,0-0.003,0L123.833,374c-0.21-0.213-0.46-0.384-0.763-0.438
			c-0.286-0.052-0.576-0.006-0.839,0.105l-25.677-5.295c1.98-8.961,4.529-17.712,7.627-26.201
			c6.598-5.241,10.724-12.28,10.724-18.626c0-1.336-0.402-2.574-1.085-3.613c1.571-3.113,3.216-6.183,4.937-9.204L181.877,347.726z
			 M121.739,305.643c1.542-2.538,3.147-5.035,4.792-7.5l0.501,10.602L121.739,305.643z M95.574,374.191l21.476,4.43l-12.736,12.546
			L95.574,374.191z M101.588,392.315l-8.792-0.798c0.452-4.33,1.046-8.615,1.759-12.86L101.588,392.315z M122.526,445.666
			l1.593-0.266l11.948,11.36l-21.225,6.057L122.526,445.666z M111.224,463.684l-15.366-13.579l23.177-3.857L111.224,463.684z
			 M127.759,444.794l18.11-3.016l-6.517,14.037L127.759,444.794z M149.392,441.194l2.373-0.396l12.749,7.85l-21.422,6.11
			L149.392,441.194z M156.192,440.06l10.979-1.826c0.576,3.061,1.254,6.088,2.036,9.074l-0.853,0.243L156.192,440.06z
			 M160.284,397.638l-24.108-2.188l11.058-10.606l4,0.825L160.284,397.638z M155.613,386.572l11.419,2.355
			c-0.415,2.266-0.773,4.549-1.073,6.853l-2.084,1.722L155.613,386.572z M133.379,394.048l-6.272-13.355l16.622,3.428
			L133.379,394.048z M130.541,394.941l-23.677-2.148l13.659-13.456l2.979,0.613L130.541,394.941z M186.936,505.57l8.641-6.807
			c1.646,1.993,3.353,3.935,5.108,5.829l-0.002,1.592L186.936,505.57z M198.389,509.034l-16.987,16.802l-1.093-15.051l3.08-2.423
			L198.389,509.034z M180.748,450.147l93.334-26.622c0.599,1.475,1.335,2.878,2.171,4.214l-76.218,60.013
			C191.602,476.529,185.018,463.845,180.748,450.147z M312.475,533.252l-1.816-21.669l1.516,1.293l3.767,15.058L312.475,533.252z
			 M316.916,531.838l1.075,4.3c-1.4,0.211-2.814,0.376-4.226,0.54L316.916,531.838z M310.309,507.41l-0.075-0.897l0.24-0.436
			l0.47,1.875L310.309,507.41z M324.424,424.442c0.415-0.921,0.789-1.862,1.101-2.832l95.017,19.594
			c-2.646,11.443-6.857,22.291-12.428,32.292L324.424,424.442z M367.896,456.758l2.374,6.989l-31.145-23.855L367.896,456.758z
			 M374.824,467.233l-0.345-0.264l-2.696-7.935l12.033,7.054L374.824,467.233z M387.981,468.53l4.608,2.699l3.136,12.013
			l-17.575-13.46L387.981,468.53z M405.127,478.579c-1.506,2.424-3.101,4.786-4.766,7.097l-0.896,0.234l-3.28-12.571
			L405.127,478.579z M423.468,503.94l-3.594-16.715l19.346,11.338L423.468,503.94z M442.481,500.565l0.064,18.537l-16.763-12.838
			L442.481,500.565z M420.001,501.836l-11.95-9.153c1.735-2.364,3.399-4.786,4.98-7.265l2.604-0.679l0.791,0.462L420.001,501.836z
			 M383.149,392.415l13.442-3.833l-4.537,6.238l-2.668,0.443L383.149,392.415z M384.185,396.129l-33.757,5.62l28.353-8.086
			L384.185,396.129z M401.192,387.27l5.321-1.518l9.334,5.108l-19.646,3.269L401.192,387.27z M410.551,384.6l9.222-2.631
			c0.68,2.614,1.251,5.267,1.762,7.943l-0.976,0.161L410.551,384.6z M422.502,395.728c0.81,5.72,1.256,11.556,1.256,17.496
			c0,2.787-0.127,5.546-0.308,8.288l-96.629-8.765c-0.007-0.365-0.035-0.722-0.055-1.083L422.502,395.728z M379.591,423.453
			l3.886,4.087l-32.326-6.667L379.591,423.453z M392.261,429.352l-3.723-0.768l-4.497-4.728l14.84,1.347L392.261,429.352z
			 M403.728,425.644l4.222,0.382l6.496,7.899l-18.009-3.712L403.728,425.644z M422.927,427.387
			c-0.309,2.707-0.714,5.387-1.196,8.039l-2.69-0.553l-6.968-8.472L422.927,427.387z M322.654,398.708l76.218-60.012
			c8.432,11.221,15.018,23.906,19.288,37.604l-93.335,26.622C324.224,401.445,323.491,400.042,322.654,398.708z M414.135,319.174
			l-10.807,8.508c-1.628-1.974-3.319-3.896-5.054-5.774v-2.276l1.112-1.1L414.135,319.174z M402.243,315.706l15.409-15.24
			l1.114,15.062l-1.082,0.85L402.243,315.706z M382.633,335.102l7.182-7.104c1.86,1.97,3.676,3.98,5.406,6.069l-1.314,1.035H382.633
			z M390.163,338.049l-15.658,12.329l1.073-8.296l4.074-4.033H390.163z M362.418,355.097l9.751-9.646l-0.976,7.533l-2.063,1.626
			L362.418,355.097z M364.997,357.866l-26.381,20.771l20.576-20.351L364.997,357.866z M316.738,391.982
			c-1.277-1.04-2.649-1.969-4.099-2.768l37.268-89.554c13.318,5.942,25.399,14.151,35.763,24.145l-11.712,11.583
			c-0.123,0.088-0.229,0.195-0.322,0.318L316.738,391.982z M356.226,269.135l-0.686,1.647l-13.895,7.142l6.162-21.313
			L356.226,269.135z M348.874,252.916l0.112-0.385l15.961-4.355l-7.363,17.693L348.874,252.916z M353.784,274.999l-5.34,12.833
			c-2.127-0.834-4.283-1.613-6.459-2.34l-1.678-2.943l0.212-0.733L353.784,274.999z M325.899,332.377l4.355-15.062l2.94,7.16
			l-1.742,4.182L325.899,332.377z M329.408,333.577l-12.629,30.344l7.847-27.143L329.408,333.577z M331.57,312.762l1.161-4.013
			l9.189-5.24l-7.122,17.111L331.57,312.762z M333.907,304.686l2.898-10.024c2.594,0.819,5.142,1.745,7.661,2.727l-0.694,1.671
			L333.907,304.686z M304.18,386.267c-1.324-0.231-2.677-0.368-4.063-0.401l-8.105-96.703c2.463-0.147,4.939-0.243,7.441-0.243
			c10.949,0,21.565,1.438,31.686,4.107L304.18,386.267z M286.773,297.25l1.423,17.004l-6.542-5.518l-0.537-2.704L286.773,297.25z
			 M280.287,301.872l-2.205-11.076c2.658-0.463,5.337-0.863,8.05-1.152l0.235,2.788L280.287,301.872z M288.545,318.404l0.521,6.222
			l-3.113,5.699l-3.375-16.955L288.545,318.404z M289.514,329.956l2.645,31.526l-5.306-26.651L289.514,329.956z M306.895,537.284
			c-2.464,0.146-4.942,0.242-7.443,0.242c-10.428,0-20.556-1.308-30.242-3.739l19.695-73.47l5.43-18.78l6.821,27.272
			L306.895,537.284z M263.897,490.992l-14.898,35.792c-13.316-5.94-25.399-14.15-35.762-24.144l64.687-63.979L263.897,490.992z
			 M236.316,466.688l23.974-18.876l-18.708,18.502L236.316,466.688z M238.364,469.496l-11.785,11.658l0.989-7.579l4.626-3.64
			L238.364,469.496z M223.164,484.531l-2.142,2.117l-10.042-0.012l13.274-10.451L223.164,484.531z M209.092,498.448
			c-1.858-1.97-3.675-3.981-5.407-6.068l3.558-2.801l10.802,0.016L209.092,498.448z M209.318,431.217l3.008-0.501l5.713,2.664
			l-13.085,3.733L209.318,431.217z M200.307,438.439l-5.414,1.544l-8.794-4.899l19.036-3.17L200.307,438.439z M217.466,429.86
			l31.015-5.164l-26.114,7.45L217.466,429.86z M179.133,444.476c-0.521-2.001-0.993-4.023-1.415-6.065l1.189-2.131l2.528-0.421
			l9.45,5.269L179.133,444.476z M176.404,430.72c-0.809-5.721-1.254-11.557-1.254-17.496c0-2.789,0.123-5.546,0.307-8.29
			l96.628,8.768c0.007,0.363,0.035,0.722,0.055,1.08L176.404,430.72z M220.227,403.078l-3.787-3.963l31.324,6.459L220.227,403.078z
			 M185.282,392.69l17.165,3.54l-7.261,4.576l-3.455-0.314L185.282,392.69z M187.596,400.116l-11.617-1.053
			c0.31-2.711,0.714-5.391,1.197-8.045l3.493,0.72L187.596,400.116z M206.614,397.089l4.746,0.978l4.401,4.605l-15.74-1.428
			L206.614,397.089z M155.099,306.378l16.714,12.802l-16.51,5.772L155.099,306.378z M174.288,321.436l3.845,17.261l-19.882-11.653
			L174.288,321.436z M177.831,323.788l13.024,9.976c-1.331,1.813-2.617,3.663-3.858,5.544l-5.364,1.441l-0.027-0.016
			L177.831,323.788z M230.649,369.478l-2.483-7.14l31.621,24.218L230.649,369.478z M213.033,359.153l9.33-1.259l1.546,1.186
			l2.82,8.101L213.033,359.153z M202.358,342.573l16.704,12.792l-10.153,1.371l-3.255-1.908L202.358,342.573z M254.433,347.696
			l0.544-8.244l19.982,35.866L254.433,347.696z M251.719,344.043l-10.312-13.878l9.899,2.702l1.027,1.843L251.719,344.043z
			 M237.078,324.339l1.89-13.622l10.333,18.545l-10.744-2.931L237.078,324.339z M241.566,303.27
			c9.578-5.063,19.891-8.9,30.734-11.328l18.944,95.144c-0.841,0.264-1.669,0.565-2.473,0.907L241.566,303.27z M270.315,251.788
			l13.248,7.21l0.233,2.754l-8.972,12.683L270.315,251.788z M284.177,266.315l1.093,13.033c-2.189,0.23-4.362,0.512-6.522,0.846
			l-3.015-1.942L284.177,266.315z M285.034,205.943c4.765-0.328,9.57-0.508,14.418-0.508c18.992,0,37.392,2.575,54.883,7.37
			l-20.326,70.301c-11.034-2.933-22.614-4.504-34.557-4.504c-2.789,0-5.556,0.096-8.305,0.264L285.034,205.943z M355.866,228.736
			l10.722,15.496l-0.207,0.497l-16.435,4.486L355.866,228.736z M356.923,225.083l0.233-0.808l16.468-5.146
			c0.982,0.376,1.96,0.755,2.936,1.146l-8.624,20.722L356.923,225.083z M381.998,222.552c23.594,10.254,44.926,24.761,63.025,42.552
			l-51.999,51.432c-11.322-10.959-24.552-19.952-39.141-26.428L381.998,222.552z M436.726,301.387l-15.166,11.94l-1.153-15.585
			l0.443-0.437L436.726,301.387z M423.292,294.889l15.145-14.98l1.647,18.834l-0.441,0.35L423.292,294.889z M449.173,269.292
			c2.378,2.471,4.693,5,6.948,7.586l-11.975-2.617L449.173,269.292z M459.276,280.585c0.51,0.614,1.011,1.234,1.516,1.854
			l-17.939,14.125l-1.692-19.348l0.486-0.483L459.276,280.585z M472.335,445.863l-16.932-3.492l10.59-10.104L472.335,445.863z
			 M468.915,431.557l23.494,2.133l-13.754,13.476l-2.722-0.561L468.915,431.557z M451.891,441.647l-3.536-0.729l-9.058-12.047
			l23.73,2.151L451.891,441.647z M443.99,440.018l-12.116-2.498c0.403-2.2,0.751-4.423,1.044-6.661l2.588-2.125L443.99,440.018z
			 M474.369,381.116l-19.154,3.19l6.5-14.298l0.599-0.171L474.369,381.116z M465.622,368.893l20.451-5.834l-7.622,17.377
			l-0.418,0.07L465.622,368.893z M451.712,384.887l-1.25,0.208l-13.343-8.073l20.876-5.955L451.712,384.887z M445.994,385.839
			l-14.258,2.374c-0.434-2.297-0.927-4.573-1.474-6.827l1.56-2.853l1.425-0.407L445.994,385.839z M500.067,359.067
			c0.815,3.015,1.565,6.057,2.244,9.125l-8.455-7.353L500.067,359.067z M503.313,372.967c0.214,1.075,0.425,2.147,0.62,3.227
			l-22.012,3.665l7.829-17.85l0.723-0.206L503.313,372.967z M507.223,414.724c-0.033,4.817-0.221,9.601-0.579,14.336l-72.892-6.613
			c0.209-3.048,0.321-6.123,0.321-9.223c0-6.517-0.474-12.922-1.373-19.195l72.199-12.02c0.468,3.108,0.868,6.238,1.196,9.389
			h-0.794c-3.645,0-6.601,2.954-6.601,6.6C498.701,403.603,501.921,409.754,507.223,414.724z M506.109,434.931
			c-0.428,4.108-0.985,8.178-1.652,12.21l-6.631-12.961L506.109,434.931z M503.608,451.95c-0.022,0.115-0.044,0.231-0.067,0.349
			l-21.406-4.415l12.916-12.656L503.608,451.95z M464.545,513.406l-19.046,6.79l-0.066-17.992L464.545,513.406z M468.363,534.101
			c-0.737,1.027-1.479,2.051-2.236,3.062l-18.881-14.46l20.373-7.262L468.363,534.101z M462.536,541.839
			c-10.729,13.576-23.118,25.778-36.853,36.313l-43.625-58.705c8.299-6.468,15.817-13.886,22.402-22.088L462.536,541.839z
			 M420.956,581.678c-3.604,2.605-7.296,5.099-11.068,7.477l5.58-14.862L420.956,581.678z M405.796,591.668
			c-0.887,0.528-1.773,1.06-2.668,1.578l-11.2-20.104l20.389,1.159L405.796,591.668z M390.231,570.094l-0.082-0.148l7.948-19.032
			l15.229,20.494L390.231,570.094z M388.322,566.669l-9.458-16.974l16.075,1.13L388.322,566.669z M377.151,546.619l-0.787-1.412
			l3.558-18.753l15.966,21.486L377.151,546.619z M377.333,522.975c0-0.002,0.001-0.003,0.001-0.003l0.002,0.003H377.333z
			 M374.126,541.19l-6.61-11.864c2.113-1.243,4.188-2.542,6.227-3.894l3.281,0.476L374.126,541.19z M362.483,520.296l-1.139-2.045
			l2.037-14.057l7.779,10.469C368.351,516.655,365.46,518.539,362.483,520.296z M318.045,433.299
			c0.417-0.386,0.824-0.779,1.218-1.191l76.994,58.968c-5.998,7.444-12.837,14.173-20.368,20.065L318.045,433.299z M343.817,477.868
			c-0.201,0.232-0.351,0.515-0.374,0.847l-0.47,6.561l-19.028-34.149L343.817,477.868z M346.228,481.111l12.094,16.274l-10.19-2.847
			l-2.542-4.563L346.228,481.111z M360.845,501.151l-1.865,12.857l-8.825-15.844L360.845,501.151z M327.577,574.474l-11.884-6.55
			l7.594-10.617L327.577,574.474z M315.034,563.776l-1.399-16.68c2.173-0.228,4.328-0.505,6.467-0.838l0.502,0.331l1.742,6.963
			L315.034,563.776z M313.874,620.5c-4.766,0.331-9.574,0.508-14.422,0.508c-17.901,0-35.282-2.273-51.87-6.551l18.952-70.692
			c10.54,2.66,21.565,4.08,32.918,4.08c2.792,0,5.558-0.096,8.308-0.265L313.874,620.5z M245.703,550.056l4.761-11.441
			c0.202,0.079,0.404,0.152,0.605,0.23l-2.668,9.951L245.703,550.056z M247.402,552.516l-2.217,8.274l-2.361-3.817l1.197-2.878
			L247.402,552.516z M163.935,523.679l13.579-10.69l1.047,14.473L163.935,523.679z M177.07,530.119l-16.455,16.275l-1.622-18.825
			l2.03-1.598L177.07,530.119z M149.736,557.155c-3.073-3.194-6.038-6.489-8.899-9.869l15.441,3.398L149.736,557.155z
			 M138.453,543.742l17.771-13.992l1.573,18.247L138.453,543.742z M98.837,467.382c-1.2-4.449-2.261-8.952-3.171-13.512L108,464.768
			L98.837,467.382z M94.008,444.436c-0.625-4.14-1.117-8.323-1.495-12.539c5.678-5.066,9.163-11.478,9.163-17.306
			c0-3.646-2.955-6.602-6.6-6.602h-3.344c0.089-3.557,0.267-7.091,0.532-10.603L165.152,404c-0.205,3.049-0.321,6.123-0.321,9.224
			c0,6.515,0.476,12.922,1.375,19.194L94.008,444.436z M94.981,468.48l-10.353,2.954l7.251-16.028
			C92.774,459.817,93.818,464.174,94.981,468.48z M91.201,374.568c-1.009,5.46-1.817,10.99-2.399,16.585l-13.32-1.207
			L91.201,374.568z M98.663,345.795c-2.39,7.096-4.403,14.362-6.035,21.768l-14.158-2.919c1.077-4.902,2.31-9.747,3.698-14.526
			C88.197,350.024,93.829,348.386,98.663,345.795z M102.83,301.394l12.469,7.308c-1.624,2.854-3.19,5.747-4.684,8.68
			c-0.722-0.27-1.493-0.438-2.31-0.438H94.742C97.244,311.646,99.938,306.457,102.83,301.394z M106.171,296.519l19.942-7.194
			l0.102,2.189c-2.774,3.939-5.427,7.973-7.934,12.103L106.171,296.519z M118.121,278.058l11.474,8.788
			c-0.206,0.275-0.405,0.557-0.609,0.834l-0.021-0.488c-0.024-0.467-0.267-0.896-0.655-1.156c-0.389-0.26-0.877-0.319-1.319-0.161
			l-18.93,6.83C111.227,287.689,114.58,282.798,118.121,278.058z M147.939,265.393c-5.201,5.33-10.131,10.925-14.754,16.776
			l-11.472-8.787c0.711-0.903,1.437-1.793,2.162-2.684c1.566,0.215,3.164,0.334,4.795,0.334
			C135.867,271.032,142.509,268.811,147.939,265.393z M173.221,248.293L216.848,307c-8.297,6.468-15.818,13.885-22.402,22.087
			l-58.078-44.481C147.097,271.031,159.488,258.829,173.221,248.293z M162.214,233.479l8.618,11.598
			c-4.345,3.33-8.561,6.824-12.629,10.475c2.389-3.618,3.748-7.475,3.748-11.105c0-3.24-2.337-5.921-5.417-6.481
			C158.4,236.438,160.297,234.945,162.214,233.479z M167.743,231.036l21.737,1.181l-0.031,0.079
			c-4.757,2.904-9.387,5.997-13.889,9.256L167.743,231.036z M193.825,229.697c-0.321,0.187-0.64,0.381-0.961,0.568
			c-0.031-0.073-0.034-0.155-0.08-0.223c-0.258-0.391-0.685-0.636-1.153-0.662l-22.208-1.207c5.609-3.953,11.4-7.663,17.367-11.104
			L193.825,229.697z M255.206,206.09c-19.917,4.251-38.81,11.299-56.236,20.73l-7.035-12.628c4.732-2.565,9.56-4.97,14.485-7.201
			c0.645,0.036,1.295,0.059,1.948,0.059c10.092,0,19.1-4.362,25.192-10.282c6.169-1.881,12.444-3.503,18.822-4.858L255.206,206.09z
			 M255.988,210.023l14.289,71.773c-11.913,2.643-23.238,6.868-33.742,12.445l-35.61-63.918
			C217.989,221.091,236.487,214.189,255.988,210.023z M261.77,208.869c3.351-0.616,6.728-1.151,10.132-1.604l-8.72,8.687
			L261.77,208.869z M258.617,193.037l17.976,9.554l-0.082,0.081c-5.233,0.566-10.412,1.322-15.524,2.264L258.617,193.037z
			 M278.646,200.345l-18.664-9.92c5.802-1.026,11.685-1.823,17.631-2.396L278.646,200.345z M281.023,228.686l-17.1-9.01l-0.05-0.252
			l12.782-12.732c0.832-0.091,1.667-0.182,2.501-0.264L281.023,228.686z M281.415,233.358l-12.469,11.545l-4.283-21.505
			l16.653,8.774L281.415,233.358z M283.269,255.481l-13.484-7.338l11.941-11.058L283.269,255.481z M359.465,195.065l-4.017,13.888
			c-17.844-4.897-36.617-7.528-55.996-7.528c-4.961,0-9.878,0.185-14.754,0.523l-1.208-14.407
			c5.273-0.369,10.595-0.571,15.961-0.571c5.147,0,10.249,0.19,15.311,0.529c3.134,0.914,6.473,1.427,9.932,1.427
			c1.123,0,2.23-0.056,3.322-0.159C338.752,190.126,349.249,192.252,359.465,195.065z M359.999,214.442
			c3.066,0.935,6.097,1.941,9.102,3.013l-10.963,3.424L359.999,214.442z M364.484,198.936l11.284,16.435l-0.412,0.128
			c-4.671-1.798-9.421-3.439-14.244-4.909L364.484,198.936z M383.652,203.23l-4.773,11.468l-11.989-17.462
			C372.576,199.015,378.164,201.023,383.652,203.23z M458.145,252.126l-10.273,10.161c-18.471-18.166-40.247-32.975-64.333-43.436
			l5.553-13.345c5.095,2.207,10.095,4.598,14.988,7.161c-0.245,0.692-0.405,1.427-0.405,2.204c0,12.041,14.845,26.586,33.279,26.586
			c2.9,0,5.71-0.361,8.391-1.015C449.76,244.175,454.031,248.071,458.145,252.126z M462.328,277.989
			c-3.297-3.962-6.735-7.802-10.308-11.515l8.628-8.533L462.328,277.989z M475.291,271.022l-9.935,7.821l-1.773-21.185
			C467.656,261.956,471.56,266.417,475.291,271.022z M495.482,300.351h-12.311c-1.426,0-2.737,0.462-3.814,1.23
			c-3.65-5.86-7.579-11.529-11.767-16.991l11.351-8.939C484.972,283.498,490.508,291.742,495.482,300.351z M516.206,348.333
			l-13.901,3.965c-2.305-7.661-5.028-15.142-8.153-22.413c4.674,2.267,10.015,3.653,15.698,3.653c0.449,0,0.897-0.016,1.34-0.034
			C513.027,338.37,514.7,343.315,516.206,348.333z M522.153,373.162l-12.003,1.998l8.318-18.781
			C519.901,361.894,521.135,367.491,522.153,373.162z M524.646,391.398h-14.513c-0.35-3.373-0.777-6.723-1.28-10.045l14.263-2.375
			C523.742,383.081,524.247,387.224,524.646,391.398z M525.033,430.728l-14.398-1.307c0.289-3.801,0.47-7.63,0.554-11.484
			c4.074,2.852,8.929,5.025,14.255,6.031C525.337,426.228,525.205,428.483,525.033,430.728z M521.627,456.026l-11.196-2.307
			l13.629-13.262C523.429,445.704,522.611,450.896,521.627,456.026z M495.787,492.638c4.4-10.838,7.923-22.118,10.491-33.756
			l14.156,2.919c-2.32,10.574-5.382,20.872-9.129,30.837H495.787z M496.077,525.053l-12.471-7.307
			c1.398-2.455,2.751-4.94,4.054-7.451c2.56,3.894,6.32,7.517,10.911,10.28C497.757,522.079,496.922,523.571,496.077,525.053z
			 M469.682,539.884c0.108,0.025,0.218,0.051,0.332,0.051c0.163,0,0.328-0.028,0.488-0.084l21.2-7.473
			c-3.42,5.496-7.056,10.843-10.918,16.011L469.682,539.884z M446.138,567.619c-0.828,0-1.617,0.168-2.349,0.449
			c7.895-7.363,15.231-15.312,21.931-23.791l11.474,8.788c-3.968,5.029-8.15,9.879-12.522,14.554H446.138z M436.695,592.966
			l-8.62-11.599c4.182-3.206,8.242-6.563,12.173-10.067c-0.439,0.885-0.711,1.866-0.711,2.92c0,4.143,1.759,8.581,4.817,12.625
			C441.848,588.94,439.292,590.979,436.695,592.966z M431.877,596.556l-24.018-1.451c5.315-3.182,10.482-6.589,15.488-10.209
			l8.618,11.596C431.935,596.513,431.906,596.535,431.877,596.556z M412.114,609.379l-6.377-11.45l22.297,1.351
			C422.877,602.854,417.572,606.231,412.114,609.379z M355.072,617.594c15.756-4.292,30.788-10.35,44.862-17.968l7.033,12.628
			c-8.329,4.519-16.976,8.521-25.892,11.98H369.99c-3.441,0-6.237,2.646-6.54,6.009c-1.616,0.479-3.238,0.935-4.868,1.379
			L355.072,617.594z M336.346,542.703c9.104-2.596,17.813-6.139,26.024-10.497l35.612,63.918
			c-13.77,7.448-28.475,13.375-43.882,17.579L336.346,542.703z M337.135,617.577c-2.172,0.398-4.354,0.77-6.55,1.1l5.66-5.579
			L337.135,617.577z M340.426,634.106l-16.491-8.875l1.876-1.849c4.072-0.509,8.109-1.135,12.107-1.875L340.426,634.106z
			 M320.289,626.443c0.127,0.18,0.29,0.33,0.489,0.436l17.26,9.291c-5.517,0.953-11.101,1.706-16.747,2.246L320.289,626.443z
			 M320.085,624.013c0.325-0.031,0.651-0.055,0.975-0.086l-0.617,0.605c-0.128,0.127-0.204,0.287-0.276,0.445L320.085,624.013z
			 M317.92,598.193l17.183,9.171l0.454,2.274l-9.863,9.722c-1.972,0.247-3.953,0.465-5.944,0.656L317.92,598.193z M315.664,571.274
			l12.891,7.103l0.723,2.9l-11.864,10.872L315.664,571.274z M242.803,632.293l3.742-13.964c16.917,4.368,34.646,6.692,52.907,6.692
			c4.962,0,9.879-0.188,14.756-0.522l1.208,14.408c-5.276,0.367-10.597,0.568-15.964,0.568
			C279.897,639.476,260.913,636.981,242.803,632.293z M241.438,574.768l-6.665,1.55l6.658-15.996l2.706,4.377L241.438,574.768z
			 M237.244,590.415l-5.043-7.913l1.18-2.835l7.192-1.673L237.244,590.415z M234.007,602.492l-11.414,3.098l8.225-19.769
			l5.392,8.456L234.007,602.492z M232.053,609.782c-1.967-0.677-3.914-1.385-5.852-2.117l6.924-1.879L232.053,609.782z
			 M228.807,621.881l-7.45-11.787c3.178,1.268,6.399,2.457,9.652,3.572L228.807,621.881z M215.257,623.215l4.33-10.404l8.182,12.943
			l-0.511,1.909C223.204,626.294,219.205,624.807,215.257,623.215z M140.76,574.323l10.275-10.163
			c18.469,18.165,40.245,32.974,64.334,43.436l-5.553,13.345c-6.357-2.753-12.569-5.783-18.609-9.089
			c1.142-2.521,1.769-5.081,1.769-7.541c0-3.643-2.953-6.6-6.599-6.6h-17.76C158.711,590.667,149.4,582.832,140.76,574.323z
			 M136.745,548.65c3.247,3.895,6.627,7.672,10.141,11.322l-8.515,8.421L136.745,548.65z M123.617,555.427l10.074-7.936
			l1.768,21.442C131.335,564.592,127.39,560.082,123.617,555.427z M104.565,528.027c4.599-2.33,8.52-5.514,11.432-9.061
			c4.613,7.975,9.741,15.614,15.322,22.894l-11.353,8.938C114.389,543.539,109.244,535.938,104.565,528.027z M82.701,478.112
			l13.9-3.964c2.542,8.444,5.593,16.665,9.126,24.633h-15.71C87.256,492.046,84.812,485.151,82.701,478.112z M76.755,453.287
			l13.895-2.315l-9.623,21.272C79.346,466.023,77.905,459.705,76.755,453.287z M74.859,440.573c5.164-0.964,9.888-3.024,13.89-5.742
			c0.351,3.447,0.789,6.867,1.303,10.265L75.79,447.47C75.442,445.184,75.138,442.883,74.859,440.573z M73.269,407.99
			c0.092-4.118,0.291-8.21,0.604-12.27l14.395,1.304c-0.274,3.631-0.456,7.288-0.547,10.966H73.269z"/>
		<g>
			<path style="fill:#FFFFFF;" d="M307.397,25.188c-0.338,0-0.602,0.119-0.787,0.354c-0.184,0.236-0.275,0.588-0.275,1.048v3.329
				c-0.424-0.462-0.855-0.805-1.303-1.028c-0.447-0.223-0.996-0.336-1.645-0.336c-1.125,0-2.029,0.396-2.718,1.182
				c-0.686,0.789-1.032,1.888-1.032,3.293c0,0.671,0.084,1.288,0.262,1.86c0.172,0.571,0.425,1.073,0.763,1.492
				c0.335,0.425,0.732,0.751,1.193,0.981c0.46,0.225,0.959,0.344,1.499,0.344c0.406,0,0.782-0.059,1.125-0.172
				c0.346-0.111,0.664-0.275,0.961-0.495c0.293-0.217,0.591-0.5,0.895-0.845v0.221c0,0.412,0.099,0.732,0.302,0.957
				c0.201,0.223,0.452,0.334,0.761,0.334c0.316,0,0.57-0.11,0.77-0.325c0.198-0.214,0.299-0.535,0.299-0.966v-9.939
				c0-0.428-0.093-0.744-0.275-0.965C308.005,25.296,307.741,25.188,307.397,25.188z M305.919,34.705
				c-0.196,0.428-0.459,0.74-0.787,0.947c-0.326,0.208-0.689,0.312-1.084,0.312c-0.393,0-0.753-0.108-1.082-0.327
				c-0.331-0.217-0.59-0.541-0.779-0.97c-0.191-0.428-0.287-0.949-0.287-1.563c0-0.575,0.092-1.085,0.27-1.518
				c0.18-0.439,0.433-0.777,0.757-1.011c0.323-0.237,0.692-0.352,1.104-0.352c0.397,0,0.763,0.114,1.096,0.345
				c0.335,0.228,0.598,0.558,0.794,0.989c0.193,0.432,0.292,0.946,0.292,1.546C306.211,33.744,306.112,34.279,305.919,34.705z"/>
			<path style="fill:#FFFFFF;" d="M318.39,33.426c0.324-0.169,0.49-0.538,0.49-1.105c0-0.609-0.158-1.211-0.473-1.8
				c-0.315-0.588-0.787-1.067-1.416-1.44c-0.631-0.373-1.387-0.556-2.266-0.556c-0.676,0-1.296,0.108-1.85,0.325
				c-0.558,0.218-1.025,0.529-1.404,0.936c-0.381,0.409-0.67,0.898-0.867,1.468c-0.198,0.569-0.299,1.188-0.299,1.851
				c0,1.418,0.406,2.535,1.208,3.362c0.802,0.826,1.927,1.241,3.376,1.241c0.633,0,1.193-0.085,1.68-0.249
				c0.486-0.166,0.893-0.375,1.216-0.622c0.32-0.251,0.56-0.515,0.722-0.787c0.159-0.271,0.238-0.512,0.238-0.715
				c0-0.23-0.072-0.41-0.216-0.535c-0.142-0.125-0.33-0.19-0.56-0.19c-0.215,0-0.381,0.05-0.497,0.148
				c-0.28,0.264-0.509,0.472-0.683,0.629c-0.179,0.151-0.369,0.295-0.579,0.433c-0.21,0.135-0.425,0.235-0.647,0.299
				c-0.223,0.061-0.472,0.095-0.739,0.095c-0.402,0-0.768-0.101-1.101-0.302c-0.336-0.195-0.603-0.491-0.803-0.881
				c-0.202-0.39-0.305-0.842-0.309-1.354h4.409C317.609,33.675,318.067,33.592,318.39,33.426z M312.612,32.399
				c0.072-0.764,0.293-1.338,0.654-1.725c0.36-0.389,0.824-0.58,1.383-0.58c0.59,0,1.065,0.191,1.422,0.574
				c0.364,0.382,0.573,0.959,0.626,1.73H312.612z"/>
			<path style="fill:#FFFFFF;" d="M326.686,32.817c-0.444-0.235-1.018-0.438-1.715-0.611c-0.59-0.142-1.051-0.265-1.387-0.362
				c-0.336-0.1-0.604-0.225-0.804-0.376c-0.196-0.152-0.296-0.346-0.296-0.582c0-0.257,0.136-0.474,0.405-0.647
				c0.271-0.175,0.607-0.262,1.015-0.262c0.397,0,0.711,0.065,0.942,0.2c0.233,0.131,0.431,0.307,0.603,0.529
				c0.209,0.262,0.396,0.458,0.558,0.594c0.161,0.129,0.358,0.197,0.592,0.197c0.317,0,0.565-0.084,0.738-0.248
				c0.174-0.165,0.26-0.378,0.26-0.636c0-0.237-0.083-0.477-0.243-0.728c-0.161-0.249-0.398-0.473-0.71-0.675
				c-0.311-0.203-0.7-0.365-1.165-0.491c-0.466-0.119-0.988-0.178-1.574-0.178c-0.742,0-1.375,0.116-1.903,0.359
				c-0.523,0.238-0.923,0.559-1.192,0.959c-0.271,0.403-0.403,0.832-0.403,1.279c0,0.509,0.146,0.933,0.437,1.283
				c0.293,0.345,0.681,0.625,1.17,0.837c0.486,0.21,1.118,0.413,1.893,0.605c0.691,0.165,1.182,0.339,1.483,0.521
				c0.3,0.183,0.452,0.471,0.452,0.869c0,0.256-0.148,0.488-0.438,0.684c-0.285,0.203-0.658,0.305-1.111,0.305
				c-0.554,0-0.994-0.101-1.315-0.3c-0.32-0.197-0.6-0.495-0.828-0.899c-0.115-0.209-0.238-0.37-0.366-0.487
				c-0.126-0.113-0.306-0.172-0.544-0.172c-0.27,0-0.493,0.087-0.67,0.266c-0.175,0.175-0.263,0.388-0.263,0.634
				c0,0.374,0.14,0.749,0.411,1.12c0.275,0.371,0.701,0.681,1.28,0.926c0.577,0.249,1.272,0.376,2.082,0.376
				c0.848,0,1.569-0.119,2.162-0.344c0.589-0.23,1.034-0.564,1.339-1.009c0.303-0.444,0.455-0.977,0.455-1.598
				c0-0.411-0.115-0.78-0.344-1.104C327.464,33.333,327.129,33.056,326.686,32.817z"/>
			<path style="fill:#FFFFFF;" d="M331.058,28.542c-0.328,0-0.602,0.11-0.805,0.338c-0.208,0.223-0.311,0.559-0.311,1.006v6.451
				c0,0.441,0.103,0.775,0.311,1.014c0.203,0.236,0.477,0.357,0.805,0.357c0.329,0,0.602-0.119,0.815-0.349
				c0.216-0.23,0.324-0.572,0.324-1.022V29.82c0-0.399-0.108-0.718-0.324-0.94C331.659,28.652,331.387,28.542,331.058,28.542z"/>
			<path style="fill:#FFFFFF;" d="M331.082,25.286c-0.302,0-0.568,0.104-0.796,0.313c-0.23,0.204-0.344,0.466-0.344,0.786
				c0,0.354,0.113,0.627,0.334,0.817c0.224,0.193,0.49,0.291,0.806,0.291c0.302,0,0.563-0.101,0.784-0.295
				c0.222-0.196,0.331-0.467,0.331-0.813c0-0.357-0.114-0.63-0.339-0.819C331.63,25.381,331.372,25.286,331.082,25.286z"/>
			<path style="fill:#FFFFFF;" d="M341.733,28.542c-0.305,0-0.551,0.104-0.741,0.322c-0.192,0.213-0.29,0.516-0.29,0.908v0.302
				c-0.403-0.522-0.837-0.905-1.305-1.149c-0.469-0.246-1.022-0.369-1.657-0.369c-0.537,0-1.027,0.097-1.472,0.287
				c-0.449,0.19-0.841,0.47-1.183,0.845c-0.341,0.373-0.603,0.834-0.788,1.379c-0.185,0.547-0.275,1.156-0.275,1.831
				c0,0.91,0.15,1.712,0.455,2.405c0.299,0.695,0.734,1.232,1.301,1.619c0.563,0.385,1.223,0.577,1.975,0.577
				c0.63,0,1.168-0.125,1.622-0.381c0.456-0.252,0.858-0.62,1.204-1.105c-0.013,0.74-0.029,1.275-0.05,1.605
				c-0.022,0.336-0.098,0.646-0.227,0.939c-0.132,0.291-0.356,0.517-0.68,0.68c-0.319,0.164-0.774,0.244-1.356,0.244
				c-0.286,0-0.542-0.026-0.761-0.079c-0.219-0.051-0.41-0.13-0.564-0.239c-0.159-0.108-0.303-0.238-0.43-0.391
				c-0.132-0.148-0.257-0.299-0.377-0.447c-0.248-0.292-0.538-0.439-0.865-0.439c-0.267,0-0.494,0.087-0.68,0.264
				c-0.186,0.172-0.28,0.397-0.28,0.673c0,0.362,0.167,0.715,0.496,1.062c0.329,0.341,0.8,0.622,1.412,0.841
				c0.61,0.217,1.307,0.325,2.082,0.325c0.847,0,1.556-0.085,2.124-0.254c0.57-0.172,1.033-0.434,1.383-0.786
				c0.354-0.354,0.609-0.798,0.767-1.339c0.161-0.54,0.241-1.183,0.241-1.931v-6.55c0-0.534-0.071-0.942-0.213-1.223
				C342.455,28.684,342.167,28.542,341.733,28.542z M340.307,34.612c-0.209,0.404-0.481,0.711-0.815,0.91
				c-0.333,0.199-0.685,0.301-1.06,0.301c-0.634,0-1.148-0.234-1.549-0.701c-0.4-0.468-0.599-1.16-0.599-2.073
				c0-0.905,0.194-1.599,0.583-2.089c0.389-0.491,0.903-0.735,1.549-0.735c0.658,0,1.193,0.257,1.598,0.766
				c0.402,0.513,0.607,1.229,0.607,2.148C340.62,33.717,340.514,34.208,340.307,34.612z"/>
			<path style="fill:#FFFFFF;" d="M352.707,30.026c-0.23-0.475-0.581-0.839-1.046-1.099c-0.471-0.259-1-0.386-1.596-0.386
				c-0.611,0-1.153,0.122-1.622,0.365c-0.474,0.246-0.904,0.63-1.3,1.153v-0.274c0-0.271-0.049-0.496-0.146-0.686
				c-0.095-0.185-0.226-0.325-0.383-0.419c-0.16-0.093-0.34-0.14-0.535-0.14c-0.328,0-0.584,0.104-0.769,0.315
				c-0.188,0.214-0.282,0.534-0.282,0.964v6.517c0,0.441,0.104,0.775,0.313,1.014c0.211,0.236,0.479,0.357,0.803,0.357
				c0.334,0,0.609-0.119,0.821-0.344c0.21-0.23,0.317-0.571,0.317-1.027v-2.825c0-0.918,0.056-1.548,0.164-1.884
				c0.154-0.419,0.398-0.749,0.727-0.987c0.332-0.238,0.697-0.357,1.1-0.357c0.616,0,1.029,0.198,1.235,0.588
				c0.206,0.396,0.308,0.965,0.308,1.708v3.758c0,0.441,0.105,0.775,0.313,1.014c0.213,0.236,0.483,0.357,0.818,0.357
				c0.332,0,0.598-0.119,0.806-0.349c0.206-0.23,0.309-0.572,0.309-1.022V32.14c0-0.495-0.021-0.902-0.064-1.223
				C352.952,30.598,352.854,30.303,352.707,30.026z"/>
			<path style="fill:#FFFFFF;" d="M362.972,33.426c0.322-0.169,0.484-0.538,0.484-1.105c0-0.609-0.152-1.211-0.469-1.8
				c-0.314-0.588-0.785-1.067-1.417-1.44c-0.632-0.373-1.386-0.556-2.264-0.556c-0.679,0-1.296,0.108-1.85,0.325
				c-0.558,0.218-1.025,0.529-1.404,0.936c-0.38,0.409-0.671,0.898-0.868,1.468c-0.194,0.569-0.299,1.188-0.299,1.851
				c0,1.418,0.405,2.535,1.208,3.362c0.805,0.826,1.926,1.241,3.377,1.241c0.631,0,1.193-0.085,1.682-0.249
				c0.486-0.166,0.891-0.375,1.211-0.622c0.323-0.251,0.563-0.515,0.725-0.787c0.159-0.271,0.238-0.512,0.238-0.715
				c0-0.23-0.072-0.41-0.215-0.535c-0.145-0.125-0.328-0.19-0.561-0.19c-0.214,0-0.381,0.05-0.497,0.148
				c-0.28,0.264-0.509,0.472-0.684,0.629c-0.177,0.151-0.368,0.295-0.578,0.433c-0.21,0.135-0.427,0.235-0.648,0.299
				c-0.224,0.061-0.469,0.095-0.739,0.095c-0.402,0-0.768-0.101-1.102-0.302c-0.334-0.195-0.603-0.491-0.803-0.881
				c-0.202-0.39-0.303-0.842-0.309-1.354h4.409C362.189,33.675,362.645,33.592,362.972,33.426z M357.19,32.399
				c0.078-0.764,0.297-1.338,0.655-1.725c0.36-0.389,0.823-0.58,1.387-0.58c0.587,0,1.061,0.191,1.423,0.574
				c0.359,0.382,0.568,0.959,0.623,1.73H357.19z"/>
			<path style="fill:#FFFFFF;" d="M372.599,25.188c-0.345,0-0.604,0.119-0.787,0.354c-0.185,0.236-0.279,0.588-0.279,1.048v3.329
				c-0.424-0.462-0.856-0.805-1.305-1.028c-0.445-0.223-0.988-0.336-1.64-0.336c-1.125,0-2.032,0.396-2.719,1.182
				c-0.688,0.789-1.032,1.888-1.032,3.293c0,0.671,0.088,1.288,0.261,1.86c0.171,0.571,0.431,1.073,0.762,1.492
				c0.337,0.425,0.734,0.751,1.192,0.981c0.461,0.225,0.961,0.344,1.5,0.344c0.405,0,0.783-0.059,1.128-0.172
				c0.343-0.111,0.663-0.275,0.956-0.495c0.297-0.217,0.596-0.5,0.897-0.845v0.221c0,0.412,0.102,0.732,0.303,0.957
				c0.201,0.223,0.456,0.334,0.764,0.334c0.313,0,0.567-0.11,0.768-0.325c0.197-0.214,0.299-0.535,0.299-0.966v-9.939
				c0-0.428-0.091-0.744-0.275-0.965C373.201,25.296,372.94,25.188,372.599,25.188z M371.116,34.705
				c-0.195,0.428-0.458,0.74-0.781,0.947c-0.331,0.208-0.692,0.312-1.09,0.312c-0.389,0-0.751-0.108-1.08-0.327
				c-0.332-0.217-0.59-0.541-0.779-0.97c-0.191-0.428-0.286-0.949-0.286-1.563c0-0.575,0.089-1.085,0.269-1.518
				c0.178-0.439,0.43-0.777,0.754-1.011c0.326-0.237,0.693-0.352,1.109-0.352c0.395,0,0.759,0.114,1.092,0.345
				c0.335,0.228,0.598,0.558,0.793,0.989c0.195,0.432,0.297,0.946,0.297,1.546C371.413,33.744,371.311,34.279,371.116,34.705z"/>
			<path style="fill:#FFFFFF;" d="M387.136,29.089c-0.564-0.355-1.221-0.534-1.97-0.534c-0.647,0-1.193,0.116-1.636,0.351
				c-0.44,0.234-0.871,0.569-1.295,1.013v-3.442c0-0.415-0.094-0.733-0.281-0.957c-0.188-0.221-0.453-0.332-0.801-0.332
				c-0.331,0-0.586,0.117-0.771,0.35c-0.186,0.233-0.278,0.58-0.278,1.038v9.841c0,0.428,0.096,0.743,0.283,0.965
				c0.191,0.216,0.447,0.326,0.766,0.326c0.315,0,0.572-0.11,0.777-0.326c0.203-0.222,0.305-0.537,0.305-0.965v-0.221
				c0.249,0.283,0.445,0.503,0.598,0.644c0.151,0.141,0.336,0.28,0.55,0.415c0.214,0.136,0.475,0.244,0.781,0.326
				c0.305,0.084,0.63,0.127,0.977,0.127c0.567,0,1.085-0.119,1.557-0.344c0.471-0.23,0.872-0.554,1.202-0.972
				c0.328-0.417,0.582-0.912,0.757-1.482c0.173-0.569,0.258-1.195,0.258-1.881c0-0.922-0.154-1.724-0.466-2.398
				C388.137,29.958,387.7,29.443,387.136,29.089z M386.039,35.223c-0.413,0.492-0.901,0.74-1.468,0.74
				c-0.666,0-1.202-0.242-1.613-0.723c-0.412-0.481-0.617-1.169-0.617-2.068c0-0.609,0.097-1.139,0.291-1.58
				c0.191-0.444,0.456-0.783,0.791-1.017c0.338-0.237,0.718-0.352,1.148-0.352c0.42,0,0.785,0.114,1.099,0.352
				c0.314,0.233,0.554,0.563,0.726,0.995c0.172,0.43,0.256,0.939,0.256,1.533C386.651,34.025,386.448,34.731,386.039,35.223z"/>
			<path style="fill:#FFFFFF;" d="M397.54,28.676c-0.158-0.092-0.32-0.135-0.492-0.135c-0.234,0-0.419,0.04-0.549,0.122
				c-0.129,0.082-0.252,0.243-0.369,0.477c-0.113,0.238-0.244,0.565-0.386,0.984l-1.808,5.16l-1.908-5.549
				c-0.127-0.388-0.274-0.678-0.435-0.887c-0.167-0.206-0.412-0.309-0.737-0.309c-0.187,0-0.366,0.05-0.542,0.147
				c-0.172,0.099-0.309,0.229-0.408,0.395c-0.098,0.164-0.149,0.345-0.149,0.538c0,0.183,0.085,0.473,0.257,0.875l2.773,6.986
				l-0.203,0.505c-0.158,0.365-0.292,0.648-0.411,0.836c-0.116,0.188-0.253,0.323-0.399,0.399c-0.151,0.078-0.353,0.115-0.61,0.115
				c-0.106,0-0.229-0.015-0.372-0.048c-0.116-0.032-0.233-0.051-0.357-0.051c-0.307,0-0.541,0.071-0.695,0.212
				c-0.159,0.141-0.234,0.341-0.234,0.6c0,0.379,0.166,0.639,0.494,0.784c0.33,0.144,0.825,0.214,1.484,0.214
				c0.675,0,1.217-0.103,1.614-0.31c0.401-0.209,0.722-0.505,0.962-0.889c0.246-0.386,0.489-0.915,0.746-1.596l2.938-7.691
				c0.072-0.2,0.133-0.396,0.184-0.589c0.05-0.191,0.084-0.342,0.105-0.445c0-0.17-0.042-0.331-0.129-0.487
				C397.815,28.89,397.696,28.768,397.54,28.676z"/>
			<path style="fill:#FFFFFF;" d="M437.765,25.188c-0.743,0-1.329,0.091-1.755,0.284c-0.427,0.189-0.733,0.492-0.908,0.909
				c-0.178,0.414-0.269,0.975-0.269,1.681v0.678h-0.536c-0.755,0-1.132,0.271-1.132,0.807c0,0.244,0.089,0.44,0.273,0.59
				c0.181,0.153,0.438,0.229,0.776,0.229h0.618v5.972c0,0.444,0.106,0.783,0.32,1.017c0.211,0.235,0.475,0.354,0.792,0.354
				c0.338,0,0.612-0.119,0.824-0.354c0.21-0.233,0.318-0.572,0.318-1.017v-5.972h0.554c0.401,0,0.716-0.05,0.946-0.146
				c0.225-0.103,0.34-0.335,0.34-0.705c0-0.515-0.427-0.774-1.286-0.774h-0.554v-0.539c0-0.443,0.058-0.787,0.173-1.027
				c0.117-0.24,0.378-0.357,0.784-0.357c0.15,0,0.331,0.014,0.544,0.046c0.214,0.034,0.366,0.052,0.453,0.052
				c0.189,0,0.351-0.074,0.49-0.223c0.138-0.149,0.207-0.327,0.207-0.537C439.739,25.509,439.08,25.188,437.765,25.188z"/>
			<path style="fill:#FFFFFF;" d="M445.617,28.893c-0.447-0.235-0.906-0.352-1.379-0.352c-0.474,0-0.852,0.116-1.134,0.352
				c-0.284,0.238-0.561,0.59-0.832,1.051c-0.019-0.461-0.108-0.813-0.271-1.051c-0.165-0.235-0.433-0.352-0.81-0.352
				c-0.731,0-1.099,0.505-1.099,1.519v6.276c0,0.45,0.104,0.792,0.315,1.022c0.209,0.23,0.474,0.349,0.799,0.349
				c0.331,0,0.603-0.119,0.82-0.344c0.214-0.23,0.321-0.571,0.321-1.027v-1.886c0-0.675,0.02-1.249,0.065-1.72
				c0.044-0.472,0.125-0.876,0.239-1.218c0.113-0.342,0.279-0.601,0.486-0.774c0.208-0.171,0.478-0.259,0.811-0.259
				c0.24,0,0.521,0.051,0.838,0.151c0.314,0.101,0.518,0.153,0.6,0.153c0.22,0,0.421-0.091,0.61-0.267
				c0.194-0.18,0.285-0.405,0.285-0.681C446.283,29.447,446.063,29.131,445.617,28.893z"/>
			<path style="fill:#FFFFFF;" d="M454.759,33.426c0.326-0.169,0.486-0.538,0.486-1.105c0-0.609-0.159-1.211-0.472-1.8
				c-0.311-0.588-0.784-1.067-1.415-1.44c-0.631-0.373-1.388-0.556-2.267-0.556c-0.676,0-1.291,0.108-1.849,0.325
				c-0.557,0.218-1.024,0.529-1.406,0.936c-0.379,0.409-0.668,0.898-0.865,1.468c-0.196,0.569-0.3,1.188-0.3,1.851
				c0,1.418,0.405,2.535,1.207,3.362c0.804,0.826,1.928,1.241,3.376,1.241c0.634,0,1.197-0.085,1.68-0.249
				c0.49-0.166,0.895-0.375,1.218-0.622c0.319-0.251,0.559-0.515,0.719-0.787c0.162-0.271,0.24-0.512,0.24-0.715
				c0-0.23-0.069-0.41-0.213-0.535c-0.142-0.125-0.332-0.19-0.559-0.19c-0.215,0-0.384,0.05-0.5,0.148
				c-0.276,0.264-0.509,0.472-0.684,0.629c-0.175,0.151-0.368,0.295-0.581,0.433c-0.207,0.135-0.422,0.235-0.646,0.299
				c-0.223,0.061-0.47,0.095-0.74,0.095c-0.398,0-0.766-0.101-1.102-0.302c-0.335-0.195-0.601-0.491-0.802-0.881
				c-0.198-0.39-0.304-0.842-0.307-1.354h4.407C453.977,33.675,454.432,33.592,454.759,33.426z M448.979,32.399
				c0.078-0.764,0.295-1.338,0.656-1.725c0.358-0.389,0.82-0.58,1.384-0.58c0.588,0,1.063,0.191,1.422,0.574
				c0.363,0.382,0.566,0.959,0.624,1.73H448.979z"/>
			<path style="fill:#FFFFFF;" d="M464.807,33.426c0.325-0.169,0.486-0.538,0.486-1.105c0-0.609-0.156-1.211-0.47-1.8
				c-0.313-0.588-0.786-1.067-1.415-1.44c-0.632-0.373-1.386-0.556-2.269-0.556c-0.675,0-1.293,0.108-1.85,0.325
				c-0.557,0.218-1.022,0.529-1.401,0.936c-0.381,0.409-0.669,0.898-0.87,1.468c-0.197,0.569-0.294,1.188-0.294,1.851
				c0,1.418,0.401,2.535,1.203,3.362c0.805,0.826,1.93,1.241,3.379,1.241c0.632,0,1.191-0.085,1.678-0.249
				c0.489-0.166,0.893-0.375,1.217-0.622c0.319-0.251,0.561-0.515,0.724-0.787c0.155-0.271,0.234-0.512,0.234-0.715
				c0-0.23-0.07-0.41-0.213-0.535c-0.144-0.125-0.329-0.19-0.56-0.19c-0.218,0-0.38,0.05-0.495,0.148
				c-0.282,0.264-0.511,0.472-0.687,0.629c-0.175,0.151-0.37,0.295-0.577,0.433c-0.211,0.135-0.427,0.235-0.649,0.299
				c-0.224,0.061-0.471,0.095-0.739,0.095c-0.402,0-0.769-0.101-1.103-0.302c-0.332-0.195-0.601-0.491-0.801-0.881
				c-0.2-0.39-0.303-0.842-0.309-1.354h4.409C464.028,33.675,464.482,33.592,464.807,33.426z M459.027,32.399
				c0.074-0.764,0.299-1.338,0.654-1.725c0.364-0.389,0.822-0.58,1.386-0.58c0.587,0,1.063,0.191,1.423,0.574
				c0.36,0.382,0.569,0.959,0.623,1.73H459.027z"/>
			<path style="fill:#FFFFFF;" d="M473.841,29.094c-0.583-0.36-1.223-0.539-1.917-0.539c-0.578,0-1.093,0.123-1.552,0.369
				c-0.454,0.244-0.895,0.627-1.32,1.149v-0.27c0-0.406-0.101-0.721-0.302-0.939c-0.201-0.22-0.462-0.323-0.781-0.323
				c-0.326,0-0.579,0.104-0.77,0.315c-0.182,0.214-0.276,0.534-0.276,0.964v9.727c0,0.487,0.067,0.863,0.205,1.117
				c0.138,0.257,0.418,0.386,0.841,0.386c0.721,0,1.083-0.492,1.083-1.484v-3.39c0.395,0.505,0.813,0.884,1.249,1.141
				c0.44,0.26,0.98,0.392,1.623,0.392c0.535,0,1.035-0.106,1.498-0.322c0.467-0.207,0.867-0.512,1.21-0.906
				c0.343-0.392,0.61-0.881,0.807-1.463c0.195-0.581,0.292-1.217,0.292-1.912c0-0.942-0.168-1.753-0.505-2.442
				C474.885,29.975,474.426,29.454,473.841,29.094z M473.18,34.659c-0.195,0.435-0.448,0.761-0.77,0.978
				c-0.316,0.219-0.665,0.327-1.038,0.327c-0.629,0-1.151-0.248-1.579-0.748c-0.424-0.498-0.634-1.196-0.634-2.091
				c0-0.955,0.211-1.675,0.64-2.165c0.425-0.491,0.953-0.735,1.573-0.735c0.392,0,0.745,0.114,1.068,0.345
				c0.322,0.228,0.575,0.553,0.755,0.98c0.183,0.427,0.272,0.938,0.272,1.532C473.468,33.701,473.37,34.225,473.18,34.659z"/>
			<path style="fill:#FFFFFF;" d="M478.653,28.542c-0.33,0-0.597,0.11-0.805,0.338c-0.207,0.223-0.309,0.559-0.309,1.006v6.451
				c0,0.441,0.102,0.775,0.309,1.014c0.208,0.236,0.475,0.357,0.805,0.357c0.331,0,0.601-0.119,0.817-0.349
				c0.216-0.23,0.322-0.572,0.322-1.022V29.82c0-0.399-0.107-0.718-0.322-0.94C479.254,28.652,478.984,28.542,478.653,28.542z"/>
			<path style="fill:#FFFFFF;" d="M478.68,25.286c-0.302,0-0.571,0.104-0.798,0.313c-0.227,0.204-0.342,0.466-0.342,0.786
				c0,0.354,0.113,0.627,0.335,0.817c0.219,0.193,0.49,0.291,0.805,0.291c0.303,0,0.565-0.101,0.785-0.295
				c0.218-0.196,0.328-0.467,0.328-0.813c0-0.357-0.113-0.63-0.338-0.819C479.227,25.381,478.972,25.286,478.68,25.286z"/>
			<path style="fill:#FFFFFF;" d="M489.56,35.535l-2.31-3.635l1.196-1.099c0.612-0.548,0.919-0.99,0.919-1.318
				c0-0.272-0.096-0.494-0.282-0.672c-0.189-0.182-0.422-0.27-0.702-0.27c-0.235,0-0.437,0.059-0.605,0.178
				c-0.162,0.126-0.4,0.349-0.715,0.682l-2.534,2.657V26.59c0-0.46-0.105-0.812-0.307-1.048c-0.204-0.235-0.478-0.354-0.823-0.354
				c-0.36,0-0.636,0.131-0.83,0.393c-0.193,0.26-0.287,0.642-0.287,1.142v9.613c0,0.45,0.1,0.792,0.297,1.022
				c0.199,0.23,0.47,0.349,0.82,0.349c0.294,0,0.558-0.119,0.787-0.354c0.228-0.233,0.343-0.566,0.343-1.003v-1.792l1.222-1.155
				l1.988,3.27c0.253,0.392,0.454,0.659,0.603,0.81c0.148,0.148,0.362,0.225,0.637,0.225c0.316,0,0.576-0.104,0.768-0.313
				c0.197-0.208,0.297-0.486,0.297-0.846c0-0.127-0.039-0.261-0.113-0.4C489.855,36.006,489.731,35.802,489.56,35.535z"/>
			<path style="fill:#FFFFFF;" d="M493.287,35.22c-0.345,0-0.64,0.121-0.878,0.365c-0.235,0.238-0.353,0.529-0.353,0.865
				c0,0.396,0.125,0.703,0.372,0.924c0.248,0.222,0.544,0.333,0.884,0.333c0.328,0,0.614-0.111,0.862-0.334
				c0.244-0.225,0.367-0.529,0.367-0.923c0-0.344-0.123-0.632-0.367-0.873C493.926,35.339,493.631,35.22,493.287,35.22z"/>
			<path style="fill:#FFFFFF;" d="M504.234,33.934c-0.231,0-0.425,0.069-0.586,0.214c-0.16,0.139-0.308,0.342-0.444,0.593
				c-0.251,0.432-0.534,0.749-0.854,0.959c-0.325,0.209-0.713,0.313-1.163,0.313c-0.333,0-0.646-0.067-0.926-0.193
				c-0.277-0.13-0.522-0.318-0.716-0.569c-0.198-0.251-0.351-0.554-0.457-0.908c-0.105-0.354-0.155-0.746-0.155-1.169
				c0-0.9,0.204-1.614,0.612-2.134c0.406-0.521,0.942-0.782,1.608-0.782c0.462,0,0.845,0.108,1.145,0.315
				c0.301,0.211,0.587,0.524,0.862,0.942c0.153,0.215,0.293,0.37,0.416,0.463c0.124,0.099,0.279,0.147,0.467,0.147
				c0.286,0,0.53-0.094,0.728-0.28c0.204-0.188,0.304-0.417,0.304-0.685c0-0.265-0.09-0.551-0.266-0.856
				c-0.181-0.305-0.44-0.593-0.777-0.865c-0.339-0.268-0.754-0.487-1.24-0.659c-0.487-0.171-1.022-0.254-1.605-0.254
				c-0.94,0-1.75,0.193-2.424,0.582c-0.678,0.385-1.199,0.935-1.557,1.645c-0.356,0.711-0.533,1.528-0.533,2.453
				c0,1.365,0.391,2.454,1.173,3.267c0.779,0.813,1.867,1.216,3.257,1.216c0.658,0,1.247-0.086,1.771-0.261
				c0.52-0.177,0.955-0.409,1.302-0.698c0.34-0.291,0.597-0.597,0.764-0.913c0.169-0.32,0.255-0.621,0.255-0.902
				c0-0.235-0.092-0.454-0.276-0.666C504.739,34.037,504.512,33.934,504.234,33.934z"/>
			<path style="fill:#FFFFFF;" d="M514.383,29.811c-0.395-0.407-0.874-0.72-1.43-0.941c-0.556-0.22-1.174-0.328-1.858-0.328
				c-0.67,0-1.283,0.104-1.84,0.323c-0.557,0.219-1.031,0.528-1.42,0.931c-0.391,0.402-0.692,0.884-0.898,1.453
				c-0.213,0.568-0.314,1.193-0.314,1.876c0,0.675,0.102,1.294,0.309,1.854c0.206,0.556,0.509,1.04,0.908,1.45
				c0.398,0.415,0.872,0.725,1.415,0.945c0.545,0.222,1.16,0.333,1.84,0.333c0.689,0,1.307-0.11,1.858-0.326
				c0.552-0.222,1.024-0.534,1.42-0.938c0.396-0.408,0.701-0.893,0.911-1.463c0.207-0.567,0.31-1.187,0.31-1.855
				c0-0.68-0.103-1.297-0.307-1.858C515.08,30.706,514.777,30.219,514.383,29.811z M512.727,35.257
				c-0.406,0.514-0.948,0.771-1.633,0.771c-0.45,0-0.841-0.117-1.176-0.35c-0.332-0.233-0.59-0.572-0.768-1.012
				c-0.178-0.441-0.268-0.952-0.268-1.542c0-0.596,0.09-1.117,0.272-1.563c0.182-0.445,0.442-0.779,0.775-1.011
				c0.34-0.229,0.727-0.343,1.165-0.343c0.685,0,1.227,0.257,1.633,0.768c0.402,0.514,0.604,1.229,0.604,2.149
				C513.332,34.03,513.13,34.744,512.727,35.257z"/>
			<path style="fill:#FFFFFF;" d="M529.855,29.962c-0.223-0.452-0.552-0.8-0.996-1.045c-0.448-0.241-0.979-0.362-1.596-0.362
				c-0.528,0-1.012,0.113-1.444,0.336c-0.438,0.224-0.842,0.566-1.222,1.028c-0.264-0.458-0.601-0.798-1.01-1.026
				c-0.403-0.225-0.892-0.338-1.46-0.338c-0.545,0-1.038,0.113-1.487,0.332c-0.445,0.22-0.862,0.566-1.251,1.032v-0.214
				c0-0.365-0.105-0.647-0.315-0.856c-0.203-0.206-0.461-0.309-0.77-0.309c-0.316,0-0.577,0.108-0.772,0.328
				c-0.197,0.222-0.294,0.543-0.294,0.968v6.446c0,0.471,0.111,0.823,0.326,1.062c0.219,0.241,0.5,0.362,0.839,0.362
				c0.349,0,0.625-0.121,0.838-0.362c0.212-0.238,0.319-0.591,0.319-1.062v-3.046c0-0.944,0.115-1.672,0.351-2.18
				c0.232-0.505,0.718-0.758,1.457-0.758c0.368,0,0.641,0.099,0.809,0.302c0.169,0.199,0.276,0.456,0.314,0.771
				c0.038,0.315,0.06,0.752,0.06,1.32v3.591c0,0.475,0.104,0.828,0.317,1.066c0.21,0.236,0.488,0.357,0.83,0.357
				c0.351,0,0.636-0.121,0.851-0.357c0.213-0.238,0.32-0.592,0.32-1.066v-2.995c0-0.968,0.084-1.636,0.246-2.015
				c0.15-0.299,0.36-0.534,0.624-0.709c0.269-0.179,0.551-0.265,0.85-0.265c0.366,0,0.643,0.097,0.822,0.297
				c0.18,0.196,0.293,0.442,0.337,0.732c0.038,0.295,0.061,0.683,0.061,1.165v3.789c0,0.471,0.11,0.823,0.326,1.062
				c0.218,0.241,0.5,0.362,0.838,0.362c0.354,0,0.637-0.121,0.85-0.357c0.215-0.238,0.322-0.592,0.322-1.066v-4.4
				C530.144,31.007,530.051,30.37,529.855,29.962z"/>
			<path style="fill:#FFFFFF;" d="M413.146,24.542c1.021-0.446,2.109-0.603,3.211-0.622c0.967-0.016,1.944,0.074,2.893,0.165
				c0.068-0.265,0.136-0.535,0.202-0.8c-0.915-0.413-1.921-0.566-2.917-0.558c-0.048-0.144-0.096-0.288-0.146-0.434
				c0.759-0.067,1.269-0.973,0.895-1.647c-0.167-0.38-0.54-0.592-0.927-0.624c-0.393-0.032-0.801,0.119-1.025,0.467
				c-0.484,0.615-0.105,1.589,0.633,1.783c0.043,0.155,0.088,0.312,0.134,0.47c-1.135,0.067-2.293,0.321-3.243,0.973
				C412.954,23.99,413.049,24.265,413.146,24.542z"/>
			<path style="fill:#FFFFFF;" d="M427.96,25.83c-0.305,0.156-0.361,0.518-0.345,0.825c-0.337,0.33-0.178,0.825-0.216,1.238
				c-0.075,0.23-0.352,0.259-0.544,0.344c-0.267-0.405-0.548-0.794-0.902-1.125l0.001-0.018c-0.386-0.362-0.805-0.69-1.247-0.979
				c-0.357,0.381-0.73,0.752-1.072,1.15c0.676,0.745,1.305,1.541,1.855,2.383c0.38,0.642,0.688,1.32,0.954,2.016
				c0.571-0.291,1.135-0.598,1.703-0.897c-0.299-0.696-0.645-1.377-1.011-2.044c0.254-0.135,0.594-0.27,0.631-0.6
				c0.032-0.363-0.053-0.758,0.17-1.08c0.439,0.291,1.111-0.039,1.118-0.574C429.111,25.917,428.417,25.512,427.96,25.83z"/>
			<path style="fill:#FFFFFF;" d="M422.227,26.562c-1.268-1.114-2.909-1.866-4.614-1.856c-0.417-0.005-0.838,0.009-1.256,0.03
				c-1.739,0.101-3.463,0.459-5.061,1.156c-1.868,0.82-3.495,2.28-4.318,4.178c-0.793,1.699-0.783,3.659-0.425,5.467
				c1.983,0.497,3.996,0.939,6.04,1.037c1.253,0.037,2.512,0.071,3.765,0.021c0.763-0.028,1.525-0.087,2.286-0.193
				c2.752-0.362,5.447-1.236,7.848-2.641c0,0-0.329-1.81-1.623-3.787C424.125,28.742,423.319,27.514,422.227,26.562z
				 M415.131,32.411c-0.374,0.542-0.909,0.966-1.525,1.201c-1.159,0.431-2.568,0.14-3.4-0.787c-0.582-0.642-0.929-1.502-0.864-2.371
				c0.043-1.089,0.714-2.098,1.668-2.607c0.726-0.396,1.606-0.466,2.396-0.244c0.332,0.085,0.641,0.241,0.926,0.431
				c0.582,0.416,1.024,1.03,1.215,1.723C415.821,30.642,415.649,31.642,415.131,32.411z M423.477,30.454
				c-0.134,0.925-1.023,1.716-1.97,1.654c-0.551,0.045-1.082-0.216-1.454-0.602c-0.268-0.331-0.489-0.717-0.525-1.151
				c-0.128-0.944,0.536-1.916,1.459-2.142c0.408-0.113,0.831-0.053,1.232,0.041C423.089,28.562,423.659,29.544,423.477,30.454z"/>
			<path style="fill:#FFFFFF;" d="M407.003,27.215c-0.805,0.486-1.468,1.172-2.02,1.926c-0.164-0.296-0.209-0.653-0.42-0.923
				c-0.121-0.158-0.334-0.095-0.502-0.098c-0.213,0.023-0.422-0.034-0.624-0.095c0.235-0.332,0.175-0.842-0.188-1.059
				c-0.385-0.274-0.98-0.035-1.083,0.423c-0.16,0.503,0.372,1.008,0.864,0.874c0.263,0.386,0.735,0.324,1.138,0.34
				c0.184,0.313,0.318,0.66,0.553,0.942c-0.432,0.855-0.675,1.806-0.693,2.761c0.551,0.231,1.104,0.468,1.66,0.698
				c0.029-0.601,0.098-1.201,0.191-1.794c0.185-1.292,0.934-2.418,1.82-3.343C407.479,27.638,407.236,27.435,407.003,27.215z"/>
			<path style="fill:#FFFFFF;" d="M416.357,37.44c-0.879,0.046-1.76,0.051-2.637,0.012c-1.412-0.072-2.821-0.202-4.201-0.507
				c-0.98-0.2-1.936-0.483-2.898-0.757c0.154,1.23,0.65,2.406,1.359,3.415c0.838,1.177,1.957,2.257,3.35,2.693
				c1.085,0.29,2.382,0.666,4.614,0.629c0.138-0.003,0.275-0.011,0.413-0.015c1.703-0.062,3.367-0.306,4.869-0.942
				c1.043-0.452,2.023-1.063,2.864-1.831c0.728-0.683,1.297-1.538,1.69-2.458c0.382-0.866,0.724-2.42,0.686-3.221
				c-1.995,1.14-4.232,2.127-6.509,2.513C418.772,37.228,417.566,37.375,416.357,37.44z"/>
		</g>
		<polygon points="802.07,780 456.909,780 456.909,761 144.909,761 144.909,780 -4.25,780 -4.25,800 802.07,800 		"/>
		<rect x="210.32" y="747.732" width="167.229" height="37.268"/>
	</g>
</g>
</svg>
