<?xml version="1.0" standalone="no"?>
<!DOCTYPE svg PUBLIC "-//W3C//DTD SVG 20010904//EN"
 "http://www.w3.org/TR/2001/REC-SVG-20010904/DTD/svg10.dtd">
<svg version="1.0" xmlns="http://www.w3.org/2000/svg"
 width="1000.000000pt" height="1000.000000pt" viewBox="0 0 1000.000000 1000.000000"
 preserveAspectRatio="xMidYMid meet">

<g transform="translate(0.000000,1000.000000) scale(0.100000,-0.100000)"
fill="#000000" stroke="none">
<path d="M7150 8045 c-7 -9 -11 -17 -9 -20 3 -2 10 5 17 15 14 24 10 26 -8 5z"/>
<path d="M7427 8010 c-4 -17 -3 -19 9 -9 11 9 14 9 14 -1 0 -7 7 -10 15 -6 9
3 15 0 15 -9 0 -19 17 -28 26 -14 4 8 3 9 -4 5 -8 -5 -12 0 -12 12 0 11 -8 22
-17 26 -10 3 -23 8 -29 11 -6 3 -14 -4 -17 -15z"/>
<path d="M7038 7926 c-19 -14 -23 -26 -10 -26 4 0 13 9 20 20 14 23 13 24 -10
6z"/>
<path d="M2990 7800 c0 -5 5 -10 11 -10 5 0 7 5 4 10 -3 6 -8 10 -11 10 -2 0
-4 -4 -4 -10z"/>
<path d="M6905 7800 c-3 -5 -2 -10 4 -10 5 0 13 5 16 10 3 6 2 10 -4 10 -5 0
-13 -4 -16 -10z"/>
<path d="M7510 7666 c0 -2 8 -10 18 -17 15 -13 16 -12 3 4 -13 16 -21 21 -21
13z"/>
<path d="M2195 7490 c-3 -5 -2 -10 4 -10 5 0 13 5 16 10 3 6 2 10 -4 10 -5 0
-13 -4 -16 -10z"/>
<path d="M6998 7483 c6 -2 18 -2 25 0 6 3 1 5 -13 5 -14 0 -19 -2 -12 -5z"/>
<path d="M2039 7323 c-13 -16 -12 -17 4 -4 9 7 17 15 17 17 0 8 -8 3 -21 -13z"/>
<path d="M2453 7275 c0 -8 4 -12 9 -9 5 3 6 10 3 15 -9 13 -12 11 -12 -6z"/>
<path d="M7995 7180 c28 -30 51 -57 53 -59 1 -2 2 2 1 10 -1 8 -24 34 -53 59
l-51 44 50 -54z"/>
<path d="M6191 7064 c0 -11 3 -14 6 -6 3 7 2 16 -1 19 -3 4 -6 -2 -5 -13z"/>
<path d="M3455 7000 c-3 -5 -1 -10 4 -10 6 0 11 5 11 10 0 6 -2 10 -4 10 -3 0
-8 -4 -11 -10z"/>
<path d="M8070 6885 c13 -14 26 -25 28 -25 3 0 -5 11 -18 25 -13 14 -26 25
-28 25 -3 0 5 -11 18 -25z"/>
<path d="M6972 6805 c0 -11 3 -29 8 -40 11 -25 11 1 0 35 -6 20 -8 21 -8 5z"/>
<path d="M6990 6735 c0 -15 99 -122 100 -107 0 6 -4 12 -10 12 -5 0 -10 6 -10
13 -1 14 -80 96 -80 82z"/>
<path d="M7849 6713 c-13 -16 -12 -17 4 -4 16 13 21 21 13 21 -2 0 -10 -8 -17
-17z"/>
<path d="M2890 6713 c0 -5 -14 -23 -31 -40 -16 -18 -26 -33 -21 -33 5 0 21 14
36 32 24 30 32 48 21 48 -3 0 -5 -3 -5 -7z"/>
<path d="M1944 6668 l-19 -23 23 19 c21 18 27 26 19 26 -2 0 -12 -10 -23 -22z"/>
<path d="M4655 6601 c5 -9 94 -4 104 5 2 2 -21 4 -53 4 -33 0 -55 -4 -51 -9z"/>
<path d="M2576 6143 c-6 -14 -5 -15 5 -6 7 7 10 15 7 18 -3 3 -9 -2 -12 -12z"/>
<path d="M1755 5111 c-90 -30 -132 -79 -136 -157 -4 -71 24 -120 92 -166 29
-20 56 -36 59 -36 3 1 12 -1 20 -4 8 -3 43 -16 78 -28 83 -30 123 -69 116
-113 -15 -81 -85 -113 -187 -87 -54 14 -76 33 -102 91 -17 37 -20 38 -92 23
-22 -4 -22 -5 -6 -48 9 -25 20 -43 24 -40 4 2 9 -6 13 -19 7 -27 70 -72 87
-61 8 4 9 3 5 -4 -10 -17 37 -27 130 -27 98 0 159 26 198 86 28 42 44 113 28
123 -6 3 -8 14 -6 24 3 9 -7 29 -21 45 -14 15 -23 27 -19 27 24 0 -54 42 -121
65 -133 46 -188 76 -198 112 -19 65 43 123 132 123 59 0 105 -32 126 -87 18
-47 43 -56 82 -28 22 15 24 29 9 54 -6 10 -5 12 2 7 27 -17 9 15 -35 62 -32
33 -61 54 -88 61 -43 12 -158 13 -190 2z"/>
<path d="M2335 5097 c-59 -29 -82 -48 -116 -102 -40 -62 -49 -103 -50 -226 -2
-128 11 -175 62 -240 33 -42 81 -73 94 -61 5 4 5 2 1 -5 -10 -17 67 -37 137
-35 71 3 131 34 181 96 66 80 80 219 42 426 -2 14 -5 28 -5 32 -2 15 -74 88
-107 109 -25 15 -57 22 -112 26 -67 4 -84 1 -127 -20z m184 -77 c26 -13 64
-65 82 -110 21 -53 18 -244 -5 -292 -40 -83 -120 -123 -199 -97 -23 7 -46 12
-50 11 -5 -2 -6 2 -2 8 3 5 2 10 -3 10 -5 0 -22 19 -37 42 -27 40 -28 47 -29
173 l-1 130 34 62 c19 34 38 60 42 58 4 -3 20 2 35 10 31 17 98 14 133 -5z"/>
<path d="M2990 5111 c-49 -11 -112 -46 -132 -75 -20 -28 -37 -93 -33 -129 2
-13 15 -43 30 -65 28 -43 82 -74 197 -115 34 -12 80 -34 100 -47 34 -23 38
-29 38 -69 0 -31 -7 -51 -23 -70 -25 -29 -38 -33 -122 -31 -67 1 -118 30 -129
75 -4 14 -11 25 -16 25 -6 0 -10 7 -10 15 0 8 -5 15 -11 15 -5 0 -7 -4 -4 -10
4 -6 -2 -7 -17 -2 -43 16 -56 5 -48 -38 9 -48 37 -93 52 -84 6 4 8 3 5 -3 -9
-14 40 -46 55 -37 6 4 8 3 5 -4 -13 -20 97 -45 165 -38 64 6 135 36 131 55 -2
5 3 8 10 6 6 -3 22 11 35 30 47 73 16 212 -56 249 -15 8 -73 30 -130 50 -130
45 -151 60 -152 106 0 59 10 80 47 95 20 8 59 15 89 15 46 0 57 -4 88 -34 31
-29 42 -51 37 -78 -2 -12 24 -9 36 3 8 8 13 8 17 0 12 -18 33 -12 39 10 3 12
3 18 -1 14 -3 -3 -13 20 -22 52 -9 33 -21 57 -28 56 -7 -2 -12 1 -12 7 0 33
-154 68 -230 51z"/>
<path d="M3635 5030 c2 -47 5 -94 8 -105 2 -11 -2 -29 -9 -40 -11 -15 -14 -68
-14 -225 0 -113 4 -211 9 -218 15 -24 64 -10 79 21 17 36 21 175 10 356 -12
187 -2 189 57 8 44 -133 71 -197 83 -197 5 0 10 -10 10 -23 0 -13 12 -57 27
-99 28 -74 29 -75 65 -76 l37 -2 36 88 c20 48 50 125 65 172 25 73 52 137 105
248 17 36 26 5 16 -56 -10 -66 -20 -399 -12 -429 4 -19 12 -23 43 -23 28 0 40
5 43 18 5 16 9 216 11 517 l1 140 -43 3 c-29 2 -42 0 -37 -7 3 -6 -1 -11 -11
-11 -22 0 -62 -47 -69 -81 -4 -15 -13 -33 -21 -40 -8 -6 -14 -18 -14 -26 0 -8
-9 -35 -21 -60 -11 -25 -22 -53 -24 -62 -3 -17 -71 -196 -84 -220 -4 -7 -10
-14 -15 -15 -8 -1 -12 9 -66 154 -15 41 -49 129 -75 195 -26 66 -51 132 -56
146 -8 21 -16 25 -52 26 -23 1 -50 -3 -59 -8 -11 -6 -18 -5 -21 4 -2 6 -3 -26
-2 -73z"/>
<path d="M4670 5101 c0 -6 -5 -10 -10 -8 -6 1 -25 -34 -41 -78 -17 -44 -57
-146 -90 -227 -32 -81 -59 -154 -59 -162 0 -7 -11 -39 -25 -70 -14 -31 -25
-64 -25 -73 0 -9 -6 -24 -14 -32 -13 -14 -9 -16 37 -16 l52 0 30 75 c37 93 42
101 60 93 8 -3 15 0 15 6 0 6 7 11 16 11 8 0 12 -4 9 -10 -3 -6 36 -10 102
-12 l108 -3 25 -77 c26 -80 33 -88 93 -88 15 0 27 2 27 5 0 17 -24 112 -30
120 -5 6 -13 29 -19 53 -7 23 -16 42 -20 42 -5 0 -11 17 -15 38 -3 20 -17 61
-31 90 -14 30 -25 61 -25 69 0 8 -5 11 -12 7 -6 -4 -8 -3 -5 3 6 9 -22 99 -42
134 -5 9 -14 34 -20 56 -8 27 -19 43 -37 52 -15 6 -29 9 -32 6 -3 -3 1 -5 8
-5 7 0 10 -3 7 -6 -4 -4 -13 -1 -22 6 -10 8 -15 9 -15 1z m45 -188 c3 -15 22
-66 41 -115 19 -48 34 -95 34 -103 0 -13 -15 -15 -97 -13 -113 3 -109 -5 -65
113 60 163 72 178 87 118z"/>
<path d="M4685 4870 c3 -5 8 -10 11 -10 2 0 4 5 4 10 0 6 -5 10 -11 10 -5 0
-7 -4 -4 -10z"/>
<path d="M4632 4735 c-10 -22 -9 -25 7 -25 14 0 17 6 13 25 -2 14 -5 25 -7 25
-1 0 -7 -11 -13 -25z"/>
<path d="M4735 4720 c-3 -5 1 -10 10 -10 9 0 13 5 10 10 -3 6 -8 10 -10 10 -2
0 -7 -4 -10 -10z"/>
<path d="M5100 5091 c-35 -10 -38 -42 -36 -376 l1 -279 33 -7 c69 -14 69 -13
71 144 1 91 6 146 13 155 10 11 39 13 148 10 74 -2 141 -7 148 -11 9 -6 12
-47 12 -146 0 -105 3 -141 14 -150 18 -15 74 -3 80 18 5 17 10 396 8 559 l-2
92 -37 0 c-21 0 -43 -4 -50 -8 -9 -5 -13 -50 -15 -142 l-3 -135 -159 -3 -158
-3 3 143 4 143 -25 2 c-14 1 -36 -2 -50 -6z"/>
<path d="M5763 5093 l-31 -4 1 -324 c1 -178 6 -327 10 -332 5 -4 66 -8 135 -8
113 0 133 3 177 24 66 32 132 103 150 164 16 54 20 224 7 277 -20 79 -85 151
-166 185 -37 16 -210 26 -283 18z m289 -120 c53 -51 71 -107 69 -218 -2 -116
-4 -155 -10 -149 -8 8 -32 -36 -25 -48 5 -7 3 -8 -6 -3 -8 5 -17 2 -24 -7 -21
-28 -86 -48 -157 -48 l-69 0 0 73 c-1 39 -1 150 -2 245 0 95 3 177 8 182 13
13 72 16 134 7 38 -6 63 -16 82 -34z"/>
<path d="M6520 5091 c-68 -22 -128 -71 -114 -93 4 -6 3 -8 -3 -5 -10 7 -33
-33 -33 -58 0 -7 -5 -15 -11 -17 -6 -2 -12 -21 -14 -43 -3 -22 -7 -64 -10 -93
-7 -78 11 -189 40 -238 28 -48 72 -87 88 -77 5 3 7 1 3 -5 -17 -28 142 -57
214 -39 69 17 153 96 164 154 3 11 11 41 20 66 19 57 19 212 -1 229 -7 6 -13
25 -13 42 0 55 -54 127 -121 162 -38 19 -167 29 -209 15z m170 -97 c47 -26 56
-39 73 -110 21 -89 22 -184 2 -252 -9 -29 -13 -58 -9 -64 4 -6 3 -8 -4 -4 -6
3 -20 -7 -31 -22 -25 -36 -92 -57 -149 -47 -49 8 -110 65 -130 122 -7 21 -16
74 -19 118 -5 92 17 173 63 228 43 51 140 66 204 31z"/>
<path d="M7160 5084 c-61 -19 -102 -58 -134 -125 -33 -70 -43 -125 -40 -214 6
-176 37 -247 132 -302 37 -22 56 -26 135 -27 89 -1 93 0 141 33 27 19 54 47
60 63 6 15 15 27 21 24 7 -2 11 15 10 48 0 34 -4 51 -12 50 -7 -1 -26 -2 -43
-2 -17 -1 -29 -5 -28 -9 8 -27 -15 -73 -49 -99 -33 -25 -47 -29 -104 -29 -57
0 -71 4 -103 28 -20 16 -42 41 -47 55 -6 15 -11 87 -12 162 -1 125 0 139 23
185 31 63 75 90 145 89 81 -1 127 -36 140 -105 6 -33 8 -34 48 -32 23 1 44 2
47 4 3 1 8 1 13 0 4 0 7 4 7 9 0 6 -4 10 -9 10 -6 0 -11 17 -13 38 -2 25 -8
37 -18 37 -8 1 -14 7 -12 14 4 20 -47 71 -93 92 -48 22 -141 24 -205 3z"/>
<path d="M7619 5080 c-5 -3 -8 -134 -8 -290 0 -157 0 -303 -1 -326 l-1 -41 43
1 43 1 8 80 c4 44 8 91 8 105 1 27 37 87 57 95 12 5 94 -74 100 -96 3 -11 50
-74 85 -113 9 -11 17 -24 17 -28 0 -5 5 -6 12 -2 6 4 8 3 4 -4 -14 -23 24 -42
85 -42 57 0 74 10 46 27 -7 4 -33 35 -58 68 -25 33 -77 102 -117 153 -39 51
-74 101 -77 112 -4 13 3 30 22 52 52 60 148 163 166 176 9 7 17 20 17 28 0 8
5 13 11 12 6 -2 13 8 14 20 2 23 -1 23 -46 18 -26 -3 -53 -8 -61 -11 -14 -6
-164 -163 -168 -177 -4 -14 -88 -98 -98 -98 -12 0 -22 77 -23 186 -1 45 -4 86
-8 91 -7 9 -57 11 -72 3z"/>
<path d="M8223 5082 c-15 -10 -14 10 -19 -347 l-5 -300 29 -11 c37 -14 72 -1
73 28 10 168 10 543 1 593 -6 35 -11 40 -37 43 -17 1 -35 -1 -42 -6z"/>
<path d="M7740 4865 c0 -8 2 -15 4 -15 2 0 6 7 10 15 3 8 1 15 -4 15 -6 0 -10
-7 -10 -15z"/>
<path d="M4177 4814 c-4 -4 -7 -17 -7 -28 1 -19 1 -20 11 -3 11 19 8 43 -4 31z"/>
<path d="M3750 4783 c0 -12 5 -25 10 -28 13 -8 13 15 0 35 -8 12 -10 11 -10
-7z"/>
<path d="M3957 4674 c3 -7 9 -14 14 -14 14 0 10 17 -5 23 -10 4 -13 1 -9 -9z"/>
<path d="M5010 4451 c0 -5 5 -13 10 -16 6 -3 10 -2 10 4 0 5 -4 13 -10 16 -5
3 -10 2 -10 -4z"/>
<path d="M8150 4435 c0 -8 5 -15 10 -15 6 0 10 7 10 15 0 8 -4 15 -10 15 -5 0
-10 -7 -10 -15z"/>
<path d="M7067 3797 c-4 -11 -1 -17 8 -17 9 0 12 -6 9 -15 -4 -8 -10 -15 -16
-15 -5 0 -6 5 -2 11 4 7 1 10 -6 7 -8 -2 -16 -10 -18 -18 -3 -7 0 -10 6 -6 17
10 35 -31 23 -53 -6 -10 -7 -21 -4 -25 10 -10 20 -7 21 7 6 72 10 89 22 97 10
6 11 10 3 10 -7 0 -10 7 -7 15 4 8 1 15 -6 15 -6 0 -8 -4 -5 -10 3 -5 2 -10
-4 -10 -5 0 -11 5 -13 12 -3 7 -7 6 -11 -5z"/>
<path d="M7026 3713 c-3 -8 -1 -11 4 -8 6 3 7 -1 4 -9 -4 -11 0 -16 11 -16 12
0 15 5 10 21 -6 16 -4 20 6 14 8 -5 10 -4 6 0 -13 15 -35 14 -41 -2z"/>
<path d="M6992 3669 c-10 -16 -11 -24 -2 -33 6 -6 11 -7 10 -1 -5 22 1 35 14
35 8 0 16 -6 19 -12 2 -7 8 -10 12 -5 5 4 0 14 -11 22 -25 19 -27 19 -42 -6z"/>
<path d="M7067 3635 c-4 -8 -2 -17 3 -20 6 -4 10 3 10 14 0 25 -6 27 -13 6z"/>
<path d="M7097 3619 c7 -7 15 -10 18 -7 3 3 -2 9 -12 12 -14 6 -15 5 -6 -5z"/>
<path d="M7039 3330 c-1 -3 -1 -9 0 -13 1 -4 -7 -3 -18 3 -27 14 -31 13 -31
-7 0 -15 -2 -16 -10 -3 -5 8 -10 10 -10 5 0 -6 7 -20 15 -32 14 -20 14 -22 -2
-26 -10 -2 -6 -3 9 -1 20 3 26 0 21 -11 -3 -10 1 -15 13 -15 11 0 30 -3 44 -5
14 -3 19 -3 13 1 -15 7 -17 34 -4 34 6 0 13 -4 16 -10 3 -5 12 -10 18 -9 9 0
9 2 0 6 -7 2 -13 9 -13 14 0 6 4 8 9 4 20 -12 21 15 1 35 -11 11 -20 24 -20
30 0 10 -49 10 -51 0z m18 -82 c-3 -8 -6 -5 -6 6 -1 11 2 17 5 13 3 -3 4 -12
1 -19z"/>
<path d="M6940 3274 c0 -8 5 -12 10 -9 6 4 8 11 5 16 -9 14 -15 11 -15 -7z"/>
<path d="M7153 3213 c-3 -10 -8 -22 -11 -27 -3 -5 0 -6 5 -3 11 7 25 47 17 47
-3 0 -7 -8 -11 -17z"/>
<path d="M7100 3216 c0 -2 7 -9 15 -16 13 -11 14 -10 9 4 -5 14 -24 23 -24 12z"/>
<path d="M4880 3140 c-9 -6 -10 -10 -3 -10 6 0 15 5 18 10 8 12 4 12 -15 0z"/>
<path d="M4996 3138 c3 -4 12 -8 20 -8 8 0 14 4 14 8 0 4 -9 8 -19 8 -11 0
-17 -4 -15 -8z"/>
<path d="M2948 3123 c7 -3 16 -2 19 1 4 3 -2 6 -13 5 -11 0 -14 -3 -6 -6z"/>
<path d="M2955 3099 c8 -12 65 -39 65 -30 0 4 -16 14 -35 23 -19 8 -32 12 -30
7z"/>
<path d="M6910 3087 c-27 -17 -31 -22 -17 -25 10 -2 27 6 38 19 31 35 28 36
-21 6z"/>
<path d="M2883 3086 c0 -8 8 -11 19 -8 10 2 18 8 18 13 0 5 -8 9 -18 9 -10 0
-19 -6 -19 -14z"/>
<path d="M3072 2985 c10 -11 78 -15 78 -5 0 6 -19 10 -42 10 -23 0 -39 -2 -36
-5z"/>
<path d="M6760 2980 c-10 -7 -1 -8 30 -4 56 8 64 14 19 14 -19 0 -41 -5 -49
-10z"/>
<path d="M3376 2761 c-4 -5 3 -7 14 -4 23 6 26 13 6 13 -8 0 -17 -4 -20 -9z"/>
<path d="M3566 2546 c3 -14 7 -37 8 -50 0 -14 5 -21 9 -17 10 10 -2 79 -15 87
-5 3 -6 -5 -2 -20z"/>
<path d="M6323 2535 c-3 -9 -3 -18 -1 -21 3 -3 8 4 11 16 6 23 -1 27 -10 5z"/>
<path d="M2326 2521 c-5 -14 -4 -27 3 -34 15 -15 18 -7 11 28 -6 29 -6 29 -14
6z"/>
<path d="M7580 2515 c0 -8 5 -15 10 -15 6 0 10 7 10 15 0 8 -4 15 -10 15 -5 0
-10 -7 -10 -15z"/>
<path d="M7548 2468 c-16 -5 -28 -13 -28 -18 0 -5 -8 -11 -17 -13 -14 -4 -13
-5 4 -6 12 0 35 10 50 24 31 27 30 28 -9 13z"/>
<path d="M2357 2449 c7 -7 15 -10 18 -7 3 3 -2 9 -12 12 -14 6 -15 5 -6 -5z"/>
<path d="M3640 2415 c0 -7 59 -65 66 -65 5 0 4 4 -1 8 -6 4 -16 19 -22 33 -6
14 -18 26 -27 26 -9 0 -16 -1 -16 -2z"/>
<path d="M7130 2150 c0 -5 5 -10 11 -10 5 0 7 5 4 10 -3 6 -8 10 -11 10 -2 0
-4 -4 -4 -10z"/>
<path d="M6990 2120 c0 -5 5 -10 11 -10 5 0 7 5 4 10 -3 6 -8 10 -11 10 -2 0
-4 -4 -4 -10z"/>
<path d="M2725 2109 c-4 -6 -5 -12 -2 -15 2 -3 7 2 10 11 7 17 1 20 -8 4z"/>
<path d="M2890 2116 c0 -2 7 -7 16 -10 8 -3 12 -2 9 4 -6 10 -25 14 -25 6z"/>
<path d="M2978 2103 c7 -3 16 -2 19 1 4 3 -2 6 -13 5 -11 0 -14 -3 -6 -6z"/>
<path d="M6545 2011 c-3 -5 -1 -12 5 -16 5 -3 10 1 10 9 0 18 -6 21 -15 7z"/>
<path d="M3030 1804 c0 -12 6 -27 14 -33 18 -15 17 3 -2 34 -11 20 -11 20 -12
-1z"/>
<path d="M6865 1811 c-3 -5 -1 -12 5 -16 5 -3 10 1 10 9 0 18 -6 21 -15 7z"/>
<path d="M3285 1380 c3 -5 8 -10 11 -10 2 0 4 5 4 10 0 6 -5 10 -11 10 -5 0
-7 -4 -4 -10z"/>
<path d="M7190 1230 c0 -5 5 -10 10 -10 6 0 10 5 10 10 0 6 -4 10 -10 10 -5 0
-10 -4 -10 -10z"/>
<path d="M7780 1219 c0 -5 5 -7 10 -4 6 3 10 8 10 11 0 2 -4 4 -10 4 -5 0 -10
-5 -10 -11z"/>
<path d="M3561 1174 c0 -11 3 -14 6 -6 3 7 2 16 -1 19 -3 4 -6 -2 -5 -13z"/>
<path d="M2350 1165 c0 -5 5 -17 10 -25 5 -8 10 -10 10 -5 0 6 -5 17 -10 25
-5 8 -10 11 -10 5z"/>
<path d="M2491 1144 c0 -11 3 -14 6 -6 3 7 2 16 -1 19 -3 4 -6 -2 -5 -13z"/>
<path d="M6920 1110 c0 -5 5 -10 11 -10 5 0 7 5 4 10 -3 6 -8 10 -11 10 -2 0
-4 -4 -4 -10z"/>
<path d="M3155 1089 c-4 -6 -5 -12 -2 -15 2 -3 7 2 10 11 7 17 1 20 -8 4z"/>
<path d="M4675 699 c-4 -6 -5 -12 -2 -15 2 -3 7 2 10 11 7 17 1 20 -8 4z"/>
<path d="M6595 700 c-3 -5 -1 -10 4 -10 6 0 11 5 11 10 0 6 -2 10 -4 10 -3 0
-8 -4 -11 -10z"/>
<path d="M5432 680 c0 -14 2 -19 5 -12 2 6 2 18 0 25 -3 6 -5 1 -5 -13z"/>
<path d="M5771 684 c0 -11 3 -14 6 -6 3 7 2 16 -1 19 -3 4 -6 -2 -5 -13z"/>
<path d="M5191 624 c0 -11 3 -14 6 -6 3 7 2 16 -1 19 -3 4 -6 -2 -5 -13z"/>
<path d="M5290 619 c0 -5 5 -7 10 -4 6 3 10 8 10 11 0 2 -4 4 -10 4 -5 0 -10
-5 -10 -11z"/>
</g>
</svg>
