<svg xmlns="http://www.w3.org/2000/svg" viewBox="0 0 500 500"><g id="freepik--Car--inject-84"><g id="freepik--Vehicle--inject-84"><polygon points="105.39 307.24 135.21 290.44 118.67 280.89 105.43 288.56 105.39 307.24" style="fill:#263238"></polygon><path d="M246.29,388.6v4.47l18.49-10.67,11.34-10.63-16.55-9.55-13.23,7.67v18.69Z" style="fill:#263238"></path><path d="M258.6,384.7l-4.28-8.5,10.18-5.89h0c3.23-1.86,7.54-1.65,12.28,1.08C286.83,377.2,295,392.16,295,404.82c0,6.63-2.23,11.31-5.8,13.43h0l-.14.08,0,0-10.44,6-4.51-9C265.52,408.88,258.93,396,258.6,384.7Z" style="fill:#37474f"></path><path d="M258.6,384.7l-4.28-8.5,10.18-5.89h0c3.23-1.86,7.54-1.65,12.28,1.08C286.83,377.2,295,392.16,295,404.82c0,6.63-2.23,11.31-5.8,13.43h0l-.14.08,0,0-10.44,6-4.51-9C265.52,408.88,258.93,396,258.6,384.7Z" style="fill:#263238"></path><path d="M248,389.92c0,10.92,6.06,23.55,14.17,30.54l0,0a26.44,26.44,0,0,0,4,2.86c10.05,5.81,18.2.25,18.19-12.41,0-9.57-4.65-20.46-11.25-27.71l-.06-.05a29.31,29.31,0,0,0-6.88-5.67C256.13,371.71,248,377.26,248,389.92Z" style="fill:#37474f"></path><path d="M266.19,385.15c-6.4-3.7-11.58.15-11.58,8.59s5.18,18.28,11.58,22,11.58-.15,11.58-8.59S272.58,388.84,266.19,385.15Z" style="fill:#455a64"></path><path d="M261,398.09c.44,4.2,3.15,8.65,6,9.94a2.81,2.81,0,0,0,3.15-.27c1-.86,1.54-2.64,1.29-5-.44-4.19-3.13-8.64-6-9.93a3.28,3.28,0,0,0-2.12-.28h0C261.6,393,260.63,395,261,398.09Z" style="fill:#fafafa"></path><path d="M262,397.55c.44,4.2,3.14,8.65,6,9.94a3.24,3.24,0,0,0,2.11.27c1-.86,1.54-2.64,1.29-5-.44-4.19-3.13-8.64-6-9.93a3.28,3.28,0,0,0-2.12-.28h0C262.26,393.43,261.74,395.2,262,397.55Z" style="fill:#e0e0e0"></path><path d="M248,389.92c0,10.92,6.06,23.55,14.17,30.54a51.69,51.69,0,0,1-11.54-22.34c-1.54-7.29-1-17.77,5.3-20.42s14.54,2.94,17.15,5.48a29.31,29.31,0,0,0-6.88-5.67C256.13,371.71,248,377.26,248,389.92Z" style="fill:#455a64"></path><path d="M117.69,303.36l-4.27-8.5L123.59,289h0c3.24-1.87,7.55-1.65,12.28,1.08,10,5.8,18.2,20.77,18.2,33.43,0,6.63-2.24,11.31-5.81,13.43L137.67,343l-4.51-9C124.62,327.54,118,314.65,117.69,303.36Z" style="fill:#37474f"></path><path d="M117.69,303.36l-4.27-8.5L123.59,289h0c3.24-1.87,7.55-1.65,12.28,1.08,10,5.8,18.2,20.77,18.2,33.43,0,6.63-2.24,11.31-5.81,13.43L137.67,343l-4.51-9C124.62,327.54,118,314.65,117.69,303.36Z" style="fill:#263238"></path><path d="M107.08,308.59c0,10.91,6.07,23.55,14.18,30.53l0,0a27,27,0,0,0,4,2.86c10.05,5.8,18.21.24,18.2-12.42,0-9.56-4.65-20.45-11.26-27.7,0,0,0,0-.05-.06a29.4,29.4,0,0,0-6.89-5.67C115.23,290.37,107.08,295.93,107.08,308.59Z" style="fill:#37474f"></path><path d="M125.28,303.81c-6.39-3.69-11.58.16-11.58,8.6s5.19,18.27,11.58,22,11.58-.16,11.58-8.6S131.68,307.51,125.28,303.81Z" style="fill:#455a64"></path><path d="M120.05,316.76c.44,4.2,3.14,8.65,6,9.93a2.8,2.8,0,0,0,3.15-.26c1-.87,1.53-2.64,1.29-5-.44-4.2-3.14-8.65-6-9.94a3.22,3.22,0,0,0-2.12-.27s0,0,0,0C120.7,311.63,119.73,313.7,120.05,316.76Z" style="fill:#fafafa"></path><path d="M121.08,316.22c.44,4.19,3.14,8.64,6,9.93a3.35,3.35,0,0,0,2.12.28c1-.87,1.53-2.64,1.29-5-.44-4.2-3.14-8.65-6-9.94a3.22,3.22,0,0,0-2.12-.27s0,0,0,0C121.35,312.09,120.84,313.87,121.08,316.22Z" style="fill:#e0e0e0"></path><path d="M107.08,308.59c0,10.91,6.07,23.55,14.18,30.53a51.54,51.54,0,0,1-11.54-22.33c-1.54-7.3-1-17.78,5.3-20.42s14.53,2.93,17.15,5.47a29.4,29.4,0,0,0-6.89-5.67C115.23,290.37,107.08,295.93,107.08,308.59Z" style="fill:#455a64"></path><path d="M368.14,356.5c-46.7,26.95-67.93,14.7-107.7-8.27-38.55-22.26-95.55-63.31-99-65.83l71,44.27L219.1,278c-1.92-6.57-5.07-8-9.53-10.6C201,262.45,167.85,244,145.2,230.9c-19.58-11.29-28.9-16.5-31.1-21.5v-.24c0-.2,0-.4,0-.6,0-.45,0-.89,0-1.37.35-4,2.73-8.81,27.7-23.89,14.11-8.52,26.42-12.67,37.63-12.67s20.86,4,31.83,10c13.79,7.51,78.53,42.91,86.1,49.45,23.2,20.67,38.5,35.78,48.15,47.58l.64.77.1-.26C351,281.23,376.66,298.69,390,309c.41.31.8.6,1.17.9s.52.4.76.6C396.89,316.88,405.43,335,368.14,356.5Z" style="fill:#fafafa"></path><path d="M396.15,313.38a22.31,22.31,0,0,0-1.71-1.61c-.54-.45-1.14-1-1.82-1.5s-1.44-1.14-2.25-1.76c-.16-.13-.33-.25-.51-.38,2.11,2,22.66,22.73-21.72,48.37-46.71,27-67.93,14.7-107.7-8.27-38.55-22.26-95.55-63.31-99-65.83l71,44.27L219.1,278c-1.92-6.57-5.07-8-9.53-10.6C201,262.45,167.85,244,145.2,230.9S113.71,213,113.57,207.13c-.07.88,0,1.74,0,2.63,0,5.39,0,7.6,8.46,13.47,5,3.43,12.2,8.2,17.71,11.83a3.07,3.07,0,0,1-.15,5.21l-13.87,8a16.71,16.71,0,0,1-18.75-1.4l-4.1-5-1.59-1.4a10,10,0,0,1-.85-.74l0,0,2.51-2.36a31.77,31.77,0,0,0-3.28,1.5,18.52,18.52,0,0,0-1.8,1.07,11.72,11.72,0,0,0-2.43,1.87c-1.37,1.46-2.61,4-3.41,9.79-.21,1.49-.38,3.1-.53,4.79-.05.66-.11,1.34-.16,2q-.15,2.25-.27,4.5c-.22,4.36-.33,8.78-.44,12.6,0,.22,0,.44,0,.65-.05,1.65-.1,3.18-.15,4.53v0c-.1,7.56.08,18,10.62,24,1.91,1.1.86.51,4.41,2.55a21.86,21.86,0,0,1,.12-2.47c1.16-12.7,10.29-17.85,21.37-11.44a23.72,23.72,0,0,1,2,1.28,45.26,45.26,0,0,1,13.17,15.32,54.14,54.14,0,0,1,5.1,13c.42,1.79.72,3.58.95,5.33.36,2.93.36,3.88.36,3.88l15,8.66h.05s0,0,0,0h0l.13.08a.5.5,0,0,1,.14.08h0l.16.09a.47.47,0,0,1,.14.08h0l.05,0,.08,0,.12.07a1.42,1.42,0,0,1,.23.14,1.49,1.49,0,0,1,.24.14l.26.14h0l.08.06.47.26.28.16.29.18.87.5c.18.09.36.2.56.32l.52.3.42.24,0,0h0l.2.12.24.13.13.07s0,0,0,0l0,0,.28.16,0,0h0c.39.22.78.46,1.18.68l15.66,9,5.67,3.28c1.43.81,2.87,1.66,4.3,2.48s2.88,1.65,4.31,2.5,2.89,1.65,4.33,2.5c2.15,1.23,4.31,2.47,6.46,3.73l3.48,2,31.21,18c0-.86.06-1.69.12-2.49,1.18-12.7,10.3-17.87,21.39-11.46.68.39,1.36.83,2,1.3,5.12,3.54,9.73,9.05,13.17,15.32a53.14,53.14,0,0,1,5.09,13,42.06,42.06,0,0,1,1,5.33c.36,2.94.36,3.88.36,3.88v0l5.84,3.37a52.71,52.71,0,0,0,52.46.13c9.7-5.53,19.77-11.29,25.73-14.66,14.22-8.09,31.77-20.47,31.77-37.74V340.32C405.2,329.55,402.72,320.35,396.15,313.38Z" style="fill:#e0e0e0"></path><path d="M220.53,201.7c5.49,3.07,11,6.12,16.56,9.06-5.33-3.35-10.72-6.6-16.12-9.82s7.95,4.49,2.52,1.31-10.91-6.26-16.4-9.32l-8.25-4.58c-2.77-1.49-5.53-3-8.32-4.48,2.66,1.69,5.36,3.31,8,5l8.1,4.85c5.4,3.23,10.85,6.37,16.27,9.55S215,198.64,220.53,201.7Zm-76.7,9.13c2.66,1.69,5.36,3.31,8,5l8.09,4.86c5.41,3.22,10.85,6.36,16.28,9.55s-7.89-4.6-2.39-1.54,11,6.11,16.56,9.05c-5.33-3.35-10.72-6.59-16.12-9.81s7.95,4.49,2.52,1.3-10.91-6.25-16.4-9.32l-8.26-4.58C149.37,213.81,146.62,212.29,143.83,210.83Zm65.08.5c5.47,3.1-7.88-4.6-2.39-1.54s11,6.11,16.56,9.05c-5.33-3.35-10.72-6.59-16.12-9.81s7.95,4.49,2.53,1.3-10.92-6.25-16.41-9.32l-8.25-4.58c-2.77-1.49-5.52-3-8.31-4.47,2.65,1.69,5.35,3.31,8,5l8.09,4.86C198,205,203.49,208.14,208.91,211.33Zm-21.07,9.24c5.5,3.07,11,6.12,16.57,9.06-5.33-3.35-10.73-6.6-16.13-9.82s7.95,4.49,2.53,1.31-10.91-6.26-16.41-9.32l-8.25-4.58c-2.77-1.49-5.52-3-8.31-4.48,2.66,1.69,5.35,3.31,8,5l8.09,4.86c5.4,3.23,10.85,6.37,16.28,9.55S182.35,217.51,187.84,220.57Z" style="fill:#e0e0e0"></path><path d="M396.15,313.37c-.41-.43-1-1-1.71-1.59-.4-.35-.86-.73-1.34-1.12l-.48-.39-1.07-.85-1.18-.91C375.76,297.27,346,277.27,346,277.27h0c-11.13-13.6-28.49-30.08-48.22-47.65-7.48-6.46-70.53-41-86.2-49.53-10.41-5.68-20.33-10-32.11-10-10.57,0-22.65,3.51-37.93,12.75-24.39,14.73-27.58,19.89-28,24.33h0v0c-.08.88,0,1.72,0,2.61,0,3,0,5,1.42,7.15.76.35,1.53.68,2.29,1l-.12-.12a11,11,0,0,1-1.13-1.39c-1.31-1.95-1.31-3.72-1.31-6.66v-.6c0-.66,0-1.28,0-1.91v0c.33-3.68,2.75-8.52,27.43-23.43,14-8.47,26.22-12.58,37.33-12.58s20.66,4,31.56,9.9c19.12,10.44,78.83,43.19,86,49.39,23.16,20.63,38.44,35.73,48.08,47.5l1.24,1.52.2-.51c6.14,4.07,30.24,20.5,43.12,30.41l1.17.91,1.06.84.32.25.16.13,1.3,1.09c.67.58,1.23,1.1,1.63,1.52,5.88,6.24,8.74,14.8,8.74,26.17v24.26c0,17-17.8,29.12-31.19,36.74l-3.76,2.13-6.05,3.45-1,.58-.63.36-3.44,2-3.55,2L347.13,416a51.51,51.51,0,0,1-25.54,6.77c-1.15,0-2.31,0-3.45-.12a51.29,51.29,0,0,1-9.85-1.63c-1.08-.28-2.16-.61-3.21-1a50.74,50.74,0,0,1-9.26-4.19l-3.68-2.12-.91-.52-.71-.41c0-.6-.12-1.65-.33-3.36a45.9,45.9,0,0,0-1-5.47,54.6,54.6,0,0,0-5.2-13.27A46.5,46.5,0,0,0,270.48,375c-.76-.53-1.46-1-2.13-1.35a19.4,19.4,0,0,0-9.61-2.9c-7.45,0-12.61,5.84-13.48,15.25,0,.22,0,.44,0,.65L220.54,372.4l-.19-.1-1-.57-3.73-2.15-3.46-2-3.26-1.88-.83-.48L193,356.49l-.11-.06-.12-.07-.25-.14-.22-.13L166.12,341l-.45-.26-.52-.3-.3-.17-.27-.16,1.16.67h0l-3.45-2h0l-.4-.23-.44-.25-5.32-3.08-.5-.28-6-3.47c0-.61-.13-1.66-.34-3.35a48.71,48.71,0,0,0-1-5.46,55.26,55.26,0,0,0-5.2-13.27,52.69,52.69,0,0,0-6.93-9.78c0,.63.08,1.26.13,1.88a52.3,52.3,0,0,1,5.79,8.45,54,54,0,0,1,5.09,13,46.33,46.33,0,0,1,1,5.33c.36,2.93.36,3.89.36,3.89l6.56,3.78,5.82,3.37.84.48h0l3.45,2-3.45-2,2.28,1.32.58.33,1,.56,26.15,15.1.48.28.22.13,15.11,8.72,4.08,2.36,3.48,2,4.71,2.71-.05,0,.23.14,26.33,15.2c0-.86,0-1.69.11-2.49.83-9,5.66-14.21,12.34-14.21a18.24,18.24,0,0,1,9,2.75c.69.39,1.37.83,2.05,1.3A45.35,45.35,0,0,1,283,391.27a53.14,53.14,0,0,1,5.09,13,44,44,0,0,1,1,5.33c.35,2.93.35,3.88.35,3.88v0l5.84,3.37a52.84,52.84,0,0,0,9.47,4.28c1.09.37,2.18.7,3.28,1a52.42,52.42,0,0,0,10.07,1.67c1.17.08,2.35.12,3.53.12A52.47,52.47,0,0,0,347.7,417l7.28-4.15,3.55-2,3.44-2,1.65-.94,6.05-3.45,3.75-2.13c14.22-8.09,31.77-20.46,31.77-37.74V340.33C405.19,329.55,402.72,320.35,396.15,313.37Z" style="fill:#e0e0e0"></path><path d="M296.34,326.29a151.6,151.6,0,0,1,14.52,7c4.7,2.58,9.35,5.3,13.78,8.33a87.94,87.94,0,0,1,9.64,6.95c4.24,3.31,8.2,7,12.17,10.6l-2.77-2.95c-.93-1-1.84-2-2.83-2.88-2-1.86-3.93-3.72-6-5.44a75,75,0,0,0-9.58-7.24,140.6,140.6,0,0,0-14-8.15c-2.42-1.22-4.87-2.35-7.34-3.43S298.92,327.07,296.34,326.29Zm41.25-24.58c4.34,3,8.54,6.1,12.65,9.35s8.15,6.58,12,10.12,4.56,3.89,8.24,7.62,7.23,7.58,10.78,11.46c-1.61-2.08-3.21-4.17-4.91-6.18s-3.43-4-5.24-5.89a91.31,91.31,0,0,0-8.11-7.87c-3.94-3.48-8-6.83-12.24-10-2.12-1.56-4.28-3.07-6.46-4.54S339.9,303,337.59,301.71Z" style="fill:#e0e0e0"></path><path d="M332.69,263.42h0l.75,3.15c1.74,3.26,5.59,7.38,7,7s2-2.1,2.38-4.32v0a22.09,22.09,0,0,0,.32-3.21c.12-3.49-1.43-11.64-6.28-13.8a2.49,2.49,0,0,0-2.87.65,5.64,5.64,0,0,0-1.4,2.31C331.75,257.66,332.58,263.29,332.69,263.42Z" style="fill:#263238"></path><path d="M333.44,266.57c1.74,3.26,5.59,7.38,7,7s2-2.1,2.38-4.32v0a22.09,22.09,0,0,0,.32-3.21c.12-3.49-1.43-11.64-6.28-13.8a2.49,2.49,0,0,0-2.87.65l.66,1.5c3.39,1.44,4.3,6.67,4,10.65S335.39,268.63,333.44,266.57Z" style="fill:#455a64"></path><path d="M332.57,255.21c1.22-1.3,4.26-1.36,6.82,2.16s3.4,9.55,3.41,11.89a23.57,23.57,0,0,0,.32-3.22c.12-3.49-1.43-11.63-6.28-13.79C334.82,251.35,333.15,253.41,332.57,255.21Z" style="fill:#37474f"></path><path d="M139.54,240.27l-13.87,8c-5.93,3.43-13.8,3.28-18.75-1.4l-7.11-6.7c2-3.4,9.4-15.89,16.11-22a33.73,33.73,0,0,0,6.06,5c5,3.43,12.2,8.2,17.71,11.83A3.07,3.07,0,0,1,139.54,240.27Z" style="fill:#37474f"></path><path d="M247.76,345.38l6.6,4.18a1.08,1.08,0,0,1,.49.84l.14,3.28a.64.64,0,0,1-1,.57l-6.59-4.11a1.06,1.06,0,0,1-.49-.84l-.16-3.34A.64.64,0,0,1,247.76,345.38Z" style="fill:#860065"></path><path d="M148.5,332.14v4.47l97.79,56.46V388.6Z" style="fill:#37474f"></path><g style="opacity:0.2"><path d="M178,347h0a.43.43,0,0,0,.41-.45c0-.29-1.56-29.08-.72-49.5a.43.43,0,0,0-.41-.44h0a.43.43,0,0,0-.43.41c-.84,20.46.7,49.29.72,49.57A.43.43,0,0,0,178,347Z"></path></g><path d="M128.59,284.67a38.63,38.63,0,0,1,15.27,11.25,52.94,52.94,0,0,1,9.65,16.82c1.23,3.45,2.44,7.2,2.52,10.88,0,.33-.56.64-.69.24-.54-1.62-.89-3.28-1.32-4.92s-.9-3.17-1.43-4.73a56.32,56.32,0,0,0-4-9.1,49.3,49.3,0,0,0-11.77-14.25,62.16,62.16,0,0,0-8.42-5.69C128.17,285,128.35,284.58,128.59,284.67Z" style="opacity:0.2"></path><path d="M219.1,278l13.31,48.71,8.68,5a33.66,33.66,0,0,0,30.58,1.57c11.5-5.18,27.24-12.62,40.12-20.06a250.46,250.46,0,0,0,34.83-24.31,7.22,7.22,0,0,0,2-8.36c-10.91-14.17-29.49-31.89-50.81-50.89,7.49,6.46-14.79,19.33-30.35,28.31s-34.5,19.92-44.35,20.2A25,25,0,0,1,219.1,278Z" style="fill:#37474f"></path><path d="M142.86,270l89.55,56.7L219.1,278c-8.17-1-15.8-5.84-28.7-13.29l-23.06-13.31a9.61,9.61,0,0,0-9.66,0L143,259.82A5.92,5.92,0,0,0,142.86,270Z" style="fill:#263238"></path><path d="M223.08,278.14a20.9,20.9,0,0,0,3.21-.41c-.63,2.25.11,5.2,1.46,10.54,2.26,8.94,8.91,30.67,10.73,36.51s7.32,9,11.33,10.41a33.77,33.77,0,0,1-8.72-3.51l-8.68-5L219.1,278A25,25,0,0,0,223.08,278.14Z"></path><path d="M183.14,296l-7.81-4.87,4.27-32.65,5.48,3.17Z"></path><path d="M297.74,236.51c7.35,4.64,20.86,18.22,28.06,26.3,8.36,9.38,12.07,18,.48,10.78-9-5.64-32-19.95-41.72-26C290.35,243.77,295.34,239.91,297.74,236.51Z" style="fill:#455a64"></path><path d="M293.42,407.72v12.16c12.8,8.71,21.4,8.8,28,8.93,10.64.21,24-6.64,45.56-18.91,16.18-9.19,31.25-21.43,37.7-28.14l.07-.06a12,12,0,0,0,3.24-8.28V365.1c0,2.86-19.53,20.42-41,32.64s-34.92,19.1-45.56,18.91C314.82,416.51,306.22,416.43,293.42,407.72Z" style="fill:#37474f"></path><path d="M293.42,407.72c12.8,8.71,21.4,8.79,28,8.93,10.64.19,24-6.64,45.56-18.91S408,368,408,365.1v0c0-4.92-2.82-5.55-2.82-5.55v3.66s-9.5,11.71-34.43,27.19c-25.78,16-37.52,22.06-50.57,22.06s-23-7.39-23-7.39Z" style="fill:#455a64"></path><path d="M336.15,372.4l6.72,7.25a6.28,6.28,0,0,0,6.76,1.64,137.57,137.57,0,0,0,21.11-10.11,130.4,130.4,0,0,0,17.65-11.9,9.07,9.07,0,0,0,3.27-6.54l.56-10.87a.44.44,0,0,0-.78-.31c-4.35,5.22-11.13,10.87-21.36,16.78-12.52,7.23-23.52,11.45-33.69,13.33A.44.44,0,0,0,336.15,372.4Z" style="opacity:0.2"></path><path d="M94.06,256.34a10.3,10.3,0,0,1-2.66,0c.15-1.69.32-3.3.53-4.79.8-5.81,2-8.33,3.41-9.79l.19.18a27.33,27.33,0,0,1,6.2,7.69,5.92,5.92,0,0,1,.48,1.58C102.74,255.15,96.78,256,94.06,256.34Z" style="fill:#860065"></path><path d="M392.62,363.14a.57.57,0,1,0-.81-.81c-10.55,10.6-32.16,21.82-45.72,25.63a.57.57,0,0,0-.4.71.56.56,0,0,0,.55.42.41.41,0,0,0,.16,0C360.1,385.21,381.94,373.87,392.62,363.14Zm-46.93,30.09a.57.57,0,0,0,.55.41.41.41,0,0,0,.16,0c13.7-3.85,35.54-15.2,46.22-25.93a.57.57,0,1,0-.81-.81c-10.55,10.61-32.16,21.82-45.72,25.64A.57.57,0,0,0,345.69,393.23Z" style="fill:#455a64"></path><path d="M335.26,375a6.53,6.53,0,0,0-5.64-2.25c-7.38.76-19.55.75-27.44-1.55-9.17-2.69-10.87-2.91-9.17,2s6.13,11.43,14.12,12.81c14.31,2.47,25.79,1,31.54-1.68C341.54,382.94,338,378.18,335.26,375Z" style="fill:#860065"></path><path d="M335.26,375a6.53,6.53,0,0,0-5.64-2.25c-7.38.76-19.55.75-27.44-1.55-9.17-2.69-10.87-2.91-9.17,2s6.13,11.43,14.12,12.81c14.31,2.47,25.79,1,31.54-1.68C341.54,382.94,338,378.18,335.26,375Z" style="fill:#fff;opacity:0.8"></path><path d="M307.13,386c-8-1.38-12.43-7.9-14.12-12.81-1.6-4.63-.18-4.69,7.67-2.44,3.11,5.93,7.28,11.31,13,14.72.94.56,1.92,1.07,2.86,1.64A88.47,88.47,0,0,1,307.13,386Z" style="fill:#860065"></path><path d="M394.5,340.62a10.45,10.45,0,0,1,1.42-5.08,27.15,27.15,0,0,0,3.38-14.08c-.32-5.53,2.07-4.44,3.37-2.27s4.63,10.06,2.52,17.6c-1.75,6.28-6.46,12.7-9.65,16.23a.89.89,0,0,1-1.55-.64C394.17,349.42,394.45,344.31,394.5,340.62Z" style="fill:#860065"></path><path d="M394.5,340.62a10.45,10.45,0,0,1,1.42-5.08,27.15,27.15,0,0,0,3.38-14.08c-.32-5.53,2.07-4.44,3.37-2.27s4.63,10.06,2.52,17.6c-1.75,6.28-6.46,12.7-9.65,16.23a.89.89,0,0,1-1.55-.64C394.17,349.42,394.45,344.31,394.5,340.62Z" style="fill:#fff;opacity:0.8"></path><path d="M399.9,352.85a13.59,13.59,0,0,0-1.37,6.11,3.32,3.32,0,0,0,.34,1.68c.64,1.06,1.9.63,2.82.22a7,7,0,0,0,1.32-.78,14.69,14.69,0,0,0,2.18-2V345.8c-.32.26-.65.59-1,.92A21.15,21.15,0,0,0,399.9,352.85Zm-93.36,50.06a12.21,12.21,0,0,0,6.39,3.72,20.43,20.43,0,0,0,9.85-.56c9.79-2.52,10.24-6.89-.51-9.66-5.42-1.4-13.9-2.45-17.17-.29C302.91,397.57,305.39,401.59,306.54,402.91Z" style="fill:#860065"></path><path d="M212.14,324.58c1.56,7.42,9.77,9,15.93,8.8a18.78,18.78,0,0,0,6.76-1.16c2.37-1.38,1.28-4.22,0-5.87-2.16-2.79-11.83-8.39-17.9-8.58C213.39,317.65,211.06,319.38,212.14,324.58Z" style="fill:#263238"></path><path d="M212.14,324.58c1.56,7.42,9.77,9,15.93,8.8a18.78,18.78,0,0,0,6.76-1.16c2.37-1.38,1.28-4.22,0-5.87,1.19,2.27-5.14,3.67-10.79,1.64s-9.85-6.39-7.11-10.22C213.39,317.65,211.06,319.38,212.14,324.58Z" style="fill:#455a64"></path><path d="M212.14,324.58c1.56,7.42,9.77,9,15.93,8.8-6.13-.18-11-3.7-12.85-7.55s-.44-7.58,1.72-8.06C213.39,317.65,211.06,319.38,212.14,324.58Z" style="fill:#37474f"></path><path d="M94.64,305.1l6.34,3.66V296.35c-9.17-5.29-7.93-4.06-10.35-7.4a8,8,0,0,1-1.64-3.9C89,296.16,89.6,302.19,94.64,305.1Z" style="fill:#263238"></path><path d="M89,285.05a8,8,0,0,0,1.64,3.9c2.42,3.34,1.18,2.11,10.35,7.4l3.5-2.06s-1.41-.88-6.84-4-6.68-5.49-7-7.54c-.21-1.44-.28-2.1-.28-2.1C89.2,281.59,89,282.9,89,285.05Z" style="fill:#455a64"></path><polygon points="104.48 294.29 104.48 306.74 100.98 308.76 100.98 296.36 104.48 294.29" style="fill:#37474f"></polygon></g></g><g id="freepik--Freshener--inject-84"><g id="freepik--freshener--inject-84"><circle cx="327.51" cy="234.68" r="2.36" style="fill:#455a64"></circle><polygon points="389.3 186.87 390.05 187.52 348.77 235.18 327.51 235.18 327.51 234.18 348.31 234.18 389.3 186.87" style="fill:#455a64"></polygon><circle cx="409.26" cy="158.45" r="37.4" transform="translate(7.83 335.8) rotate(-45)" style="fill:#fff"></circle><path d="M409.26,120.05a38.4,38.4,0,1,1-38.4,38.4A38.45,38.45,0,0,1,409.26,120.05Zm0,74.8a36.4,36.4,0,1,0-36.4-36.4A36.44,36.44,0,0,0,409.26,194.85Z" style="fill:#860065"></path><g id="freepik--freshener--inject-84"><path d="M423.31,169.21l-.58-.75c-.54-.72-1.44-2-2.65-3.86a18.64,18.64,0,0,1-1.6-3.07c.23.21.47.41.73.61l1.11-.64c-.05-.1-.09-.21-.14-.33a11.55,11.55,0,0,0,1.82,1.29l1.11-.64a50.75,50.75,0,0,1-2.54-5.26,4.32,4.32,0,0,0,1.43,0l1.11-.64a23.73,23.73,0,0,1-5.22-6.9l0,0,.71-.31h0a1.22,1.22,0,0,0,.41-.34,12.4,12.4,0,0,1-3-3.06,11.35,11.35,0,0,1-1.93-3.49,4.62,4.62,0,0,1,2.12,1.49l1.12-.65c-.42-2.4-2.29-4.53-3.46-7,.61.51,1.1,1,1.1,1l1.11-.65s-.43-3.35-4.74-8.74c.56.24,1.1-.7,1.1-.7s-1.06-1.42-2.21-3.35l.32-.1,1.11-.65a61,61,0,0,1-3.73-9.54l-1.11.65c-.81,2.6-3.73,5.23-3.73,5.23a9.37,9.37,0,0,0,1.79,2.1,9.41,9.41,0,0,1-1.45.46l-1.12.64a7.85,7.85,0,0,0,.76,1.58,5.91,5.91,0,0,0-1.65.75h0l-.9.52h0a3.79,3.79,0,0,0-1.85,2.38,9,9,0,0,1,2.92,1.16,2.77,2.77,0,0,1-1,1.29,6.71,6.71,0,0,0-1.17.67c-.9.44-1.77.87-2,2.11,1.68,0,3.42,2.32,3.42,2.32a2,2,0,0,1-.53,1.08,3,3,0,0,1-.47.11,5,5,0,0,1-3-.4l-1.12.64a4.71,4.71,0,0,0,1.33,1.86,3.45,3.45,0,0,1-.28.23,6,6,0,0,1-4,.14l-1.11.64a10.84,10.84,0,0,0,3,3s-2,2.49-3,2.92c2.6,1.5,3.78.94,3.78.94a5.62,5.62,0,0,1-1,2,4,4,0,0,0,2.73.28,4.83,4.83,0,0,1-1.47,2.49,12.09,12.09,0,0,1-3.14.85l-1.11.64s4.11,3.56,7,3.29a4.1,4.1,0,0,1-.53.5,4.58,4.58,0,0,1-1.22.31l-1.11.64a17.85,17.85,0,0,0,4.91,2.2,9,9,0,0,0,2.93.28,4.77,4.77,0,0,1-.9,1.24,2,2,0,0,1-.41.08l-1.12.64c2.56,1.48,3.85,1.47,4.33,1.37l-.43,4.06a3.44,3.44,0,0,1-.7,1.84,2.67,2.67,0,0,1-1.74-.39L398,165.59l-1.12.65v10.37l19.91,11.49,1.12-.64V177.09l-4.46-2.57a8.54,8.54,0,0,1-3.55-6.19l-.23-2.48a16.46,16.46,0,0,0,3,2.19l1.12-.64a10,10,0,0,1-.9-1.3l.28.28a23.61,23.61,0,0,0,4.92,3.47l1.11-.64s-.42-.51-1-1.36a15.44,15.44,0,0,0,4,2Z" style="fill:#37474f"></path><path d="M398.43,155.4a4.41,4.41,0,0,1-2.86,1.45,17.85,17.85,0,0,0,4.91,2.2,9,9,0,0,0,2.93.28s-.87,1.9-2.43,2c2.56,1.48,3.85,1.47,4.33,1.37l-.43,4.06c-.24,2.23-1.76,3.13-3.55,2.09l-4.46-2.57v10.37l19.91,11.49V177.73l-4.45-2.57a8.49,8.49,0,0,1-3.55-6.19l-.43-4.55a14.22,14.22,0,0,0,4.32,3.62,15.86,15.86,0,0,1-2.43-4.77,28.58,28.58,0,0,0,2.93,3.11,23.61,23.61,0,0,0,4.92,3.47,21.5,21.5,0,0,1-2.86-4.75,15.43,15.43,0,0,0,7,4.76,53.84,53.84,0,0,1-3.24-4.62,17.09,17.09,0,0,1-2.49-6,12.94,12.94,0,0,0,2.74,2.87,17.86,17.86,0,0,1-1-3.11,11.39,11.39,0,0,0,3.79,3.43,63.7,63.7,0,0,1-3-6.43,4.67,4.67,0,0,0,3,.51,23.51,23.51,0,0,1-5.4-7.25,1.07,1.07,0,0,0,1.32-.33,12.62,12.62,0,0,1-3-3.07,9.06,9.06,0,0,1-2.12-4.27,3.84,3.84,0,0,1,3.42,1.63c-.51-3-3.3-5.56-4.17-8.89a15.16,15.16,0,0,1,2.93,2.23s-.44-3.36-4.74-8.75c.56.24,1.09-.7,1.09-.7a45,45,0,0,1-2.64-4.09,2.46,2.46,0,0,0,1.87,0,60.4,60.4,0,0,1-3.73-9.54c-.81,2.6-3.73,5.23-3.73,5.23A8.94,8.94,0,0,0,405,120.9a8.92,8.92,0,0,1-2.64,1,5.67,5.67,0,0,0,1.09,2c-4.3.42-4.73,3.27-4.73,3.27a9,9,0,0,1,2.92,1.16c-.87,2.32-3.65,1.66-4.17,4.07,1.68,0,3.42,2.32,3.42,2.32a2.21,2.21,0,0,1-2.11,1.84,5.08,5.08,0,0,1-3-.41,4.71,4.71,0,0,0,1.33,1.86,5.58,5.58,0,0,1-5.4,1,10.84,10.84,0,0,0,3,3s-2,2.49-3,2.92c2.6,1.5,3.78.94,3.78.94a5.62,5.62,0,0,1-1,2,4,4,0,0,0,2.73.28,4.46,4.46,0,0,1-2.49,3.1,11.76,11.76,0,0,1-3.23.88S395.57,155.67,398.43,155.4Z" style="fill:#455a64"></path><path d="M406.13,118.08a1.64,1.64,0,0,0,.7,1.33c.38.22.69,0,.69-.52a1.66,1.66,0,0,0-.69-1.33C406.44,117.33,406.13,117.57,406.13,118.08Z" style="fill:#263238"></path><path d="M417.51,101.91a18.83,18.83,0,0,1-1.77,5.8,21.38,21.38,0,0,1-3.51,5c-1.05,1.18-2.45,2.18-3.19,3.59-.14-.36-.27-.72-.39-1.07a18.19,18.19,0,0,1,2.52-2.67,20.36,20.36,0,0,0,5.63-10.9,11.33,11.33,0,0,0,0-3.94c-.4-2-2-4.68-4.32-4.45s-2.34,2.74-2.33,4.45c.05,4-2,7.34-3.63,10.88-.85,1.83-1.74,4-1.52,6a5.39,5.39,0,0,0,.41,1.54,5.68,5.68,0,0,0,.88,1.45,5.86,5.86,0,0,0,1.24,1.14.66.66,0,0,1,0,.14.49.49,0,0,1,0,.12,5.55,5.55,0,0,1-1.38-1,5.38,5.38,0,0,1-1.07-1.39,6.32,6.32,0,0,1-.57-1.54c-.49-2.32.49-4.77,1.45-6.84s2.08-4,2.83-6.15a12.56,12.56,0,0,0,.72-3.31,30.7,30.7,0,0,1,.12-3.32,3.07,3.07,0,0,1,3.46-2.79,5,5,0,0,1,3.86,3.2A12.06,12.06,0,0,1,417.51,101.91Z" style="fill:#e0e0e0"></path><polygon points="398.94 175.42 398.94 169.81 414.72 178.93 414.72 184.53 398.94 175.42" style="fill:#e0e0e0"></polygon></g></g></g></svg>
