<svg xmlns="http://www.w3.org/2000/svg" viewBox="0 0 500 500"><g id="freepik--Lines--inject-8"><g id="freepik--lines--inject-8"><path d="M431,376.1c-9.35,2.51-19.35,8.1-29.15,13.2-6.28,3.27-13.95,7.58-20.29,10.75a133.37,133.37,0,0,1-57.62,14.63c-19.17.5-38.23-2.32-57.28-4-12.63-1.1-25.37-1.66-38-.44a115.55,115.55,0,0,0-18.92,3.36c-5.21,1.39-9.81,1.47-14.48,4.8a19.3,19.3,0,0,0,6.39,6,4.83,4.83,0,0,0,1.65.67,5.53,5.53,0,0,0,2.4-.38c6.33-2,12.7-3.92,19.16-5.46,16.4-3.93,32-3.9,48.66-2.29,16.87,1.63,33.78,3.83,50.77,3.33a129.5,129.5,0,0,0,52.87-13.09c4.94-2.37,9.78-5,14.55-7.67,13.13-7.42,25.93-15.37,39.13-22.7a4.53,4.53,0,0,0,1.43-1.05C431.83,375.91,431.41,376,431,376.1Z" style="fill:#37474f"></path><path d="M316.26,355.33c1.71,1.22,3.51,2.32,5.31,3.41a21.44,21.44,0,0,0,4.1,2.1c3,1,6.29.69,9.45.33,12-1.36,24.2-2.75,35.62-6.94,10-3.67,19.35-9.3,28.51-14.69C408.7,334,418,328.19,427.7,323c16.81-9,34.5-15.59,53.32-17-.43-1.05-.89-2.1-1.37-3.14-19.67.09-38.24,7.87-55.36,16.92-8.77,4.63-17.31,9.68-25.93,14.58s-17.33,9.92-27,12.93a101.33,101.33,0,0,1-15.58,3.57c-13.6,2-27.35,1-41,1.4a1.18,1.18,0,0,0-.8.23c-.45.44.06,1.18.55,1.58S315.69,354.93,316.26,355.33Z" style="fill:#37474f"></path></g></g><g id="freepik--Streetlight--inject-8"><g id="freepik--street-light--inject-8"><path d="M52,337.53c-4.58-2.64-12-2.64-16.58,0-2.29,1.32-3.43,3.06-3.43,4.79s1.14,3.46,3.43,4.79c4.58,2.64,12,2.64,16.58,0,2.29-1.33,3.44-3.06,3.44-4.79S54.26,338.85,52,337.53Z" style="fill:#455a64"></path><path d="M55.41,342.32c0-1.73-1.15-3.47-3.44-4.79-4.58-2.64-12-2.64-16.58,0-2.29,1.32-3.43,3.06-3.43,4.79v2.83c0,1.73,1.14,3.46,3.43,4.78,4.58,2.65,12,2.65,16.58,0,2.29-1.32,3.44-3.05,3.44-4.78Z" style="fill:#263238"></path><path d="M52,337.53c-4.58-2.64-12-2.64-16.58,0-2.29,1.32-3.43,3.06-3.43,4.79s1.14,3.46,3.43,4.79c4.58,2.64,12,2.64,16.58,0,2.29-1.33,3.44-3.06,3.44-4.79S54.26,338.85,52,337.53Z" style="fill:#455a64"></path><path d="M35,276.21c0-1.29.85-2.57,2.54-3.55a13.56,13.56,0,0,1,12.28,0c1.7,1,2.55,2.26,2.55,3.55v65.3c0,1.28-.85,2.56-2.55,3.54a13.56,13.56,0,0,1-12.28,0c-1.69-1-2.54-2.26-2.54-3.54Z" style="fill:#37474f"></path><path d="M49.82,272.66a13.56,13.56,0,0,0-12.28,0c-1.69,1-2.54,2.26-2.54,3.55s.85,2.56,2.54,3.54a13.56,13.56,0,0,0,12.28,0c1.7-1,2.55-2.26,2.55-3.54S51.52,273.64,49.82,272.66Z" style="fill:#455a64"></path><path d="M76.27,70.76,44.87,276.82a.75.75,0,0,1-.53.49,2.25,2.25,0,0,1-2-.43.71.71,0,0,1-.28-.67L73.49,70.15a1.42,1.42,0,0,1,2.78.61Z" style="fill:#263238"></path><path d="M69.14,116.35l-2.52-.55c2.32-10.67,10.64-19.52,21.7-23.1,12.12-3.92,24.83-1,34.87,8l-1.71,1.92c-9.35-8.37-21.15-11.09-32.37-7.46C78.92,98.45,71.27,106.57,69.14,116.35Z" style="fill:#263238"></path><path d="M122,109.79l4.24,4.57c3.38,3.64,9.71,5.44,14.15,4,2.05-.65,3.23-1.77,3.52-3.08.1-.48.47-2.34.57-2.8.33-1.51-.52-3.26-2.64-4.85l-7.09-5.34c-4-3-9.66-4.62-12.72-3.64a2.81,2.81,0,0,0-2,2.12c-.11.48-.49,2.33-.6,2.78C119,105.22,119.9,107.52,122,109.79Z" style="fill:#263238"></path><path d="M122.05,98.67c-3.07,1-2.81,4.72.57,8.36l4.24,4.57c3.38,3.64,9.71,5.44,14.15,4s4.82-5,.85-8l-7.09-5.34C130.81,99.32,125.11,97.69,122.05,98.67Z" style="fill:#37474f"></path><path d="M121.19,101a1.68,1.68,0,0,1,1.22-1.17,9,9,0,0,1,4.27.08,20.14,20.14,0,0,1,7.36,3.37l7.08,5.34c1.61,1.21,2.42,2.51,2.23,3.58s-1.12,1.74-2.71,2.25a11.58,11.58,0,0,1-5.85.11,13.85,13.85,0,0,1-7-3.79l-4.24-4.57C121.77,104.32,120.86,102.28,121.19,101Z" style="fill:#455a64"></path></g></g><g id="freepik--Character--inject-8"><g id="freepik--Vehicle--inject-8"><path d="M138.67,264.2c-6.63,6.18-16.61,17.37,1.16,8.91S246.06,223.7,246.06,223.7l-3,48.34L153.94,320.4s-15-17.2-22.45-26.14a22.14,22.14,0,0,1-4.29-19.34Z"></path><path d="M131.77,269.46h0l-1,3.18c-2,3.23-6.2,7.2-7.59,6.76s-1.9-2.27-2.16-4.57v0a24,24,0,0,1-.12-3.31c.1-3.59,2.21-11.83,7.31-13.74a2.57,2.57,0,0,1,2.91.85,5.82,5.82,0,0,1,1.28,2.46C133.1,263.62,131.89,269.34,131.77,269.46Z" style="fill:#263238"></path><path d="M130.79,272.64c-2,3.23-6.2,7.2-7.59,6.76s-1.9-2.27-2.16-4.57v0a24,24,0,0,1-.12-3.31c.1-3.59,2.21-11.83,7.31-13.74a2.57,2.57,0,0,1,2.91.85l-.78,1.49c-3.56,1.27-4.83,6.57-4.77,10.66S128.67,274.62,130.79,272.64Z" style="fill:#455a64"></path><path d="M132.41,261.06c-1.17-1.41-4.28-1.67-7.12,1.77s-4.09,9.57-4.25,12a22.6,22.6,0,0,1-.13-3.32c.1-3.58,2.21-11.82,7.31-13.73C130.36,257,131.93,259.18,132.41,261.06Z" style="fill:#37474f"></path><path d="M332.24,263.44l-76.67-50.89h0a18.53,18.53,0,0,0-10.12,14.17l-3.7,24.48,76.67,50.89,11.77-5.85Z" style="fill:#37474f"></path><path d="M331.65,272.86,248.8,218.3a18.61,18.61,0,0,1,6.77-5.75l76.67,50.89Z" style="fill:#455a64"></path><path d="M330.19,296.24l2.05-32.8h0a18.53,18.53,0,0,0-10.13,14.16l-3.69,24.49Z" style="fill:#263238"></path><polygon points="322.12 277.6 318.43 302.09 298.89 311.8 238.64 271.82 245.45 226.72 322.12 277.6" style="fill:#37474f"></polygon><polygon points="240.8 270.75 156.64 312.58 216.88 352.56 301.05 310.73 240.8 270.75"></polygon><g id="freepik--codriver-seat--inject-8"><path d="M260.51,340l-9.65-.79-14.17-9.34a11.05,11.05,0,0,0-8.88-1l-18.32,6.92-12.2-1-.44,7.13h0a2.88,2.88,0,0,0,1.58,2.41l30.84,20.46a7.83,7.83,0,0,0,8.26-.14l20.88-14.89a3.56,3.56,0,0,0,1.63-2.64h0Z" style="fill:#37474f"></path><path d="M198.88,337.22l30.84,20.47a7.83,7.83,0,0,0,8.26-.14l20.87-14.89c2.26-1.61,2.21-4.15-.1-5.67l-21.62-14.24a11,11,0,0,0-8.88-1l-28.86,10.91C196.8,333.66,196.57,335.69,198.88,337.22Z" style="fill:#455a64"></path><path d="M260.51,340l-.44,7.12s0,0,0,0a3.53,3.53,0,0,1-1.64,2.65l-20.87,14.88a7.27,7.27,0,0,1-4,1.24l.45-7.13a7.24,7.24,0,0,0,4-1.24l20.88-14.89A3.59,3.59,0,0,0,260.51,340Z" style="fill:#263238"></path><path d="M263.73,338.1a1.8,1.8,0,0,1-.79,1.65L254.5,344h0a1.72,1.72,0,0,0,.81-1.65l.71-39.92a6.12,6.12,0,0,0-2.45-4.67l-18.51-12.28a2,2,0,0,0-2-.29h0l8.38-4.16h0a2.06,2.06,0,0,1,2.06.26L262,293.51a6.09,6.09,0,0,1,2.45,4.67Z" style="fill:#263238"></path><path d="M235.06,285.42l18.51,12.28a6.1,6.1,0,0,1,2.45,4.67l-.72,39.92c0,1.66-1.17,2.26-2.56,1.35L226.4,326.15a4.75,4.75,0,0,1-1.88-4.6l7.41-34.85A1.9,1.9,0,0,1,235.06,285.42Z" style="fill:#37474f"></path><path d="M263.76,295.58l-8.42,4.19a5.66,5.66,0,0,0-1.77-2.07l-18.51-12.28a2,2,0,0,0-2-.29h0l8.38-4.16h0a2.06,2.06,0,0,1,2.06.26L262,293.51A5.83,5.83,0,0,1,263.76,295.58Z" style="fill:#455a64"></path><path d="M260.76,289.58c.15-2.37.37-5.93.62-9.91.45-7.13-3.58-15.82-9-19.41-2.48-1.65-4.82-1.92-6.67-1.06v0l-6.42,3.22,2.42,5.43-.54,8.74a5.73,5.73,0,0,0,2.32,4.67l6,4,4.1,9.2,6.35-3.18h0A1.8,1.8,0,0,0,260.76,289.58Z" style="fill:#263238"></path><path d="M251.51,274.37l8.25-4.1c-1.6-4.18-4.25-7.94-7.37-10-2.48-1.65-4.82-1.92-6.67-1.06v0l-6.42,3.22,2.42,5.43-.1,1.72Z" style="fill:#455a64"></path><path d="M254.44,292.75c.15-2.37.37-5.93.62-9.91.45-7.13-3.58-15.82-9-19.41s-10.16-.72-10.6,6.41l-.62,9.9a5.73,5.73,0,0,0,2.32,4.67l14.58,9.68C253.13,295,254.34,294.41,254.44,292.75Z" style="fill:#37474f"></path><path d="M235.12,293.89a98.42,98.42,0,0,0-5.05,26.73,7,7,0,0,0,2.15,5A77,77,0,0,0,247,335.38a2,2,0,0,0,3-1.67,275.4,275.4,0,0,0,1.92-29.21,7.43,7.43,0,0,0-2.32-5,59.63,59.63,0,0,0-10.76-7.15A2.6,2.6,0,0,0,235.12,293.89Z" style="fill:#263238"></path><path d="M249.73,334.62a2.55,2.55,0,0,0,.26-.91,275.4,275.4,0,0,0,1.92-29.21,6.85,6.85,0,0,0-.68-2.7c-1-1.58-2.13,11.15-2.61,18.92s-.86,15.46.47,14.64l.15-.11A4.5,4.5,0,0,0,249.73,334.62Z" style="opacity:0.15"></path><g style="opacity:0.15"><path d="M231.89,320.08s.23.15.6.43.91.67,1.54,1.15c1.27.95,3,2.17,4.73,3.32s3.55,2.24,4.92,3c.68.39,1.25.75,1.66,1l.63.37-.71-.19c-.45-.15-1.09-.34-1.83-.64a24.48,24.48,0,0,1-2.5-1.12c-.44-.25-.91-.47-1.36-.75s-.91-.55-1.36-.84c-.89-.6-1.76-1.23-2.53-1.87a25.7,25.7,0,0,1-2-1.86c-.57-.56-1-1.09-1.31-1.44Z"></path><path d="M232.21,315.05s.22.15.59.43.91.67,1.55,1.15c1.27.94,3,2.17,4.72,3.32s3.55,2.24,4.92,3c.69.4,1.25.75,1.66,1l.63.38s-.26-.06-.71-.2-1.09-.33-1.83-.63a24.48,24.48,0,0,1-2.5-1.13c-.44-.24-.91-.46-1.36-.74l-1.36-.84a29.66,29.66,0,0,1-2.53-1.88,25.57,25.57,0,0,1-2-1.85c-.57-.57-1-1.09-1.3-1.44S232.21,315.05,232.21,315.05Z"></path><path d="M233.51,311s.21.14.55.4.85.61,1.43,1c1.18.87,2.75,2,4.39,3s3.32,2,4.6,2.68L246,319c.37.21.58.35.58.35s-.25-.05-.66-.17-1-.29-1.7-.54a25.11,25.11,0,0,1-2.34-1c-.41-.21-.85-.4-1.27-.65s-.86-.48-1.28-.74-.83-.54-1.23-.82-.77-.59-1.14-.87a21.78,21.78,0,0,1-1.87-1.72c-.51-.52-.91-1-1.18-1.33S233.51,311,233.51,311Z"></path><path d="M234.22,306.28s.2.13.54.38.82.59,1.38,1c1.14.83,2.66,1.9,4.25,2.86s3.23,1.85,4.47,2.54l1.49.86.56.34-.64-.16c-.39-.12-1-.27-1.65-.51s-1.45-.53-2.26-.9c-.41-.2-.83-.38-1.25-.61s-.83-.46-1.24-.7-.81-.52-1.2-.79-.75-.57-1.1-.84a18.88,18.88,0,0,1-1.8-1.66c-.51-.51-.88-1-1.15-1.3S234.22,306.28,234.22,306.28Z"></path><path d="M235.22,301.85l.51.35,1.3.95a47.38,47.38,0,0,0,4,2.65c1.5.88,3.08,1.67,4.25,2.31s1.93,1.13,1.93,1.13a21.53,21.53,0,0,1-2.16-.6,23.35,23.35,0,0,1-4.52-2c-.39-.23-.77-.47-1.14-.73s-.71-.52-1.05-.78a16.57,16.57,0,0,1-1.69-1.57A14.11,14.11,0,0,1,235.22,301.85Z"></path><path d="M237.15,297.64s.67.44,1.6,1.11,2.19,1.54,3.49,2.31,2.64,1.53,3.64,2.12,1.66,1,1.66,1a14.13,14.13,0,0,1-1.9-.5,20.12,20.12,0,0,1-3.92-1.78c-.33-.21-.67-.42-1-.65a10.85,10.85,0,0,1-.91-.69,14.18,14.18,0,0,1-1.46-1.4A11.84,11.84,0,0,1,237.15,297.64Z"></path></g><path d="M224.66,329.59c-5.1.59-10.25,2.85-15.43,6.26a2.22,2.22,0,0,0-.22,3.7,99,99,0,0,0,18.57,12.26A7.13,7.13,0,0,0,233,352a47.64,47.64,0,0,0,12-7.5,2.57,2.57,0,0,0-.12-4,81,81,0,0,0-14.56-9.8A12.07,12.07,0,0,0,224.66,329.59Z" style="fill:#263238"></path><g style="opacity:0.2"><path d="M211.81,337.87l.84.31c.53.21,1.29.49,2.18.9a47.1,47.1,0,0,1,6.28,3.43,43.89,43.89,0,0,1,5.66,4.39,32.11,32.11,0,0,1,2.28,2.32l-2.64-1.88c-1.58-1.12-3.69-2.59-5.85-4s-4.34-2.75-6-3.76l-2-1.24C212.08,338.06,211.81,337.87,211.81,337.87Z"></path><path d="M216.79,335.41s.31.1.84.3,1.29.5,2.18.9a46.15,46.15,0,0,1,6.28,3.44,43,43,0,0,1,5.66,4.38,32.11,32.11,0,0,1,2.28,2.32l-2.64-1.87c-1.58-1.13-3.69-2.6-5.85-4s-4.34-2.76-6-3.77l-2-1.23Z"></path><path d="M221.07,333.32s.31.1.84.3,1.29.5,2.18.9a46.75,46.75,0,0,1,6.28,3.44,43.89,43.89,0,0,1,5.66,4.38,32.11,32.11,0,0,1,2.28,2.32l-2.64-1.87c-1.58-1.13-3.69-2.59-5.85-4s-4.34-2.76-6-3.77c-.82-.51-1.51-.94-2-1.23Z"></path><path d="M225.69,331.67s.29.09.78.27,1.19.45,2,.82a42,42,0,0,1,5.77,3.14,39,39,0,0,1,5.19,4c1.3,1.24,2.07,2.15,2.07,2.15s-.25-.16-.67-.46l-1.77-1.24c-1.45-1-3.39-2.36-5.37-3.64s-4-2.54-5.49-3.48l-1.83-1.14Z"></path></g></g><g id="freepik--codriver-seat--inject-8"><path d="M214.46,309.38l-9.65-.79-14.17-9.34a11,11,0,0,0-8.88-1l-18.32,6.92-12.19-1-.45,7.13h0a2.85,2.85,0,0,0,1.58,2.41l30.84,20.46a7.83,7.83,0,0,0,8.26-.14l20.87-14.89a3.53,3.53,0,0,0,1.63-2.64h0Z" style="fill:#37474f"></path><path d="M152.83,306.59l30.84,20.47a7.83,7.83,0,0,0,8.26-.14L212.81,312c2.25-1.61,2.2-4.15-.11-5.67l-21.61-14.24a11.09,11.09,0,0,0-8.88-1l-28.86,10.92C150.76,303,150.53,305.06,152.83,306.59Z" style="fill:#455a64"></path><path d="M214.47,309.39l-.45,7.12h0a3.54,3.54,0,0,1-1.63,2.65l-20.87,14.88a7.3,7.3,0,0,1-4,1.24l.44-7.13a7.27,7.27,0,0,0,4-1.24L212.8,312A3.57,3.57,0,0,0,214.47,309.39Z" style="fill:#263238"></path><path d="M217.68,307.47a1.79,1.79,0,0,1-.78,1.65l-8.45,4.19h0a1.69,1.69,0,0,0,.8-1.64l.71-39.92a6.07,6.07,0,0,0-2.45-4.67L189,254.79a2.07,2.07,0,0,0-2-.29h0l8.37-4.16h0a2.08,2.08,0,0,1,2.07.26l18.49,12.28a6.06,6.06,0,0,1,2.45,4.67Z" style="fill:#263238"></path><path d="M189,254.79l18.5,12.28a6.07,6.07,0,0,1,2.45,4.67l-.71,39.92c0,1.66-1.18,2.26-2.56,1.34l-26.34-17.48a4.73,4.73,0,0,1-1.88-4.6l7.41-34.85A1.9,1.9,0,0,1,189,254.79Z" style="fill:#37474f"></path><path d="M217.71,265l-8.42,4.19a5.57,5.57,0,0,0-1.77-2.07L189,254.79a2.07,2.07,0,0,0-2-.29h0l8.37-4.16h0a2.08,2.08,0,0,1,2.07.26l18.49,12.28A5.65,5.65,0,0,1,217.71,265Z" style="fill:#455a64"></path><path d="M214.72,259c.15-2.37.37-5.93.62-9.91.44-7.13-3.58-15.82-9-19.41-2.49-1.65-4.83-1.92-6.68-1.06v0l-6.42,3.22,2.42,5.43-.55,8.74a5.79,5.79,0,0,0,2.32,4.67l6,4,4.09,9.2,6.35-3.18h0A1.82,1.82,0,0,0,214.72,259Z" style="fill:#263238"></path><path d="M205.46,243.74l8.26-4.1c-1.61-4.18-4.26-7.94-7.37-10-2.49-1.65-4.83-1.92-6.68-1.06v0l-6.42,3.22,2.42,5.43-.11,1.72Z" style="fill:#455a64"></path><path d="M208.4,262.12c.15-2.37.37-5.93.62-9.91.44-7.13-3.58-15.82-9-19.41s-10.16-.73-10.61,6.41l-.62,9.9a5.79,5.79,0,0,0,2.32,4.67l14.59,9.68C207.09,264.38,208.3,263.78,208.4,262.12Z" style="fill:#37474f"></path><path d="M189.07,263.26A98.42,98.42,0,0,0,184,290a6.93,6.93,0,0,0,2.14,5,77,77,0,0,0,14.75,9.76,2,2,0,0,0,3-1.67,275.33,275.33,0,0,0,1.91-29.21,7.42,7.42,0,0,0-2.31-5,60,60,0,0,0-10.76-7.15A2.61,2.61,0,0,0,189.07,263.26Z" style="fill:#263238"></path><path d="M203.68,304a2.64,2.64,0,0,0,.27-.9,275.33,275.33,0,0,0,1.91-29.21,6.83,6.83,0,0,0-.67-2.7c-1-1.58-2.14,11.14-2.62,18.92s-.86,15.46.47,14.64a.91.91,0,0,0,.16-.11A4.19,4.19,0,0,0,203.68,304Z" style="opacity:0.15"></path><g style="opacity:0.15"><path d="M185.85,289.45s.22.15.59.43.91.67,1.55,1.15c1.27,1,3,2.17,4.72,3.32s3.55,2.24,4.92,3c.69.39,1.25.74,1.66,1s.63.37.63.37l-.71-.19c-.44-.15-1.08-.34-1.83-.64a26.6,26.6,0,0,1-2.5-1.12c-.44-.25-.91-.47-1.36-.75l-1.36-.84c-.88-.6-1.75-1.23-2.53-1.88a25.57,25.57,0,0,1-2-1.85c-.57-.56-1-1.09-1.3-1.44S185.85,289.45,185.85,289.45Z"></path><path d="M186.16,284.42s.23.15.6.43.91.67,1.54,1.15c1.27.94,3,2.17,4.73,3.32s3.54,2.24,4.92,3c.68.4,1.25.75,1.66,1l.63.38s-.26-.06-.71-.2-1.09-.33-1.84-.63a24.48,24.48,0,0,1-2.5-1.13c-.44-.24-.9-.46-1.35-.74s-.91-.56-1.36-.84c-.89-.61-1.76-1.23-2.53-1.88a23.92,23.92,0,0,1-2-1.85c-.57-.57-1-1.09-1.31-1.44Z"></path><path d="M187.46,280.32l.56.4c.33.26.84.61,1.43,1,1.17.87,2.75,2,4.38,3s3.33,2,4.6,2.68l1.54.89c.37.21.58.35.58.35s-.24-.05-.66-.17-1-.29-1.7-.54a23.94,23.94,0,0,1-2.33-1c-.42-.21-.86-.4-1.28-.65s-.85-.48-1.28-.74-.83-.54-1.22-.82-.78-.59-1.14-.87a20.38,20.38,0,0,1-1.87-1.72c-.52-.52-.91-1-1.19-1.33Z"></path><path d="M188.18,275.65s.2.13.53.38.82.59,1.39,1c1.14.83,2.66,1.9,4.24,2.86s3.24,1.85,4.47,2.54l1.49.86c.36.2.57.34.57.34l-.64-.16c-.4-.12-1-.27-1.65-.51s-1.45-.53-2.27-.9c-.4-.2-.83-.38-1.24-.61s-.83-.46-1.25-.7-.81-.52-1.19-.79-.75-.57-1.11-.84a20.18,20.18,0,0,1-1.8-1.66c-.5-.51-.88-1-1.14-1.3S188.18,275.65,188.18,275.65Z"></path><path d="M189.17,271.22l.51.35,1.31.95a45.81,45.81,0,0,0,4,2.65c1.5.88,3.08,1.67,4.25,2.31s1.93,1.13,1.93,1.13-.89-.19-2.16-.6a23.15,23.15,0,0,1-4.53-2c-.38-.23-.77-.47-1.14-.73s-.71-.52-1-.78a18,18,0,0,1-1.7-1.57A15.37,15.37,0,0,1,189.17,271.22Z"></path><path d="M191.11,267s.66.44,1.6,1.11,2.18,1.54,3.48,2.31,2.64,1.53,3.64,2.12,1.66,1,1.66,1a13.82,13.82,0,0,1-1.89-.5,19.6,19.6,0,0,1-3.92-1.78c-.34-.21-.67-.42-1-.65s-.62-.46-.9-.69a12.39,12.39,0,0,1-1.46-1.4A11.84,11.84,0,0,1,191.11,267Z"></path></g><path d="M178.62,299c-5.1.59-10.25,2.85-15.44,6.26a2.22,2.22,0,0,0-.22,3.7,99.08,99.08,0,0,0,18.58,12.26,7.18,7.18,0,0,0,5.46.19,47.64,47.64,0,0,0,12-7.5,2.57,2.57,0,0,0-.12-4,81.38,81.38,0,0,0-14.56-9.8A12.1,12.1,0,0,0,178.62,299Z" style="fill:#263238"></path><g style="opacity:0.2"><path d="M165.77,307.24l.84.31c.52.21,1.29.49,2.18.9a47.73,47.73,0,0,1,6.28,3.43,43.89,43.89,0,0,1,5.66,4.39,32.11,32.11,0,0,1,2.28,2.32l-2.65-1.88c-1.57-1.12-3.69-2.59-5.84-4s-4.35-2.75-6-3.76l-2-1.24C166,307.43,165.77,307.24,165.77,307.24Z"></path><path d="M170.75,304.78s.31.1.84.3,1.29.5,2.18.9a46.75,46.75,0,0,1,6.28,3.44,43,43,0,0,1,5.66,4.38,32.11,32.11,0,0,1,2.28,2.32l-2.65-1.87c-1.57-1.13-3.69-2.6-5.84-4s-4.35-2.76-6-3.77l-2-1.23Z"></path><path d="M175,302.69l.85.3c.52.21,1.29.5,2.18.9a46.09,46.09,0,0,1,6.27,3.44,41.73,41.73,0,0,1,5.66,4.38,32.11,32.11,0,0,1,2.28,2.32l-2.64-1.87c-1.57-1.13-3.69-2.59-5.84-4s-4.35-2.76-6-3.77l-2-1.23Z"></path><path d="M179.65,301l.77.27c.49.19,1.2.45,2,.82a42.34,42.34,0,0,1,5.77,3.13,38.54,38.54,0,0,1,5.19,4c1.31,1.24,2.08,2.15,2.08,2.15l-.68-.46L193,309.75c-1.45-1-3.4-2.36-5.37-3.65s-4-2.53-5.5-3.47l-1.82-1.14Z"></path></g></g><g id="freepik--character--inject-8"><g id="freepik--Bottom--inject-8"><path d="M215.36,322.56c-4.48,2.36-8,4.39-13.82,7.8-6.33,3.7-11.56,6.8-13.67,10.27-1.87,3.1-2.06,7.41-.36,12.78s11.41,24,11.41,24l7.6-6.41s-1.29-11.78-2.43-15.09a8.81,8.81,0,0,0-1.85-3.45l20-6.23,5.16-10.16C226.74,330.28,220.87,324.48,215.36,322.56Z" style="fill:#263238"></path><path d="M247.72,330.05a80.45,80.45,0,0,1-1.32,11.43c-.94,4.12-2.25,7.9-9.14,12.27-6.61,4.19-23.27,10.19-24.09,11.51a27.11,27.11,0,0,1-3.69,11.11c-3.35,5.69-7.24,12.33-7.24,12.33-3.87.4-8.67-1.09-10.63-3.16,0,0,2.34-9.29,4.08-15.46,3-10.57,3.49-15.74,5.92-18.15s15.56-11.86,15.56-11.86-2-1.38-2.89-8.66a39.45,39.45,0,0,1,.57-9S235.8,332,247.72,330.05Z" style="fill:#263238"></path></g><g id="freepik--Top--inject-8"><g id="freepik--Arn--inject-8"><path d="M204.52,296.26c-1.34-2.1-5.41-7.58-6.18-10.15s-1.16-3.24-1.65-4.7a4.19,4.19,0,0,0-1.52-2.5,13,13,0,0,1-1.6-1.87,9.2,9.2,0,0,1-.94-2.27c-.7-.44-1.24,1-1.07,2.06a5,5,0,0,1-.19,3.31c-.6,1.4-2.1,5.06-2.1,5.06s1.49,1.43,2.25,2.05,1.41,1.72,2.3,4.9,2.23,7,2.86,8.51a14.57,14.57,0,0,0,3.55,5.28c.77.61,1.73.92,8.14-1,4.13-1.23,12.84-4.08,12.84-4.08,3.51-2.62,7.82-10.2,6.88-12.32-6.54-.71-8.39,1.12-11.48,2.47-1.19.52-3.09,1.1-5.23,2C208,294.41,204.52,296.26,204.52,296.26Z" style="fill:#ffa8a7"></path><path d="M204.52,296.26a7.41,7.41,0,0,0-3.93,5c-.86-2.37,1.5-5,3.43-5.77Z" style="fill:#f28f8f"></path><path d="M227,288c-4-.16-3.51-.75-10.48,2.3s-8,3.6-8,3.6c-1.23,4.26-.33,7.71,2.25,10.52l15.23-4.34Z" style="fill:#860065"></path><path d="M193.08,283.66a3.58,3.58,0,0,1,1.69,2.21,3.29,3.29,0,0,0-1.47-2.59Z" style="fill:#f28f8f"></path><path d="M194.79,287.72a4.3,4.3,0,0,1-1.17.53,1.59,1.59,0,0,1-1.64-.54,4.47,4.47,0,0,1,.6,1h0a.86.86,0,0,0,.9.16C194.14,288.66,194.79,287.72,194.79,287.72Z" style="fill:#f28f8f"></path><path d="M191.86,287.57l0,0h0Z" style="fill:#ffa8a7"></path><path d="M188.37,272.2c-.18.64.08,1.16.48,2.1a2.77,2.77,0,0,1-.13,2.27,29,29,0,0,1-2.15,3.88,5.67,5.67,0,0,1-.86.81,2,2,0,0,0,.42,1.22c.46.6,1.29,1.46,1.29,1.46s2.56-3.65,2.84-6.08S190,274.23,188.37,272.2Z" style="fill:#f28f8f"></path><g id="freepik--Beer--inject-8"><g id="freepik--Beers--inject-8"><g id="freepik--beer-bottle--inject-8"><path d="M184.49,287.39c0-.08,4.24-11.89,4.54-12.72s1.61-1.63,2.11-2a6.51,6.51,0,0,0,1.49-2.51c.72-1.57,1.86-2.79,2.39-3.92a.46.46,0,0,1,0-.48c.15-.24.49-.24.51-.31a1.93,1.93,0,0,1,1.3.11,1.91,1.91,0,0,1,1.07.74c0,.07.24.27.2.56a.3.3,0,0,1,0,.1.47.47,0,0,1-.28.27c-.3,1.21-.19,2.88-.63,4.55a6.38,6.38,0,0,0-.43,2.88c.15.61.66,2.06.37,2.9s-4.54,12.73-4.54,12.73h0c-.18.5-.75.86-1.68,1a7.83,7.83,0,0,1-5.71-2A1.83,1.83,0,0,1,184.49,287.39Z" style="fill:#37474f"></path><path d="M195.51,266.18c-.22-.23-.3-.45-.23-.62h0c.12-.05.24-.07.25-.11a1.93,1.93,0,0,1,1.3.11,1.91,1.91,0,0,1,1.07.74s.07.12.13.24h0c-.06.18-.26.3-.58.33A2.66,2.66,0,0,1,195.51,266.18Z" style="fill:#263238"></path><path d="M194.78,266.68a4.92,4.92,0,0,0,.24-.45,1,1,0,0,0,.22.3,3,3,0,0,0,2.2.79,1.1,1.1,0,0,0,.36-.1c0,.16-.07.33-.1.5l0,0a1.15,1.15,0,0,1-.43.13,3,3,0,0,1-2.2-.79A1.09,1.09,0,0,1,194.78,266.68Z" style="fill:#263238"></path><path d="M195.34,265.37a1.35,1.35,0,0,1,.52-.8h0l.05,0,.13,0h0a.57.57,0,0,1,.15,0,2.49,2.49,0,0,1,1.78.63.94.94,0,0,1,.09.12h0l.07.11,0,.06h0a1.41,1.41,0,0,1-.11,1c-.06.17-.25.29-.57.33a2.62,2.62,0,0,1-1.94-.7A.61.61,0,0,1,195.34,265.37Z" style="fill:#37474f"></path><path d="M197.69,266c.57-.07.71-.45.31-.87a2.49,2.49,0,0,0-1.78-.63c-.58.06-.72.45-.31.86A2.42,2.42,0,0,0,197.69,266Z" style="fill:#455a64"></path><path d="M197.48,265.74c.41,0,.51-.32.22-.61a1.75,1.75,0,0,0-1.27-.46c-.41.05-.51.33-.22.62A1.7,1.7,0,0,0,197.48,265.74Z" style="fill:#263238"></path><path d="M189.49,274.83l-4.5,12.6c-.13.38.07.88.58,1.39a6.45,6.45,0,0,0,2.44,1.46,6.53,6.53,0,0,0,2.82.42c.72-.08,1.19-.34,1.33-.72l4.49-12.6a4.62,4.62,0,0,0-.28-2.29c0-.15-.08-.29-.1-.39a4.2,4.2,0,0,1,.23-2.33l.21-.74v0a.83.83,0,0,0,0-.15,1,1,0,0,0-.34-.69,3.53,3.53,0,0,0-2.56-.91,1,1,0,0,0-.7.33l-.05.12,0,0c-.1.22-.21.46-.31.7a4.15,4.15,0,0,1-1.29,1.95,3.66,3.66,0,0,1-.33.23C190.61,273.61,189.69,274.25,189.49,274.83Z" style="fill:#860065"></path><path d="M189.49,274.83l-4.5,12.6c-.13.38.07.88.58,1.39a6.45,6.45,0,0,0,2.44,1.46,6.53,6.53,0,0,0,2.82.42c.72-.08,1.19-.34,1.33-.72l4.49-12.6a4.62,4.62,0,0,0-.28-2.29c0-.15-.08-.29-.1-.39a4.2,4.2,0,0,1,.23-2.33l.21-.74v0a.83.83,0,0,0,0-.15,1,1,0,0,0-.34-.69,3.53,3.53,0,0,0-2.56-.91,1,1,0,0,0-.7.33l-.05.12,0,0c-.1.22-.21.46-.31.7a4.15,4.15,0,0,1-1.29,1.95,3.66,3.66,0,0,1-.33.23C190.61,273.61,189.69,274.25,189.49,274.83Z" style="opacity:0.2"></path><path d="M190.68,290.6c1.61-.18,2-1.25.86-2.4a6.76,6.76,0,0,0-4.94-1.76c-1.6.17-2,1.25-.86,2.4A6.76,6.76,0,0,0,190.68,290.6Z" style="opacity:0.1"></path><path d="M193.1,270.3a.84.84,0,0,0,.31.8A3.55,3.55,0,0,0,196,272c.4-.05.66-.2.74-.41a.83.83,0,0,0,0-.15,1,1,0,0,0-.34-.69,3.53,3.53,0,0,0-2.56-.91,1,1,0,0,0-.7.33A.61.61,0,0,0,193.1,270.3Z" style="fill:#860065"></path><path d="M193.1,270.3a.84.84,0,0,0,.31.8A3.55,3.55,0,0,0,196,272c.4-.05.66-.2.74-.41a.83.83,0,0,0,0-.15,1,1,0,0,0-.34-.69,3.53,3.53,0,0,0-2.56-.91,1,1,0,0,0-.7.33A.61.61,0,0,0,193.1,270.3Z" style="opacity:0.4"></path><path d="M187.15,290.52a6.74,6.74,0,0,0,1.17.17,4.39,4.39,0,0,0,1.81-.2,1.38,1.38,0,0,0,.86-.78L195.53,277a6.9,6.9,0,0,0,0-2.77c-.13-1,.45-1.86.75-3,.38-1.47.55-2.76.8-3.87a.28.28,0,0,0,.1-.44.71.71,0,0,0-.24-.23.49.49,0,0,0,.26-.72c1.05,0,1.27-.68.2-1.25a2.27,2.27,0,0,1,.64.41.94.94,0,0,1,.09.12h0l.07.11,0,.06h0a1.41,1.41,0,0,1-.11,1,.26.26,0,0,1-.08.13.54.54,0,0,1,.09.36.3.3,0,0,1,0,.1.47.47,0,0,1-.28.27c-.3,1.21-.19,2.88-.63,4.55a6.38,6.38,0,0,0-.43,2.88c.15.61.66,2.06.37,2.9s-4.54,12.73-4.54,12.73h0c-.18.5-.75.86-1.68,1A7.52,7.52,0,0,1,187.15,290.52Z" style="opacity:0.2"></path><path d="M195.11,265.72c.06-.05,0,.34.34.66a3.37,3.37,0,0,0,1.51.86,3.65,3.65,0,0,1-1.51-.66C194.93,266.1,195,265.83,195.11,265.72Z" style="fill:#fafafa;opacity:0.1"></path><path d="M196,264.53a.88.88,0,0,0-.46.47,1.14,1.14,0,0,0-.18.57c0,.15.33.62,1.18.94-.54-.41-.91-.72-1-1A1.05,1.05,0,0,1,196,264.53Z" style="fill:#fafafa;opacity:0.1"></path><path d="M189.79,274.94l-4.54,12.73c-.1.28.09.68.51,1.11a6.17,6.17,0,0,0,2.3,1.37c-2.45-1.17-1.94-2.24-1.53-3.4l3.61-10.13c.86-2.4,1.8-2.27,2.62-3.09s1-2.59,1.74-4c.51-.93.89-1.43,1.19-2l-.36-.21c-.19.3-.4.62-.62.94a14.44,14.44,0,0,0-1.33,2.2c-.09.18-.16.35-.24.52a5.2,5.2,0,0,1-1.44,2.22l-.34.24C190.88,273.79,190,274.43,189.79,274.94Z" style="fill:#fafafa;opacity:0.2"></path></g></g></g><path d="M188.87,275.09l.29.15,0,0a5,5,0,0,1,1.23.84c.14.14.24.31.38.46a1.88,1.88,0,0,1,.39.5,8.25,8.25,0,0,1,.47,1.61c.09.35.35.86,0,1.13a2.33,2.33,0,0,1-1,.23c0,.28.12.53.11.81a1.22,1.22,0,0,1-.2.66,1.14,1.14,0,0,1-1.5.13,1.28,1.28,0,0,1-.71,1,1.22,1.22,0,0,1-.94,0,4.19,4.19,0,0,1-1-.57C187.37,279.33,188.46,276.25,188.87,275.09Z" style="opacity:0.2"></path><path d="M189.71,273.75a12.74,12.74,0,0,1,1.16-.9c.13.72.15,1.54-.64,1.65a.48.48,0,0,1-.37-.09A3.31,3.31,0,0,0,189.71,273.75Z" style="opacity:0.2"></path><path d="M188.45,272c-.31.67,0,1,.28,1.58s1.1,1.22,1.54.92.47-1.05.14-1.92-.61-1.23-.91-1.24A1.4,1.4,0,0,0,188.45,272Z" style="fill:#ffa8a7"></path><path d="M190.24,280.62a.76.76,0,0,1-.78.55,1.24,1.24,0,0,1-.71-.2c0,.47-.07,1-.55,1.18-.88.41-1.63-1.16-2.47-.62a4.1,4.1,0,0,1-.1-.69,1.91,1.91,0,0,1,.05-.48,2.32,2.32,0,0,1,.13-.37l.08-.16a3.65,3.65,0,0,1,.39-.49c.13-.17.08-.37.07-.57a1.3,1.3,0,0,1,.15-.72c.23-.43.75-.7.72-1.23a4.72,4.72,0,0,0-.19-.67,1.89,1.89,0,0,1,.41-1.5c.3-.33,1.08,0,1.42.17a7.06,7.06,0,0,1,1,.54,2.36,2.36,0,0,1,1,.81,7.67,7.67,0,0,1,.59,2c.08.3.14.58-.08.81a1,1,0,0,1-.75.34,1.46,1.46,0,0,1-.58-.18C190.15,279.72,190.39,280.12,190.24,280.62Z" style="fill:#ffa8a7"></path><path d="M190,279.1c-.16-.27-.29-.56-.42-.84a7.87,7.87,0,0,0-.39-.83,1,1,0,0,0-.64-.54,2.45,2.45,0,0,0-.9-.05,1.76,1.76,0,0,1,.94-.09.94.94,0,0,1,.46.2,1.66,1.66,0,0,1,.32.38,5,5,0,0,1,.36.87Z" style="fill:#f28f8f"></path><path d="M188.75,281c-.13-.21-.24-.44-.36-.65a1.68,1.68,0,0,0-.42-.56,1.5,1.5,0,0,0-.62-.3l-.71-.2a3.16,3.16,0,0,1,.75.05,1.38,1.38,0,0,1,.72.3,1.48,1.48,0,0,1,.25.3,1.8,1.8,0,0,1,.17.34A6.59,6.59,0,0,1,188.75,281Z" style="fill:#f28f8f"></path><path d="M195.94,276.14c.17.14.08.91.26,1.89a17.17,17.17,0,0,0,1.22,2.47c.64,1.62.4,3.07.92,5.61l-3.8-1.34a8,8,0,0,0,.12-2.9c0-.52-.22-1.27-.28-1.64a8.91,8.91,0,0,1-.18-2.43C194.32,276.46,195.31,275.62,195.94,276.14Z" style="fill:#ffa8a7"></path></g><g id="freepik--Chest--inject-8"><path d="M236.51,288.57c3.75.52,9.36,3.94,13.41,6.51,2.69,2.4,2.14,10.18,1.24,16.07-1.48,9.84-1.64,12-3.06,21.1-.81,5.48-1,6.93-1,6.93-11.51,1.12-27.35-3.93-32.21-16.81,0,0,2.61-5.82,5.43-22.81,1.44-8.66,5.49-10.56,7.46-11.53C230.14,287.61,233.64,288.18,236.51,288.57Z" style="fill:#fafafa"></path></g><g id="freepik--Head--inject-8"><path d="M243.05,286.13c.52-2.43,3.06-4.87,4.25-6.95a10.36,10.36,0,0,0,1.82-5.5c0-1.15-.68-2.73-1.51-3.09a5.31,5.31,0,0,0-3.61-6.8,17.33,17.33,0,0,1-2.31-.76c-.9-.42-1.08-1.17-1.79-1.83-1.15-1.08-3.44-1.31-4.22.34a4.54,4.54,0,0,0-2.87-1,3.06,3.06,0,0,0-1.91.58,1.85,1.85,0,0,0-.72,1.79,3.69,3.69,0,0,0-3.66,1.06,3.18,3.18,0,0,0-.32,3.71,2.55,2.55,0,0,0-.91,2.63,2.52,2.52,0,0,0,2.12,1.8c-.25,0,.18,1.6.26,1.73a3.5,3.5,0,0,0,1.36,1.34,24.65,24.65,0,0,0,5.67,1.8l2.28.58c.13,0,.83.1.9.23Z" style="fill:#263238"></path><path d="M246.15,283.1a2.38,2.38,0,0,1-2.88-.21l-.44,8.59c-2.14,2.9-6.63,3-8.94,2.32-3-.9-2.2-3.18-.74-4.33v-1.41a19.05,19.05,0,0,1-2.56-.24,6,6,0,0,1-4.07-4.08,20.64,20.64,0,0,1,.13-8.23,7.08,7.08,0,0,0,.19-2,9.64,9.64,0,0,1,.79-4.29c2.18-1.6,7.72-1.76,12.14,1.21-.64,2.68-.33,4.66,1.59,5.78-.12.72-.29,2.56.91,2.58.86,0,1-1.07,1.9-2s3-1.08,3.75.36A4.67,4.67,0,0,1,246.15,283.1Z" style="fill:#ffa8a7"></path><path d="M239.64,278.27a1.93,1.93,0,1,1-1.81-2.06A1.95,1.95,0,0,1,239.64,278.27Z" style="fill:#f28f8f"></path><path d="M228.71,277.47a1.92,1.92,0,0,0-1.81-2.05.87.87,0,0,0-.23,0s0,.06,0,.08a22,22,0,0,0-.46,3.68,1.86,1.86,0,0,0,.47.09A1.92,1.92,0,0,0,228.71,277.47Z" style="fill:#f28f8f"></path><path d="M233.15,288.06c3-.22,5.37-.45,7-2.58a13.08,13.08,0,0,0,1.74-3.41,11.37,11.37,0,0,1-1.25,4.34c-.83,1.37-2.79,2.46-7.57,2.66Z" style="fill:#f28f8f"></path><path d="M235.13,276.43c0,.51.44-.09.94-.08s.84.64.86.13a.9.9,0,1,0-1.8-.05Z" style="fill:#263238"></path><path d="M227.92,275.91c-.11.5.45,0,.93.1s.71.8.82.29a.9.9,0,0,0-.66-1.1A.92.92,0,0,0,227.92,275.91Z" style="fill:#263238"></path><path d="M235.93,273.32l1.76,1.13a1.1,1.1,0,0,0-.33-1.48A1,1,0,0,0,235.93,273.32Z" style="fill:#263238"></path><path d="M227.9,273.63l2-.66a1,1,0,0,0-1.29-.69A1.1,1.1,0,0,0,227.9,273.63Z" style="fill:#263238"></path><path d="M229.4,279.2l2.91,1.44,1.17-5.79C232.39,274.41,230.86,277,229.4,279.2Z" style="fill:#f28f8f"></path><path d="M235.25,281.81l-3.61.61a1.79,1.79,0,0,0,2.07,1.55A1.92,1.92,0,0,0,235.25,281.81Z" style="fill:#b16668"></path><path d="M234.79,282.37a2.13,2.13,0,0,1,.44,0,1.88,1.88,0,0,1-1.52,1.58,1.4,1.4,0,1,1,1.08-1.6Z" style="fill:#f28f8f"></path></g></g><path d="M256.12,346.42c1-2.81,1.74-2.61-.82-4.11-3.42-2-7-4-7.61-3.22a22.57,22.57,0,0,0-2.39,5.64c-.36,1.47,4.89,3,7.15,3.54C255.67,349.06,255.52,348.14,256.12,346.42Z" style="fill:#860065"></path><path d="M229,287.5c-2.45,9.12-6.17,38.22,20,52.7l-2.2,4.61s-16.61-3.75-25.33-9.56-9.08-12.18-9.08-12.18l2.55-2.27s2.64,11.15,26,18.42C228.49,331,218.8,311,225.23,287.44Z"></path><g id="freepik--arm-with-steering-wheel--inject-8"><path d="M192.53,317l0-.2a9.84,9.84,0,0,1,.58-2.95,5.1,5.1,0,0,1,1.24-2,3.48,3.48,0,0,1,.88-.63,3.9,3.9,0,0,1,2-.35,8.42,8.42,0,0,1,4.09,1.56,22.86,22.86,0,0,1,7.86,10.38c.3.72.54,1.43.77,2.14a22,22,0,0,1,.82,4.11l4.37,2.88v-.14c.51-8.29-4.5-18.4-11.43-23a12.8,12.8,0,0,0-6.22-2.29,8.07,8.07,0,0,0-4.18.82c-2.5,1.24-4.17,3.69-4.83,7Z" style="fill:#455a64"></path><path d="M197.89,320.58l6.89,4.55.82.55a5.39,5.39,0,0,0-.08-.56,9.2,9.2,0,0,0-.69-2.16,8.45,8.45,0,0,0-2.86-3.57,3,3,0,0,0-2.69-.54A2.34,2.34,0,0,0,197.89,320.58Z" style="fill:#455a64"></path><path d="M191.44,311.49l1.69,2.4,4.69,6.64.05.09a0,0,0,0,1,0,0l6.89,4.55h.74L210,325l2-.05,0-2.17-2.69.08-4.35.11-2.6.07-2.95-4.18-4.91-7-1.17-1.65Z" style="fill:#455a64"></path></g><path d="M225.89,335c-1.17,0-4.92.82-6.35.75-5-3.49-12-8.57-12-8.57a6.28,6.28,0,0,1,1-2.3c.54-.43,1-.87,1-.87l.43,1.32a3.41,3.41,0,0,0,2.59,1.45,4.09,4.09,0,0,0,2.1-.54l-.6-2.42,2.31.71c1.38.41,3.43,2.14,4.4,2.38a8.59,8.59,0,0,0,3.77-.05c3.09-.68,15.84-4,15.84-4s2.43-13.64,3.07-16.41,2.41-8.6,6.51-11c3.13,2.28,4.91,4.39,4.73,9.93s-2.27,14.85-2.92,17.82-1.86,7.11-2.59,8.27-4.65,1.61-9.09,2S225.89,335,225.89,335Z" style="fill:#ffa8a7"></path><path d="M252.94,319.69c.58-2.82,1.17-6,1.68-9.17,1.31-8.16,1.38-11.33-4.7-15.44-5.6,2-7.19,14.17-7.19,14.17l-1.38,7.53A12.88,12.88,0,0,0,252.94,319.69Z" style="fill:#860065"></path><path d="M222,278.63a1.73,1.73,0,1,1,1.83-1.62A1.74,1.74,0,0,1,222,278.63Zm.2-3.13a1.41,1.41,0,1,0,1.31,1.49A1.41,1.41,0,0,0,222.22,275.5Z" style="fill:#f0f0f0"></path><path d="M214.45,284.5a2.72,2.72,0,1,1,2.88-2.55A2.72,2.72,0,0,1,214.45,284.5Zm.31-5.11a2.4,2.4,0,1,0,2.25,2.54A2.39,2.39,0,0,0,214.76,279.39Z" style="fill:#f0f0f0"></path><path d="M221.58,284.41a1.15,1.15,0,1,1,1.22-1.08A1.16,1.16,0,0,1,221.58,284.41Zm.12-2a.83.83,0,1,0,.78.87A.83.83,0,0,0,221.7,282.44Z" style="fill:#f0f0f0"></path></g><path d="M181.77,308.8c-24.31-16.29-54.51-33.87-54.57-33.88L124.91,277a14.94,14.94,0,0,0-2.1,2.42c.52,5.62,3.06,10.79,4.89,14.38a81.25,81.25,0,0,0,18.84,24.07c11.73,10,22.15,15.08,36.64,22.09,17.47,8.45,40.32,5.58,44.24,1.47C227.42,341.43,201.1,321.76,181.77,308.8Z" style="fill:#455a64"></path><path d="M227.42,341.43c-1-.71-32.38-20.75-47.65-31.28-14.54-10-49-33.16-52.57-35.23,3.14,1.21,30.26,17.59,54.57,33.88C201.1,321.76,219.12,334.4,227.42,341.43Z" style="fill:#37474f"></path><path d="M125.73,286.43a257.4,257.4,0,0,0,34.12,27.13c12.73,8.44,28.37,17.07,39.83,23.11a34.54,34.54,0,0,0,31.42.36l9.2-4.58,17.12-55a25.32,25.32,0,0,1-4.08-.06c-10.08-.93-28.78-13.33-44.14-23.53s-37.36-24.81-29.29-31l-2.32,1.83C153.82,243.58,126,276.24,124.91,277l-.66.74A7.41,7.41,0,0,0,125.73,286.43Z" style="fill:#fff;opacity:0.1"></path><path d="M160.46,265.05c13-13.53,21.89-22.43,26.55-27.07a43.86,43.86,0,0,1-6.51-6.56c-4.46,4.37-13.48,13.37-27.17,27.73-12.6,13.21-21.32,23.05-26.15,28.64,1.86,1.73,4.16,3.82,6.87,6.15C138.83,288.34,147.67,278.31,160.46,265.05Z" style="fill:#fff;opacity:0.2"></path><path d="M177.75,277.29c12.82-13.28,21.59-22.11,26.31-26.82-4-2.7-8.19-5.58-12-8.45-4.74,4.66-13.44,13.4-26.21,26.78-13.18,13.82-22.1,23.94-26.78,29.38,3.41,2.8,7.27,5.81,11.5,8.91C155.15,301.69,164.25,291.29,177.75,277.29Z" style="fill:#fff;opacity:0.2"></path><path d="M179.91,223c-7.25,4.33-49.06,44.6-55.66,54.79l4.39-2.12c1.68-2.29,16-17.43,26.08-27.16,13.25-12.81,22.58-21.37,24.79-22.77Z"></path><path d="M326.23,284.8l-85.92,47.64,17.11-54.95c8.44-.5,7.12-.24,20.81-7.05l24.47-12.17a9.91,9.91,0,0,1,9.9.63l14.1,15.49A6.08,6.08,0,0,1,326.23,284.8Z" style="fill:#fff;opacity:0.30000000000000004"></path><g id="freepik--vehicle--inject-8"><polygon points="356.28 328.32 326.8 309.2 344.36 300.47 357.43 309.17 356.28 328.32" style="fill:#263238"></polygon><path d="M227.57,392.25l1.2-19.13-13.07-8.71-17.56,8.73,10.94,11.6,18.26,12.12.28-4.57Z" style="fill:#263238"></path><path d="M215.26,387.5l4.93-8.43-10.05-6.69h0c-3.2-2.11-7.63-2.17-12.65.33-10.67,5.3-20,20.11-20.78,33.08-.42,6.79,1.57,11.73,5.09,14.13h0l.14.1h0l10.3,6.84,5.2-8.89C206.62,411.83,214.2,399,215.26,387.5Z" style="fill:#37474f"></path><path d="M215.26,387.5l4.93-8.43-10.05-6.69h0c-3.2-2.11-7.63-2.17-12.65.33-10.67,5.3-20,20.11-20.78,33.08-.42,6.79,1.57,11.73,5.09,14.13h0l.14.1h0l10.3,6.84,5.2-8.89C206.62,411.83,214.2,399,215.26,387.5Z" style="fill:#263238"></path><path d="M225.79,393.53c-.69,11.18-7.71,23.73-16.47,30.37l0,0a27.94,27.94,0,0,1-4.27,2.67c-10.67,5.31-18.67-.91-17.85-13.88.61-9.8,6.07-20.66,13.3-27.66a.34.34,0,0,0,.06-.06,30.17,30.17,0,0,1,7.42-5.36C218.61,374.35,226.6,380.56,225.79,393.53Z" style="fill:#37474f"></path><path d="M207.46,387.47c6.79-3.37,11.85.9,11.31,9.55s-6.48,18.39-13.27,21.76-11.85-.9-11.31-9.54S200.67,390.85,207.46,387.47Z" style="fill:#455a64"></path><path d="M212,401.07c-.72,4.27-3.77,8.66-6.81,9.79a2.87,2.87,0,0,1-3.21-.47c-1-.95-1.4-2.81-1-5.2.72-4.28,3.76-8.66,6.81-9.8a3.31,3.31,0,0,1,2.19-.14h0C211.65,395.77,212.51,398,212,401.07Z" style="fill:#fafafa"></path><path d="M211,400.45c-.72,4.27-3.77,8.66-6.81,9.79a3.38,3.38,0,0,1-2.19.15c-1-.95-1.4-2.81-1-5.2.72-4.28,3.76-8.66,6.81-9.8a3.31,3.31,0,0,1,2.19-.14h0C211,396.21,211.37,398.06,211,400.45Z" style="fill:#e0e0e0"></path><path d="M225.79,393.53c-.69,11.18-7.71,23.73-16.47,30.37a52.87,52.87,0,0,0,13.25-22.14c2.05-7.38,2.13-18.14-4.12-21.26s-15.08,2.08-17.92,4.51a30.17,30.17,0,0,1,7.42-5.36C218.61,374.35,226.6,380.56,225.79,393.53Z" style="fill:#455a64"></path><path d="M343.92,323.55l4.93-8.43-10.05-6.68h0c-3.2-2.11-7.63-2.17-12.65.33-10.67,5.3-20,20.11-20.78,33.08-.42,6.79,1.57,11.72,5.09,14.13l10.46,6.95,5.2-8.89C335.28,347.88,342.86,335.1,343.92,323.55Z" style="fill:#37474f"></path><path d="M343.92,323.55l4.93-8.43-10.05-6.68h0c-3.2-2.11-7.63-2.17-12.65.33-10.67,5.3-20,20.11-20.78,33.08-.42,6.79,1.57,11.72,5.09,14.13l10.46,6.95,5.2-8.89C335.28,347.88,342.86,335.1,343.92,323.55Z" style="fill:#263238"></path><path d="M354.45,329.58c-.69,11.19-7.71,23.74-16.47,30.38l0,0a27.25,27.25,0,0,1-4.27,2.68C323,368,315,361.75,315.83,348.79c.61-9.8,6.07-20.66,13.3-27.66a.34.34,0,0,0,.06-.06,30.21,30.21,0,0,1,7.42-5.37C347.27,310.41,355.26,316.62,354.45,329.58Z" style="fill:#37474f"></path><path d="M336.12,323.53c6.79-3.37,11.85.9,11.31,9.55s-6.48,18.39-13.27,21.76-11.85-.9-11.31-9.54S329.33,326.91,336.12,323.53Z" style="fill:#455a64"></path><path d="M340.65,337.13c-.72,4.27-3.77,8.66-6.81,9.79a2.9,2.9,0,0,1-3.21-.47c-1-1-1.4-2.81-1-5.21.72-4.27,3.76-8.66,6.81-9.79a3.38,3.38,0,0,1,2.19-.15h0C340.31,331.83,341.17,334,340.65,337.13Z" style="fill:#fafafa"></path><path d="M339.63,336.51c-.72,4.27-3.77,8.65-6.81,9.79a3.38,3.38,0,0,1-2.19.15c-1-1-1.4-2.81-1-5.21.72-4.27,3.76-8.66,6.81-9.79a3.38,3.38,0,0,1,2.19-.15h0C339.61,332.27,340,334.12,339.63,336.51Z" style="fill:#e0e0e0"></path><path d="M354.45,329.58c-.69,11.19-7.71,23.74-16.47,30.38a52.87,52.87,0,0,0,13.25-22.14c2-7.38,2.13-18.15-4.12-21.26s-15.08,2.08-17.92,4.51a30.21,30.21,0,0,1,7.42-5.37C347.27,310.41,355.26,316.62,354.45,329.58Z" style="fill:#455a64"></path><path d="M83.76,332.68c5.88,7.59,13.11,13.63,21.09,18.93C151,382.2,173.5,371,215.7,350c40.92-20.35,87-51.31,90.74-53.67l-50.93,27.87a6.77,6.77,0,0,1-9.62-8.14l11.54-38.59c2.39-6.61,5.71-7.91,10.44-10.25,9.1-4.48,24.67-11.57,48.71-23.52,20.78-10.31,30.66-15.06,33.24-20v-.24c0-.21,0-.41.05-.61,0-.46,0-.92,0-1.41-.1-4.11-2.23-9.2-26.84-26.25-13.91-9.62-26.26-14.66-37.74-15.38s-21.62,2.75-33.24,8.19c-14.61,6.81-64,28.74-72.18,35s13.92,20.75,29.29,31,34.06,22.6,44.14,23.53a25.32,25.32,0,0,0,4.08.06l-17.12,55L231.1,337a34.54,34.54,0,0,1-31.42-.36c-11.46-6-27.1-14.67-39.83-23.11a257.4,257.4,0,0,1-34.12-27.13,7.41,7.41,0,0,1-1.48-8.69l.66-.74c-4.16,2.82-14,8.46-15.18,9.19-8.54,5.2-17.41,11.25-23,19.77C82,313.16,78,325.21,83.76,332.68Z" style="fill:#455a64"></path><path d="M68.26,360.27c2.72,13.8,18.32,28.18,30.06,35.83,17.73,11.56,37.13,21.11,58.51,20.57,7.88-.19,15.8-1.52,22.68-5.55,3.31-1.94,3.55-3.38,4.79-7a54.64,54.64,0,0,1,5.56-11.49,46.33,46.33,0,0,1,14.46-14.85c.72-.44,1.44-.84,2.17-1.2,11.76-5.86,20.78,0,21.17,13.11,0,.82,0,1.67,0,2.56,10.67-5.32,77.8-38.69,82.89-41.23,0,0,.07-1,.62-4a50.47,50.47,0,0,1,1.32-5.4,55.86,55.86,0,0,1,6.05-13c3.93-6.19,9-11.53,14.47-14.85.72-.44,1.45-.83,2.17-1.18,11.76-5.85,20.79,0,21.16,13.09a24.13,24.13,0,0,1,0,2.54L361,326c11.18-5.56,12-16.2,12.42-23.94v0c0-1.38.07-3,.13-4.65,0-.22,0-.44,0-.67.13-3.92.3-8.46.36-12.93,0-1.55,0-3.09,0-4.63l0-2.07c-.05-1.74-.12-3.4-.23-4.95-.45-6-1.56-8.66-2.88-10.24a12.47,12.47,0,0,0-2.36-2.07,21.52,21.52,0,0,0-1.78-1.21c-.51-.31-1-.59-1.44-.83.48.95.87,1.7,1.11,2.2l-7.71,6.42c-4.92,4.09-12.1,4.15-17.77,1.14a14.68,14.68,0,0,1-1.53-.91l-13.33-15a3.14,3.14,0,0,1,.18-5.34L328.4,245l1-.61,1.05-.64c3.58-2.14,6.53-4,10.37-6.35,7.36-4.45,8.45-6.8,8.79-10.49.09-.85.12-1.77.18-2.8s.14-1.79.12-2.71c-.51,6-9.42,10.48-33.36,22.37s-39.6,19-48.71,23.52c-4.74,2.35-8.06,3.63-10.45,10.24,8.44-.5,7.12-.25,20.81-7.05l24.47-12.16a9.88,9.88,0,0,1,9.9.62l14.1,15.49a6.08,6.08,0,0,1-.47,10.41L241.12,332l65.32-35.64c-3.74,2.36-49.82,33.33-90.74,53.67-42.2,21-64.73,32.18-110.85,1.58-4.6-3.05-9-6.09-12.36-10.42a25.34,25.34,0,0,1-5.07-14.47c-.31-6.11,1.11-12.19,3-18,1.51-4.65,3.7-10.1,6.77-13.91a106.27,106.27,0,0,0-14,11.39c-.59.59-1.17,1.18-1.73,1.79a49.51,49.51,0,0,0-11.8,21.84C67,340.63,65.87,348.15,68.26,360.27Z" style="fill:#37474f"></path><path d="M260.18,199.62l8.6-4.45c2.84-1.53,5.71-3,8.54-4.57-2.95,1.31-5.87,2.7-8.8,4.05l-8.75,4.16c-5.82,2.79-9,4.36-14.73,7.32s-11.47,5.94-17.14,9c5.89-2.66,11.72-5.43,17.55-8.22S254.44,202.58,260.18,199.62Zm54.45,25.63-8.75,4.16c-5.82,2.79-9,4.36-14.73,7.32s-11.47,5.94-17.14,9c5.89-2.66,11.72-5.43,17.54-8.22s9-4.36,14.73-7.32l8.6-4.45c2.85-1.53,5.72-3,8.55-4.57C320.48,222.51,317.56,223.9,314.63,225.25ZM274,208.8l8.6-4.45c2.85-1.53,5.71-3,8.54-4.57-2.95,1.31-5.86,2.7-8.8,4.05L273.61,208c-5.83,2.79-9,4.36-14.73,7.32s-11.47,5.94-17.15,9c5.89-2.66,11.72-5.43,17.55-8.22S268.27,211.76,274,208.8ZM292.45,221l8.6-4.45c2.85-1.53,5.71-3,8.54-4.57-2.95,1.31-5.86,2.7-8.8,4l-8.74,4.16c-5.82,2.79-9,4.36-14.73,7.32s-11.47,5.94-17.14,9c5.89-2.66,11.72-5.43,17.54-8.22S286.71,224,292.45,221Z" style="fill:#263238"></path><path d="M176.33,331a137.26,137.26,0,0,0-13.71,5.6c-4.46,2.1-8.87,4.32-13.11,6.85a80.57,80.57,0,0,0-9.24,5.82c-4.07,2.79-7.91,5.91-11.76,9l2.71-2.55c.91-.84,1.8-1.7,2.76-2.48,1.91-1.58,3.81-3.18,5.82-4.64a69.67,69.67,0,0,1,9.19-6.09,129,129,0,0,1,13.3-6.67c2.28-1,4.6-1.87,6.93-2.72S173.92,331.6,176.33,331Z" style="fill:#37474f"></path><path d="M141.09,305.5c-4.15,2.47-8.18,5.11-12.13,7.85s-7.85,5.57-11.6,8.59a101.57,101.57,0,0,0-8,6.51c-3.64,3.16-7.07,6.54-10.54,9.89,1.59-1.81,3.18-3.63,4.85-5.38s3.37-3.46,5.14-5.11a84.38,84.38,0,0,1,7.88-6.74c3.82-3,7.74-5.8,11.8-8.43q3-2,6.18-3.79C136.8,307.71,138.9,306.52,141.09,305.5Z" style="fill:#37474f"></path><path d="M325.94,251.62l13.33,15c5.86,3.89,13.92,4.24,19.3-.23l7.71-6.42c-1.79-3.6-10.16-26.47-16.65-33.11-.18,2.79-1.58,5.45-4.91,7.73-5.1,3.49-12.72,8.33-18.6,11.7A3.14,3.14,0,0,0,325.94,251.62Z"></path><path d="M223.39,350.63l-7,3.86a1.08,1.08,0,0,0-.55.83l-.36,3.34a.66.66,0,0,0,1,.66l7-3.79a1.09,1.09,0,0,0,.56-.84l.38-3.41A.66.66,0,0,0,223.39,350.63Z" style="fill:#860065"></path><path d="M227.62,392.29l-.28,4.57,82.89-41.22.29-4.58Z" style="fill:#37474f"></path><g style="opacity:0.2"><path d="M285.35,361.45h0a.45.45,0,0,1-.39-.49c0-.29,3.46-29.68,3.91-50.65a.44.44,0,0,1,.45-.44h0a.43.43,0,0,1,.41.45c-.45,21-3.87,50.44-3.91,50.73A.43.43,0,0,1,285.35,361.45Z"></path></g><path d="M334,303.71c-6.26,1.92-11.81,5.89-16.36,10.55a54.42,54.42,0,0,0-11,16.61c-1.48,3.46-3,7.22-3.27,11,0,.35.52.7.69.29.65-1.61,1.12-3.29,1.66-4.95s1.12-3.19,1.77-4.75a58,58,0,0,1,4.7-9.06,50.53,50.53,0,0,1,13-13.86,65.68,65.68,0,0,1,9-5.29C334.36,304.12,334.2,303.63,334,303.71Z" style="opacity:0.2"></path><path d="M253.34,277.43a19.44,19.44,0,0,1-3.26-.61c.49,2.35-.81,11.2-2.54,16.59-2.89,9-11.08,30.84-13.33,36.71s-8.07,8.72-12.27,9.93a34.23,34.23,0,0,0,9.16-3l9.21-4.58,17.11-54.95A26.53,26.53,0,0,1,253.34,277.43Z"></path><path d="M283.3,308.85l8.31-4.5-1.92-39.61-5.81,2.89Z"></path><path d="M371.13,276.9a11.36,11.36,0,0,0,2.73.16c-.05-1.74-.12-3.4-.23-4.95-.45-6-1.56-8.66-2.88-10.24a2.61,2.61,0,0,1-.2.17,28.19,28.19,0,0,0-6.84,7.48,5.72,5.72,0,0,0-.59,1.59C362.32,275.12,368.37,276.4,371.13,276.9Z" style="fill:#860065"></path><path d="M93.38,337.7a236.15,236.15,0,0,0,40.84,27c2.15,1.14,3.09,3.85,1.54,5.72A25.93,25.93,0,0,1,127.3,377c-2.2,1-6,.43-8.23-.57Q100.44,368,88.38,356.28c-1.74-1.69-3.68-5-3.61-7.47a31.51,31.51,0,0,1,2.29-11C88.08,335.58,91.51,336.14,93.38,337.7Z" style="fill:#263238"></path><path d="M123.81,374.9a11.43,11.43,0,0,1-3.65-.85C108.06,368.57,98,362,90.22,354.39c-1.49-1.45-2.86-4.12-2.82-5.5a29.38,29.38,0,0,1,2-9.9c.48-.83,1.79.32,2.29.73A240.16,240.16,0,0,0,133,367.05a1.7,1.7,0,0,1,.88,1.1.65.65,0,0,1-.14.6,23.4,23.4,0,0,1-7.55,5.88A5.45,5.45,0,0,1,123.81,374.9Z"></path><path d="M103.82,366.47l-2.52-.77a65.87,65.87,0,0,1,7-14.9l2.2,1.44A65,65,0,0,0,103.82,366.47Z" style="fill:#263238"></path><path d="M87.79,344.45l-.29.33c.07.07,7.66,6.55,17.43,13.41a190.27,190.27,0,0,0,25.47,14.62l.16-.41a190.17,190.17,0,0,1-25.38-14.56C95.43,351,87.86,344.51,87.79,344.45Zm-.31,1.89-.28.33c.06.06,7,6.09,16.74,12.95A184.9,184.9,0,0,0,129,374l.16-.41a182.93,182.93,0,0,1-25-14.29C94.45,352.41,87.55,346.4,87.48,346.34Zm-.6,3.77-.29.32a161.51,161.51,0,0,0,15.38,12,169.48,169.48,0,0,0,24.26,13.8l.17-.4a168.43,168.43,0,0,1-24.17-13.76A163.54,163.54,0,0,1,86.88,350.11Zm.3-1.89-.29.33A189.75,189.75,0,0,0,103,361a176,176,0,0,0,24.66,14.07l.17-.4a176,176,0,0,1-24.58-14A192.08,192.08,0,0,1,87.18,348.22Zm.91-5.66-.29.34c.09.07,8.34,7,18.11,13.87a202.29,202.29,0,0,0,25.87,14.88l.17-.4a201.8,201.8,0,0,1-25.78-14.84C96.41,349.57,88.17,342.63,88.09,342.56Zm20,11c-9.75-6.85-19.35-14.7-19.44-14.78l-.28.34c.1.08,9.7,7.94,19.47,14.8a218.64,218.64,0,0,0,26.68,15.42l.17-.41A219.08,219.08,0,0,1,108.13,353.57ZM88.39,340.68l-.28.33c.09.08,9,7.48,18.79,14.34a211.27,211.27,0,0,0,26.27,15.15l.17-.41A210.91,210.91,0,0,1,107.15,355C97.4,348.14,88.48,340.75,88.39,340.68Z" style="fill:#263238"></path><path d="M100.68,373.64c13.15,7.93,30.17,18.84,49.63,19.71s38-10.88,38-10.88A63.12,63.12,0,0,1,150.27,396c-22.87.23-36.82-10.06-50.31-18.47-14-8.73-25.5-24.76-27-34C75.42,350.82,87.54,365.72,100.68,373.64Z" style="fill:#263238"></path><path d="M124.25,403.79c-12.23-4.53-20.82-10.48-29.17-16.72S81.47,375.26,78.6,370.72c-2.7-4.29-4-9.62-2.15-8.68,3,3.2,9.44,10,13.68,13.26,12.68,9.74,26,21.53,48.13,24.35a19.09,19.09,0,0,1,4.23.8C147.73,402.67,132.57,406.86,124.25,403.79Z" style="fill:#263238"></path><path d="M171.76,397.2c-1.23-.28-4.4.27-9.78,1.32s-6.68,1.07-8.74,2.24c-1.75,1-6.47,4.19-8.69,5.1-3.52,1.44-.23,3,9.16,3.83s12.86-1.7,15.28-4.4S174.55,397.84,171.76,397.2Z" style="fill:#37474f"></path><path d="M70.09,358a9.67,9.67,0,0,0,3,2c1.62,0,.49-2.86-.29-7.09S69,344.1,68.17,341A64.09,64.09,0,0,0,70.09,358Z" style="fill:#37474f"></path><path d="M147.35,373a13.91,13.91,0,0,0-8,1.77c-2.66,1.65-7.33,5.63-4.69,9.11a8.35,8.35,0,0,0,4.64,2.58A32.08,32.08,0,0,0,157,386a26.56,26.56,0,0,0,10.21-5.61,6.92,6.92,0,0,0,2-2.7,2.91,2.91,0,0,0-.63-3.13,6,6,0,0,0-3.69-.95l-9.31-.19C152.84,373.33,150.1,373.08,147.35,373Z" style="fill:#fafafa"></path><path d="M156.41,386.15a16.45,16.45,0,0,0,.82-12.3,3.16,3.16,0,0,0-.16-.43l7.86.16a6,6,0,0,1,3.69.95,2.91,2.91,0,0,1,.63,3.13,6.92,6.92,0,0,1-2,2.7A26.56,26.56,0,0,1,157,386C156.82,386,156.61,386.09,156.41,386.15Z" style="fill:#860065"></path><path d="M83.68,327.4a32.62,32.62,0,0,1-3,15.05,2,2,0,0,1-.58.78c-2.64,1.84-5.07-9.69-5.16-11-.32-4.62,1.54-11.37,4.14-16,1.11-2,2.34-2.72,3.06-.2a46.48,46.48,0,0,1,1.31,7.78C83.57,325,83.65,326.19,83.68,327.4Z" style="fill:#fafafa"></path><path d="M79.07,316.21c1.11-2,2.34-2.72,3.06-.2a32.84,32.84,0,0,1,.84,4,15.74,15.74,0,0,0-6.75,6.07c-.4.66-.74,1.35-1.09,2A36.23,36.23,0,0,1,79.07,316.21Z" style="fill:#860065"></path><path d="M253,337.39c-2.07,7.49-10.58,8.57-16.87,8a19.31,19.31,0,0,1-6.85-1.62c-2.35-1.56-1-4.4.36-6,2.39-2.72,12.65-7.84,18.88-7.65C252.15,330.2,254.43,332.13,253,337.39Z" style="fill:#263238"></path><path d="M253,337.39c-2.07,7.49-10.58,8.57-16.87,8a19.31,19.31,0,0,1-6.85-1.62c-2.35-1.56-1-4.4.36-6-1.37,2.24,5,4.08,10.95,2.37s10.5-5.92,7.93-10C252.15,330.2,254.43,332.13,253,337.39Z" style="fill:#455a64"></path><path d="M253,337.39c-2.07,7.49-10.58,8.57-16.87,8,6.28.21,11.51-3.09,13.64-6.92s.94-7.72-1.25-8.36C252.15,330.2,254.43,332.13,253,337.39Z" style="fill:#37474f"></path><path d="M374.51,306.6a8.2,8.2,0,0,1-1.93,3.9c-2.69,3.26-1.35,2.08-11.07,6.92l-.8,12.7,6.73-3.34C372.79,324.12,373.8,318,374.51,306.6Z" style="fill:#263238"></path><path d="M373.38,302a9.58,9.58,0,0,1-.35,2.15c-.49,2.07-1.95,4.4-7.71,7.25s-7.27,3.65-7.27,3.65l3.46,2.35c9.72-4.84,8.38-3.66,11.07-6.92a8.2,8.2,0,0,0,1.93-3.9C374.65,304.4,374.51,303.06,373.38,302Z" style="fill:#455a64"></path><polygon points="358.05 315.07 357.26 327.83 360.71 330.12 361.51 317.42 358.05 315.07" style="fill:#37474f"></polygon></g></g></g></svg>
