<svg xmlns="http://www.w3.org/2000/svg" viewBox="0 0 500 500"><g id="freepik--background-simple--inject-798"><path d="M256,92.35c-74.48,33.51-6.87,93.23-49.87,125.75S46.23,213,90.8,297.48c52.35,99.2,281.6,85.43,331-36.25S330.48,58.85,256,92.35Z" style="fill:#860065"></path><path d="M256,92.35c-74.48,33.51-6.87,93.23-49.87,125.75S46.23,213,90.8,297.48c52.35,99.2,281.6,85.43,331-36.25S330.48,58.85,256,92.35Z" style="fill:#fff;opacity:0.9"></path></g><g id="freepik--Shadow--inject-798"><ellipse id="freepik--path--inject-798" cx="250" cy="416.24" rx="193.89" ry="11.32" style="fill:#f5f5f5"></ellipse></g><g id="freepik--Trees--inject-798"><path d="M269.22,387.12s16.66-14.66,11.67-17.14-11.06,11.08-11.67,9,3.26-20.65-6-19.36,0,19.36,0,19.36-6.85-7.41-9.25-6.25,7.29,14.35,7.29,14.35Z" style="fill:#860065"></path><path d="M85.46,380.9s14.12-12.44,9.89-14.54S86,375.75,85.46,374s2.76-17.52-5.08-16.42,0,16.42,0,16.42-5.81-6.28-7.85-5.3,6.19,12.18,6.19,12.18Z" style="fill:#860065"></path><path d="M301.5,382.89s-10.87-21.21-8.14-23.29,8.14,17.72,8.14,16.18-.3-28.51,4.72-27.44,0,25.9,0,25.9,6.76-12.69,9.41-11.73-7.81,16.05-7.81,16.05,6.24-3.78,7.81-3.48-7.81,7.81-7.81,7.81Z" style="fill:#860065"></path><path d="M110.85,138.22c18.37-1.74,19.36,12.67,28.54,12.2s18.71-1.45,22.27,8.79-2.23,12.23,3.24,21,10,14.61,4.07,22.5-11.49,6.68-15.14,16.68-16.09,14.7-24.18,9.49-11.49-7.53-17.4-3.16-7.31,10.4-17.75,9.82-9.17-6.06-18-11.85-13.6-5.49-18.34-15.56-2.46-18.6,6.31-25.64,3.09-19.92,8.2-27.57,12.06-3.83,20.42-5.57S100.07,139.24,110.85,138.22Z" style="fill:#860065"></path><path d="M110.85,138.22c18.37-1.74,19.36,12.67,28.54,12.2s18.71-1.45,22.27,8.79-2.23,12.23,3.24,21,10,14.61,4.07,22.5-11.49,6.68-15.14,16.68-16.09,14.7-24.18,9.49-11.49-7.53-17.4-3.16-7.31,10.4-17.75,9.82-9.17-6.06-18-11.85-13.6-5.49-18.34-15.56-2.46-18.6,6.31-25.64,3.09-19.92,8.2-27.57,12.06-3.83,20.42-5.57S100.07,139.24,110.85,138.22Z" style="fill:#fafafa;opacity:0.7000000000000001"></path><path d="M111.68,247.34c0-11.26-33.07-47.71-33.07-47.71l1.46-3.45,17.17,18.37L93,183.84l2.78-2.6,6.63,36.44s9.8,10.12,12,15c0,0,5-14.48,18.47-31.14l-2.33-21.74,2.33-2.13L137.2,199l16.17-15.15,2.55,3.32s-15.09,15-23.06,23.63-8.32,18-8.32,28.71V381.87H111.68Z" style="fill:#860065"></path><path d="M111.68,247.34c0-11.26-33.07-47.71-33.07-47.71l1.46-3.45,17.17,18.37L93,183.84l2.78-2.6,6.63,36.44s9.8,10.12,12,15c0,0,5-14.48,18.47-31.14l-2.33-21.74,2.33-2.13L137.2,199l16.17-15.15,2.55,3.32s-15.09,15-23.06,23.63-8.32,18-8.32,28.71V381.87H111.68Z" style="fill:#fff;isolation:isolate;opacity:0.8"></path><path d="M97.78,381.87c-.14-1.69.09-3.87,2.06-4.52,3.33-1.1,5.31-3.68,5.19-6.6s3.4-5.76,6-3,2.28-2.11,5.79-3.28,6.48,1.67,5.52,4.28,2.5,4.24,6.65,2,8.71,1.82,7.83,5-.16,3.51,2.46,2.46c2.12-.85,5.59.93,6,3.69Z" style="fill:#860065"></path><path d="M97.78,381.87c-.14-1.69.09-3.87,2.06-4.52,3.33-1.1,5.31-3.68,5.19-6.6s3.4-5.76,6-3,2.28-2.11,5.79-3.28,6.48,1.67,5.52,4.28,2.5,4.24,6.65,2,8.71,1.82,7.83,5-.16,3.51,2.46,2.46c2.12-.85,5.59.93,6,3.69Z" style="fill:#fafafa;opacity:0.6000000000000001"></path><path d="M235.72,271.72,232.5,281l-15.35,4.68,9.43,93.62H192.75c.81-9.22,4.65-52.77,5.43-65.53L182.6,284.2h3.11l.65,1a47.8,47.8,0,0,0,8.71,10.31,21.13,21.13,0,0,0,4.09,3c1.46-4.12,4.05-58.71,4.05-58.71s3.2,7.79,13.21,3.11l.91,34.87,10-2L237,256.55h3.88l-3.49,8.28,8.16-1.77,7-9,2.45.6-6.33,9.72Z" style="fill:#860065"></path><g style="isolation:isolate;opacity:0.8"><path d="M235.72,271.72,232.5,281l-15.35,4.68,9.43,93.62H192.75c.81-9.22,4.65-52.77,5.43-65.53L182.6,284.2h3.11l.65,1a47.8,47.8,0,0,0,8.71,10.31,21.13,21.13,0,0,0,4.09,3c1.46-4.12,4.05-58.71,4.05-58.71s3.2,7.79,13.21,3.11l.91,34.87,10-2L237,256.55h3.88l-3.49,8.28,8.16-1.77,7-9,2.45.6-6.33,9.72Z" style="fill:#fff"></path></g><path d="M159.69,221.4a13,13,0,0,0-8.27,12.35,14.21,14.21,0,0,0,8.64,12.31,15.66,15.66,0,0,0,15.06-2c.22,5.09,3.7,10.62,8.55,12.16a12.84,12.84,0,0,0,13.68-4.29c13.07,8.21,58.84,11.26,66.89-23.72,1.66-7.22-2.36-14.87-8.26-19.36s-13.4-6.33-20.75-7.23c-7-11.12-22.46-17.19-35.47-15.45a35.25,35.25,0,0,0-28.38,24.16C158.11,210.37,159.49,222.28,159.69,221.4Z" style="fill:#860065"></path><path d="M175.84,290.21a7,7,0,0,0,12.52-2c3.1,2.18,7.89,1.64,11-.48a9.41,9.41,0,0,0-4-17.12,11.22,11.22,0,0,0-5.27-8.55,12.18,12.18,0,0,0-10.45-1.1,12.75,12.75,0,0,0-11.12,3.56,10.1,10.1,0,0,0-3.26,7.84,7,7,0,0,0,5.25,6.27,8.58,8.58,0,0,0-.3,6.82C171.1,287.67,173.61,289.38,175.84,290.21Z" style="fill:#860065"></path><g style="opacity:0.6000000000000001"><path d="M159.69,221.4a13,13,0,0,0-8.27,12.35,14.21,14.21,0,0,0,8.64,12.31,15.66,15.66,0,0,0,15.06-2c.22,5.09,3.7,10.62,8.55,12.16a12.84,12.84,0,0,0,13.68-4.29c13.07,8.21,58.84,11.26,66.89-23.72,1.66-7.22-2.36-14.87-8.26-19.36s-13.4-6.33-20.75-7.23c-7-11.12-22.46-17.19-35.47-15.45a35.25,35.25,0,0,0-28.38,24.16C158.11,210.37,159.49,222.28,159.69,221.4Z" style="fill:#fafafa"></path></g><path d="M175.84,290.21a7,7,0,0,0,12.52-2c3.1,2.18,7.89,1.64,11-.48a9.41,9.41,0,0,0-4-17.12,11.22,11.22,0,0,0-5.27-8.55,12.18,12.18,0,0,0-10.45-1.1,12.75,12.75,0,0,0-11.12,3.56,10.1,10.1,0,0,0-3.26,7.84,7,7,0,0,0,5.25,6.27,8.58,8.58,0,0,0-.3,6.82C171.1,287.67,173.61,289.38,175.84,290.21Z" style="fill:#fafafa;opacity:0.7000000000000001"></path><path d="M241.74,237.32a7,7,0,0,0-8.83,9.09c-3.79.12-7.29,3.43-8.53,7a9.41,9.41,0,0,0,13.52,11.25,11.18,11.18,0,0,0,9.35,3.67,12.22,12.22,0,0,0,9-5.39,12.75,12.75,0,0,0,6.74-9.53,10.06,10.06,0,0,0-2.1-8.22,7,7,0,0,0-8-1.87,8.6,8.6,0,0,0-3.85-5.63C247.05,236.51,244,236.65,241.74,237.32Z" style="fill:#860065"></path><path d="M241.74,237.32a7,7,0,0,0-8.83,9.09c-3.79.12-7.29,3.43-8.53,7a9.41,9.41,0,0,0,13.52,11.25,11.18,11.18,0,0,0,9.35,3.67,12.22,12.22,0,0,0,9-5.39,12.75,12.75,0,0,0,6.74-9.53,10.06,10.06,0,0,0-2.1-8.22,7,7,0,0,0-8-1.87,8.6,8.6,0,0,0-3.85-5.63C247.05,236.51,244,236.65,241.74,237.32Z" style="fill:#fafafa;opacity:0.7000000000000001"></path><path d="M244.15,383.13c3.62-2.46.36-6.64-3.26-7.13s-7.28-4.82-7.45-7.57-6.7-11.23-16.85-6-7.06.77-14.41-.7-12,2.76-8.75,5.94c0,0-7.38-1.26-10.42,3.41s0,7.58,0,7.58-13.88-.28-12.63,5.54S244.15,383.13,244.15,383.13Z" style="fill:#860065"></path><path d="M244.15,383.13c3.62-2.46.36-6.64-3.26-7.13s-7.28-4.82-7.45-7.57-6.7-11.23-16.85-6-7.06.77-14.41-.7-12,2.76-8.75,5.94c0,0-7.38-1.26-10.42,3.41s0,7.58,0,7.58-13.88-.28-12.63,5.54S244.15,383.13,244.15,383.13Z" style="fill:#fafafa;opacity:0.6000000000000001"></path><path d="M328.39,383.75c-.15-1.85.1-4.25,2.27-5,3.66-1.21,5.84-4.05,5.71-7.26s3.74-6.34,6.64-3.33,2.5-2.31,6.36-3.61,7.13,1.85,6.08,4.72,2.75,4.66,7.31,2.22,9.57,2,8.61,5.47-.17,3.86,2.71,2.7c2.33-.94,6.15,1,6.57,4.05Z" style="fill:#860065"></path><path d="M328.39,383.75c-.15-1.85.1-4.25,2.27-5,3.66-1.21,5.84-4.05,5.71-7.26s3.74-6.34,6.64-3.33,2.5-2.31,6.36-3.61,7.13,1.85,6.08,4.72,2.75,4.66,7.31,2.22,9.57,2,8.61,5.47-.17,3.86,2.71,2.7c2.33-.94,6.15,1,6.57,4.05Z" style="fill:#fafafa;opacity:0.6000000000000001"></path><path d="M437.1,189.79a8.21,8.21,0,0,0-4.6-1.4c-.94-1.26,0-3,1-4.25s2.28-2.55,2-4.1c-.44-2.34-3.67-2.58-6-2.24-.79-1.44-.69-3.19-1-4.79s-1.52-3.34-3.16-3.22-2.57,1.8-4.09,2.08c-1.77.33-3.21-1.29-4.53-2.52a4.33,4.33,0,0,0-.52-.42h0c.52-4.78,5.06-3.8,9-4.26,3.06-.36-4.62-8.43,1.63-10.61a5.4,5.4,0,0,0,3.06-1.92,3.48,3.48,0,0,0-1.13-4.32,8.25,8.25,0,0,0-4.6-1.39c-.94-1.27,0-3.06,1-4.25s2.29-2.55,2-4.1c-.44-2.34-3.67-2.58-6-2.25-.8-1.44-.69-3.18-1-4.79s-1.52-3.34-3.16-3.22-2.57,1.81-4.09,2.09c-1.77.32-3.21-1.3-4.52-2.52s-3.68-2.07-4.7-.59c-.61.89-.33,2.18-1,3-1.09,1.52-3.46.43-4.91-.75s-3.78-2.3-4.91-.81a6.07,6.07,0,0,0-.66,1.57,4.12,4.12,0,0,1-.66,1.08c-.24-1.09-.27-2.24-.51-3.34-.34-1.61-1.52-3.34-3.16-3.22s-2.57,1.8-4.09,2.08c-1.77.33-3.21-1.29-4.52-2.51s-3.68-2.07-4.7-.59c-.61.89-.33,2.18-1,3.05a1.66,1.66,0,0,1-.51.48c-.51-.09-1-.14-1.55-.18-.94-1.26,0-3,1-4.25s2.29-2.55,2-4.1c-.44-2.34-3.67-2.58-6-2.24-.8-1.44-.7-3.19-1-4.8s-1.52-3.33-3.16-3.21-2.57,1.8-4.09,2.08c-1.77.33-3.21-1.29-4.52-2.52s-3.68-2.07-4.7-.58c-.61.88-.33,2.18-1,3-1.09,1.51-3.46.42-4.91-.76s-3.78-2.29-4.91-.81a6.29,6.29,0,0,0-.66,1.58c-.81,2-3.07,2.92-4.86,4.15s-3.28,3.78-1.9,5.45c.68.83,1.93,1.21,2.24,2.23.39,1.28-1,2.35-2,3.17-1.3,1-1.92,3.61-1.27,5.43a4.66,4.66,0,0,1-1.82.94c-1.77.33-3.21-1.29-4.53-2.52s-3.68-2.06-4.7-.58c-.61.89-.33,2.18-1,3.05-1.09,1.51-3.46.43-4.91-.75s-3.79-2.3-4.92-.82a7.12,7.12,0,0,0-.66,1.58c-.81,2-3.07,2.92-4.86,4.15s-3.28,3.78-1.9,5.45c.66.8,1.83,1.18,2.2,2.12-1.19-.53-2.5-.61-3.2.4s-.33,2.18-1,3c-1.1,1.51-3.47.42-4.91-.76s-3.79-2.29-4.92-.81a6.29,6.29,0,0,0-.66,1.58c-.81,2-3.07,2.92-4.86,4.15s-3.28,3.78-1.9,5.45c.68.83,1.93,1.21,2.24,2.23.39,1.28-.95,2.35-2,3.17-1.77,1.36-2.29,5.65-.1,6.94.91.54,2.29.76,2.47,1.81s-.82,1.61-1.48,2.3a4.45,4.45,0,0,0,1,6.69c.53.29,1.18.53,1.35,1.1a2.12,2.12,0,0,1-.19,1.25,6.68,6.68,0,0,0-.33,2.39,1.09,1.09,0,0,0,.25.77,1.18,1.18,0,0,0,.71.23c3.22.3,4.84-.77,6.68,2.14a2.21,2.21,0,0,0,.64.75,2.06,2.06,0,0,0,.88.27c2.21.29,3.73-1,5.78-1.19,2.84-.22,3.36,1.26,5.79,2.55,3.82,2,5.77,1,6.63-1.64a11.17,11.17,0,0,0,.46-2.29,4,4,0,0,1,1.51-3h.07c2.06.27,3.53-.84,5.37-1.13.39,0,.77,0,1.16-.06,2.19.08,2.85,1.39,5,2.55a7.93,7.93,0,0,0,3.3,1.06c.26,1.22-1,2.25-2,3-1.76,1.36-2.28,5.65-.09,6.94.91.54,2.29.76,2.47,1.81s-.82,1.61-1.48,2.3a4.45,4.45,0,0,0,1,6.69c.53.29,1.18.53,1.35,1.1a2.12,2.12,0,0,1-.19,1.25,6.47,6.47,0,0,0-.33,2.39,1.09,1.09,0,0,0,.25.77,1.15,1.15,0,0,0,.7.23c3.23.3,4.85-.77,6.69,2.14a2.21,2.21,0,0,0,.64.75,2.06,2.06,0,0,0,.88.27c2.21.29,3.73-1,5.78-1.19,2.84-.22,3.36,1.26,5.79,2.55,3.82,2,5.77,1,6.63-1.64a11.17,11.17,0,0,0,.46-2.29c.52-4.78,5.06-3.8,9-4.26a.78.78,0,0,0,.66-.41l.24,0c2.21.3,3.73-1,5.78-1.18,2.84-.22,3.36,1.26,5.79,2.55,3.82,2,5.77,1,6.63-1.64a11.13,11.13,0,0,0,.46-2.3c.41-3.71,3.24-3.95,6.33-4.08a4.26,4.26,0,0,0,2.09,3.59c.52.29,1.17.53,1.35,1.1a2.2,2.2,0,0,1-.19,1.25,6.69,6.69,0,0,0-.34,2.39.87.87,0,0,0,1,1c3.23.3,4.84-.77,6.68,2.15a2.29,2.29,0,0,0,.64.74,2.1,2.1,0,0,0,.88.27c2.22.29,3.74-1,5.79-1.19,2.83-.22,3.36,1.26,5.79,2.55,3.82,2,5.77,1,6.63-1.64a11.17,11.17,0,0,0,.46-2.29c.52-4.78,5.06-3.8,9-4.26,3.07-.36-4.61-8.44,1.64-10.62a5.33,5.33,0,0,0,3.06-1.92A3.48,3.48,0,0,0,437.1,189.79Z" style="fill:#860065"></path><path d="M320.49,232.16a6.54,6.54,0,0,0-3.62-1.1c-.75-1,0-2.4.78-3.34s1.79-2,1.56-3.23c-.35-1.84-2.89-2-4.74-1.77-.63-1.13-.55-2.51-.82-3.77s-1.2-2.63-2.49-2.54-2,1.42-3.22,1.64c-1.39.26-2.52-1-3.56-2s-2.9-1.63-3.7-.46c-.48.7-.26,1.72-.76,2.4-.86,1.19-2.73.34-3.86-.59s-3-1.81-3.88-.64a5.24,5.24,0,0,0-.52,1.24c-.63,1.58-2.42,2.3-3.82,3.27s-2.59,3-1.5,4.29c.54.65,1.52.95,1.77,1.76.3,1-.76,1.85-1.59,2.49-1.39,1.07-1.8,4.45-.08,5.47.72.42,1.8.6,1.95,1.42s-.65,1.27-1.17,1.81a3.51,3.51,0,0,0,.82,5.27c.42.23.93.42,1.07.87a1.78,1.78,0,0,1-.15,1,5.23,5.23,0,0,0-.27,1.88.69.69,0,0,0,.76.79c2.54.24,3.81-.6,5.26,1.69a1.92,1.92,0,0,0,.5.59,1.72,1.72,0,0,0,.7.21c1.74.23,2.94-.81,4.55-.94,2.23-.17,2.65,1,4.56,2,3,1.6,4.54.78,5.22-1.29a9.79,9.79,0,0,0,.37-1.81c.4-3.76,4-3,7.07-3.35,2.41-.29-3.64-6.64,1.29-8.36a4.27,4.27,0,0,0,2.41-1.51A2.75,2.75,0,0,0,320.49,232.16Z" style="fill:#860065"></path><g style="opacity:0.7000000000000001"><path d="M437.1,189.79a8.21,8.21,0,0,0-4.6-1.4c-.94-1.26,0-3,1-4.25s2.28-2.55,2-4.1c-.44-2.34-3.67-2.58-6-2.24-.79-1.44-.69-3.19-1-4.79s-1.52-3.34-3.16-3.22-2.57,1.8-4.09,2.08c-1.77.33-3.21-1.29-4.53-2.52a4.33,4.33,0,0,0-.52-.42h0c.52-4.78,5.06-3.8,9-4.26,3.06-.36-4.62-8.43,1.63-10.61a5.4,5.4,0,0,0,3.06-1.92,3.48,3.48,0,0,0-1.13-4.32,8.25,8.25,0,0,0-4.6-1.39c-.94-1.27,0-3.06,1-4.25s2.29-2.55,2-4.1c-.44-2.34-3.67-2.58-6-2.25-.8-1.44-.69-3.18-1-4.79s-1.52-3.34-3.16-3.22-2.57,1.81-4.09,2.09c-1.77.32-3.21-1.3-4.52-2.52s-3.68-2.07-4.7-.59c-.61.89-.33,2.18-1,3-1.09,1.52-3.46.43-4.91-.75s-3.78-2.3-4.91-.81a6.07,6.07,0,0,0-.66,1.57,4.12,4.12,0,0,1-.66,1.08c-.24-1.09-.27-2.24-.51-3.34-.34-1.61-1.52-3.34-3.16-3.22s-2.57,1.8-4.09,2.08c-1.77.33-3.21-1.29-4.52-2.51s-3.68-2.07-4.7-.59c-.61.89-.33,2.18-1,3.05a1.66,1.66,0,0,1-.51.48c-.51-.09-1-.14-1.55-.18-.94-1.26,0-3,1-4.25s2.29-2.55,2-4.1c-.44-2.34-3.67-2.58-6-2.24-.8-1.44-.7-3.19-1-4.8s-1.52-3.33-3.16-3.21-2.57,1.8-4.09,2.08c-1.77.33-3.21-1.29-4.52-2.52s-3.68-2.07-4.7-.58c-.61.88-.33,2.18-1,3-1.09,1.51-3.46.42-4.91-.76s-3.78-2.29-4.91-.81a6.29,6.29,0,0,0-.66,1.58c-.81,2-3.07,2.92-4.86,4.15s-3.28,3.78-1.9,5.45c.68.83,1.93,1.21,2.24,2.23.39,1.28-1,2.35-2,3.17-1.3,1-1.92,3.61-1.27,5.43a4.66,4.66,0,0,1-1.82.94c-1.77.33-3.21-1.29-4.53-2.52s-3.68-2.06-4.7-.58c-.61.89-.33,2.18-1,3.05-1.09,1.51-3.46.43-4.91-.75s-3.79-2.3-4.92-.82a7.12,7.12,0,0,0-.66,1.58c-.81,2-3.07,2.92-4.86,4.15s-3.28,3.78-1.9,5.45c.66.8,1.83,1.18,2.2,2.12-1.19-.53-2.5-.61-3.2.4s-.33,2.18-1,3c-1.1,1.51-3.47.42-4.91-.76s-3.79-2.29-4.92-.81a6.29,6.29,0,0,0-.66,1.58c-.81,2-3.07,2.92-4.86,4.15s-3.28,3.78-1.9,5.45c.68.83,1.93,1.21,2.24,2.23.39,1.28-.95,2.35-2,3.17-1.77,1.36-2.29,5.65-.1,6.94.91.54,2.29.76,2.47,1.81s-.82,1.61-1.48,2.3a4.45,4.45,0,0,0,1,6.69c.53.29,1.18.53,1.35,1.1a2.12,2.12,0,0,1-.19,1.25,6.68,6.68,0,0,0-.33,2.39,1.09,1.09,0,0,0,.25.77,1.18,1.18,0,0,0,.71.23c3.22.3,4.84-.77,6.68,2.14a2.21,2.21,0,0,0,.64.75,2.06,2.06,0,0,0,.88.27c2.21.29,3.73-1,5.78-1.19,2.84-.22,3.36,1.26,5.79,2.55,3.82,2,5.77,1,6.63-1.64a11.17,11.17,0,0,0,.46-2.29,4,4,0,0,1,1.51-3h.07c2.06.27,3.53-.84,5.37-1.13.39,0,.77,0,1.16-.06,2.19.08,2.85,1.39,5,2.55a7.93,7.93,0,0,0,3.3,1.06c.26,1.22-1,2.25-2,3-1.76,1.36-2.28,5.65-.09,6.94.91.54,2.29.76,2.47,1.81s-.82,1.61-1.48,2.3a4.45,4.45,0,0,0,1,6.69c.53.29,1.18.53,1.35,1.1a2.12,2.12,0,0,1-.19,1.25,6.47,6.47,0,0,0-.33,2.39,1.09,1.09,0,0,0,.25.77,1.15,1.15,0,0,0,.7.23c3.23.3,4.85-.77,6.69,2.14a2.21,2.21,0,0,0,.64.75,2.06,2.06,0,0,0,.88.27c2.21.29,3.73-1,5.78-1.19,2.84-.22,3.36,1.26,5.79,2.55,3.82,2,5.77,1,6.63-1.64a11.17,11.17,0,0,0,.46-2.29c.52-4.78,5.06-3.8,9-4.26a.78.78,0,0,0,.66-.41l.24,0c2.21.3,3.73-1,5.78-1.18,2.84-.22,3.36,1.26,5.79,2.55,3.82,2,5.77,1,6.63-1.64a11.13,11.13,0,0,0,.46-2.3c.41-3.71,3.24-3.95,6.33-4.08a4.26,4.26,0,0,0,2.09,3.59c.52.29,1.17.53,1.35,1.1a2.2,2.2,0,0,1-.19,1.25,6.69,6.69,0,0,0-.34,2.39.87.87,0,0,0,1,1c3.23.3,4.84-.77,6.68,2.15a2.29,2.29,0,0,0,.64.74,2.1,2.1,0,0,0,.88.27c2.22.29,3.74-1,5.79-1.19,2.83-.22,3.36,1.26,5.79,2.55,3.82,2,5.77,1,6.63-1.64a11.17,11.17,0,0,0,.46-2.29c.52-4.78,5.06-3.8,9-4.26,3.07-.36-4.61-8.44,1.64-10.62a5.33,5.33,0,0,0,3.06-1.92A3.48,3.48,0,0,0,437.1,189.79Z" style="fill:#fafafa"></path><path d="M320.49,232.16a6.54,6.54,0,0,0-3.62-1.1c-.75-1,0-2.4.78-3.34s1.79-2,1.56-3.23c-.35-1.84-2.89-2-4.74-1.77-.63-1.13-.55-2.51-.82-3.77s-1.2-2.63-2.49-2.54-2,1.42-3.22,1.64c-1.39.26-2.52-1-3.56-2s-2.9-1.63-3.7-.46c-.48.7-.26,1.72-.76,2.4-.86,1.19-2.73.34-3.86-.59s-3-1.81-3.88-.64a5.24,5.24,0,0,0-.52,1.24c-.63,1.58-2.42,2.3-3.82,3.27s-2.59,3-1.5,4.29c.54.65,1.52.95,1.77,1.76.3,1-.76,1.85-1.59,2.49-1.39,1.07-1.8,4.45-.08,5.47.72.42,1.8.6,1.95,1.42s-.65,1.27-1.17,1.81a3.51,3.51,0,0,0,.82,5.27c.42.23.93.42,1.07.87a1.78,1.78,0,0,1-.15,1,5.23,5.23,0,0,0-.27,1.88.69.69,0,0,0,.76.79c2.54.24,3.81-.6,5.26,1.69a1.92,1.92,0,0,0,.5.59,1.72,1.72,0,0,0,.7.21c1.74.23,2.94-.81,4.55-.94,2.23-.17,2.65,1,4.56,2,3,1.6,4.54.78,5.22-1.29a9.79,9.79,0,0,0,.37-1.81c.4-3.76,4-3,7.07-3.35,2.41-.29-3.64-6.64,1.29-8.36a4.27,4.27,0,0,0,2.41-1.51A2.75,2.75,0,0,0,320.49,232.16Z" style="fill:#fafafa"></path></g><path d="M389.35,209.54l5.8-15.67,10.38-12.09-1.61-1.48-9.7,9.61-.87-16-3.66-.17s4,18.42.45,25.2c0,0-14.56,29.18-21.85,35.15a6.14,6.14,0,0,0-1.09,1.18,72.92,72.92,0,0,0-7.36-15.58c3.09-6.92,9.75-22.15,12.16-30.3A162.23,162.23,0,0,0,376.49,170l-2.67-1.63s-7.57,31.56-19,45a42.56,42.56,0,0,0-10.33-7.67c-.66-4.34-.67-11.84,2.75-23.39l-2-2.06s-5,11.1-5.23,22.94a40.85,40.85,0,0,1-4.51-3c-10-7.76-16.6-21.23-16.6-21.23l-3.91-.19s9.57,21.91,21.54,29,19.16,23.19,19.59,27.36c.12,1.18-.21,13.65-.75,30.86-13-8.79-45-30.44-46.69-31.94l-.19,4,46.56,38c-1.29,40-3.3,96-3.62,105l19,.92c.81-12.4,5.27-84.86,1.19-124.77.25-1.19.52-2.56.8-4.15,2.63-14.86,17.68-36.79,20.65-40.28s11.62-14.55,11.62-14.55l-1.56-2.59Z" style="fill:#860065"></path><path d="M389.35,209.54l5.8-15.67,10.38-12.09-1.61-1.48-9.7,9.61-.87-16-3.66-.17s4,18.42.45,25.2c0,0-14.56,29.18-21.85,35.15a6.14,6.14,0,0,0-1.09,1.18,72.92,72.92,0,0,0-7.36-15.58c3.09-6.92,9.75-22.15,12.16-30.3A162.23,162.23,0,0,0,376.49,170l-2.67-1.63s-7.57,31.56-19,45a42.56,42.56,0,0,0-10.33-7.67c-.66-4.34-.67-11.84,2.75-23.39l-2-2.06s-5,11.1-5.23,22.94a40.85,40.85,0,0,1-4.51-3c-10-7.76-16.6-21.23-16.6-21.23l-3.91-.19s9.57,21.91,21.54,29,19.16,23.19,19.59,27.36c.12,1.18-.21,13.65-.75,30.86-13-8.79-45-30.44-46.69-31.94l-.19,4,46.56,38c-1.29,40-3.3,96-3.62,105l19,.92c.81-12.4,5.27-84.86,1.19-124.77.25-1.19.52-2.56.8-4.15,2.63-14.86,17.68-36.79,20.65-40.28s11.62-14.55,11.62-14.55l-1.56-2.59Z" style="fill:#fff;isolation:isolate;opacity:0.8"></path><path d="M395,383.75c.15-1.85-.1-4.25-2.27-5-3.66-1.21-5.84-4.05-5.71-7.26s-3.74-6.34-6.63-3.33-2.51-2.31-6.37-3.61-7.13,1.85-6.08,4.72-2.75,4.66-7.31,2.22-9.57,2-8.61,5.47.18,3.86-2.71,2.7c-2.33-.94-6.15,1-6.57,4.05Z" style="fill:#860065"></path><path d="M395,383.75c.15-1.85-.1-4.25-2.27-5-3.66-1.21-5.84-4.05-5.71-7.26s-3.74-6.34-6.63-3.33-2.51-2.31-6.37-3.61-7.13,1.85-6.08,4.72-2.75,4.66-7.31,2.22-9.57,2-8.61,5.47.18,3.86-2.71,2.7c-2.33-.94-6.15,1-6.57,4.05Z" style="fill:#fafafa;opacity:0.6000000000000001"></path><path d="M269.22,387.12s16.66-14.66,11.67-17.14-11.06,11.08-11.67,9,3.26-20.65-6-19.36,0,19.36,0,19.36-6.85-7.41-9.25-6.25,7.29,14.35,7.29,14.35Z" style="fill:#fafafa;opacity:0.6000000000000001"></path><path d="M85.46,380.9s14.12-12.44,9.89-14.54S86,375.75,85.46,374s2.76-17.52-5.08-16.42,0,16.42,0,16.42-5.81-6.28-7.85-5.3,6.19,12.18,6.19,12.18Z" style="fill:#fafafa;opacity:0.6000000000000001"></path><path d="M301.5,382.89s-10.87-21.21-8.14-23.29,8.14,17.72,8.14,16.18-.3-28.51,4.72-27.44,0,25.9,0,25.9,6.76-12.69,9.41-11.73-7.81,16.05-7.81,16.05,6.24-3.78,7.81-3.48-7.81,7.81-7.81,7.81Z" style="fill:#fafafa;opacity:0.6000000000000001"></path><path d="M443.91,380.37H60.08a12.19,12.19,0,0,0-12.19,12.19h0a4.91,4.91,0,0,0,4.91,4.91H451.19a4.9,4.9,0,0,0,4.91-4.91h0A12.19,12.19,0,0,0,443.91,380.37Z" style="fill:#860065"></path><path d="M443.91,380.37H60.08a12.19,12.19,0,0,0-12.19,12.19h0a4.91,4.91,0,0,0,4.91,4.91H451.19a4.9,4.9,0,0,0,4.91-4.91h0A12.19,12.19,0,0,0,443.91,380.37Z" style="fill:#fafafa;opacity:0.4"></path></g><g id="freepik--Truck--inject-798"><rect x="351.96" y="270.5" width="10.63" height="15.33" rx="2.52" transform="translate(714.55 556.33) rotate(180)" style="fill:#263238"></rect><rect x="351.96" y="270.5" width="10.63" height="15.33" rx="2.52" transform="translate(714.55 556.33) rotate(180)" style="fill:#fff;opacity:0.4"></rect><path d="M352.35,277.38a9.23,9.23,0,0,1-2.72,1.94,1.63,1.63,0,0,0-1.05,1.39l-.27,3.77a1.63,1.63,0,0,0,1.62,1.74h2.48a1.63,1.63,0,0,0,.75-.18l2.58-1.34a1.61,1.61,0,0,0,.87-1.44v-4.73a1.62,1.62,0,0,0-1.62-1.62h-1.5A1.63,1.63,0,0,0,352.35,277.38Z" style="fill:#263238"></path><path d="M352.35,277.38a9.23,9.23,0,0,1-2.72,1.94,1.63,1.63,0,0,0-1.05,1.39l-.27,3.77a1.63,1.63,0,0,0,1.62,1.74h2.48a1.63,1.63,0,0,0,.75-.18l2.58-1.34a1.61,1.61,0,0,0,.87-1.44v-4.73a1.62,1.62,0,0,0-1.62-1.62h-1.5A1.63,1.63,0,0,0,352.35,277.38Z" style="fill:#fff;opacity:0.30000000000000004"></path><path d="M153.12,305.77a2.82,2.82,0,0,1-.81-.11,3,3,0,0,1-2.08-3.7l15.06-53.63a10.33,10.33,0,0,1,9.92-7.52h53.15a3,3,0,0,1,0,6H175.21a4.33,4.33,0,0,0-4.15,3.14L156,303.58A3,3,0,0,1,153.12,305.77Z" style="fill:#263238"></path><path d="M112.17,303.22a3,3,0,0,1-2.26-5l33.83-38.82a12.26,12.26,0,0,1,9.24-4.2h12.64a3,3,0,0,1,0,6H153a6.23,6.23,0,0,0-4.71,2.14l-33.84,38.82A3,3,0,0,1,112.17,303.22Z" style="fill:#263238"></path><path d="M374.32,349.83h12.2c13.55,0,24.53,15.18,24.53,33.9s-11,33.91-24.53,33.91h-12.2c-13.55,0-24.53-15.18-24.53-33.91S360.77,349.83,374.32,349.83Z"></path><path d="M204.31,349.83h12.2c13.55,0,24.53,15.18,24.53,33.9s-11,33.91-24.53,33.91h-12.2c-13.55,0-24.53-15.18-24.53-33.91S190.76,349.83,204.31,349.83Z"></path><path d="M77.76,368.51H90.3l12.2,14.83h56.68a14.12,14.12,0,0,0,12.37,6.77c8.82,0,10.76-5.86,10.76-5.86h32.88l4,5.86h58.53l9.06-6.38h48.76s2.53,6.38,11.56,6.38a15.42,15.42,0,0,0,13-6.77h13.52A14.91,14.91,0,0,0,387.49,374l15.27-37.94h-325Z" style="fill:#263238"></path><path d="M279.17,349.83h12.2c13.55,0,24.53,15.18,24.53,33.9s-11,33.91-24.53,33.91h-12.2c-13.55,0-24.53-15.18-24.53-33.91S265.62,349.83,279.17,349.83Z"></path><path d="M275.33,352.23c11.32,0,20.5,14.11,20.5,31.5s-9.18,31.5-20.5,31.5-20.49-14.1-20.49-31.5S264,352.23,275.33,352.23Z" style="fill:#fff;opacity:0.2"></path><path d="M273.56,366.71c6.12,0,11.08,7.62,11.08,17s-5,17-11.08,17-11.08-7.62-11.08-17S267.44,366.71,273.56,366.71Z" style="fill:#fff;opacity:0.2"></path><path d="M277.73,375.22c3.06,0,5.54,3.81,5.54,8.51s-2.48,8.52-5.54,8.52-5.54-3.82-5.54-8.52S274.67,375.22,277.73,375.22Z" style="fill:#fff;isolation:isolate;opacity:0.7000000000000001"></path><path d="M109.16,349.83h12.2c13.55,0,24.53,15.18,24.53,33.9s-11,33.91-24.53,33.91h-12.2c-13.55,0-24.53-15.18-24.53-33.91S95.61,349.83,109.16,349.83Z"></path><path d="M105.32,352.23c11.32,0,20.5,14.11,20.5,31.5s-9.18,31.5-20.5,31.5-20.49-14.1-20.49-31.5S94,352.23,105.32,352.23Z" style="fill:#fff;opacity:0.2"></path><path d="M103.55,366.71c6.12,0,11.08,7.62,11.08,17s-5,17-11.08,17-11.08-7.62-11.08-17S97.43,366.71,103.55,366.71Z" style="fill:#fff;opacity:0.2"></path><path d="M107.78,375.22c2.92,0,5.28,3.64,5.28,8.12s-2.36,8.12-5.28,8.12-5.28-3.64-5.28-8.12S104.86,375.22,107.78,375.22Z" style="fill:#fff;isolation:isolate;opacity:0.7000000000000001"></path><path d="M421.32,312.1v62H309.57L301.74,352a13.88,13.88,0,0,0-13.09-9.26h-17A13.89,13.89,0,0,0,258.31,353l-5.84,21.16H138.17l-6.86-21.66a13.89,13.89,0,0,0-13.24-9.7H101.65a13.94,13.94,0,0,0-9.19,3.47,14.08,14.08,0,0,0-4.28,7L82.9,374.13H71.7V295a4.58,4.58,0,0,1,4.59-4.59h90.49s3.49-22.7,11.53-42.71a6.08,6.08,0,0,1,4.3-3.67c5.07-1.13,17.53-2.9,45.77-2.9,77.1,0,92.89,4.76,92.89,4.76,22.58,16.17,43.28,41.94,43.28,41.94q2.76.51,5.35,1.06a213.5,213.5,0,0,1,29.32,8A100.56,100.56,0,0,1,416.9,305l.53.32.18.11A7.9,7.9,0,0,1,421.32,312.1Z" style="fill:#860065"></path><path d="M428.37,340.53v33.35a6.65,6.65,0,0,1-6.65,6.64H316.58c-3.67,0-5.95-3-7-6.39L301.74,352a13.87,13.87,0,0,0-5.91-7.26c0-3.66,16.13-10.89,19.8-10.89h26.85l4.19,9.11a7.26,7.26,0,0,0,6.58,4.21h46a6.59,6.59,0,0,0,6.54-6l.62-7.31h15.29A6.65,6.65,0,0,1,428.37,340.53Z" style="fill:#263238"></path><path d="M359.43,288.37h-9.81l-19.69-2.54h-34.1l-11,2.54H255.82s-4.46-26.32-12.26-42.15c0,0,45-1.51,77.35,3.06C320.91,249.28,337.15,259.27,359.43,288.37Z" style="fill:#263238"></path><path d="M246.5,288.37H200.74a4.73,4.73,0,0,1-3.51-1.55L194,283.26a4.69,4.69,0,0,0-3.49-1.55H172.3c2.87-16.82,7.34-26.39,9.32-32.42a4.63,4.63,0,0,1,4-3.19c2.6-.19,5.22-.35,7.8-.47l3.22-.14c21.37-.8,40.71.5,40.71.5,2.64,4.71,5.62,20.65,7.44,31.59h0C245.85,283.79,246.5,288.37,246.5,288.37Z" style="fill:#263238"></path><path d="M428.37,340.53v33.35a6.65,6.65,0,0,1-6.65,6.64H316.58c-3.67,0-5.95-3-7-6.39L301.74,352a13.87,13.87,0,0,0-5.91-7.26c0-3.66,16.13-10.89,19.8-10.89h26.85l4.19,9.11a7.26,7.26,0,0,0,6.58,4.21h46a6.59,6.59,0,0,0,6.54-6l.62-7.31h15.29A6.65,6.65,0,0,1,428.37,340.53Z" style="fill:#fff;opacity:0.2"></path><path d="M319.15,334.76l-8,.07a2.2,2.2,0,0,1-2.2-2.19V316.38a3.53,3.53,0,0,1,3.52-3.52H321a3.53,3.53,0,0,0-3.52,3.52v16.26A2.2,2.2,0,0,0,319.15,334.76Z" style="fill:#860065"></path><path d="M317.51,332.63V316.38a3.52,3.52,0,0,1,3.52-3.52h9.62a3.53,3.53,0,0,1,3.22,2.09l7.71,17.15a1.81,1.81,0,0,1-1.65,2.55l-20.22.18A2.2,2.2,0,0,1,317.51,332.63Z" style="fill:#860065"></path><path d="M418.47,312.86H410.7a2.74,2.74,0,0,0-2.73,2.49l-1.56,17.17a2,2,0,0,0,1.94,2.13h12.48V316.36a3.44,3.44,0,0,0-1.38-2.76Z" style="fill:#860065"></path><path d="M317.51,332.63V316.38a3.52,3.52,0,0,1,3.52-3.52h9.62a3.53,3.53,0,0,1,3.22,2.09l7.71,17.15a1.81,1.81,0,0,1-1.65,2.55l-20.22.18A2.2,2.2,0,0,1,317.51,332.63Z" style="fill:#fff;opacity:0.7000000000000001"></path><path d="M418.47,312.86H410.7a2.74,2.74,0,0,0-2.73,2.49l-1.56,17.17a2,2,0,0,0,1.94,2.13h12.48V316.36a3.44,3.44,0,0,0-1.38-2.76Z" style="fill:#fff;opacity:0.7000000000000001"></path><path d="M336.51,326.36c0,3.26-2.13,5.9-4.77,5.9s-4.77-2.64-4.77-5.9,2.13-5.89,4.77-5.89S336.51,323.11,336.51,326.36Z" style="fill:#fff"></path><ellipse cx="323.53" cy="319.34" rx="2.82" ry="3.39" style="fill:#fff"></ellipse><ellipse cx="412.62" cy="326.36" rx="4.77" ry="5.9" style="fill:#fff"></ellipse><path d="M420.55,319.34a2.87,2.87,0,1,1-2.82-3.39A3.13,3.13,0,0,1,420.55,319.34Z" style="fill:#fff"></path><path d="M319.15,334.76l-8,.07a2.2,2.2,0,0,1-2.2-2.19V316.38a3.53,3.53,0,0,1,3.52-3.52H321a3.53,3.53,0,0,0-3.52,3.52v16.26A2.21,2.21,0,0,0,319.15,334.76Z" style="fill:#fff;opacity:0.2"></path><path d="M423.68,316.36v18.28h-2.85V316.36a3.48,3.48,0,0,0-1.38-2.76l-1-.74h2.85l1,.74A3.45,3.45,0,0,1,423.68,316.36Z" style="fill:#860065"></path><path d="M423.68,316.36v18.28h-2.85V316.36a3.48,3.48,0,0,0-1.38-2.76l-1-.74h2.85l1,.74A3.42,3.42,0,0,1,423.68,316.36Z" style="fill:#fff;opacity:0.2"></path><path d="M312.47,312.86H321a3.53,3.53,0,0,0-3.52,3.52v7.37H309v-7.37A3.53,3.53,0,0,1,312.47,312.86Z" style="opacity:0.4"></path><path d="M423.68,316.36v7.39h-2.85v-7.39a3.48,3.48,0,0,0-1.38-2.76l-1-.74h2.85l1,.74A3.42,3.42,0,0,1,423.68,316.36Z" style="opacity:0.4"></path><path d="M404.25,314.42,402,340.87a2.77,2.77,0,0,1-2.76,2.53h-46a3.42,3.42,0,0,1-3.12-2l-12.58-27.32a.91.91,0,0,1-.09-.31,1,1,0,0,1,1-1.13h64.15A1.64,1.64,0,0,1,404.25,314.42Z" style="opacity:0.4"></path><path d="M401.81,315.55,399.57,342a2.58,2.58,0,0,1-.52,1.41h-45.8a3.42,3.42,0,0,1-3.12-2l-12.58-27.32a.91.91,0,0,1-.09-.31h62.71A1.65,1.65,0,0,1,401.81,315.55Z" style="fill:#263238"></path><path d="M401.81,315.55l-.94,11.17-.16,1.87L399.57,342a2.58,2.58,0,0,1-.52,1.41h-45.8a3.42,3.42,0,0,1-3.12-2l-5.91-12.81-.85-1.87-5.82-12.64a.91.91,0,0,1-.09-.31h62.71A1.65,1.65,0,0,1,401.81,315.55Z" style="fill:#fff;opacity:0.2"></path><polygon points="346.09 315.11 347.22 313.77 341.66 313.77 342.79 315.11 346.09 315.11" style="fill:#263238"></polygon><polygon points="357.47 315.11 358.6 313.77 353.04 313.77 354.17 315.11 357.47 315.11" style="fill:#263238"></polygon><polygon points="368.85 315.11 369.98 313.77 364.42 313.77 365.55 315.11 368.85 315.11" style="fill:#263238"></polygon><polygon points="380.23 315.11 381.36 313.77 375.8 313.77 376.93 315.11 380.23 315.11" style="fill:#263238"></polygon><polygon points="391.62 315.11 392.74 313.77 387.19 313.77 388.31 315.11 391.62 315.11" style="fill:#263238"></polygon><path d="M401.78,315.11a1.63,1.63,0,0,0-1.61-1.34h-1.6l1.13,1.34Z" style="fill:#263238"></path><path d="M342.05,315.59l-1.54-1.82h-3.05a.91.91,0,0,0,.09.31l1.59,3.46h1.26Z" style="fill:#263238"></path><polygon points="348.48 317.55 351.78 317.55 353.43 315.59 351.89 313.77 348.36 313.77 346.83 315.59 348.48 317.55" style="fill:#263238"></polygon><polygon points="359.86 317.55 363.16 317.55 364.81 315.59 363.28 313.77 359.74 313.77 358.21 315.59 359.86 317.55" style="fill:#263238"></polygon><polygon points="371.24 317.55 374.54 317.55 376.19 315.59 374.66 313.77 371.13 313.77 369.59 315.59 371.24 317.55" style="fill:#263238"></polygon><polygon points="382.62 317.55 385.92 317.55 387.57 315.59 386.04 313.77 382.51 313.77 380.97 315.59 382.62 317.55" style="fill:#263238"></polygon><polygon points="394.01 317.55 397.31 317.55 398.96 315.59 397.42 313.77 393.89 313.77 392.36 315.59 394.01 317.55" style="fill:#263238"></polygon><polygon points="346.09 316.07 342.79 316.07 341.13 318.02 342.79 319.98 346.09 319.98 347.74 318.02 346.09 316.07" style="fill:#263238"></polygon><polygon points="357.47 319.98 359.12 318.02 357.47 316.07 354.17 316.07 352.52 318.02 354.17 319.98 357.47 319.98" style="fill:#263238"></polygon><polygon points="368.85 319.98 370.5 318.02 368.85 316.07 365.55 316.07 363.9 318.02 365.55 319.98 368.85 319.98" style="fill:#263238"></polygon><polygon points="380.23 319.98 381.88 318.02 380.23 316.07 376.93 316.07 375.28 318.02 376.93 319.98 380.23 319.98" style="fill:#263238"></polygon><polygon points="391.62 319.98 393.27 318.02 391.62 316.07 388.31 316.07 386.66 318.02 388.31 319.98 391.62 319.98" style="fill:#263238"></polygon><polygon points="398.05 318.02 399.7 319.98 401.44 319.98 401.76 316.07 399.7 316.07 398.05 318.02" style="fill:#263238"></polygon><polygon points="340.4 318.51 339.58 318.51 341.04 321.66 342.05 320.46 340.4 318.51" style="fill:#263238"></polygon><polygon points="351.78 322.42 353.43 320.46 351.78 318.51 348.48 318.51 346.83 320.46 348.48 322.42 351.78 322.42" style="fill:#263238"></polygon><polygon points="359.86 322.42 363.16 322.42 364.81 320.46 363.16 318.51 359.86 318.51 358.21 320.46 359.86 322.42" style="fill:#263238"></polygon><polygon points="371.24 322.42 374.54 322.42 376.19 320.46 374.54 318.51 371.24 318.51 369.59 320.46 371.24 322.42" style="fill:#263238"></polygon><polygon points="382.62 322.42 385.92 322.42 387.57 320.46 385.92 318.51 382.62 318.51 380.97 320.46 382.62 322.42" style="fill:#263238"></polygon><polygon points="394.01 322.42 397.31 322.42 398.96 320.46 397.31 318.51 394.01 318.51 392.36 320.46 394.01 322.42" style="fill:#263238"></polygon><polygon points="346.09 324.85 347.74 322.9 346.09 320.94 342.79 320.94 341.44 322.54 342.17 324.12 342.79 324.85 346.09 324.85" style="fill:#263238"></polygon><polygon points="354.17 320.94 352.52 322.9 354.17 324.85 357.47 324.85 359.12 322.9 357.47 320.94 354.17 320.94" style="fill:#263238"></polygon><polygon points="365.55 320.94 363.9 322.9 365.55 324.85 368.85 324.85 370.5 322.9 368.85 320.94 365.55 320.94" style="fill:#263238"></polygon><polygon points="376.93 320.94 375.28 322.9 376.93 324.85 380.23 324.85 381.88 322.9 380.23 320.94 376.93 320.94" style="fill:#263238"></polygon><polygon points="391.62 320.94 388.31 320.94 386.66 322.9 388.31 324.85 391.62 324.85 393.27 322.9 391.62 320.94" style="fill:#263238"></polygon><polygon points="398.05 322.9 399.7 324.85 401.02 324.85 401.35 320.94 399.7 320.94 398.05 322.9" style="fill:#263238"></polygon><polygon points="351.78 327.29 353.43 325.33 351.78 323.38 348.48 323.38 346.83 325.33 348.48 327.29 351.78 327.29" style="fill:#263238"></polygon><polygon points="359.86 323.38 358.21 325.33 359.86 327.29 363.16 327.29 364.81 325.33 363.16 323.38 359.86 323.38" style="fill:#263238"></polygon><polygon points="371.24 323.38 369.59 325.33 371.24 327.29 374.54 327.29 376.19 325.33 374.54 323.38 371.24 323.38" style="fill:#263238"></polygon><polygon points="382.62 323.38 380.97 325.33 382.62 327.29 385.92 327.29 387.57 325.33 385.92 323.38 382.62 323.38" style="fill:#263238"></polygon><polygon points="394.01 323.38 392.36 325.33 394.01 327.29 397.31 327.29 398.96 325.33 397.31 323.38 394.01 323.38" style="fill:#263238"></polygon><polygon points="347.74 327.77 346.09 325.82 342.95 325.82 344.75 329.73 346.09 329.73 347.74 327.77" style="fill:#263238"></polygon><polygon points="354.17 329.73 357.47 329.73 359.12 327.77 357.47 325.82 354.17 325.82 352.52 327.77 354.17 329.73" style="fill:#263238"></polygon><polygon points="365.55 325.82 363.9 327.77 365.55 329.73 368.85 329.73 370.5 327.77 368.85 325.82 365.55 325.82" style="fill:#263238"></polygon><polygon points="380.23 329.73 381.88 327.77 380.23 325.82 376.93 325.82 375.28 327.77 376.93 329.73 380.23 329.73" style="fill:#263238"></polygon><polygon points="391.62 329.73 393.27 327.77 391.62 325.82 388.31 325.82 386.66 327.77 388.31 329.73 391.62 329.73" style="fill:#263238"></polygon><polygon points="398.05 327.77 399.7 329.73 400.61 329.73 400.94 325.82 399.7 325.82 398.05 327.77" style="fill:#263238"></polygon><polygon points="351.78 328.25 348.48 328.25 346.83 330.21 348.48 332.16 351.78 332.16 353.43 330.21 351.78 328.25" style="fill:#263238"></polygon><polygon points="363.16 332.16 364.81 330.21 363.16 328.25 359.86 328.25 358.21 330.21 359.86 332.16 363.16 332.16" style="fill:#263238"></polygon><polygon points="374.54 332.16 376.19 330.21 374.54 328.25 371.24 328.25 369.59 330.21 371.24 332.16 374.54 332.16" style="fill:#263238"></polygon><polygon points="385.92 332.16 387.57 330.21 385.92 328.25 382.62 328.25 380.97 330.21 382.62 332.16 385.92 332.16" style="fill:#263238"></polygon><polygon points="394.01 328.25 392.36 330.21 394.01 332.16 397.31 332.16 398.96 330.21 397.31 328.25 394.01 328.25" style="fill:#263238"></polygon><polygon points="346.09 330.69 345.19 330.69 346.67 333.9 347.74 332.64 346.09 330.69" style="fill:#263238"></polygon><polygon points="357.47 334.6 359.12 332.64 357.47 330.69 354.17 330.69 352.52 332.64 354.17 334.6 357.47 334.6" style="fill:#263238"></polygon><polygon points="368.85 334.6 370.5 332.64 368.85 330.69 365.55 330.69 363.9 332.64 365.55 334.6 368.85 334.6" style="fill:#263238"></polygon><polygon points="380.23 334.6 381.88 332.64 380.23 330.69 376.93 330.69 375.28 332.64 376.93 334.6 380.23 334.6" style="fill:#263238"></polygon><polygon points="391.62 334.6 393.27 332.64 391.62 330.69 388.31 330.69 386.66 332.64 388.31 334.6 391.62 334.6" style="fill:#263238"></polygon><polygon points="398.05 332.64 399.7 334.6 400.2 334.6 400.53 330.69 399.7 330.69 398.05 332.64" style="fill:#263238"></polygon><polygon points="351.78 337.04 353.43 335.08 351.78 333.13 348.48 333.13 347.08 334.78 347.68 336.09 348.48 337.04 351.78 337.04" style="fill:#263238"></polygon><polygon points="359.86 337.04 363.16 337.04 364.81 335.08 363.16 333.13 359.86 333.13 358.21 335.08 359.86 337.04" style="fill:#263238"></polygon><polygon points="374.54 337.04 376.19 335.08 374.54 333.13 371.24 333.13 369.59 335.08 371.24 337.04 374.54 337.04" style="fill:#263238"></polygon><polygon points="385.92 337.04 387.57 335.08 385.92 333.13 382.62 333.13 380.97 335.08 382.62 337.04 385.92 337.04" style="fill:#263238"></polygon><polygon points="394.01 333.13 392.36 335.08 394.01 337.04 397.31 337.04 398.96 335.08 397.31 333.13 394.01 333.13" style="fill:#263238"></polygon><polygon points="357.47 335.56 354.17 335.56 352.52 337.52 354.17 339.47 357.47 339.47 359.12 337.52 357.47 335.56" style="fill:#263238"></polygon><polygon points="368.85 335.56 365.55 335.56 363.9 337.52 365.55 339.47 368.85 339.47 370.5 337.52 368.85 335.56" style="fill:#263238"></polygon><polygon points="380.23 335.56 376.93 335.56 375.28 337.52 376.93 339.47 380.23 339.47 381.88 337.52 380.23 335.56" style="fill:#263238"></polygon><polygon points="391.62 335.56 388.31 335.56 386.66 337.52 388.31 339.47 391.62 339.47 393.27 337.52 391.62 335.56" style="fill:#263238"></polygon><polygon points="398.05 337.52 399.7 339.47 399.79 339.47 400.12 335.56 399.7 335.56 398.05 337.52" style="fill:#263238"></polygon><path d="M353.43,340,351.78,338h-3.22l1.57,3.4a3.2,3.2,0,0,0,.29.51h1.36Z" style="fill:#263238"></path><polygon points="359.86 338 358.21 339.95 359.86 341.91 363.16 341.91 364.81 339.95 363.16 338 359.86 338" style="fill:#263238"></polygon><polygon points="371.24 338 369.59 339.95 371.24 341.91 374.54 341.91 376.19 339.95 374.54 338 371.24 338" style="fill:#263238"></polygon><polygon points="382.62 338 380.97 339.95 382.62 341.91 385.92 341.91 387.57 339.95 385.92 338 382.62 338" style="fill:#263238"></polygon><polygon points="397.31 338 394.01 338 392.36 339.95 394.01 341.91 397.31 341.91 398.96 339.95 397.31 338" style="fill:#263238"></polygon><polygon points="357.47 340.44 354.17 340.44 352.52 342.39 353.37 343.4 358.27 343.4 359.12 342.39 357.47 340.44" style="fill:#263238"></polygon><polygon points="368.85 340.44 365.55 340.44 363.9 342.39 364.75 343.4 369.65 343.4 370.5 342.39 368.85 340.44" style="fill:#263238"></polygon><polygon points="380.23 340.44 376.93 340.44 375.28 342.39 376.13 343.4 381.03 343.4 381.88 342.39 380.23 340.44" style="fill:#263238"></polygon><polygon points="391.62 340.44 388.31 340.44 386.66 342.39 387.52 343.4 392.41 343.4 393.27 342.39 391.62 340.44" style="fill:#263238"></polygon><path d="M399.7,340.43l-1.65,2,.85,1h.15a2.58,2.58,0,0,0,.52-1.41l.14-1.56Z" style="fill:#263238"></path><path d="M351.42,342.87a3.45,3.45,0,0,0,.61.3l-.25-.3Z" style="fill:#263238"></path><polygon points="359.86 342.87 359.41 343.4 363.61 343.4 363.16 342.87 359.86 342.87" style="fill:#263238"></polygon><polygon points="371.24 342.87 370.79 343.4 374.99 343.4 374.54 342.87 371.24 342.87" style="fill:#263238"></polygon><polygon points="382.62 342.87 382.18 343.4 386.37 343.4 385.92 342.87 382.62 342.87" style="fill:#263238"></polygon><polygon points="394.01 342.87 393.56 343.4 397.75 343.4 397.31 342.87 394.01 342.87" style="fill:#263238"></polygon><polygon points="400.87 326.72 400.71 328.59 344.22 328.59 343.37 326.72 400.87 326.72" style="fill:#263238"></polygon><polygon points="400.87 326.72 400.71 328.59 344.22 328.59 343.37 326.72 400.87 326.72" style="fill:#fff;opacity:0.2"></polygon><polygon points="391.77 324.47 354.8 324.47 352.01 327.77 354.8 331.07 391.77 331.07 394.56 327.77 391.77 324.47" style="fill:#263238"></polygon><polygon points="391.77 324.47 354.8 324.47 352.01 327.77 354.8 331.07 391.77 331.07 394.56 327.77 391.77 324.47" style="fill:#fff;opacity:0.2"></polygon><rect x="357.26" y="358.18" width="39.54" height="18.58" style="fill:#fff;opacity:0.2"></rect><path d="M337.32,371.74h-9.13a2.9,2.9,0,0,1-2.9-2.9V351.29a2.9,2.9,0,0,1,2.9-2.9h9.55a2.92,2.92,0,0,1,2.63,1.66l2.58,5.49a3,3,0,0,1,.19,1.94l-3,12.06A2.89,2.89,0,0,1,337.32,371.74Z" style="fill:#263238"></path><path d="M336.51,359.27c0,3-2,5.44-4.4,5.44s-4.4-2.44-4.4-5.44,2-5.45,4.4-5.45S336.51,356.26,336.51,359.27Z" style="fill:#fff;opacity:0.4"></path><path d="M412.07,371.74h9.13a2.9,2.9,0,0,0,2.9-2.9V351.29a2.9,2.9,0,0,0-2.9-2.9h-9.55a2.92,2.92,0,0,0-2.63,1.66l-2.58,5.49a3,3,0,0,0-.19,1.94l3,12.06A2.89,2.89,0,0,0,412.07,371.74Z" style="fill:#263238"></path><path d="M417.39,359.27c0,3-2,5.44-4.4,5.44s-4.4-2.44-4.4-5.44,2-5.45,4.4-5.45S417.39,356.26,417.39,359.27Z" style="fill:#fff;opacity:0.4"></path><path d="M92.46,346.24a14.08,14.08,0,0,0-4.28,7L82.9,374.13h-.15a4.46,4.46,0,0,1-4.06,2.58H70.35a4.48,4.48,0,0,1-4.48-4.48V337.56a4.93,4.93,0,0,1,3-4.54h0l1.51.06H81.78a5.3,5.3,0,0,1,4.58,2.64Z" style="fill:#263238"></path><path d="M92.46,346.24a14.08,14.08,0,0,0-4.28,7L82.9,374.13h-.15a4.46,4.46,0,0,1-4.06,2.58H70.35a4.48,4.48,0,0,1-4.48-4.48V337.56a4.93,4.93,0,0,1,3-4.54h0l1.51.06H81.78a5.3,5.3,0,0,1,4.58,2.64Z" style="fill:#fff;opacity:0.2"></path><path d="M79.17,306v27H68.84V307.48A3.45,3.45,0,0,1,72.29,304h4.92A2,2,0,0,1,79.17,306Z" style="fill:#860065"></path><path d="M79.17,306v27H68.84V307.48A3.45,3.45,0,0,1,72.29,304h4.92A2,2,0,0,1,79.17,306Z" style="fill:#fff;opacity:0.2"></path><path d="M79.17,306v8.32H68.84v-6.83A3.45,3.45,0,0,1,72.29,304h4.92A2,2,0,0,1,79.17,306Z" style="opacity:0.4"></path><rect x="68.84" y="314.31" width="10.33" height="9.54" style="fill:#fff;opacity:0.7000000000000001"></rect><path d="M245.58,367.21H172.82a6.9,6.9,0,0,1-5.46-2.69l-1.48-1.91a6.85,6.85,0,0,1-1.39-3.48c-4-38.16.15-66.66.19-66.94a.51.51,0,0,1,.57-.42.49.49,0,0,1,.42.57c0,.28-4.18,28.66-.19,66.68a5.87,5.87,0,0,0,1.2,3l1.47,1.91a5.93,5.93,0,0,0,4.67,2.3h72.76a3.63,3.63,0,0,0,3.47-2.61L255.57,341a15.71,15.71,0,0,1,15-11.3h23.47a11,11,0,0,1,5.73,1.62l4.63,2.84a.5.5,0,0,1-.52.86l-4.63-2.85a10,10,0,0,0-5.21-1.47H270.59a14.71,14.71,0,0,0-14.06,10.58L250,363.88A4.64,4.64,0,0,1,245.58,367.21Z" style="opacity:0.2"></path><path d="M246.51,361.38a.5.5,0,0,1-.5-.45c-3.76-34.6,0-69.16,0-69.51a.51.51,0,0,1,.55-.44.5.5,0,0,1,.45.55c0,.35-3.75,34.81,0,69.29a.5.5,0,0,1-.44.55Z" style="opacity:0.2"></path><path d="M196.67,245.49a250.47,250.47,0,0,0-6.58,36.22h-4.26a257.57,257.57,0,0,1,7.62-36.08Z" style="fill:#fff;opacity:0.2"></path><path d="M187.73,280.7h0a.5.5,0,0,1-.45-.55c1.68-16,6.55-34.12,6.6-34.3a.5.5,0,0,1,.61-.35.49.49,0,0,1,.35.61c0,.18-4.89,18.2-6.56,34.14A.51.51,0,0,1,187.73,280.7Z" style="opacity:0.2"></path><path d="M185.86,361.38a.5.5,0,0,1-.5-.48,500.79,500.79,0,0,1,1.87-77.37.5.5,0,0,1,.56-.44.49.49,0,0,1,.43.56,500.89,500.89,0,0,0-1.86,77.2.51.51,0,0,1-.48.53Z" style="opacity:0.2"></path><path d="M417.61,305.28H401.35c-2.68-2.5-8.35-3.76-14.17-3.76H339.75c-5.85,0-7.63,3.76-7.63,3.76H309c-7.05-5.76-50.37-13.8-50.37-13.8,7-2.52,28.34-1.75,28.34-1.75A222.26,222.26,0,0,1,310,294c-6.77-3.52-20.31-5.63-20.31-5.63l6.15-2.54h34.1L353,289.48h12.88l4-.62a213.5,213.5,0,0,1,29.32,8L416.9,305Z" style="fill:#fff;opacity:0.2"></path><path d="M202.27,302.77H193.9a2.88,2.88,0,0,1-2.88-2.88h0A2.88,2.88,0,0,1,193.9,297h8.37a2.88,2.88,0,0,1,2.89,2.88h0A2.88,2.88,0,0,1,202.27,302.77Z" style="fill:#fff;opacity:0.2"></path><path d="M246.5,288.37H236.44l.65-9.34a1.56,1.56,0,0,1,1.56-1.45h6.18C245.85,283.79,246.5,288.37,246.5,288.37Z" style="fill:#fff;opacity:0.2"></path><rect x="228.92" y="270.5" width="10.63" height="15.33" rx="2.52" style="fill:#263238"></rect><rect x="228.92" y="270.5" width="10.63" height="15.33" rx="2.52" style="fill:#fff;opacity:0.4"></rect><path d="M239.16,277.38a9.23,9.23,0,0,0,2.72,1.94,1.6,1.6,0,0,1,1,1.39l.27,3.77a1.62,1.62,0,0,1-1.61,1.74H239.1a1.63,1.63,0,0,1-.75-.18l-2.58-1.34a1.62,1.62,0,0,1-.88-1.44v-4.73a1.63,1.63,0,0,1,1.63-1.62H238A1.65,1.65,0,0,1,239.16,277.38Z" style="fill:#263238"></path><path d="M239.16,277.38a9.23,9.23,0,0,0,2.72,1.94,1.6,1.6,0,0,1,1,1.39l.27,3.77a1.62,1.62,0,0,1-1.61,1.74H239.1a1.63,1.63,0,0,1-.75-.18l-2.58-1.34a1.62,1.62,0,0,1-.88-1.44v-4.73a1.63,1.63,0,0,1,1.63-1.62H238A1.65,1.65,0,0,1,239.16,277.38Z" style="fill:#fff;opacity:0.30000000000000004"></path><path d="M285.91,247.72s18.69,13,28.91,25.57a57.06,57.06,0,0,0-8.06-15.06s13.92,9.71,22.87,24.74l20.7,2.86h5.49s-21.62-25.13-35.05-35.6C320.77,250.23,304.16,248.35,285.91,247.72Z" style="fill:#fff;opacity:0.2"></path></g></svg>
