<svg xmlns="http://www.w3.org/2000/svg" viewBox="0 0 500 500"><g id="freepik--background-simple--inject-3"><path d="M471.6,314c-15,41.2-45.76,85.78-89,99-65.32,20-73.12,73.82-190.11,68.82a231.22,231.22,0,0,1-50.59-7.59,193.13,193.13,0,0,1-23.79-8.09c-68.34-28.32-104-90.65-106.95-155.86-3.91-85.77,54.59-126.66,92.61-150.59S187.63,42.93,302.67,46.92a224.38,224.38,0,0,1,52,7.77c38.71,10.72,78.07,34.42,100.93,69.08,1.72,2.6,3.36,5.27,4.93,8C491.13,184.87,492.1,257.8,471.6,314Z" style="fill:#92E3A9"></path><path d="M471.6,314c-15,41.2-45.76,85.78-89,99-65.32,20-73.12,73.82-190.11,68.82a231.22,231.22,0,0,1-50.59-7.59,193.13,193.13,0,0,1-23.79-8.09c-68.34-28.32-104-90.65-106.95-155.86-3.91-85.77,54.59-126.66,92.61-150.59S187.63,42.93,302.67,46.92a224.38,224.38,0,0,1,52,7.77c38.71,10.72,78.07,34.42,100.93,69.08,1.72,2.6,3.36,5.27,4.93,8C491.13,184.87,492.1,257.8,471.6,314Z" style="fill:#fff;opacity:0.7000000000000001"></path></g><g id="freepik--City--inject-3"><polyline points="488.51 271.37 465.86 271.37 465.86 200.37 440.93 200.37 440.93 241.91 428.85 241.91 428.85 140.71 416.76 140.71 416.76 168.65 405.43 168.65 405.43 124.09 386.55 124.09 386.55 227.56 378.24 227.56 378.24 249.46 368.43 249.46 368.43 171.67 348.79 171.67 348.79 232.85 341.24 232.85 341.24 100.68 307.25 100.68 307.25 258.53 243.05 258.53 243.05 155.06 230.97 155.06 230.97 115.78 208.31 115.78 208.31 74.24 165.26 74.24 165.26 152.03 147.89 152.03 147.89 235.11 116.92 235.11 116.92 166.57 86.79 166.57 86.79 243.42 64.05 243.42 64.05 198.11 37.62 198.11 37.62 273.63" style="fill:none;stroke:#263238;stroke-linecap:round;stroke-linejoin:round"></polyline></g><g id="freepik--Clouds--inject-3"><path d="M359.6,56.54a10.58,10.58,0,0,0-6.65,0c-8.93,3.25-5.68,8.93-11.37,11.37S322.9,57.34,318,61.4,311.53,72,308.28,73.59s-9.75-4.07-13,0L292,77.65h96" style="fill:none;stroke:#263238;stroke-linecap:round;stroke-linejoin:round"></path><path d="M393.55,77.65h57.69s2.44-8.94-4.06-13-8.12.81-15.43-.81c0,0-19.5-30.06-34.93-28.43s-14.62,13-20.31,21.93c-3.15,4.94-7.29,3.17-11.87,1.15" style="fill:none;stroke:#263238;stroke-linecap:round;stroke-linejoin:round"></path><path d="M436.79,99.67a5.84,5.84,0,0,0-3.65,0c-4.9,1.79-3.12,4.91-6.24,6.24s-10.25-5.79-12.92-3.56-3.57,5.79-5.35,6.68-5.35-2.23-7.13,0l-1.78,2.23h52.64" style="fill:none;stroke:#263238;stroke-linecap:round;stroke-linejoin:round"></path><path d="M455.41,111.25h31.65s1.34-4.9-2.23-7.13-4.45.45-8.46-.45c0,0-10.7-16.48-19.16-15.59s-8,7.13-11.15,12c-1.72,2.71-4,1.74-6.51.63" style="fill:none;stroke:#263238;stroke-linecap:round;stroke-linejoin:round"></path><path d="M158.1,46.05a5.77,5.77,0,0,0-3.65,0c-4.9,1.78-3.12,4.9-6.24,6.24S138,46.49,135.29,48.71s-3.57,5.8-5.35,6.69-5.35-2.23-7.13,0L121,57.63h52.63" style="fill:none;stroke:#263238;stroke-linecap:round;stroke-linejoin:round"></path><path d="M176.72,57.63h31.65s1.34-4.91-2.23-7.13-4.45.44-8.47-.45c0,0-10.69-16.49-19.16-15.6s-8,7.13-11.14,12c-1.72,2.71-4,1.74-6.51.63" style="fill:none;stroke:#263238;stroke-linecap:round;stroke-linejoin:round"></path></g><g id="freepik--Tree--inject-3"><path d="M138.07,249.51c0,48.71-28.81,88.19-64.35,88.19S9.37,298.22,9.37,249.51,38.18,33.42,73.72,33.42,138.07,200.81,138.07,249.51Z" style="fill:#92E3A9"></path><path d="M138.07,249.51c0,48.71-28.81,88.19-64.35,88.19S9.37,298.22,9.37,249.51,38.18,33.42,73.72,33.42,138.07,200.81,138.07,249.51Z" style="fill:#fff;opacity:0.5"></path><polygon points="109.8 275 90.31 282.2 94.22 270.47 84.91 284.2 75.61 287.64 74.94 249.12 108.8 204.15 90.65 222.29 93.72 209.68 85.04 227.9 74.75 238.19 73.72 178.01 70.03 265.78 37.95 231.78 55.57 255.74 38.96 253.89 59.48 261.05 69.65 274.87 67.87 317.19 56.04 309.16 67.5 325.95 62.07 455.28 78.5 455.28 75.71 293.79 109.8 275" style="fill:#7d7d7d"></polygon><path d="M109.12,178.2s.6,5.92-2.64,10.26-9.06,5.46-9.06,5.46-.6-5.91,2.63-10.25S109.12,178.2,109.12,178.2Z" style="fill:#fff"></path><path d="M128.52,205.45s.59,5.92-2.64,10.26-9.07,5.46-9.07,5.46-.59-5.91,2.64-10.25S128.52,205.45,128.52,205.45Z" style="fill:#fff"></path><path d="M128.51,258.51s-1.43,5.77-5.94,8.77-10.37,2.09-10.37,2.09,1.43-5.77,5.93-8.76S128.51,258.51,128.51,258.51Z" style="fill:#fff"></path><path d="M22,258.51s1.43,5.77,5.93,8.77,10.38,2.09,10.38,2.09-1.43-5.77-5.94-8.76S22,258.51,22,258.51Z" style="fill:#fff"></path><path d="M106.11,236.49s.59,5.91-2.64,10.25-9.07,5.46-9.07,5.46S93.81,246.29,97,242,106.11,236.49,106.11,236.49Z" style="fill:#fff"></path><path d="M101.08,148.56s.6,5.91-2.64,10.25-9.06,5.47-9.06,5.47S88.78,158.36,92,154,101.08,148.56,101.08,148.56Z" style="fill:#fff"></path><path d="M89.52,171.17s.6,5.91-2.63,10.25-9.07,5.47-9.07,5.47-.59-5.92,2.64-10.26S89.52,171.17,89.52,171.17Z" style="fill:#fff"></path><path d="M117,154.71s.59,5.91-2.64,10.25-9.06,5.46-9.06,5.46-.6-5.91,2.63-10.25S117,154.71,117,154.71Z" style="fill:#fff"></path><path d="M27.81,154.71s-.6,5.91,2.64,10.25,9.06,5.46,9.06,5.46.6-5.91-2.63-10.25S27.81,154.71,27.81,154.71Z" style="fill:#fff"></path><path d="M103.59,120.92s.6,5.92-2.63,10.26-9.07,5.46-9.07,5.46-.59-5.91,2.64-10.25S103.59,120.92,103.59,120.92Z" style="fill:#fff"></path><path d="M97.91,91.57s2.07,5.57,0,10.59-7.4,7.56-7.4,7.56-2.07-5.57,0-10.58S97.91,91.57,97.91,91.57Z" style="fill:#fff"></path><path d="M57.22,83.9s5.26,2.76,7.11,7.84-.43,10.58-.43,10.58-5.26-2.76-7.11-7.84S57.22,83.9,57.22,83.9Z" style="fill:#fff"></path><path d="M76.2,119s3.75,4.61,3.44,10-4.57,9.55-4.57,9.55-3.75-4.61-3.44-10S76.2,119,76.2,119Z" style="fill:#fff"></path><path d="M75.19,66.75s3.75,4.61,3.44,10-4.56,9.55-4.56,9.55-3.75-4.61-3.44-10S75.19,66.75,75.19,66.75Z" style="fill:#fff"></path><path d="M32.6,178.2s-.59,5.92,2.64,10.26,9.06,5.46,9.06,5.46.6-5.91-2.63-10.25S32.6,178.2,32.6,178.2Z" style="fill:#fff"></path><path d="M21.55,210.36s-.6,5.91,2.63,10.25,9.07,5.47,9.07,5.47.6-5.92-2.64-10.26S21.55,210.36,21.55,210.36Z" style="fill:#fff"></path><path d="M50.89,222s-.6,5.92,2.64,10.26,9.06,5.46,9.06,5.46.6-5.91-2.63-10.25S50.89,222,50.89,222Z" style="fill:#fff"></path><path d="M58.91,177.48s-2.26,5.49-.41,10.58,7.12,7.83,7.12,7.83,2.27-5.5.41-10.58S58.91,177.48,58.91,177.48Z" style="fill:#fff"></path><path d="M38.13,296s5.95.11,10-3.47,4.7-9.48,4.7-9.48-5.94-.11-10,3.47S38.13,296,38.13,296Z" style="fill:#fff"></path><path d="M95.14,289.54s1.62,5.72,6.22,8.57,10.43,1.77,10.43,1.77-1.61-5.72-6.21-8.58S95.14,289.54,95.14,289.54Z" style="fill:#fff"></path><path d="M44.76,148.56s-.59,5.91,2.64,10.25,9.07,5.47,9.07,5.47.59-5.92-2.64-10.26S44.76,148.56,44.76,148.56Z" style="fill:#fff"></path><path d="M44.66,122.43s-.59,5.91,2.64,10.25,9.06,5.47,9.06,5.47.6-5.91-2.63-10.25S44.66,122.43,44.66,122.43Z" style="fill:#fff"></path></g><g id="freepik--Car--inject-3"><path d="M34.24,418.18h66.49s-2.8-32.88-21.43-46.86-41.47-9.78-47.06-.46-6.52,29.35-5.12,31.68S34.24,418.18,34.24,418.18Z" style="fill:#263238;stroke:#263238;stroke-linecap:round;stroke-linejoin:round"></path><path d="M236.31,429.56h52.18l31.68-17.24s-8.39-36.34-29.35-47.05-38.35-7.08-47.83,11.14S236.31,429.56,236.31,429.56Z" style="fill:#263238;stroke:#263238;stroke-linecap:round;stroke-linejoin:round"></path><path d="M190.34,395.66h-12l0,0c-12.52.65-22.52,13.73-22.52,29.78s10,29.13,22.52,29.78l5.14,0h6.85c11.63,0,21.06-13.35,21.06-29.81S202,395.66,190.34,395.66Z" style="fill:#263238;stroke:#263238;stroke-linecap:round;stroke-linejoin:round"></path><path d="M397,381.08H382l0,0c-15.59.8-28,17.08-28,37.06s12.44,36.26,28,37.06l0,0H397c14.47,0,26.2-16.61,26.2-37.1S411.42,381.08,397,381.08Z" style="fill:#263238;stroke:#263238;stroke-linecap:round;stroke-linejoin:round"></path><path d="M292.56,381.08H273.65v7.17c-6.5,6.75-10.72,17.64-10.72,29.93s4.22,23.18,10.72,29.93v7.17h18.91c14.47,0,26.2-16.61,26.2-37.1S307,381.08,292.56,381.08Z" style="fill:#263238;stroke:#263238;stroke-linecap:round;stroke-linejoin:round"></path><path d="M73.68,381.08H59v7.17c-6.16,6.75-10.15,17.64-10.15,29.93s4,23.18,10.15,29.93v7.17H73.68c13.7,0,24.8-16.61,24.8-37.1S87.38,381.08,73.68,381.08Z" style="fill:#263238;stroke:#263238;stroke-linecap:round;stroke-linejoin:round"></path><path d="M439.73,411.53l-1.08-12.23,1.44-6.11.36-7.92-7.19-11.87s-.36-15.47-1.08-17.26-10.79-9.72-20.87-12.95-71.58-10.79-71.58-10.79-34.53-27.7-46.4-33.46-15.82-6.47-28.41-10.07-38.49-3.59-38.49-3.59l-37.05-2.16s-45.32-1.8-70.14.72S81.83,290.31,80.39,291l-4.32,2.16s-15.82,3.6-18,5.75-4.32,5.4.72,10.8L30.75,340.31s-5,.36-4.67,3.6.36,27.69.36,27.69l-2.88,4s-2.16,19.06-1.08,22.3a126.66,126.66,0,0,0,6.47,14,17.37,17.37,0,0,0,4.68,4.68l.55.29c-1.6-5.17-4.71-15.69-4.71-19.05,0-4.5,2.25-18.59,12.39-23.1s22-4.22,31.55,3.39,13,23.09,16.06,32.67,6.76,16.06,11,18.88l2.6,1.71c2.25,0,3.6-.05,3.6-.05l139.92,3.24v-6.11s-5.75-2.16-6.83-3.24-5-15.47-1.44-28.78,14.75-26.62,29.13-27.69,30.94,7.55,36.69,21.58S312,425.56,312.76,427s2.51,2.51,6.47,3.59l4,1.08,7.19,3.24,94.6-5s14.39-6.11,16.19-9.35S439.73,411.53,439.73,411.53Z" style="fill:#fff;stroke:#263238;stroke-linecap:round;stroke-linejoin:round"></path><path d="M339.73,332.4s-34.53-27.7-46.4-33.46-15.82-6.47-28.41-10.07-38.49-3.59-38.49-3.59l-37.05-2.16s-45.32-1.8-70.14.72S81.83,290.31,80.39,291l-4.32,2.16s-15.82,3.6-18,5.75-4.32,5.4.72,10.8h18L101.25,331l130.57,4.67.36-3.95,103.6-.36A7,7,0,0,1,339.73,332.4Z" style="fill:#263238;stroke:#263238;stroke-linecap:round;stroke-linejoin:round"></path><path d="M339.73,332.4s-34.53-27.7-46.4-33.46c-4-1.93-7.07-3.29-9.9-4.38-5.82-1.1-11.68-1.73-11.68-1.73l-75.54-5.76a190.74,190.74,0,0,1,22.66,19.07c9.3,9.29,19.73,22.51,22.65,25.5l94.26-.32A7,7,0,0,1,339.73,332.4Z" style="fill:#c4c4c4;stroke:#263238;stroke-linecap:round;stroke-linejoin:round"></path><path d="M104.09,331.06l34.72,1.24c.78-6,2.38-17.06,4.17-22.92a144.12,144.12,0,0,1,6.83-17.27L112,294.27S106,316.18,104.09,331.06Z" style="fill:#8c8c8c;stroke:#263238;stroke-linecap:round;stroke-linejoin:round"></path><path d="M101.25,331s5.63-30.34,8.45-35.78c0,0-15.4,1.12-19.34,3.56-3,1.83-9.45,8.57-12.56,11.87Z" style="fill:#c4c4c4;stroke:#263238;stroke-linecap:round;stroke-linejoin:round"></path><path d="M227.87,333.12s-19.79-25.54-30.94-32.38-31.65-7.91-33.81-8.27l-2.16-.36s-9.86,15.15-7.57,40.71l75.72,2.72Z" style="fill:#c4c4c4;stroke:#263238;stroke-linecap:round;stroke-linejoin:round"></path><path d="M211,333.12s4.32-5,2.88-9.36-4.68-4.67-6.84-5-13.3-1.44-17.62,1.08-5.76,10.43-3.6,11.87,13.67.72,13.67.72,4.68,7.91,6.48,8.27,5.39,0,6.11-1.8S211,333.12,211,333.12Z" style="fill:none;stroke:#263238;stroke-linecap:round;stroke-linejoin:round"></path><path d="M211,333.12s4.32-5,2.88-9.36-4.68-4.67-6.84-5-13.3-1.44-17.62,1.08-5.76,10.43-3.6,11.87,13.67.72,13.67.72,4.68,7.91,6.48,8.27,5.39,0,6.11-1.8S211,333.12,211,333.12Z" style="fill:#263238;stroke:#263238;stroke-linecap:round;stroke-linejoin:round"></path><path d="M317.08,382.32S365,384.86,369.76,386s9.57,2.82,9.57,2.82l58.32-2" style="fill:none;stroke:#263238;stroke-linecap:round;stroke-linejoin:round"></path><path d="M231.44,340.07s-5.35,29.86-3.94,61.12" style="fill:none;stroke:#263238;stroke-linecap:round;stroke-linejoin:round"></path><path d="M230,347.11,296,351.33s67.61,8.74,70.43,8.45,5.91-.28,5.91-.28" style="fill:none;stroke:#263238;stroke-linecap:round;stroke-linejoin:round"></path><path d="M430.32,356.69a226.73,226.73,0,0,0-22.82-1.13c-14.18,0-30.6,1.26-32.11,1.41-2.82.28-3.94,3.38-3.94,5.63s0,11.27.84,13,8.45,8.17,12.68,8.17,39.44.28,42.82-2,5.47-8.36,5.47-8.36" style="fill:none;stroke:#263238;stroke-linecap:round;stroke-linejoin:round"></path><path d="M302.15,352.74s8.73,11,13,13.81,5.07,3.09,7.32,3.38,26.76,2,30.14,2,5.64-.28,7-1.69,4.79-10.43,4.79-10.43Z" style="fill:#92E3A9;stroke:#263238;stroke-linecap:round;stroke-linejoin:round"></path><path d="M328.35,398.38s-3.1,8.73-3.1,10.14,3.1,3.38,4.22,3.38,22.26.28,23.67-.28,9-8.74,8.73-9.86-4.51-3.1-4.51-3.1Z" style="fill:#263238;stroke:#263238;stroke-linecap:round;stroke-linejoin:round"></path><path d="M441.17,420.52c1.8-3.23-1.44-9-1.44-9l-4.34-8.65-58.87,1.41s-9,11.83-10.43,12.4a12.26,12.26,0,0,1-3.66.56s-34.93-1.41-37.46-2.53-4.51-4.51-5.64-5.36-5.35-2-5.35-2-3.66-16.9-10.14-25.63-20.85-16.34-31-17.47-24.22,5.35-29.86,12.12S233.7,393,232.85,403.73l-8.45-1.13s-5.92,6.2-9.3,7.61S112,406.55,109.19,405.7,99,397.81,97.35,397.25s-8.17-1.41-8.17-1.41-4.22-18-14.64-24.79-24.51-6.76-32.68-2S30,382.6,28.9,385.42s-1.69,4.51-1.69,4.51l-4.81-1.5c-.26,4.2-.36,8.12.08,9.43a126.66,126.66,0,0,0,6.47,14,17.37,17.37,0,0,0,4.68,4.68l.55.29c-1.6-5.17-4.71-15.69-4.71-19.05,0-4.5,2.25-18.59,12.39-23.1s22-4.22,31.55,3.39,13,23.09,16.06,32.67,6.76,16.06,11,18.88l2.6,1.71c2.25,0,3.6-.05,3.6-.05l139.92,3.24v-6.11s-5.75-2.16-6.83-3.24-5-15.47-1.44-28.78,14.75-26.62,29.13-27.69,30.94,7.55,36.69,21.58S312,425.56,312.76,427s2.51,2.51,6.47,3.59l4,1.08,7.19,3.24,94.6-5S439.37,423.76,441.17,420.52Z" style="fill:#545454;stroke:#263238;stroke-linecap:round;stroke-linejoin:round"></path><ellipse cx="59.04" cy="418.18" rx="24.8" ry="37.1" style="fill:#787878;stroke:#263238;stroke-linecap:round;stroke-linejoin:round"></ellipse><ellipse cx="59.04" cy="418.18" rx="19.37" ry="28.99" style="fill:#fff;stroke:#263238;stroke-linecap:round;stroke-linejoin:round"></ellipse><ellipse cx="59.04" cy="418.18" rx="2.43" ry="3.64" style="fill:#fff;stroke:#263238;stroke-linecap:round;stroke-linejoin:round"></ellipse><path d="M26.08,343.91c.14,1.27.22,5.84.27,10.9,1.88-.19,4.89-.53,6.41-.78,2.3-.39,8.05-10.16,9.2-11.31a1.68,1.68,0,0,0,.19-2.3H32l-.73-.66-.51.55S25.72,340.67,26.08,343.91Z" style="fill:#92E3A9;stroke:#263238;stroke-linecap:round;stroke-linejoin:round"></path><path d="M75.16,312.29s-8,24.41-8.06,26.84,5.63,29.26,5.63,29.26" style="fill:none;stroke:#263238;stroke-linecap:round;stroke-linejoin:round"></path><path d="M81.68,347.41a5.49,5.49,0,0,1,.55,2c-.11.55-4.09-.66-4.75-1.33a4,4,0,0,1-.77-2.1s.22-1.76.77-2.09,6.41-.45,6.41-.45-.89.45,2,.67a17.3,17.3,0,0,0,5.31-.45s4.19,1.11,4.19,2a7.67,7.67,0,0,1-.44,2.1l-4.09,1.44.23-1S83.56,347,81.68,347.41Z" style="fill:none;stroke:#263238;stroke-linecap:round;stroke-linejoin:round"></path><path d="M82.56,350.72a16.23,16.23,0,0,0,7,.45" style="fill:none;stroke:#263238;stroke-linecap:round;stroke-linejoin:round"></path><path d="M152.59,349.65a5.42,5.42,0,0,1,.55,2c-.11.56-4.08-.66-4.75-1.32a4,4,0,0,1-.77-2.1s.22-1.77.77-2.1,6.41-.44,6.41-.44-.88.44,2,.66a17.45,17.45,0,0,0,5.3-.44s4.2,1.1,4.2,2a7.63,7.63,0,0,1-.45,2.1l-4.08,1.43.22-1S154.47,349.2,152.59,349.65Z" style="fill:none;stroke:#263238;stroke-linecap:round;stroke-linejoin:round"></path><path d="M153.47,353a16.31,16.31,0,0,0,7,.44" style="fill:none;stroke:#263238;stroke-linecap:round;stroke-linejoin:round"></path><path d="M143.87,336.68s-4.69,11.84-3.58,24.12,5.81,28.8,5.59,32.6-4,11.83-3.35,13" style="fill:none;stroke:#263238;stroke-linecap:round;stroke-linejoin:round"></path><ellipse cx="272.28" cy="418.18" rx="29.24" ry="37.1" style="fill:#787878;stroke:#263238;stroke-linecap:round;stroke-linejoin:round"></ellipse><ellipse cx="272.28" cy="418.18" rx="22.85" ry="28.99" style="fill:#fff;stroke:#263238;stroke-linecap:round;stroke-linejoin:round"></ellipse><path d="M275.31,418.18c0,2-1.15,3.63-2.57,3.63s-2.57-1.62-2.57-3.63,1.15-3.64,2.57-3.64S275.31,416.17,275.31,418.18Z" style="fill:#fff;stroke:#263238;stroke-linecap:round;stroke-linejoin:round"></path><path d="M412.57,368.46c0,3.61-2.39,6.53-5.34,6.53s-5.34-2.92-5.34-6.53,2.39-6.52,5.34-6.52S412.57,364.86,412.57,368.46Z" style="fill:#fff;stroke:#263238;stroke-linecap:round;stroke-linejoin:round"></path><path d="M285.72,295.48c-.79-.33-1.55-.64-2.29-.92-1.58-.3-3.17-.57-4.64-.79l19.88,37.67,8.43,0Z" style="fill:#fff;stroke:#263238;stroke-linecap:round;stroke-linejoin:round"></path></g><g id="freepik--Floor--inject-3"><line x1="13.16" y1="455.28" x2="493.21" y2="455.28" style="fill:none;stroke:#263238;stroke-linecap:round;stroke-linejoin:round"></line></g><g id="freepik--Poles--inject-3"><path d="M343.9,453H327.68V295.14a8.11,8.11,0,0,1,8.11-8.11h0a8.11,8.11,0,0,1,8.11,8.11Z" style="fill:#fff;stroke:#263238;stroke-linecap:round;stroke-linejoin:round"></path><rect x="327.68" y="299.1" width="16.22" height="5.66" style="fill:#fff;stroke:#263238;stroke-linecap:round;stroke-linejoin:round"></rect><rect x="312.78" y="453.02" width="45.65" height="2.26" style="fill:#fff;stroke:#263238;stroke-linecap:round;stroke-linejoin:round"></rect><path d="M414.93,453H398.71V295.14a8.11,8.11,0,0,1,8.11-8.11h0a8.11,8.11,0,0,1,8.11,8.11Z" style="fill:#fff;stroke:#263238;stroke-linecap:round;stroke-linejoin:round"></path><rect x="398.71" y="299.1" width="16.22" height="5.66" style="fill:#fff;stroke:#263238;stroke-linecap:round;stroke-linejoin:round"></rect><rect x="383.81" y="453.02" width="45.65" height="2.26" style="fill:#fff;stroke:#263238;stroke-linecap:round;stroke-linejoin:round"></rect></g><g id="freepik--parking-machine--inject-3"><rect x="276.61" y="282.62" width="10.04" height="147.62" style="fill:#8c8c8c;stroke:#263238;stroke-linecap:round;stroke-linejoin:round"></rect><rect x="285.67" y="282.62" width="30.16" height="147.62" style="fill:#263238;stroke:#263238;stroke-linecap:round;stroke-linejoin:round"></rect><rect x="250.52" y="172.21" width="31.72" height="114.99" style="fill:#8c8c8c;stroke:#263238;stroke-linecap:round;stroke-linejoin:round"></rect><rect x="282.19" y="172.21" width="39.89" height="114.99" style="fill:#263238;stroke:#263238;stroke-linecap:round;stroke-linejoin:round"></rect><rect x="255.59" y="181.07" width="23.24" height="58.75" rx="4.02" style="fill:#8c8c8c;stroke:#263238;stroke-linecap:round;stroke-linejoin:round"></rect><rect x="267.78" y="183.62" width="7.92" height="14.56" rx="1.82" style="fill:#fff;stroke:#263238;stroke-linecap:round;stroke-linejoin:round"></rect><rect x="269.99" y="184.85" width="1.8" height="12.02" style="fill:#263238;stroke:#263238;stroke-linecap:round;stroke-linejoin:round"></rect><path d="M275.7,196.46V185.34a1.72,1.72,0,0,0-1.72-1.72v14.56A1.72,1.72,0,0,0,275.7,196.46Z" style="fill:#263238;stroke:#263238;stroke-linecap:round;stroke-linejoin:round"></path><rect x="256.91" y="183.6" width="6.6" height="16.26" rx="1.98" style="fill:none;stroke:#263238;stroke-linecap:round;stroke-linejoin:round"></rect><rect x="257.49" y="202.56" width="18.76" height="25.41" style="fill:none;stroke:#263238;stroke-linecap:round;stroke-linejoin:round"></rect><polygon points="310.35 172.21 272.15 172.21 272.15 136.56 310.35 132.47 310.35 172.21" style="fill:#8c8c8c;stroke:#263238;stroke-linecap:round;stroke-linejoin:round"></polygon><polygon points="282.9 172.21 310.35 172.21 310.35 132.47 282.9 135.41 282.9 172.21" style="fill:#263238;stroke:#263238;stroke-linecap:round;stroke-linejoin:round"></polygon><path d="M293.05,112.35a2,2,0,0,0-.6,0s-34.11,8-53,20a4.66,4.66,0,0,0,.51,3.07c.86,1.19,10.23,3.58,10.23,3.58h33.09l42.29-26.6Z" style="fill:#8c8c8c;stroke:#263238;stroke-linecap:round;stroke-linejoin:round"></path><path d="M249.82,128.73h26.54s14.89-9.17,38.19-14.78H292.33S259.64,123.44,249.82,128.73Z" style="fill:#263238;stroke:#263238;stroke-linecap:round;stroke-linejoin:round"></path><path d="M239.92,135.37c.86,1.19,10.23,3.58,10.23,3.58h33.09L272.5,132.3H239.41A4.66,4.66,0,0,0,239.92,135.37Z" style="fill:#8c8c8c;stroke:#263238;stroke-linecap:round;stroke-linejoin:round"></path><path d="M325.53,112.35s-34.11,8-53,20a4.59,4.59,0,0,0,.51,3.07c.85,1.19,10.23,3.58,10.23,3.58s21.83-2.56,34.62-11.08S328.77,111.84,325.53,112.35Z" style="fill:#263238;stroke:#263238;stroke-linecap:round;stroke-linejoin:round"></path><ellipse cx="297.84" cy="155.73" rx="11.43" ry="13.64" style="fill:#92E3A9;stroke:#263238;stroke-linecap:round;stroke-linejoin:round"></ellipse><path d="M293.28,165.29V146.23h6.39a5.56,5.56,0,0,1,2.83.65,4,4,0,0,1,1.64,1.88,7.52,7.52,0,0,1,.54,3,6.48,6.48,0,0,1-.72,3.38,3.86,3.86,0,0,1-2,1.61,8.22,8.22,0,0,1-2.8.45h-1.69v8.09Zm4.21-11h1.41a2,2,0,0,0,1.17-.29,1.33,1.33,0,0,0,.53-.84,6.43,6.43,0,0,0,.13-1.44,7,7,0,0,0-.1-1.28,1.43,1.43,0,0,0-.51-.88,2,2,0,0,0-1.25-.33h-1.38Z" style="fill:#263238"></path><ellipse cx="301.84" cy="209.34" rx="18.28" ry="21.82" style="fill:#92E3A9;stroke:#263238;stroke-linecap:round;stroke-linejoin:round"></ellipse><path d="M290.42,209.81V194.52h5.13a4.43,4.43,0,0,1,2.27.52,3.15,3.15,0,0,1,1.32,1.51,6,6,0,0,1,.43,2.4,5.13,5.13,0,0,1-.58,2.71,3,3,0,0,1-1.59,1.3,6.9,6.9,0,0,1-2.25.35H293.8v6.5ZM293.8,201h1.13a1.63,1.63,0,0,0,.94-.22,1.12,1.12,0,0,0,.43-.68,5.28,5.28,0,0,0,.1-1.15,6.16,6.16,0,0,0-.08-1,1.21,1.21,0,0,0-.41-.71,1.55,1.55,0,0,0-1-.26H293.8Z" style="fill:#263238"></path><line x1="301.05" y1="198.93" x2="312.35" y2="198.93" style="fill:none;stroke:#263238;stroke-miterlimit:10"></line><line x1="295.14" y1="205.85" x2="316.74" y2="205.85" style="fill:none;stroke:#263238;stroke-miterlimit:10"></line><line x1="295.14" y1="209.56" x2="316.4" y2="209.56" style="fill:none;stroke:#263238;stroke-miterlimit:10"></line><line x1="288.06" y1="215.63" x2="315.73" y2="215.63" style="fill:none;stroke:#263238;stroke-miterlimit:10"></line><line x1="289.24" y1="220.02" x2="313.87" y2="220.02" style="fill:none;stroke:#263238;stroke-miterlimit:10"></line><line x1="292.11" y1="223.05" x2="310.16" y2="223.05" style="fill:none;stroke:#263238;stroke-miterlimit:10"></line><rect x="262.73" y="429.03" width="68.48" height="26.25" style="fill:#8c8c8c;stroke:#263238;stroke-linecap:round;stroke-linejoin:round"></rect><rect x="289.99" y="429.03" width="41.22" height="26.25" style="fill:#263238;stroke:#263238;stroke-linecap:round;stroke-linejoin:round"></rect></g><g id="freepik--Character--inject-3"><path d="M168.11,136.7s-4.89,3.42-5.21,9.29S166,162.6,166,163.57,163.87,174,163.87,174l19.06,11.23,4.88-10.42s7.33-.33,8-1.47,2.77-11.23,2.77-11.23l3.26-.82-3.91-8s.49-3.25.49-3.74-2.12-7.17-2.61-8.47-3.09-7-13.52-7.65S168.11,136.7,168.11,136.7Z" style="fill:#fff;stroke:#263238;stroke-linecap:round;stroke-linejoin:round"></path><path d="M182.27,133.45c-10.42-.66-14.16,3.25-14.16,3.25s-4.89,3.42-5.21,9.29c-.29,5.13,2.3,14,2.95,16.8,1.42.94,3.39,2.05,4.37,1.76,1.63-.49-.32-4.23,1.14-7.65s6.36-4.08,7.66-3.91,2.28,2.93,2.28,2.93l2.11-.16-.16-4.4s3.26-2.44,4.07-3.91-2.28-6.68-2.28-6.68l10.24-.75C194.11,137.91,190.82,134,182.27,133.45Z" style="fill:#263238;stroke:#263238;stroke-linecap:round;stroke-linejoin:round"></path><path d="M178.54,155.85s-1.46-4.56-4.37-3.28-2.55,6.19-1.83,8,4,2.92,5.1,2" style="fill:#fff;stroke:#263238;stroke-linecap:round;stroke-linejoin:round"></path><path d="M196.44,152.34a4.15,4.15,0,0,0-3.91.65" style="fill:none;stroke:#263238;stroke-linecap:round;stroke-linejoin:round"></path><path d="M195.63,154.78c0,.81-.4,1.46-.9,1.46s-.89-.65-.89-1.46.4-1.47.89-1.47S195.63,154,195.63,154.78Z" style="fill:#263238"></path><path d="M196.28,166.5s-2.12.17-3.09-1.14" style="fill:none;stroke:#263238;stroke-linecap:round;stroke-linejoin:round"></path><line x1="196.44" y1="156.24" x2="194.81" y2="157.38" style="fill:none;stroke:#263238;stroke-linecap:round;stroke-linejoin:round"></line><path d="M187.81,174.81a16,16,0,0,1-4.23-2.12c-1.31-1.14-2-1.79-2-1.79l4.73,7.33Z" style="fill:#263238;stroke:#263238;stroke-linecap:round;stroke-linejoin:round"></path><path d="M196.51,297.66s1.68,33.64.42,46.67-2.52,21.66-3.58,23.76-8.2,11.78-8.2,11.78-5.25,26.49-4.62,30.27a20,20,0,0,1-1.26,10.31c-1.05,2.52-3,16.11-3,16.74s13.46,9,16.19,9.88,5.05.42,6.1,3.15.42,4.84-2.1,4.84-26.92-1.68-30.49-2.31-6.73-1.48-6.73-1.48,4-58.79,4-63,6.3-67.29,6.3-71.7-1.05-18.08-1.05-18.08Z" style="fill:#263238;stroke:#263238;stroke-linecap:round;stroke-linejoin:round"></path><path d="M152.77,297.24s-.63,10.72,2.53,16.82a112.26,112.26,0,0,1,4.83,10.51s-1.68,28-4.83,45-4.42,42.69-5.05,51.1-.21,23.19-.21,23.19-1.68,9.47-1,10.1,16.61.77,23.76,1.19,20.39,0,21.66-2.73.84-4.84-1.06-5.68-13.87-5.89-14.92-6.73a23.09,23.09,0,0,1-3-3.78s-.84-8.2-.84-10.1v-12.4c0-2.31-1-5.26-.63-8s4.21-25.44,5.47-28.39,3.78-14.29,4.83-19.13,7.15-26.07,8.62-34.69,4-24.39,4-24.39Z" style="fill:#263238;stroke:#263238;stroke-linecap:round;stroke-linejoin:round"></path><path d="M158.66,415.61c-1.3,14.45-1.26,16.4-1.26,16.4" style="fill:none;stroke:#878787;stroke-linecap:round;stroke-linejoin:round"></path><path d="M175.18,319.94c0,10.83-.61,26.16-3.69,37-5.26,18.5-11.36,38.9-12.83,54.67" style="fill:none;stroke:#878787;stroke-linecap:round;stroke-linejoin:round"></path><path d="M174.85,306.91s.23,3.85.31,9.66" style="fill:none;stroke:#878787;stroke-linecap:round;stroke-linejoin:round"></path><path d="M194.41,452.41c1.26-2.74.84-4.84-1.06-5.68s-13.87-5.89-14.92-6.73a23.09,23.09,0,0,1-3-3.78s-7.15,3.78-13.88,4.83a68.8,68.8,0,0,0-11.56,2.8s-1.68,9.47-1,10.1,13,1.46,20.19,1.88S193.14,455.14,194.41,452.41Z" style="fill:#92E3A9;stroke:#263238;stroke-linecap:round;stroke-linejoin:round"></path><path d="M194.41,452.41a5.64,5.64,0,0,0,.55-3.89c-4.11,1-13.11,2.89-19.27,3.05-6.95.17-22.07-.67-26.5-2.23-.3,2.22-.49,4.32-.2,4.61.63.63,13,1.46,20.19,1.88S193.14,455.14,194.41,452.41Z" style="fill:#fff;stroke:#263238;stroke-linecap:round;stroke-linejoin:round"></path><path d="M160.75,178.71s-10.32,16.62-11.27,23.12-.77,61.14-.77,61.14l-1,38.4s59.42,1.91,64-.19,8.79-5.54,8-11.27-5.54-45.86-14.52-67.83-18.54-28.85-18.54-28.85S171.64,183.1,160.75,178.71Z" style="fill:#92E3A9;stroke:#263238;stroke-linecap:round;stroke-linejoin:round"></path><path d="M209.57,262.43l-29,3.41s.85,7,2.22,7.51,14.51,3.42,15.19,3.24,13.14-5.46,13.48-7a32.28,32.28,0,0,0,.35-5" style="fill:none;stroke:#263238;stroke-linecap:round;stroke-linejoin:round"></path><path d="M162.08,172.53s-3.74,6.35-2.93,6.68,17.91,8,19.87,9.28,13.35,10.26,13.35,10.26-7.65-14-9.44-15.64S162.08,172.53,162.08,172.53Z" style="fill:#92E3A9;stroke:#263238;stroke-linecap:round;stroke-linejoin:round"></path><path d="M264.89,238.73l7.32-.94a43.51,43.51,0,0,0-6.74-2c-2.25-.28-8.42.56-8.42.56l3.79,2.39Z" style="fill:#fff;stroke:#263238;stroke-linecap:round;stroke-linejoin:round"></path><path d="M264.89,238.73c0-.58-2.68-.1-2.68-.1l-.09.13c-1.57-1.38-3.93-3-3.93-3s2.68.1,2.88-.57-1.92-.58-2.21-.77-5.07-2.1-5.36-2.3-4.11-1.05-5.17-.76S237.52,234,237.52,234l4.4,11a35.44,35.44,0,0,0,8.62-.2,12.4,12.4,0,0,0,7.75-3.63,14.79,14.79,0,0,1,2.11,0h.1c.6,0,2.5.14,3-.67C265.09,239.78,264.89,239.3,264.89,238.73Z" style="fill:#fff;stroke:#263238;stroke-linecap:round;stroke-linejoin:round"></path><path d="M258.19,235.76s-3.54-1.91-4.4-2.3a24.1,24.1,0,0,0-3.06-.86" style="fill:none;stroke:#263238;stroke-linecap:round;stroke-linejoin:round"></path><line x1="255.51" y1="240.36" x2="258.96" y2="241.03" style="fill:none;stroke:#263238;stroke-linecap:round;stroke-linejoin:round"></line><path d="M161.9,221.7s23.5,28.47,27.89,31.33a19.76,19.76,0,0,0,7.64,3.25l37.07-4s3.44,1.91,4.58,1.33,4.21-3.24,3.44-9.74-3.82-11.27-5.92-11.08a38.16,38.16,0,0,0-6.31,1.53c-.57.19-8.59.76-8.59.76s-10.13-.19-11.85,0-6.3-1.34-7.83-3a61.38,61.38,0,0,0-5.73-5s-9.56-30.76-13.57-33.44-14.14-7.83-18.91.77" style="fill:#92E3A9;stroke:#263238;stroke-linecap:round;stroke-linejoin:round"></path><path d="M231.64,236.16s4.25,1.71,2.27,13.62" style="fill:none;stroke:#263238;stroke-linecap:round;stroke-linejoin:round"></path></g></svg>
