<svg xmlns="http://www.w3.org/2000/svg" viewBox="0 0 500 500"><g id="freepik--Shadows--inject-5"><polygon id="freepik--Shadow--inject-5" points="211.28 483.43 48.74 389.52 306 240.95 468.54 334.86 211.28 483.43" style="fill:#e0e0e0"></polygon><path id="freepik--shadow--inject-5" d="M322.8,468.67a10.37,10.37,0,0,1-5.09-1.25l-3.83-2.21a4.3,4.3,0,0,1,0-8L364.33,428c-4.5-5-6.49-10.61-5.79-16.36.9-7.33,6.26-14.18,15.11-19.29,9.57-5.53,22.27-8.57,35.76-8.57s26.19,3,35.77,8.57c9.83,5.67,15.24,13.31,15.24,21.5s-5.41,15.82-15.24,21.49c-9.58,5.53-22.28,8.57-35.76,8.57h0c-13,0-25.28-2.83-34.72-8l-46.2,31.14A10.48,10.48,0,0,1,322.8,468.67Z" style="fill:#e0e0e0"></path><path id="freepik--shadow--inject-5" d="M156.55,472.72l-11.76-13.36h0l-68.52-39.7h0l-2.49-1.44-4.07-2.35-.28-.16.1,0-3.91-2.24v0l-16-9.21c-3.09-2.11-7.72,2.17-9.52,6.49h0a10.31,10.31,0,0,0-.63,2c-.35,1.79,0,3.41,1.28,4.32l13,7.51,3.54,2,0,0,2.92,1.68.28.15,3.38,1.95h0a.47.47,0,0,0,.13.11l2.84,1.61,70,40.57h0l17.16,3.39,4.67.93a.68.68,0,0,0,.59-.17.67.67,0,0,0,0-.94Z" style="fill:#e0e0e0"></path></g><g id="freepik--magnifying-glass--inject-5"><g id="freepik--Glass--inject-5"><path d="M452.78,400.93c0-6.53-4.31-13.07-12.95-18.05-17.27-10-45.26-10-62.53,0-8.63,5-12.95,11.52-12.95,18.05h0v12c0,6.54,4.32,13.07,12.95,18.05,17.27,10,45.26,10,62.53,0,8.64-5,12.95-11.51,12.95-18.05v-12Zm-73.34-14.35c7.71-4.45,18.05-6.9,29.13-6.9s21.41,2.45,29.12,6.9c7,4,10.82,9.12,10.82,14.35s-3.84,10.32-10.82,14.35c-7.71,4.45-18.05,6.9-29.12,6.9s-21.42-2.45-29.13-6.9c-7-4-10.81-9.12-10.81-14.35S372.47,390.61,379.44,386.58Z" style="fill:#750090"></path><path d="M377.3,419c17.27,10,45.26,10,62.53,0s17.27-26.13,0-36.1-45.26-10-62.53,0S360,409,377.3,419Zm-8.68-18.05c0-5.23,3.84-10.32,10.82-14.35,7.71-4.45,18.05-6.9,29.12-6.9s21.42,2.45,29.13,6.9c7,4,10.81,9.12,10.81,14.35s-3.84,10.32-10.81,14.35c-7.71,4.45-18.06,6.9-29.13,6.9s-21.41-2.45-29.12-6.9C372.46,411.25,368.62,406.16,368.62,400.93Z" style="fill:#fff;opacity:0.30000000000000004"></path><path d="M368.62,400.93a11.85,11.85,0,0,0,1.73,6c1.75-3,4.84-5.88,9.09-8.33,7.71-4.46,18.05-6.91,29.13-6.91s21.41,2.45,29.12,6.91c4.25,2.45,7.34,5.29,9.1,8.33a11.93,11.93,0,0,0,1.72-6c0-5.23-3.84-10.32-10.82-14.35-7.71-4.45-18.06-6.9-29.12-6.9s-21.42,2.45-29.13,6.9C372.46,390.61,368.62,395.7,368.62,400.93Z" style="fill:#750090"></path><path d="M368.62,400.93a11.85,11.85,0,0,0,1.73,6c1.75-3,4.84-5.88,9.09-8.33,7.71-4.46,18.05-6.91,29.13-6.91s21.41,2.45,29.12,6.91c4.25,2.45,7.34,5.29,9.1,8.33a11.93,11.93,0,0,0,1.72-6c0-5.23-3.84-10.32-10.82-14.35-7.71-4.45-18.06-6.9-29.12-6.9s-21.42,2.45-29.13,6.9C372.46,390.61,368.62,395.7,368.62,400.93Z" style="opacity:0.1"></path><path d="M379.44,392c7.71-4.45,18.05-6.9,29.12-6.9s21.42,2.45,29.13,6.9c5.75,3.32,9.37,7.37,10.46,11.62-1.09,4.25-4.71,8.3-10.46,11.63-7.71,4.45-18.06,6.9-29.13,6.9s-21.41-2.45-29.12-6.9c-5.76-3.33-9.37-7.38-10.46-11.63C370.07,399.4,373.68,395.35,379.44,392Z" style="fill:#fff;opacity:0.6000000000000001"></path><path d="M398.15,425.75v12A57.9,57.9,0,0,1,377.3,431c-8.63-5-12.95-11.52-12.95-18.05v-12a15.14,15.14,0,0,1,.53-3.94h0c-2.1,7.77,2,16,12.41,22A58.11,58.11,0,0,0,398.15,425.75Z" style="opacity:0.1"></path><path d="M378.62,426.64a6.88,6.88,0,0,0-3.08-5.38,2.21,2.21,0,0,0-2.18-.23h0l-14.88,8.49h0a2.21,2.21,0,0,0-.91,2,6.85,6.85,0,0,0,3.08,5.37,2.18,2.18,0,0,0,2.19.23h0l14.88-8.49h0A2.19,2.19,0,0,0,378.62,426.64Z" style="fill:#37474f"></path><path d="M377.69,428.65a2.19,2.19,0,0,0,.93-2,6,6,0,0,0-.53-2.32l-19.19,11a5.81,5.81,0,0,0,1.72,1.61,2.18,2.18,0,0,0,2.19.23l14.88-8.49Z" style="fill:#263238"></path><path d="M363.13,436.87a8.92,8.92,0,0,0-4-7,2.86,2.86,0,0,0-2.8-.31h0l0,0h0l-38.67,20.27,7.36,13,37-23.38A2.81,2.81,0,0,0,363.13,436.87Z" style="fill:#750090"></path><path d="M325,462.86l37-23.38a2.81,2.81,0,0,0,1.2-2.61,8.38,8.38,0,0,0-1.34-4.25l-40.61,23.53Z" style="opacity:0.1"></path><path d="M321.25,462.47a11.71,11.71,0,0,1-5.25-9.18c0-3.38,2.39-4.73,5.3-3a11.71,11.71,0,0,1,5.25,9.18C326.54,462.81,324.16,464.17,321.25,462.47Z" style="fill:#750090"></path><g style="opacity:0.2"><path d="M321.25,462.47a11.71,11.71,0,0,1-5.25-9.18c0-3.38,2.39-4.73,5.3-3a11.71,11.71,0,0,1,5.25,9.18C326.54,462.81,324.16,464.17,321.25,462.47Z"></path></g></g></g><g id="freepik--Pencil--inject-5"><g id="freepik--pencil--inject-5"><path d="M55.1,418.91l1.6.92L58.63,421l80.52,46.61c-.6-1.35-.13-4,1.24-6.62,1.6-3,4.05-5.38,5.83-5.47l-80-46.31L62.51,407C64.83,408.54,57.44,420.39,55.1,418.91Z" style="fill:#455a64"></path><path d="M66,409.05l-3.58-2c-1-.63-3,1.2-4.64,3.62-2.26,3.21-4.09,7.46-2.74,8.29l2.64,1.51,1,.53c-1.35-.84.48-5.09,2.74-8.3,1.62-2.31,3.48-4.09,4.51-3.66h0Z" style="fill:#ebebeb"></path><path d="M65.14,408.55c-2.36-1.46-9.73,10.44-7.37,11.91l3.58,2.06c-2.36-1.47,5-13.37,7.37-11.91Z" style="fill:#750090"></path><path d="M72.13,412.57l-3.53-2c-2.31-1.46-9.54,10-7.58,11.79l.12.09,3.57,2C62.4,422.94,69.78,411.09,72.13,412.57Z" style="fill:#ebebeb"></path><path d="M62.51,407v0l0,0c-1-.65-2.94,1.19-4.64,3.62-2.23,3.15-4,7.31-2.79,8.23L40.1,410.29c-1.2-.82-1.47-2.28-1.16-3.89.83-4.35,5.92-9.88,9.15-7.68Z" style="fill:#f28f8f"></path><path d="M155.74,468.11c-1.23,1.67-1.11,2.49-1.11,2.49l-15.48-3c-1.54-2.35-.53-6.16,1.6-8.88l.68.39Z" style="fill:#f28f8f"></path><path d="M158.84,471.43l-4.21-.83s-.19-.81,1.11-2.49l3.68,2.32h0a.61.61,0,0,1,0,.85A.62.62,0,0,1,158.84,471.43Z" style="fill:#37474f"></path><path d="M146.2,455.47h0l10.62,12.05a1.88,1.88,0,0,0-1.1.6l-14.31-9-.68-.39C142.2,456.83,144.17,455.49,146.2,455.47Z" style="fill:#ffa8a7"></path><path d="M155.74,468.11a1.46,1.46,0,0,1,1.1-.6l2.58,2.92Z" style="fill:#455a64"></path><path d="M140.75,458.68,40.45,402.77a10.93,10.93,0,0,0-1.51,3.63c-.32,1.62,0,3.06,1.17,3.89l15,8.62,1.6.92L58.63,421l80.52,46.61C137.26,464.64,139.33,460.34,140.75,458.68Z" style="opacity:0.2"></path></g></g><g id="freepik--Character--inject-5"><g id="freepik--character--inject-5"><g id="freepik--Chair--inject-5"><g id="freepik--chair--inject-5"><path d="M76.32,180c-2.56,6-4.32,13.28-5.1,22.43-1.46,17.19,4.36,72.87,7.85,97.77v0c5.06,41.6,11.26,41.67,20.27,48.64,15.51,12,60.1,35.46,74.82,41.25,26.69,10.51,48.51-5.69,64.78-13.73A378.59,378.59,0,0,0,282,350.82c4.05-3,6.16-6,6.12-9.11,0-1.24,0-6.35,0-7.67,0-4-3.54-8.32-11-13.16-13.79-8.95-63.61-38-82.92-48.7a.19.19,0,0,0-.15-.16c-14.86-9-23.8-70.31-34.09-102.92-.21-.7-.43-1.37-.66-2s-.36-1-.54-1.52c-.65-1.78-1.31-3.4-2-4.89" style="fill:#750090"></path><path d="M288.16,334c0-4-3.54-8.32-11-13.16-13.78-8.95-63.6-38-82.91-48.7a.19.19,0,0,0-.15-.16c-14.86-9-23.8-70.31-34.09-102.92a59.82,59.82,0,0,0-2.15-6c-.06-.15-.13-.29-.19-.44-.18-.43-.38-.87-.59-1.32-.09-.22-.19-.45-.29-.67h0c-1.67-3.51-4-7.36-6.87-9.92a15,15,0,0,0-3.36-2.36c-1.67-1-5.18-2.9-6.06-3.41-10.09-6-23.32,1.21-39.82,10.24-10.25,5.62-19,12.31-24.33,24.76h0c-2.56,6-4.32,13.28-5.1,22.43-1.46,17.19,4.36,72.87,7.85,97.77v0c5.06,41.6,11.26,41.67,20.27,48.64,15.51,12,60.1,35.46,74.82,41.25,26.69,10.51,48.51-5.69,64.78-13.73s36.24-20.54,43.08-25.51c4.06-3,6.17-6,6.13-9.11C288.13,340.47,288.16,335.36,288.16,334Z" style="fill:#750090"></path><path d="M288.16,334c0-4-3.54-8.32-11-13.16-13.78-8.95-63.6-38-82.91-48.7a.19.19,0,0,0-.15-.16c-14.86-9-23.8-70.31-34.09-102.92a59.82,59.82,0,0,0-2.15-6c-.06-.15-.13-.29-.19-.44-.18-.43-.38-.87-.59-1.32-.09-.22-.19-.45-.29-.67h0c-1.67-3.51-4-7.36-6.87-9.92a15,15,0,0,0-3.36-2.36c-1.67-1-5.18-2.9-6.06-3.41-10.09-6-23.32,1.21-39.82,10.24-10.25,5.62-19,12.31-24.33,24.76h0c-2.56,6-4.32,13.28-5.1,22.43-1.46,17.19,4.36,72.87,7.85,97.77v0c5.06,41.6,11.26,41.67,20.27,48.64,15.51,12,60.1,35.46,74.82,41.25,26.69,10.51,48.51-5.69,64.78-13.73s36.24-20.54,43.08-25.51c4.06-3,6.17-6,6.13-9.11C288.13,340.47,288.16,335.36,288.16,334Z" style="fill:#fff;opacity:0.25"></path><path d="M238.92,368.6A377.85,377.85,0,0,0,282,343.07c9.25-6.71,8.4-13.59-4.86-22.19-18.42-11.95-93.51-54.56-93.51-54.56s-94.93,56-90.85,66.37,62.84,42.35,81.36,49.63C200.84,392.82,222.66,376.63,238.92,368.6Z" style="fill:#750090"></path><path d="M238.92,368.6A377.85,377.85,0,0,0,282,343.07c9.25-6.71,8.4-13.59-4.86-22.19-18.42-11.95-93.51-54.56-93.51-54.56s-94.93,56-90.85,66.37,62.84,42.35,81.36,49.63C200.84,392.82,222.66,376.63,238.92,368.6Z" style="fill:#fff;opacity:0.6000000000000001"></path><path d="M146.53,148.4c-10-5.25-23,1.88-39,10.68-10.29,5.64-19.06,12.33-24.39,24.83L76.32,180c5.32-12.45,14.08-19.14,24.33-24.76,16.5-9,29.73-16.28,39.82-10.24C141.35,145.5,144.86,147.45,146.53,148.4Z" style="fill:#750090"></path><path d="M146.53,148.4c-10-5.25-23,1.88-39,10.68-10.29,5.64-19.06,12.33-24.39,24.83L76.32,180c5.32-12.45,14.08-19.14,24.33-24.76,16.5-9,29.73-16.28,39.82-10.24C141.35,145.5,144.86,147.45,146.53,148.4Z" style="fill:#fff;opacity:0.5"></path><path d="M160,169.1c-.21-.7-3.65-12.66-10.1-18.34A16.25,16.25,0,0,0,139,146.6c-8.73,0-19.2,5.77-31.49,12.48q-1.53.85-3,1.74c-.39.22-.77.45-1.14.68s-.91.56-1.36.85-.66.42-1,.65a57.48,57.48,0,0,0-6.18,4.7c-.32.27-.62.55-.93.85a44.89,44.89,0,0,0-3.51,3.64l-.59.69c-.23.29-.48.58-.69.87s-.45.59-.68.9-.44.59-.65.91a43.62,43.62,0,0,0-2.46,3.93c-.1.17-.2.34-.29.52-.2.36-.39.73-.58,1.11-.27.55-.53,1.1-.79,1.65-2.8,6.17-4.74,13.8-5.56,23.51-2.39,28.24,7.29,121.59,17,129.64,0,0-1.49-9.13,18-21.43,13.28-8.35,22.6-15.37,36.77-22.32,34.53-17,44.22-20.15,44.22-20.15C179.22,263,170.28,201.71,160,169.1Z" style="fill:#750090"></path><path d="M160,169.1c-.21-.7-3.65-12.66-10.1-18.34A16.25,16.25,0,0,0,139,146.6c-8.73,0-19.2,5.77-31.49,12.48q-1.53.85-3,1.74c-.39.22-.77.45-1.14.68s-.91.56-1.36.85-.66.42-1,.65a57.48,57.48,0,0,0-6.18,4.7c-.32.27-.62.55-.93.85a44.89,44.89,0,0,0-3.51,3.64l-.59.69c-.23.29-.48.58-.69.87s-.45.59-.68.9-.44.59-.65.91a43.62,43.62,0,0,0-2.46,3.93c-.1.17-.2.34-.29.52-.2.36-.39.73-.58,1.11-.27.55-.53,1.1-.79,1.65-2.8,6.17-4.74,13.8-5.56,23.51-2.39,28.24,7.29,121.59,17,129.64,0,0-1.49-9.13,18-21.43,13.28-8.35,22.6-15.37,36.77-22.32,34.53-17,44.22-20.15,44.22-20.15C179.22,263,170.28,201.71,160,169.1Z" style="fill:#fff;opacity:0.4"></path></g></g><g id="freepik--Bottom--inject-5"><path d="M114.83,277.79C108.75,296.51,109,315,112,325.13s6.22,24.1,33.42,37.77c31,15.59,67.33,30.6,67.33,30.6l107.62-62.22L219.62,281.56Z" style="fill:#750090"></path><path d="M114.83,277.79C108.75,296.51,109,315,112,325.13s6.22,24.1,33.42,37.77c31,15.59,67.33,30.6,67.33,30.6l107.62-62.22L219.62,281.56Z" style="opacity:0.15"></path><path d="M146,342.68c-.89-.79-1.75-1.58-2.58-2.38,7.24-2.7,10.71-12.37,8.76-22.7-1.11-5.93-2.38-12.65-2.2-19.15l-1.32,0c-.18,6.64,1.1,13.44,2.23,19.43,2,10.43-1.64,19.37-8.54,21.43-15.92-15.66-15.32-32.44-10.55-55.11l-1.29-.27c-5.23,24.85-4.66,42.65,14.61,59.78,12.67,11.26,61.47,32.71,80.85,42.18l1.39-.77C208.05,375.66,158.71,354,146,342.68Z" style="opacity:0.35000000000000003"></path><path d="M222.24,299.54c-2.72,13.18-10.39,20.09-10.39,20.09,16.57,9.75,54.09,30.76,63.69,37.57L286.25,351l-64.88-35.38C224.92,306.13,222.24,299.54,222.24,299.54Z" style="opacity:0.35000000000000003"></path></g><path id="freepik--Hair--inject-5" d="M127.87,70c-.47-15.53,29.66-32.76,58.19-14s18.37,37,16.45,42.54l1,79.81-92.61-2.54s2-67,1.66-78S115.92,74,127.87,70Z" style="fill:#263238"></path><path d="M222.24,251.88l18.3-8.34,7.61-4.8c-3.76-15.51-14-39.78-21.43-55.93-6-13.06-11.29-17.11-31.36-21.57L197.59,195Z" style="fill:#455a64"></path><path d="M109,304.89c.44-18.62,6.53-37.54,6.4-41.61-.59-17.66-5.76-40.77-7.53-51-3.85-22.26-1.25-39.9,3.85-44.42,0,0,16.87-6.09,23.3-7.78,3.86-1,.84,0,6.74-1a134.69,134.69,0,0,1,29.81-1.5c2.43.19,13.95,1.91,13.95,1.91,3.5.73,9.87,1.74,9.88,1.75s8.08,6.3,15.81,19.4c5.9,10,6.12,29,6.42,49.9.4,27.65,1.87,34.84,6.74,53.35C211.21,312.46,138.87,321.43,109,304.89Z" style="fill:#37474f"></path><path d="M111.68,167.86c-8.28,2.47-15.14,6.24-17,22.4s12.54,53.59,15,59.87,8.54,15.49,14.29,17.28,10.26-43.88,10.26-43.88-5.12-23.72-7.22-30.88S118.36,171.93,111.68,167.86Z" style="fill:#455a64"></path><g id="freepik--Head--inject-5"><path d="M190.63,76.25c-10.88-8.07-30.11-7.45-46.11,4.91,5.27,9.66-2.76,16.68-2.87,22.61,2.65,8.28-1.68,12.21-4.35,9.28-4.12-8.38-12.9-8-16.46-2.47-3.22,5-2.44,12.35,4.18,19.14,6.45,6.63,12.83,2.42,12.89,1,0,0,1.86,18.28,2.09,21.94s-.18,5.22-5,7.13c19.8,5.7,34.86,6.11,41.28-3.17-3.05-.77-2.94-3.07-3.3-6.11l-.78-6.08c7.32.08,11.06-.72,15.08-3.21,6-3.72,10.51-13.48,9.79-33C196.51,93.79,192.78,81.3,190.63,76.25Z" style="fill:#ffbda7"></path><path d="M172.17,144.47c-13.16-.38-26-3.76-29.33-9.5,0,0,.42,6.51,5.94,9.24,7.75,3.82,24,4.86,24,4.86Z" style="fill:#b16668"></path><path d="M180.71,82.57l7.67,3.08A4,4,0,0,1,183.14,88,4.35,4.35,0,0,1,180.71,82.57Z" style="fill:#263238"></path><path d="M179.73,79.28a.55.55,0,0,0-.66-.13,4.82,4.82,0,0,0-1.88,4.11,3,3,0,0,0,.2.83,1.73,1.73,0,0,0,.57.83.18.18,0,0,0,.24,0c.25-.21.15-.66.15-1s0-.46,0-.7a4.53,4.53,0,0,1,.19-1.26,4.73,4.73,0,0,1,1.32-2.08C180,79.73,179.87,79.42,179.73,79.28Zm-12,5.2a2.59,2.59,0,0,0-.56-.63,1.75,1.75,0,0,0-.89-.47.2.2,0,0,0-.22.11c-.12.31.18.66.33.93s.24.4.35.6a4.79,4.79,0,0,1,.43,1.2,4.72,4.72,0,0,1-.2,2.47c-.07.23.19.45.39.5A.56.56,0,0,0,168,89a4.57,4.57,0,0,0,.31-3.11A4.25,4.25,0,0,0,167.69,84.48Z" style="fill:#f0997a"></path><path d="M156.15,90.67l7.73-3.2a4,4,0,0,0-5.33-2.36A4.4,4.4,0,0,0,156.15,90.67Z" style="fill:#263238"></path><path d="M157.13,101.9c.38,1.84,2.62,2.95,5,2.46s4-2.37,3.63-4.21-1.58,1.25-4,1.74S156.74,100.06,157.13,101.9Z" style="fill:#263238"></path><path d="M182.19,99.42c-.21,1.87,1.57,3.62,4,3.91s4.55-1,4.76-2.86-1.88.7-4.3.41S182.4,97.55,182.19,99.42Z" style="fill:#263238"></path><path d="M177.92,123.83a3,3,0,0,0-.57-.39,4.86,4.86,0,0,0-.82-.19l-1.37-.26c-1-.17-2-.33-2.95-.46s-2.06-.28-3.1-.38A14.77,14.77,0,0,0,166,122c-.43,0-.36.62,0,.77a12.51,12.51,0,0,0,3.17.59c1,.14,2,.27,3,.42l2.9.41a6.86,6.86,0,0,0,3,.13C178.25,124.25,178,123.9,177.92,123.83Z" style="fill:#b16668"></path><path d="M145.91,94,126,106.82a8.58,8.58,0,0,1,6.54.94l14.31-9.07Z" style="fill:#455a64"></path><path d="M199.79,89.05c-5.21-.26-12.23,0-16.42,1.67-4.69,1.87-6.3,3.67-8.93,3.9-2.83.23-4.7-1.28-9.85-2.34-4.11-.83-11.31.09-16.44,1.06-1.77.16-3.36.82-3.26,3.18.33,2.2,1.79,2.45,2.27,4.22,1.21,6.15,3.3,13.78,11.42,13.58,16.77-.17,10.4-16.07,16.59-15.68,2.24.34,2.18,4.64,3.73,7.59a12,12,0,0,0,2.29,3.18c5.81,5.38,15.95,1.46,17.17-4.37,1.21-2.93.68-7.48,2-10C201.56,93.78,202.39,89.51,199.79,89.05ZM168.89,104a10.23,10.23,0,0,1-2.06,4.77,9.12,9.12,0,0,1-6.72,3.18c-3.61.23-7.33-1.2-8.49-4.64q-.21-.48-.39-.93c-.88-2.55-2.19-8-.91-9.68,2.35-2.83,14.35-3.45,18.12.35C169.48,98.33,169.33,101.35,168.89,104Zm28.43-3.34c-.29,1.82-.93,5.77-4.26,7.75-4.41,2.61-10.92.69-12.16-3.68-3.33-9.12.15-11.52,9.35-13.07C197.87,91.09,198.42,93,197.32,100.61Z" style="fill:#455a64"></path><path d="M185.58,112.18l-10.49,6-3-16.61a4.63,4.63,0,0,1,1.13-2.2Z" style="fill:#f0997a"></path></g><path d="M139.82,150.46c-3,.69-2.8,1.56-3,5.09s-3.87,3.71-4.15,5.18,11.31,12.83,31.45,9.05c20-3.74,17.91-12.16,17.91-12.16-.72-1.18-2.27-1.27-4.72-2.11s-2.5-1.45-2.54-3.27-.48-2.26-1.84-1.69l0,1.43s0,3.56-12.95,4.32c-14.15.83-20-3.6-20-3.6Z" style="fill:#455a64"></path><g id="freepik--Hand--inject-5"><path d="M155,139.92a9.93,9.93,0,0,1,1.14,7.29c-.37,1.48-1.65,2.31-2.32,3.64-1.06,2.09-1.56,4.43-3,6.35a5.76,5.76,0,0,1-3.44,2.4,6.16,6.16,0,0,1-.35-3.48,67.46,67.46,0,0,0,.83-12.45,24.08,24.08,0,0,0-1-5.55c-.26-.88-1-3.28.18-3.85a1.61,1.61,0,0,1,.95-.07c3,.39,4.77,2.05,6.35,4.56C154.6,139.14,154.83,139.53,155,139.92Z" style="fill:#ffbda7"></path><path d="M150.88,157.2a5.79,5.79,0,0,1-3.5,2.51c-.9-1.72-.39-3.71-.23-5.53.59-5.39,1.14-10.94-.58-16.18-1.43-4.76,1.14-4.83,4.69-2.92,3.6,2.66,6.11,7.67,4.92,12.13.87-3.63-.91-7.24-3.16-10a7.65,7.65,0,0,0-4.47-2.69c-.81-.16-1.72-.32-1.84.74,0,2.66,1.44,5.26,1.44,8a53.73,53.73,0,0,1-.63,11c-.21,1.79-.74,3.65,0,5.33l-.1-.05a5.73,5.73,0,0,0,3.46-2.31Z" style="fill:#b16668"></path><path d="M143.25,177c2.32-11.5,1.71-16.84,5.46-22.43,2.18-3.26,9-10.58,11.27-12.64s6.68-4.85,10.22-7.65,4.57-3.58,8.78-3.42c5.78.23,10.34.27,12.39,1.39s1.68,2.55-.62,4.09-6.41,1.16-7.73,1.28-4.29.73-4.29.73L172,144.83s8.43,3.46,9.95,4.75,2.06,6,.79,8.35c0,0,2.76,2.85.84,5.75,0,0,1.43,3-.36,4.79a34.68,34.68,0,0,1-6.43,4.7c-1.27.7-5.54.05-5.54.05a45.57,45.57,0,0,1-2.61,7.89c-2.39,4.81-4.93,5.11-6,9.34Z" style="fill:#ffbda7"></path><path d="M182.6,158.11a20.17,20.17,0,0,0-3.68-3.65c-1.29-1-4.06-2.68-4.06-2.68a21.88,21.88,0,0,1,5.78,2.71,18.69,18.69,0,0,1,2.56,2,4.83,4.83,0,0,1-.5,1.4Z" style="fill:#f0997a"></path><path d="M182.26,161.12a15.82,15.82,0,0,1,1.81,1.44,6,6,0,0,1-.64,1.34c-.8-1.87-4.79-4.59-4.79-4.59A17.83,17.83,0,0,1,182.26,161.12Z" style="fill:#f0997a"></path><path d="M171.21,173.22a15.36,15.36,0,0,1,4.7-5c1.58-1.19,4-.46,4.37.49s-2.45.25-3.35.44S173.15,171.22,171.21,173.22Z" style="fill:#f0997a"></path><path d="M169.61,144.1s2.08-1.93,5.71-4.93,3.34-2.51,6.25-2.48c2.71,0,8.38.21,10.17-1.17a9.79,9.79,0,0,1-1,.77c-2.24,1.49-6.41,1.16-7.73,1.28s-4.29.73-4.29.73l-7,6.72Z" style="fill:#f0997a"></path><path d="M143.25,177c.79-3.79,1.36-7.63,1.95-11.46s1.4-7.69,3.61-10.89a94,94,0,0,1,7.54-8.81c1.34-1.4,2.67-2.81,4.1-4.1s3.05-2.36,4.63-3.48,3.17-2.24,4.71-3.42a22.9,22.9,0,0,1,4.74-3.24c1.76-.72,3.73-.54,5.66-.47s3.87.13,5.8.28,3.92.27,5.51,1.21a2.07,2.07,0,0,1,.89.92,1.22,1.22,0,0,1-.2,1.15,6,6,0,0,1-2.13,1.74,14.23,14.23,0,0,1-5.58.9c-.49,0-1,0-1.47,0l-1.45.25-2.88.5h-.07l-.05,0-6.75,6.54-.23.23.3.13c3,1.28,6.11,2.54,9,4.11,1.57.64,2,2.38,2.25,4a8.39,8.39,0,0,1-.58,4.74l-.06.11.09.1a5.84,5.84,0,0,1,1.39,2.66,3.85,3.85,0,0,1-.57,2.88l-.05.08,0,.08a4.46,4.46,0,0,1,0,4.3,20.63,20.63,0,0,1-3.52,3c-.63.45-1.28.89-1.93,1.3a5.15,5.15,0,0,1-2,1,19.9,19.9,0,0,1-4.62-.19h-.11l0,.1a34.88,34.88,0,0,1-3.24,9.15,23.89,23.89,0,0,1-3,3.85,9.63,9.63,0,0,0-2.29,4.26,9.66,9.66,0,0,1,2.33-4.22,23.67,23.67,0,0,0,3-3.83,35.13,35.13,0,0,0,3.37-9.16l-.13.09a18.3,18.3,0,0,0,4.68.22,5.11,5.11,0,0,0,2.15-1c.67-.41,1.31-.84,1.95-1.29a20.73,20.73,0,0,0,3.6-3,4.77,4.77,0,0,0,.11-4.63v.16a4.18,4.18,0,0,0,.62-3.12,6.24,6.24,0,0,0-1.47-2.85l0,.21a8.81,8.81,0,0,0,.64-5,9.06,9.06,0,0,0-.64-2.44,3.63,3.63,0,0,0-1.79-1.81,95.47,95.47,0,0,0-9-4.17l.07.36,6.77-6.52-.11.06,2.84-.48,1.43-.24c.46,0,.95,0,1.43,0a14.33,14.33,0,0,0,5.8-.95,6.42,6.42,0,0,0,2.32-1.92,1.68,1.68,0,0,0,.24-1.6,2.62,2.62,0,0,0-1.08-1.15c-1.8-1-3.82-1.07-5.74-1.26s-3.88-.19-5.82-.26-3.94-.24-5.82.53a23.88,23.88,0,0,0-4.83,3.31c-1.52,1.19-3.1,2.31-4.68,3.44s-3.17,2.23-4.64,3.52-2.77,2.73-4.1,4.14a91.24,91.24,0,0,0-7.54,8.87c-2.23,3.27-3,7.21-3.53,11S144,173.15,143.25,177Z" style="fill:#b16668"></path><path d="M143.25,177c-2,10.18-27.24,48.78-29.46,58.27s4.11,27.57,8.82,31.38,15.81-.46,21.52-11S159.2,205,162.61,190.45Z" style="fill:#ffbda7"></path></g><g id="freepik--Arm--inject-5"><path d="M110.65,256c.92,1.55,2.9,3,3.17,4.62.66,4.12,9.4,6.21,12.71,9.12,9.35,5.9,32.59,5.52,50.22,2.45,28.71-5,61-16.24,68.43-24.58,4.48-5,3.47-8.76,1.93-11.17-2.82-4.44-6.17-6.08-8.07-7.27-8-5-18.35-4-21.52-3.07a215.8,215.8,0,0,1-39.18,18.76,56.45,56.45,0,0,1-14.72,2.55c-3.1-.09-4.94-.1-6.75-1.94a35.91,35.91,0,0,0-10-7.13c-3-1.48-4.68-2.79-8.4-5.75-.77-.63-2.08-.15-2.79.56A3.16,3.16,0,0,0,135,236c.74,5.06,4.89,8.52,7.69,12.53a5.37,5.37,0,0,1,1.29,3.75,4,4,0,0,1-2.64,2.87c-3.7,1.43-22.66,1.76-31.56-4.72C109.78,250.47,109.39,253.87,110.65,256Z" style="fill:#ffbda7"></path><path d="M156.87,245.51a35.18,35.18,0,0,0-8.29-6.51c-1.55-.87-3.12-1.6-4.56-2.59s-2.8-2.07-4.17-3.17l-1-.83a1.92,1.92,0,0,0-1.53-.48,3.23,3.23,0,0,0-2.46,1.63,4.38,4.38,0,0,0-.24,2.86,11.92,11.92,0,0,0,.76,2.62c1.43,3.39,4,6,6.08,8.71,1,1.36,2.18,2.82,2.07,4.33s-1.65,2.64-3.24,2.92a47.92,47.92,0,0,1-10.39.56,58.68,58.68,0,0,1-10.39-1.29,28.09,28.09,0,0,1-9.72-3.8,28.32,28.32,0,0,0,9.61,4.29,58.62,58.62,0,0,0,10.46,1.59,44.11,44.11,0,0,0,10.63-.44,4.65,4.65,0,0,0,4-3.74c.12-2.13-1.23-3.64-2.22-5-2.17-2.8-4.7-5.3-6-8.45a10.73,10.73,0,0,1-.73-2.42,3.57,3.57,0,0,1,.14-2.3,2.45,2.45,0,0,1,1.77-1.18,1,1,0,0,1,.91.27l1.05.8c1.4,1.07,2.8,2.15,4.3,3.1s3.13,1.69,4.68,2.49A35.18,35.18,0,0,1,156.87,245.51Z" style="fill:#f0997a"></path></g></g><g id="freepik--Desk--inject-5"><polygon points="74.06 369.87 74.06 391.35 210.37 470.13 210.37 448.65 74.06 369.87" style="fill:#37474f"></polygon><polygon points="210.37 448.65 448.18 311.34 448.18 332.82 210.37 470.13 210.37 448.65" style="fill:#455a64"></polygon><polygon points="210.37 440.52 68.59 358.6 310.95 218.66 452.72 300.59 210.37 440.52" style="fill:#750090"></polygon><polygon points="210.37 440.52 68.59 358.6 310.95 218.66 452.72 300.59 210.37 440.52" style="fill:#fff;opacity:0.8"></polygon><polygon points="68.59 358.6 68.59 369.99 210.37 451.91 210.37 440.52 68.59 358.6" style="fill:#750090"></polygon><polygon points="68.59 358.6 68.59 369.99 210.37 451.91 210.37 440.52 68.59 358.6" style="fill:#fff;opacity:0.5"></polygon><polygon points="210.37 451.91 452.73 311.98 452.72 300.59 210.37 440.52 210.37 451.91" style="fill:#750090"></polygon><polygon points="210.37 440.52 452.72 300.59 452.73 311.98 210.37 451.91 210.37 440.52" style="fill:#fff;opacity:0.65"></polygon></g><g id="freepik--Lines--inject-5"><g id="freepik--lines--inject-5"><path d="M62,350.12l0,0c-3.36-2.6-6.79-5.1-10.17-7.68q-2.28-1.76-4.58-3.48c-.84-.62-1.68-1.25-2.54-1.85a3.1,3.1,0,0,0-1.41-.71c-.24,0-.81.07-.94.32l-.12.22a.91.91,0,0,0,.06,1,39.32,39.32,0,0,0,4.66,4c1.42,1.14,2.86,2.24,4.29,3.35,2.95,2.27,5.87,4.59,8.88,6.78a1.37,1.37,0,0,0,2.25-.82A1.19,1.19,0,0,0,62,350.12Z" style="fill:#e0e0e0"></path><path d="M59.38,355.67v0c-4.1-1.11-8.23-2.12-12.33-3.21-1.85-.49-3.71-1-5.57-1.46-1-.26-2-.51-3.05-.74a3,3,0,0,0-1.57-.12c-.23.08-.72.37-.75.66l0,.25a.92.92,0,0,0,.44.9,39.27,39.27,0,0,0,5.83,1.89c1.74.51,3.49,1,5.24,1.46,3.6,1,7.18,2,10.8,2.87a1.37,1.37,0,0,0,1.76-1.62A1.16,1.16,0,0,0,59.38,355.67Z" style="fill:#e0e0e0"></path><path d="M57.24,361.13v0c-4,1.31-8.05,2.72-12.08,4-1.82.6-3.65,1.2-5.46,1.82-1,.34-2,.68-3,1.06a3,3,0,0,0-1.38.75c-.15.2-.4.71-.27,1l.12.23a.91.91,0,0,0,.86.51,40.65,40.65,0,0,0,5.91-1.6c1.74-.53,3.46-1.09,5.19-1.65,3.54-1.15,7.1-2.25,10.61-3.5a1.37,1.37,0,0,0,.59-2.32A1.18,1.18,0,0,0,57.24,361.13Z" style="fill:#e0e0e0"></path></g><g id="freepik--lines--inject-5"><path d="M461.31,307v0c4,.79,8,1.47,12,2.23,1.81.34,3.61.69,5.41,1,1,.18,2,.35,3,.5a2.86,2.86,0,0,0,1.51,0c.21-.09.66-.4.67-.68v-.23a.86.86,0,0,0-.48-.83,38.15,38.15,0,0,0-5.69-1.41c-1.69-.37-3.4-.7-5.1-1-3.49-.69-7-1.42-10.49-2a1.32,1.32,0,0,0-1.58,1.67A1.14,1.14,0,0,0,461.31,307Z" style="fill:#e0e0e0"></path><path d="M461.19,301.1v0c4-.8,7.94-1.71,11.92-2.53,1.8-.37,3.59-.74,5.38-1.13,1-.21,2-.43,2.93-.68a2.77,2.77,0,0,0,1.39-.57c.17-.16.47-.62.37-.88l-.09-.22a.89.89,0,0,0-.76-.59,38,38,0,0,0-5.79.88c-1.71.31-3.41.66-5.11,1-3.49.7-7,1.36-10.46,2.16a1.31,1.31,0,0,0-.82,2.14A1.13,1.13,0,0,0,461.19,301.1Z" style="fill:#e0e0e0"></path><path d="M460.68,295.52v0c2.9-2.85,5.72-5.77,8.61-8.63,1.3-1.3,2.6-2.59,3.88-3.89.71-.72,1.41-1.43,2.09-2.17a2.91,2.91,0,0,0,.85-1.24c.05-.23.05-.77-.18-.94l-.19-.14a.86.86,0,0,0-1-.07,38.42,38.42,0,0,0-4.37,3.9c-1.26,1.19-2.49,2.41-3.73,3.63-2.54,2.49-5.11,5-7.58,7.53a1.31,1.31,0,0,0,.49,2.24A1.12,1.12,0,0,0,460.68,295.52Z" style="fill:#e0e0e0"></path></g></g></g><g id="freepik--Sheets--inject-5"><g id="freepik--sheets--inject-5"><polygon points="280.13 292.41 357.72 337.21 413.14 305.21 335.55 260.41 280.13 292.41" style="fill:#fafafa"></polygon><polygon points="415.51 299.39 409.29 302.98 335.55 260.41 286.36 288.81 282.5 286.59 337.93 254.59 415.51 299.39" style="fill:#750090;opacity:0.30000000000000004"></polygon><polygon points="409.29 302.98 360.09 331.39 286.36 288.81 335.55 260.41 409.29 302.98" style="fill:#e0e0e0"></polygon><polygon points="283.62 283.17 361.21 327.97 416.63 295.97 339.04 251.17 283.62 283.17" style="fill:#fafafa"></polygon></g></g><g id="freepik--Book--inject-5"><g id="freepik--book--inject-5"><polygon points="195.2 409.85 325.58 334.57 240.83 285.63 110.45 360.92 195.2 409.85" style="opacity:0.1"></polygon><polygon points="195.09 403.81 317.9 332.9 239.44 287.6 116.63 358.51 195.09 403.81" style="fill:#750090"></polygon><polygon points="195.09 403.81 317.9 332.9 239.44 287.6 116.63 358.51 195.09 403.81" style="opacity:0.15"></polygon><path d="M254.87,367.41l0-2.19c0-2.7,4.82-10.42,10.84-13.9l48.79-28.16V333Z" style="fill:#f5f5f5"></path><path d="M314.48,323.16l-48.79,28.16c-6,3.47-10.87,11.2-10.84,13.9l0,2.19-75.05-43.33h0v-2.2c0-2.7,4.81-10.42,10.84-13.9l48.76-28.15,0,0Z" style="fill:#fafafa"></path><path d="M314.48,323.16l-48.79,28.16c-6,3.47-10.87,11.2-10.84,13.9l0,2.19-75.05-43.33h0v-2.2c0-2.7,4.81-10.42,10.84-13.9l48.79-28.17Z" style="fill:#fafafa"></path><path d="M254.85,365.38l-4.67-2.71L244,359.11c3.45-.4,5.89.12,7.58,1.09A6.38,6.38,0,0,1,254.85,365.38Z" style="fill:#f0f0f0"></path><path d="M254.85,365.38l-4.67-2.71L244,359.11c3.45-.4,5.89.12,7.58,1.09A6.38,6.38,0,0,1,254.85,365.38Z" style="fill:#e0e0e0"></path><polygon points="195.11 405.85 195.09 403.81 116.63 358.51 116.63 360.54 195.11 405.85" style="fill:#750090"></polygon><polygon points="195.11 405.85 195.09 403.81 116.63 358.51 116.63 360.54 195.11 405.85" style="opacity:0.30000000000000004"></polygon><polygon points="195.11 405.85 317.92 334.95 317.9 332.9 195.09 403.81 195.11 405.85" style="fill:#750090"></polygon><path d="M254.85,365.38c0-2.71-5-5-11-1.5l-48.77,27.94v10.11l59.79-34.52S254.87,368.08,254.85,365.38Z" style="fill:#f5f5f5"></path><polygon points="195.08 401.93 195.08 391.82 120.03 348.49 120.03 358.6 195.08 401.93" style="fill:#ebebeb"></polygon><path d="M243.86,363.88l-2.19,1.25-46.59,26.69-66.29-38.27L120,348.49l48.78-27.94c4.42-2.54,6.89-2.34,8.63-1.35h0l76.08,43.92C250.77,361.57,247.57,361.9,243.86,363.88Z" style="fill:#fafafa"></path><polygon points="191.67 384.2 233.2 360.24 235.39 358.99 236.99 359.91 234.8 361.16 193.27 385.13 191.67 384.2" style="fill:#e0e0e0"></polygon><polygon points="187.84 381.99 229.37 358.03 231.55 356.78 233.15 357.7 230.97 358.95 189.43 382.91 187.84 381.99" style="fill:#e0e0e0"></polygon><polygon points="184 379.78 225.53 355.81 227.72 354.56 229.32 355.49 227.13 356.74 185.6 380.7 184 379.78" style="fill:#e0e0e0"></polygon><polygon points="180.16 377.56 221.7 353.6 223.88 352.35 225.48 353.27 223.3 354.52 181.76 378.49 180.16 377.56" style="fill:#e0e0e0"></polygon><polygon points="176.33 375.35 217.86 351.38 220.05 350.13 221.65 351.06 219.46 352.31 177.93 376.27 176.33 375.35" style="fill:#e0e0e0"></polygon><polygon points="172.49 373.13 214.03 349.17 216.21 347.92 217.81 348.84 215.63 350.09 174.09 374.06 172.49 373.13" style="fill:#e0e0e0"></polygon><polygon points="168.66 370.92 210.19 346.95 212.38 345.7 213.97 346.63 211.79 347.88 170.26 371.84 168.66 370.92" style="fill:#e0e0e0"></polygon><polygon points="164.82 368.7 206.36 344.74 208.54 343.49 210.14 344.41 207.95 345.66 166.42 369.63 164.82 368.7" style="fill:#e0e0e0"></polygon><polygon points="160.99 366.49 202.52 342.53 204.71 341.28 206.31 342.2 204.12 343.45 162.59 367.41 160.99 366.49" style="fill:#e0e0e0"></polygon><polygon points="157.15 364.28 198.69 340.31 200.87 339.06 202.47 339.99 200.28 341.23 158.75 365.2 157.15 364.28" style="fill:#e0e0e0"></polygon><polygon points="153.32 362.06 194.85 338.1 197.04 336.85 198.63 337.77 196.45 339.02 154.92 362.98 153.32 362.06" style="fill:#e0e0e0"></polygon><polygon points="149.48 359.85 191.01 335.88 193.2 334.63 194.8 335.56 192.61 336.81 151.08 360.77 149.48 359.85" style="fill:#e0e0e0"></polygon><polygon points="145.65 357.63 187.18 333.67 189.37 332.42 190.96 333.34 188.78 334.59 147.24 358.56 145.65 357.63" style="fill:#e0e0e0"></polygon><polygon points="141.81 355.42 183.34 331.45 185.53 330.2 187.13 331.13 184.94 332.38 143.41 356.34 141.81 355.42" style="fill:#e0e0e0"></polygon><polygon points="137.98 353.2 179.51 329.24 181.69 327.99 183.29 328.91 181.11 330.16 139.57 354.13 137.98 353.2" style="fill:#e0e0e0"></polygon><polygon points="134.14 350.99 175.67 327.02 177.86 325.78 179.46 326.7 177.27 327.95 135.74 351.91 134.14 350.99" style="fill:#e0e0e0"></polygon><polygon points="130.31 348.77 171.84 324.81 174.02 323.56 175.62 324.49 173.44 325.73 131.9 349.7 130.31 348.77" style="fill:#e0e0e0"></polygon><path d="M244.32,361.26c-.9.09-2.81.7-3.86.94-4.44,1-12.26,4.57-19.75,8.32-10,5-19.44,10.36-19.44,10.36L132.6,341.29l36.21-20.74a15.78,15.78,0,0,1,4.47-1.86,9.77,9.77,0,0,1,3.13,1.08l.48-.84a4.68,4.68,0,0,1,.55.27l76.08,43.92C249.25,360.66,247.26,361,244.32,361.26Z" style="opacity:0.1"></path><polygon points="195.03 394.02 202.48 390.25 195.08 394.75 187.65 390.46 195.03 394.02" style="fill:#e6e6e6"></polygon><polygon points="195.09 399.08 208.74 391.2 195.09 398.55 179.74 390.22 195.09 399.08" style="fill:#e6e6e6"></polygon><polygon points="120.03 350.72 131.51 357.64 120.03 351.78 120.03 350.72" style="fill:#e6e6e6"></polygon><polygon points="120.05 354.67 137.09 365.09 120.03 355.61 120.05 354.67" style="fill:#e6e6e6"></polygon><path d="M244,359.11a26.09,26.09,0,0,0-2.93.5c-4.43,1-12.25,4.57-19.75,8.32-10,5-19.44,10.36-19.44,10.36L126.81,335s28.57-16.45,39.78-18.62c5.26-1,8.49-.31,10.45.81v0l74.55,43C249.91,359.23,247.47,358.71,244,359.11Z" style="fill:#f5f5f5"></path><path d="M243.08,355.28c-1.69-1-4.14-1.49-7.58-1.1a25.86,25.86,0,0,0-2.93.51,72,72,0,0,0-12.26,4.7c-2.44,1.13-5,2.36-7.49,3.62-6,3-11.84,6.15-15.51,8.17l1.7,1c3.68-2,9.49-5.16,15.52-8.18,2.5-1.25,5-2.49,7.48-3.61a72.49,72.49,0,0,1,12.26-4.71,26.09,26.09,0,0,1,2.93-.5c3.45-.4,5.89.12,7.58,1.1Z" style="fill:#e0e0e0"></path><path d="M239.23,353.06c-1.68-1-4.13-1.49-7.58-1.09a25.94,25.94,0,0,0-2.92.5,71.32,71.32,0,0,0-12.26,4.71c-2.44,1.12-5,2.35-7.49,3.61-6,3-11.84,6.15-15.52,8.18l1.71,1c3.68-2,9.49-5.16,15.51-8.17,2.51-1.26,5-2.49,7.49-3.62a72.49,72.49,0,0,1,12.26-4.71,26.09,26.09,0,0,1,2.93-.5c3.45-.39,5.89.12,7.58,1.1Z" style="fill:#e0e0e0"></path><path d="M235.39,350.85c-1.69-1-4.13-1.5-7.58-1.1a26.09,26.09,0,0,0-2.93.5A71.27,71.27,0,0,0,212.63,355c-2.45,1.12-5,2.36-7.49,3.61-6,3-11.84,6.16-15.52,8.18l1.71,1c3.67-2,9.49-5.16,15.51-8.17,2.51-1.26,5-2.49,7.49-3.62a72.49,72.49,0,0,1,12.26-4.71,28.58,28.58,0,0,1,2.93-.5c3.45-.39,5.89.13,7.58,1.1Z" style="fill:#e0e0e0"></path><path d="M231.55,348.63c-1.69-1-4.13-1.5-7.58-1.1a26.09,26.09,0,0,0-2.93.5,72.49,72.49,0,0,0-12.26,4.71c-2.44,1.13-5,2.36-7.49,3.61-6,3-11.83,6.16-15.51,8.18l1.71,1c3.67-2,9.48-5.15,15.51-8.17,2.51-1.26,5.05-2.49,7.49-3.62a72,72,0,0,1,12.26-4.7,23.67,23.67,0,0,1,2.93-.5c3.44-.4,5.89.12,7.58,1.09Z" style="fill:#e0e0e0"></path><path d="M227.71,346.41c-1.69-1-4.13-1.49-7.58-1.1a28.58,28.58,0,0,0-2.93.5,72.49,72.49,0,0,0-12.26,4.71c-2.44,1.13-5,2.36-7.49,3.62-6,3-11.84,6.15-15.51,8.17l1.7,1c3.68-2,9.49-5.16,15.52-8.18,2.5-1.26,5.05-2.49,7.49-3.61a71.32,71.32,0,0,1,12.26-4.71,25.56,25.56,0,0,1,2.92-.5c3.45-.4,5.9.12,7.58,1.09Z" style="fill:#e0e0e0"></path><path d="M223.87,344.19c-1.69-1-4.14-1.49-7.58-1.1a25.86,25.86,0,0,0-2.93.51,72,72,0,0,0-12.26,4.7c-2.44,1.13-5,2.36-7.49,3.62-6,3-11.84,6.15-15.51,8.17l1.7,1c3.68-2,9.49-5.16,15.52-8.18,2.5-1.25,5-2.49,7.49-3.61a71.27,71.27,0,0,1,12.25-4.71,26.09,26.09,0,0,1,2.93-.5c3.45-.4,5.89.12,7.58,1.1Z" style="fill:#e0e0e0"></path><path d="M220,342c-1.68-1-4.13-1.49-7.58-1.09a25.94,25.94,0,0,0-2.92.5,71,71,0,0,0-12.26,4.71c-2.44,1.12-5,2.35-7.49,3.61-6,3-11.84,6.15-15.52,8.17l1.71,1c3.68-2,9.49-5.16,15.51-8.18,2.51-1.25,5.05-2.48,7.49-3.61a72.49,72.49,0,0,1,12.26-4.71,26.09,26.09,0,0,1,2.93-.5c3.45-.39,5.89.12,7.58,1.1Z" style="fill:#e0e0e0"></path><path d="M216.18,339.76c-1.69-1-4.13-1.5-7.58-1.1a26.09,26.09,0,0,0-2.93.5,71.27,71.27,0,0,0-12.25,4.71c-2.45,1.12-5,2.36-7.49,3.61-6,3-11.84,6.16-15.52,8.18l1.71,1c3.67-2,9.49-5.16,15.51-8.17,2.51-1.26,5.05-2.49,7.49-3.62a72.49,72.49,0,0,1,12.26-4.71,28.58,28.58,0,0,1,2.93-.5c3.45-.39,5.89.13,7.58,1.1Z" style="fill:#e0e0e0"></path><path d="M206.47,337.42a25.86,25.86,0,0,0-2.93.51c-4.44,1-12.26,4.56-19.75,8.32-6,3-11.84,6.15-15.51,8.17l-1.71-1c3.68-2,9.49-5.16,15.51-8.18,7.49-3.75,15.32-7.32,19.75-8.32a26.09,26.09,0,0,1,2.93-.5c3.45-.4,5.89.12,7.58,1.1l1.7,1C212.36,337.55,209.91,337,206.47,337.42Z" style="fill:#e0e0e0"></path><path d="M202.62,335.21a25.94,25.94,0,0,0-2.92.5c-4.44,1-12.26,4.57-19.75,8.32-6,3-11.84,6.15-15.52,8.17l-1.7-1c3.67-2,9.49-5.16,15.51-8.18,7.49-3.75,15.32-7.32,19.75-8.32a26.09,26.09,0,0,1,2.93-.5c3.45-.39,5.89.13,7.58,1.1l1.7,1C208.52,335.33,206.07,334.81,202.62,335.21Z" style="fill:#e0e0e0"></path><path d="M198.78,333a26.09,26.09,0,0,0-2.93.5c-4.43,1-12.25,4.57-19.74,8.32-6,3-11.84,6.16-15.52,8.18l-1.7-1c3.67-2,9.48-5.16,15.51-8.17,7.49-3.76,15.31-7.33,19.75-8.33a28.13,28.13,0,0,1,2.93-.5c3.44-.39,5.89.13,7.58,1.1l1.7,1C204.67,333.11,202.23,332.59,198.78,333Z" style="fill:#e0e0e0"></path><path d="M194.94,330.77a26.09,26.09,0,0,0-2.93.5c-4.43,1-12.26,4.57-19.75,8.32-6,3-11.83,6.16-15.51,8.18l-1.71-1c3.68-2,9.49-5.15,15.52-8.17,7.49-3.75,15.31-7.33,19.75-8.32a26.1,26.1,0,0,1,2.92-.51c3.45-.39,5.9.13,7.58,1.1l1.71,1C200.83,330.89,198.39,330.37,194.94,330.77Z" style="fill:#e0e0e0"></path><path d="M191.1,328.55a26.09,26.09,0,0,0-2.93.5c-4.44,1-12.26,4.57-19.75,8.33-6,3-11.84,6.15-15.51,8.17l-1.71-1c3.68-2,9.49-5.16,15.52-8.18,7.49-3.75,15.31-7.32,19.74-8.32a26.09,26.09,0,0,1,2.93-.5c3.45-.4,5.89.12,7.58,1.09l1.71,1C197,328.68,194.55,328.16,191.1,328.55Z" style="fill:#e0e0e0"></path><path d="M187.26,326.33a28.13,28.13,0,0,0-2.93.5c-4.44,1-12.26,4.57-19.75,8.33-6,3-11.84,6.15-15.51,8.17l-1.71-1c3.68-2,9.49-5.16,15.51-8.18,7.49-3.75,15.32-7.32,19.75-8.32a26.09,26.09,0,0,1,2.93-.5c3.45-.4,5.89.12,7.58,1.1l1.7,1C193.15,326.46,190.7,325.94,187.26,326.33Z" style="fill:#e0e0e0"></path><path d="M183.41,324.11a26.1,26.1,0,0,0-2.92.51c-4.44,1-12.26,4.57-19.75,8.32-6,3-11.84,6.15-15.52,8.17l-1.7-1c3.67-2,9.49-5.16,15.51-8.18,7.49-3.75,15.31-7.32,19.75-8.32a26.09,26.09,0,0,1,2.93-.5c3.45-.4,5.89.12,7.58,1.1l1.7,1C189.31,324.24,186.86,323.72,183.41,324.11Z" style="fill:#e0e0e0"></path><path d="M179.57,321.9a26.09,26.09,0,0,0-2.93.5c-4.43,1-12.25,4.57-19.74,8.32-6,3-11.84,6.15-15.52,8.18l-1.7-1c3.67-2,9.48-5.16,15.51-8.17,7.49-3.76,15.31-7.33,19.75-8.33a25.71,25.71,0,0,1,2.93-.5c3.44-.39,5.89.13,7.58,1.1l1.7,1C185.46,322,183,321.5,179.57,321.9Z" style="fill:#e0e0e0"></path><path d="M175.73,319.68a26.09,26.09,0,0,0-2.93.5c-4.43,1-12.26,4.57-19.75,8.32-6,3-11.83,6.16-15.51,8.18l-1.71-1c3.68-2,9.49-5.16,15.52-8.17,7.49-3.76,15.31-7.33,19.75-8.33a28.42,28.42,0,0,1,2.92-.5c3.45-.39,5.9.13,7.58,1.1l1.71,1C181.62,319.8,179.18,319.28,175.73,319.68Z" style="fill:#e0e0e0"></path><path d="M258.67,347.27a24.43,24.43,0,0,0-6.07,5.2l-1.57-.91a24.65,24.65,0,0,1,6.08-5.19l43.73-25.19,1.56.9Z" style="fill:#e0e0e0"></path><path d="M258.67,347.27a24.43,24.43,0,0,0-6.07,5.2l-1.57-.91a24.65,24.65,0,0,1,6.08-5.19l43.73-25.19,1.56.9Z" style="fill:#e0e0e0"></path><path d="M254.83,345.05a24.64,24.64,0,0,0-6.07,5.2l-1.56-.9a24.43,24.43,0,0,1,6.07-5.2L297,319l1.56.9Z" style="fill:#e0e0e0"></path><path d="M251,342.84a24.47,24.47,0,0,0-6.08,5.19l-1.56-.9a24.64,24.64,0,0,1,6.07-5.2l43.73-25.18,1.56.9Z" style="fill:#e0e0e0"></path><path d="M247.16,340.62a24.3,24.3,0,0,0-6.08,5.2l-1.56-.9a24.3,24.3,0,0,1,6.08-5.2l43.72-25.19,1.56.9Z" style="fill:#e0e0e0"></path><path d="M243.32,338.41a24.39,24.39,0,0,0-6.07,5.19l-1.57-.9a24.69,24.69,0,0,1,6.08-5.2l43.73-25.18,1.56.9Z" style="fill:#e0e0e0"></path><path d="M239.48,336.19a24.43,24.43,0,0,0-6.07,5.2l-1.56-.9a24.43,24.43,0,0,1,6.07-5.2l43.73-25.19,1.56.9Z" style="fill:#e0e0e0"></path><path d="M235.65,334a24.51,24.51,0,0,0-6.08,5.2l-1.56-.9a24.64,24.64,0,0,1,6.07-5.2l43.73-25.19,1.56.91Z" style="fill:#e0e0e0"></path><path d="M231.81,331.76a24.3,24.3,0,0,0-6.08,5.2l-1.56-.9a24.3,24.3,0,0,1,6.08-5.2L274,305.67l1.56.9Z" style="fill:#e0e0e0"></path><path d="M228,329.54a24.46,24.46,0,0,0-6.07,5.2l-1.57-.9a24.51,24.51,0,0,1,6.08-5.2l43.72-25.19,1.57.9Z" style="fill:#e0e0e0"></path><path d="M224.13,327.33a24.43,24.43,0,0,0-6.07,5.2l-1.56-.91a24.39,24.39,0,0,1,6.07-5.19l43.73-25.19,1.56.9Z" style="fill:#e0e0e0"></path><path d="M220.3,325.11a24.51,24.51,0,0,0-6.08,5.2l-1.56-.9a24.43,24.43,0,0,1,6.07-5.2L262.46,299l1.56.9Z" style="fill:#e0e0e0"></path><path d="M216.46,322.9a24.26,24.26,0,0,0-6.08,5.19l-1.56-.9a24.51,24.51,0,0,1,6.08-5.2l43.72-25.18,1.56.9Z" style="fill:#e0e0e0"></path><path d="M212.62,320.68a24.25,24.25,0,0,0-6.07,5.2L205,325a24.3,24.3,0,0,1,6.08-5.2l43.72-25.19,1.57.9Z" style="fill:#e0e0e0"></path><path d="M208.78,318.46a24.64,24.64,0,0,0-6.07,5.2l-1.56-.9a24.64,24.64,0,0,1,6.07-5.2L251,292.38l1.56.9Z" style="fill:#e0e0e0"></path><path d="M205,316.25a24.3,24.3,0,0,0-6.08,5.2l-1.56-.9a24.43,24.43,0,0,1,6.07-5.2l43.73-25.19,1.56.9Z" style="fill:#e0e0e0"></path><path d="M201.11,314a24.51,24.51,0,0,0-6.08,5.2l-1.56-.9a24.51,24.51,0,0,1,6.08-5.2l43.72-25.19,1.56.91Z" style="fill:#e0e0e0"></path><path d="M197.27,311.82a24.48,24.48,0,0,0-6.08,5.2l-1.56-.91a24.47,24.47,0,0,1,6.08-5.19l43.72-25.19,1.57.9Z" style="fill:#e0e0e0"></path><polygon points="304.24 331.76 314.47 326.36 314.48 325.52 304.24 331.76" style="fill:#e6e6e6"></polygon><polygon points="314.48 329.37 297.42 338.9 314.48 328.75 314.48 329.37" style="fill:#e6e6e6"></polygon><path d="M138.52,328.56c9.21-4.87,21.56-10.93,28.07-12.19,5.26-1,8.49-.31,10.45.81v0l74.55,43c-1.69-1-4.13-1.49-7.58-1.09,0,0-36.9-22.51-60.73-30.2A76.83,76.83,0,0,0,138.52,328.56Z" style="opacity:0.02"></path></g></g></svg>